<?xml version="1.0" encoding="UTF-8" standalone="no"?>
<!-- Creator: CorelDRAW -->

<svg
   xmlns:dc="http://purl.org/dc/elements/1.1/"
   xmlns:cc="http://creativecommons.org/ns#"
   xmlns:rdf="http://www.w3.org/1999/02/22-rdf-syntax-ns#"
   xmlns:svg="http://www.w3.org/2000/svg"
   xmlns="http://www.w3.org/2000/svg"
   xmlns:xlink="http://www.w3.org/1999/xlink"
   xmlns:sodipodi="http://sodipodi.sourceforge.net/DTD/sodipodi-0.dtd"
   xmlns:inkscape="http://www.inkscape.org/namespaces/inkscape"
   xml:space="preserve"
   width="128px"
   height="128px"
   style="shape-rendering:geometricPrecision; text-rendering:geometricPrecision; image-rendering:optimizeQuality; fill-rule:evenodd; clip-rule:evenodd"
   viewBox="0 0 128 128"
   id="svg2"
   version="1.1"
   inkscape:version="0.91 r13725"
   sodipodi:docname="application-x-amarok.svg"><metadata
     id="metadata178"><rdf:RDF><cc:Work
         rdf:about=""><dc:format>image/svg+xml</dc:format><dc:type
           rdf:resource="http://purl.org/dc/dcmitype/StillImage" /></cc:Work></rdf:RDF></metadata><sodipodi:namedview
     pagecolor="#ffffff"
     bordercolor="#666666"
     borderopacity="1"
     objecttolerance="10"
     gridtolerance="10"
     guidetolerance="10"
     inkscape:pageopacity="0"
     inkscape:pageshadow="2"
     inkscape:window-width="1680"
     inkscape:window-height="995"
     id="namedview176"
     showgrid="false"
     inkscape:zoom="1.84375"
     inkscape:cx="64"
     inkscape:cy="64"
     inkscape:window-x="0"
     inkscape:window-y="28"
     inkscape:window-maximized="1"
     inkscape:current-layer="svg2" /><defs
     id="defs4"><style
       type="text/css"
       id="style6"><![CDATA[
    .fil128 {fill:white}
    .fil85 {fill:#94CBF7}
    .fil129 {fill:#4E87B4;fill-rule:nonzero}
    .fil84 {fill:#94CBF7;fill-rule:nonzero}
    .fil83 {fill:#BCE6FF;fill-rule:nonzero}
    .fil0 {fill:black;fill-opacity:0.000000}
    .fil86 {fill:#A3EFF7;fill-opacity:0.000000}
    .fil1 {fill:black;fill-opacity:0.007843}
    .fil2 {fill:black;fill-opacity:0.011765}
    .fil119 {fill:#A3EFF7;fill-opacity:0.011765}
    .fil81 {fill:#64A4DB;fill-opacity:0.015686}
    .fil118 {fill:#88C8E8;fill-opacity:0.015686}
    .fil49 {fill:#B8E7FF;fill-opacity:0.015686}
    .fil3 {fill:black;fill-opacity:0.019608}
    .fil4 {fill:black;fill-opacity:0.023529}
    .fil120 {fill:#A3EFF7;fill-opacity:0.027451}
    .fil80 {fill:#64A4DB;fill-opacity:0.031373}
    .fil117 {fill:#88C8E8;fill-opacity:0.031373}
    .fil48 {fill:#B8E7FF;fill-opacity:0.031373}
    .fil5 {fill:black;fill-opacity:0.031373}
    .fil6 {fill:black;fill-opacity:0.035294}
    .fil121 {fill:#A3EFF7;fill-opacity:0.039216}
    .fil7 {fill:black;fill-opacity:0.043137}
    .fil79 {fill:#64A4DB;fill-opacity:0.047059}
    .fil116 {fill:#88C8E8;fill-opacity:0.047059}
    .fil47 {fill:#B8E7FF;fill-opacity:0.047059}
    .fil8 {fill:black;fill-opacity:0.050980}
    .fil122 {fill:#A3EFF7;fill-opacity:0.054902}
    .fil9 {fill:black;fill-opacity:0.054902}
    .fil78 {fill:#64A4DB;fill-opacity:0.058824}
    .fil115 {fill:#88C8E8;fill-opacity:0.058824}
    .fil46 {fill:#B8E7FF;fill-opacity:0.058824}
    .fil10 {fill:black;fill-opacity:0.062745}
    .fil123 {fill:#A3EFF7;fill-opacity:0.066667}
    .fil11 {fill:black;fill-opacity:0.066667}
    .fil12 {fill:black;fill-opacity:0.074510}
    .fil77 {fill:#64A4DB;fill-opacity:0.074510}
    .fil114 {fill:#88C8E8;fill-opacity:0.074510}
    .fil45 {fill:#B8E7FF;fill-opacity:0.074510}
    .fil13 {fill:black;fill-opacity:0.078431}
    .fil124 {fill:#A3EFF7;fill-opacity:0.078431}
    .fil76 {fill:#64A4DB;fill-opacity:0.090196}
    .fil113 {fill:#88C8E8;fill-opacity:0.090196}
    .fil44 {fill:#B8E7FF;fill-opacity:0.090196}
    .fil125 {fill:#A3EFF7;fill-opacity:0.094118}
    .fil75 {fill:#64A4DB;fill-opacity:0.105882}
    .fil112 {fill:#88C8E8;fill-opacity:0.105882}
    .fil43 {fill:#B8E7FF;fill-opacity:0.105882}
    .fil126 {fill:#A3EFF7;fill-opacity:0.105882}
    .fil127 {fill:#A3EFF7;fill-opacity:0.121569}
    .fil74 {fill:#64A4DB;fill-opacity:0.121569}
    .fil111 {fill:#88C8E8;fill-opacity:0.121569}
    .fil42 {fill:#B8E7FF;fill-opacity:0.121569}
    .fil73 {fill:#64A4DB;fill-opacity:0.137255}
    .fil110 {fill:#88C8E8;fill-opacity:0.137255}
    .fil41 {fill:#B8E7FF;fill-opacity:0.137255}
    .fil72 {fill:#64A4DB;fill-opacity:0.152941}
    .fil109 {fill:#88C8E8;fill-opacity:0.152941}
    .fil40 {fill:#B8E7FF;fill-opacity:0.152941}
    .fil71 {fill:#64A4DB;fill-opacity:0.164706}
    .fil108 {fill:#88C8E8;fill-opacity:0.164706}
    .fil39 {fill:#B8E7FF;fill-opacity:0.164706}
    .fil70 {fill:#64A4DB;fill-opacity:0.180392}
    .fil107 {fill:#88C8E8;fill-opacity:0.180392}
    .fil38 {fill:#B8E7FF;fill-opacity:0.180392}
    .fil69 {fill:#64A4DB;fill-opacity:0.196078}
    .fil106 {fill:#88C8E8;fill-opacity:0.196078}
    .fil37 {fill:#B8E7FF;fill-opacity:0.196078}
    .fil68 {fill:#64A4DB;fill-opacity:0.211765}
    .fil105 {fill:#88C8E8;fill-opacity:0.211765}
    .fil36 {fill:#B8E7FF;fill-opacity:0.211765}
    .fil67 {fill:#64A4DB;fill-opacity:0.227451}
    .fil104 {fill:#88C8E8;fill-opacity:0.227451}
    .fil35 {fill:#B8E7FF;fill-opacity:0.227451}
    .fil66 {fill:#64A4DB;fill-opacity:0.243137}
    .fil103 {fill:#88C8E8;fill-opacity:0.243137}
    .fil34 {fill:#B8E7FF;fill-opacity:0.243137}
    .fil65 {fill:#64A4DB;fill-opacity:0.258824}
    .fil102 {fill:#88C8E8;fill-opacity:0.258824}
    .fil33 {fill:#B8E7FF;fill-opacity:0.258824}
    .fil64 {fill:#64A4DB;fill-opacity:0.274510}
    .fil101 {fill:#88C8E8;fill-opacity:0.274510}
    .fil32 {fill:#B8E7FF;fill-opacity:0.274510}
    .fil63 {fill:#64A4DB;fill-opacity:0.286275}
    .fil100 {fill:#88C8E8;fill-opacity:0.286275}
    .fil31 {fill:#B8E7FF;fill-opacity:0.286275}
    .fil62 {fill:#64A4DB;fill-opacity:0.301961}
    .fil99 {fill:#88C8E8;fill-opacity:0.301961}
    .fil30 {fill:#B8E7FF;fill-opacity:0.301961}
    .fil61 {fill:#64A4DB;fill-opacity:0.317647}
    .fil98 {fill:#88C8E8;fill-opacity:0.317647}
    .fil29 {fill:#B8E7FF;fill-opacity:0.317647}
    .fil60 {fill:#64A4DB;fill-opacity:0.333333}
    .fil97 {fill:#88C8E8;fill-opacity:0.333333}
    .fil28 {fill:#B8E7FF;fill-opacity:0.333333}
    .fil59 {fill:#64A4DB;fill-opacity:0.349020}
    .fil96 {fill:#88C8E8;fill-opacity:0.349020}
    .fil27 {fill:#B8E7FF;fill-opacity:0.349020}
    .fil58 {fill:#64A4DB;fill-opacity:0.364706}
    .fil95 {fill:#88C8E8;fill-opacity:0.364706}
    .fil26 {fill:#B8E7FF;fill-opacity:0.364706}
    .fil57 {fill:#64A4DB;fill-opacity:0.380392}
    .fil94 {fill:#88C8E8;fill-opacity:0.380392}
    .fil25 {fill:#B8E7FF;fill-opacity:0.380392}
    .fil56 {fill:#64A4DB;fill-opacity:0.392157}
    .fil93 {fill:#88C8E8;fill-opacity:0.392157}
    .fil24 {fill:#B8E7FF;fill-opacity:0.392157}
    .fil55 {fill:#64A4DB;fill-opacity:0.407843}
    .fil92 {fill:#88C8E8;fill-opacity:0.407843}
    .fil23 {fill:#B8E7FF;fill-opacity:0.407843}
    .fil54 {fill:#64A4DB;fill-opacity:0.423529}
    .fil91 {fill:#88C8E8;fill-opacity:0.423529}
    .fil22 {fill:#B8E7FF;fill-opacity:0.423529}
    .fil53 {fill:#64A4DB;fill-opacity:0.439216}
    .fil90 {fill:#88C8E8;fill-opacity:0.439216}
    .fil21 {fill:#B8E7FF;fill-opacity:0.439216}
    .fil15 {fill:#5B98C8;fill-opacity:0.439216}
    .fil52 {fill:#64A4DB;fill-opacity:0.454902}
    .fil89 {fill:#88C8E8;fill-opacity:0.454902}
    .fil20 {fill:#B8E7FF;fill-opacity:0.454902}
    .fil51 {fill:#64A4DB;fill-opacity:0.470588}
    .fil88 {fill:#88C8E8;fill-opacity:0.470588}
    .fil19 {fill:#B8E7FF;fill-opacity:0.470588}
    .fil50 {fill:#64A4DB;fill-opacity:0.486275}
    .fil87 {fill:#88C8E8;fill-opacity:0.486275}
    .fil18 {fill:#B8E7FF;fill-opacity:0.486275}
    .fil16 {fill:#94CBF7;fill-opacity:0.501961}
    .fil14 {fill:url(#id0)}
    .fil17 {fill:url(#id1)}
    .fil82 {fill:url(#id2);fill-rule:nonzero}
   ]]></style><linearGradient
       id="id0"
       gradientUnits="userSpaceOnUse"
       x1="64.0035"
       y1="12.5151"
       x2="63.7142"
       y2="41.8895"><stop
         offset="0"
         style="stop-color:#5CA2DA"
         id="stop9" /><stop
         offset="1"
         style="stop-color:#8DC8F4"
         id="stop11" /></linearGradient><linearGradient
       id="id1"
       gradientUnits="userSpaceOnUse"
       xlink:href="#id0"
       x1="64.4618"
       y1="45.8699"
       x2="63.4638"
       y2="95.126" /><linearGradient
       id="id2"
       gradientUnits="userSpaceOnUse"
       x1="64.287"
       y1="43.3127"
       x2="63.6374"
       y2="101.25"><stop
         offset="0"
         style="stop-color:#88C8E8"
         id="stop15" /><stop
         offset="1"
         style="stop-color:#CCEDFF"
         id="stop17" /></linearGradient></defs><g
     id="Слой_x0020_1"><metadata
       id="CorelCorpID_0Corel-Layer" /><g
       id="_83133704"><path
         id="_88003824"
         class="fil0"
         d="M61.7169 108.449c61.7358,-2.5146 65.2319,7.3182 65.5012,15.188 0.0779537,2.30554 -2.22641,3.53981 -6.42409,4.16698l-114.793 0c-3.18193,-0.627173 -5.19219,-1.50711 -5.78629,-2.70594l0 -3.39807c1.09135,-5.28668 8.68357,-11.1001 61.5019,-13.251z" /><g
         id="g23"><path
           id="_113643040"
           class="fil1"
           d="M61.8539 109.416c59.1999,-2.32208 64.8327,6.98749 65.0807,14.3931 0.0779537,2.3079 -2.63862,3.45713 -7.51308,3.99454l-112.225 0c-4.32407,-0.701583 -6.75126,-1.78112 -6.75126,-3.36855 0,-5.52763 2.20869,-12.697 61.4086,-15.0191z" /><path
           id="_112507528"
           class="fil2"
           d="M61.9874 110.385c56.6641,-2.12719 64.4347,6.65796 64.6602,13.5982 0.0803159,2.34924 -3.27996,3.39807 -9.17964,3.82091l-28.1897 0c-5.9044,-0.0803159 -12.299,-0.120474 -19.0207,0l-61.626 0c-4.95715,-0.641346 -7.77647,-1.67364 -7.77647,-3.24689 0,-5.21936 4.46817,-12.0438 61.1322,-14.1722z" /><path
           id="_112661720"
           class="fil3"
           d="M62.1256 111.353c54.1282,-1.93349 64.0331,6.32724 64.2398,12.8033 0.0838593,2.50042 -4.52604,3.39453 -12.3568,3.64729l-15.3911 0c-9.81981,-0.142915 -21.6038,-0.377957 -34.2843,0l-53.8648 0c-5.82881,-0.571661 -9.2009,-1.55671 -9.2009,-3.12524 0,-4.91108 6.72646,-11.3895 60.8582,-13.3254z" /><path
           id="_86568512"
           class="fil4"
           d="M62.259 112.322c51.5971,-1.74097 63.635,5.99653 63.8217,12.0084 0.185435,5.5418 -27.9157,2.39294 -61.9212,3.33075l-5.32329 0.142915 -45.8096 0c-7.12568,-0.487801 -11.3458,-1.41616 -11.3458,-3.00358 0,-4.60281 8.98358,-10.7375 60.5783,-12.4785z" /><path
           id="_86566072"
           class="fil5"
           d="M62.3949 113.29c49.0601,-1.54726 63.2358,5.66582 63.4012,11.2123 0.162994,4.95951 -28.0964,2.17562 -61.6047,3.00949 -4.39848,0.108663 -8.71074,0.209058 -12.8848,0.291736l-34.1898 0c-9.30956,-0.372052 -15.025,-1.23072 -15.025,-2.88311 0,-4.29454 11.2431,-10.0832 60.3031,-11.6305z" /><path
           id="_51982184"
           class="fil6"
           d="M62.5307 114.26c46.5254,-1.35356 62.8354,5.33629 62.9807,10.4186 0.144096,4.37604 -28.2759,1.95711 -61.2858,2.68586 -9.97335,0.220869 -19.5498,0.394493 -28.0645,0.439375l-8.00207 0c-15.3557,-0.0944894 -25.655,-0.801978 -25.655,-2.76027 0,-3.98745 13.5013,-9.42886 60.0267,-10.7836z" /><path
           id="_22875776"
           class="fil7"
           d="M62.6689 115.229c43.9895,-1.16104 62.4362,5.00557 62.559,9.62256 0.124017,3.79493 -28.4543,1.74097 -60.9681,2.36578 -32.515,0.62363 -61.3413,0.790167 -61.3413,-2.0516 0,-3.67918 15.7596,-8.7757 59.7503,-9.93674z" /><path
           id="_82689072"
           class="fil8"
           d="M62.8047 116.198c41.4548,-0.967335 62.0358,4.67486 62.1386,8.82885 0.105119,3.21146 -28.635,1.52364 -60.6515,2.04215 -32.0165,0.519691 -60.961,0.633079 -60.961,-1.78231 0,-3.36973 18.0191,-8.12136 59.474,-9.08869z" /><path
           id="_51796456"
           class="fil9"
           d="M62.9394 117.166c38.919,-0.77245 61.6366,4.34533 61.7193,8.03396 0.0826782,2.62917 -28.8145,1.30632 -60.335,1.71971 -31.5205,0.414572 -60.583,0.47599 -60.583,-1.51065 0,-3.06264 20.2786,-7.4682 59.1988,-8.24301z" /><path
           id="_85973128"
           class="fil10"
           d="M63.0752 118.135c36.3843,-0.58111 61.2374,4.01344 61.2988,7.23788 0.0637803,2.04688 -28.9929,1.09017 -60.0173,1.39844 -31.0232,0.309453 -60.2039,0.318902 -60.2039,-1.24253 0,-2.75436 22.5369,-6.81386 58.9224,-7.39379z" /><path
           id="_113254656"
           class="fil11"
           d="M63.2122 119.104c33.8484,-0.387406 60.8382,3.68272 60.8795,6.44299 0.0413391,1.4634 -29.1748,0.872845 -59.7019,1.076 -30.5248,0.205514 -59.8224,0.161813 -59.8224,-0.972059 0,-2.44609 24.794,-6.15952 58.6448,-6.54693z" /><path
           id="_82603000"
           class="fil12"
           d="M63.3457 120.072c31.315,-0.192522 60.4401,3.35437 60.459,5.6481 0.0212601,0.881113 -29.3519,0.65552 -59.383,0.754734 -30.0275,0.0992138 -59.4433,0.00354335 -59.4433,-0.701583 0,-2.139 27.0523,-5.50755 58.3673,-5.70125z" /></g><path
         id="_51736416"
         class="fil13"
         d="M63.4815 121.042c28.7791,0 60.0397,3.02366 60.0397,4.85321 0,0.598826 -118.132,0.557487 -118.132,0 0,-1.82955 29.3118,-4.85321 58.0921,-4.85321z" /></g><path
       class="fil14"
       d="M124.558 40.5548l0.1689 1.03348 -122.032 0 0 -22.8428c0,-1.37836 0.545676,-2.64452 1.44569,-3.62839 1.15395,-1.40199 2.902,-2.30082 4.84848,-2.30082l109.512 0c3.45477,0 6.52095,2.84413 6.48197,6.28118l-0.250397 21.4574 -0.174805 0z"
       id="path38" /><path
       class="fil15"
       d="M2.7957 23.2149l-0.166537 -4.68667c-0.0484258,-1.37836 0.712213,-2.61145 1.61222,-3.59532 0.728749,-0.884657 2.29845,-1.70435 3.40162,-2.08821l0.0366146 0.414572 -0.283468 0 0 2.08821 0.468903 0 0.566936 6.42173 0.92009 0.184254c-0.903554,1.69726 -4.90754,3.89769 -6.41346,1.46458 -0.0425202,-0.0685048 -0.090946,-0.134647 -0.142915,-0.203152z"
       id="path40" /><path
       class="fil16"
       d="M5.86188 13.3065c0.630716,-0.235042 1.30986,-0.368508 2.0138,-0.386225l0 6.99694 -2.0138 0 0 -6.61071z"
       id="path42" /><path
       class="fil16"
       d="M118.61 13.3065c0.631898,-0.235042 1.30986,-0.368508 2.01499,-0.386225l0 6.99694 -2.01499 0 0 -6.61071z"
       id="path44" /><path
       class="fil15"
       d="M124.748 22.5085l0.166537 -4.68667c0.0484258,-1.37836 -0.712213,-2.61145 -1.61222,-3.59532 -0.728749,-0.884657 -2.2453,-1.21773 -3.34729,-1.60159l-0.0637803 0.63426 0.755915 0 -0.0248035 2.39058 -0.940169 -0.302366 -0.570479 5.71661 -0.92009 0.183073c0.903554,1.69726 4.90636,3.89769 6.41346,1.46458 0.0425202,-0.0685048 0.090946,-0.134647 0.142915,-0.203152z"
       id="path46" /><path
       class="fil17"
       d="M2.71066 35.6922l-0.0141734 -14.0175c0,-1.37836 0.545676,-2.6457 1.44569,-3.62957 1.15395,-1.40199 2.902,-2.29963 4.84848,-2.29963l109.512 0c3.45477,0 6.48551,2.74728 6.43236,6.1796 -0.0732292,4.76226 0.292917,9.55051 0.292917,14.1899l0 82.8471c0,3.44059 -2.77208,6.28827 -6.15008,6.28827 -40.5099,0 -41.1371,0 -110.23,0 -3.37799,0 -6.15126,-2.82996 -6.15126,-6.28827l0 -82.8471c0,-0.141734 0.00472447,-0.283468 0.0141734,-0.42284z"
       id="path48" /><g
       id="_84365432"><path
         id="_113062592"
         class="fil18"
         d="M2.69649 60.5346c9.84343,-1.48112 19.8947,-0.180711 29.4145,6.01189 5.60794,3.68036 10.6749,7.09024 15.2364,10.1718 24.5483,17.0919 32.1217,22.3101 51.4471,15.6451 6.93316,-2.28546 16.3679,-8.51822 26.4334,-13.8226l0 1.25671c-9.95918,5.27841 -19.2935,11.4379 -26.1641,13.7104 -19.7424,6.81268 -27.3948,1.5449 -52.2314,-15.7514 -4.50596,-3.04846 -9.5139,-6.41465 -15.2092,-10.16 -9.21035,-5.97173 -19.1258,-7.10442 -28.9267,-5.5418l0 -1.5201z" /><path
         id="_51698936"
         class="fil19"
         d="M2.69649 62.2614l0.379139 -0.0590558c10.1505,-1.53191 20.4971,-0.419296 30.3606,5.67999 5.60322,3.53626 10.7576,6.84693 15.449,9.89422 24.1621,16.6443 31.935,21.8861 51.0183,15.749 6.74063,-1.96892 15.7467,-7.51072 25.3243,-12.2777l0 1.21064c-9.48791,4.75754 -18.4077,10.2568 -25.0893,12.2175 -19.479,6.29535 -27.3192,0.999225 -51.7601,-15.8435 -4.63234,-3.01185 -9.72177,-6.2859 -15.4089,-9.88595 -9.38397,-5.76149 -19.4046,-6.78315 -29.3472,-5.30558l-0.925996 0.144096 0 -1.52364z" /><path
         id="_86565680"
         class="fil20"
         d="M2.69649 63.9764c0.537408,-0.0826782 1.07364,-0.162994 1.61222,-0.237404 10.1871,-1.38073 20.5254,-0.350792 30.4527,5.4792 5.60086,3.3839 10.8403,6.59772 15.6616,9.61665 23.7794,16.1967 31.7496,21.468 50.5908,15.8577 6.53748,-1.66656 15.1171,-6.54575 24.2141,-10.7954l0 1.17875c-9.02255,4.2473 -17.5266,9.10051 -24.0156,10.7694 -19.2156,5.76739 -27.2507,0.448824 -51.2876,-15.9368 -4.75872,-2.98232 -9.93319,-6.16189 -15.6049,-9.6072 -9.47138,-5.49928 -19.4967,-6.44181 -29.4913,-5.12014 -0.712213,0.0944894 -1.42206,0.198428 -2.13192,0.311815l0 -1.51655z" /><path
         id="_84528224"
         class="fil21"
         d="M2.69649 65.6595c0.946075,-0.141734 1.89451,-0.270476 2.84531,-0.382682 10.2226,-1.23072 20.5443,-0.277562 30.546,5.27487 5.59731,3.23626 10.9253,6.35559 15.873,9.34027 23.3932,15.7502 31.563,21.0522 50.1609,15.9652 6.33079,-1.376 14.484,-5.6233 23.1062,-9.36862l0 1.14805c-8.56074,3.75477 -16.6561,7.99262 -22.9397,9.37571 -18.9546,5.25125 -27.1799,-0.0921271 -50.8187,-16.0313 -4.88392,-2.94571 -10.1399,-6.02724 -15.8033,-9.32846 -9.5576,-5.23471 -19.5888,-6.10283 -29.6307,-4.9288 -1.11497,0.129923 -2.22877,0.279925 -3.33902,0.446462l0 -1.51065z" /><path
         id="_86646488"
         class="fil22"
         d="M2.69649 67.3107c1.35474,-0.188979 2.71421,-0.355516 4.08076,-0.498431 10.258,-1.08072 20.5703,-0.204333 30.6346,5.07644 5.59377,3.08862 11.0068,6.11346 16.0856,9.06035 23.0105,15.3073 31.3787,20.6329 49.7357,16.0691 6.10992,-1.09844 13.8439,-4.74809 21.9948,-8.00561l0 1.12442c-8.10482,3.2776 -15.7904,6.93552 -21.8637,8.04459 -18.6947,4.72447 -27.1078,-0.642528 -50.3475,-16.1246 -5.01148,-2.91145 -10.3501,-5.90086 -16.0018,-9.04854 -9.64736,-4.97723 -19.6821,-5.76385 -29.7748,-4.74573 -1.51774,0.154726 -3.03311,0.336618 -4.54376,0.540952l0 -1.49293z" /><path
         id="_81829520"
         class="fil23"
         d="M2.69649 68.9134c1.76341,-0.213782 3.5339,-0.407485 5.31148,-0.564574 10.2958,-0.93072 20.5999,-0.135828 30.7291,4.87565 5.59259,2.93626 11.0919,5.86661 16.2994,8.78042 22.6231,14.8644 31.1909,20.216 49.3022,16.1766 5.88787,-0.838593 13.2013,-3.91895 20.8892,-6.70874l0 1.1008c-7.65482,2.81933 -14.9329,5.92212 -20.7888,6.77725 -18.4337,4.20123 -27.0381,-1.18938 -49.875,-16.2179 -5.13786,-2.87838 -10.5604,-5.77802 -16.2014,-8.77334 -9.73358,-4.71029 -19.7731,-5.42251 -29.9201,-4.55439 -1.92168,0.164175 -3.83509,0.360241 -5.74613,0.582291l0 -1.47403z" /><path
         id="_83767376"
         class="fil24"
         d="M2.69649 70.4572c2.17326,-0.216144 4.3536,-0.409848 6.54693,-0.574023 10.3312,-0.77245 20.6223,-0.0614181 30.8224,4.6784 5.58314,2.78625 11.1722,5.61975 16.5097,8.50168 22.2381,14.4179 31.0055,19.8026 48.877,16.2805 5.65164,-0.59174 12.547,-3.14059 19.7754,-5.48274l0 1.0819c-7.20954,2.37759 -14.0836,4.96305 -19.7128,5.57723 -18.1727,3.678 -26.9684,-1.7386 -49.4073,-16.31 -5.26306,-2.84767 -10.7682,-5.65401 -16.3974,-8.49695 -9.81862,-4.44927 -19.864,-5.08235 -30.0606,-4.36777 -2.32208,0.164175 -4.63943,0.356697 -6.95324,0.565755l0 -1.45395z" /><path
         id="_113984704"
         class="fil25"
         d="M2.69649 71.9371c2.58546,-0.183073 5.17447,-0.360241 7.78002,-0.514967 10.3655,-0.625992 20.6471,0.00944894 30.9122,4.46935 5.58314,2.64098 11.2596,5.38235 16.7246,8.22884 21.8518,13.9738 30.8201,19.3869 48.4482,16.3892 5.40715,-0.364965 11.8915,-2.41775 18.6664,-4.33588l0 1.06891c-6.76662,1.95829 -13.245,4.05596 -18.638,4.44809 -17.9128,3.15476 -26.8964,-2.28546 -48.9372,-16.4081 -5.38707,-2.81224 -10.9761,-5.51818 -16.5935,-8.21585 -9.90957,-4.18352 -19.9573,-4.74691 -30.2047,-4.17761 -2.72602,0.150002 -5.44022,0.314177 -8.15797,0.478352l0 -1.43033z" /><path
         id="_86557112"
         class="fil26"
         d="M2.69649 73.3438c2.99886,-0.115749 5.99535,-0.249216 9.01074,-0.386225 10.4045,-0.473628 20.6766,0.0803159 31.0055,4.2721 5.58314,2.49098 11.3423,5.13195 16.9396,7.94892 21.4656,13.5285 30.6334,18.9652 48.0219,16.4931 5.15321,-0.151183 11.2277,-1.74923 17.5538,-3.26933l0 1.06182c-6.33315,1.56734 -12.4135,3.21264 -17.562,3.39335 -17.6518,2.63271 -26.8279,-2.82996 -48.4636,-16.4978 -5.51818,-2.78153 -11.1875,-5.39416 -16.7978,-7.93947 -9.99461,-3.92131 -20.0447,-4.40675 -30.3464,-3.99099 -3.12878,0.127561 -6.23866,0.236223 -9.36153,0.320083l0 -1.40553z" /><path
         id="_86568008"
         class="fil27"
         d="M2.69649 74.6702c3.41815,-0.00944894 6.81977,-0.0720481 10.2462,-0.174805 10.4387,-0.324807 20.6967,0.152364 31.1,4.06895 5.57251,2.34334 11.4226,4.88746 17.1486,7.67017 21.0794,13.0821 30.4457,18.5518 47.5896,16.5994 4.89337,0.0389769 10.5615,-1.1386 16.4471,-2.28782l0 1.05946c-5.9044,1.19765 -11.5903,2.42956 -16.4872,2.42011 -17.3896,2.10947 -26.7558,-3.37681 -47.9947,-16.5923 -5.6422,-2.74728 -11.3931,-5.26542 -16.9939,-7.66072 -10.082,-3.66146 -20.1392,-4.06304 -30.4846,-3.80438 -3.53036,0.0885838 -7.03709,0.120474 -10.571,0.0850404l0 -1.38309z" /><path
         id="_88178576"
         class="fil28"
         d="M2.69649 75.9116c3.83981,0.140553 7.64183,0.177168 11.4781,0.115749 10.4765,-0.166537 20.7251,0.230318 31.1898,3.87406 5.57487,2.19215 11.5088,4.64179 17.366,7.39025 20.692,12.6368 30.259,18.1325 47.1596,16.7057 4.62171,0.209058 9.88831,-0.590558 15.338,-1.39726l0 1.06419c-5.48156,0.85631 -10.7789,1.71144 -15.4112,1.53191 -17.1297,1.5827 -26.685,-3.92485 -47.5246,-16.6856 -5.76621,-2.71539 -11.6021,-5.13786 -17.19,-7.38552 -10.1706,-3.39689 -20.2314,-3.72288 -30.6323,-3.61776 -3.92485,0.0460636 -7.8249,-0.0342524 -11.7734,-0.236223l0 -1.35947z" /><path
         id="_81392112"
         class="fil29"
         d="M2.69649 77.0584c4.26974,0.340162 8.47097,0.511424 12.7124,0.505518 10.5131,-0.0188979 20.7487,0.300004 31.2819,3.67209 5.57133,2.04215 11.5903,4.39848 17.5762,7.11387 20.3105,12.1868 30.0748,17.7168 46.7333,16.8144 4.33942,0.356697 9.20681,-0.111025 14.2277,-0.607094l0 1.07245c-5.06345,0.544495 -9.97335,1.06655 -14.3364,0.732292 -16.8687,1.06537 -26.6141,-4.46935 -47.0533,-16.7789 -5.89377,-2.67877 -11.8124,-5.00912 -17.3872,-7.10678 -10.2604,-3.12996 -20.3258,-3.38272 -30.7752,-3.42406 -4.32053,-0.0141734 -8.6068,-0.237404 -12.9793,-0.651977l0 -1.34175z" /><path
         id="_109884408"
         class="fil30"
         d="M2.69649 78.1108c4.70911,0.590558 9.30366,0.931901 13.9454,0.990957 10.5462,0.129923 20.777,0.370871 31.374,3.47012 5.56424,1.89333 11.6742,4.15044 17.79,6.83867 19.9266,11.7379 29.887,17.2963 46.3057,16.9148 4.04651,0.485439 8.5194,0.311815 13.1163,0.0921271l0 1.08545c-4.65242,0.266932 -9.17728,0.494888 -13.2628,0.030709 -16.6065,0.538589 -26.5409,-5.01738 -46.5809,-16.8746 -6.01897,-2.64806 -12.0226,-4.87919 -17.5856,-6.82567 -10.3478,-2.87248 -20.4168,-3.04492 -30.9169,-3.23744 -4.71148,-0.0874027 -9.38161,-0.48662 -14.1852,-1.16222l0 -1.32285z" /><path
         id="_112387328"
         class="fil31"
         d="M2.69649 79.0663c5.15794,0.891743 10.1399,1.43506 15.1809,1.57207 10.5816,0.287011 20.7983,0.440557 31.4638,3.26933 5.56306,1.74333 11.758,3.90832 18.0026,6.55874 19.5416,11.2962 29.7039,16.8805 45.8769,17.0223 3.7465,0.590558 7.82726,0.662607 12.0072,0.682686l0 1.10907c-4.24612,0.0212601 -8.39302,-0.00472447 -12.1844,-0.578747 -16.3478,0.0188979 -26.4747,-5.5666 -46.1132,-16.9656 -6.14417,-2.61617 -12.2293,-4.754 -17.7853,-6.55166 -10.4328,-2.60672 -20.5077,-2.70594 -31.0598,-3.04964 -5.09416,-0.165356 -10.1446,-0.773632 -15.3888,-1.75986l0 -1.30868z" /><path
         id="_83068184"
         class="fil32"
         d="M2.69649 79.9203c5.61503,1.24844 10.9832,2.03034 16.4116,2.25357 10.6218,0.432289 20.8266,0.513786 31.5594,3.06618 5.5607,1.59805 11.8431,3.66501 18.214,6.28236 19.1542,10.8497 29.5161,16.4671 45.4482,17.1333 3.43823,0.668512 7.12804,0.944894 10.8982,1.16812l0 1.13033c-3.84808,-0.186616 -7.61584,-0.424021 -11.1119,-1.08308 -16.0844,-0.506699 -26.4015,-6.1111 -45.6407,-17.0636 -6.26937,-2.57956 -12.4395,-4.62289 -17.9813,-6.26819 -10.5214,-2.34452 -20.6022,-2.36814 -31.2016,-2.86303 -5.47566,-0.25394 -10.9029,-1.10789 -16.5959,-2.4579l0 -1.29805z" /><path
         id="_112201352"
         class="fil33"
         d="M2.69649 80.6726c6.0863,1.65593 11.8301,2.71775 17.6471,3.03783 10.6537,0.588196 20.8491,0.588196 31.6492,2.86775 5.55597,1.44332 11.9257,3.42051 18.429,5.99889 18.7679,10.4104 29.3307,16.049 45.0183,17.2396 3.11815,0.726387 6.42291,1.15986 9.78792,1.54608l0 1.16104c-3.45477,-0.357878 -6.84812,-0.763002 -10.0348,-1.48348 -15.8234,-1.03112 -26.3318,-6.65914 -45.173,-17.1545 -6.39693,-2.54649 -12.6486,-4.50006 -18.1798,-5.99771 -10.6064,-2.0764 -20.6908,-2.02443 -31.3457,-2.67169 -5.85007,-0.355516 -11.6399,-1.49293 -17.7983,-3.25398l0 -1.28978z" /><path
         id="_85212296"
         class="fil34"
         d="M2.69649 81.3187c6.57292,2.11538 12.6852,3.49611 18.8802,3.92839 10.6915,0.738198 20.8739,0.657882 31.7402,2.66578 5.55479,1.29923 12.0108,3.17248 18.6416,5.72487 18.3841,9.95918 29.1464,15.6274 44.5907,17.3423 2.78744,0.753553 5.71188,1.30159 8.67885,1.80593l0 1.19765c-3.06618,-0.490164 -6.08511,-1.02048 -8.95877,-1.7764 -15.5648,-1.54963 -26.261,-7.20363 -44.7017,-17.2514 -6.52449,-2.51105 -12.8576,-4.36659 -18.3782,-5.70834 -10.6974,-1.82364 -20.7829,-1.68782 -31.485,-2.48979 -6.22212,-0.462998 -12.3757,-1.92168 -19.0077,-4.14572l0 -1.29332z" /><path
         id="_81498008"
         class="fil35"
         d="M2.69649 81.8703c7.07135,2.62917 13.5462,4.36541 20.1121,4.91345 10.7293,0.8882 20.901,0.72993 31.8346,2.46381 5.54889,1.15041 12.0911,2.93271 18.8542,5.44731 17.9979,9.51626 28.9586,15.214 44.162,17.4475 2.452,0.753553 4.99612,1.3701 7.5686,1.95357l0 1.23899c-2.6835,-0.579928 -5.33274,-1.19057 -7.88396,-1.95711 -15.3037,-2.07758 -26.1924,-7.75403 -44.2328,-17.3412 -6.64496,-2.48153 -13.0643,-4.24375 -18.5754,-5.44022 -10.7848,-1.55435 -20.8751,-1.34411 -31.6291,-2.29845 -6.58118,-0.58111 -13.0891,-2.39294 -20.2101,-5.12959l0 -1.29805z" /><path
         id="_87957520"
         class="fil36"
         d="M2.69649 82.3203c7.58513,3.19138 14.4179,5.32447 21.3451,5.99771 10.7647,1.04056 20.927,0.801978 31.9256,2.26538 5.54771,0.998044 12.1761,2.68468 19.0703,5.16739 17.6116,9.0698 28.7708,14.797 43.732,17.5573 2.11066,0.724025 4.27446,1.36655 6.45835,1.98428l0 1.27324 0 0.00590558c-2.30554,-0.624811 -4.58982,-1.27443 -6.80914,-2.0268 -15.0415,-2.59846 -26.1192,-8.29971 -43.7604,-17.4356 -6.77607,-2.44373 -13.2746,-4.11265 -18.7739,-5.16148 -10.8722,-1.28978 -20.9672,-1.00395 -31.7732,-2.10711 -6.93434,-0.706308 -13.7919,-2.91382 -21.4148,-6.20913l0 -1.31104z" /><path
         id="_86648928"
         class="fil37"
         d="M2.69649 82.6676c8.12018,3.81265 15.2978,6.38039 22.5818,7.1871 10.7954,1.19293 20.9495,0.875208 32.0165,2.06341 5.54416,0.852766 12.2588,2.44019 19.2794,4.89101 17.2278,8.62688 28.5854,14.3801 43.3068,17.6601 1.75868,0.673237 3.54689,1.29569 5.34692,1.90396l0 0.192522c0,0.375595 -0.0330713,0.745285 -0.0956705,1.10434 -1.90042,-0.621267 -3.78784,-1.25907 -5.63747,-1.95475 -14.7805,-3.12405 -26.0484,-8.84657 -43.2903,-17.529 -6.8989,-2.41538 -13.4848,-3.98627 -18.9723,-4.8851 -10.9584,-1.02757 -21.0581,-0.661425 -31.9161,-1.9205 -7.28277,-0.839774 -14.4769,-3.47603 -22.6196,-7.37962l0 -1.33348z" /><path
         id="_52444216"
         class="fil38"
         d="M2.69649 82.9262c8.6694,4.47289 16.1837,7.51781 23.8137,8.46506 10.8367,1.34293 20.9755,0.946075 32.111,1.86144 5.53589,0.702765 12.3391,2.19688 19.4908,4.6158 16.8392,8.17687 28.4011,13.9584 42.8793,17.7664 1.38427,0.58111 2.78507,1.1386 4.19296,1.68782 -0.0531503,0.438194 -0.151183,0.864578 -0.289374,1.2697 -1.45277,-0.553944 -2.89846,-1.11734 -4.32525,-1.70908 -14.5195,-3.64611 -25.981,-9.39342 -42.8202,-17.6223 -7.0241,-2.38231 -13.6927,-3.86107 -19.1695,-4.60517 -11.047,-0.765364 -21.1491,-0.324807 -32.0579,-1.73388 -7.62175,-0.981508 -15.1478,-4.07958 -23.8255,-8.63278l0 -1.36301z" /><path
         id="_51969784"
         class="fil39"
         d="M2.69649 83.0928c9.23752,5.18392 17.0813,8.7379 25.0456,9.8328 10.8722,1.49648 21.0003,1.02048 32.2032,1.66419 5.53589,0.5504 12.4242,1.95121 19.7058,4.3347 16.4565,7.73395 28.2122,13.5474 42.4493,17.8727 0.974421,0.445281 1.95475,0.882294 2.93744,1.31576 -0.108663,0.431108 -0.262208,0.844499 -0.453549,1.23545 -0.98387,-0.427564 -1.9642,-0.857491 -2.9398,-1.29923 -14.2584,-4.16816 -25.9066,-9.94028 -42.3489,-17.7108 -7.15048,-2.34806 -13.9029,-3.73469 -19.3668,-4.32997 -11.1332,-0.501975 -21.2424,0.0141734 -32.2008,-1.54372 -7.95482,-1.12915 -15.8045,-4.72919 -25.0314,-9.97689l0 -1.3949z" /><path
         id="_50967784"
         class="fil40"
         d="M2.69649 83.1743c9.82217,5.93747 17.986,10.0336 26.2799,11.2903 10.9088,1.64411 21.0262,1.09253 32.2929,1.45986 5.53235,0.403942 12.5116,1.70671 19.9207,4.05714 16.0726,7.28749 28.0267,13.1281 42.0194,17.9766l1.62876 0.798435c-0.157089,0.425202 -0.356697,0.827963 -0.596464,1.20356l-1.52128 -0.735836c-13.9962,-4.69494 -25.8369,-10.4895 -41.8765,-17.8148 -7.2804,-2.31381 -14.1132,-3.60241 -19.5687,-4.04651 -11.2206,-0.236223 -21.3322,0.353154 -32.3437,-1.35828 -8.2749,-1.28387 -16.4411,-5.41542 -26.235,-11.3966l0 -1.43388z" /><path
         id="_86563912"
         class="fil41"
         d="M2.69649 83.1731c10.4245,6.73237 18.9026,11.4108 27.5129,12.8257 10.943,1.80002 21.0546,1.16694 32.3862,1.26261 5.52763,0.25394 12.5931,1.45868 20.131,3.77957 15.6852,6.83985 27.8401,12.7088 41.593,18.0817l0.297641 0.15827c-0.196065,0.414572 -0.437013,0.805522 -0.714576,1.16458l-0.107482 -0.0566936c-13.734,-5.21581 -25.7649,-11.0328 -41.4076,-17.901 -7.40442,-2.28192 -14.3199,-3.47721 -19.7636,-3.77249 -11.308,0.0236223 -21.4243,0.695678 -32.4854,-1.16931 -8.59381,-1.44687 -17.0636,-6.13708 -27.4421,-12.8931l0 -1.47994z" /><path
         id="_87930032"
         class="fil42"
         d="M2.69649 83.0951c11.0493,7.56269 19.8274,12.8553 28.7484,14.4403 10.9785,1.94884 21.0747,1.23781 32.4772,1.05828 5.52408,0.106301 12.6746,1.21891 20.3447,3.50201 14.8856,6.22567 26.9838,11.9777 40.0694,17.712 -0.248035,0.416934 -0.542133,0.803159 -0.875208,1.15041 -12.9226,-5.54416 -24.8176,-11.2064 -39.5261,-17.3979 -7.5308,-2.24767 -14.5313,-3.34965 -19.9632,-3.49256 -11.3942,0.284649 -21.5176,1.03466 -32.6295,-0.980327 -8.89972,-1.61222 -17.6683,-6.90245 -28.6456,-14.4651l0 -1.52718z" /><path
         id="_85427592"
         class="fil43"
         d="M2.69649 82.9439c11.686,8.43081 20.7605,14.3695 29.9779,16.1293 11.0186,2.09884 21.1054,1.3075 32.5728,0.857491 5.52172,-0.0448824 12.7561,0.972059 20.5573,3.22327 13.9773,5.57487 25.8842,11.1332 38.2446,17.0943 -0.291736,0.407485 -0.629535,0.779537 -1.00631,1.10671 -12.1478,-5.74968 -23.8137,-11.1934 -37.5642,-16.7199 -7.65482,-2.20987 -14.738,-3.21854 -20.1605,-3.21382 -11.4805,0.549219 -21.605,1.37482 -32.7701,-0.792529 -9.19972,-1.78585 -18.2601,-7.6938 -29.8515,-16.0986l0 -1.58624z" /><path
         id="_81102800"
         class="fil44"
         d="M2.69649 82.7231c12.3439,9.32728 21.7007,15.9451 31.2146,17.8845 11.0505,2.25475 21.1255,1.37954 32.6626,0.659063 5.517,-0.193703 12.8399,0.726387 20.7688,2.94807 13.0939,4.95597 24.7444,10.2828 36.4504,16.3691 -0.32835,0.399218 -0.700402,0.757096 -1.11261,1.06537 -11.458,-5.85125 -22.831,-11.0446 -35.6556,-15.9415 -7.78002,-2.17562 -14.9482,-3.08744 -20.3554,-2.93389 -11.5726,0.814971 -21.7018,1.7138 -32.9142,-0.603551 -9.49146,-1.96184 -18.8353,-8.52648 -31.0586,-17.8042l0 -1.64293z" /><path
         id="_112792256"
         class="fil45"
         d="M2.69649 82.4384c13.0171,10.2615 22.6515,17.5833 32.4476,19.7081 11.0871,2.40239 21.1514,1.45041 32.7512,0.455911 5.51818,-0.341343 12.9273,0.480715 20.9861,2.66578 12.2352,4.37368 23.5798,9.44421 34.6929,15.5671 -0.356697,0.392131 -0.763002,0.74056 -1.20474,1.02993 -10.8356,-5.86306 -21.8637,-10.7812 -33.7977,-15.0805 -7.91112,-2.14373 -15.1585,-2.96106 -20.5562,-2.65751 -11.66,1.07718 -21.7916,2.05632 -33.0571,-0.415753 -9.77492,-2.14609 -19.3928,-9.38634 -32.2622,-19.5676l0 -1.70553z" /><path
         id="_115960800"
         class="fil46"
         d="M2.69649 82.0947c13.7092,11.2194 23.6117,19.2758 33.6784,21.5885 11.1273,2.55121 21.1798,1.52246 32.8469,0.25394 5.51109,-0.491345 13.0112,0.237404 21.1963,2.38822 11.4131,3.82682 22.407,8.61861 32.9803,14.6966 -0.382682,0.387406 -0.81379,0.724025 -1.28387,1.00159 -10.2698,-5.7981 -20.9152,-10.4234 -31.9976,-14.1651 -8.03278,-2.10829 -15.3651,-2.83232 -20.7546,-2.37523 -11.7438,1.33821 -21.8814,2.39058 -33.1988,-0.229137 -10.0501,-2.33271 -19.9349,-10.2745 -33.4669,-21.3829l0 -1.7764z" /><path
         id="_85772824"
         class="fil47"
         d="M2.69649 81.6908c14.4144,12.208 24.5779,21.0192 34.915,23.5255 11.1592,2.70712 21.201,1.59687 32.9366,0.0555125 5.50991,-0.637803 13.0927,-0.00472447 21.4113,2.11066 10.6182,3.30949 21.2247,7.806 31.2996,13.7765 -0.40158,0.382682 -0.852766,0.712213 -1.34175,0.975603 -9.75366,-5.67054 -19.9833,-9.97808 -30.2531,-13.1978 -8.16034,-2.07758 -15.5754,-2.7083 -20.953,-2.10357 -11.8336,1.60159 -21.9747,2.73547 -33.3417,-0.0377957 -10.3182,-2.51932 -20.4629,-11.1946 -34.6729,-23.2562l0 -1.84845z" /><path
         id="_82338616"
         class="fil48"
         d="M2.69649 81.236c15.1384,13.2143 25.5558,22.8133 36.1493,25.5157 11.1934,2.8583 21.227,1.6701 33.0276,-0.145277 5.504,-0.787805 13.1754,-0.248035 21.6239,1.83782 9.86114,2.82405 20.0483,7.00402 29.659,12.8104 -0.418115,0.381501 -0.8882,0.707489 -1.39608,0.961429 -9.26822,-5.4792 -19.0514,-9.46901 -28.55,-12.2045 -8.2879,-2.04451 -15.7868,-2.58074 -21.1514,-1.82483 -11.9198,1.86498 -22.0668,3.07327 -33.4847,0.14764 -10.5781,-2.71066 -20.9766,-12.1383 -35.8776,-25.1767l0 -1.92168z" /><path
         id="_82388336"
         class="fil49"
         d="M2.69649 80.7352c15.8778,14.2466 26.5362,24.6475 37.3788,27.5555 11.2348,3.00949 21.2566,1.7386 33.1244,-0.346067 5.50046,-0.940169 13.258,-0.49725 21.8353,1.55553 9.1383,2.37286 18.8778,6.23393 28.048,11.8218 -0.432289,0.38032 -0.917728,0.703946 -1.43978,0.95198 -8.81349,-5.24416 -18.1266,-8.90208 -26.8881,-11.1875 -8.41191,-2.01026 -15.9935,-2.45318 -21.3499,-1.54372 -12.0061,2.12365 -22.1578,3.41107 -33.6252,0.329532 -10.8332,-2.90555 -21.4774,-13.1045 -37.0835,-27.1362l0 -2.00081z" /></g><g
       id="_85611760"><path
         id="_87293920"
         class="fil50"
         d="M125.103 117.822c-1.86971,0.29646 -3.69217,0.579928 -5.46857,0.85631 -8.9009,1.65002 -16.4813,3.04138 -23.1227,4.09729l6.54811 -0.0106301c5.02801,-0.872845 10.5533,-1.89097 16.7022,-3.03429l5.00321 -0.786624c0.145277,-0.35906 0.258665,-0.734655 0.337799,-1.12206zm-122.406 -27.6322l0 -1.47758c15.8081,9.00129 29.0885,22.3314 39.9844,28.022 5.26896,2.76499 10.0041,4.76581 14.7132,6.10637l-4.03588 0.00826782c-3.71579,-1.29923 -7.52371,-3.00594 -11.6588,-5.17684 -10.6726,-5.57487 -23.6318,-18.5128 -39.0028,-27.4822z" /><path
         id="_52095080"
         class="fil51"
         d="M125.175 117.39c-2.74137,0.336618 -5.3977,0.654339 -7.97136,0.950799 -11.106,1.94294 -20.1475,3.47366 -27.8732,4.44809l7.86033 -0.0129923c5.91149,-0.903554 12.5364,-2.04451 20.1109,-3.37327 2.46263,-0.287011 5.00203,-0.59174 7.62883,-0.917728 0.112206,-0.353154 0.194884,-0.718119 0.244491,-1.0949zm-122.478 -26.7251l0 -1.47522c15.0203,8.59026 27.7988,20.8585 38.4194,26.3389 7.10678,3.70162 13.2592,6.05322 19.6762,7.30875l-5.21463 0.0070867c-4.93116,-1.3949 -9.88713,-3.4713 -15.4148,-6.35441 -10.3974,-5.36463 -22.8641,-17.2738 -37.4662,-25.8251z" /><path
         id="_112549448"
         class="fil52"
         d="M125.202 117.135c-3.59768,0.327169 -7.07607,0.617724 -10.4293,0.87757 -15.7325,2.57365 -27.3003,4.31816 -36.891,4.79533l12.3167 -0.0212601c7.00993,-0.86694 15.0592,-2.13782 24.6405,-3.71225 3.26579,-0.25394 6.64969,-0.540952 10.173,-0.86694 0.0933082,-0.348429 0.15827,-0.705127 0.19016,-1.07245zm-122.505 -26.0318l0 -1.47167c14.2514,8.16624 26.5291,19.4258 36.8615,24.6924 10.3667,5.35755 18.7443,7.94065 28.8441,8.5005l-9.5198 0.0153545c-6.60244,-1.32167 -12.9368,-3.7465 -20.2573,-7.52962 -10.1021,-5.15794 -22.0715,-16.0927 -35.9284,-24.207z" /><path
         id="_85430280"
         class="fil53"
         d="M125.21 117.04c-4.441,0.270476 -8.73318,0.474809 -12.8659,0.637803 -39.1481,5.94456 -52.3636,6.71111 -74.3489,-4.56029 -10.0265,-5.05046 -21.7963,-15.3545 -35.2989,-23.0873l0 1.47403c13.1222,7.67135 24.5944,17.6825 34.3906,22.6184 10.1895,5.22762 18.4987,7.90758 28.2594,8.70483l14.6364 -0.0236223c8.72019,-0.579928 19.0668,-2.02207 32.3898,-4.0595 4.05714,-0.161813 8.27254,-0.367327 12.6675,-0.64489 0.0862215,-0.343705 0.144096,-0.696859 0.170081,-1.05946z" /><path
         id="_82572520"
         class="fil54"
         d="M125.205 117.101c-5.2666,0.171262 -10.3749,0.236223 -15.2907,0.24331 -38.2623,5.33747 -51.6231,5.68472 -73.4796,-5.43314 -9.70524,-4.82841 -20.9684,-14.2348 -33.7386,-21.5188l0 1.46813c12.4124,7.21781 23.379,16.3597 32.8539,21.0782 22.2357,11.3222 35.6898,10.9265 74.3596,5.48274 4.84376,-0.0153545 9.87414,-0.0874027 15.1195,-0.276381 0.0874027,-0.338981 0.14764,-0.68741 0.175986,-1.04411z" /><path
         id="_89296424"
         class="fil55"
         d="M125.185 117.303c-6.06976,0.040158 -11.9848,-0.0885838 -17.7002,-0.294098 -37.3729,4.73392 -50.8849,4.65596 -72.6115,-6.30244 -9.36626,-4.60517 -20.1203,-13.1671 -32.1772,-19.9987l0 1.46813c11.7131,6.76308 22.179,15.0829 31.3161,19.5794 22.0822,11.1568 35.6721,11.1828 73.4371,6.33433 5.6292,0.192522 11.4639,0.30709 17.529,0.238586 0.0968516,-0.331894 0.165356,-0.674418 0.206695,-1.02521z" /><path
         id="_81641600"
         class="fil56"
         d="M125.136 117.65c-6.82922,-0.120474 -13.5557,-0.498431 -20.079,-0.974421 -36.4906,4.13037 -50.1502,3.62367 -71.7458,-7.1741 -9.01665,-4.38194 -19.2546,-12.1513 -30.6145,-18.527l0 1.46695c11.0352,6.3048 20.9908,13.8545 29.7807,18.1301 21.9298,10.9844 35.652,11.4332 72.5076,7.18946 6.42409,0.45473 13.049,0.81379 19.8888,0.894105 0.113387,-0.324807 0.201971,-0.659063 0.262208,-1.00513z" /><path
         id="_22962520"
         class="fil57"
         d="M125.034 118.126c-7.53434,-0.297641 -15.0616,-0.985051 -22.4081,-1.77994 -35.6036,3.52327 -49.4097,2.59019 -70.8776,-8.05285 -8.65168,-4.15399 -18.3711,-11.1805 -29.0519,-17.1038l0 1.47285c10.369,5.84771 19.8168,12.6734 28.244,16.7282 21.7763,10.8155 35.6355,11.6812 71.5804,8.04104 7.22017,0.770088 14.6175,1.42679 22.1767,1.67246 0.13701,-0.312996 0.250397,-0.641346 0.336618,-0.977965z" /><path
         id="_81682808"
         class="fil58"
         d="M124.844 118.737l-0.13701 -0.0153545c-8.119,-0.496069 -16.3809,-1.54136 -24.5117,-2.71303 -34.7166,2.92208 -48.6703,1.56616 -70.0072,-8.92452 -8.27372,-3.92249 -17.4734,-10.2592 -27.4917,-15.7337l0 1.47522c9.71705,5.39652 18.6581,11.5513 26.7074,15.3793 21.6203,10.6513 35.6142,11.9375 70.6556,8.89853 8.01506,1.13742 16.153,2.14373 24.3558,2.56657 0.166537,-0.29646 0.310634,-0.609456 0.428745,-0.933082z" /><path
         id="_112366952"
         class="fil59"
         d="M124.45 119.608c-0.763002,-0.131104 -1.53073,-0.256302 -2.302,-0.370871 -7.95718,-0.750009 -16.1884,-2.09648 -24.3794,-3.55871 -33.8307,2.31735 -47.9344,0.533865 -69.1414,-9.795 -7.87923,-3.70044 -16.5604,-9.3946 -25.9302,-14.4262l0 1.47758c9.08515,4.9536 17.5089,10.486 25.1708,14.086 21.4668,10.4848 35.5965,12.1927 69.7296,9.75603 8.07884,1.42679 16.1872,2.72838 24.2247,3.39925 0.673237,0.114568 1.34293,0.233861 2.00908,0.360241 0.23268,-0.289374 0.438194,-0.598826 0.618905,-0.928358z" /><path
         id="_86070944"
         class="fil60"
         d="M123.759 120.626c-1.37246,-0.314177 -2.76145,-0.607094 -4.1658,-0.874027 -7.80128,-1.00277 -16.0018,-2.65161 -24.2554,-4.41029 -32.9461,1.71144 -47.1963,-0.492526 -68.2745,-10.6678 -7.47293,-3.46776 -15.6333,-8.56546 -24.3664,-13.1635l0 1.47876c8.46388,4.52013 16.3726,9.47256 23.633,12.847 21.3109,10.3147 35.5776,12.4442 68.8024,10.6123 8.13671,1.71853 16.2156,3.31185 24.0865,4.23076 1.22482,0.259846 2.43901,0.535046 3.64138,0.829144 0.327169,-0.262208 0.628354,-0.558668 0.89883,-0.882294z" /><path
         id="_83485008"
         class="fil61"
         d="M122.619 121.693c-1.83427,-0.513786 -3.69453,-0.989776 -5.5855,-1.42443 -7.64065,-1.25671 -15.8116,-3.20555 -24.1267,-5.25833 -32.0614,1.10789 -46.4557,-1.52482 -67.4028,-11.5407 -7.05835,-3.23862 -14.6955,-7.79065 -22.8074,-11.9694l0 1.48821c7.85443,4.10084 15.2518,8.51822 22.0999,11.6659 21.155,10.1458 35.5563,12.697 67.8741,11.4639 8.19341,2.00908 16.2415,3.89887 23.9424,5.06935 1.55907,0.393312 3.09689,0.816152 4.62171,1.26261 0.493707,-0.191341 0.959067,-0.446462 1.38427,-0.757096z" /><path
         id="_82656760"
         class="fil62"
         d="M120.67 122.637c-2.03388,-0.661425 -4.09611,-1.27915 -6.19732,-1.85317 -7.47883,-1.50829 -15.6191,-3.75713 -23.9968,-6.10756 -31.1709,0.501975 -45.7199,-2.55239 -66.53,-12.4112 -6.62961,-3.0083 -13.7423,-7.05363 -21.2495,-10.8308l0 1.49529c7.25678,3.69926 14.1368,7.62293 20.5585,10.5426 21.0038,9.97453 35.541,12.9486 66.9528,12.3167 8.24892,2.29845 16.2675,4.48234 23.8054,5.89968 1.13742,0.338981 2.26656,0.689772 3.38862,1.05356l2.84767 -0.00472447c0.141734,-0.0283468 0.282287,-0.0614181 0.420478,-0.100395z" /><path
         id="_83017872"
         class="fil63"
         d="M116.249 122.744c-1.42679,-0.501975 -2.87011,-0.982689 -4.33116,-1.44569 -7.32056,-1.75868 -15.4337,-4.31226 -23.8704,-6.95205 -30.2862,-0.102757 -44.9781,-3.58705 -65.6666,-13.2899 -6.19023,-2.77681 -12.7773,-6.36031 -19.6845,-9.7454l0 1.50238c6.67095,3.31185 13.0336,6.78197 19.0231,9.47138 20.855,9.81154 35.5221,13.2049 66.0244,13.1754 8.30561,2.58901 16.2923,5.06935 23.6601,6.73355l1.59805 0.556306 3.24689 -0.00590558z" /><path
         id="_81734544"
         class="fil64"
         d="M111.886 122.75c-0.837412,-0.316539 -1.676,-0.628354 -2.52405,-0.935445 -7.16347,-2.01499 -15.2494,-4.8662 -23.744,-7.80718 -29.4015,-0.703946 -44.2435,-4.6099 -64.7937,-14.1557 -5.74259,-2.54531 -11.8064,-5.70243 -18.1278,-8.72019l0 1.50947c6.09338,2.94571 11.9423,5.99889 17.4864,8.46152 20.6979,9.64382 35.502,13.4553 65.0984,14.0269 8.36349,2.87956 16.3183,5.65637 23.5196,7.56978l0.151183 0.0566936 2.93389 -0.00590558z" /><path
         id="_82666752"
         class="fil65"
         d="M107.84 122.758l-1.03348 -0.424021c-7.00757,-2.26893 -15.0616,-5.42369 -23.6176,-8.66113 -28.5169,-1.30513 -43.5053,-5.63747 -63.9268,-15.0274 -5.28314,-2.31853 -10.8214,-5.08353 -16.5652,-7.75049l0 1.5201c5.52526,2.59609 10.858,5.26542 15.9498,7.50364 20.542,9.47492 35.4819,13.708 64.1701,14.8856 7.87096,2.9587 15.3002,5.83236 21.9818,7.95718l3.04138 -0.00354335z" /><path
         id="_81656064"
         class="fil66"
         d="M104.023 122.764c-6.80323,-2.51342 -14.7415,-5.93393 -23.2645,-9.42413 -27.6287,-1.90987 -42.7647,-6.66859 -63.061,-15.9014 -4.81423,-2.0894 -9.82689,-4.49533 -15.0014,-6.83394l0 1.53073c4.96778,2.27011 9.78555,4.58864 14.4132,6.60244 20.3884,9.30366 35.4642,13.9596 63.2453,15.7348 7.43159,3.03075 14.4084,5.98826 20.6424,8.29498l3.02602 -0.00354335z" /><path
         id="_84076136"
         class="fil67"
         d="M100.278 122.77c-6.38984,-2.7024 -13.8758,-6.20323 -21.9499,-9.76193 -26.7405,-2.51814 -42.0289,-7.6997 -62.1905,-16.7742 -4.33824,-1.86262 -8.82885,-3.93902 -13.4411,-5.96818l0 1.54018c4.41501,1.9642 8.71546,3.96028 12.8718,5.74968 20.2373,9.13358 35.4512,14.2088 62.324,16.5911 7.08906,3.1087 13.708,6.16071 19.5817,8.62806l2.80397 -0.00472447z" /><path
         id="_86499936"
         class="fil68"
         d="M96.7878 122.776c-6.05677,-2.87248 -13.1683,-6.46543 -20.8892,-10.1021 -25.8558,-3.12287 -41.2871,-8.73082 -61.3224,-17.6459 -3.85398,-1.63703 -7.82017,-3.41343 -11.8797,-5.15203l0 1.55199c3.8717,1.676 7.65718,3.37327 11.3387,4.94061 20.0802,8.96704 35.4288,14.4663 61.3921,17.4486 6.81741,3.19965 13.1482,6.34732 18.7337,8.9635l2.6268 -0.00472447z" /><path
         id="_85643192"
         class="fil69"
         d="M93.4795 122.782c-5.77448,-3.02838 -12.5848,-6.71583 -20.0117,-10.4434 -24.9653,-3.72524 -40.5501,-9.75603 -60.4543,-18.514 -3.36382,-1.4138 -6.80796,-2.90909 -10.3171,-4.3784l0 1.5638c3.33311,1.40789 6.60599,2.83232 9.80445,4.17997 19.9243,8.79578 35.4087,14.7155 60.4673,18.2979 6.58591,3.29414 12.6722,6.54339 18.0144,9.29893l2.49688 -0.00472447z" /><path
         id="_29410432"
         class="fil70"
         d="M90.307 122.787c-5.53235,-3.17839 -12.0864,-6.96387 -19.2664,-10.7812 -24.0865,-4.32997 -39.8166,-10.7883 -59.5885,-19.388 -2.86775,-1.19411 -5.78865,-2.42838 -8.75562,-3.64375l0 1.57443c2.79807,1.15631 5.55715,2.32444 8.26546,3.4524 19.7731,8.6316 35.3922,14.9754 59.5425,19.1589 6.39693,3.39099 12.2824,6.74418 17.4108,9.63083l2.39176 -0.00354335z" /><path
         id="_51244384"
         class="fil71"
         d="M87.2456 122.792c-5.32329,-3.31776 -11.6623,-7.20718 -18.6357,-11.1202 -23.2007,-4.93353 -39.0749,-11.8159 -58.7204,-20.2632 -2.3646,-0.97324 -4.76463,-1.9642 -7.193,-2.9398l0 1.58624c2.27129,0.921271 4.51423,1.84963 6.72764,2.76263 19.6184,8.4627 35.3745,15.2246 58.6177,20.0164 6.2363,3.48902 11.9505,6.94379 16.8959,9.96154l2.3079 -0.00354335z" /><path
         id="_87900144"
         class="fil72"
         d="M84.2691 122.797c-5.1414,-3.45595 -11.2891,-7.44458 -18.0888,-11.4592 -22.3137,-5.53589 -38.3355,-12.8435 -57.8499,-21.1337 -1.8579,-0.758277 -3.73705,-1.51892 -5.63393,-2.27011l0 1.60159c1.74569,0.696859 3.47721,1.4008 5.18983,2.10003 19.4672,8.2938 35.3567,15.475 57.6928,20.8668 6.09811,3.59178 11.66,7.15284 16.4494,10.2982l2.24058 -0.00354335z" /><path
         id="_86746736"
         class="fil73"
         d="M81.3648 122.801c-4.98195,-3.58705 -10.9667,-7.68435 -17.6116,-11.7946 -21.4266,-6.14417 -37.6009,-13.8758 -56.9853,-22.0078 -1.34765,-0.543314 -2.70594,-1.08545 -4.07131,-1.62285l0 1.61341c1.22718,0.484258 2.44491,0.974421 3.65792,1.46104 19.3054,8.12727 35.3331,15.7325 56.7609,21.7255 5.97999,3.69217 11.4096,7.3619 16.0585,10.6301l2.19097 -0.00472447z" /><path
         id="_50392456"
         class="fil74"
         d="M78.5195 122.808c-4.84258,-3.71461 -10.6844,-7.92057 -17.1982,-12.136 -20.542,-6.74536 -36.8603,-14.9057 -56.1125,-22.8794l-2.51224 -0.993319 0 1.63348 2.11538 0.836231c19.1601,7.95718 35.3189,15.9805 55.8408,22.5782 5.8796,3.79847 11.1923,7.5745 15.7136,10.9631l2.15318 -0.00236223z" /><path
         id="_110610376"
         class="fil75"
         d="M75.7155 122.813c-4.71148,-3.84217 -10.4245,-8.15443 -16.8238,-12.4761 -19.6573,-7.35009 -36.1221,-15.9321 -55.2444,-23.7534l-0.950799 -0.373233 0 1.64884 0.582291 0.226774c19.0018,7.78947 35.2977,16.2321 54.9113,23.4334 5.78984,3.90123 11.0033,7.78474 15.4136,11.2962l2.11184 -0.00236223z" /><path
         id="_85606920"
         class="fil76"
         d="M72.9576 122.816c-4.59573,-3.96501 -10.1954,-8.38711 -16.4943,-12.8139 -18.5695,-7.8686 -35.026,-16.7683 -53.7668,-24.3747l0 1.66183c18.4514,7.53553 34.6398,16.2297 53.0286,23.8975 5.71424,4.00871 10.8379,8.00325 15.1455,11.6328l2.08703 -0.00354335z" /><path
         id="_84619992"
         class="fil77"
         d="M70.2257 122.821c-4.48706,-4.09021 -9.98516,-8.62097 -16.1931,-13.1517 -17.1923,-8.2253 -33.3488,-17.2656 -51.3361,-24.6168l0 1.67719c17.686,7.26977 33.5614,16.1045 50.5683,24.1326 5.64338,4.11383 10.6856,8.21585 14.8986,11.9624l2.06223 -0.00354335z" /><path
         id="_112351256"
         class="fil78"
         d="M67.5315 122.824c-4.38903,-4.21186 -9.80209,-8.85011 -15.9285,-13.4872 -15.86,-8.54774 -31.6445,-17.7061 -48.9065,-24.8613l0 1.69018c16.9502,7.06544 32.4453,16.0183 48.1057,24.3641 5.58314,4.22131 10.5509,8.43317 14.6789,12.2978l2.05042 -0.00354335z" /><path
         id="_81057392"
         class="fil79"
         d="M64.8646 122.83c-4.30163,-4.33116 -9.63201,-9.08279 -15.6923,-13.8262 -14.5703,-8.83357 -29.9153,-18.09 -46.4758,-25.0964l0 1.7079c16.2404,6.90953 31.2831,15.9569 45.6431,24.5885 5.52881,4.32879 10.4304,8.64696 14.4805,12.6285l2.04451 -0.00236223z" /><path
         id="_88807048"
         class="fil80"
         d="M62.213 122.834c-4.22013,-4.45045 -9.47138,-9.31074 -15.4703,-14.164 -13.3254,-9.07688 -28.1637,-18.4124 -44.0462,-25.3149l0 1.72207c15.547,6.79733 30.076,15.9238 43.1793,24.7987 5.48629,4.43509 10.3277,8.86546 14.3033,12.9616l2.03388 -0.00354335z" /><path
         id="_51193440"
         class="fil81"
         d="M59.5826 122.839c-4.14336,-4.5721 -9.32846,-9.54106 -15.2683,-14.5041 -12.1253,-9.27885 -26.4074,-18.6758 -41.6178,-25.5109l0 1.74097c14.8691,6.72764 28.8263,15.9085 40.7166,24.9794 5.44377,4.54494 10.2273,9.08515 14.1392,13.297l2.03034 -0.00236223z" /></g><path
       class="fil82"
       d="M2.69649 19.8581c0,-0.150002 0.00590558,-0.297641 0.0188979,-0.445281l1.09962 0c-0.0177168,0.146458 -0.0259846,0.294098 -0.0259846,0.445281l0.0448824 0 0.357878 99.104c0,1.32639 0.531503,2.53113 1.38073,3.40162 0.844499,0.858672 2.00436,1.39254 3.27524,1.39254l110.531 0c1.27206,0 2.4331,-0.53977 3.27642,-1.4008 0.849223,-0.869302 1.37954,-2.07286 1.37954,-3.39335 0,-32.9165 -0.52914,-66.0693 -0.0342524,-98.9705l0.00118112 -0.070867 -0.00590558 0c0,-0.206695 -0.0153545,-0.408666 -0.0448824,-0.607094l0.95198 0.0992138c0.0248035,0.229137 0.0354335,0.461817 0.0318902,0.695678 -0.494888,32.8929 0.292917,65.9429 0.292917,98.8536 0,3.44059 -2.77208,6.28827 -6.15008,6.28827 -40.5099,0 -41.1371,0 -110.23,0 -3.37799,0 -6.15126,-2.82996 -6.15126,-6.28827 0,-33.0347 0.0295279,-66.0705 0,-99.104z"
       id="path116" /><path
       class="fil83"
       d="M7.60876 15.3557c0.471266,-0.105119 0.960248,-0.160632 1.45868,-0.160632l109.511 0c0.441738,0 0.874027,0.0437013 1.29214,0.12638 0.226774,0.0448824 0.450006,0.101576 0.668512,0.1689 -0.101576,0.261027 -0.237404,0.590558 -0.396855,0.922452 -0.288193,-0.0826782 -0.584653,-0.142915 -0.889381,-0.17953 -0.220869,-0.0271657 -0.446462,-0.0389769 -0.674418,-0.0389769l-109.511 0c-0.472447,0 -0.931901,0.0555125 -1.37128,0.162994l0.119293 -0.0283468 -0.206695 -0.97324z"
       id="path118" /><path
       class="fil84"
       d="M120.539 15.4903c1.06891,0.32835 2.02325,0.917728 2.79334,1.69372 1.17757,1.18702 1.79766,2.80988 1.84136,4.58982l0.00236223 0.201971 -0.0933082 0.0555125 -0.133466 0.0791348c0,-1.58978 -1.28033,-3.17602 -2.32089,-4.22486 -0.680323,-0.683867 -1.53309,-1.2012 -2.48625,-1.47285 0.159451,-0.331894 0.295279,-0.661425 0.396855,-0.922452z"
       id="path120" /><path
       class="fil85"
       d="M7.92411 16.2593c-0.42284,0.0944894 -0.825601,0.236223 -1.20828,0.416934 -0.777175,0.367327 -1.4634,0.907098 -2.00317,1.56498l-0.0177168 0.020079c-0.418115,0.45473 -0.753553,0.981508 -0.980327,1.54963 -0.213782,0.538589 -0.333075,1.12797 -0.333075,1.74333l-0.998044 0c0,-0.735836 0.38032,-1.11379 0.643709,-1.77404 0.269295,-0.675599 0.428745,-1.6323 0.922452,-2.17562 0.630716,-0.766545 1.43388,-1.39844 2.34215,-1.82719 0.451187,-0.214963 0.928358,-0.382682 1.42679,-0.492526l0.205514 0.974421zm-3.97918 1.35002l0.00472447 -0.00472447"
       id="path122" /><path
       class="fil86"
       d="M33.6406 20.4487c-2.51932,-1.51537 -4.28391,96.2339 2.01499,98.2548 6.29772,2.02089 82.3853,-45.9714 86.1648,-50.012 3.78076,-4.0406 -75.3316,-53.5471 -88.1798,-48.2427z"
       id="path124" /><g
       id="_81253032"><path
         id="_112993744"
         class="fil87"
         d="M124.468 56.1538c-12.3155,0.559849 -22.0668,-1.67364 -34.6197,-7.58513 -13.9998,-6.55874 -31.915,-23.9885 -53.1314,-32.4571l-3.85517 -0.00472447c22.44,7.91585 41.3355,26.6838 55.9578,33.5355 12.9639,6.10874 22.9609,8.37648 35.6485,7.74931l0 -1.23781z" /><path
         id="_82388024"
         class="fil88"
         d="M124.466 54.9999c-13.1423,0.686229 -23.2586,-1.54608 -36.3855,-7.67608 -14.0128,-6.48079 -31.7543,-23.144 -52.5644,-31.2146l-3.94375 -0.00472447c22.0715,7.506 40.8383,25.531 55.5101,32.3177 13.5238,6.32134 23.8775,8.582 37.3859,7.82372l-0.00236223 -1.24608z" /><path
         id="_82636112"
         class="fil89"
         d="M124.466 53.8672c-13.9868,0.792529 -24.4645,-1.44923 -38.1477,-7.7871 -14.0057,-6.3922 -31.5535,-22.2841 -51.9337,-29.972l-4.05123 -0.00354335c21.6924,7.10678 40.3115,24.3783 55.0105,31.0964 14.0742,6.52331 24.7727,8.78633 39.1221,7.91939l0 -1.25317z" /><path
         id="_83823656"
         class="fil90"
         d="M124.465 52.7593c-14.849,0.875208 -25.6798,-1.38899 -39.9147,-7.92648 -13.9762,-6.29653 -31.3079,-21.4077 -51.2404,-28.7259l-4.17052 -0.00354335c21.2896,6.71937 39.7469,23.2397 54.466,29.8716 14.6163,6.71937 25.6527,8.99657 40.8607,8.04222l-0.00118112 -1.25789z" /><path
         id="_111634856"
         class="fil91"
         d="M124.465 51.675c-15.7218,0.928358 -26.9047,-1.36065 -41.6793,-8.08947 -13.9301,-6.1926 -31.0256,-20.5219 -50.4987,-27.4787l-4.2721 -0.00590558c20.8692,6.35087 39.1387,22.1011 53.8507,28.6504 15.1431,6.90481 26.522,9.20681 42.5993,8.19577l0 -1.27206z" /><path
         id="_85837040"
         class="fil92"
         d="M124.464 50.6321c-16.6077,0.950799 -28.1389,-1.38545 -43.4427,-8.29144 -13.8545,-6.08157 -30.6878,-19.6278 -49.6766,-26.2361l-4.39257 -0.00472447c20.4251,6.00244 38.4867,20.9755 53.1762,27.4303 15.664,7.0808 27.3783,9.42059 44.3368,8.37766l-0.00118112 -1.27561z" /><path
         id="_85018720"
         class="fil93"
         d="M124.464 49.6234c-17.5006,0.946075 -29.3874,-1.45159 -45.2108,-8.52766 -13.7517,-5.9611 -30.285,-18.7148 -48.7577,-24.9913l-4.53431 -0.00472447c19.968,5.66227 37.7887,19.851 52.4286,26.2078 16.1778,7.24379 28.2287,9.64264 46.0754,8.60089l-0.00118112 -1.28506z" /><path
         id="_112400592"
         class="fil94"
         d="M124.464 48.6656c-18.3947,0.902373 -30.6382,-1.57797 -46.9777,-8.81586 -13.6124,-5.82763 -29.8102,-17.7864 -47.7455,-23.7464l-4.65951 -0.00472447c19.4636,5.35637 37.0115,18.7443 51.5723,24.9877 16.6774,7.40442 29.0673,9.87178 47.8104,8.86428l0 -1.28506z" /><path
         id="_83142328"
         class="fil95"
         d="M124.461 47.749c-19.2947,0.831506 -31.8925,-1.75042 -48.74,-9.14893 -13.4447,-5.67881 -29.274,-16.8463 -46.6435,-22.4967l-4.7788 -0.00472447c18.9404,5.06463 36.1729,17.6494 50.6156,23.7641 17.1723,7.5556 29.9082,10.121 49.549,9.182l-0.00236223 -1.29569z" /><path
         id="_86756000"
         class="fil96"
         d="M124.461 46.8939c-20.1865,0.712213 -33.1575,-1.99373 -50.5057,-9.53516 -13.2321,-5.52645 -28.6492,-15.9014 -45.4234,-21.2577l-4.90754 -0.00472447c18.3829,4.79415 35.2599,16.5663 49.5514,22.5428 17.6624,7.70088 30.7492,10.3808 51.2853,9.55169l0 -1.29687z" /><path
         id="_85798768"
         class="fil97"
         d="M124.461 46.0907c-21.0806,0.562212 -34.4225,-2.29491 -52.2739,-9.98044 -12.9722,-5.34692 -27.9322,-14.9352 -44.0722,-20.0093l-5.03274 -0.00472447c17.7876,4.54258 34.2607,15.4963 48.3573,21.3203 18.1479,7.83553 31.5925,10.656 53.0215,9.97335l0 -1.29923z" /><path
         id="_52494264"
         class="fil98"
         d="M124.46 45.3525c-21.9652,0.370871 -35.6898,-2.66932 -54.0385,-10.4883 -12.6639,-5.15794 -27.1161,-13.9596 -42.584,-18.7632l-5.15203 -0.00472447c17.1498,4.31344 33.1669,14.4451 47.0167,20.0991 18.6321,7.96309 32.4465,10.9608 54.7589,10.4623l-0.00118112 -1.30513z" /><path
         id="_87514704"
         class="fil99"
         d="M124.46 44.6828c-22.831,0.134647 -36.9607,-3.11579 -55.7995,-11.0623 -12.3061,-4.95479 -26.2007,-12.9864 -40.9611,-17.5195l-5.25479 -0.00590558c16.4671,4.09966 31.9693,13.4151 45.5167,18.8778 19.1152,8.08593 33.3146,11.2856 56.4999,11.0151l-0.00118112 -1.30513z" /><path
         id="_81176680"
         class="fil100"
         d="M124.46 44.0899c-23.6826,-0.150002 -38.2233,-3.64611 -57.5712,-11.719 -11.8785,-4.72447 -25.1542,-11.999 -39.1623,-16.2699l-5.35046 -0.00590558c15.7384,3.90005 30.6665,12.4053 43.8466,17.653 19.603,8.20758 34.1981,11.6458 58.2373,11.647l0 -1.30513z" /><path
         id="_51198000"
         class="fil101"
         d="M124.46 43.569c-24.5153,-0.468903 -39.4883,-4.24966 -59.331,-12.4431 -11.399,-4.47643 -24.0015,-11.0163 -37.2135,-15.025l-5.42841 -0.00472447c14.96,3.71225 29.2468,11.4096 42.0005,16.4293 20.0884,8.32451 35.0969,12.0356 59.9724,12.3533l0 -1.30986z" /><path
         id="_112737064"
         class="fil102"
         d="M124.459 43.1368c-25.3243,-0.839774 -40.7474,-4.94416 -61.0968,-13.2569 -10.8474,-4.2095 -22.7152,-10.036 -35.0851,-13.7789l-5.49219 -0.00472447c14.1321,3.52918 27.7125,10.4434 39.9643,15.2081 20.5786,8.43317 36.0229,12.4584 61.711,13.1458l-0.00118112 -1.3134z" /><path
         id="_82669640"
         class="fil103"
         d="M124.459 42.7978c-26.0956,-1.2638 -41.9946,-5.73905 -62.8649,-14.1628 -10.219,-3.92013 -21.2861,-9.06153 -32.7606,-12.5317l-5.54652 -0.0070867c13.2498,3.34138 26.0519,9.49854 37.7237,13.988 21.0794,8.53829 36.982,12.9273 63.4496,14.0269l-0.00118112 -1.3134z" /><path
         id="_86003680"
         class="fil104"
         d="M124.459 42.5592c-26.8314,-1.74097 -43.236,-6.63315 -64.6307,-15.1703 -9.51508,-3.60713 -19.7187,-8.09538 -30.246,-11.2856l-5.58786 -0.0070867c12.3084,3.15122 24.2649,8.57963 35.2764,12.7655 21.5908,8.64459 37.9824,13.4435 65.1894,15.0132l-0.00118112 -1.31576z" /><path
         id="_81253088"
         class="fil105"
         d="M124.459 42.4281c-27.52,-2.27129 -44.4596,-7.63946 -66.3953,-16.2841 -8.73318,-3.27287 -18.0061,-7.14221 -27.533,-10.0395l-5.6292 -0.00590558c11.3198,2.94571 22.3585,7.67962 32.6331,11.5383 22.1129,8.74971 39.0229,14.0163 66.9256,16.1081l-0.00118112 -1.31695z" /><path
         id="_83587024"
         class="fil106"
         d="M124.459 42.8084l-1.12324 -0.506699c-27.5011,-2.89492 -44.8411,-8.75916 -67.0402,-17.4026 -7.87333,-2.91736 -16.1553,-6.20559 -24.6334,-8.7946l-5.65401 -0.00472447c10.2769,2.72366 20.3341,6.80678 29.7901,10.3182 22.2239,8.68593 39.4517,14.4297 67.0437,17.1652l1.61813 0.728749 -0.00118112 -1.50356z" /><path
         id="_113515392"
         class="fil107"
         d="M124.46 43.8879c-1.24608,-0.609456 -2.51342,-1.22364 -3.79611,-1.83546 -26.5669,-3.59886 -44.0876,-9.92374 -66.1343,-18.4006 -6.93198,-2.53822 -14.1604,-5.28077 -21.5318,-7.54497l-5.6729 -0.00590558c9.17728,2.48035 18.1821,5.95165 26.7334,9.08988 22.0491,8.51113 39.4422,14.7144 66.0729,18.1479 1.46577,0.699221 2.91145,1.39726 4.32879,2.0894l0 -1.54018z" /><path
         id="_51705352"
         class="fil108"
         d="M124.46 45.1529c-2.09412,-1.10789 -4.25438,-2.22877 -6.47134,-3.34965 -25.6267,-4.30163 -43.3269,-11.0824 -65.2272,-19.3987 -5.91503,-2.14255 -12.032,-4.37131 -18.2494,-6.29653l-5.68826 -0.00472447c8.02805,2.21341 15.9274,5.12014 23.496,7.86624 21.8719,8.33278 39.4351,14.9872 65.1008,19.1306 2.41893,1.21773 4.77171,2.43664 7.04064,3.63666l-0.00118112 -1.58388z" /><path
         id="_51778432"
         class="fil109"
         d="M124.461 46.6104c-2.90437,-1.66183 -5.96464,-3.36028 -9.14775,-5.05872 -24.683,-5.00321 -42.5663,-12.2435 -64.3142,-20.3932 -4.83077,-1.72797 -9.78083,-3.47721 -14.8041,-5.04927l-5.6859 -0.00472447c6.8304,1.9264 13.5639,4.30753 20.0731,6.6426 21.6948,8.15561 39.4257,15.2624 64.1264,20.1062 3.4087,1.8142 6.67095,3.62603 9.75248,5.38471l0 -1.62758z" /><path
         id="_51777064"
         class="fil110"
         d="M124.461 48.2746c-3.66501,-2.26656 -7.62883,-4.62289 -11.8218,-6.97213 -23.7428,-5.70834 -41.808,-13.4069 -63.4083,-21.3865 -3.68508,-1.30513 -7.43631,-2.60082 -11.2265,-3.8032l-5.66818 -0.00590558c5.59259,1.61459 11.1226,3.50674 16.5108,5.4166 21.5152,7.97963 39.4139,15.5435 63.1508,21.0888 4.44572,2.48625 8.62688,4.97132 12.4655,7.34182l-0.00236223 -1.67955z" /><path
         id="_85122784"
         class="fil111"
         d="M124.464 50.1644c-4.36068,-2.92326 -9.24106,-6.02252 -14.5006,-9.11114 -22.8015,-6.41228 -41.0474,-14.5703 -62.4941,-22.3845 -2.49806,-0.874027 -5.02211,-1.73152 -7.56623,-2.55476l-5.61267 -0.00590558c4.32525,1.28387 8.61034,2.72129 12.8151,4.19533 21.3463,7.79891 39.4103,15.8163 62.1823,22.0668 5.54889,3.25161 10.6584,6.50677 15.1774,9.53516l-0.00118112 -1.74097z" /><path
         id="_85830336"
         class="fil112"
         d="M124.465 52.3093c-4.96069,-3.62485 -10.773,-7.57568 -17.177,-11.5088 -21.8613,-7.11505 -40.2879,-15.7289 -61.5858,-23.3814 -1.27679,-0.440557 -2.56066,-0.876389 -3.85162,-1.30277l-5.53944 -0.0070867c3.04728,0.93072 6.07094,1.93585 9.05917,2.97051 21.1656,7.62529 39.4021,16.0951 61.2055,23.046 6.73591,4.128 12.7962,8.26309 17.8904,11.9907l-0.00118112 -1.80711z" /><path
         id="_85142296"
         class="fil113"
         d="M124.466 54.7436c-5.43078,-4.36423 -12.1974,-9.29421 -19.8522,-14.1935 -20.9188,-7.81781 -39.5296,-16.89 -60.6787,-24.3747l-0.165356 -0.0578747 -5.41896 -0.00472447c1.76931,0.562212 3.52918,1.14332 5.27959,1.74333 20.9908,7.45049 39.3914,16.3738 60.2322,24.0251 8.05049,5.1414 15.0911,10.3029 20.6058,14.7592l-0.00236223 -1.89687z" /><path
         id="_81733784"
         class="fil114"
         d="M124.468 57.5452c-5.70716,-5.13077 -13.4706,-11.2159 -22.5298,-17.2467 -18.912,-8.0623 -36.7599,-17.0352 -56.4279,-24.1786l-5.16975 -0.00590558 1.55081 0.520873c20.8148,7.27096 39.382,16.6514 59.2637,25.0066 9.54933,6.34732 17.6152,12.723 23.3141,17.9164l-0.00118112 -2.01262z" /><path
         id="_112788272"
         class="fil115"
         d="M124.472 60.8358l-0.24331 -0.262208c-5.67409,-5.84535 -14.4025,-13.2261 -24.9653,-20.5219 -16.9585,-8.21703 -33.8721,-17.0459 -52.1014,-23.9306l-4.98077 -0.00472447c19.8392,7.03473 37.9682,16.5203 56.2637,25.2794 10.3667,7.15757 18.9097,14.3565 24.4822,20.0282l1.5449 1.70199 0 -2.29019z" /><path
         id="_82227000"
         class="fil116"
         d="M124.473 64.7429c-1.00041,-1.14686 -2.00436,-2.30908 -3.02012,-3.48666 -5.51109,-6.13 -14.2206,-13.8403 -24.8661,-21.4538 -15.1372,-8.3068 -31.0173,-16.9774 -47.9226,-23.6802l-4.80951 -0.00472447c18.3876,6.81859 35.5292,16.1482 51.8782,25.0373 10.4423,7.46938 18.9699,14.9955 24.3676,20.9436 1.47403,1.73034 2.92917,3.42642 4.37368,5.08943l-0.00118112 -2.44491z" /><path
         id="_112600864"
         class="fil117"
         d="M124.477 68.9985c-1.91459,-2.28664 -3.83509,-4.63352 -5.79928,-7.05481 -5.3481,-6.41465 -14.0399,-14.4569 -24.7645,-22.3928 -13.4588,-8.33987 -28.2618,-16.8522 -43.9399,-23.4263l-4.59336 -0.00472447c17.0435,6.68158 33.1043,15.8388 47.6427,24.7916 10.5202,7.7812 19.0207,15.6344 24.2507,21.8625 2.44137,3.03429 4.8225,5.95873 7.20481,8.78397l-0.00118112 -2.55948z" /><path
         id="_82372808"
         class="fil118"
         d="M124.48 73.5552c-2.84177,-3.47721 -5.66582,-7.1115 -8.57727,-10.9242 -5.18747,-6.6993 -13.8628,-15.0758 -24.6629,-23.3306 -11.9281,-8.33514 -25.6444,-16.6904 -40.1851,-23.1747l-4.36659 -0.00472447c15.8069,6.59181 30.7539,15.5801 43.6234,24.5448 10.5958,8.09892 19.075,16.2722 24.1373,22.7837 3.4028,4.47643 6.69103,8.7131 10.0324,12.7383l-0.00118112 -2.63271z" /></g><g
       id="_85799992"><path
         id="_88244160"
         class="fil86"
         d="M36.5686 27.9629c-2.24294,-1.34884 -3.81383,85.6735 1.79412,87.4735 5.60676,1.79884 73.345,-40.9269 76.71,-44.5246 3.365,-3.5965 -67.065,-47.6711 -78.5041,-42.949z" /><g
         id="g161"><path
           id="_52482544"
           class="fil119"
           d="M37.0717 29.2279c-2.17798,-1.30986 -3.7028,83.1837 1.74215,84.9318 5.44377,1.74687 71.2143,-39.7387 74.4812,-43.2312 3.26697,-3.49256 -65.1162,-46.2856 -76.2234,-41.7005z" /><path
           id="_81053256"
           class="fil120"
           d="M37.5725 30.4929c-2.11302,-1.2697 -3.59178,80.6974 1.69018,82.3924 5.28077,1.6949 69.0847,-38.5505 72.2536,-41.9379 3.17012,-3.38862 -63.1685,-44.9025 -73.9438,-40.4544z" /><path
           id="_112413352"
           class="fil121"
           d="M38.0733 31.7591c-2.04688,-1.2319 -3.48075,78.2088 1.63821,79.8518 5.11896,1.64293 66.9552,-37.3611 70.0261,-40.6458 3.07209,-3.2835 -61.2208,-43.5171 -71.6643,-39.206z" /><path
           id="_81961864"
           class="fil122"
           d="M38.5741 33.0252c-1.98191,-1.19293 -3.36973,75.7214 1.58624,77.3112 4.95597,1.59096 64.8256,-36.1729 67.7985,-39.3525 2.97523,-3.17957 -59.2732,-42.1328 -69.3847,-37.9587z" /><path
           id="_82162688"
           class="fil123"
           d="M39.0761 34.2902c-1.91813,-1.15277 -3.26106,73.234 1.53309,74.773 4.79297,1.53663 62.6949,-34.9859 65.5721,-38.0603 2.87602,-3.07445 -57.3279,-40.7497 -67.1052,-36.7127z" /><path
           id="_51182848"
           class="fil124"
           d="M39.5769 35.5563c-1.85317,-1.11379 -3.15004,70.7465 1.48112,72.2324 4.62998,1.48466 60.5653,-33.7977 63.3445,-36.767 2.77917,-2.97051 -55.3802,-39.3654 -64.8256,-35.4654z" /><path
           id="_83896920"
           class="fil125"
           d="M40.0777 36.8225c-1.78703,-1.076 -3.03901,68.2579 1.42915,69.6918 4.46817,1.43269 58.4358,-32.6083 61.1169,-35.4748 2.68114,-2.86539 -53.4325,-37.98 -62.546,-34.217z" /><path
           id="_81127952"
           class="fil126"
           d="M40.5785 38.0875c-1.72207,-1.03584 -2.92799,65.7717 1.37718,67.1524 4.30517,1.38073 56.3062,-31.4201 58.8893,-34.1815 2.58428,-2.76145 -51.4849,-36.5969 -60.2665,-32.9709z" /></g><path
         id="_113515448"
         class="fil127"
         d="M41.0769 39.3548c-1.65711,-0.996863 -2.81696,63.2842 1.32521,64.613 4.14218,1.32876 54.1778,-30.2319 56.6629,-32.8882 2.48625,-2.65751 -49.5384,-35.2138 -57.9881,-31.7248z" /></g><polygon
       class="fil128"
       points="99.241,70.0178 70.6509,86.5239 42.0619,103.03 42.0619,70.0178 42.0619,37.0044 70.6509,53.5105 "
       id="polygon172" /><path
       class="fil129"
       d="M3.75713 14.8018l0.00472447 -0.00472447m-0.00472447 0.00472447l0.00472447 -0.00472447m121.967 32.0142l0 72.1497c0,1.85553 -0.750009,3.5528 -1.95357,4.78589 -1.20592,1.23309 -2.87011,2.00317 -4.69612,2.00317l-110.23 0c-1.82601,0 -3.49138,-0.766545 -4.69848,-1.99845l-0.00236223 -0.00236223c-1.2012,-1.22954 -1.94884,-2.92563 -1.94884,-4.78825l0 -72.1497 0 -4.72447 -0.00236223 0 0 -0.498431 0 -22.8428c0,-0.735836 0.144096,-1.45041 0.408666,-2.11066 0.268114,-0.675599 0.663788,-1.29569 1.15631,-1.83782 0.631898,-0.768907 1.43269,-1.39726 2.34097,-1.82719 0.875208,-0.414572 1.85672,-0.648433 2.88665,-0.649614l109.964 -0.101576 0.0118112 0 0.348429 0.00944894 0.0141734 0c1.72679,0.0933082 3.32957,0.843317 4.49533,1.99727l-0.00118112 0.00118112c1.17521,1.16104 1.91695,2.7331 1.91813,4.4599l0 0.0118112 -0.00826782 0.308272 -0.00590558 18.0179 0.00236223 0 0 9.78673zm-122.531 0l0 72.1497c0,1.59569 0.637803,3.0461 1.66419,4.09611 1.02403,1.04529 2.43664,1.6949 3.98745,1.6949l110.23 0c1.54963,0 2.96106,-0.651977 3.98273,-1.69726l0.00236223 -0.00236223c1.02639,-1.05001 1.66656,-2.50161 1.66656,-4.09139l0 -72.1497 0 -9.78673 0.00236223 0 0.00590558 -18.0286 0 -0.0118112 0.00826782 -0.309453c-0.00354335,-1.44096 -0.630716,-2.76263 -1.62285,-3.7406l-0.00236223 0c-1.00041,-0.989776 -2.3705,-1.6323 -3.84572,-1.71262l-0.334256 -0.00944894 -109.953 0.101576c-0.876389,0 -1.71498,0.20079 -2.46381,0.555125 -0.774813,0.367327 -1.45986,0.905917 -2.00081,1.5638l-0.0177168 0.020079c-0.418115,0.45473 -0.753553,0.981508 -0.979146,1.54963 -0.213782,0.538589 -0.333075,1.12797 -0.333075,1.74333l0 22.3432 0.00236223 0 0 0.499612 0 5.2229z"
       id="path174" /></g></svg>