<?xml version="1.0" encoding="UTF-8" standalone="no"?>
<!-- Creator: CorelDRAW -->

<svg
   xmlns:dc="http://purl.org/dc/elements/1.1/"
   xmlns:cc="http://creativecommons.org/ns#"
   xmlns:rdf="http://www.w3.org/1999/02/22-rdf-syntax-ns#"
   xmlns:svg="http://www.w3.org/2000/svg"
   xmlns="http://www.w3.org/2000/svg"
   xmlns:sodipodi="http://sodipodi.sourceforge.net/DTD/sodipodi-0.dtd"
   xmlns:inkscape="http://www.inkscape.org/namespaces/inkscape"
   xml:space="preserve"
   width="32px"
   height="32px"
   style="shape-rendering:geometricPrecision; text-rendering:geometricPrecision; image-rendering:optimizeQuality; fill-rule:evenodd; clip-rule:evenodd"
   viewBox="0 0 32 32"
   id="svg2"
   version="1.1"
   inkscape:version="0.91 r13725"
   sodipodi:docname="document-open-folder.svg"><metadata
     id="metadata80"><rdf:RDF><cc:Work
         rdf:about=""><dc:format>image/svg+xml</dc:format><dc:type
           rdf:resource="http://purl.org/dc/dcmitype/StillImage" /></cc:Work></rdf:RDF></metadata><sodipodi:namedview
     pagecolor="#ffffff"
     bordercolor="#666666"
     borderopacity="1"
     objecttolerance="10"
     gridtolerance="10"
     guidetolerance="10"
     inkscape:pageopacity="0"
     inkscape:pageshadow="2"
     inkscape:window-width="640"
     inkscape:window-height="480"
     id="namedview78"
     showgrid="false"
     inkscape:zoom="7.375"
     inkscape:cx="16"
     inkscape:cy="16"
     inkscape:window-x="0"
     inkscape:window-y="28"
     inkscape:window-maximized="0"
     inkscape:current-layer="svg2" /><defs
     id="defs4"><style
       type="text/css"
       id="style6"><![CDATA[
    .fil23 {fill:white}
    .fil26 {fill:#B0E2FC}
    .fil28 {fill:#5C9AC9;fill-rule:nonzero}
    .fil0 {fill:black;fill-opacity:0.000000}
    .fil9 {fill:#949191;fill-opacity:0.000000}
    .fil10 {fill:#949191;fill-opacity:0.007843}
    .fil1 {fill:black;fill-opacity:0.011765}
    .fil11 {fill:#949191;fill-opacity:0.019608}
    .fil2 {fill:black;fill-opacity:0.027451}
    .fil12 {fill:#949191;fill-opacity:0.027451}
    .fil13 {fill:#949191;fill-opacity:0.035294}
    .fil3 {fill:black;fill-opacity:0.039216}
    .fil14 {fill:#949191;fill-opacity:0.047059}
    .fil4 {fill:black;fill-opacity:0.054902}
    .fil15 {fill:#949191;fill-opacity:0.054902}
    .fil16 {fill:#949191;fill-opacity:0.062745}
    .fil5 {fill:black;fill-opacity:0.066667}
    .fil17 {fill:#949191;fill-opacity:0.074510}
    .fil6 {fill:black;fill-opacity:0.078431}
    .fil18 {fill:#949191;fill-opacity:0.082353}
    .fil19 {fill:#949191;fill-opacity:0.094118}
    .fil7 {fill:black;fill-opacity:0.094118}
    .fil20 {fill:#949191;fill-opacity:0.101961}
    .fil21 {fill:#949191;fill-opacity:0.109804}
    .fil22 {fill:#949191;fill-opacity:0.121569}
    .fil25 {fill:url(#id0)}
    .fil8 {fill:url(#id1)}
    .fil24 {fill:url(#id2)}
    .fil27 {fill:url(#id3);fill-rule:nonzero}
   ]]></style><linearGradient
       id="id0"
       gradientUnits="userSpaceOnUse"
       x1="15.9929"
       y1="13.8845"
       x2="15.9929"
       y2="30.6133"><stop
         offset="0"
         style="stop-color:#5C90CC"
         id="stop9" /><stop
         offset="0.258824"
         style="stop-color:#5795C9"
         id="stop11" /><stop
         offset="0.419608"
         style="stop-color:#649FCF"
         id="stop13" /><stop
         offset="0.901961"
         style="stop-color:#9FCFF5"
         id="stop15" /><stop
         offset="1"
         style="stop-color:#649DCF"
         id="stop17" /></linearGradient><linearGradient
       id="id1"
       gradientUnits="userSpaceOnUse"
       x1="15.9669"
       y1="5.3105"
       x2="15.5523"
       y2="16.437"><stop
         offset="0"
         style="stop-color:#F0F0F0"
         id="stop20" /><stop
         offset="1"
         style="stop-color:#D6D6D6"
         id="stop22" /></linearGradient><linearGradient
       id="id2"
       gradientUnits="userSpaceOnUse"
       x1="15.8216"
       y1="13.5148"
       x2="15.6988"
       y2="7.97283"><stop
         offset="0"
         style="stop-color:#8F8F8F"
         id="stop25" /><stop
         offset="1"
         style="stop-color:#B8B8B8"
         id="stop27" /></linearGradient><linearGradient
       id="id3"
       gradientUnits="userSpaceOnUse"
       x1="15.7945"
       y1="30.3239"
       x2="16.1913"
       y2="14.1869"><stop
         offset="0"
         style="stop-color:#4E87B4"
         id="stop30" /><stop
         offset="1"
         style="stop-color:#548EBA"
         id="stop32" /></linearGradient></defs><g
     id="Слой_x0020_1"><metadata
       id="CorelCorpID_0Corel-Layer" /><g
       id="_109552920"><path
         id="_109553016"
         class="fil0"
         d="M15.1248 26.9966c6.2885,0 13.9093,1.97844 16.3945,3.39111 0.572863,0.324819 0.341355,1.43157 0.341355,1.55441 0,0.0059058 -0.0271667,0.0118116 -0.0744131,0.0177174l-31.4945 0c-0.107486,-0.00826812 -0.167725,-0.0165362 -0.167725,-0.0248044 0.036616,0.088587 -0.261036,-0.666175 0.321276,-1.08431 2.21586,-1.59457 8.69452,-3.85413 14.6795,-3.85413z" /><g
         id="g38"><path
           id="_109543440"
           class="fil1"
           d="M15.2004 27.3002c6.16093,0 13.6731,1.793 16.1335,3.11472 0.583493,0.308283 0.368522,1.34298 0.368522,1.46936 0,0.029529 -0.585856,0.0543334 -1.59102,0.0755943l-27.9203 0c-1.12683,-0.0212609 -1.78946,-0.0460653 -1.78946,-0.0755943 0,-0.151189 -0.324819,-0.648457 0.350805,-1.05005 2.27373,-1.3666 8.57404,-3.53403 14.448,-3.53403z" /><path
           id="_109553160"
           class="fil2"
           d="M15.2759 27.6049c6.03455,0 13.2869,1.61347 15.7212,2.84542 0.591761,0.291747 0.395689,1.25321 0.395689,1.38314 0,0.059058 -2.32807,0.100399 -5.6991,0.126384l-18.784 0c-3.64624,-0.0259855 -6.21527,-0.0685073 -6.21527,-0.126384 0,-0.15237 -0.317732,-0.640189 0.364979,-1.0158 2.26665,-1.26857 8.45238,-3.21276 14.2164,-3.21276z" /><path
           id="_109545216"
           class="fil3"
           d="M15.3515 27.9085c5.90698,0 12.8995,1.43629 15.309,2.57729 0.601211,0.27521 0.421674,1.16462 0.421674,1.29691 0,0.214971 -30.0936,0.200797 -30.0936,0 0,-0.154732 -0.313008,-0.631921 0.377971,-0.981544 2.25956,-1.17053 8.33072,-2.89266 13.9849,-2.89266z" /><path
           id="_109550832"
           class="fil4"
           d="M15.4271 28.2132c5.7806,0 12.5132,1.25794 14.8968,2.30799 0.611841,0.258674 0.448841,1.07604 0.448841,1.21187 0,0.214971 -29.49,0.199616 -29.49,0 0,-0.155913 -0.308283,-0.624834 0.390964,-0.948472 2.25247,-1.07249 8.21025,-2.57139 13.7534,-2.57139z" /><path
           id="_109551528"
           class="fil5"
           d="M15.5016 28.5168c5.65303,0 12.127,1.07958 14.4846,2.03986 0.62129,0.240957 0.477189,0.986269 0.477189,1.12446 0,0.214971 -28.8876,0.199616 -28.8876,0 0,-0.158276 -0.302377,-0.616566 0.403957,-0.914218 2.24539,-0.974457 8.08977,-2.25011 13.5219,-2.25011z" /><path
           id="_109545384"
           class="fil6"
           d="M15.5771 28.8215c5.52665,0 11.7396,0.901225 14.0723,1.77056 0.63074,0.22442 0.503174,0.897682 0.503174,1.03824 0,0.214971 -28.2841,0.200797 -28.2841,0 0,-0.158276 -0.296471,-0.607116 0.418131,-0.879965 2.2383,-0.876421 7.96811,-1.92884 13.2904,-1.92884z" /><path
           id="_109550736"
           class="fil7"
           d="M15.6516 29.1251c5.40027,0 11.3545,0.72287 13.6613,1.50244 0.640189,0.207884 0.530341,0.809095 0.530341,0.953197 0,0.214971 -27.6805,0.199616 -27.6805,0 0,-0.161819 -0.291747,-0.601211 0.431124,-0.846892 2.23121,-0.778385 7.84645,-1.60874 13.0577,-1.60874z" /></g></g><path
       class="fil8"
       d="M30.0204 8.34962l-0.0437029 9.84143c0,0.591761 -0.141739,-0.780747 -0.733501,-0.780747l-2.65407 0 -14.6889 0 -3.14425 0 -3.36158 -0.690979 -2.65407 0 -0.066145 0 0 -0.00236232c-0.561051,-0.0342537 -1.01107,-0.505537 -1.01107,-1.07486l0.059058 -7.99646c-0.223239,-0.754762 0.490182,-1.60992 1.08312,-1.60638l1.37369 0.00826812c0.497269,-0.11221 0.734682,-0.868153 1.10557,-1.67134 0.248044,-0.537428 0.474827,-1.41149 1.06659,-1.41149 2.65525,0 5.3105,0 7.96575,0 0.591761,0 0.783109,0.874059 1.03233,1.41149 0.667356,1.44692 1.65481,1.64418 2.73557,1.6489 3.30489,-0.0212609 7.01964,0.181899 10.3222,0.197254 1.41621,0.310645 1.32644,1.01698 1.61347,2.12727z"
       id="path47" /><g
       id="_110296592"><polygon
         id="_109075656"
         class="fil9"
         points="2.01624,9.9749 29.8751,9.9749 29.8751,13.3577 2.01624,13.3825 " /><g
         id="g51"><path
           id="_109066200"
           class="fil10"
           d="M2.01742 10.2029c9.28628,0 18.5714,0 27.8577,0l0 3.15488 -27.8577 0.0248044 0 -3.17968z" /><path
           id="_109079232"
           class="fil11"
           d="M2.01742 10.4308c9.28628,0 18.5714,0 27.8577,0l0 2.92692 -27.8577 0.0248044 0 -2.95172z" /><path
           id="_109074888"
           class="fil12"
           d="M2.01742 10.6588c9.28628,0 18.5714,0 27.8577,0l0 2.69895 -27.8577 0.0248044 0 -2.72376z" /><path
           id="_109068096"
           class="fil13"
           d="M2.01742 10.8868c9.28628,0 18.5714,0 27.8577,0l0 2.47099 -27.8577 0.0248044 0 -2.49579z" /><path
           id="_109076424"
           class="fil14"
           d="M2.01742 11.1135c9.28628,0 18.5714,0 27.8577,0l0 2.2442 -27.8577 0.0248044 0 -2.26901z" /><path
           id="_109076832"
           class="fil15"
           d="M2.01742 11.3427c9.28628,0 18.5714,0 27.8577,0l0 2.01506 -27.8577 0.0248044 0 -2.03986z" /><path
           id="_109068240"
           class="fil16"
           d="M2.01742 11.5695c9.28628,0 18.5714,0 27.8577,0l0 1.78828 -27.8577 0.0248044 0 -1.81308z" /><path
           id="_109078320"
           class="fil17"
           d="M2.01742 11.7974c9.28628,0 18.5714,0 27.8577,0l0 1.56031 -27.8577 0.0248044 0 -1.58512z" /><path
           id="_109074240"
           class="fil18"
           d="M2.01742 12.0254c9.28628,0 18.5714,0 27.8577,0l0 1.33235 -27.8577 0.0248044 0 -1.35715z" /><path
           id="_109073400"
           class="fil19"
           d="M2.01742 12.2534c9.28628,0 18.5714,0 27.8577,0l0 1.10439 -27.8577 0.0248044 0 -1.12919z" /><path
           id="_109076160"
           class="fil20"
           d="M2.01742 12.4813c9.28628,0 18.5714,0 27.8577,0l0 0.876421 -27.8577 0.0248044 0 -0.901225z" /><path
           id="_109064880"
           class="fil21"
           d="M2.01742 12.7093c9.28628,0 18.5714,0 27.8577,0l0 0.648457 -27.8577 0.0248044 0 -0.673261z" /></g><polygon
         id="_109078440"
         class="fil22"
         points="2.01624,12.9373 29.8751,12.9373 29.8751,13.3577 2.01624,13.3825 " /></g><path
       class="fil23"
       d="M28.3833 6.82475c0.591761,-0.00354348 1.07604,0.688617 1.07604,1.28038l-0.0153551 3.71829 0.14292 0.0401595 -0.595305 -3.75845 -0.531522 0 0 -0.0059058 0.00354348 0c-0.00118116,-0.0153551 -0.0106304,-0.0354348 -0.0236232,-0.0472464l-0.00472464 -0.00472464c-0.0106304,-0.0106304 -0.0283479,-0.0188986 -0.0460653,-0.0188986l-0.0059058 0 0 -0.00354348 -10.295 0.0673261 -0.00708696 0c-2.73793,-0.701609 -2.40366,-1.65244 -2.72848,-1.98671 0.166544,-0.285841 0.409863,0.540972 0.614203,0.272848 0.598848,0.608298 1.27329,0.265761 2.05758,0.269305 3.58482,-0.022442 6.77396,0.198435 10.3588,0.177174zm-26.7013 4.99867l0.0460653 -3.63679c0,-0.591761 0.484276,-1.32526 1.07722,-1.32172l1.37369 0.00826812c0.245681,-0.0555145 0.42758,-0.022442 0.594124,-0.318913 0.219696,0.257493 0.242138,-0.582312 0.463015,-0.297652 -0.296471,2.05876 -1.54968,1.99498 -2.43083,1.8497l0 0.00354348 -0.0059058 0 -0.00354348 -0.00354348c-0.0129928,0 -0.0307102,0.00944928 -0.0437029,0.022442l0 0.00472464c-0.0153551,0.0153551 -0.0248044,0.0342537 -0.0271667,0.0472464l0.00236232 0 0 0.0059058 -0.00354348 0.0118116 -0.0460653 3.62498 -0.995718 0zm3.82814 -6.91333c0.188986,-0.444116 0.465377,-1.4044 0.881146,-1.4044 2.65525,0 5.02702,0.12166 7.68227,0.12166 0.287022,0 0.724051,0.614203 0.87524,0.887052 -0.222058,0.41695 0.0803189,0.758305 -0.116935,0.975639 -0.288203,-0.476008 -0.62129,-0.188986 -1.47054,-0.450022l-6.3511 0c-0.291747,0 -1.2792,0.380334 -1.39613,0.505537 -0.282297,-0.0980363 0.205522,-0.520892 -0.103942,-0.635464z"
       id="path66" /><path
       class="fil24"
       d="M30.0204 8.08977l-0.0437029 9.90285c0,0.591761 -0.141739,-0.780747 -0.733501,-0.780747l-2.65407 0 -14.6889 0.198435 -3.14425 0 -3.36158 -0.690979 -2.65407 0 -0.066145 0 0 -0.00236232c-0.561051,-0.0342537 -1.01107,-0.505537 -1.01107,-1.07486l0.059058 -8.05788c-0.223239,-0.754762 0.490182,-1.60992 1.08312,-1.60638l1.37369 0.00826812c0.497269,-0.11221 0.734682,-0.868153 1.10557,-1.67134 0.248044,-0.537428 0.474827,-1.41149 1.06659,-1.41149 2.65525,0 5.3105,0 7.96575,0 0.591761,0 0.783109,0.874059 1.03233,1.41149 0.667356,1.44692 1.65481,1.64418 2.73557,1.6489 3.30489,-0.0212609 7.01964,-0.0165362 10.3222,-0.00118116 1.41621,0.310645 1.32644,1.01698 1.61347,2.12727zm-1.02761 8.12284l0.0307102 -8 -0.0921305 -0.393326c-0.0944928,-0.434667 -0.159457,-0.727595 -0.662631,-0.862247 -3.25173,-0.0177174 -6.92869,-0.0165362 -10.1804,0.00236232l-0.00708696 0c-0.67208,-0.00236232 -1.32881,-0.073232 -1.96073,-0.385058l-0.00354348 0c-0.656725,-0.326 -1.23313,-0.884689 -1.6737,-1.84143 -0.0271667,-0.0578769 -0.0555145,-0.125203 -0.0838624,-0.194891 -0.206703,-0.524435 -0.160638,-0.558689 -0.511442,-0.635464l-6.96412 0c-0.652001,0 -0.476008,0.317732 -0.68153,0.803189l-0.00826812 0.0153551 -0.178355 0.400413 0.00118116 0c-0.388602,0.88587 -0.715783,1.63236 -1.61937,1.8367l-0.222058 0.0236232 -1.30873 -0.00826812c-0.022442,0.0153551 -0.0566957,0.0531522 -0.095674,0.103942l-0.00354348 0c-0.0531522,0.0708696 -0.0909494,0.151189 -0.0909494,0.210247l0 0.00826812 0.00236232 0.00354348 0.0389783 0.296471 -0.059058 8.04607 0.00354348 0c0,0.0200797 0.00826812,0.0401595 0.0200797,0.0519711 0.0118116,0.0129928 0.0307102,0.0236232 0.0472464,0.0259855l0.0106304 0 2.65407 0 0.199616 0.022442 3.25292 0.668537 3.0533 0 14.6889 -0.198435 2.40366 0zm-26.1875 -9.23904l0 0.00354348 0.0118116 -0.00354348 -0.0118116 0z"
       id="path68" /><path
       class="fil25"
       d="M1.75757 13.5644c-0.518529,0.105123 -1.3607,0.49845 -1.21187,1.52724 0.707515,4.91008 1.80481,9.09257 1.88159,14.1231 0,0 -0.139377,1.74576 2.30563,1.63l22.8082 0c2.445,0.116935 2.30681,-1.62882 2.30681,-1.62882 0.359073,-4.1943 0.0566957,-9.00517 1.59339,-14.1243 0.148826,-1.02879 -0.74295,-1.45165 -1.26148,-1.55559l-28.4223 0.0283479z"
       id="path70" /><path
       class="fil26"
       d="M0.552783 14.6062c-0.0271667,0.14292 -0.0330725,0.304739 -0.00708696,0.485457l0.0944928 0.636646 0.39687 0c0.0177174,-0.133471 0.066145,-0.239776 0.131109,-0.322457l0 -0.00236232c0.159457,-0.201978 0.432305,-0.313008 0.646095,-0.361435l28.3101 -0.0283479c0.218515,0.0496087 0.505537,0.171268 0.68153,0.386239 0.0685073,0.0850436 0.12166,0.194891 0.141739,0.328363l0.310645 0 0.18308 -0.636646c0.0259855,-0.178355 0.0200797,-0.337812 -0.00826812,-0.480732 -0.354348,-0.340174 -0.819725,-0.517348 -1.15517,-0.584674l-0.0980363 -0.00944928 -28.4223 0.0283479 -0.0980363 0.00944928c-0.329544,0.066145 -0.767754,0.231507 -1.10675,0.551602z"
       id="path72" /><path
       class="fil27"
       d="M1.76347 14.0759c-0.205522,0.0531522 -0.448841,0.161819 -0.595305,0.348442l0 0.00236232c-0.105123,0.13229 -0.165362,0.326 -0.127565,0.594124 0.67208,4.68094 1.81426,9.46464 1.88513,14.1881l0.00236232 0.0059058c0,0.00236232 -0.106304,1.22014 1.78119,1.13155l0.0236232 -0.00236232 22.8082 0 0.0236232 0.00236232c1.88868,0.0897682 1.78237,-1.12801 1.78237,-1.13037l0.00236232 -0.0413406c0.0968552,-1.13746 0.145283,-2.21468 0.19371,-3.29662 0.135833,-3.05684 0.27521,-7.09641 1.40676,-10.8879 0.029529,-0.249225 -0.0377971,-0.437029 -0.144102,-0.569319 -0.175993,-0.214971 -0.463015,-0.336631 -0.68153,-0.386239l-0.620109 0.00118116 0 -0.996899 0.675624 -0.00118116 0.0980363 0.00944928c0.385058,0.0767754 0.940204,0.300015 1.304,0.746493l0.00118116 0.00118116c0.271667,0.336631 0.437029,0.787834 0.353167,1.36778l-0.0165362 0.0720508c-1.10911,3.69703 -1.24731,7.68109 -1.3796,10.686 -0.0496087,1.11265 -0.0992175,2.22176 -0.191348,3.30607 0.00826812,0.163 0.0543334,2.24302 -2.80762,2.11782l0 0.00118116 -22.8082 0 0 -0.00118116c-2.97534,0.128746 -2.80644,-2.12373 -2.80644,-2.12963l0.00236232 0c-0.0720508,-4.67267 -1.21069,-9.41975 -1.87805,-14.0523 -0.0838624,-0.57995 0.0720508,-1.02643 0.33545,-1.35715l0.00118116 0.00118116c0.349624,-0.439392 0.88587,-0.653182 1.27211,-0.731138l0.0980363 -0.00944928 0.0059058 0 0 1.00989z"
       id="path74" /><polygon
       class="fil28"
       points="1.81426,14.0629 1.76347,14.0759 1.76347,13.066 29.5042,13.0388 29.5042,14.0357 "
       id="polygon76" /></g></svg>