<?xml version="1.0" encoding="UTF-8" standalone="no"?>
<!-- Creator: CorelDRAW -->

<svg
   xmlns:dc="http://purl.org/dc/elements/1.1/"
   xmlns:cc="http://creativecommons.org/ns#"
   xmlns:rdf="http://www.w3.org/1999/02/22-rdf-syntax-ns#"
   xmlns:svg="http://www.w3.org/2000/svg"
   xmlns="http://www.w3.org/2000/svg"
   xmlns:xlink="http://www.w3.org/1999/xlink"
   xmlns:sodipodi="http://sodipodi.sourceforge.net/DTD/sodipodi-0.dtd"
   xmlns:inkscape="http://www.inkscape.org/namespaces/inkscape"
   xml:space="preserve"
   width="32px"
   height="32px"
   style="shape-rendering:geometricPrecision; text-rendering:geometricPrecision; image-rendering:optimizeQuality; fill-rule:evenodd; clip-rule:evenodd"
   viewBox="0 0 32 32"
   id="svg2"
   version="1.1"
   inkscape:version="0.91 r13725"
   sodipodi:docname="document-open-remote3.svg"><metadata
     id="metadata80"><rdf:RDF><cc:Work
         rdf:about=""><dc:format>image/svg+xml</dc:format><dc:type
           rdf:resource="http://purl.org/dc/dcmitype/StillImage" /><dc:title></dc:title></cc:Work></rdf:RDF></metadata><sodipodi:namedview
     pagecolor="#ffffff"
     bordercolor="#666666"
     borderopacity="1"
     objecttolerance="10"
     gridtolerance="10"
     guidetolerance="10"
     inkscape:pageopacity="0"
     inkscape:pageshadow="2"
     inkscape:window-width="1920"
     inkscape:window-height="999"
     id="namedview78"
     showgrid="false"
     inkscape:zoom="14.75"
     inkscape:cx="6.7458105"
     inkscape:cy="17.251853"
     inkscape:window-x="-2"
     inkscape:window-y="-2"
     inkscape:window-maximized="1"
     inkscape:current-layer="svg2" /><defs
     id="defs4"><style
       type="text/css"
       id="style6"><![CDATA[
    .fil23 {fill:white}
    .fil26 {fill:#B0E2FC}
    .fil28 {fill:#5C9AC9;fill-rule:nonzero}
    .fil0 {fill:black;fill-opacity:0.000000}
    .fil9 {fill:#949191;fill-opacity:0.000000}
    .fil10 {fill:#949191;fill-opacity:0.007843}
    .fil1 {fill:black;fill-opacity:0.011765}
    .fil11 {fill:#949191;fill-opacity:0.019608}
    .fil2 {fill:black;fill-opacity:0.027451}
    .fil12 {fill:#949191;fill-opacity:0.027451}
    .fil13 {fill:#949191;fill-opacity:0.035294}
    .fil3 {fill:black;fill-opacity:0.039216}
    .fil14 {fill:#949191;fill-opacity:0.047059}
    .fil4 {fill:black;fill-opacity:0.054902}
    .fil15 {fill:#949191;fill-opacity:0.054902}
    .fil16 {fill:#949191;fill-opacity:0.062745}
    .fil5 {fill:black;fill-opacity:0.066667}
    .fil17 {fill:#949191;fill-opacity:0.074510}
    .fil6 {fill:black;fill-opacity:0.078431}
    .fil18 {fill:#949191;fill-opacity:0.082353}
    .fil19 {fill:#949191;fill-opacity:0.094118}
    .fil7 {fill:black;fill-opacity:0.094118}
    .fil20 {fill:#949191;fill-opacity:0.101961}
    .fil21 {fill:#949191;fill-opacity:0.109804}
    .fil22 {fill:#949191;fill-opacity:0.121569}
    .fil25 {fill:url(#id0)}
    .fil8 {fill:url(#id1)}
    .fil24 {fill:url(#id2)}
    .fil27 {fill:url(#id3);fill-rule:nonzero}
   ]]></style><linearGradient
       id="id0"
       gradientUnits="userSpaceOnUse"
       x1="15.9929"
       y1="13.8845"
       x2="15.9929"
       y2="30.6133"><stop
         offset="0"
         style="stop-color:#5C90CC"
         id="stop9" /><stop
         offset="0.258824"
         style="stop-color:#5795C9"
         id="stop11" /><stop
         offset="0.419608"
         style="stop-color:#649FCF"
         id="stop13" /><stop
         offset="0.901961"
         style="stop-color:#9FCFF5"
         id="stop15" /><stop
         offset="1"
         style="stop-color:#649DCF"
         id="stop17" /></linearGradient><linearGradient
       id="id1"
       gradientUnits="userSpaceOnUse"
       x1="15.9669"
       y1="5.3105"
       x2="15.5523"
       y2="16.437"><stop
         offset="0"
         style="stop-color:#F0F0F0"
         id="stop20" /><stop
         offset="1"
         style="stop-color:#D6D6D6"
         id="stop22" /></linearGradient><linearGradient
       id="id2"
       gradientUnits="userSpaceOnUse"
       x1="15.8216"
       y1="13.5148"
       x2="15.6988"
       y2="7.97283"><stop
         offset="0"
         style="stop-color:#8F8F8F"
         id="stop25" /><stop
         offset="1"
         style="stop-color:#B8B8B8"
         id="stop27" /></linearGradient><linearGradient
       id="id3"
       gradientUnits="userSpaceOnUse"
       x1="15.7945"
       y1="30.3239"
       x2="16.1913"
       y2="14.1869"><stop
         offset="0"
         style="stop-color:#4E87B4"
         id="stop30" /><stop
         offset="1"
         style="stop-color:#548EBA"
         id="stop32" /></linearGradient><linearGradient
       x1="12.430652"
       y1="28.280676"
       x2="62.400131"
       y2="28.280676"
       id="linearGradient3137"
       xlink:href="#linearGradient3840"
       gradientUnits="userSpaceOnUse"
       gradientTransform="matrix(-0.36326231,0,0,0.35984429,31.165179,15.729059)" /><linearGradient
       id="linearGradient3840"><stop
         id="stop3844"
         style="stop-color:#d8e866;stop-opacity:1"
         offset="0" /><stop
         id="stop3846"
         style="stop-color:#8cab2a;stop-opacity:1"
         offset="1" /></linearGradient><linearGradient
       x1="41.81702"
       y1="45.610001"
       x2="41.81702"
       y2="26.597807"
       id="linearGradient3139"
       xlink:href="#linearGradient5432"
       gradientUnits="userSpaceOnUse"
       gradientTransform="matrix(0,-0.71470117,0.72148978,0,-10.569824,53.491634)" /><linearGradient
       id="linearGradient5432"><stop
         id="stop5434"
         style="stop-color:#538721;stop-opacity:1"
         offset="0" /><stop
         id="stop5436"
         style="stop-color:#548721;stop-opacity:1"
         offset="1" /></linearGradient><linearGradient
       x1="3.8877637"
       y1="26.022909"
       x2="-8.7979088"
       y2="26.022909"
       id="linearGradient3134"
       xlink:href="#linearGradient3341"
       gradientUnits="userSpaceOnUse"
       gradientTransform="matrix(0.40884813,0,0,0.38328457,12.529304,14.238063)" /><linearGradient
       id="linearGradient3341"><stop
         id="stop3343"
         style="stop-color:#ededed;stop-opacity:1"
         offset="0" /><stop
         id="stop3345"
         style="stop-color:#ededed;stop-opacity:1"
         offset="1" /></linearGradient><radialGradient
       cx="1120.375"
       cy="394.78125"
       r="20.625"
       fx="1120.375"
       fy="394.78125"
       id="radialGradient3346"
       xlink:href="#linearGradient10997"
       gradientUnits="userSpaceOnUse"
       gradientTransform="matrix(0.6787877,0,0,0.09696974,-744.49677,-9.2818163)" /><linearGradient
       id="linearGradient10997"><stop
         id="stop10999"
         style="stop-color:#000000;stop-opacity:1"
         offset="0" /><stop
         id="stop11001"
         style="stop-color:#000000;stop-opacity:0"
         offset="1" /></linearGradient><linearGradient
       x1="0.61210024"
       y1="372.57819"
       x2="5.0856376"
       y2="372.57819"
       id="linearGradient3369"
       xlink:href="#linearGradient272-6"
       gradientUnits="userSpaceOnUse"
       gradientTransform="matrix(6.2590286,0,0,0.2235366,-1.8311397,-54.784908)" /><linearGradient
       id="linearGradient272-6"><stop
         id="stop273-1"
         style="stop-color:#474747;stop-opacity:0"
         offset="0" /><stop
         id="stop275-8"
         style="stop-color:#474747;stop-opacity:1"
         offset="0.1" /><stop
         id="stop276-3"
         style="stop-color:#474747;stop-opacity:1"
         offset="0.89999998" /><stop
         id="stop274-5"
         style="stop-color:#474747;stop-opacity:0"
         offset="1" /></linearGradient><linearGradient
       x1="0.61210024"
       y1="372.57819"
       x2="5.0856376"
       y2="372.57819"
       id="linearGradient3366"
       xlink:href="#linearGradient272-6"
       gradientUnits="userSpaceOnUse"
       gradientTransform="matrix(6.2590282,0,0,0.2235361,-1.8311477,-48.865213)" /><linearGradient
       x1="1.6422368"
       y1="117.8271"
       x2="15.343062"
       y2="117.8271"
       id="linearGradient3363"
       xlink:href="#linearGradient178-9"
       gradientUnits="userSpaceOnUse"
       gradientTransform="matrix(2.0746034,0,0,0.09123576,-1.9522064,16.750006)" /><linearGradient
       id="linearGradient178-9"><stop
         id="stop179-9"
         style="stop-color:#ffffff;stop-opacity:0"
         offset="0" /><stop
         id="stop180-2"
         style="stop-color:#d9d9d9;stop-opacity:1"
         offset="0.10827128" /><stop
         id="stop181-7"
         style="stop-color:#d9d9d9;stop-opacity:1"
         offset="0.92053902" /><stop
         id="stop182-0"
         style="stop-color:#ffffff;stop-opacity:0"
         offset="1" /></linearGradient><linearGradient
       x1="23.100046"
       y1="38.296745"
       x2="23.143667"
       y2="46.03775"
       id="linearGradient3338"
       xlink:href="#linearGradient9347"
       gradientUnits="userSpaceOnUse"
       gradientTransform="matrix(0.5062671,0,0,0.4646652,4.1393935,7.9144824)" /><linearGradient
       id="linearGradient9347"><stop
         id="stop9349"
         style="stop-color:#7a7a7a;stop-opacity:1"
         offset="0" /><stop
         id="stop9351"
         style="stop-color:#ebebeb;stop-opacity:1"
         offset="0.1980198" /><stop
         id="stop9353"
         style="stop-color:#b9b9b9;stop-opacity:1"
         offset="0.59900987" /><stop
         id="stop9355"
         style="stop-color:#878787;stop-opacity:1"
         offset="1" /></linearGradient></defs><g
     id="g4250"><g
       id="_109552920"><path
         id="_109553016"
         class="fil0"
         d="m 15.1248,26.9966 c 6.2885,0 13.9093,1.97844 16.3945,3.39111 0.572863,0.324819 0.341355,1.43157 0.341355,1.55441 0,0.0059 -0.02717,0.01181 -0.07441,0.01772 l -31.4945001,0 c -0.107486,-0.0083 -0.167725,-0.01654 -0.167725,-0.0248 0.036616,0.08859 -0.261036,-0.666175 0.321276,-1.08431 2.21586,-1.59457 8.69452,-3.85413 14.6795001,-3.85413 z"
         inkscape:connector-curvature="0"
         style="fill:#000000;fill-opacity:0" /><g
         id="g38"><path
           id="_109543440"
           class="fil1"
           d="m 15.2004,27.3002 c 6.16093,0 13.6731,1.793 16.1335,3.11472 0.583493,0.308283 0.368522,1.34298 0.368522,1.46936 0,0.02953 -0.585856,0.05433 -1.59102,0.07559 l -27.9203,0 c -1.12683,-0.02126 -1.78946,-0.04606 -1.78946,-0.07559 0,-0.151189 -0.324819,-0.648457 0.350805,-1.05005 2.27373,-1.3666 8.57404,-3.53403 14.448,-3.53403 z"
           inkscape:connector-curvature="0"
           style="fill:#000000;fill-opacity:0.01176501" /><path
           id="_109553160"
           class="fil2"
           d="m 15.2759,27.6049 c 6.03455,0 13.2869,1.61347 15.7212,2.84542 0.591761,0.291747 0.395689,1.25321 0.395689,1.38314 0,0.05906 -2.32807,0.100399 -5.6991,0.126384 l -18.784,0 c -3.64624,-0.02598 -6.21527,-0.06851 -6.21527,-0.126384 0,-0.15237 -0.317732,-0.640189 0.364979,-1.0158 2.26665,-1.26857 8.45238,-3.21276 14.2164,-3.21276 z"
           inkscape:connector-curvature="0"
           style="fill:#000000;fill-opacity:0.02745098" /><path
           id="_109545216"
           class="fil3"
           d="m 15.3515,27.9085 c 5.90698,0 12.8995,1.43629 15.309,2.57729 0.601211,0.27521 0.421674,1.16462 0.421674,1.29691 0,0.214971 -30.0936,0.200797 -30.0936,0 0,-0.154732 -0.313008,-0.631921 0.377971,-0.981544 2.25956,-1.17053 8.33072,-2.89266 13.9849,-2.89266 z"
           inkscape:connector-curvature="0"
           style="fill:#000000;fill-opacity:0.03921599" /><path
           id="_109550832"
           class="fil4"
           d="m 15.4271,28.2132 c 5.7806,0 12.5132,1.25794 14.8968,2.30799 0.611841,0.258674 0.448841,1.07604 0.448841,1.21187 0,0.214971 -29.49,0.199616 -29.49,0 0,-0.155913 -0.308283,-0.624834 0.390964,-0.948472 2.25247,-1.07249 8.21025,-2.57139 13.7534,-2.57139 z"
           inkscape:connector-curvature="0"
           style="fill:#000000;fill-opacity:0.05490202" /><path
           id="_109551528"
           class="fil5"
           d="m 15.5016,28.5168 c 5.65303,0 12.127,1.07958 14.4846,2.03986 0.62129,0.240957 0.477189,0.986269 0.477189,1.12446 0,0.214971 -28.8876,0.199616 -28.8876,0 0,-0.158276 -0.302377,-0.616566 0.403957,-0.914218 2.24539,-0.974457 8.08977,-2.25011 13.5219,-2.25011 z"
           inkscape:connector-curvature="0"
           style="fill:#000000;fill-opacity:0.06666703" /><path
           id="_109545384"
           class="fil6"
           d="m 15.5771,28.8215 c 5.52665,0 11.7396,0.901225 14.0723,1.77056 0.63074,0.22442 0.503174,0.897682 0.503174,1.03824 0,0.214971 -28.2841,0.200797 -28.2841,0 0,-0.158276 -0.296471,-0.607116 0.418131,-0.879965 2.2383,-0.876421 7.96811,-1.92884 13.2904,-1.92884 z"
           inkscape:connector-curvature="0"
           style="fill:#000000;fill-opacity:0.07843101" /><path
           id="_109550736"
           class="fil7"
           d="m 15.6516,29.1251 c 5.40027,0 11.3545,0.72287 13.6613,1.50244 0.640189,0.207884 0.530341,0.809095 0.530341,0.953197 0,0.214971 -27.6805,0.199616 -27.6805,0 0,-0.161819 -0.291747,-0.601211 0.431124,-0.846892 2.23121,-0.778385 7.84645,-1.60874 13.0577,-1.60874 z"
           inkscape:connector-curvature="0"
           style="fill:#000000;fill-opacity:0.09411801" /></g></g><path
       class="fil8"
       d="m 30.0204,8.34962 -0.0437,9.84143 c 0,0.591761 -0.141739,-0.780747 -0.733501,-0.780747 l -2.65407,0 -14.6889,0 -3.1442499,0 -3.36158,-0.690979 -2.65407,0 -0.066145,0 0,-0.0024 c -0.561051,-0.03425 -1.01107,-0.505537 -1.01107,-1.07486 l 0.059058,-7.9964603 c -0.223239,-0.754762 0.490182,-1.60992 1.08312,-1.60638 l 1.37369,0.00827 c 0.497269,-0.11221 0.734682,-0.868153 1.10557,-1.67134 0.248044,-0.537428 0.474827,-1.41149 1.06659,-1.41149 2.65525,0 5.3104999,0 7.9657499,0 0.591761,0 0.783109,0.874059 1.03233,1.41149 0.667356,1.44692 1.65481,1.64418 2.73557,1.6489 3.30489,-0.021261 7.01964,0.181899 10.3222,0.197254 1.41621,0.310645 1.32644,1.01698 1.61347,2.12727 z"
       id="path47"
       style="fill:url(#id1)"
       inkscape:connector-curvature="0" /><g
       id="_110296592"><polygon
         id="_109075656"
         class="fil9"
         points="29.8751,13.3577 2.01624,13.3825 2.01624,9.9749 29.8751,9.9749 "
         style="fill:#949191;fill-opacity:0" /><g
         id="g51"><path
           id="_109066200"
           class="fil10"
           d="m 2.01742,10.2029 c 9.28628,0 18.5714,0 27.8577,0 l 0,3.15488 -27.8577,0.0248 0,-3.17968 z"
           inkscape:connector-curvature="0"
           style="fill:#949191;fill-opacity:0.00784302" /><path
           id="_109079232"
           class="fil11"
           d="m 2.01742,10.4308 c 9.28628,0 18.5714,0 27.8577,0 l 0,2.92692 -27.8577,0.0248 0,-2.95172 z"
           inkscape:connector-curvature="0"
           style="fill:#949191;fill-opacity:0.01960802" /><path
           id="_109074888"
           class="fil12"
           d="m 2.01742,10.6588 c 9.28628,0 18.5714,0 27.8577,0 l 0,2.69895 -27.8577,0.0248 0,-2.72376 z"
           inkscape:connector-curvature="0"
           style="fill:#949191;fill-opacity:0.02745098" /><path
           id="_109068096"
           class="fil13"
           d="m 2.01742,10.8868 c 9.28628,0 18.5714,0 27.8577,0 l 0,2.47099 -27.8577,0.0248 0,-2.49579 z"
           inkscape:connector-curvature="0"
           style="fill:#949191;fill-opacity:0.035294" /><path
           id="_109076424"
           class="fil14"
           d="m 2.01742,11.1135 c 9.28628,0 18.5714,0 27.8577,0 l 0,2.2442 -27.8577,0.0248 0,-2.26901 z"
           inkscape:connector-curvature="0"
           style="fill:#949191;fill-opacity:0.047059" /><path
           id="_109076832"
           class="fil15"
           d="m 2.01742,11.3427 c 9.28628,0 18.5714,0 27.8577,0 l 0,2.01506 -27.8577,0.0248 0,-2.03986 z"
           inkscape:connector-curvature="0"
           style="fill:#949191;fill-opacity:0.05490202" /><path
           id="_109068240"
           class="fil16"
           d="m 2.01742,11.5695 c 9.28628,0 18.5714,0 27.8577,0 l 0,1.78828 -27.8577,0.0248 0,-1.81308 z"
           inkscape:connector-curvature="0"
           style="fill:#949191;fill-opacity:0.06274498" /><path
           id="_109078320"
           class="fil17"
           d="m 2.01742,11.7974 c 9.28628,0 18.5714,0 27.8577,0 l 0,1.56031 -27.8577,0.0248 0,-1.58512 z"
           inkscape:connector-curvature="0"
           style="fill:#949191;fill-opacity:0.07450998" /><path
           id="_109074240"
           class="fil18"
           d="m 2.01742,12.0254 c 9.28628,0 18.5714,0 27.8577,0 l 0,1.33235 -27.8577,0.0248 0,-1.35715 z"
           inkscape:connector-curvature="0"
           style="fill:#949191;fill-opacity:0.082353" /><path
           id="_109073400"
           class="fil19"
           d="m 2.01742,12.2534 c 9.28628,0 18.5714,0 27.8577,0 l 0,1.10439 -27.8577,0.0248 0,-1.12919 z"
           inkscape:connector-curvature="0"
           style="fill:#949191;fill-opacity:0.09411801" /><path
           id="_109076160"
           class="fil20"
           d="m 2.01742,12.4813 c 9.28628,0 18.5714,0 27.8577,0 l 0,0.876421 -27.8577,0.0248 0,-0.901225 z"
           inkscape:connector-curvature="0"
           style="fill:#949191;fill-opacity:0.10196102" /><path
           id="_109064880"
           class="fil21"
           d="m 2.01742,12.7093 c 9.28628,0 18.5714,0 27.8577,0 l 0,0.648457 -27.8577,0.0248 0,-0.673261 z"
           inkscape:connector-curvature="0"
           style="fill:#949191;fill-opacity:0.10980398" /></g><polygon
         id="_109078440"
         class="fil22"
         points="29.8751,13.3577 2.01624,13.3825 2.01624,12.9373 29.8751,12.9373 "
         style="fill:#949191;fill-opacity:0.12156899" /></g><path
       class="fil23"
       d="m 28.3833,6.82475 c 0.591761,-0.00354 1.07604,0.688617 1.07604,1.28038 l -0.01535,3.71829 0.14292,0.04016 -0.595305,-3.7584495 -0.531522,0 0,-0.00591 0.0035,0 c -0.0012,-0.015355 -0.01063,-0.035435 -0.02362,-0.047246 l -0.0047,-0.00472 c -0.01063,-0.01063 -0.02835,-0.018899 -0.04607,-0.018899 l -0.0059,0 0,-0.00354 -10.295,0.067326 -0.0071,0 c -2.73793,-0.701609 -2.40366,-1.65244 -2.72848,-1.98671 0.166544,-0.285841 0.409863,0.540972 0.614203,0.272848 0.598848,0.608298 1.27329,0.265761 2.05758,0.269305 3.58482,-0.022442 6.77396,0.198435 10.3588,0.177174 z M 1.682,11.82342 1.7280653,8.18663 c 0,-0.591761 0.484276,-1.32526 1.07722,-1.32172 l 1.37369,0.00827 c 0.245681,-0.055514 0.42758,-0.022442 0.594124,-0.318913 0.219696,0.257493 0.242138,-0.582312 0.463015,-0.297652 -0.296471,2.05876 -1.54968,1.99498 -2.43083,1.8497 l 0,0.00354 -0.00591,0 -0.00354,-0.00354 c -0.012993,0 -0.03071,0.00945 -0.043703,0.022442 l 0,0.00472 c -0.015355,0.015355 -0.024804,0.034254 -0.027167,0.047246 l 0.00236,0 0,0.00591 -0.00354,0.011812 -0.046065,3.62498 -0.995718,0 z M 5.51014,4.91009 c 0.188986,-0.444116 0.465377,-1.4044 0.881146,-1.4044 2.65525,0 5.02702,0.12166 7.68227,0.12166 0.287022,0 0.724051,0.614203 0.87524,0.887052 -0.222058,0.41695 0.08032,0.758305 -0.116935,0.975639 -0.288203,-0.476008 -0.62129,-0.188986 -1.47054,-0.450022 l -6.3511,0 c -0.291747,0 -1.2792,0.380334 -1.39613,0.505537 C 5.331794,5.4475197 5.819613,5.024664 5.510149,4.910092 Z"
       id="path66"
       inkscape:connector-curvature="0"
       style="fill:#ffffff" /><path
       class="fil24"
       d="m 30.0204,8.08977 -0.0437,9.90285 c 0,0.591761 -0.141739,-0.780747 -0.733501,-0.780747 l -2.65407,0 -14.6889,0.198435 -3.1442499,0 -3.36158,-0.690979 -2.65407,0 -0.066145,0 0,-0.0024 c -0.561051,-0.03425 -1.01107,-0.505537 -1.01107,-1.07486 l 0.059058,-8.0578803 c -0.223239,-0.754762 0.490182,-1.60992 1.08312,-1.60638 l 1.37369,0.00827 c 0.497269,-0.11221 0.734682,-0.868153 1.10557,-1.67134 0.248044,-0.537428 0.474827,-1.41149 1.06659,-1.41149 2.65525,0 5.3104999,0 7.9657499,0 0.591761,0 0.783109,0.874059 1.03233,1.41149 0.667356,1.44692 1.65481,1.64418 2.73557,1.6489 3.30489,-0.021261 7.01964,-0.016536 10.3222,-0.00118 1.41621,0.310645 1.32644,1.01698 1.61347,2.12727 z m -1.02761,8.12284 0.03071,-8 -0.09213,-0.393326 C 28.83688,7.384617 28.771913,7.091689 28.268739,6.957037 25.017009,6.93932 21.340049,6.940501 18.088339,6.959397 l -0.0071,0 c -0.67208,-0.00236 -1.32881,-0.073232 -1.96073,-0.385058 l -0.0035,0 c -0.656725,-0.326 -1.23313,-0.884689 -1.6737,-1.84143 C 14.416139,4.675032 14.387799,4.607706 14.359449,4.538018 14.152746,4.013583 14.198811,3.979329 13.848007,3.902554 l -6.9641201,0 c -0.652001,0 -0.476008,0.317732 -0.68153,0.803189 l -0.00827,0.015355 -0.178355,0.400413 0.00118,0 c -0.388602,0.88587 -0.715783,1.63236 -1.61937,1.8367 l -0.222058,0.023623 -1.30873,-0.00827 c -0.022442,0.015355 -0.056696,0.053152 -0.095674,0.103942 l -0.00354,0 c -0.053152,0.07087 -0.090949,0.151189 -0.090949,0.210247 l 0,0.00827 0.00236,0.00354 0.038978,0.296471 -0.059058,8.04607 0.00354,0 c 0,0.02008 0.00827,0.04016 0.02008,0.05197 0.011812,0.01299 0.03071,0.02362 0.047246,0.02599 l 0.01063,0 2.65407,0 0.199616,0.02244 3.25292,0.668537 3.0533001,0 14.6889,-0.198435 2.40366,0 z m -26.1875,-9.23904 0,0.00354 0.011812,-0.00354 -0.011812,0 z"
       id="path68"
       style="fill:url(#id2)"
       inkscape:connector-curvature="0" /><g
       transform="matrix(0,-1,1,0,-8.0000005,30.999977)"
       id="g4180"><path
         inkscape:connector-curvature="0"
         d="M 22.5,16.500001 30.5,24 l -8,7.5 0,-4 -14,0 0,-7 14,0 0,-3.999999 z"
         id="path3801"
         style="display:inline;overflow:visible;visibility:visible;fill:url(#linearGradient3137);fill-opacity:1;fill-rule:nonzero;stroke:url(#linearGradient3139);stroke-width:0.99999994;stroke-linecap:round;stroke-linejoin:round;stroke-miterlimit:4;stroke-dasharray:none;stroke-dashoffset:0;stroke-opacity:1;marker:none" /><path
         inkscape:connector-curvature="0"
         d="m 23.5,18.794 5.6,5.206 -5.6,5.278 0,-2.778 -14.3247759,0 -0.03945,-5 14.3642259,0 0,-2.706 z"
         id="path3803"
         style="display:inline;overflow:visible;visibility:visible;opacity:0.35400008;fill:none;stroke:url(#linearGradient3134);stroke-width:0.99999994;stroke-linecap:butt;stroke-linejoin:miter;stroke-miterlimit:4;stroke-dasharray:none;stroke-dashoffset:0;stroke-opacity:1;marker:none" /></g><path
       class="fil25"
       d="m 1.75757,13.5644 c -0.518529,0.105123 -1.3607,0.49845 -1.21187,1.52724 0.707515,4.91008 1.80481,9.09257 1.88159,14.1231 0,0 -0.139377,1.74576 2.30563,1.63 l 22.8082,0 c 2.445,0.116935 2.30681,-1.62882 2.30681,-1.62882 0.359073,-4.1943 0.0567,-9.00517 1.59339,-14.1243 0.148826,-1.02879 -0.74295,-1.45165 -1.26148,-1.55559 l -28.4223,0.02835 z"
       id="path70"
       style="fill:url(#id0)"
       inkscape:connector-curvature="0" /><path
       class="fil26"
       d="m 0.552783,14.6062 c -0.0271667,0.14292 -0.0330725,0.304739 -0.007087,0.485457 l 0.0944928,0.636646 0.39687,0 c 0.017717,-0.133471 0.066145,-0.239776 0.131109,-0.322457 l 0,-0.0024 c 0.159457,-0.201978 0.432305,-0.313008 0.646095,-0.361435 l 28.3101002,-0.02835 c 0.218515,0.04961 0.505537,0.171268 0.68153,0.386239 0.06851,0.08504 0.12166,0.194891 0.141739,0.328363 l 0.310645,0 0.18308,-0.636646 c 0.02598,-0.178355 0.02008,-0.337812 -0.0083,-0.480732 -0.354348,-0.340174 -0.819725,-0.517348 -1.15517,-0.584674 l -0.09804,-0.0094 -28.4222996,0.02835 -0.098036,0.0094 c -0.329544,0.06615 -0.76775402,0.231507 -1.10675002,0.551602 z"
       id="path72"
       inkscape:connector-curvature="0"
       style="fill:#b0e2fc" /><path
       class="fil27"
       d="m 1.76347,14.0759 c -0.205522,0.05315 -0.448841,0.161819 -0.595305,0.348442 l 0,0.0024 c -0.105123,0.13229 -0.165362,0.326 -0.127565,0.594124 0.67208,4.68094 1.81426,9.46464 1.88513,14.1881 l 0.00236,0.0059 c 0,0.0024 -0.106304,1.22014 1.78119,1.13155 l 0.023623,-0.0024 22.808201,0 0.02362,0.0024 c 1.88868,0.08977 1.78237,-1.12801 1.78237,-1.13037 l 0.0024,-0.04134 c 0.09685,-1.13746 0.145283,-2.21468 0.19371,-3.29662 0.135833,-3.05684 0.27521,-7.09641 1.40676,-10.8879 0.02953,-0.249225 -0.0378,-0.437029 -0.144102,-0.569319 -0.175993,-0.214971 -0.463015,-0.336631 -0.68153,-0.386239 l -0.620109,0.0012 0,-0.996899 0.675624,-0.0012 0.09804,0.0094 c 0.385058,0.07677 0.940204,0.300015 1.304,0.746493 l 0.0012,0.0012 c 0.271667,0.336631 0.437029,0.787834 0.353167,1.36778 l -0.01654,0.07205 c -1.10911,3.69703 -1.24731,7.68109 -1.3796,10.686 -0.04961,1.11265 -0.09922,2.22176 -0.191348,3.30607 0.0083,0.163 0.05433,2.24302 -2.80762,2.11782 l 0,0.0012 -22.8082002,0 0,-0.0012 c -2.97534,0.128746 -2.80644,-2.12373 -2.80644,-2.12963 l 0.00236,0 c -0.072051,-4.67267 -1.21068998,-9.41975 -1.87804998,-14.0523 -0.0838624,-0.57995 0.0720508,-1.02643 0.33545,-1.35715 l 0.001181,0.0012 C 0.73702178,13.36725 1.2732678,13.15346 1.6595078,13.075504 l 0.098036,-0.0094 0.00591,0 0,1.00989 z"
       id="path74"
       style="fill:url(#id3);fill-rule:nonzero"
       inkscape:connector-curvature="0" /><polygon
       class="fil28"
       points="1.76347,13.066 29.5042,13.0388 29.5042,14.0357 1.81426,14.0629 1.76347,14.0759 "
       id="polygon76"
       style="fill:#5c9ac9;fill-rule:nonzero" /></g><g
     transform="translate(0.08333403,2)"
     id="g4217"><path
       d="m 29.999995,29 c 0,1.104574 -6.267993,2 -13.999996,2 -7.7320034,0 -13.9999966,-0.895426 -13.9999966,-2 0,-1.104573 6.2679932,-2 13.9999966,-2 7.732003,0 13.999996,0.895427 13.999996,2 z"
       id="path6774"
       style="display:inline;opacity:0.3;fill:url(#radialGradient3346);fill-opacity:1;fill-rule:evenodd;stroke:none;enable-background:new"
       inkscape:connector-curvature="0" /><rect
       width="27.999994"
       height="1"
       x="2.000006"
       y="28"
       id="rect8601"
       style="display:block;overflow:visible;visibility:visible;opacity:0.65;fill:url(#linearGradient3369);fill-opacity:1;fill-rule:nonzero;stroke:none;stroke-width:1;marker:none" /><rect
       width="27.999994"
       height="1"
       x="1.9999985"
       y="26"
       id="rect8603"
       style="display:block;overflow:visible;visibility:visible;opacity:0.65;fill:url(#linearGradient3366);fill-opacity:1;fill-rule:nonzero;stroke:none;stroke-width:1;marker:none" /><rect
       width="27.666668"
       height="1"
       x="1.8333317"
       y="27"
       id="rect8605"
       style="display:block;overflow:visible;visibility:visible;fill:url(#linearGradient3363);fill-opacity:1;fill-rule:nonzero;stroke:none;stroke-width:1;marker:none" /><path
       d="m 14.462195,25.500011 -2.238502,0 c -0.40318,0 -0.72366,0.284693 -0.72366,0.64285 l 0,2.714056 c 0,0.358153 0.32048,0.64305 0.72366,0.64305 l 7.552613,0 c 0.403177,0 0.723661,-0.284897 0.723661,-0.64305 l 0,-2.714056 c 0,-0.358157 -0.320484,-0.64285 -0.723661,-0.64285 l -1.95311,0 -3.361001,0 z"
       id="path8607"
       style="display:block;overflow:visible;visibility:visible;fill:url(#linearGradient3338);fill-opacity:1;fill-rule:nonzero;stroke:#5a5c58;stroke-width:1.000067;stroke-linecap:butt;stroke-linejoin:miter;stroke-miterlimit:4;stroke-dasharray:none;stroke-dashoffset:0;stroke-opacity:1;marker:none;enable-background:new"
       inkscape:connector-curvature="0" /><rect
       width="5"
       height="1"
       rx="0.49999997"
       ry="0.5"
       x="14"
       y="25.999989"
       id="rect8615"
       style="display:block;overflow:visible;visibility:visible;fill:#ffffff;fill-opacity:0.72023806;fill-rule:nonzero;stroke:none;stroke-width:1.13999999;marker:none;enable-background:new" /><path
       d="m 13,26.499989 c 0,0.276142 -0.223859,0.5 -0.5,0.5 -0.276142,0 -0.5,-0.223858 -0.5,-0.5 0,-0.276142 0.223858,-0.5 0.5,-0.5 0.276141,0 0.5,0.223858 0.5,0.5 z"
       id="path8617"
       style="display:block;overflow:visible;visibility:visible;fill:#ffffff;fill-opacity:0.72023806;fill-rule:nonzero;stroke:none;stroke-width:1.13999999;marker:none;enable-background:new"
       inkscape:connector-curvature="0" /></g></svg>