<?xml version="1.0" encoding="UTF-8" standalone="no"?>
<!-- Creator: CorelDRAW -->

<svg
   xmlns:dc="http://purl.org/dc/elements/1.1/"
   xmlns:cc="http://creativecommons.org/ns#"
   xmlns:rdf="http://www.w3.org/1999/02/22-rdf-syntax-ns#"
   xmlns:svg="http://www.w3.org/2000/svg"
   xmlns="http://www.w3.org/2000/svg"
   xmlns:xlink="http://www.w3.org/1999/xlink"
   xmlns:sodipodi="http://sodipodi.sourceforge.net/DTD/sodipodi-0.dtd"
   xmlns:inkscape="http://www.inkscape.org/namespaces/inkscape"
   xml:space="preserve"
   width="48px"
   height="48px"
   style="shape-rendering:geometricPrecision; text-rendering:geometricPrecision; image-rendering:optimizeQuality; fill-rule:evenodd; clip-rule:evenodd"
   viewBox="0 0 48 48"
   id="svg2"
   version="1.1"
   inkscape:version="0.91 r13725"
   sodipodi:docname="document-open4.svg"><metadata
     id="metadata80"><rdf:RDF><cc:Work
         rdf:about=""><dc:format>image/svg+xml</dc:format><dc:type
           rdf:resource="http://purl.org/dc/dcmitype/StillImage" /><dc:title></dc:title></cc:Work></rdf:RDF></metadata><sodipodi:namedview
     pagecolor="#ffffff"
     bordercolor="#666666"
     borderopacity="1"
     objecttolerance="10"
     gridtolerance="10"
     guidetolerance="10"
     inkscape:pageopacity="0"
     inkscape:pageshadow="2"
     inkscape:window-width="1920"
     inkscape:window-height="999"
     id="namedview78"
     showgrid="false"
     inkscape:zoom="6.9532167"
     inkscape:cx="32.196192"
     inkscape:cy="23.583"
     inkscape:window-x="-2"
     inkscape:window-y="-2"
     inkscape:window-maximized="1"
     inkscape:current-layer="svg2" /><defs
     id="defs4"><style
       type="text/css"
       id="style6"><![CDATA[
    .fil28 {fill:#B0E2FC}
    .fil11 {fill:white;fill-rule:nonzero}
    .fil0 {fill:black;fill-opacity:0.000000}
    .fil13 {fill:#9E9E9E;fill-opacity:0.000000}
    .fil14 {fill:#9E9E9E;fill-opacity:0.007843}
    .fil1 {fill:black;fill-opacity:0.011765}
    .fil15 {fill:#9E9E9E;fill-opacity:0.019608}
    .fil2 {fill:black;fill-opacity:0.027451}
    .fil16 {fill:#9E9E9E;fill-opacity:0.027451}
    .fil17 {fill:#9E9E9E;fill-opacity:0.035294}
    .fil3 {fill:black;fill-opacity:0.039216}
    .fil18 {fill:#9E9E9E;fill-opacity:0.047059}
    .fil4 {fill:black;fill-opacity:0.054902}
    .fil19 {fill:#9E9E9E;fill-opacity:0.054902}
    .fil20 {fill:#9E9E9E;fill-opacity:0.062745}
    .fil5 {fill:black;fill-opacity:0.066667}
    .fil21 {fill:#9E9E9E;fill-opacity:0.074510}
    .fil6 {fill:black;fill-opacity:0.078431}
    .fil22 {fill:#9E9E9E;fill-opacity:0.082353}
    .fil23 {fill:#9E9E9E;fill-opacity:0.094118}
    .fil7 {fill:black;fill-opacity:0.094118}
    .fil24 {fill:#9E9E9E;fill-opacity:0.101961}
    .fil8 {fill:black;fill-opacity:0.105882}
    .fil25 {fill:#9E9E9E;fill-opacity:0.109804}
    .fil9 {fill:black;fill-opacity:0.121569}
    .fil26 {fill:#9E9E9E;fill-opacity:0.121569}
    .fil27 {fill:url(#id0)}
    .fil10 {fill:url(#id1)}
    .fil12 {fill:url(#id2);fill-rule:nonzero}
    .fil29 {fill:url(#id3);fill-rule:nonzero}
   ]]></style><linearGradient
       id="id0"
       gradientUnits="userSpaceOnUse"
       x1="24.0508"
       y1="21.7217"
       x2="24.0508"
       y2="46.4303"><stop
         offset="0"
         style="stop-color:#5C90CC"
         id="stop9" /><stop
         offset="0.258824"
         style="stop-color:#5795C9"
         id="stop11" /><stop
         offset="0.419608"
         style="stop-color:#649FCF"
         id="stop13" /><stop
         offset="0.901961"
         style="stop-color:#9FCFF5"
         id="stop15" /><stop
         offset="1"
         style="stop-color:#649DCF"
         id="stop17" /></linearGradient><linearGradient
       id="id1"
       gradientUnits="userSpaceOnUse"
       x1="24.2575"
       y1="9.98386"
       x2="23.6681"
       y2="21.3685"><stop
         offset="0"
         style="stop-color:#F0F0F0"
         id="stop20" /><stop
         offset="1"
         style="stop-color:#D6D6D6"
         id="stop22" /></linearGradient><linearGradient
       id="id2"
       gradientUnits="userSpaceOnUse"
       x1="23.7378"
       y1="23.6173"
       x2="24.189"
       y2="7.73386"><stop
         offset="0"
         style="stop-color:#A2A2A2"
         id="stop25" /><stop
         offset="1"
         style="stop-color:#BDBDBD"
         id="stop27" /></linearGradient><linearGradient
       id="id3"
       gradientUnits="userSpaceOnUse"
       x1="23.5713"
       y1="23.3244"
       x2="24.528"
       y2="44.8535"><stop
         offset="0"
         style="stop-color:#5794C2"
         id="stop30" /><stop
         offset="1"
         style="stop-color:#517EA3"
         id="stop32" /></linearGradient><linearGradient
       x1="8.2449274"
       y1="23.890966"
       x2="47.572372"
       y2="23.890966"
       id="linearGradient2630"
       xlink:href="#linearGradient2264"
       gradientUnits="userSpaceOnUse"
       gradientTransform="matrix(0,0.5567853,0.5581051,0.0036,10.666334,-0.110064)" /><linearGradient
       id="linearGradient2264"><stop
         id="stop2266"
         style="stop-color:#d7e866;stop-opacity:1"
         offset="0" /><stop
         id="stop2268"
         style="stop-color:#8cab2a;stop-opacity:1"
         offset="1" /></linearGradient><linearGradient
       x1="40.924362"
       y1="27.531633"
       x2="-11.266858"
       y2="27.531633"
       id="linearGradient2627"
       xlink:href="#linearGradient4222"
       gradientUnits="userSpaceOnUse"
       gradientTransform="matrix(0,-0.6696118,0.6680999,0.01710833,6.678864,29.022764)" /><linearGradient
       id="linearGradient4222"><stop
         id="stop4224"
         style="stop-color:#ffffff;stop-opacity:1"
         offset="0" /><stop
         id="stop4226"
         style="stop-color:#ffffff;stop-opacity:0"
         offset="1" /></linearGradient></defs><g
     id="g4244"><g
       id="_110298704"><path
         id="_110310992"
         class="fil0"
         d="m 22.8331,40.4539 c 9.17126,0 20.2831,2.96457 23.9091,5.07992 0.835039,0.487795 0.498425,2.14488 0.498425,2.33031 0,0.0083 -0.04134,0.01653 -0.108661,0.02598 l -45.9295,0 C 1.045377,47.8783 0.956795,47.86531 0.956795,47.8535 1.0111257,47.985783 0.57648,46.855469 1.425693,46.2283 c 3.23386,-2.38937 12.6791,-5.77441 21.4075,-5.77441 z"
         inkscape:connector-curvature="0"
         style="fill:#000000;fill-opacity:0" /><g
         id="g38"><path
           id="_110319176"
           class="fil1"
           d="m 22.9441,40.9098 c 8.98465,0 19.9394,2.68465 23.5276,4.66535 0.850394,0.462992 0.537402,2.01142 0.537402,2.20157 0,0.0437 -0.853937,0.0815 -2.31969,0.113386 l -40.7185,0 c -1.64173,-0.03189 -2.60787,-0.06968 -2.60787,-0.113386 0,-0.225591 -0.473622,-0.970866 0.511417,-1.57323 3.31535,-2.04803 12.502,-5.2937 21.0697,-5.2937 z"
           inkscape:connector-curvature="0"
           style="fill:#000000;fill-opacity:0.01176501" /><path
           id="_110296304"
           class="fil2"
           d="m 23.0539,41.3646 c 8.79921,0 19.376,2.4189 22.9264,4.26378 0.864567,0.437008 0.577559,1.87795 0.577559,2.07283 0,0.08858 -3.39567,0.15 -8.31142,0.188976 l -27.3933,0 c -5.3185,-0.03898 -9.0626,-0.102756 -9.0626,-0.188976 0,-0.229134 -0.465354,-0.959055 0.531496,-1.52244 3.30354,-1.90039 12.326,-4.81417 20.7319,-4.81417 z"
           inkscape:connector-curvature="0"
           style="fill:#000000;fill-opacity:0.02745098" /><path
           id="_110298272"
           class="fil3"
           d="m 23.1638,41.8205 c 8.61496,0 18.8114,2.15197 22.3252,3.86102 0.877559,0.412205 0.616535,1.74567 0.616535,1.94291 0,0.322441 -43.8874,0.3 -43.8874,0 0,-0.230315 -0.457087,-0.946063 0.550394,-1.47047 3.29528,-1.75394 12.15,-4.33346 20.3953,-4.33346 z"
           inkscape:connector-curvature="0"
           style="fill:#000000;fill-opacity:0.03921599" /><path
           id="_110299424"
           class="fil4"
           d="m 23.2736,42.2764 c 8.43071,0 18.2492,1.88504 21.7252,3.45945 0.891732,0.38622 0.654331,1.61102 0.654331,1.81417 0,0.32126 -43.0063,0.3 -43.0063,0 0,-0.233858 -0.45,-0.935433 0.570472,-1.42087 3.28465,-1.60748 11.974,-3.85276 20.0563,-3.85276 z"
           inkscape:connector-curvature="0"
           style="fill:#000000;fill-opacity:0.05490202" /><path
           id="_110300912"
           class="fil5"
           d="m 23.3823,42.7323 c 8.24528,0 17.6858,1.61693 21.1228,3.05551 0.907087,0.361417 0.69685,1.47874 0.69685,1.68425 0,0.322441 -42.1276,0.3 -42.1276,0 0,-0.23622 -0.441732,-0.922441 0.58937,-1.37008 3.2752,-1.45866 11.7969,-3.36969 19.7185,-3.36969 z"
           inkscape:connector-curvature="0"
           style="fill:#000000;fill-opacity:0.06666703" /><path
           id="_110325560"
           class="fil6"
           d="m 23.4921,43.1882 c 8.05984,0 17.1213,1.35 20.5228,2.65276 0.920079,0.336614 0.734646,1.34528 0.734646,1.55669 0,0.32126 -41.2476,0.3 -41.2476,0 0,-0.238583 -0.433465,-0.911811 0.609449,-1.31929 3.26339,-1.31339 11.6197,-2.89016 19.3807,-2.89016 z"
           inkscape:connector-curvature="0"
           style="fill:#000000;fill-opacity:0.07843101" /><path
           id="_110296280"
           class="fil7"
           d="m 23.602,43.6441 c 7.87441,0 16.5579,1.08307 19.9217,2.25 0.934252,0.311811 0.773622,1.21299 0.773622,1.42795 0,0.32126 -40.3677,0.3 -40.3677,0 0,-0.242126 -0.424016,-0.9 0.628346,-1.2685 3.25512,-1.16693 11.4449,-2.40945 19.0441,-2.40945 z"
           inkscape:connector-curvature="0"
           style="fill:#000000;fill-opacity:0.09411801" /><path
           id="_110320064"
           class="fil8"
           d="m 23.713,44.0988 c 7.68898,0 15.9933,0.816142 19.3205,1.84843 0.947244,0.287008 0.812598,1.07953 0.812598,1.29803 0,0.322441 -39.4878,0.3 -39.4878,0 0,-0.243307 -0.416929,-0.887008 0.648425,-1.21654 3.24449,-1.02047 11.2665,-1.92992 18.7063,-1.92992 z"
           inkscape:connector-curvature="0"
           style="fill:#000000;fill-opacity:0.10588199" /></g><path
         id="_110324192"
         class="fil9"
         d="m 23.8217,44.5559 c 7.50591,0 15.4311,0.548031 18.7193,1.44449 0.96378,0.262205 0.853937,0.946063 0.853937,1.16929 0,0.322441 -38.6091,0.3 -38.6091,0 0,-0.24685 -0.409843,-0.875197 0.667323,-1.16575 3.23504,-0.872835 11.0917,-1.44803 18.3685,-1.44803 z"
         inkscape:connector-curvature="0"
         style="fill:#000000;fill-opacity:0.12156899" /></g><path
       class="fil10"
       d="m 38.8937,11.5583 3.9874,-0.0248 c 0.88937,-0.0047 1.61693,0.72874 1.61693,1.61811 l -0.0047,9.03425 c 0,0.88937 -0.972047,1.60276 -1.86142,1.60276 l -3.9874,0 -20.4213,0 -3.77953,0 -5.1106304,0 -4.2626,0.03071 -0.098032,0 0,-0.0035 c -0.843307,-0.05079 -1.5189,-0.758268 -1.5189,-1.61457 l -0.025984,-9.08031 c 0,-0.88937 0.727559,-1.62283 1.61811,-1.61811 l 2.33858,-0.01772 c 0.747638,-0.167717 1.39843,-0.624803 1.95591,-1.8318902 0.372047,-0.806693 0.7133864,-2.12008 1.6027604,-2.12008 l 3.50079,0 3.77953,0 3.74173,0 c 0.88937,0 1.17756,1.31339 1.55079,2.12008 1.00394,2.1755902 2.31378,1.7598402 3.9378,1.7669302 l 11.4402,0.138189 0,0 z"
       id="path49"
       style="fill:url(#id1)"
       inkscape:connector-curvature="0" /><path
       class="fil11"
       d="m 39.3921,12.0496 3.9874,-0.02362 0.0024,-0.0024 0.01063,0 c 0.304724,0 0.595276,0.06614 0.85748,0.185433 l 0,1.22598 -0.07677,-0.08504 -0.0012,0 C 43.972434,13.150347 43.694875,13.02515 43.392512,13.02515 l -0.01063,0 0,-0.0024 -3.98504,0.02362 -11.4402,-0.137008 -0.478346,0.0024 c -1.57913,0.0189 -2.87835,0.186614 -3.91535,-2.05866 l 0.0012,0 -0.0059,-0.0094 -0.07087,-0.152362 0.344882,-0.259843 0.635433,0 0.0024,0.0035 c 0.765354,1.65827 1.77283,1.49528 2.99646,1.47992 l 0.0035,0 0.48189,-0.0024 11.4402,0.137008 z m 4.58268,13.0512 c -0.258661,0.113386 -0.544488,0.178346 -0.842126,0.178346 l -3.9874,0 -20.4201,0 -3.77953,0 -5.11181,0 -5.11654,0.153543 -0.098031,0 -0.500787,0 0,-0.08976 C 3.753495,25.234268 3.428692,25.031118 3.175936,24.761827 2.819243,24.383874 3.453495,23.748437 3.453495,23.190957 l -0.025984,-9.08031 0,-0.01063 0.00236,-0.0024 c 0.00236,-0.575197 0.240945,-1.10315 0.620079,-1.48346 l 0,-0.0012 C 4.430265,12.232642 4.958218,11.994059 5.53578,11.99524 l 0,-0.0024 0.01063,0 0.00236,0.0024 2.27953,-0.0189 c 0.217323,-0.05433 0.426378,-0.141732 0.62126,-0.279921 l 0.726378,0.700394 c -0.369685,0.3 -0.766535,0.47126 -1.18465,0.564567 l -0.05315,0.01181 -0.056693,0 c -4.0063,-0.02244 -1.52244,0.116929 -3.9815,0.468898 -0.200787,0.200787 -0.325984,0.479528 -0.328346,0.780709 l 0.00236,0 0.214961,-0.112205 -0.188976,9.20315 c 0,0.294094 0.115748,0.564567 0.303543,0.762992 0.190157,0.200787 0.454724,0.335433 0.745276,0.35315 l 0.020079,0.0012 0.048425,0 5.11654,-0.153543 5.11181,0 3.77953,0 20.4201,0 3.9874,0 c 0.308268,0 0.588189,-0.126378 0.788976,-0.327165 l 0.0012,-0.0012 0.05197,-0.05551 0,1.20709 z M 10.13148,9.0036 c 0.307087,-0.505512 0.714567,-0.981496 1.3122,-0.981496 l 3.50197,0 3.77953,0 3.74055,0 c 0.659055,0 1.06299,0.432283 1.36654,0.981496 l -13.7008,0 z"
       id="path51"
       inkscape:connector-curvature="0"
       style="fill:#ffffff;fill-rule:nonzero" /><path
       class="fil12"
       d="m 38.8913,11.0598 3.9874,-0.02362 0.0024,-0.0024 0.01063,0 c 0.577559,0 1.10433,0.238583 1.48583,0.620079 l 0,0.0012 c 0.379134,0.380315 0.617717,0.907087 0.620079,1.48228 l 0.0024,0.0024 0,0.01063 -0.0047,9.03543 c 0,0.57874 -0.484252,1.09488 -0.86811,1.47874 l -0.0012,0.0012 c -0.383858,0.383858 -0.915354,0.623622 -1.49409,0.623622 l -3.9874,0 -20.4201,0 -3.77953,0 -5.1118102,0 -4.26142,0.03071 -0.098032,0 -0.500787,0 0,-0.08976 C 4.1078988,24.12165 3.7830958,23.9185 3.5303398,23.649209 3.1736468,23.271256 2.9527808,22.758658 2.9527808,22.201179 l -0.025984,-9.08031 0,-0.01063 0.00236,-0.0024 c 0.00236,-0.575197 0.240945,-1.10315 0.620079,-1.48346 l 0,-0.0012 c 0.380315,-0.380315 0.908268,-0.618898 1.48583,-0.617717 l 0,-0.0024 0.01063,0 0.00236,0.0024 2.27953,-0.0189 c 0.276378,-0.06968 0.53622,-0.191339 0.777165,-0.402756 0.271654,-0.238583 0.558661,-1.2247998 0.805512,-1.7562998 l 0,-0.00118 -0.022441,0.615354 c 0.444094,-0.964961 0.848031,-2.40945 2.0551192,-2.40945 l 3.50197,0 3.77953,0 3.74055,0 c 1.20472,0 1.58268,0.818504 2.02559,1.77992 l -0.02717,0.623622 0.0059,0.00945 c 0.765354,1.6582698 1.77283,1.4952798 2.99646,1.4799198 l 0.0035,0 0.48189,-0.0024 11.4402,0.137008 z m 3.98976,0.973228 -3.98504,0.02362 -11.4402,-0.137008 -0.478346,0.0024 c -1.57913,0.0189 -2.87835,0.186614 -3.91535,-2.0586598 l 0.02717,-0.623622 -0.0059,-0.00945 c -0.297638,-0.646063 -0.551575,-1.19646 -1.1185,-1.19646 l -3.74055,0 -3.77953,0 -3.50197,0 c -0.564567,0 -0.845669,1.17047 -1.1421301,1.81417 l -0.00236,0.00591 0.02126,-0.614173 c -0.309449,0.669685 -0.682677,1.7657498 -1.05827,2.0952798 -0.394488,0.346063 -0.819685,0.53622 -1.27087,0.636614 l -0.05315,0.01181 -0.056693,0 -2.33504,0.0189 0,0.0024 -0.01063,0 0,-0.0024 c -0.3,0 -0.577559,0.125197 -0.779528,0.327165 l -0.00118,0 C 4.053453,12.53027 3.928256,12.809011 3.925894,13.110192 l 0.00236,0 0,0.01063 0.025984,9.08031 c 0,0.294094 0.115748,0.564567 0.303543,0.762992 0.190157,0.200787 0.454724,0.335433 0.745276,0.35315 l 0.020079,0.0012 0.048425,0 4.26142,-0.03071 5.11181,0 3.77953,0 20.4201,0 3.9874,0 c 0.308268,0 0.588189,-0.126378 0.788976,-0.327165 l 0.0012,-0.0012 c 0.200787,-0.200787 0.571654,-0.466535 0.571654,-0.773622 l 0.0047,-9.03543 0,-0.01063 0.0024,0 c -0.0024,-0.3 -0.127559,-0.57874 -0.328346,-0.779528 l -0.0012,0 C 43.471599,12.160583 43.19404,12.035386 42.891677,12.035386 l -0.01063,0 0,-0.0024 z"
       id="path53"
       style="fill:url(#id2);fill-rule:nonzero"
       inkscape:connector-curvature="0" /><g
       id="g4203"
       transform="translate(-6.2424592e-7,-0.49572256)"><path
         inkscape:connector-curvature="0"
         style="display:inline;overflow:visible;visibility:visible;fill:url(#linearGradient2630);fill-opacity:1;fill-rule:nonzero;stroke:#548820;stroke-width:0.99993217;stroke-linecap:butt;stroke-linejoin:round;stroke-miterlimit:4;stroke-dasharray:none;stroke-dashoffset:0;stroke-opacity:1;marker:none;marker-start:none;marker-mid:none;marker-end:none"
         id="path5656"
         d="M 12.999966,13.495697 24.027636,0.99566297 35.000034,13.495697 l -5.500034,0 0,23.500034 -11,-0.0735 0,-23.426535 -5.500034,0 z" /><path
         inkscape:connector-curvature="0"
         style="display:inline;overflow:visible;visibility:visible;opacity:0.4;fill:none;fill-opacity:1;fill-rule:nonzero;stroke:url(#linearGradient2627);stroke-width:0.99993217;stroke-linecap:butt;stroke-linejoin:miter;stroke-miterlimit:4;stroke-dasharray:none;stroke-dashoffset:0;stroke-opacity:1;marker:none;marker-start:none;marker-mid:none;marker-end:none"
         id="path4360"
         d="M 15.234059,12.495697 24,2.51794 l 8.781616,9.977757 -4.281616,0 0,24.040101 -9,-0.256256 0,-23.783845 -4.265941,0 z" /></g><g
       id="_107614912"><polygon
         id="_107612344"
         class="fil13"
         points="45.4772,21.8693 3.52559,21.9059 3.52559,16.7752 45.4772,16.7752 "
         style="fill:#9e9e9e;fill-opacity:0" /><g
         id="g57"><path
           id="_107611672"
           class="fil14"
           d="m 3.52559,17.1189 c 13.9843,0 27.9685,0 41.9516,0 l 0,4.75039 -41.9516,0.03661 0,-4.78701 z"
           inkscape:connector-curvature="0"
           style="fill:#9e9e9e;fill-opacity:0.00784302" /><path
           id="_107609488"
           class="fil15"
           d="m 3.52559,17.4614 c 13.9843,0 27.9685,0 41.9516,0 l 0,4.40787 -41.9516,0.03661 0,-4.44449 z"
           inkscape:connector-curvature="0"
           style="fill:#9e9e9e;fill-opacity:0.01960802" /><path
           id="_107608864"
           class="fil16"
           d="m 3.52559,17.8051 c 13.9843,0 27.9685,0 41.9516,0 l 0,4.06417 -41.9516,0.03661 0,-4.10079 z"
           inkscape:connector-curvature="0"
           style="fill:#9e9e9e;fill-opacity:0.02745098" /><path
           id="_107607712"
           class="fil17"
           d="m 3.52559,18.1476 c 13.9843,0 27.9685,0 41.9516,0 l 0,3.72165 -41.9516,0.03661 0,-3.75827 z"
           inkscape:connector-curvature="0"
           style="fill:#9e9e9e;fill-opacity:0.035294" /><path
           id="_107614384"
           class="fil18"
           d="m 3.52559,18.4902 c 13.9843,0 27.9685,0 41.9516,0 l 0,3.37913 -41.9516,0.03661 0,-3.41575 z"
           inkscape:connector-curvature="0"
           style="fill:#9e9e9e;fill-opacity:0.047059" /><path
           id="_107613808"
           class="fil19"
           d="m 3.52559,18.8339 c 13.9843,0 27.9685,0 41.9516,0 l 0,3.03543 -41.9516,0.03661 0,-3.07205 z"
           inkscape:connector-curvature="0"
           style="fill:#9e9e9e;fill-opacity:0.05490202" /><path
           id="_107609680"
           class="fil20"
           d="m 3.52559,19.1764 c 13.9843,0 27.9685,0 41.9516,0 l 0,2.69291 -41.9516,0.03661 0,-2.72953 z"
           inkscape:connector-curvature="0"
           style="fill:#9e9e9e;fill-opacity:0.06274498" /><path
           id="_107608360"
           class="fil21"
           d="m 3.52559,19.5201 c 13.9843,0 27.9685,0 41.9516,0 l 0,2.34921 -41.9516,0.03661 0,-2.38583 z"
           inkscape:connector-curvature="0"
           style="fill:#9e9e9e;fill-opacity:0.07450998" /><path
           id="_107610928"
           class="fil22"
           d="m 3.52559,19.8626 c 13.9843,0 27.9685,0 41.9516,0 l 0,2.00669 -41.9516,0.03661 0,-2.04331 z"
           inkscape:connector-curvature="0"
           style="fill:#9e9e9e;fill-opacity:0.082353" /><path
           id="_110300336"
           class="fil23"
           d="m 3.52559,20.2051 c 13.9843,0 27.9685,0 41.9516,0 l 0,1.66417 -41.9516,0.03661 0,-1.70079 z"
           inkscape:connector-curvature="0"
           style="fill:#9e9e9e;fill-opacity:0.09411801" /><path
           id="_110298152"
           class="fil24"
           d="m 3.52559,20.5488 c 13.9843,0 27.9685,0 41.9516,0 l 0,1.32047 -41.9516,0.03661 0,-1.35709 z"
           inkscape:connector-curvature="0"
           style="fill:#9e9e9e;fill-opacity:0.10196102" /><path
           id="_110315432"
           class="fil25"
           d="m 3.52559,20.8913 c 13.9843,0 27.9685,0 41.9516,0 l 0,0.977953 -41.9516,0.03661 0,-1.01457 z"
           inkscape:connector-curvature="0"
           style="fill:#9e9e9e;fill-opacity:0.10980398" /></g><polygon
         id="_107612968"
         class="fil26"
         points="45.4772,21.8693 3.52559,21.9059 3.52559,21.235 45.4772,21.235 "
         style="fill:#9e9e9e;fill-opacity:0.12156899" /></g><path
       class="fil27"
       d="m 2.30669,21.5138 c -0.78189,0.157087 -2.04921,0.748819 -1.8248,2.29843 1.06535,7.3937 2.81575,12.6661 2.9315,20.2417 0,0 -0.210236,2.62795 3.47244,2.45315 l 34.3465,0.0012 c 3.6815,0.174803 3.47244,-2.45315 3.47244,-2.45315 0.540945,-6.31535 0.601181,-12.5339 2.91496,-20.2417 0.224409,-1.54961 -1.1185,-2.18622 -1.89921,-2.34331 l -43.4138,0.0437 z"
       id="path72"
       style="fill:url(#id0)"
       inkscape:connector-curvature="0" /><path
       class="fil28"
       d="m 0.537402,22.8969 c -0.080315,0.258661 -0.106299,0.562205 -0.0555118,0.915354 0.0661417,0.462992 0.134646,0.911811 0.206693,1.35118 l 0.35315,0 -0.0649606,-0.442913 c -0.069685,-0.484252 0.046063,-0.837402 0.244488,-1.0878 0.291732,-0.368504 0.772441,-0.561024 1.13976,-0.641339 l 43.3016004,-0.0437 c 0.374409,0.08268 0.884646,0.290551 1.19764,0.677953 l -0.0012,0 c 0.204331,0.252756 0.328346,0.601181 0.270472,1.06417 l -0.13937,0.473622 0.238583,0 c 0.121654,-0.440551 0.252756,-0.890551 0.390945,-1.35 0.04961,-0.344882 0.02244,-0.646063 -0.06024,-0.904724 -0.501969,-0.561024 -1.22835,-0.84685 -1.74094,-0.949606 l -0.09803,-0.0083 -43.4138002,0.0437 -0.098031,0.0094 c -0.506693,0.101575 -1.19291,0.364961 -1.67126,0.892913 z"
       id="path74"
       inkscape:connector-curvature="0"
       style="fill:#b0e2fc" /><path
       class="fil29"
       d="m 2.36102,22.0122 c -0.367323,0.08031 -0.848031,0.272835 -1.13976,0.641339 -0.198425,0.250394 -0.314173,0.603543 -0.244488,1.0878 0.388583,2.70709 0.875197,6.14173 1.33465,8.30433 0.796063,3.73819 1.52717,7.1622 1.60039,12.0024 l 0.00236,0.0059 c 0,0.0047 -0.178346,2.10236 2.94803,1.95472 l 0.023622,0 34.3465,0.0012 0.02362,0 c 3.1252,0.147638 2.94803,-1.95 2.94803,-1.95472 l 0.0024,-0.04134 c 0.0874,-1.02992 0.161811,-1.98307 0.231496,-2.90906 0.385039,-5.07992 0.738189,-10.872 2.69173,-17.3941 0.05787,-0.462992 -0.06614,-0.811417 -0.270472,-1.06417 l 0.0012,0 C 46.547336,22.259097 46.0371,22.051223 45.662688,21.968546 l -43.3015997,0.0437 z M 0.43937,22.03228 C 0.918898,21.426374 1.66654,21.133461 2.20866,21.0248 l 0.098031,-0.0094 43.413801,-0.0437 0.09803,0.0083 c 0.538583,0.10748 1.31457,0.419291 1.81654,1.03819 l 0.0012,0 c 0.369684,0.457087 0.592913,1.0689 0.478346,1.86614 l -0.01653,0.07205 c -1.93228,6.43583 -2.28071,12.1866 -2.66339,17.2217 -0.07205,0.960236 -0.14882,1.93465 -0.229135,2.8878 0.0094,0.198425 0.101575,3.13465 -3.99685,2.94094 L 6.9095032,47.00562 c -4.23661,0.200787 -3.99685,-2.94331 -3.99685,-2.95157 l 0.00236,0 c -0.073228,-4.72087 -0.793701,-8.10472 -1.5815,-11.8004 -0.462992,-2.17795 -0.951969,-5.62913 -1.34646,-8.37047 -0.115748,-0.794882 0.0956693,-1.40079 0.452362,-1.85079 z"
       id="path76"
       style="fill:url(#id3);fill-rule:nonzero"
       inkscape:connector-curvature="0" /></g></svg>