<?xml version="1.0" encoding="UTF-8" standalone="no"?>
<!-- Creator: CorelDRAW -->

<svg
   xmlns:dc="http://purl.org/dc/elements/1.1/"
   xmlns:cc="http://creativecommons.org/ns#"
   xmlns:rdf="http://www.w3.org/1999/02/22-rdf-syntax-ns#"
   xmlns:svg="http://www.w3.org/2000/svg"
   xmlns="http://www.w3.org/2000/svg"
   xmlns:sodipodi="http://sodipodi.sourceforge.net/DTD/sodipodi-0.dtd"
   xmlns:inkscape="http://www.inkscape.org/namespaces/inkscape"
   xml:space="preserve"
   width="128px"
   height="128px"
   style="shape-rendering:geometricPrecision; text-rendering:geometricPrecision; image-rendering:optimizeQuality; fill-rule:evenodd; clip-rule:evenodd"
   viewBox="0 0 128 128"
   id="svg2"
   version="1.1"
   inkscape:version="0.91 r13725"
   sodipodi:docname="document-open-folder.svg"><metadata
     id="metadata90"><rdf:RDF><cc:Work
         rdf:about=""><dc:format>image/svg+xml</dc:format><dc:type
           rdf:resource="http://purl.org/dc/dcmitype/StillImage" /></cc:Work></rdf:RDF></metadata><sodipodi:namedview
     pagecolor="#ffffff"
     bordercolor="#666666"
     borderopacity="1"
     objecttolerance="10"
     gridtolerance="10"
     guidetolerance="10"
     inkscape:pageopacity="0"
     inkscape:pageshadow="2"
     inkscape:window-width="1680"
     inkscape:window-height="995"
     id="namedview88"
     showgrid="false"
     inkscape:zoom="1.84375"
     inkscape:cx="64"
     inkscape:cy="64"
     inkscape:window-x="0"
     inkscape:window-y="28"
     inkscape:window-maximized="1"
     inkscape:current-layer="svg2" /><defs
     id="defs4"><style
       type="text/css"
       id="style6"><![CDATA[
    .fil28 {fill:#B0E2FC}
    .fil24 {fill:white;fill-rule:nonzero}
    .fil29 {fill:#6392B5;fill-rule:nonzero}
    .fil10 {fill:#9E9E9E;fill-opacity:0.000000}
    .fil11 {fill:#9E9E9E;fill-opacity:0.007843}
    .fil0 {fill:black;fill-opacity:0.011765}
    .fil12 {fill:#9E9E9E;fill-opacity:0.019608}
    .fil1 {fill:black;fill-opacity:0.023529}
    .fil13 {fill:#9E9E9E;fill-opacity:0.027451}
    .fil2 {fill:black;fill-opacity:0.031373}
    .fil14 {fill:#9E9E9E;fill-opacity:0.035294}
    .fil3 {fill:black;fill-opacity:0.043137}
    .fil15 {fill:#9E9E9E;fill-opacity:0.047059}
    .fil16 {fill:#9E9E9E;fill-opacity:0.054902}
    .fil4 {fill:black;fill-opacity:0.054902}
    .fil17 {fill:#9E9E9E;fill-opacity:0.062745}
    .fil5 {fill:black;fill-opacity:0.066667}
    .fil18 {fill:#9E9E9E;fill-opacity:0.074510}
    .fil6 {fill:black;fill-opacity:0.078431}
    .fil19 {fill:#9E9E9E;fill-opacity:0.082353}
    .fil7 {fill:black;fill-opacity:0.090196}
    .fil20 {fill:#9E9E9E;fill-opacity:0.094118}
    .fil21 {fill:#9E9E9E;fill-opacity:0.101961}
    .fil22 {fill:#9E9E9E;fill-opacity:0.109804}
    .fil8 {fill:#223B52;fill-opacity:0.121569}
    .fil23 {fill:#9E9E9E;fill-opacity:0.121569}
    .fil31 {fill:#447AA6;fill-opacity:0.439216}
    .fil30 {fill:#BDE6FC;fill-rule:nonzero;fill-opacity:0.501961}
    .fil9 {fill:url(#id0)}
    .fil25 {fill:url(#id1);fill-rule:nonzero}
    .fil27 {fill:url(#id2);fill-opacity:0.780392}
    .fil26 {fill:url(#id3);fill-opacity:0.780392}
   ]]></style><linearGradient
       id="id0"
       gradientUnits="userSpaceOnUse"
       x1="63.8205"
       y1="52.4144"
       x2="64.3024"
       y2="94.4811"><stop
         offset="0"
         style="stop-color:#E8E8E8"
         id="stop9" /><stop
         offset="1"
         style="stop-color:#D6D6D6"
         id="stop11" /></linearGradient><linearGradient
       id="id1"
       gradientUnits="userSpaceOnUse"
       x1="63.4744"
       y1="50.7384"
       x2="63.4744"
       y2="33.3902"><stop
         offset="0"
         style="stop-color:#A2A2A2"
         id="stop14" /><stop
         offset="1"
         style="stop-color:#B3B3B3"
         id="stop16" /></linearGradient><linearGradient
       id="id2"
       gradientUnits="userSpaceOnUse"
       x1="30.2425"
       y1="54.6326"
       x2="30.2425"
       y2="123.326"><stop
         offset="0"
         style="stop-color:#5B97C9"
         id="stop19" /><stop
         offset="0.141176"
         style="stop-color:#4D88B8"
         id="stop21" /><stop
         offset="0.470588"
         style="stop-color:#649FCF"
         id="stop23" /><stop
         offset="0.94902"
         style="stop-color:#9FCFF5"
         id="stop25" /><stop
         offset="1"
         style="stop-color:#649DCF"
         id="stop27" /></linearGradient><linearGradient
       id="id3"
       gradientUnits="userSpaceOnUse"
       x1="30.2425"
       y1="54.6314"
       x2="30.2425"
       y2="123.328"><stop
         offset="0"
         style="stop-color:#5B97C9"
         id="stop30" /><stop
         offset="0.141176"
         style="stop-color:#5993C2"
         id="stop32" /><stop
         offset="0.470588"
         style="stop-color:#649FCF"
         id="stop34" /><stop
         offset="0.94902"
         style="stop-color:#9FCFF5"
         id="stop36" /><stop
         offset="1"
         style="stop-color:#649DCF"
         id="stop38" /></linearGradient></defs><g
     id="Слой_x0020_1"><metadata
       id="CorelCorpID_0Corel-Layer" /><g
       id="_306781624"><path
         id="_306772120"
         class="fil0"
         d="M125.213 124.686c1.00867,0.542133 1.75632,0.9945 2.28782,1.376l0 1.64293 -127.202 0 0 -2.1957c0.407485,-0.249216 0.885838,-0.522054 1.44569,-0.823238 35.1867,-18.8967 88.2814,-18.8967 123.468,0z" /><path
         id="_306789472"
         class="fil1"
         d="M124.026 124.682c3.64965,1.87089 3.80556,2.61027 2.71303,3.02248l-126.339 0 -0.100395 -0.040158 0 -1.25789c0.492526,-0.434651 1.38545,-0.992138 2.81342,-1.72443 34.4591,-17.666 86.4554,-17.666 120.913,0z" /><path
         id="_306773896"
         class="fil2"
         d="M122.839 124.676c4.3536,2.12129 3.62957,2.67877 1.80238,3.02838l-121.962 0c-1.82719,-0.349611 -2.55121,-0.907098 1.8012,-3.02838 33.7303,-16.4364 84.6282,-16.4364 118.359,0z" /><path
         id="_306791440"
         class="fil3"
         d="M121.651 124.672c5.34337,2.46263 2.86775,2.64806 0.251578,3.03311l-116.306 0c-2.61617,-0.385044 -5.09179,-0.570479 0.250397,-3.03311 33.0028,-15.2057 82.8022,-15.2057 115.804,0z" /><path
         id="_306777880"
         class="fil4"
         d="M120.466 124.668c5.42133,2.34806 2.61145,2.44255 -0.0437013,2.82641 -0.531503,0.0767726 -1.09726,0.146458 -1.689,0.210239l-48.1222 0c-2.24412,-0.0330713 -4.50478,-0.0590558 -6.76898,-0.0744104 -2.26538,0.0153545 -4.52486,0.0413391 -6.76898,0.0744104l-48.1246 0c-0.59174,-0.0637803 -1.15749,-0.133466 -1.689,-0.210239 -2.65515,-0.383863 -5.46503,-0.478352 -0.0425202,-2.82641 32.274,-13.9762 80.9738,-13.9762 113.249,0z" /><path
         id="_306783592"
         class="fil5"
         d="M119.279 124.663c5.29849,2.14136 2.55239,2.22759 -0.0425202,2.57838 -1.50474,0.203152 -3.26343,0.354335 -5.24062,0.462998l-30.7457 0c-6.21504,-0.113387 -12.7454,-0.231499 -19.3183,-0.2752 -6.57292,0.0425202 -13.1033,0.161813 -19.3183,0.2752l-30.7468 0c-1.97719,-0.108663 -3.73587,-0.259846 -5.24062,-0.462998 -2.59491,-0.350792 -5.34101,-0.437013 -0.0413391,-2.57838 31.5465,-12.7454 79.1478,-12.7454 110.694,0z" /><path
         id="_306798184"
         class="fil6"
         d="M118.092 124.657c5.17684,1.93467 2.49452,2.0138 -0.0413391,2.32916 -10.0773,1.25907 -31.8146,0.375595 -54.029,0.240948 -22.2121,0.134647 -43.9505,1.01812 -54.029,-0.240948 -2.53468,-0.315358 -5.21699,-0.394493 -0.040158,-2.32916 30.8177,-11.5159 77.3206,-11.5159 108.14,0z" /><path
         id="_306785128"
         class="fil7"
         d="M116.905 124.654c5.054,1.72797 2.43546,1.79884 -0.040158,2.08113 -9.83988,1.12324 -31.0634,0.413391 -52.7534,0.292917 -21.6865,0.120474 -42.9123,0.830325 -52.751,-0.292917 -2.47562,-0.282287 -5.09534,-0.353154 -0.040158,-2.08113 30.0901,-10.2852 75.4946,-10.2852 105.585,0z" /></g><path
       class="fil8"
       d="M62.1421 120.013c26.718,0 56.2164,3.85871 56.2164,6.19614 0,0.763002 -110.146,0.711032 -110.146,0 0,-2.33743 27.2129,-6.19614 53.9298,-6.19614z"
       id="path51" /><path
       class="fil9"
       d="M115.464 33.2921c1.89097,0.470085 3.30122,2.20042 3.30122,4.23312l0.321264 81.0187c0,2.39649 -1.96302,4.3595 -4.3595,4.3595l-10.747 0 -55.3152 0 -10.6265 0 -13.7765 0 -10.747 0 -0.26457 0 0 -0.00826782c-2.27483,-0.138191 -4.09493,-2.04333 -4.09493,-4.35123l-0.118112 -81.3234c0,-2.39767 1.96184,-4.37368 4.3595,-4.3595l5.56424 0.0354335c2.01499,-0.45473 3.77131,-1.68427 5.27251,-4.93825 0.891743,-1.93231 1.66065,-3.61186 3.49965,-3.96501l31.0457 0c1.83782,0.353154 2.60672,2.0327 3.49847,3.96501 1.81656,3.93666 3.93548,4.84494 6.45717,5.02211l0 0.00590558 0.0992138 0c1.08545,0.0685048 2.24648,0.0070867 3.4902,0l0.407485 0 42.7328 0.305909z"
       id="path53" /><g
       id="_306791992"><polygon
         id="_306783088"
         class="fil10"
         points="9.25996,47.0262 118.305,47.0262 118.305,61.6956 9.25996,61.8043 " /><g
         id="g57"><path
           id="_306789640"
           class="fil11"
           d="M9.26114 48.0148c36.3489,0 72.6954,0 109.044,0l0 13.6809 -109.044 0.108663 0 -13.7895z" /><path
           id="_306796168"
           class="fil12"
           d="M9.26114 49.0022c36.3489,0 72.6954,0 109.044,0l0 12.6935 -109.044 0.108663 0 -12.8021z" /><path
           id="_306782008"
           class="fil13"
           d="M9.26114 49.9908c36.3489,0 72.6954,0 109.044,0l0 11.7049 -109.044 0.108663 0 -11.8135z" /><path
           id="_306777232"
           class="fil14"
           d="M9.26114 50.9794c36.3489,0 72.6954,0 109.044,0l0 10.7163 -109.044 0.108663 0 -10.8249z" /><path
           id="_306788896"
           class="fil15"
           d="M9.26114 51.9668c36.3489,0 72.6954,0 109.044,0l0 9.72886 -109.044 0.108663 0 -9.83752z" /><path
           id="_306788368"
           class="fil16"
           d="M9.26114 52.9554c36.3489,0 72.6954,0 109.044,0l0 8.74027 -109.044 0.108663 0 -8.84893z" /><path
           id="_306797488"
           class="fil17"
           d="M9.26114 53.944c36.3489,0 72.6954,0 109.044,0l0 7.75167 -109.044 0.108663 0 -7.86033z" /><path
           id="_306789256"
           class="fil18"
           d="M9.26114 54.9326c36.3489,0 72.6954,0 109.044,0l0 6.76308 -109.044 0.108663 0 -6.87174z" /><path
           id="_306791776"
           class="fil19"
           d="M9.26114 55.92c36.3489,0 72.6954,0 109.044,0l0 5.77566 -109.044 0.108663 0 -5.88432z" /><path
           id="_306771208"
           class="fil20"
           d="M9.26114 56.9086c36.3489,0 72.6954,0 109.044,0l0 4.78707 -109.044 0.108663 0 -4.89573z" /><path
           id="_306784792"
           class="fil21"
           d="M9.26114 57.8972c36.3489,0 72.6954,0 109.044,0l0 3.79847 -109.044 0.108663 0 -3.90713z" /><path
           id="_306781264"
           class="fil22"
           d="M9.26114 58.8846c36.3489,0 72.6954,0 109.044,0l0 2.81106 -109.044 0.108663 0 -2.91972z" /></g><polygon
         id="_306772720"
         class="fil23"
         points="9.25996,59.8732 118.305,59.8732 118.305,61.6956 9.25996,61.8043 " /></g><path
       class="fil24"
       d="M115.253 34.002c1.06419,0.26457 1.99491,0.8882 2.65043,1.72916 0.64489,0.827963 1.0323,1.86735 1.0323,2.98823l0.0377957 8.46743 -1.00159 0 -0.0377957 -8.46743c0,-0.891743 -0.30709,-1.71853 -0.817333,-2.37404 -0.50788,-0.651977 -1.22246,-1.13978 -2.03625,-1.35828l-42.2804 0 -0.407485 0 0 -0.00236223 -1.1008 0.0165356c-0.833869,0.0153545 -1.63348,0.030709 -2.3894,-0.0141734l-0.0992138 0 -0.500794 0 0 -0.0496069c-1.1634,-0.127561 -2.25121,-0.440557 -3.27524,-1.14805 -0.396855,-0.2752 -1.13742,-2.03388 -1.51065,-2.43783l1.81538 1.42561 0.262208 0.192522c0.980327,0.677961 2.06341,0.929539 3.24217,1.01222l0.0496069 0.00354335 0.0165356 0 0.0295279 0.00236223c0.746466,0.0460636 1.52837,0.030709 2.34334,0.0165356l0.00236223 0 1.10907 -0.0165356 0.00590558 -0.00236223 0.407485 0 42.3336 0 0.0519691 0 0.0673237 0.0165356zm-54.0869 -6.8363c0.0106301,-0.2752 -1.95475,-1.48466 -2.36105,-1.17167 -11.2242,0 -20.3388,0 -31.563,0 -0.589377,-0.191341 -2.46972,0.755915 -2.56539,1.24608 0.0377957,-0.262208 0.0755915,-0.524416 0.113387,-0.787805 0.578747,-0.726387 1.29569,-1.25317 2.31617,-1.44923 0.0188979,-0.00354335 0.0377957,-0.0070867 0.0555125,-0.0106301 0.0129923,0 0.0259846,0 0.0377957,0 11.2525,0 20.3955,0 31.648,0 0.0129923,0 0.0259846,0 0.0389769,0 0.0188979,0.00354335 0.0366146,0.0070867 0.0543314,0.0106301 1.0193,0.196065 1.73742,0.722844 2.31499,1.44923 -0.00354335,0.186616 -0.0850404,0.526778 -0.0897649,0.713395zm-39.1706 4.84848c-0.977965,1.06301 -2.04333,2.55121 -3.45831,2.86893l-0.0531503 0.0129923 -0.0590558 -0.00118112 -5.56188 -0.0354335 0 0.00236223 -0.0259846 0c-1.05001,0 -2.0079,0.432289 -2.70003,1.12679 -0.694497,0.695678 -1.12797,1.65711 -1.13505,2.70594l0.00236223 0 0 0.0259846 0.0377957 8.46625 -1.00159 0 -0.0377957 -8.46625 0 -0.0259846 0.00236223 -0.00236223c0.0070867,-1.32285 0.552763,-2.5335 1.42561,-3.40752 0.875208,-0.87757 2.08231,-1.42443 3.40634,-1.42443l0.0259846 0 0.00236223 0.00236223 5.50637 0.0354335c0.829144,-0.192522 1.61222,-0.533865 2.3457,-1.12088l1.27797 -0.763002z"
       id="path72" /><path
       class="fil25"
       d="M115.253 33.0028c1.06419,0.26457 1.99491,0.8882 2.65043,1.72916 0.64489,0.827963 1.0323,1.86735 1.0323,2.98823l0.00944894 22.4164 -1.00159 0 -0.00944894 -22.4164c0,-0.891743 -0.30709,-1.71853 -0.817333,-2.37404 -0.50788,-0.651977 -1.22246,-1.13978 -2.03625,-1.35828l-42.2804 0 -0.407485 0 0 -0.00236223 -1.1008 0.0165356c-0.833869,0.0153545 -1.63348,0.030709 -2.3894,-0.0141734l-0.0992138 0 -0.500794 0 0 -0.0496069c-1.1634,-0.127561 -2.25121,-0.440557 -3.27524,-1.14805 -1.14332,-0.791348 -2.18743,-2.06814 -3.13468,-4.1221l-0.00118112 -0.00826782 -0.00590558 -0.0141734 -0.00236223 0.00118112c-0.820876,-1.77876 -1.53663,-3.32603 -3.07799,-3.65201l-31.563 0c-1.54254,0.325988 -2.2583,1.87325 -3.07917,3.65201l-0.00236223 -0.00118112 -0.00590558 0.0141734 -0.00118112 0.00826782c-0.780718,1.69254 -1.63939,2.87011 -2.56893,3.68508 -0.947256,0.831506 -1.9642,1.28742 -3.04728,1.53073l-0.0531503 0.0129923 -0.0590558 -0.00118112 -5.56188 -0.0354335 0 0.00236223 -0.0259846 0c-1.05001,0 -2.0079,0.432289 -2.70003,1.12679 -0.694497,0.695678 -1.12797,1.65711 -1.13505,2.70594l0.00236223 0 0 0.0259846 0.00944894 22.4152 -1.00159 0 -0.00944894 -22.4152 0 -0.0259846 0.00236223 -0.00236223c0.0070867,-1.32285 0.552763,-2.5335 1.42561,-3.40752 0.875208,-0.87757 2.08231,-1.42443 3.40634,-1.42443l0.0259846 0 0.00236223 0.00236223 5.50637 0.0354335c0.90946,-0.21142 1.76223,-0.601189 2.55594,-1.29687 0.825601,-0.722844 1.60041,-1.79412 2.31853,-3.35201l0.00236223 0.00118112 0.00590558 -0.0141734 0.00118112 -0.00826782c0.944894,-2.04688 1.76695,-3.82446 3.85044,-4.22486l0.0555125 -0.0106301 0.0377957 0 31.648 0 0.0389769 0 0.0543314 0.0106301c2.08231,0.400399 2.90437,2.17916 3.84926,4.22486l0.00118112 0.00826782 0.00590558 0.0141734 0.00236223 -0.00118112c0.86694,1.87916 1.79412,3.02956 2.79452,3.72052 0.980327,0.677961 2.06341,0.929539 3.24217,1.01222l0.0496069 0.00354335 0.0165356 0 0.0295279 0.00236223c0.746466,0.0460636 1.52837,0.030709 2.34334,0.0165356l0.00236223 0 1.10907 -0.0165356 0.00590558 -0.00236223 0.407485 0 42.3336 0 0.0519691 0 0.0673237 0.0165356z"
       id="path74" /><path
       class="fil26"
       d="M5.55125 60.8417c-2.08703,0.421659 -5.46739,1.99845 -4.87093,6.13236 2.84413,19.7306 7.83907,31.7579 8.14853,51.9739 0,0 -0.559849,7.01347 9.26704,6.54575 7.36072,-0.350792 24.9168,-0.302366 35.267,-0.259846l0 0.0295279 3.34256 -0.0129923 0.0472447 0 2.29373 0.0129923 0 -0.0212601c13.5911,-0.0437013 42.8958,-0.115749 50.703,0.255121 9.82689,0.467722 9.26586,-6.54575 9.26586,-6.54575 1.44569,-16.8522 2.29963,-31.4012 8.47333,-51.9727 0.596464,-4.13509 -2.9835,-5.83236 -5.07053,-6.25401l-116.867 0.116931z"
       id="path76" /><path
       class="fil27"
       d="M8.33632 109.533c0.268114,3.00949 0.441738,6.13118 0.492526,9.41468 0,0 -0.559849,7.01347 9.26704,6.54575 7.36072,-0.350792 24.9168,-0.302366 35.267,-0.259846l0 0.0295279 3.34256 -0.0129923 0.0472447 0 2.29373 0.0129923 0 -0.0212601c13.5911,-0.0437013 42.8958,-0.115749 50.703,0.255121 8.3942,0.399218 9.20681,-4.65951 9.26704,-6.14299l0 -0.382682 -0.00118112 -0.020079 0.00118112 -0.0141734 0 -57.4082 -110.68 0 0 48.0041z"
       id="path78" /><path
       class="fil28"
       d="M5.65401 61.059c-1.86971,0.377957 -4.37958,1.48348 -4.53549,4.68431 -0.050788,0.28583 -0.0826782,0.592921 -0.0885838,0.92009l0.0448824 -0.185435c-0.0259846,0.20079 -0.0413391,0.41221 -0.0448824,0.631898l0.0555125 -0.227956 0.00236223 -0.0129923 0.030709 -0.191341c-1.01222,-3.28705 2.24412,-4.33824 4.53549,-4.68431l116.622 0c2.59137,0.284649 5.80991,1.37482 5.03274,4.74809 0.00826782,-0.167719 0.00826782,-0.329532 0.00118112,-0.487801 0.135828,-3.5965 -3.06736,-4.7977 -5.03392,-5.19455l-116.622 0z"
       id="path80" /><path
       class="fil29"
       d="M5.76739 60.8677c-1.12442,0.233861 -2.57483,0.753553 -3.51973,1.87207 -0.663788,0.785443 -1.05238,1.88979 -0.830325,3.43587 -0.0106301,3.01067 9.66862,43.6057 8.07648,52.7569l0 0.0330713c0,0.0177168 -0.514967,6.44417 8.61861,6.00952l91.4208 0.00472447c9.13358,0.43347 8.61625,-5.99181 8.61625,-6.00952l0 -0.0342524c-0.297641,-16.3585 5.50637,-35.9414 8.47688,-52.7569 0.22205,-1.54608 -0.166537,-2.65043 -0.831506,-3.43823 -0.943712,-1.11734 -2.4709,-1.63585 -3.59532,-1.86971l-116.432 -0.00354335zm-4.52722 1.28151c1.18584,-1.40553 2.98114,-2.02443 4.3158,-2.29373l0.0826782 -0.0165356 0.0637803 0 116.564 0.00354335 0.0625992 0 0.0814971 0.0165356c1.33584,0.269295 3.20555,0.8882 4.39139,2.29255 0.825601,0.975603 1.31222,2.31499 1.04883,4.14926 -2.46145,17.1179 -8.19813,35.8859 -8.47097,52.6329 0.0188979,0.300004 0.40158,7.56151 -9.9143,7.07017l-91.2873 -0.00472447c-10.3159,0.491345 -9.93437,-6.76898 -9.91548,-7.07017 -0.292917,-20.2136 -5.19101,-32.665 -8.07057,-52.6318 -0.263389,-1.83309 0.223231,-3.17366 1.04765,-4.14808z"
       id="path82" /><path
       class="fil30"
       d="M10.7009 121.005c1.13505,1.40435 3.10043,2.50869 6.49851,2.30082l91.885 0.00472447c3.4028,0.207877 5.367,-0.89883 6.50205,-2.30554l1.4764 0c-1.17875,2.01499 -3.49611,3.81501 -8.03986,3.53626l-91.7622 -0.00472447c-4.54021,0.278744 -6.85638,-1.51774 -8.03632,-3.53154l1.4764 0z"
       id="path84" /><path
       class="fil31"
       d="M5.65401 62.3606c-1.86971,0.377957 -4.37958,1.48348 -4.53549,4.68431 -0.050788,0.28583 -0.0826782,0.592921 -0.0885838,0.92009l0.0448824 -0.185435c-0.0259846,0.20079 -0.0413391,0.41221 -0.0448824,0.631898l0.0555125 -0.227956 0.00236223 -0.0129923 0.030709 -0.191341c-1.01222,-3.28705 2.24412,-4.33824 4.53549,-4.68431l116.622 0c2.59137,0.284649 5.80991,1.37482 5.03274,4.74809 0.00826782,-0.167719 0.00826782,-0.329532 0.00118112,-0.487801 0.135828,-3.5965 -3.06736,-4.7977 -5.03392,-5.19455l-116.622 0z"
       id="path86" /></g></svg>