<?xml version="1.0" encoding="UTF-8" standalone="no"?>
<svg
   xmlns:dc="http://purl.org/dc/elements/1.1/"
   xmlns:cc="http://creativecommons.org/ns#"
   xmlns:rdf="http://www.w3.org/1999/02/22-rdf-syntax-ns#"
   xmlns:svg="http://www.w3.org/2000/svg"
   xmlns="http://www.w3.org/2000/svg"
   xmlns:xlink="http://www.w3.org/1999/xlink"
   id="svg3809"
   height="16"
   width="16"
   version="1.1">
  <metadata
     id="metadata23">
    <rdf:RDF>
      <cc:Work
         rdf:about="">
        <dc:format>image/svg+xml</dc:format>
        <dc:type
           rdf:resource="http://purl.org/dc/dcmitype/StillImage" />
      </cc:Work>
    </rdf:RDF>
  </metadata>
  <defs
     id="defs3811">
    <linearGradient
       gradientTransform="matrix(0.2545239,0,0,0.12875595,6.0849926,-15.173532)"
       gradientUnits="userSpaceOnUse"
       xlink:href="#linearGradient2372"
       id="linearGradient2974"
       y2="125.39074"
       x2="26.256771"
       y1="144.11652"
       x1="28.739122" />
    <linearGradient
       id="linearGradient2372">
      <stop
         offset="0"
         style="stop-color:#ffffff;stop-opacity:1"
         id="stop2374" />
      <stop
         offset="1"
         style="stop-color:#ffffff;stop-opacity:0.37931034"
         id="stop2376" />
    </linearGradient>
    <linearGradient
       gradientTransform="matrix(0.12649532,0,0,0.12875595,2.1139996,-14.056928)"
       gradientUnits="userSpaceOnUse"
       xlink:href="#linearGradient2372"
       id="linearGradient2977"
       y2="119.86452"
       x2="25.400293"
       y1="144.11652"
       x1="28.739122" />
    <radialGradient
       gradientTransform="matrix(0.3698584,-0.06212313,0,0.35879901,4.6705097,-1.5148309)"
       gradientUnits="userSpaceOnUse"
       xlink:href="#linearGradient7067-814-120-245"
       id="radialGradient2980"
       fy="39.105911"
       fx="15.970393"
       r="5.7384715"
       cy="41.058823"
       cx="17.058823" />
    <linearGradient
       id="linearGradient7067-814-120-245">
      <stop
         offset="0"
         style="stop-color:#aaaaaa;stop-opacity:1"
         id="stop3877" />
      <stop
         offset="1"
         style="stop-color:#4d4d4d;stop-opacity:1"
         id="stop3879" />
    </linearGradient>
    <radialGradient
       gradientTransform="matrix(0.37667571,-0.06311262,0,0.36451394,-2.446246,-0.69065449)"
       gradientUnits="userSpaceOnUse"
       xlink:href="#linearGradient7067-814-120-245"
       id="radialGradient2983"
       fy="39.027378"
       fx="15.544384"
       r="5.7384715"
       cy="41.058823"
       cx="17.058823" />
  </defs>
  <g
     id="layer1">
    <path
       style="fill:none;stroke:none"
       id="path2931"
       d="M 12.887143,11.242639 12.520463,8.2875931" />
    <path
       style="fill:#4d4d4d;fill-opacity:1;stroke:#333333;stroke-width:1;stroke-linecap:round;stroke-linejoin:round;stroke-miterlimit:4;stroke-opacity:1;stroke-dasharray:none"
       id="path4031"
       d="M 12.862181,0.50107998 C 10.505078,0.88091513 7.3505507,1.2719259 5,1.6729744 4.3775618,1.9766657 4.5174948,2.758676 4.4899572,3.3260967 c 0,2.5319424 0,5.0638848 0,7.5958273 -1.3117262,-0.246608 -2.9113558,0.837273 -2.9807337,2.553424 -0.1132522,1.068438 0.8342068,1.998453 1.8644819,2.023461 1.844664,0.04478 3.1062853,-1.179076 3.1262946,-2.726857 -0.020145,-2.599408 0.00566,-5.1998384 0,-7.7996448 0.2855763,-0.02115 4.61103,-0.8465037 5,-0.901457 0,1.9471472 0,3.8942945 0,5.8414417 -1.146387,-0.2746364 -2.6118971,0.4787211 -2.9752697,2.0172541 -0.15337,0.862385 0.1364969,1.944831 1.0115464,2.309984 1.7082373,0.784936 4.0532683,-0.805037 3.9579313,-2.671065 -0.02646,-3.4661732 0.02169,-6.933764 0,-10.4003066 -0.04486,-0.32575865 -0.265607,-0.69059252 -0.632027,-0.66707842 z" />
    <path
       style="fill:url(#radialGradient2983);fill-opacity:1;stroke:none"
       id="path2937"
       d="m 5.9735639,12.865117 a 1.7166647,2.0994822 57.095252 0 1 -3.9883314,0.66825 1.7166647,2.0994822 57.095252 0 1 3.9883314,-0.66825 z" />
    <path
       style="fill:url(#radialGradient2980);fill-opacity:1;stroke:none"
       id="path2941"
       d="M 12.937933,11.82841 A 1.6885125,2.0629959 56.769744 0 1 9.0217849,12.486184 1.6885125,2.0629959 56.769744 1 1 12.937933,11.82841 z" />
    <path
       style="opacity:0.4;fill:url(#linearGradient2977);fill-opacity:1;fill-rule:evenodd;stroke:none"
       id="path2945"
       d="M 5.0536869,11.476373 5,2.7939369 c 0,0 0.05877,-0.6637646 0.4947159,-0.6657879 0.1546126,-0.027048 6.9317151,-1.15654738 6.9317151,-1.15654738 0,0 0.132983,0.70947368 -6.0694897,1.62965478 -0.516931,0.077068 -0.76544,0.068481 -0.7627163,0.5583664 0.00735,1.3216244 -0.030358,3.795953 -0.030358,8.6082552 0,0.03443 -0.3254384,-0.243938 -0.5101806,-0.291505 z" />
    <path
       style="opacity:0.4;fill:url(#linearGradient2974);fill-opacity:1;fill-rule:evenodd;stroke:none"
       id="path2947"
       d="m 12,10.271349 0.03393,-6.5590211 c 0.357493,-0.0323 0.05489,-0.00519 0.53695,-0.053577 0.0066,1.2251582 2.74e-4,2.2420961 2.74e-4,6.8691941 0,0.03443 -0.199425,-0.209029 -0.571151,-0.256596 z" />
  </g>
</svg>
