<?xml version="1.0" encoding="UTF-8" standalone="no"?>
<svg
   xmlns:dc="http://purl.org/dc/elements/1.1/"
   xmlns:cc="http://creativecommons.org/ns#"
   xmlns:rdf="http://www.w3.org/1999/02/22-rdf-syntax-ns#"
   xmlns:svg="http://www.w3.org/2000/svg"
   xmlns="http://www.w3.org/2000/svg"
   xmlns:xlink="http://www.w3.org/1999/xlink"
   id="svg3219"
   height="16"
   width="16"
   version="1.0">
  <metadata
     id="metadata13">
    <rdf:RDF>
      <cc:Work
         rdf:about="">
        <dc:format>image/svg+xml</dc:format>
        <dc:type
           rdf:resource="http://purl.org/dc/dcmitype/StillImage" />
      </cc:Work>
    </rdf:RDF>
  </metadata>
  <defs
     id="defs3221">
    <linearGradient
       id="linearGradient3587-6-5">
      <stop
         offset="0"
         style="stop-color:#000000;stop-opacity:1"
         id="stop3589-9-2" />
      <stop
         offset="1"
         style="stop-color:#363636;stop-opacity:1"
         id="stop3591-7-4" />
    </linearGradient>
    <linearGradient
       gradientTransform="translate(13.927091,-4.4266134)"
       gradientUnits="userSpaceOnUse"
       xlink:href="#linearGradient3587-6-5"
       id="linearGradient2401"
       y2="18.967093"
       x2="-2.4040222"
       y1="4.4573336"
       x1="-2.4040222" />
    <linearGradient
       gradientTransform="translate(13.927091,-4.4266134)"
       gradientUnits="userSpaceOnUse"
       xlink:href="#linearGradient3587-6-5"
       id="linearGradient2420"
       y2="18.967093"
       x2="-2.4040222"
       y1="4.4573336"
       x1="-2.4040222" />
  </defs>
  <path
     style="opacity:0.6;fill:#ffffff;fill-opacity:1;fill-rule:evenodd;stroke:none;stroke-width:1;stroke-linecap:butt;stroke-linejoin:miter;marker:none;marker-start:none;marker-mid:none;marker-end:none;stroke-miterlimit:4;stroke-dasharray:none;stroke-dashoffset:0;stroke-opacity:1;visibility:visible;display:inline;overflow:visible;enable-background:accumulate"
     id="path2423"
     d="M 6,2 L 1,7 L 1,15 L 15,15 L 15,7 L 10,2 L 6,2 z M 8,4 L 12,9 L 10,8.96875 L 10,13 L 6,13 L 6,8.96875 L 4,9 L 8,4 z" />
  <path
     style="opacity:0.7;fill:url(#linearGradient2420);fill-opacity:1;fill-rule:evenodd;stroke:none;stroke-width:1;stroke-linecap:butt;stroke-linejoin:miter;marker:none;marker-start:none;marker-mid:none;marker-end:none;stroke-miterlimit:4;stroke-dasharray:none;stroke-dashoffset:0;stroke-opacity:1;visibility:visible;display:inline;overflow:visible;enable-background:accumulate"
     id="path3883"
     d="M 6,1 L 1,6 L 1,14 L 15,14 L 15,6 L 10,1 L 6,1 z M 8,3 L 12,8 L 10,7.96875 L 10,12 L 6,12 L 6,7.96875 L 4,8 L 8,3 z" />
</svg>
