<?xml version="1.0" encoding="UTF-8" standalone="no"?>
<svg
   xmlns:dc="http://purl.org/dc/elements/1.1/"
   xmlns:cc="http://creativecommons.org/ns#"
   xmlns:rdf="http://www.w3.org/1999/02/22-rdf-syntax-ns#"
   xmlns:svg="http://www.w3.org/2000/svg"
   xmlns="http://www.w3.org/2000/svg"
   xmlns:xlink="http://www.w3.org/1999/xlink"
   id="svg3210"
   height="16"
   width="16"
   version="1.0">
  <metadata
     id="metadata15">
    <rdf:RDF>
      <cc:Work
         rdf:about="">
        <dc:format>image/svg+xml</dc:format>
        <dc:type
           rdf:resource="http://purl.org/dc/dcmitype/StillImage" />
      </cc:Work>
    </rdf:RDF>
  </metadata>
  <defs
     id="defs3212">
    <linearGradient
       gradientTransform="translate(-4.224479,-2.9700928)"
       gradientUnits="userSpaceOnUse"
       xlink:href="#linearGradient3587-6-5"
       id="linearGradient3203"
       y2="11.489649"
       x2="10.482667"
       y1="3.9700928"
       x1="10.482667" />
    <linearGradient
       id="linearGradient3587-6-5">
      <stop
         offset="0"
         style="stop-color:#000000;stop-opacity:1"
         id="stop3589-9-2" />
      <stop
         offset="1"
         style="stop-color:#363636;stop-opacity:1"
         id="stop3591-7-4" />
    </linearGradient>
    <linearGradient
       gradientTransform="translate(-4.224479,-2.9700928)"
       gradientUnits="userSpaceOnUse"
       xlink:href="#linearGradient3587-6-5"
       id="linearGradient3201"
       y2="18.135748"
       x2="15.66143"
       y1="3.9700928"
       x1="15.66143" />
  </defs>
  <g
     id="layer1">
    <path
       style="opacity:0.6;fill:#ffffff;fill-opacity:1;fill-rule:evenodd;stroke:none;stroke-width:1;stroke-linecap:butt;stroke-linejoin:miter;marker:none;marker-start:none;marker-mid:none;marker-end:none;stroke-miterlimit:4;stroke-dasharray:none;stroke-dashoffset:0;stroke-opacity:1;visibility:visible;display:inline;overflow:visible;enable-background:accumulate"
       id="path3205"
       d="M 0,6.9849782 L 7,1.9849782 L 7,4.9849782 L 12,4.9849782 L 15,1.9849782 L 12,7.9849782 L 9,7.9849782 L 9,4.9849782 L 3,9.4849782 L 0,6.9849782 z M 16,1.9849782 L 16,10.627108 C 16,10.627108 15.485533,14.015821 12,14.015821 L 8,14.048094 L 8,16.113595 L 1.9041337,11.595311 L 8,6.980208 L 8,9.0457089 L 12.541964,8.9849782" />
    <path
       style="opacity:0.7;fill:url(#linearGradient3203);fill-opacity:1;fill-rule:evenodd;stroke:none;stroke-width:1;stroke-linecap:butt;stroke-linejoin:miter;marker:none;marker-start:none;marker-mid:none;marker-end:none;stroke-miterlimit:4;stroke-dasharray:none;stroke-dashoffset:0;stroke-opacity:1;visibility:visible;display:inline;overflow:visible;enable-background:accumulate"
       id="path2427"
       d="M 0,6 L 7,1 L 7,4 L 12,4 L 15,1 L 12,7 L 9,7 L 9,4 L 3,8.5 L 0,6 z" />
    <path
       style="opacity:0.7;fill:url(#linearGradient3201);fill-opacity:1;fill-rule:evenodd;stroke:none;stroke-width:1;stroke-linecap:butt;stroke-linejoin:miter;marker:none;marker-start:none;marker-mid:none;marker-end:none;stroke-miterlimit:4;stroke-dasharray:none;stroke-dashoffset:0;stroke-opacity:1;visibility:visible;display:inline;overflow:visible;enable-background:accumulate"
       id="path2429"
       d="M 16,1 L 16,9.6421299 C 16,9.6421299 15.485533,13.030843 12,13.030843 L 8,13.063116 L 8,15.128617 L 1.9041337,10.610333 L 8,5.9952298 L 8,8.0607307 L 12.541964,8" />
  </g>
</svg>
