<?xml version="1.0" encoding="UTF-8" standalone="no"?>
<!-- Creator: CorelDRAW -->

<svg
   xmlns:dc="http://purl.org/dc/elements/1.1/"
   xmlns:cc="http://creativecommons.org/ns#"
   xmlns:rdf="http://www.w3.org/1999/02/22-rdf-syntax-ns#"
   xmlns:svg="http://www.w3.org/2000/svg"
   xmlns="http://www.w3.org/2000/svg"
   xmlns:sodipodi="http://sodipodi.sourceforge.net/DTD/sodipodi-0.dtd"
   xmlns:inkscape="http://www.inkscape.org/namespaces/inkscape"
   xml:space="preserve"
   width="64px"
   height="64px"
   style="shape-rendering:geometricPrecision; text-rendering:geometricPrecision; image-rendering:optimizeQuality; fill-rule:evenodd; clip-rule:evenodd"
   viewBox="0 0 64 64"
   id="svg2"
   version="1.1"
   inkscape:version="0.91 r13725"
   sodipodi:docname="document-open-folder.svg"><metadata
     id="metadata87"><rdf:RDF><cc:Work
         rdf:about=""><dc:format>image/svg+xml</dc:format><dc:type
           rdf:resource="http://purl.org/dc/dcmitype/StillImage" /></cc:Work></rdf:RDF></metadata><sodipodi:namedview
     pagecolor="#ffffff"
     bordercolor="#666666"
     borderopacity="1"
     objecttolerance="10"
     gridtolerance="10"
     guidetolerance="10"
     inkscape:pageopacity="0"
     inkscape:pageshadow="2"
     inkscape:window-width="1680"
     inkscape:window-height="995"
     id="namedview85"
     showgrid="false"
     inkscape:zoom="3.6875"
     inkscape:cx="32"
     inkscape:cy="32"
     inkscape:window-x="0"
     inkscape:window-y="28"
     inkscape:window-maximized="1"
     inkscape:current-layer="svg2" /><defs
     id="defs4"><style
       type="text/css"
       id="style6"><![CDATA[
    .fil14 {fill:#B0E2FC}
    .fil11 {fill:white;fill-rule:nonzero}
    .fil0 {fill:black;fill-opacity:0.000000}
    .fil17 {fill:#9E9E9E;fill-opacity:0.000000}
    .fil18 {fill:#9E9E9E;fill-opacity:0.007843}
    .fil1 {fill:black;fill-opacity:0.011765}
    .fil19 {fill:#9E9E9E;fill-opacity:0.019608}
    .fil2 {fill:black;fill-opacity:0.027451}
    .fil20 {fill:#9E9E9E;fill-opacity:0.027451}
    .fil21 {fill:#9E9E9E;fill-opacity:0.035294}
    .fil3 {fill:black;fill-opacity:0.039216}
    .fil22 {fill:#9E9E9E;fill-opacity:0.047059}
    .fil4 {fill:black;fill-opacity:0.054902}
    .fil23 {fill:#9E9E9E;fill-opacity:0.054902}
    .fil24 {fill:#9E9E9E;fill-opacity:0.062745}
    .fil5 {fill:black;fill-opacity:0.066667}
    .fil25 {fill:#9E9E9E;fill-opacity:0.074510}
    .fil6 {fill:black;fill-opacity:0.078431}
    .fil26 {fill:#9E9E9E;fill-opacity:0.082353}
    .fil27 {fill:#9E9E9E;fill-opacity:0.094118}
    .fil7 {fill:black;fill-opacity:0.094118}
    .fil28 {fill:#9E9E9E;fill-opacity:0.101961}
    .fil8 {fill:black;fill-opacity:0.105882}
    .fil29 {fill:#9E9E9E;fill-opacity:0.109804}
    .fil9 {fill:black;fill-opacity:0.121569}
    .fil30 {fill:#9E9E9E;fill-opacity:0.121569}
    .fil13 {fill:url(#id0)}
    .fil10 {fill:url(#id1)}
    .fil16 {fill:url(#id2);fill-rule:nonzero}
    .fil12 {fill:url(#id3);fill-rule:nonzero}
    .fil15 {fill:url(#id4);fill-rule:nonzero;fill-opacity:0.501961}
   ]]></style><linearGradient
       id="id0"
       gradientUnits="userSpaceOnUse"
       x1="32.0402"
       y1="29.6956"
       x2="32.0402"
       y2="61.4937"><stop
         offset="0"
         style="stop-color:#5589C4"
         id="stop9" /><stop
         offset="0.258824"
         style="stop-color:#5795C9"
         id="stop11" /><stop
         offset="0.419608"
         style="stop-color:#649FCF"
         id="stop13" /><stop
         offset="0.901961"
         style="stop-color:#9FCFF5"
         id="stop15" /><stop
         offset="1"
         style="stop-color:#649DCF"
         id="stop17" /></linearGradient><linearGradient
       id="id1"
       gradientUnits="userSpaceOnUse"
       x1="31.7732"
       y1="20.7168"
       x2="32.0165"
       y2="36.0465"><stop
         offset="0"
         style="stop-color:#E8E8E8"
         id="stop20" /><stop
         offset="1"
         style="stop-color:#D6D6D6"
         id="stop22" /></linearGradient><linearGradient
       id="id2"
       gradientUnits="userSpaceOnUse"
       x1="31.4331"
       y1="31.8358"
       x2="32.6473"
       y2="59.3606"><stop
         offset="0"
         style="stop-color:#4E87B4"
         id="stop25" /><stop
         offset="1"
         style="stop-color:#517EA3"
         id="stop27" /></linearGradient><linearGradient
       id="id3"
       gradientUnits="userSpaceOnUse"
       x1="31.8417"
       y1="32.0213"
       x2="31.948"
       y2="24.5353"><stop
         offset="0"
         style="stop-color:#A2A2A2"
         id="stop30" /><stop
         offset="1"
         style="stop-color:#B3B3B3"
         id="stop32" /></linearGradient><linearGradient
       id="id4"
       gradientUnits="userSpaceOnUse"
       x1="14.1415"
       y1="60.6515"
       x2="14.1179"
       y2="59.3688"><stop
         offset="0"
         style="stop-color:#A8D8FF"
         id="stop35" /><stop
         offset="1"
         style="stop-color:#71ACE1"
         id="stop37" /></linearGradient></defs><g
     id="Слой_x0020_1"><metadata
       id="CorelCorpID_0Corel-Layer" /><g
       id="_310715976"><path
         id="_310705320"
         class="fil0"
         d="M30.4008 53.7881c12.6391,0 27.957,3.95556 32.9543,6.77843 1.15159,0.650795 0.686229,2.86185 0.686229,3.1087 0,0.0118112 -0.0555125,0.0224412 -0.150002,0.0342524l-63.3067 0c-0.216144,-0.0153545 -0.337799,-0.0318902 -0.337799,-0.0484258 0.0744104,0.177168 -0.524416,-1.33112 0.646071,-2.16735 4.45517,-3.18783 17.4758,-7.70561 29.5078,-7.70561z" /><g
         id="g43"><path
           id="_310708536"
           class="fil1"
           d="M30.5531 54.3963c12.384,0 27.4834,3.58351 32.4287,6.22567 1.17167,0.616543 0.74056,2.6835 0.74056,2.93744 0,0.0578747 -1.17639,0.108663 -3.19728,0.150002l-56.1243 0c-2.26302,-0.0413391 -3.59532,-0.0921271 -3.59532,-0.150002 0,-0.302366 -0.651977,-1.29569 0.705127,-2.10003 4.56856,-2.73192 17.2337,-7.06308 29.0425,-7.06308z" /><path
           id="_310715112"
           class="fil2"
           d="M30.7043 55.0034c12.1289,0 26.7062,3.22681 31.6008,5.68944 1.19057,0.583472 0.794892,2.50633 0.794892,2.76499 0,0.118112 -4.6784,0.20079 -11.4545,0.251578l-37.7591 0c-7.33001,-0.0519691 -12.4915,-0.135828 -12.4915,-0.251578 0,-0.304728 -0.640165,-1.27915 0.733474,-2.03152 4.55439,-2.53586 16.9892,-6.42291 28.5759,-6.42291z" /><path
           id="_310709208"
           class="fil3"
           d="M30.8555 55.6129c11.8738,0 25.9302,2.87011 30.7728,5.15085 1.20946,0.5504 0.849223,2.32916 0.849223,2.59255 0,0.429927 -60.4921,0.400399 -60.4921,0 0,-0.308272 -0.630716,-1.26261 0.759458,-1.96302 4.54139,-2.33979 16.7459,-5.78039 28.1106,-5.78039z" /><path
           id="_310709160"
           class="fil4"
           d="M31.0079 56.2212c11.6186,0 25.1531,2.51342 29.9437,4.61344 1.22954,0.517329 0.903554,2.15199 0.903554,2.42129 0,0.429927 -59.2791,0.400399 -59.2791,0 0,-0.311815 -0.618905,-1.24726 0.785443,-1.89569 4.5284,-2.14373 16.5037,-5.13904 27.6464,-5.13904z" /><path
           id="_310710528"
           class="fil5"
           d="M31.1579 56.8283c11.3635,0 24.3759,2.15672 29.1145,4.07722 1.24962,0.481896 0.959067,1.97247 0.959067,2.24767 0,0.428745 -58.0672,0.400399 -58.0672,0 0,-0.315358 -0.608275,-1.2319 0.81379,-1.82837 4.51305,-1.94766 16.2593,-4.49651 27.1799,-4.49651z" /><path
           id="_310711776"
           class="fil6"
           d="M31.309 57.4365c11.1084,0 23.5987,1.8012 28.2866,3.53981 1.26852,0.448824 1.0134,1.7953 1.0134,2.0764 0,0.428745 -56.8542,0.400399 -56.8542,0 0,-0.318902 -0.596464,-1.21537 0.839774,-1.75986 4.50006,-1.75278 16.0171,-3.85635 26.7145,-3.85635z" /><path
           id="_310691016"
           class="fil7"
           d="M31.4602 58.0448c10.8545,0 22.8227,1.44451 27.4586,3.0024 1.28742,0.415753 1.06655,1.61813 1.06655,1.90396 0,0.429927 -55.6412,0.400399 -55.6412,0 0,-0.322445 -0.585834,-1.20001 0.86694,-1.69136 4.48588,-1.55671 15.7738,-3.215 26.2491,-3.215z" /><path
           id="_310686768"
           class="fil8"
           d="M31.6114 58.6519c10.5993,0 22.0455,1.08899 26.6306,2.46617 1.30632,0.382682 1.12088,1.43978 1.12088,1.73152 0,0.429927 -54.4294,0.400399 -54.4294,0 0,-0.324807 -0.574023,-1.18348 0.895287,-1.62404 4.47171,-1.35947 15.5293,-2.57365 25.7826,-2.57365z" /></g><path
         id="_310693488"
         class="fil9"
         d="M31.7626 59.2614c10.3442,0 21.2696,0.732292 25.8027,1.92758 1.32521,0.349611 1.17521,1.26261 1.17521,1.56026 0,0.429927 -53.2176,0.400399 -53.2176,0 0,-0.329532 -0.563393,-1.16812 0.921271,-1.55553 4.45872,-1.16458 15.2872,-1.93231 25.3184,-1.93231z" /></g><path
       class="fil10"
       d="M57.7767 15.6049c0.940169,0.233861 1.64175,1.0949 1.64175,2.10475l0 26.3236c0,1.19057 -0.976784,2.16735 -2.16735,2.16735l-5.34337 0 -27.2484 -0.0425202 -5.92803 0.0248035 -6.8493 0 -5.34337 0 -0.131104 0 0 -0.00472447c-1.13151,-0.0685048 -2.03625,-1.01576 -2.03625,-2.16263l0.0248035 -26.2456c0,-1.19293 0.975603,-2.17444 2.16735,-2.16735l2.76618 -0.281106c1.00277,-0.225593 1.85081,-1.14332 2.59728,-2.76027 0.442919,-0.961429 0.825601,-1.79648 1.73979,-1.97247l16.3797 -0.0248035c0.913003,0.175986 1.29569,1.01104 1.7386,1.97247 0.903554,1.95711 1.95711,2.93508 3.21146,3.02366l0 0.00236223 0.0484258 0c0.53977,0.0342524 1.11734,0.00354335 1.73624,0l0.201971 0 20.7936 0.0425202z"
       id="path54" /><path
       class="fil11"
       d="M57.7814 16.1282c0.530321,0.131104 0.990957,0.441738 1.31813,0.859853 0.320083,0.41221 0.513786,0.929539 0.513786,1.48703l0 2.60318 -0.050788 0 0 0.405123 -0.498431 0 0 -2.60318c0,-0.4441 -0.152364,-0.855129 -0.406304,-1.1823 -0.25394,-0.323626 -0.608275,-0.564574 -1.01104,-0.674418l-20.7688 -0.0425202 -0.201971 0 0 0 -0.548038 0.0070867c-0.414572,0.00826782 -0.811427,0.0165356 -1.18702,-0.0070867l-0.050788 0 -0.248035 0 0 -0.0248035c-0.578747,-0.0637803 -1.1197,-0.448824 -1.62758,-0.799616 -0.568117,-0.394493 -1.08781,-1.32521 -1.55907,-2.34806l-0.00118112 -0.00354335 -0.00354335 -0.00826782 0 0.00236223c-0.408666,-0.885838 -0.664969,-1.65474 -1.43151,-1.81538l-16.3348 0.0248035c-0.768907,0.160632 -1.22482,0.929539 -1.6323,1.81538l-0.00118112 -0.00236223 -0.00354335 0.00826782 0 0.00354335c-0.388587,0.842136 -0.788986,1.73388 -1.25198,2.14018 -0.472447,0.41221 -0.976784,0.936626 -1.51537,1.0571l-0.0271657 0.0070867 -0.0283468 0 -2.76618 -0.0188979 0 0.00236223 -0.0129923 0c-0.522054,0 -0.998044,0.213782 -1.34293,0.558668 -0.248035,0.249216 -0.428745,0.565755 -0.512605,0.917728l0 0.0236223 0.00118112 0 0 0.0129923 0 2.20042 -0.050788 0 0 0.405123 -0.498431 0 0 -2.20042 0 -0.0129923 0.00118112 -0.00236223c0.00118112,-0.167719 0.0188979,-0.330713 0.0531503,-0.488982 0.0248035,-0.624811 0.291736,-1.19411 0.707489,-1.60986 0.434651,-0.435832 1.03466,-0.707489 1.69254,-0.707489l0.0129923 0 0.00236223 0.00118112 2.73665 -0.279925c0.452368,-0.105119 0.87757,-0.300004 1.27206,-0.64489 0.409848,-0.360241 0.770088,-1.19883 1.12797,-1.97365l0 0.00236223 0.00236223 -0.00826782 0.00118112 -0.00354335c0.471266,-1.0193 0.92009,-2.24885 1.95475,-2.44846l0.0283468 -0.00590558 0.0177168 0 16.4211 0.0779537 0.020079 0 -0.0543314 0.250397c1.03348,0.199609 1.44332,1.08427 1.91341,2.10121l0 0.00354335 0.00236223 0.00826782 0.00118112 -0.00236223c0.432289,0.934263 0.892924,1.73624 1.39017,2.08113 0.48662,0.336618 1.02521,0.758277 1.61222,0.799616l0.0248035 0.00118112 0.00826782 0 0.0129923 0.00236223c0.372052,0.0224412 0.76182,0.0141734 1.16694,0.00826782l0 0 0.552763 -0.00826782 0.00236223 -0.00236223 0.201971 0 20.7936 0.0425202 0.0259846 0 0.0330713 0.00826782z"
       id="path56" /><path
       class="fil12"
       d="M57.896 15.0179c0.585834,0.145277 1.09962,0.488982 1.4575,0.949618l-0.00118112 0c0.354335,0.453549 0.566936,1.02639 0.566936,1.64057l0 26.3212c0,0.731111 -0.300004,1.39962 -0.784262,1.88388 -0.481896,0.481896 -1.15041,0.784262 -1.8827,0.784262l-5.34455 0 -27.2484 -0.0425202 -5.92684 0.0248035 -6.85048 0 -5.34337 0 -0.131104 0 -0.500794 0 0 -0.0767726c-0.509061,-0.125198 -0.961429,-0.396855 -1.30868,-0.765364 -0.450006,-0.477171 -0.727568,-1.12324 -0.727568,-1.82601l0.0248035 -26.2444 0 -0.0153545 0.00236223 -0.00236223c0.00354335,-0.726387 0.304728,-1.39017 0.781899,-1.86853l0 -0.00118112c0.478352,-0.478352 1.13978,-0.779537 1.86853,-0.778356l0 -0.00236223 0.0153545 0 0.00236223 0.00236223c1.23072,-0.12638 2.85476,0.00472447 3.84217,-0.863396 1.22009,-1.07009 1.23663,-3.77013 3.16539,-4.14218l0.0933082 -0.0106301 16.3797 -0.0248035 0.0933082 0.0106301c1.16104,0.223231 1.59451,1.15986 2.09294,2.23585l0.00590558 0.0141734 0.00118112 0.00236223c0.887019,1.92522 2.08585,2.77917 3.97918,2.7461l0.00354335 0 0.551582 -0.00826782 0.00590558 -0.00236223 0.203152 0 20.7936 0.0425202 0.119293 0.0165356zm0.668512 1.5638c-0.21142,-0.272838 -0.50788,-0.479533 -0.844499,-0.578747l-20.7369 -0.0425202 -0.203152 0 0 -0.00236223 -0.542133 0.00826782 -0.00354335 0c-2.1768,0.0425202 -3.83863,-1.01576 -4.90164,-3.32484l-0.00590558 -0.0141734 -0.00118112 -0.00236223c-0.374414,-0.806703 -0.700402,-1.51065 -1.32167,-1.66301l-16.2911 0.0248035c-1.00985,0.24331 -1.73624,3.10043 -2.64806,3.90241 -1.44687,1.27088 -2.62917,1.12088 -4.50124,1.10907l0 0.00236223 -0.0153545 0 0 -0.00236223c-0.448824,0 -0.863396,0.188979 -1.16222,0.487801l-0.00118112 -0.00118112c-0.300004,0.300004 -0.48662,0.715757 -0.490164,1.16694l0.00236223 0 0 0.0153545 -0.0248035 26.2444c0,0.439375 0.173624,0.843317 0.453549,1.14096 0.282287,0.301185 0.67678,0.499612 1.11143,0.525597l0.101576 0 5.34337 0 6.85048 0 5.92684 -0.0248035 27.2484 0.0425202 5.34455 0c0.458273,0 0.876389,-0.188979 1.17639,-0.488982 0.301185,-0.301185 0.488982,-0.7193 0.488982,-1.17757l0 -26.3212c0,-0.386225 -0.132285,-0.745285 -0.351973,-1.02639l-0.00118112 0z"
       id="path58" /><path
       class="fil13"
       d="M3.00122 29.4299c-1.04529,0.210239 -2.73665,0.999225 -2.43901,3.06854 1.42325,9.87532 3.68036,15.6911 3.83391,25.8086 0,0 -0.279925,3.5091 4.63825,3.27524 3.6839,-0.174805 12.4702,-0.151183 17.6506,-0.129923l0 0.0153545 1.67246 -0.0070867 0.0236223 0 1.14805 0.0070867 0 -0.0106301c6.80323,-0.0224412 21.4692,-0.0578747 25.3763,0.127561 4.91817,0.233861 4.63825,-3.27642 4.63825,-3.27642 0.722844,-8.43436 0.884657,-15.5128 3.97446,-25.8074 0.298823,-2.06932 -1.49293,-2.91854 -2.53704,-3.12996l-57.9798 0.0590558z"
       id="path60" /><path
       class="fil14"
       d="M0.631898 31.2961c-0.102757,0.342524 -0.135828,0.74056 -0.0696859,1.20238 1.42325,9.87532 3.68036,15.6911 3.83391,25.8086 0,0 -0.0814971,1.01812 0.614181,1.92168 -0.145277,-0.450006 -0.118112,-0.803159 -0.118112,-0.805522l0.00236223 -0.060237c-0.0980327,-6.54457 -1.07009,-11.2891 -2.12837,-16.4719 -0.585834,-2.86303 -1.20001,-5.86543 -1.70908,-9.40169 -0.0992138,-0.69804 0.070867,-1.21301 0.362603,-1.58033 0.424021,-0.533865 1.11734,-0.807884 1.64057,-0.918909l57.8688 -0.0590558c0.526778,0.113387 1.2508,0.409848 1.70435,0.968516 0.302366,0.372052 0.483077,0.882294 0.394493,1.55907 -2.6457,8.82885 -3.15122,15.2978 -3.69217,22.2688 -0.0897649,1.15631 -0.181892,2.32798 -0.290555,3.60123l0.00236223 0.0956705c0,0.00236223 0.0271657,0.354335 -0.118112,0.806703 0.695678,-0.903554 0.614181,-1.92286 0.614181,-1.92286 0.722844,-8.43436 0.884657,-15.5128 3.97446,-25.8074 0.0649614,-0.450006 0.030709,-0.843317 -0.0720481,-1.18348l-0.0377957 -0.0460636c-0.640165,-0.790167 -1.63348,-1.1882 -2.32916,-1.32758l-0.0980327 -0.00944894 -57.9798 0.0590558 -0.0980327 0.00826782c-0.695678,0.139372 -1.6512,0.512605 -2.26538,1.28624l-0.00590558 0.00826782z"
       id="path62" /><path
       class="fil15"
       d="M59.1279 59.3074l0.259846 0c-0.595283,1.00277 -1.76577,1.89687 -4.06068,1.75868 -1.83664,-0.111025 -6.73473,-0.157089 -11.9659,-0.1689 -5.08825,-0.0141734 -9.58949,0.00236223 -12.8281,0.0153545l0 0.0153545 -0.292917 -0.00118112 -1.07836 -0.0106301 0 0.00236223 -0.0212601 0 0 -0.00236223 -1.57443 0.0106301 -0.291736 0.00118112 0 -0.0212601c-2.43546,-0.0118112 -6.03551,-0.0236223 -9.47256,-0.00944894 -3.56697,0.0165356 -7.07607,0.0614181 -8.80995,0.166537 -2.29255,0.13701 -3.46303,-0.755915 -4.05832,-1.75632l0.259846 0c-0.0980327,-0.121655 -0.183073,-0.249216 -0.259846,-0.377957l0.747647 0c0.572842,0.696859 1.56498,1.24726 3.27996,1.1445 1.73034,-0.105119 5.25361,-0.148821 8.8383,-0.166537 3.57642,-0.0153545 7.33355,-0.00118112 9.76666,0.00944894l0.290555 0.00354335 0 0.0129923 1.28151 -0.0070867 0.00236223 0 0.0212601 0 0.00118112 0 0.788986 0.0070867 0 -0.00944894 0.289374 0c3.19846,-0.0129923 7.87569,-0.030709 13.1198,-0.0177168 5.25006,0.0141734 10.1611,0.0590558 11.9978,0.1689 1.71853,0.103938 2.71066,-0.446462 3.2835,-1.14568l0.745285 0c-0.0767726,0.128742 -0.162994,0.255121 -0.259846,0.377957z"
       id="path64" /><path
       class="fil16"
       d="M3.06027 29.9283c-0.523235,0.111025 -1.21655,0.385044 -1.64057,0.918909 -0.291736,0.367327 -0.461817,0.882294 -0.362603,1.58033 0.509061,3.53626 1.12324,6.53866 1.70908,9.40169 1.05828,5.18274 2.03034,9.92729 2.12837,16.4719l-0.00236223 0.060237c0,0.0070867 -0.225593,2.92799 4.11855,2.72247 1.84018,-0.0862215 4.96896,-0.125198 8.28554,-0.138191 8.67767,-0.0330713 17.3152,-0.0188979 26.007,-0.00118112 5.01738,0.0118112 9.67335,0.050788 11.6257,0.141734 4.34533,0.205514 4.11855,-2.71657 4.11855,-2.72366l-0.00236223 -0.0956705c0.108663,-1.27324 0.20079,-2.44491 0.290555,-3.60123 0.540952,-6.97095 1.04647,-13.4399 3.69217,-22.2688 0.0885838,-0.67678 -0.0921271,-1.18702 -0.394493,-1.55907 -0.453549,-0.558668 -1.17757,-0.855129 -1.70435,-0.968516l-57.8688 0.0590558zm-2.42247 0.297641c0.614181,-0.773632 1.5697,-1.14686 2.26538,-1.28624l0.0980327 -0.00826782 57.9798 -0.0590558 0.0980327 0.00944894c0.695678,0.139372 1.689,0.537408 2.32916,1.32758 0.468903,0.576385 0.750009,1.35238 0.604732,2.36223l-0.0165356 0.0720481c-2.62444,8.74381 -3.12524,15.1691 -3.66382,22.0952 -0.0933082,1.2012 -0.188979,2.42365 -0.289374,3.5965 0.0118112,0.574023 -0.12638,3.98745 -5.16148,3.74768 -1.95357,-0.0921271 -6.58827,-0.131104 -11.5785,-0.141734 -8.70011,-0.0188979 -17.3223,-0.0283468 -26.0023,0.00118112 -3.29059,0.0118112 -6.40047,0.050788 -8.24301,0.138191 -5.13432,0.244491 -5.17684,-3.30949 -5.1603,-3.77721 -0.0980327,-6.43827 -1.05946,-11.1391 -2.10947,-16.2758 -0.59174,-2.89256 -1.21301,-5.92566 -1.72089,-9.45838 -0.144096,-1.01222 0.120474,-1.77758 0.570479,-2.34334z"
       id="path66" /><g
       id="_110314832"><polygon
         id="_110317088"
         class="fil17"
         points="4.6288,22.3113 59.8035,22.3113 59.8035,29.6531 4.6288,29.7075 " /><g
         id="g70"><path
           id="_110309312"
           class="fil18"
           d="M4.6288 22.805c18.3924,0 36.7823,0 55.1747,0l0 6.84812 -55.1747 0.0543314 0 -6.90245z" /><path
           id="_110303624"
           class="fil19"
           d="M4.6288 23.2999c18.3924,0 36.7823,0 55.1747,0l0 6.35323 -55.1747 0.0543314 0 -6.40756z" /><path
           id="_110315144"
           class="fil20"
           d="M4.6288 23.7948c18.3924,0 36.7823,0 55.1747,0l0 5.85834 -55.1747 0.0543314 0 -5.91267z" /><path
           id="_110314952"
           class="fil21"
           d="M4.6288 24.2897c18.3924,0 36.7823,0 55.1747,0l0 5.36345 -55.1747 0.0543314 0 -5.41778z" /><path
           id="_110309768"
           class="fil22"
           d="M4.6288 24.7846c18.3924,0 36.7823,0 55.1747,0l0 4.86856 -55.1747 0.0543314 0 -4.9229z" /><path
           id="_110320928"
           class="fil23"
           d="M4.6288 25.2783c18.3924,0 36.7823,0 55.1747,0l0 4.37486 -55.1747 0.0543314 0 -4.42919z" /><path
           id="_110297744"
           class="fil24"
           d="M4.6288 25.7732c18.3924,0 36.7823,0 55.1747,0l0 3.87997 -55.1747 0.0543314 0 -3.9343z" /><path
           id="_110303864"
           class="fil25"
           d="M4.6288 26.268c18.3924,0 36.7823,0 55.1747,0l0 3.38508 -55.1747 0.0543314 0 -3.43941z" /><path
           id="_110307248"
           class="fil26"
           d="M4.6288 26.7617c18.3924,0 36.7823,0 55.1747,0l0 2.89137 -55.1747 0.0543314 0 -2.94571z" /><path
           id="_110322824"
           class="fil27"
           d="M4.6288 27.2566c18.3924,0 36.7823,0 55.1747,0l0 2.39649 -55.1747 0.0543314 0 -2.45082z" /><path
           id="_110324144"
           class="fil28"
           d="M4.6288 27.7515c18.3924,0 36.7823,0 55.1747,0l0 1.9016 -55.1747 0.0543314 0 -1.95593z" /><path
           id="_110298200"
           class="fil29"
           d="M4.6288 28.2452c18.3924,0 36.7823,0 55.1747,0l0 1.40789 -55.1747 0.0543314 0 -1.46222z" /></g><polygon
         id="_110308520"
         class="fil30"
         points="4.6288,28.7413 59.8035,28.7413 59.8035,29.6531 4.6288,29.7075 " /></g></g></svg>