<?xml version="1.0" encoding="UTF-8" standalone="no"?>
<!-- Creator: CorelDRAW -->

<svg
   xmlns:dc="http://purl.org/dc/elements/1.1/"
   xmlns:cc="http://creativecommons.org/ns#"
   xmlns:rdf="http://www.w3.org/1999/02/22-rdf-syntax-ns#"
   xmlns:svg="http://www.w3.org/2000/svg"
   xmlns="http://www.w3.org/2000/svg"
   xmlns:sodipodi="http://sodipodi.sourceforge.net/DTD/sodipodi-0.dtd"
   xmlns:inkscape="http://www.inkscape.org/namespaces/inkscape"
   xml:space="preserve"
   width="32px"
   height="32px"
   style="shape-rendering:geometricPrecision; text-rendering:geometricPrecision; image-rendering:optimizeQuality; fill-rule:evenodd; clip-rule:evenodd"
   viewBox="0 0 32 32"
   id="svg2"
   version="1.1"
   inkscape:version="0.91 r13725"
   sodipodi:docname="amarok.svg"><metadata
     id="metadata167"><rdf:RDF><cc:Work
         rdf:about=""><dc:format>image/svg+xml</dc:format><dc:type
           rdf:resource="http://purl.org/dc/dcmitype/StillImage" /></cc:Work></rdf:RDF></metadata><sodipodi:namedview
     pagecolor="#ffffff"
     bordercolor="#666666"
     borderopacity="1"
     objecttolerance="10"
     gridtolerance="10"
     guidetolerance="10"
     inkscape:pageopacity="0"
     inkscape:pageshadow="2"
     inkscape:window-width="640"
     inkscape:window-height="480"
     id="namedview165"
     showgrid="false"
     inkscape:zoom="7.375"
     inkscape:cx="16"
     inkscape:cy="16"
     inkscape:window-x="0"
     inkscape:window-y="28"
     inkscape:window-maximized="0"
     inkscape:current-layer="svg2" /><defs
     id="defs4"><style
       type="text/css"
       id="style6"><![CDATA[
    .fil124 {fill:none}
    .fil122 {fill:white}
    .fil14 {fill:#BCE6FF}
    .fil126 {fill:#4E87B4;fill-rule:nonzero}
    .fil0 {fill:black;fill-opacity:0.000000}
    .fil80 {fill:#A3EFF7;fill-opacity:0.000000}
    .fil1 {fill:black;fill-opacity:0.003922}
    .fil2 {fill:black;fill-opacity:0.007843}
    .fil113 {fill:#A3EFF7;fill-opacity:0.011765}
    .fil3 {fill:black;fill-opacity:0.015686}
    .fil79 {fill:#64A4DB;fill-opacity:0.015686}
    .fil112 {fill:#88C8E8;fill-opacity:0.015686}
    .fil47 {fill:#B8E7FF;fill-opacity:0.015686}
    .fil4 {fill:black;fill-opacity:0.019608}
    .fil5 {fill:black;fill-opacity:0.023529}
    .fil114 {fill:#A3EFF7;fill-opacity:0.027451}
    .fil6 {fill:black;fill-opacity:0.027451}
    .fil78 {fill:#64A4DB;fill-opacity:0.031373}
    .fil111 {fill:#88C8E8;fill-opacity:0.031373}
    .fil46 {fill:#B8E7FF;fill-opacity:0.031373}
    .fil7 {fill:black;fill-opacity:0.031373}
    .fil8 {fill:black;fill-opacity:0.035294}
    .fil115 {fill:#A3EFF7;fill-opacity:0.039216}
    .fil9 {fill:black;fill-opacity:0.043137}
    .fil77 {fill:#64A4DB;fill-opacity:0.047059}
    .fil110 {fill:#88C8E8;fill-opacity:0.047059}
    .fil45 {fill:#B8E7FF;fill-opacity:0.047059}
    .fil10 {fill:black;fill-opacity:0.047059}
    .fil11 {fill:black;fill-opacity:0.050980}
    .fil116 {fill:#A3EFF7;fill-opacity:0.054902}
    .fil12 {fill:black;fill-opacity:0.054902}
    .fil13 {fill:black;fill-opacity:0.058824}
    .fil76 {fill:#64A4DB;fill-opacity:0.058824}
    .fil109 {fill:#88C8E8;fill-opacity:0.058824}
    .fil44 {fill:#B8E7FF;fill-opacity:0.058824}
    .fil117 {fill:#A3EFF7;fill-opacity:0.066667}
    .fil75 {fill:#64A4DB;fill-opacity:0.074510}
    .fil108 {fill:#88C8E8;fill-opacity:0.074510}
    .fil43 {fill:#B8E7FF;fill-opacity:0.074510}
    .fil118 {fill:#A3EFF7;fill-opacity:0.078431}
    .fil74 {fill:#64A4DB;fill-opacity:0.090196}
    .fil107 {fill:#88C8E8;fill-opacity:0.090196}
    .fil42 {fill:#B8E7FF;fill-opacity:0.090196}
    .fil119 {fill:#A3EFF7;fill-opacity:0.094118}
    .fil73 {fill:#64A4DB;fill-opacity:0.105882}
    .fil106 {fill:#88C8E8;fill-opacity:0.105882}
    .fil41 {fill:#B8E7FF;fill-opacity:0.105882}
    .fil120 {fill:#A3EFF7;fill-opacity:0.105882}
    .fil121 {fill:#A3EFF7;fill-opacity:0.121569}
    .fil72 {fill:#64A4DB;fill-opacity:0.121569}
    .fil105 {fill:#88C8E8;fill-opacity:0.121569}
    .fil40 {fill:#B8E7FF;fill-opacity:0.121569}
    .fil71 {fill:#64A4DB;fill-opacity:0.137255}
    .fil104 {fill:#88C8E8;fill-opacity:0.137255}
    .fil39 {fill:#B8E7FF;fill-opacity:0.137255}
    .fil70 {fill:#64A4DB;fill-opacity:0.152941}
    .fil103 {fill:#88C8E8;fill-opacity:0.152941}
    .fil38 {fill:#B8E7FF;fill-opacity:0.152941}
    .fil69 {fill:#64A4DB;fill-opacity:0.164706}
    .fil102 {fill:#88C8E8;fill-opacity:0.164706}
    .fil37 {fill:#B8E7FF;fill-opacity:0.164706}
    .fil68 {fill:#64A4DB;fill-opacity:0.180392}
    .fil101 {fill:#88C8E8;fill-opacity:0.180392}
    .fil36 {fill:#B8E7FF;fill-opacity:0.180392}
    .fil67 {fill:#64A4DB;fill-opacity:0.196078}
    .fil100 {fill:#88C8E8;fill-opacity:0.196078}
    .fil35 {fill:#B8E7FF;fill-opacity:0.196078}
    .fil66 {fill:#64A4DB;fill-opacity:0.211765}
    .fil99 {fill:#88C8E8;fill-opacity:0.211765}
    .fil34 {fill:#B8E7FF;fill-opacity:0.211765}
    .fil65 {fill:#64A4DB;fill-opacity:0.227451}
    .fil98 {fill:#88C8E8;fill-opacity:0.227451}
    .fil33 {fill:#B8E7FF;fill-opacity:0.227451}
    .fil64 {fill:#64A4DB;fill-opacity:0.243137}
    .fil97 {fill:#88C8E8;fill-opacity:0.243137}
    .fil32 {fill:#B8E7FF;fill-opacity:0.243137}
    .fil63 {fill:#64A4DB;fill-opacity:0.258824}
    .fil96 {fill:#88C8E8;fill-opacity:0.258824}
    .fil31 {fill:#B8E7FF;fill-opacity:0.258824}
    .fil62 {fill:#64A4DB;fill-opacity:0.274510}
    .fil95 {fill:#88C8E8;fill-opacity:0.274510}
    .fil30 {fill:#B8E7FF;fill-opacity:0.274510}
    .fil61 {fill:#64A4DB;fill-opacity:0.286275}
    .fil94 {fill:#88C8E8;fill-opacity:0.286275}
    .fil29 {fill:#B8E7FF;fill-opacity:0.286275}
    .fil60 {fill:#64A4DB;fill-opacity:0.301961}
    .fil93 {fill:#88C8E8;fill-opacity:0.301961}
    .fil28 {fill:#B8E7FF;fill-opacity:0.301961}
    .fil59 {fill:#64A4DB;fill-opacity:0.317647}
    .fil92 {fill:#88C8E8;fill-opacity:0.317647}
    .fil27 {fill:#B8E7FF;fill-opacity:0.317647}
    .fil58 {fill:#64A4DB;fill-opacity:0.333333}
    .fil91 {fill:#88C8E8;fill-opacity:0.333333}
    .fil26 {fill:#B8E7FF;fill-opacity:0.333333}
    .fil57 {fill:#64A4DB;fill-opacity:0.349020}
    .fil90 {fill:#88C8E8;fill-opacity:0.349020}
    .fil25 {fill:#B8E7FF;fill-opacity:0.349020}
    .fil56 {fill:#64A4DB;fill-opacity:0.364706}
    .fil89 {fill:#88C8E8;fill-opacity:0.364706}
    .fil24 {fill:#B8E7FF;fill-opacity:0.364706}
    .fil55 {fill:#64A4DB;fill-opacity:0.380392}
    .fil88 {fill:#88C8E8;fill-opacity:0.380392}
    .fil23 {fill:#B8E7FF;fill-opacity:0.380392}
    .fil54 {fill:#64A4DB;fill-opacity:0.392157}
    .fil87 {fill:#88C8E8;fill-opacity:0.392157}
    .fil22 {fill:#B8E7FF;fill-opacity:0.392157}
    .fil53 {fill:#64A4DB;fill-opacity:0.407843}
    .fil86 {fill:#88C8E8;fill-opacity:0.407843}
    .fil21 {fill:#B8E7FF;fill-opacity:0.407843}
    .fil52 {fill:#64A4DB;fill-opacity:0.423529}
    .fil85 {fill:#88C8E8;fill-opacity:0.423529}
    .fil20 {fill:#B8E7FF;fill-opacity:0.423529}
    .fil51 {fill:#64A4DB;fill-opacity:0.439216}
    .fil84 {fill:#88C8E8;fill-opacity:0.439216}
    .fil19 {fill:#B8E7FF;fill-opacity:0.439216}
    .fil50 {fill:#64A4DB;fill-opacity:0.454902}
    .fil83 {fill:#88C8E8;fill-opacity:0.454902}
    .fil18 {fill:#B8E7FF;fill-opacity:0.454902}
    .fil49 {fill:#64A4DB;fill-opacity:0.470588}
    .fil82 {fill:#88C8E8;fill-opacity:0.470588}
    .fil17 {fill:#B8E7FF;fill-opacity:0.470588}
    .fil48 {fill:#64A4DB;fill-opacity:0.486275}
    .fil81 {fill:#88C8E8;fill-opacity:0.486275}
    .fil16 {fill:#B8E7FF;fill-opacity:0.486275}
    .fil125 {fill:#D1CFCF;fill-rule:nonzero;fill-opacity:0.501961}
    .fil15 {fill:url(#id0)}
    .fil123 {fill:url(#id1);fill-rule:nonzero;fill-opacity:0.439216}
   ]]></style><linearGradient
       id="id0"
       gradientUnits="userSpaceOnUse"
       x1="16.404"
       y1="11.9356"
       x2="16.1559"
       y2="23.6374"><stop
         offset="0"
         style="stop-color:#5CA2DA"
         id="stop9" /><stop
         offset="1"
         style="stop-color:#8DC8F4"
         id="stop11" /></linearGradient><linearGradient
       id="id1"
       gradientUnits="userSpaceOnUse"
       x1="11.2624"
       y1="10.8773"
       x2="11.0545"
       y2="29.7475"><stop
         offset="0"
         style="stop-color:#88C8E8"
         id="stop14" /><stop
         offset="1"
         style="stop-color:#CCEDFF"
         id="stop16" /></linearGradient></defs><g
     id="Слой_x0020_1"><metadata
       id="CorelCorpID_0Corel-Layer" /><g
       id="_85169352"><path
         id="_85485424"
         class="fil0"
         d="M15.322 27.0285c11.0627,-0.442935 15.211,0.668537 16.6874,2.04459l0 2.41902c-2.1946,0.772479 -8.85162,0.10158 -16.1146,0.372066l-2.32216 0.0850436 -12.0112 0c-0.644914,-0.0767754 -1.1599,-0.181899 -1.52015,-0.320094l0 -2.02097c1.20006,-1.08903 4.76244,-2.1568 15.2807,-2.57965z" /><g
         id="g22"><path
           id="_52094840"
           class="fil1"
           d="M15.3586 27.2624c11.1301,-0.428761 15.2724,0.757124 16.6508,2.14499l0 2.01506c-2.01624,0.800827 -8.76421,0.146464 -16.098,0.401595l-3.70412 0.125203 -9.99852 0c-0.985088,-0.0826812 -1.72686,-0.211428 -2.16743,-0.403957l0 -1.62173c1.06423,-1.10793 4.50613,-2.24302 15.3173,-2.66115z" /><path
           id="_81646328"
           class="fil2"
           d="M15.3929 27.4998c11.1903,-0.414587 15.361,0.850436 16.6166,2.23948l0 1.61347c-1.80245,0.832718 -8.66027,0.196073 -16.085,0.434667 -1.88513,0.0614203 -3.71475,0.119297 -5.42389,0.161819l-7.33619 0c-1.5237,-0.0744131 -2.621,-0.226783 -3.12299,-0.490182l0 -1.22132c0.908312,-1.11738 4.24863,-2.32689 15.3515,-2.73793z" /><path
           id="_112663712"
           class="fil3"
           d="M15.4283 27.7372c11.2458,-0.398051 15.4886,0.94611 16.5811,2.32452l0 1.21305c-1.5296,0.869334 -8.5268,0.250406 -16.0709,0.474827 -3.19504,0.095674 -6.24007,0.184261 -8.80319,0.199616l-1.55795 0c-2.90565,-0.022442 -4.95969,-0.177174 -5.5361,-0.59058l0 -0.805551c0.701609,-1.1162 3.95453,-2.41193 15.387,-2.81589z" /><path
           id="_81959128"
           class="fil4"
           d="M15.4626 27.9746c11.3403,-0.377971 15.7023,1.0595 16.5469,2.41665l0 0.789015c-1.14454,0.92603 -8.33545,0.323638 -16.0579,0.533885 -8.2067,0.223239 -15.4992,0.401595 -15.9102,-0.511442l0 -0.243319c0.256312,-1.11029 3.29308,-2.57965 15.4212,-2.98479z" /><path
           id="_85587760"
           class="fil5"
           d="M15.4968 28.2097c11.8211,-0.369703 16.2988,1.28628 16.5126,2.6269l0 0.154732c-0.268123,1.11265 -7.88543,0.484276 -16.0437,0.683892 -8.32954,0.204341 -15.798,0.361435 -15.798,-0.540972 0,-1.04887 3.26118,-2.54658 15.3291,-2.92455z" /><path
           id="_87081456"
           class="fil6"
           d="M15.5311 28.4447c11.4183,-0.329544 16.3012,1.27683 16.3366,2.51705 0.036616,1.06777 -7.67991,0.496087 -15.889,0.674443 -8.20907,0.178355 -15.6657,0.311826 -15.6657,-0.485457 0,-0.974457 3.79979,-2.37531 15.2181,-2.70604z" /><path
           id="_83361648"
           class="fil7"
           d="M15.5665 28.6845c10.7675,-0.283479 16.1205,1.19533 16.1512,2.32334 0.0307102,0.924849 -7.6362,0.439392 -15.7248,0.592943 -8.08977,0.153551 -15.5346,0.263399 -15.5346,-0.431124 0,-0.897682 4.3384,-2.20168 15.1082,-2.48516z" /><path
           id="_88328736"
           class="fil8"
           d="M15.6008 28.9195c10.119,-0.236232 15.9409,1.1162 15.9669,2.13081 0.0248044,0.781928 -7.5925,0.383877 -15.563,0.511442 -7.96811,0.127565 -15.4012,0.21379 -15.4012,-0.375609 0,-0.823269 4.87701,-2.03041 14.9972,-2.26665z" /><path
           id="_84678624"
           class="fil9"
           d="M15.635 29.1546c9.46936,-0.188986 15.7614,1.03706 15.7815,1.9371 0.0212609,0.64137 -7.54762,0.329544 -15.3976,0.431124 -7.84881,0.102761 -15.2689,0.164181 -15.2689,-0.321276 0,-0.747675 5.41444,-1.85797 14.885,-2.04695z" /><path
           id="_85143528"
           class="fil10"
           d="M15.6693 29.392c8.82091,-0.140558 15.5819,0.957921 15.5972,1.74457 0.0153551,0.49845 -7.50391,0.274029 -15.2346,0.350805 -7.72833,0.0755943 -15.1366,0.113391 -15.1366,-0.266942 0,-0.673261 5.95305,-1.6867 14.774,-1.82844z" /><path
           id="_112205344"
           class="fil11"
           d="M15.7047 29.6294c8.17009,-0.0944928 15.4012,0.876421 15.4118,1.55086 0.00944928,0.355529 -7.46021,0.217334 -15.0704,0.269305 -7.60904,0.0507899 -15.0055,0.0637827 -15.0055,-0.212609 0,-0.597667 6.49166,-1.51307 14.6641,-1.60756z" /><path
           id="_51947448"
           class="fil12"
           d="M15.739 29.8668c7.52163,-0.0472464 15.2216,0.797283 15.2263,1.35715 0.0059058,0.214971 -7.41533,0.163 -14.9062,0.188986 -7.48856,0.0248044 -14.872,0.0141739 -14.872,-0.157094 0,-0.523254 7.02909,-1.3418 14.5519,-1.38904z" /></g><path
         id="_82579120"
         class="fil13"
         d="M15.7709 30.1031c6.87317,0 15.0433,0.718146 15.0433,1.16462 0,0.145283 -29.4841,0.140558 -29.4841,0.00472464 0,-0.44766 7.5677,-1.16935 14.4409,-1.16935z" /></g><path
       class="fil14"
       d="M2.15798 3.77735l27.6203 0.0496087c0.96737,0 1.61701,0.454747 1.60283,1.57685l-0.0271667 2.12963 -30.6464 0 0 -2.12963c0,-0.892957 0.512624,-1.6737 1.45047,-1.62646z"
       id="path37" /><path
       class="fil15"
       d="M2.5017 4.80732l27.5553 0c0.843349,0 1.53315,0.693341 1.53315,1.53315l0 22.9925c0,0.839805 -0.589399,1.43275 -1.43157,1.43275 -10.0966,0 -10.3328,0 -27.5553,0 -0.840986,0 -1.63473,-0.589399 -1.63473,-1.43275l0 -22.9925c0,-0.843349 0.689798,-1.53315 1.53315,-1.53315z"
       id="path39" /><g
       id="_86505008"><path
         id="_112631984"
         class="fil16"
         d="M1.0347 15.3574c2.44855,-0.368522 4.94906,-0.0448841 7.31847,1.49535 1.39495,0.915399 2.65643,1.76347 3.79153,2.53005 6.10778,4.25336 7.99173,5.55145 12.8002,3.8931 1.72568,-0.568138 4.07264,-2.119 6.57788,-3.43836l0 0.311826c-2.47807,1.31345 -4.80142,2.8466 -6.51056,3.41237 -4.91127,1.69378 -6.81648,0.383877 -12.9951,-3.91909 -1.1221,-0.759486 -2.36823,-1.59693 -3.78444,-2.52886 -2.29263,-1.4859 -4.76008,-1.7682 -7.19799,-1.37841l0 -0.377971z" /><path
         id="_51607832"
         class="fil17"
         d="M1.0347 15.7862l0.0944928 -0.0141739c2.52532,-0.381515 5.09907,-0.105123 7.55352,1.41385 1.39495,0.879965 2.67651,1.70323 3.84468,2.46154 6.01211,4.14115 7.94685,5.44515 12.6939,3.91909 1.67725,-0.490182 3.91791,-1.86978 6.30149,-3.05566l0 0.301196c-2.36114,1.18352 -4.58054,2.55249 -6.24243,3.04031 -4.84748,1.56622 -6.79758,0.248044 -12.8794,-3.94271 -1.15163,-0.748856 -2.41902,-1.56268 -3.83405,-2.46036 -2.33515,-1.43275 -4.82858,-1.6867 -7.30193,-1.31936l-0.230326 0.0354348 0 -0.379153z" /><path
         id="_85169880"
         class="fil18"
         d="M1.0347 16.2138c0.133471,-0.0212609 0.266942,-0.0413406 0.401595,-0.0602392 2.53359,-0.342537 5.10616,-0.0862247 7.57714,1.36424 1.39377,0.842167 2.69659,1.64181 3.89665,2.39303 5.91643,4.02894 7.8996,5.34003 12.5876,3.94508 1.62646,-0.413406 3.76082,-1.62764 6.0251,-2.68596l0 0.292928c-2.2442,1.05714 -4.36084,2.26547 -5.97549,2.68005 -4.78134,1.43511 -6.77986,0.11221 -12.7613,-3.96516 -1.1847,-0.741769 -2.47217,-1.53315 -3.88247,-2.38949 -2.3576,-1.36897 -4.85339,-1.60402 -7.33855,-1.27565 -0.177174,0.0248044 -0.354348,0.0507899 -0.530341,0.0779566l0 -0.37679z" /><path
         id="_51242584"
         class="fil19"
         d="M1.0347 16.6319c0.236232,-0.0354348 0.472464,-0.066145 0.707515,-0.0944928 2.54304,-0.307102 5.11206,-0.0696885 7.60077,1.31227 1.39259,0.80437 2.71903,1.58039 3.9498,2.32334 5.82076,3.92027 7.85235,5.23845 12.4813,3.97342 1.57449,-0.343718 3.60372,-1.39968 5.74871,-2.33161l0 0.285841c-2.13081,0.933117 -4.14351,1.98907 -5.70855,2.33279 -4.71637,1.30636 -6.76214,-0.022442 -12.6443,-3.98878 -1.21541,-0.733501 -2.52178,-1.50007 -3.93208,-2.32216 -2.37768,-1.30164 -4.87347,-1.51661 -7.3728,-1.22486 -0.276392,0.0318913 -0.553964,0.0685073 -0.830356,0.111029l0 -0.37679z" /><path
         id="_84178984"
         class="fil20"
         d="M1.0347 17.043c0.336631,-0.0472464 0.675624,-0.088587 1.0158,-0.124022 2.55249,-0.268123 5.11797,-0.0507899 7.62203,1.26384 1.39141,0.768935 2.73793,1.52015 4.00295,2.25365 5.72508,3.80806 7.80747,5.13332 12.375,3.99823 1.52015,-0.274029 3.44426,-1.18116 5.47232,-1.99144l0 0.279935c-2.01624,0.815001 -3.92854,1.72449 -5.43924,2.00089 -4.65259,1.17525 -6.74561,-0.160638 -12.5286,-4.0124 -1.24612,-0.724051 -2.57493,-1.467 -3.98169,-2.25129 -2.40012,-1.23786 -4.89709,-1.43393 -7.40824,-1.17998 -0.377971,0.0377971 -0.754762,0.0826812 -1.13037,0.134652l0 -0.372066z" /><path
         id="_82401816"
         class="fil21"
         d="M1.0347 17.4422c0.439392,-0.0531522 0.879965,-0.10158 1.32172,-0.140558 2.56194,-0.231507 5.12506,-0.0330725 7.64565,1.21305 1.39141,0.731138 2.76037,1.45991 4.05492,2.18515 5.62941,3.69703 7.76141,5.02938 12.2687,4.02421 1.46464,-0.209065 3.28481,-0.974457 5.19711,-1.66898l0 0.274029c-1.90521,0.700428 -3.71593,1.47291 -5.17348,1.68552 -4.58527,1.04533 -6.72671,-0.29529 -12.4093,-4.03484 -1.27802,-0.715783 -2.6269,-1.43747 -4.0313,-2.18278 -2.42256,-1.17171 -4.91953,-1.35007 -7.44485,-1.13273 -0.47837,0.0413406 -0.953197,0.0897682 -1.4292,0.144102l0 -0.36616z" /><path
         id="_84093664"
         class="fil22"
         d="M1.0347 17.8261c0.53979,-0.0543334 1.08431,-0.10158 1.62882,-0.14292 2.57139,-0.192529 5.13096,-0.0141739 7.66928,1.16344 1.38904,0.693341 2.78045,1.39968 4.10808,2.11546 5.53256,3.58718 7.71416,4.9278 12.1612,4.05138 1.40558,-0.146464 3.12299,-0.781928 4.92071,-1.36424l0 0.268123c-1.793,0.592943 -3.50568,1.23668 -4.90418,1.38904 -4.52266,0.914218 -6.71017,-0.432305 -12.2935,-4.05847 -1.31109,-0.707515 -2.68005,-1.40558 -4.07973,-2.11428 -2.445,-1.10675 -4.94434,-1.26384 -7.48029,-1.08667 -0.578769,0.0401595 -1.15517,0.088587 -1.7304,0.141739l0 -0.362616z" /><path
         id="_84097272"
         class="fil23"
         d="M1.0347 18.1946c0.643732,-0.0460653 1.28746,-0.0897682 1.93592,-0.127565 2.57965,-0.157094 5.13687,0.00118116 7.69172,1.11147 1.38904,0.656725 2.80053,1.33825 4.16123,2.04695 5.4357,3.47734 7.66928,4.82386 12.0549,4.07855 1.34652,-0.0921305 2.95763,-0.601211 4.64432,-1.07958l0 0.265761c-1.68433,0.487819 -3.29544,1.00871 -4.63724,1.10675 -4.4577,0.785472 -6.69246,-0.568138 -12.1778,-4.08209 -1.33944,-0.699247 -2.72966,-1.37369 -4.12816,-2.04459 -2.46508,-1.0406 -4.9656,-1.18116 -7.51572,-1.03824 -0.677986,0.036616 -1.35361,0.0779566 -2.02923,0.119297l0 -0.35671z" /><path
         id="_88121096"
         class="fil24"
         d="M1.0347 18.5454c0.745312,-0.029529 1.49181,-0.0626015 2.24184,-0.0968552 2.5891,-0.119297 5.14514,0.0200797 7.71534,1.06186 1.38904,0.62129 2.82179,1.27802 4.21438,1.97844 5.34121,3.36513 7.62203,4.71874 11.9486,4.10453 1.28274,-0.0377971 2.79344,-0.435848 4.36793,-0.81382l0 0.263399c-1.57685,0.390964 -3.08873,0.799646 -4.37029,0.84453 -4.39274,0.655544 -6.67474,-0.703972 -12.0573,-4.10335 -1.37369,-0.693341 -2.784,-1.34416 -4.18131,-1.97608 -2.48634,-0.975639 -4.98686,-1.0973 -7.54998,-0.993356 -0.778385,0.0318913 -1.55204,0.059058 -2.32925,0.0791378l0 -0.348442z" /><path
         id="_113194688"
         class="fil25"
         d="M1.0347 18.8738c0.850436,-0.00118116 1.69733,-0.0177174 2.54894,-0.0425218 2.59737,-0.0815001 5.14986,0.0377971 7.73778,1.01225 1.38786,0.582312 2.84305,1.2166 4.26871,1.90876 5.24435,3.2541 7.57478,4.61598 11.84,4.12934 1.21778,0.00944928 2.62808,-0.282297 4.09272,-0.569319l0 0.263399c-1.46936,0.298834 -2.88321,0.604754 -4.10217,0.602392 -4.32659,0.525616 -6.65702,-0.839805 -11.9427,-4.12816 -1.4044,-0.683892 -2.8336,-1.30991 -4.22737,-1.90639 -2.50878,-0.909494 -5.01048,-1.01107 -7.58541,-0.94611 -0.878783,0.0212609 -1.75048,0.029529 -2.63044,0.0212609l0 -0.344899z" /><path
         id="_52144568"
         class="fil26"
         d="M1.0347 19.1832c0.954378,0.0354348 1.90167,0.0437029 2.85723,0.0283479 2.60564,-0.0413406 5.15458,0.0566957 7.75786,0.963827 1.38786,0.545696 2.86431,1.15517 4.32187,1.83907 5.14868,3.14425 7.5299,4.51203 11.7348,4.15768 1.14927,0.0507899 2.46036,-0.148826 3.81633,-0.348442l0 0.26458c-1.36424,0.212609 -2.68123,0.426399 -3.83523,0.380334 -4.26163,0.394508 -6.6393,-0.975639 -11.8246,-4.1506 -1.43511,-0.675624 -2.88676,-1.27802 -4.27698,-1.83789 -2.53123,-0.845711 -5.03411,-0.927211 -7.62203,-0.900044 -0.97682,0.0118116 -1.94773,-0.00826812 -2.92928,-0.0578769l0 -0.338993z" /><path
         id="_81037320"
         class="fil27"
         d="M1.0347 19.4679c1.06186,0.0850436 2.10719,0.127565 3.16197,0.126384 2.61627,-0.00472464 5.16403,0.0744131 7.78503,0.914218 1.38668,0.507899 2.88321,1.09375 4.37266,1.77056 5.05419,3.03086 7.48383,4.40809 11.6285,4.18249 1.0784,0.088587 2.29027,-0.0259855 3.53994,-0.151189l0 0.266942c-1.2603,0.135833 -2.48162,0.265761 -3.5671,0.18308 -4.19784,0.26458 -6.62159,-1.11265 -11.7077,-4.17658 -1.467,-0.664993 -2.93873,-1.24494 -4.32659,-1.76702 -2.55367,-0.779566 -5.05773,-0.842167 -7.65746,-0.851617 -1.07486,-0.00354348 -2.14144,-0.059058 -3.22929,-0.163l0 -0.334268z" /><path
         id="_51624040"
         class="fil28"
         d="M1.0347 19.7313c1.17171,0.145283 2.31507,0.231507 3.47025,0.245681 2.62454,0.0330725 5.16876,0.0921305 7.80629,0.863428 1.38432,0.471283 2.90447,1.03352 4.42581,1.70087 4.95851,2.92219 7.43659,4.30415 11.521,4.20847 1.00753,0.12166 2.12018,0.0779566 3.26473,0.0236232l0 0.271667c-1.15872,0.0649638 -2.28318,0.12166 -3.29898,0.00708696 -4.13406,0.13229 -6.60505,-1.24849 -11.5907,-4.20021 -1.49771,-0.657906 -2.99188,-1.21305 -4.37738,-1.69733 -2.57375,-0.714602 -5.07899,-0.758305 -7.69172,-0.806733 -1.17289,-0.0200797 -2.33515,-0.120478 -3.52931,-0.288203l0 -0.328363z" /><path
         id="_51245664"
         class="fil29"
         d="M1.0347 19.9687c1.28274,0.220877 2.52296,0.35671 3.77617,0.390964 2.63281,0.0708696 5.17585,0.109848 7.82991,0.812638 1.38432,0.433486 2.92455,0.972095 4.47896,1.63236 4.86284,2.80998 7.3917,4.20139 11.4147,4.23446 0.933117,0.147645 1.94773,0.166544 2.98834,0.171268l0 0.276392c-1.05714,0.00472464 -2.08947,-0.00118116 -3.03204,-0.145283 -4.06674,0.00472464 -6.58733,-1.38432 -11.4738,-4.22029 -1.5296,-0.650819 -3.04267,-1.18352 -4.42463,-1.63118 -2.59619,-0.648457 -5.10261,-0.673261 -7.72833,-0.758305 -1.26857,-0.0413406 -2.52532,-0.191348 -3.82932,-0.437029l0 -0.326z" /><path
         id="_114741936"
         class="fil30"
         d="M1.0347 20.1801c1.39613,0.311826 2.73202,0.504356 4.08327,0.561051 2.64226,0.106304 5.18175,0.127565 7.85235,0.76303 1.38314,0.39687 2.947,0.911856 4.53211,1.56268 4.76598,2.70013 7.34446,4.09863 11.3084,4.26399 0.85516,0.166544 1.7741,0.23387 2.71194,0.290565l0 0.281116c-0.957921,-0.0472464 -1.89576,-0.106304 -2.76392,-0.269305 -4.00295,-0.126384 -6.5708,-1.52015 -11.3569,-4.24627 -1.56031,-0.642551 -3.09582,-1.14927 -4.47424,-1.55913 -2.61863,-0.584674 -5.12742,-0.589399 -7.76377,-0.71224 -1.36306,-0.0637827 -2.71313,-0.276392 -4.12934,-0.611841l0 -0.323638z" /><path
         id="_85838848"
         class="fil31"
         d="M1.0347 20.3679c1.51307,0.412225 2.94463,0.675624 4.39037,0.754762 2.65052,0.147645 5.18884,0.147645 7.8748,0.714602 1.38314,0.359073 2.96826,0.850436 4.58645,1.49299 4.66913,2.59028 7.29721,3.9935 11.2009,4.28997 0.776022,0.178355 1.59811,0.288203 2.43555,0.382696l0 0.289384c-0.859885,-0.088587 -1.70323,-0.188986 -2.49815,-0.369703 -3.93563,-0.255131 -6.55072,-1.65599 -11.2399,-4.26635 -1.58984,-0.634283 -3.14661,-1.12092 -4.52266,-1.49299 -2.63871,-0.517348 -5.1475,-0.504356 -7.7992,-0.663812 -1.45519,-0.0897682 -2.89621,-0.373247 -4.42817,-0.811457l0 -0.320094z" /><path
         id="_112587528"
         class="fil32"
         d="M1.0347 20.5298c1.63473,0.525616 3.15606,0.869334 4.69748,0.97682 2.66115,0.18308 5.19474,0.163 7.89724,0.662631 1.38314,0.323638 2.98834,0.790196 4.63842,1.42448 4.57345,2.47926 7.25351,3.8872 11.0958,4.31478 0.693341,0.187805 1.42094,0.323638 2.15916,0.450022l0 0.297652c-0.76303,-0.122841 -1.51307,-0.25395 -2.22885,-0.441754 -3.87303,-0.386239 -6.53536,-1.793 -11.123,-4.29352 -1.62291,-0.623653 -3.19858,-1.08549 -4.57227,-1.41975 -2.66234,-0.453566 -5.17112,-0.419312 -7.83464,-0.618928 -1.54732,-0.115754 -3.07929,-0.47837 -4.72937,-1.03233l0 -0.320094z" /><path
         id="_111109608"
         class="fil33"
         d="M1.0347 20.6656c1.75875,0.654363 3.36985,1.08667 5.00458,1.2225 2.66942,0.222058 5.19947,0.181899 7.92086,0.613022 1.38078,0.285841 3.00842,0.728776 4.69157,1.35597 4.4766,2.36705 7.20508,3.78444 10.9883,4.34076 0.609479,0.187805 1.24258,0.341355 1.88277,0.485457l0 0.309464c-0.667356,-0.144102 -1.32762,-0.297652 -1.96073,-0.486638 -3.80924,-0.517348 -6.51882,-1.93002 -11.0072,-4.31596 -1.65362,-0.616566 -3.25055,-1.05596 -4.6207,-1.35243 -2.6836,-0.387421 -5.19593,-0.33545 -7.87125,-0.572863 -1.63709,-0.144102 -3.25646,-0.595305 -5.0282,-1.27565l0 -0.323638z" /><path
         id="_111579984"
         class="fil34"
         d="M1.0347 20.7778c1.88749,0.79374 3.58837,1.32408 5.3105,1.49299 2.68005,0.258674 5.20774,0.199616 7.94449,0.563414 1.38078,0.248044 3.02968,0.667356 4.74354,1.2851 4.38329,2.2572 7.16019,3.68168 10.882,4.36793 0.525616,0.181899 1.06423,0.341355 1.60756,0.493725l0 0.316551 0 0.00236232c-0.574044,-0.154732 -1.14218,-0.316551 -1.69497,-0.504356 -3.74192,-0.646095 -6.49875,-2.06467 -10.8879,-4.33722 -1.6867,-0.608298 -3.30371,-1.02407 -4.67149,-1.2851 -2.70604,-0.321276 -5.21719,-0.249225 -7.90433,-0.524435 -1.72686,-0.174812 -3.43245,-0.725233 -5.3294,-1.54496l0 -0.326z" /><path
         id="_83853936"
         class="fil35"
         d="M1.0347 20.864c2.02097,0.948472 3.8057,1.58748 5.61878,1.78828 2.68596,0.296471 5.21246,0.217334 7.96575,0.513805 1.3796,0.211428 3.04976,0.607116 4.79787,1.2166 4.28643,2.14617 7.11295,3.57774 10.7745,4.39392 0.438211,0.167725 0.883508,0.321276 1.33117,0.473645l0 0.0472464c0,0.095674 -0.00826812,0.186623 -0.0236232,0.27521 -0.472464,-0.154732 -0.943747,-0.313008 -1.40204,-0.486638 -3.67813,-0.776022 -6.48339,-2.19932 -10.7722,-4.36084 -1.71623,-0.601211 -3.35686,-0.990994 -4.71992,-1.21541 -2.72848,-0.255131 -5.24081,-0.165362 -7.94212,-0.47837 -1.81308,-0.209065 -3.60254,-0.864609 -5.62823,-1.83552l0 -0.331906z" /><path
         id="_85794648"
         class="fil36"
         d="M1.0347 20.9278c2.1568,1.11383 4.02658,1.87096 5.9247,2.10601 2.69659,0.33545 5.21955,0.235051 7.98937,0.464196 1.37841,0.174812 3.07102,0.545696 4.84984,1.14809 4.19076,2.03514 7.06806,3.47379 10.6694,4.42226 0.344899,0.14292 0.693341,0.282297 1.04415,0.419312 -0.0129928,0.108667 -0.0377971,0.21379 -0.073232,0.31537 -0.361435,-0.138196 -0.720508,-0.278754 -1.07604,-0.425218 -3.61199,-0.907131 -6.46331,-2.33634 -10.6541,-4.38447 -1.74694,-0.594124 -3.40647,-0.961465 -4.76953,-1.14573 -2.74856,-0.191348 -5.26207,-0.0815001 -7.9752,-0.432305 -1.89694,-0.243319 -3.77026,-1.01462 -5.92943,-2.14735l0 -0.340174z" /><path
         id="_82468664"
         class="fil37"
         d="M1.0347 20.9691c2.29854,1.28983 4.24982,2.17452 6.2318,2.44736 2.70486,0.372066 5.22427,0.25395 8.01181,0.414587 1.37723,0.137015 3.09228,0.485457 4.90536,1.0784 4.0939,1.92293 7.01727,3.37103 10.5619,4.44707 0.240957,0.109848 0.485457,0.218515 0.729957,0.327181 -0.0271667,0.106304 -0.066145,0.210247 -0.113391,0.305921 -0.2445,-0.105123 -0.489,-0.212609 -0.731138,-0.322457 -3.54821,-1.03706 -6.44559,-2.47335 -10.5371,-4.40573 -1.77883,-0.585856 -3.45962,-0.929573 -4.81913,-1.0784 -2.76982,-0.124022 -5.28569,0.00472464 -8.01181,-0.383877 -1.97962,-0.281116 -3.93208,-1.17644 -6.22826,-2.4828l0 -0.347261z" /><path
         id="_117276112"
         class="fil38"
         d="M1.0347 20.9904c2.44264,1.47645 4.47542,2.49697 6.5389,2.8088 2.71431,0.409863 5.23136,0.271667 8.03425,0.363797 1.37723,0.100399 3.11354,0.424037 4.95733,1.00871 3.99941,1.81426 6.97475,3.26709 10.4556,4.47424l0.405138 0.198435c-0.0389783,0.103942 -0.088587,0.205522 -0.148826,0.298834l-0.377971 -0.18308c-3.48206,-1.16817 -6.42906,-2.61036 -10.4202,-4.4329 -1.8119,-0.575225 -3.51159,-0.896501 -4.86992,-1.00753 -2.79108,-0.0566957 -5.30695,0.088587 -8.04725,-0.336631 -2.05876,-0.320094 -4.09036,-1.3477 -6.52709,-2.83597l0 -0.35671z" /><path
         id="_82181784"
         class="fil39"
         d="M1.0347 20.9904c2.59383,1.6737 4.70338,2.83833 6.84601,3.19031 2.72257,0.448841 5.23845,0.291747 8.05906,0.31537 1.37487,0.0626015 3.13244,0.362616 5.00812,0.940204 3.90255,1.70205 6.92633,3.16197 10.3493,4.49786l0.073232 0.0401595c-0.0484276,0.103942 -0.107486,0.200797 -0.177174,0.289384l-0.0271667 -0.0129928c-3.4171,-1.2981 -6.41016,-2.7462 -10.3033,-4.45416 -1.84143,-0.568138 -3.56356,-0.865791 -4.91717,-0.939023 -2.81352,0.0059058 -5.33058,0.173631 -8.08268,-0.291747 -2.1379,-0.360254 -4.24627,-1.52606 -6.82829,-3.20803l0 -0.367341z" /><path
         id="_88759328"
         class="fil40"
         d="M1.0347 20.9703c2.74974,1.88159 4.93253,3.19976 7.15311,3.59309 2.73084,0.484276 5.24435,0.308283 8.0815,0.263399 1.37369,0.0259855 3.1537,0.303558 5.06127,0.871696 3.7053,1.54968 6.71372,2.98007 9.97136,4.40573 -0.0626015,0.105123 -0.137015,0.200797 -0.219696,0.285841 -3.21512,-1.37841 -6.17511,-2.78754 -9.83316,-4.32777 -1.8745,-0.558689 -3.61553,-0.832718 -4.96796,-0.869334 -2.83597,0.0720508 -5.3542,0.257493 -8.1193,-0.242138 -2.21468,-0.401595 -4.39628,-1.71859 -7.12712,-3.60018l0 -0.380334z" /><path
         id="_51601072"
         class="fil41"
         d="M1.0347 20.9337c2.90802,2.09656 5.1664,3.57419 7.45785,4.0124 2.74265,0.522073 5.25144,0.324819 8.10512,0.212609 1.37487,-0.00944928 3.17378,0.243319 5.11442,0.803189 3.47852,1.38668 6.44205,2.76982 9.51779,4.25336 -0.073232,0.100399 -0.157094,0.19371 -0.250406,0.27521 -3.02259,-1.43157 -5.92588,-2.78518 -9.3477,-4.16005 -1.90403,-0.550421 -3.66632,-0.802008 -5.01639,-0.799646 -2.85605,0.137015 -5.37546,0.342537 -8.15355,-0.198435 -2.28909,-0.444116 -4.54392,-1.91348 -7.42714,-4.00532l0 -0.393326z" /><path
         id="_81670912"
         class="fil42"
         d="M1.0347 20.8782c3.07102,2.32098 5.39908,3.96752 7.76731,4.44943 2.74856,0.561051 5.25498,0.343718 8.12638,0.164181 1.37251,-0.0484276 3.19504,0.180718 5.16758,0.733501 3.25882,1.23431 6.15739,2.55839 9.06895,4.07264 -0.0815001,0.100399 -0.173631,0.188986 -0.277573,0.265761 -2.85014,-1.45519 -5.67902,-2.74738 -8.87052,-3.96634 -1.93592,-0.542153 -3.71829,-0.767754 -5.06364,-0.729957 -2.88085,0.20316 -5.40145,0.426399 -8.19017,-0.151189 -2.36114,-0.486638 -4.68803,-2.12136 -7.72833,-4.42935l0 -0.408682z" /><path
         id="_110605120"
         class="fil43"
         d="M1.0347 20.8061c3.23874,2.55485 5.63532,4.3762 8.07323,4.90536 2.75919,0.596486 5.26325,0.361435 8.14883,0.11221 1.37369,-0.0838624 3.21748,0.119297 5.22191,0.663812 3.04503,1.08903 5.86801,2.34933 8.6331,3.87421 -0.088587,0.0968552 -0.190167,0.18308 -0.300015,0.255131 -2.69659,-1.45873 -5.44043,-2.68123 -8.40868,-3.75255 -1.96899,-0.532703 -3.77263,-0.735863 -5.11561,-0.660269 -2.90211,0.266942 -5.42271,0.511442 -8.22678,-0.103942 -2.43083,-0.533885 -4.82386,-2.33397 -8.02599,-4.86874l0 -0.425218z" /><path
         id="_84096544"
         class="fil44"
         d="M1.0347 20.7211c3.41001,2.79108 5.87509,4.79669 8.37915,5.37192 2.76864,0.635464 5.27034,0.377971 8.17245,0.0637827 1.37251,-0.122841 3.23756,0.059058 5.27506,0.592943 2.83951,0.953197 5.57508,2.14499 8.2067,3.65805 -0.095674,0.095674 -0.20316,0.179536 -0.320094,0.248044 -2.55485,-1.4422 -5.20419,-2.59265 -7.9622,-3.5234 -1.99734,-0.524435 -3.82224,-0.705153 -5.16403,-0.591761 -2.92101,0.333087 -5.44397,0.595305 -8.25986,-0.0566957 -2.50052,-0.581131 -4.96087,-2.55603 -8.32718,-5.31995l0 -0.442935z" /><path
         id="_82999320"
         class="fil45"
         d="M1.0347 20.6219c3.58718,3.03676 6.11487,5.229 8.68744,5.85383 2.77573,0.67208 5.27506,0.395689 8.19607,0.0129928 1.37015,-0.158276 3.25646,-0.00118116 5.32703,0.524435 2.64226,0.823269 5.28097,1.94301 7.78739,3.42891 -0.0992175,0.0944928 -0.211428,0.177174 -0.333087,0.243319 -2.42728,-1.41149 -4.9715,-2.48398 -7.52754,-3.28481 -2.0316,-0.516167 -3.87539,-0.674443 -5.21364,-0.524435 -2.94463,0.398051 -5.46877,0.68153 -8.29765,-0.00944928 -2.56548,-0.626015 -5.0908,-2.78518 -8.62602,-5.78532l0 -0.459471z" /><path
         id="_112631328"
         class="fil46"
         d="M1.0347 20.5085c3.76672,3.28717 6.35819,5.67548 8.99336,6.34874 2.78518,0.711059 5.28215,0.414587 8.2197,-0.036616 1.36897,-0.196073 3.27772,-0.0614203 5.38019,0.455928 2.45445,0.703972 4.98804,1.74339 7.37871,3.18795 -0.103942,0.095674 -0.220877,0.177174 -0.34608,0.239776 -2.30681,-1.36306 -4.74236,-2.35523 -7.10468,-3.03558 -2.06231,-0.510261 -3.92736,-0.642551 -5.26207,-0.454747 -2.96708,0.464196 -5.49122,0.765392 -8.33191,0.036616 -2.63163,-0.674443 -5.21955,-3.02023 -8.92721,-6.26369l0 -0.47837z" /><path
         id="_109854728"
         class="fil47"
         d="M1.0347 20.3833c3.95098,3.54466 6.60269,6.13377 9.30046,6.85546 2.79463,0.750037 5.28924,0.433486 8.24214,-0.0862247 1.36897,-0.232689 3.2978,-0.122841 5.43216,0.387421 2.27492,0.59058 4.69748,1.55086 6.97948,2.94227 -0.108667,0.0944928 -0.227964,0.174812 -0.357892,0.236232 -2.19342,-1.304 -4.51085,-2.21468 -6.69009,-2.78281 -2.09302,-0.500812 -3.97933,-0.61066 -5.31286,-0.383877 -2.98715,0.527979 -5.51248,0.848073 -8.36734,0.0815001 -2.69541,-0.72287 -5.34357,-3.26 -9.22604,-6.75151l0 -0.49845z" /></g><g
       id="_84658984"><path
         id="_116220512"
         class="fil48"
         d="M31.4909 29.6117c-0.464196,0.073232 -0.917762,0.144102 -1.35952,0.212609 -2.21586,0.409863 -4.10217,0.757124 -5.75461,1.02052l1.63 -0.00472464c1.25085,-0.216152 2.62572,-0.468921 4.15532,-0.75358l1.24494 -0.196073c0.036616,-0.0897682 0.0649638,-0.18308 0.0838624,-0.278754zm-30.4562 -6.87672l0 -0.36616c3.93326,2.2383 7.23815,5.555 9.94773,6.97121 1.31109,0.688617 2.48989,1.18707 3.66278,1.52015l-1.00517 0.00236232c-0.924849,-0.323638 -1.87214,-0.748856 -2.90093,-1.28865 -2.65643,-1.38668 -5.87982,-4.60653 -9.70441,-6.83892z" /><path
         id="_51802096"
         class="fil49"
         d="M31.5098 29.503c-0.682711,0.0838624 -1.34298,0.163 -1.98317,0.236232 -2.76392,0.484276 -5.01285,0.865791 -6.93577,1.10911l1.956 -0.00354348c1.47054,-0.225602 3.11944,-0.50908 5.0034,-0.839805 0.611841,-0.0720508 1.24494,-0.148826 1.89812,-0.229145 0.0283479,-0.0874059 0.0496087,-0.178355 0.0614203,-0.272848zm-30.4751 -6.64875l0 -0.367341c3.73719,2.1379 6.91688,5.19002 9.55913,6.55426 1.7682,0.920124 3.29898,1.5048 4.89591,1.81781l-1.2981 0.00236232c-1.22723,-0.348442 -2.45918,-0.863428 -3.83523,-1.58157 -2.58674,-1.33471 -5.68847,-4.29706 -9.32172,-6.42551z" /><path
         id="_89304888"
         class="fil50"
         d="M31.5169 29.4404c-0.89532,0.0815001 -1.76229,0.154732 -2.59619,0.217334 -3.91437,0.64137 -6.79285,1.07604 -9.17762,1.19415l3.06275 -0.00472464c1.74576,-0.216152 3.74782,-0.532703 6.1314,-0.924849 0.812638,-0.0637827 1.65481,-0.134652 2.53123,-0.216152 0.0236232,-0.0862247 0.0401595,-0.174812 0.0484276,-0.265761zm-30.4822 -6.4763l0 -0.367341c3.54702,2.03278 6.60032,4.83331 9.17171,6.1444 2.57965,1.33353 4.66322,1.9749 7.17673,2.11428l-2.36823 0.00472464c-1.64299,-0.329544 -3.21866,-0.933117 -5.04001,-1.87332 -2.51351,-1.28392 -5.4924,-4.00413 -8.9402,-6.02274z" /><path
         id="_81152184"
         class="fil51"
         d="M31.5181 29.4168c-1.10439,0.0673261 -2.17334,0.118116 -3.20094,0.158276 -9.74103,1.47881 -13.0294,1.67016 -18.5005,-1.1351 -2.49461,-1.25557 -5.42271,-3.81987 -8.78193,-5.74398l0 0.367341c3.26473,1.90876 6.11841,4.39982 8.55751,5.62705 2.53359,1.30046 4.6018,1.96781 7.03145,2.16743l3.64152 -0.00708696c2.16861,-0.144102 4.74354,-0.503174 8.05906,-1.00989 1.00989,-0.0401595 2.05876,-0.0921305 3.15134,-0.160638 0.022442,-0.0850436 0.036616,-0.173631 0.0425218,-0.263399z" /><path
         id="_117138928"
         class="fil52"
         d="M31.5169 29.4322c-1.30991,0.0425218 -2.58202,0.0578769 -3.80452,0.0602392 -9.52015,1.32762 -12.8451,1.41385 -18.282,-1.35243 -2.41547,-1.20006 -5.21955,-3.5423 -8.39569,-5.3542l0 0.364979c3.08755,1.79773 5.81722,4.07146 8.17481,5.24553 5.53256,2.81707 8.87996,2.71785 18.5017,1.36424 1.20596,-0.00354348 2.45799,-0.022442 3.762,-0.0685073 0.0212609,-0.0850436 0.036616,-0.171268 0.0437029,-0.259855z" /><path
         id="_113062592"
         class="fil53"
         d="M31.5122 29.4818c-1.50952,0.0106304 -2.98243,-0.022442 -4.40337,-0.073232 -9.29928,1.17762 -12.662,1.15872 -18.0682,-1.56858 -2.33043,-1.14573 -5.00576,-3.27654 -8.00591,-4.97623l0 0.36616c2.9151,1.68315 5.5172,3.75255 7.79212,4.87229 5.49476,2.77455 8.87524,2.78281 18.2726,1.57567 1.39968,0.0484276 2.85132,0.0767754 4.36203,0.059058 0.0236232,-0.0826812 0.0413406,-0.167725 0.0507899,-0.255131z" /><path
         id="_83270680"
         class="fil54"
         d="M31.5004 29.568c-1.69969,-0.029529 -3.37339,-0.124022 -4.99631,-0.242138 -9.08076,1.02761 -12.479,0.901225 -17.8521,-1.78473 -2.24302,-1.09021 -4.79079,-3.02377 -7.6173,-4.61007l0 0.364979c2.74502,1.56976 5.22191,3.44663 7.40942,4.51085 5.45696,2.73321 8.8717,2.84542 18.0422,1.78946 1.59811,0.11221 3.24583,0.201978 4.94788,0.222058 0.029529,-0.0815001 0.0507899,-0.164181 0.066145,-0.250406z" /><path
         id="_85856432"
         class="fil55"
         d="M31.4744 29.6873c-1.8745,-0.0744131 -3.74782,-0.245681 -5.57508,-0.442935 -8.8587,0.876421 -12.2935,0.643732 -17.6359,-2.00443 -2.15326,-1.03352 -4.57109,-2.78163 -7.2287,-4.25572l0 0.36616c2.57965,1.45519 4.93016,3.1537 7.0279,4.16241 5.41798,2.69186 8.86579,2.90684 17.8095,2.00207 1.79773,0.190167 3.63679,0.353167 5.51956,0.414587 0.0330725,-0.0779566 0.0614203,-0.159457 0.0826812,-0.242138z" /><path
         id="_85421936"
         class="fil56"
         d="M31.4271 29.8397l-0.0330725 -0.00472464c-2.02097,-0.122841 -4.07737,-0.383877 -6.09951,-0.675624 -8.63901,0.727595 -12.1116,0.390964 -17.4198,-2.2194 -2.05876,-0.97682 -4.34785,-2.55249 -6.8401,-3.91555l0 0.36616c2.41784,1.34416 4.64196,2.87494 6.64521,3.82814 5.379,2.64934 8.86225,2.96944 17.5804,2.21349 1.99498,0.283479 4.01949,0.533885 6.06053,0.637827 0.0413406,-0.0720508 0.0767754,-0.150007 0.106304,-0.230326z" /><path
         id="_51623224"
         class="fil57"
         d="M31.3279 30.0558c-0.188986,-0.0330725 -0.379153,-0.0637827 -0.571682,-0.0921305 -1.97962,-0.187805 -4.02776,-0.522073 -6.06644,-0.88587 -8.41695,0.576406 -11.9274,0.13229 -17.2036,-2.43673 -1.96073,-0.921305 -4.11871,-2.33752 -6.4515,-3.58955l0 0.367341c2.26074,1.23195 4.3573,2.61036 6.26369,3.5045 5.34121,2.60918 8.85634,3.0344 17.3489,2.42847 2.01034,0.354348 4.02894,0.677986 6.02746,0.845711 0.167725,0.0283479 0.334268,0.0578769 0.500812,0.0897682 0.0578769,-0.073232 0.108667,-0.150007 0.15237,-0.231507z" /><path
         id="_85019080"
         class="fil58"
         d="M31.1567 30.3086c-0.341355,-0.0779566 -0.686254,-0.150007 -1.03588,-0.217334 -1.94183,-0.249225 -3.98169,-0.659088 -6.03573,-1.09612 -8.19725,0.424037 -11.7419,-0.122841 -16.9875,-2.65525 -1.85915,-0.862247 -3.88956,-2.13081 -6.0629,-3.27536l0 0.367341c2.10601,1.12446 4.07382,2.3576 5.87982,3.19622 5.30341,2.56784 8.8528,3.09818 17.1197,2.64107 2.02451,0.42758 4.03484,0.82445 5.99321,1.0536 0.304739,0.0637827 0.605935,0.13229 0.907131,0.205522 0.0803189,-0.0649638 0.154732,-0.139377 0.222058,-0.219696z" /><path
         id="_85192496"
         class="fil59"
         d="M30.8732 30.5743c-0.455928,-0.127565 -0.918943,-0.245681 -1.38904,-0.354348 -1.90049,-0.313008 -3.93445,-0.798464 -6.00384,-1.30754 -7.97756,0.27521 -11.5588,-0.380334 -16.7713,-2.87258 -1.7552,-0.805551 -3.65569,-1.93828 -5.6743,-2.97771l0 0.369703c1.95364,1.0217 3.79507,2.12018 5.4983,2.90329 5.26325,2.52296 8.84807,3.15842 16.8894,2.8525 2.0375,0.499631 4.04075,0.970914 5.95659,1.26148 0.388602,0.0968552 0.771298,0.201978 1.15045,0.314189 0.122841,-0.0484276 0.237413,-0.11221 0.343718,-0.188986z" /><path
         id="_82420200"
         class="fil60"
         d="M30.3889 30.8094c-0.505537,-0.164181 -1.01934,-0.318913 -1.5426,-0.461834 -1.86033,-0.374428 -3.88602,-0.934298 -5.97077,-1.51897 -7.75668,0.125203 -11.3758,-0.635464 -16.5528,-3.08873 -1.65008,-0.747675 -3.42064,-1.7552 -5.28806,-2.69423l0 0.372066c1.80599,0.921305 3.5175,1.89694 5.11442,2.62336 5.22782,2.48162 8.84335,3.22102 16.6603,3.06511 2.05168,0.571682 4.04784,1.11383 5.92234,1.467 0.283479,0.0838624 0.564595,0.171268 0.843349,0.262218l0.707515 -0.00118116c0.036616,-0.00708696 0.0708696,-0.0153551 0.106304,-0.0248044z" /><path
         id="_85586600"
         class="fil61"
         d="M29.2892 30.8354c-0.355529,-0.124022 -0.714602,-0.2445 -1.0784,-0.360254 -1.82135,-0.435848 -3.83995,-1.07249 -5.94006,-1.72804 -7.53462,-0.0271667 -11.1915,-0.892957 -16.339,-3.30725 -1.54023,-0.690979 -3.17968,-1.58276 -4.89709,-2.42492l0 0.373247c1.65953,0.82445 3.24229,1.68788 4.73291,2.35642 5.18884,2.44146 8.83981,3.28717 16.4276,3.28008 2.06821,0.642551 4.05492,1.2603 5.88809,1.67489l0.398051 0.138196 0.807914 -0.00236232z" /><path
         id="_51879680"
         class="fil62"
         d="M28.2026 30.8377c-0.207884,-0.0803189 -0.415768,-0.155913 -0.628377,-0.232689 -1.78237,-0.501993 -3.79271,-1.21069 -5.90816,-1.94301 -7.31493,-0.175993 -11.0072,-1.14691 -16.1217,-3.52104 -1.42802,-0.634283 -2.93636,-1.42094 -4.50967,-2.17097l0 0.375609c1.51543,0.73232 2.97062,1.49299 4.35021,2.10483 5.15104,2.40012 8.8339,3.34859 16.1984,3.49151 2.0812,0.715783 4.06083,1.40676 5.85147,1.88277l0.0389783 0.0129928 0.728776 0z" /><path
         id="_85607968"
         class="fil63"
         d="M27.1962 30.8389l-0.256312 -0.105123c-1.74457,-0.563414 -3.74782,-1.35007 -5.87864,-2.15444 -7.09405,-0.324819 -10.823,-1.40322 -15.9043,-3.73955 -1.31581,-0.576406 -2.69423,-1.26384 -4.12225,-1.92884l0 0.377971c1.37487,0.646095 2.70131,1.31109 3.9687,1.86741 5.1097,2.3576 8.82799,3.41001 15.9657,3.7053 1.95955,0.735863 3.80806,1.44928 5.46995,1.97844l0.757124 -0.00118116z" /><path
         id="_87929400"
         class="fil64"
         d="M26.2477 30.8401c-1.69378,-0.624834 -3.66868,-1.47527 -5.79005,-2.3446 -6.87435,-0.474827 -10.6411,-1.65953 -15.6905,-3.95571 -1.1977,-0.519711 -2.445,-1.11974 -3.73247,-1.69969l0 0.380334c1.23549,0.564595 2.43437,1.141 3.586,1.64299 5.07308,2.31389 8.82445,3.47379 15.7366,3.91437 1.8497,0.75358 3.586,1.48944 5.13687,2.06349l0.75358 -0.00118116z" /><path
         id="_84551504"
         class="fil65"
         d="M25.3146 30.8436c-1.58984,-0.673261 -3.45253,-1.54496 -5.46169,-2.43083 -6.65348,-0.626015 -10.4568,-1.91584 -15.4732,-4.17422 -1.07958,-0.461834 -2.19814,-0.979182 -3.34505,-1.48354l0 0.382696c1.09848,0.489 2.16979,0.985088 3.20213,1.43039 5.03647,2.27373 8.82091,3.53639 15.5086,4.12816 1.76229,0.774841 3.41001,1.53315 4.87111,2.14735l0.698066 0z" /><path
         id="_111607072"
         class="fil66"
         d="M24.4465 30.8448c-1.50716,-0.715783 -3.27654,-1.60992 -5.19829,-2.51469 -6.43378,-0.777204 -10.2726,-2.17215 -15.2571,-4.39037 -0.960283,-0.4075 -1.94655,-0.849254 -2.95644,-1.28274l0 0.387421c0.963827,0.41695 1.90521,0.838624 2.82179,1.22841 4.99513,2.23121 8.815,3.599 15.2748,4.34195 1.69733,0.796102 3.27181,1.57921 4.66086,2.23121l0.654363 -0.00118116z" /><path
         id="_85183000"
         class="fil67"
         d="M23.6232 30.846c-1.43747,-0.75358 -3.13244,-1.67252 -4.97859,-2.59973 -6.2129,-0.927211 -10.0907,-2.42728 -15.0433,-4.60653 -0.836262,-0.350805 -1.69378,-0.72287 -2.56666,-1.08903l0 0.388602c0.827994,0.350805 1.64418,0.706334 2.4391,1.0406 4.95851,2.18869 8.81028,3.6616 15.0444,4.55219 1.64063,0.819725 3.1537,1.62882 4.48369,2.31507l0.62129 -0.00118116z" /><path
         id="_86541000"
         class="fil68"
         d="M22.833 30.8472c-1.37605,-0.791378 -3.00605,-1.73394 -4.79197,-2.6836 -5.99439,-1.07722 -9.90876,-2.6836 -14.8271,-4.82386 -0.714602,-0.296471 -1.44102,-0.604754 -2.17924,-0.90595l0 0.390964c0.695704,0.287022 1.38196,0.578769 2.0564,0.859885 4.91953,2.14735 8.80673,3.72656 14.8153,4.76598 1.5922,0.84453 3.05566,1.67843 4.33132,2.39776l0.595305 -0.00118116z" /><path
         id="_85852072"
         class="fil69"
         d="M22.0723 30.8484c-1.32408,-0.826812 -2.90211,-1.79418 -4.63605,-2.76746 -5.77351,-1.22723 -9.72331,-2.93991 -14.6121,-5.04119 -0.588218,-0.242138 -1.1847,-0.489 -1.78946,-0.731138l0 0.393326c0.564595,0.230326 1.12328,0.461834 1.6737,0.687435 4.88174,2.10601 8.80201,3.78798 14.585,4.98095 1.55086,0.868153 2.97416,1.72686 4.20375,2.47926l0.575225 -0.00118116z" /><path
         id="_83048144"
         class="fil70"
         d="M21.3318 30.8495c-1.28038,-0.861066 -2.8088,-1.85206 -4.50022,-2.85132 -5.55264,-1.37841 -9.53905,-3.19622 -14.3948,-5.25853 -0.463015,-0.188986 -0.929573,-0.377971 -1.40204,-0.565776l0 0.398051c0.434667,0.173631 0.864609,0.349624 1.29101,0.523254 4.84394,2.06349 8.79728,3.85058 14.3546,5.19238 1.51897,0.892957 2.90211,1.78001 4.0939,2.56312l0.557508 -0.00118116z" /><path
         id="_88147568"
         class="fil71"
         d="M20.6089 30.8507c-1.24022,-0.892957 -2.72848,-1.9123 -4.38211,-2.93518 -5.33176,-1.5296 -9.35597,-3.45253 -14.1787,-5.47586 -0.33545,-0.135833 -0.673261,-0.270486 -1.01344,-0.403957l0 0.401595c0.304739,0.120478 0.608298,0.242138 0.909494,0.363797 4.80378,2.02215 8.79256,3.91318 14.1243,5.40499 1.48708,0.918943 2.83833,1.83198 3.99587,2.6458l0.544515 -0.00118116z" /><path
         id="_82758440"
         class="fil72"
         d="M19.9014 30.8519c-1.20478,-0.924849 -2.65879,-1.97136 -4.27934,-3.02023 -5.11206,-1.67725 -9.17171,-3.70884 -13.9637,-5.69319l-0.623653 -0.246863 0 0.406319 0.526798 0.207884c4.76716,1.98081 8.78665,3.97697 13.894,5.61878 1.46346,0.94611 2.78518,1.88513 3.90846,2.72848l0.537428 -0.00118116z" /><path
         id="_84802616"
         class="fil73"
         d="M19.2021 30.8531c-1.17171,-0.95674 -2.59265,-2.02805 -4.18485,-3.10409 -4.89119,-1.82962 -8.98863,-3.96397 -13.7463,-5.91053l-0.236232 -0.0921305 0 0.409863 0.144102 0.0555145c4.72819,1.93828 8.78429,4.03957 13.6625,5.83021 1.44102,0.972095 2.73911,1.93828 3.83523,2.81234l0.525616 -0.00118116z" /><path
         id="_112675096"
         class="fil74"
         d="M18.5159 30.8543c-1.14336,-0.98745 -2.53477,-2.08711 -4.10335,-3.18795 -4.61952,-1.95836 -8.7146,-4.17304 -13.3778,-6.06526l0 0.412225c4.58999,1.87568 8.61893,4.03957 13.1947,5.94596 1.42094,0.999262 2.69659,1.99144 3.7679,2.89621l0.518529 -0.00118116z" /><path
         id="_85536608"
         class="fil75"
         d="M17.8379 30.8555c-1.11738,-1.01816 -2.48516,-2.14499 -4.03012,-3.273 -4.27698,-2.04695 -8.29765,-4.29588 -12.7731,-6.12432l0 0.41695c4.401,1.80954 8.34962,4.0065 12.5817,6.00384 1.40558,1.02407 2.65879,2.04459 3.70766,2.97652l0.513805 0z" /><path
         id="_88685408"
         class="fil76"
         d="M17.167 30.8555c-1.09257,-1.04769 -2.4391,-2.20168 -3.96397,-3.35568 -3.94626,-2.12727 -7.87362,-4.40455 -12.1683,-6.18574l0 0.420493c4.21674,1.75875 8.07323,3.98642 11.9687,6.06172 1.38904,1.05123 2.62572,2.09892 3.65215,3.06157l0.511442 -0.00236232z" /><path
         id="_85690120"
         class="fil77"
         d="M16.5032 30.8578c-1.07013,-1.0784 -2.39657,-2.26074 -3.90492,-3.44072 -3.62498,-2.19696 -7.44367,-4.50022 -11.5636,-6.2448l0 0.425218c4.04075,1.71859 7.78385,3.96988 11.3569,6.11841 1.37605,1.07722 2.59501,2.15089 3.60254,3.14189l0.50908 0z" /><path
         id="_29410472"
         class="fil78"
         d="M15.8429 30.8578c-1.05005,-1.10675 -2.35642,-2.31626 -3.8494,-3.5234 -3.31552,-2.25838 -7.00664,-4.58172 -10.9588,-6.29913l0 0.428761c3.8683,1.69024 7.48265,3.96279 10.7438,6.17038 1.36424,1.10202 2.56902,2.20523 3.55884,3.22457l0.505537 -0.00118116z" /><path
         id="_83919400"
         class="fil79"
         d="M15.1897 30.8602c-1.03115,-1.13864 -2.32216,-2.37531 -3.79979,-3.60963 -3.01787,-2.30917 -6.57198,-4.64669 -10.3552,-6.34756l0 0.432305c3.69821,1.67489 7.17201,3.95925 10.1296,6.21645 1.35597,1.13037 2.5454,2.26074 3.51986,3.30843l0.505537 0z" /></g><path
       class="fil80"
       d="M8.7335 5.38373c-0.626015,-0.377971 -1.06541,23.9433 0.501993,24.4453 1.5674,0.504356 20.499,-11.436 21.4392,-12.4423 0.940204,-1.00517 -18.7438,-13.3235 -21.9412,-12.003z"
       id="path107" /><g
       id="_115569808"><path
         id="_109589192"
         class="fil81"
         d="M31.3137 14.4291c-3.06511,0.139377 -5.49122,-0.41695 -8.6142,-1.88749 -3.30371,-1.5485 -7.48501,-5.53019 -12.4116,-7.73424l-0.866972 0c5.18884,2.12491 9.58276,6.3889 13.0235,8.00118 3.22457,1.52015 5.71209,2.08357 8.86933,1.92765l0 -0.307102z" /><path
         id="_86503344"
         class="fil82"
         d="M31.3137 14.142c-3.27063,0.170087 -5.78769,-0.385058 -9.05478,-1.90994 -3.2978,-1.52606 -7.42832,-5.31877 -12.2498,-7.42477l-0.879965 0c5.08962,2.02569 9.43983,6.10424 12.8829,7.69762 3.36395,1.57331 5.94006,2.13554 9.30164,1.94655l0 -0.309464z" /><path
         id="_112790240"
         class="fil83"
         d="M31.3137 13.8609c-3.48088,0.196073 -6.0877,-0.361435 -9.49299,-1.93828 -3.28717,-1.50125 -7.36099,-5.10616 -12.0715,-7.11531l-0.898863 0c4.98804,1.92884 9.28983,5.82312 12.7282,7.39406 3.50332,1.62291 6.16448,2.18633 9.73512,1.97018l0 -0.310645z" /><path
         id="_114185920"
         class="fil84"
         d="M31.3137 13.5845c-3.69467,0.217334 -6.39008,-0.34608 -9.93238,-1.97254 -3.27181,-1.47409 -7.28185,-4.88882 -11.8754,-6.80467l-0.917762 0c4.87937,1.83789 9.12801,5.54201 12.5581,7.08933 3.63561,1.67134 6.38299,2.23712 10.1674,2.00089l0 -0.313008z" /><path
         id="_111563824"
         class="fil85"
         d="M31.3137 13.314c-3.91318,0.231507 -6.696,-0.337812 -10.3718,-2.0127 -3.24937,-1.44574 -7.19445,-4.67031 -11.6663,-6.49402l-0.935479 0c4.76716,1.74576 8.95556,5.26325 12.3738,6.78459 3.7679,1.71741 6.59914,2.29027 10.5997,2.03986l0 -0.317732z" /><path
         id="_84663976"
         class="fil86"
         d="M31.3126 13.0554c-4.1317,0.237413 -7.00074,-0.344899 -10.8088,-2.06349 -3.22221,-1.41503 -7.09169,-4.45061 -11.4407,-6.18456l-0.954378 0c4.64787,1.66071 8.77484,4.98686 12.173,6.48103 3.89547,1.76111 6.81175,2.34342 11.032,2.08357l-0.00118116 -0.316551z" /><path
         id="_81677952"
         class="fil87"
         d="M31.3126 12.8038c-4.35376,0.235051 -7.31256,-0.360254 -11.2482,-2.12136 -3.18795,-1.38196 -6.97475,-4.22974 -11.1939,-5.87509l-0.97682 0c4.52857,1.57449 8.57995,4.71283 11.9545,6.17747 4.02539,1.80127 7.02436,2.39776 11.4655,2.14026l-0.00118116 -0.321276z" /><path
         id="_51801696"
         class="fil88"
         d="M31.3126 12.5664c-4.577,0.223239 -7.62321,-0.393326 -11.6888,-2.1946 -3.14189,-1.34416 -6.83774,-4.00177 -10.9175,-5.56445l-1.00281 0c4.39746,1.49417 8.37088,4.43998 11.7136,5.87273 4.14824,1.84261 7.23225,2.45681 11.8955,2.20641l0 -0.320094z" /><path
         id="_112267264"
         class="fil89"
         d="M31.3126 12.3372c-4.80142,0.206703 -7.93622,-0.434667 -12.1282,-2.27492 -3.08992,-1.30636 -6.68537,-3.77617 -10.6222,-5.25498l-1.02643 0c4.26163,1.41739 8.14765,4.17068 11.4478,5.56799 4.27344,1.88041 7.44249,2.51823 12.329,2.28555l0 -0.323638z" /><path
         id="_86746784"
         class="fil90"
         d="M31.3126 12.1258c-5.02348,0.175993 -8.25041,-0.496087 -12.5675,-2.37295 -3.02731,-1.26502 -6.51528,-3.54939 -10.3021,-4.94552l-1.04651 0c4.11871,1.34298 7.90551,3.90492 11.1549,5.26443 4.3951,1.91584 7.65156,2.58202 12.7613,2.37649l0 -0.322457z" /><path
         id="_112661720"
         class="fil91"
         d="M31.3126 11.925c-5.24553,0.139377 -8.56578,-0.570501 -13.0069,-2.48162 -2.95408,-1.21778 -6.32157,-3.31906 -9.94891,-4.63605l-1.07131 0c3.96752,1.26975 7.64565,3.6427 10.8336,4.96087 4.51558,1.94891 7.86062,2.64934 13.1936,2.48044l0 -0.323638z" /><path
         id="_82673000"
         class="fil92"
         d="M31.3114 11.7419c-5.46523,0.0921305 -8.87996,-0.664993 -13.4463,-2.61036 -2.86786,-1.16817 -6.10424,-3.08755 -9.56504,-4.32423l-1.09375 0c3.80806,1.20006 7.36454,3.38284 10.4804,4.65613 4.63724,1.98081 8.07441,2.72612 13.6259,2.6021l-0.00118116 -0.323638z" /><path
         id="_85830448"
         class="fil93"
         d="M31.3114 11.5742c-5.68138,0.0342537 -9.19652,-0.774841 -13.8845,-2.7521 -2.76864,-1.11502 -5.86328,-2.85723 -9.14809,-4.01476l-1.11738 0c3.63797,1.13273 7.06216,3.13008 10.0918,4.3514 4.75653,2.01152 8.28938,2.8088 14.0594,2.74147l-0.00118116 -0.326z" /><path
         id="_87712880"
         class="fil94"
         d="M31.3114 11.4277c-5.89281,-0.036616 -9.5107,-0.907131 -14.3239,-2.91629 -2.65879,-1.05596 -5.59398,-2.62454 -8.69216,-3.70412l-1.141 0c3.45726,1.06659 6.73498,2.88085 9.66662,4.04666 4.87701,2.04223 8.50908,2.89857 14.4905,2.89857l0 -0.324819z" /><path
         id="_82617440"
         class="fil95"
         d="M31.3114 11.2978c-6.09951,-0.116935 -9.82489,-1.05714 -14.7621,-3.09582 -2.52886,-0.993356 -5.2975,-2.39539 -8.19725,-3.39466l-1.16817 0c3.26945,1.00044 6.38772,2.63399 9.20596,3.74192 4.99749,2.07176 8.7335,2.99542 14.9216,3.07338l0 -0.324819z" /><path
         id="_86499024"
         class="fil96"
         d="M31.3114 11.1903c-6.30031,-0.209065 -10.1391,-1.23077 -15.2015,-3.29898 -2.38594,-0.92603 -4.96914,-2.16507 -7.66219,-3.08401l-1.18825 0c3.06747,0.933117 6.01093,2.39421 8.69688,3.43836 5.12151,2.09892 8.96383,3.10055 15.3551,3.27181l0 -0.327181z" /><path
         id="_85628680"
         class="fil97"
         d="M31.3114 11.1065c-6.49284,-0.31537 -10.4497,-1.4292 -15.6421,-3.52576 -2.22176,-0.851617 -4.60534,-1.93592 -7.07869,-2.77336l-1.21069 0c2.85486,0.866972 5.60579,2.15916 8.1441,3.1348 5.24553,2.12491 9.20242,3.21748 15.7874,3.49151l0 -0.327181z" /><path
         id="_87903488"
         class="fil98"
         d="M31.3114 11.0462c-6.67592,-0.433486 -10.7568,-1.65008 -16.0815,-3.77381 -2.04223,-0.77366 -4.21202,-1.7115 -6.45032,-2.46508l-1.23313 0c2.6269,0.797283 5.17466,1.93002 7.54525,2.83124 5.3731,2.15089 9.45047,3.34505 16.2197,3.73483l0 -0.327181z" /><path
         id="_85769928"
         class="fil99"
         d="M31.3114 11.0131c-6.84601,-0.564595 -11.0627,-1.90049 -16.5209,-4.05138 -1.84379,-0.689798 -3.78326,-1.48826 -5.77587,-2.15444l-1.25557 0c2.38949,0.725233 4.71519,1.7056 6.90034,2.5265 5.50185,2.17688 9.71032,3.48797 16.652,4.00768l0 -0.328363z" /><path
         id="_52465168"
         class="fil100"
         d="M31.3114 11.1088l-0.279935 -0.126384c-6.84246,-0.720508 -11.1572,-2.17924 -16.6803,-4.33013 -1.62528,-0.601211 -3.31906,-1.26739 -5.053,-1.84497l-1.27329 0c2.13554,0.650819 4.22147,1.48708 6.20227,2.22294 5.53019,2.16152 9.81662,3.59073 16.6827,4.2699l0.401595 0.181899 0 -0.373247z" /><path
         id="_81754184"
         class="fil101"
         d="M31.3114 11.3769c-0.309464,-0.151189 -0.624834,-0.304739 -0.943747,-0.457109 -6.61096,-0.894138 -10.9706,-2.46863 -16.4559,-4.57818 -1.38668,-0.507899 -2.82179,-1.04769 -4.28407,-1.53433l-1.29219 0c1.86978,0.572863 3.70294,1.27329 5.45932,1.91702 5.48531,2.11782 9.81308,3.6616 16.4394,4.51558 0.364979,0.173631 0.724051,0.348442 1.07722,0.520892l0 -0.383877z" /><path
         id="_87350688"
         class="fil102"
         d="M31.3114 11.6911c-0.520892,-0.27521 -1.05832,-0.553964 -1.60992,-0.833899 -6.37709,-1.06895 -10.7805,-2.75683 -16.2291,-4.82504 -1.13273,-0.409863 -2.29381,-0.833899 -3.47261,-1.22486l-1.30636 0c1.5922,0.490182 3.15724,1.06541 4.66913,1.61347 5.44043,2.07412 9.8119,3.72892 16.1973,4.76008 0.602392,0.303558 1.18825,0.605935 1.75284,0.904769l-0.00118116 -0.394508z" /><path
         id="_111150768"
         class="fil103"
         d="M31.3126 12.0549c-0.72287,-0.413406 -1.48472,-0.837443 -2.2761,-1.25912 -6.14203,-1.24494 -10.5915,-3.04621 -16.0035,-5.07427 -0.862247,-0.308283 -1.73867,-0.618928 -2.6269,-0.914218l-1.31463 0c1.30282,0.405138 2.58674,0.861066 3.83759,1.30991 5.39908,2.02805 9.81072,3.79743 15.9563,5.00221 0.848073,0.451203 1.66071,0.902407 2.42728,1.33944l0 -0.403957z" /><path
         id="_51265704"
         class="fil104"
         d="M31.3126 12.4683c-0.913037,-0.563414 -1.89812,-1.15045 -2.94227,-1.73512 -5.90698,-1.41975 -10.4025,-3.3356 -15.7768,-5.31995 -0.577587,-0.205522 -1.1599,-0.408682 -1.74812,-0.605935l-1.32054 0c1.00399,0.316551 1.99852,0.660269 2.97298,1.00517 5.35302,1.98553 9.80718,3.86712 15.713,5.24671 1.10675,0.620109 2.14617,1.23668 3.10173,1.82726l0 -0.418131z" /><path
         id="_85142456"
         class="fil105"
         d="M31.3126 12.9384c-1.08549,-0.727595 -2.29972,-1.49771 -3.60845,-2.26665 -5.67311,-1.59693 -10.2123,-3.62498 -15.5488,-5.57035l-0.856341 -0.294109 -1.31463 0c0.700428,0.22442 1.39495,0.460653 2.08002,0.701609 5.3105,1.94065 9.80599,3.93563 15.4732,5.49003 1.3796,0.809095 2.65052,1.61937 3.77617,2.37295l-0.00118116 -0.433486z" /><path
         id="_85143144"
         class="fil106"
         d="M31.3137 13.4723c-1.23549,-0.901225 -2.68123,-1.88395 -4.27462,-2.86431 -5.42507,-1.76465 -9.9997,-3.90019 -15.2819,-5.80068l-1.29928 0c0.393326,0.128746 0.785472,0.262218 1.17407,0.39687 5.26679,1.89812 9.80481,4.00532 15.2299,5.73335 1.67489,1.02879 3.18441,2.0564 4.45179,2.98479l0 -0.450022z" /><path
         id="_112675328"
         class="fil107"
         d="M31.3137 14.0783c-1.35125,-1.08667 -3.03558,-2.31271 -4.93961,-3.53167 -4.90536,-1.83198 -9.30046,-3.94271 -14.194,-5.73926l-1.25321 0 0.271667 0.0921305c5.22545,1.85442 9.80245,4.07382 14.9877,5.97785 2.00443,1.28038 3.75491,2.56312 5.12742,3.67341l0 -0.472464z" /><path
         id="_51199392"
         class="fil108"
         d="M31.3137 14.7751c-1.41975,-1.27683 -3.35213,-2.79108 -5.60579,-4.29116 -4.41045,-1.88041 -8.5894,-3.96043 -13.1251,-5.67666l-1.21896 0c4.93961,1.77647 9.39259,4.0124 14.1491,6.00974 2.37531,1.58157 4.38329,3.16787 5.80068,4.46006l0 -0.501993z" /><path
         id="_84592416"
         class="fil109"
         d="M31.3149 15.5949l-0.0614203 -0.066145c-1.41149,-1.45519 -3.58246,-3.29071 -6.21054,-5.10616 -3.94744,-1.9123 -7.88425,-3.95807 -12.088,-5.61524l-1.17998 0c4.57345,1.70914 8.80083,3.90846 13.0636,5.94951 2.57965,1.78119 4.70456,3.57183 6.09124,4.98332l0.385058 0.424037 0 -0.569319z" /><path
         id="_82573896"
         class="fil110"
         d="M31.3149 16.567c-0.249225,-0.285841 -0.49845,-0.575225 -0.752399,-0.868153 -1.36897,-1.52606 -3.53758,-3.44426 -6.18574,-5.33885 -3.51631,-1.93002 -7.19563,-3.93681 -11.0911,-5.55264l-1.141 0c4.24037,1.65835 8.21497,3.82224 12.0183,5.89045 2.59855,1.85797 4.7211,3.73129 6.06408,5.2101 0.367341,0.431124 0.728776,0.851617 1.08903,1.26739l-0.00118116 -0.608298z" /><path
         id="_113707584"
         class="fil111"
         d="M31.3161 17.6253c-0.477189,-0.568138 -0.955559,-1.15399 -1.44338,-1.75639 -1.33117,-1.59575 -3.49269,-3.59663 -6.16093,-5.57035 -3.12299,-1.93592 -6.53654,-3.90728 -10.1473,-5.49122l-1.08903 0c3.92972,1.62528 7.6362,3.749 11.0131,5.82903 2.61745,1.9371 4.73291,3.88956 6.03573,5.43924 0.607116,0.754762 1.19888,1.48354 1.79182,2.18515l0 -0.635464z" /><path
         id="_85389728"
         class="fil112"
         d="M31.3161 18.7592c-0.706334,-0.865791 -1.40912,-1.77056 -2.13318,-2.71785 -1.29219,-1.6678 -3.45017,-3.75137 -6.13731,-5.8054 -2.76392,-1.93238 -5.91407,-3.8683 -9.25912,-5.42861l-1.0347 0c3.63916,1.60165 7.07633,3.6864 10.0635,5.76879 2.63635,2.01388 4.7459,4.04902 6.00502,5.66839 0.846892,1.11265 1.66426,2.16743 2.49697,3.16905l-0.00118116 -0.654363z" /></g><g
       id="_89051656"><path
         id="_51778160"
         class="fil80"
         d="M9.65835 7.17083c-0.546877,-0.329544 -0.930754,20.8817 0.438211,21.3199 1.36424,0.438211 17.8757,-9.97372 18.6942,-10.8513 0.820907,-0.876421 -16.3449,-11.6179 -19.1324,-10.4686z" /><g
         id="g144"><path
           id="_85799328"
           class="fil113"
           d="M9.77883 7.47911c-0.531522,-0.318913 -0.900044,20.2746 0.425218,20.701 1.32762,0.425218 17.3583,-9.68788 18.1556,-10.5383 0.796102,-0.850436 -15.8724,-11.2824 -18.5808,-10.1627z" /><path
           id="_29719104"
           class="fil114"
           d="M9.90167 7.78621c-0.514986,-0.308283 -0.874059,19.6699 0.412225,20.0821 1.28746,0.413406 16.8398,-9.39731 17.6099,-10.2206 0.77366,-0.825631 -15.3952,-10.9446 -18.0221,-9.86151z" /><path
           id="_89140432"
           class="fil115"
           d="M10.0245 8.09567c-0.49845,-0.300015 -0.848073,19.0639 0.398051,19.4608 1.24849,0.402776 16.3201,-9.10439 17.0678,-9.90403 0.751218,-0.802008 -14.9204,-10.6068 -17.4658,-9.55677z" /><path
           id="_82953048"
           class="fil116"
           d="M10.1462 8.40396c-0.483095,-0.290565 -0.820907,18.4556 0.387421,18.8431 1.20715,0.386239 15.7992,-8.81618 16.5256,-9.59102 0.724051,-0.776022 -14.4491,-10.269 -16.913,-9.25203z" /><path
           id="_85424120"
           class="fil117"
           d="M10.2678 8.71224c-0.466558,-0.282297 -0.79374,17.8497 0.374428,18.2241 1.16817,0.374428 15.2807,-8.5268 15.9811,-9.27565 0.701609,-0.750037 -13.9708,-9.9312 -16.3555,-8.94847z" /><path
           id="_82586104"
           class="fil118"
           d="M10.3907 9.02289c-0.450022,-0.271667 -0.768935,17.2402 0.360254,17.6052 1.12919,0.359073 14.7633,-8.23859 15.4389,-8.96383 0.677986,-0.72287 -13.4959,-9.5922 -15.7992,-8.64137z" /><path
           id="_85931632"
           class="fil119"
           d="M10.5135 9.32881c-0.437029,-0.261036 -0.741769,16.639 0.347261,16.9863 1.08903,0.349624 14.2436,-7.94803 14.898,-8.64491 0.653182,-0.698066 -13.0258,-9.25675 -15.2452,-8.34136z" /><path
           id="_30045128"
           class="fil120"
           d="M10.6352 9.63945c-0.419312,-0.25395 -0.714602,16.0283 0.336631,16.3662 1.04887,0.334268 13.7239,-7.65864 14.3511,-8.33191 0.63074,-0.673261 -12.5486,-8.91894 -14.6877,-8.03425z" /></g><path
         id="_85530536"
         class="fil121"
         d="M10.7556 9.94655c-0.402776,-0.240957 -0.685073,15.4236 0.322457,15.7484 1.00989,0.324819 13.2066,-7.36808 13.8113,-8.01654 0.607116,-0.646095 -12.0738,-8.58231 -14.1338,-7.73188z" /></g><polygon
       class="fil122"
       points="25.3394,17.395 17.8946,21.6944 10.0989,26.4474 10.0481,8.24332 17.8946,13.0979 "
       id="polygon155" /><path
       class="fil123"
       d="M31.1059 5.22664l0.181899 23.296c0.00708696,0.83508 -0.690979,1.53315 -1.53315,1.53315 -10.0966,0 -10.0304,0 -27.2529,0 -0.840986,0 -1.5296,-0.689798 -1.53315,-1.53315l0 -22.1822c0,-0.602392 0.353167,-1.12683 0.862247,-1.37723l0.137015 23.5594c0,0.146464 0.0602392,0.279935 0.154732,0.374428l0.00472464 0.00472464c0.0944928,0.0944928 0.229145,0.154732 0.374428,0.154732l27.2529 0c0.14292,0 0.277573,-0.0626015 0.374428,-0.159457 0.0968552,-0.0968552 0.159457,-0.231507 0.159457,-0.374428l-0.184261 -23.7153c0.386239,0.0118116 0.737044,0.170087 1.00162,0.419312z"
       id="path157" /><path
       class="fil124"
       d="M2.5643 28.486l-0.165362 0.179536m27.2813 -0.0188986l-0.184261 -0.163"
       id="path159" /><polygon
       class="fil125"
       points="31.3657,7.07869 31.3657,28.4719 31.1224,28.4719 31.1224,7.07869 "
       id="polygon161" /><path
       class="fil126"
       d="M1.94183 2.94936l27.964 0.0496087 0 -0.00236232 0.0389783 0 0.0059058 0.00236232c0.585856,0.00708696 1.09021,0.163 1.45991,0.497269l0.00118116 -0.00118116c0.380334,0.342537 0.598848,0.849254 0.598848,1.54141l0 0.0354348 -0.00236232 0.0059058 -0.0271667 2.13081 -0.00708696 0.494906 -0.00826812 0 0 21.2231c0,0.556327 -0.231507,1.06423 -0.598848,1.43393 -0.367341,0.369703 -0.878783,0.60003 -1.43511,0.60003l-27.9132 0c-0.556327,0 -1.06777,-0.230326 -1.43511,-0.60003l0 0.00118116c-0.367341,-0.367341 -0.597667,-0.876421 -0.597667,-1.43511l0 -21.2231 -0.00944928 0 0 -0.500812 0 -2.13081 0.00236232 -0.0141739 0.00354348 -0.12166 0 -0.0118116c0.0259855,-0.50908 0.197254,-0.992175 0.497269,-1.35007 0.321276,-0.386239 0.783109,-0.629559 1.36424,-0.629559l0.0141739 0.00236232 0.0838624 0.00236232zm27.964 1.04651l-27.9781 -0.0496087 -0.0141739 0 -0.0696885 -0.00236232 0 0.00236232c-0.261036,0 -0.463015,0.102761 -0.598848,0.265761l-0.00118116 0.00118116c-0.157094,0.187805 -0.249225,0.463015 -0.26458,0.76303l-0.00354348 0.095674 0.00236232 0 0 1.63 0.00944928 0 0 0.500812 0 21.7239c0,0.283479 0.116935,0.543334 0.302377,0.728776l0 0.00118116c0.185442,0.186623 0.445298,0.302377 0.728776,0.302377l27.9132 0c0.283479,0 0.543334,-0.115754 0.728776,-0.302377 0.186623,-0.186623 0.303558,-0.446479 0.303558,-0.729957l0 -21.7239 0 -0.500812 0.0259855 0 0.0212609 -1.63 -0.00236232 0 0 -0.0354348c0,-0.386239 -0.0980363,-0.648457 -0.265761,-0.799646l0 -0.00118116c-0.174812,-0.158276 -0.454747,-0.235051 -0.798464,-0.239776l0 0.00236232 -0.0389783 0 0 -0.00236232z"
       id="path163" /></g></svg>