<?xml version="1.0" encoding="UTF-8" standalone="no"?>
<!-- Creator: CorelDRAW -->

<svg
   xmlns:dc="http://purl.org/dc/elements/1.1/"
   xmlns:cc="http://creativecommons.org/ns#"
   xmlns:rdf="http://www.w3.org/1999/02/22-rdf-syntax-ns#"
   xmlns:svg="http://www.w3.org/2000/svg"
   xmlns="http://www.w3.org/2000/svg"
   xmlns:xlink="http://www.w3.org/1999/xlink"
   xmlns:sodipodi="http://sodipodi.sourceforge.net/DTD/sodipodi-0.dtd"
   xmlns:inkscape="http://www.inkscape.org/namespaces/inkscape"
   xml:space="preserve"
   width="64px"
   height="64px"
   style="shape-rendering:geometricPrecision; text-rendering:geometricPrecision; image-rendering:optimizeQuality; fill-rule:evenodd; clip-rule:evenodd"
   viewBox="0 0 64 64"
   id="svg2"
   version="1.1"
   inkscape:version="0.91 r13725"
   sodipodi:docname="amarok.svg"><metadata
     id="metadata175"><rdf:RDF><cc:Work
         rdf:about=""><dc:format>image/svg+xml</dc:format><dc:type
           rdf:resource="http://purl.org/dc/dcmitype/StillImage" /></cc:Work></rdf:RDF></metadata><sodipodi:namedview
     pagecolor="#ffffff"
     bordercolor="#666666"
     borderopacity="1"
     objecttolerance="10"
     gridtolerance="10"
     guidetolerance="10"
     inkscape:pageopacity="0"
     inkscape:pageshadow="2"
     inkscape:window-width="1680"
     inkscape:window-height="995"
     id="namedview173"
     showgrid="false"
     inkscape:zoom="3.6875"
     inkscape:cx="-27.254237"
     inkscape:cy="32"
     inkscape:window-x="0"
     inkscape:window-y="28"
     inkscape:window-maximized="1"
     inkscape:current-layer="svg2" /><defs
     id="defs4"><style
       type="text/css"
       id="style6"><![CDATA[
    .fil15 {fill:none}
    .fil125 {fill:white}
    .fil127 {fill:#4E87B4;fill-rule:nonzero}
    .fil126 {fill:#BCE6FF;fill-rule:nonzero}
    .fil0 {fill:black;fill-opacity:0.000000}
    .fil83 {fill:#A3EFF7;fill-opacity:0.000000}
    .fil1 {fill:black;fill-opacity:0.003922}
    .fil2 {fill:black;fill-opacity:0.007843}
    .fil116 {fill:#A3EFF7;fill-opacity:0.011765}
    .fil3 {fill:black;fill-opacity:0.015686}
    .fil82 {fill:#64A4DB;fill-opacity:0.015686}
    .fil115 {fill:#88C8E8;fill-opacity:0.015686}
    .fil50 {fill:#B8E7FF;fill-opacity:0.015686}
    .fil4 {fill:black;fill-opacity:0.019608}
    .fil5 {fill:black;fill-opacity:0.023529}
    .fil117 {fill:#A3EFF7;fill-opacity:0.027451}
    .fil6 {fill:black;fill-opacity:0.027451}
    .fil81 {fill:#64A4DB;fill-opacity:0.031373}
    .fil114 {fill:#88C8E8;fill-opacity:0.031373}
    .fil49 {fill:#B8E7FF;fill-opacity:0.031373}
    .fil7 {fill:black;fill-opacity:0.031373}
    .fil8 {fill:black;fill-opacity:0.035294}
    .fil118 {fill:#A3EFF7;fill-opacity:0.039216}
    .fil9 {fill:black;fill-opacity:0.043137}
    .fil80 {fill:#64A4DB;fill-opacity:0.047059}
    .fil113 {fill:#88C8E8;fill-opacity:0.047059}
    .fil48 {fill:#B8E7FF;fill-opacity:0.047059}
    .fil10 {fill:black;fill-opacity:0.047059}
    .fil11 {fill:black;fill-opacity:0.050980}
    .fil119 {fill:#A3EFF7;fill-opacity:0.054902}
    .fil12 {fill:black;fill-opacity:0.054902}
    .fil13 {fill:black;fill-opacity:0.058824}
    .fil79 {fill:#64A4DB;fill-opacity:0.058824}
    .fil112 {fill:#88C8E8;fill-opacity:0.058824}
    .fil47 {fill:#B8E7FF;fill-opacity:0.058824}
    .fil120 {fill:#A3EFF7;fill-opacity:0.066667}
    .fil78 {fill:#64A4DB;fill-opacity:0.074510}
    .fil111 {fill:#88C8E8;fill-opacity:0.074510}
    .fil46 {fill:#B8E7FF;fill-opacity:0.074510}
    .fil121 {fill:#A3EFF7;fill-opacity:0.078431}
    .fil77 {fill:#64A4DB;fill-opacity:0.090196}
    .fil110 {fill:#88C8E8;fill-opacity:0.090196}
    .fil45 {fill:#B8E7FF;fill-opacity:0.090196}
    .fil122 {fill:#A3EFF7;fill-opacity:0.094118}
    .fil76 {fill:#64A4DB;fill-opacity:0.105882}
    .fil109 {fill:#88C8E8;fill-opacity:0.105882}
    .fil44 {fill:#B8E7FF;fill-opacity:0.105882}
    .fil123 {fill:#A3EFF7;fill-opacity:0.105882}
    .fil124 {fill:#A3EFF7;fill-opacity:0.121569}
    .fil75 {fill:#64A4DB;fill-opacity:0.121569}
    .fil108 {fill:#88C8E8;fill-opacity:0.121569}
    .fil43 {fill:#B8E7FF;fill-opacity:0.121569}
    .fil74 {fill:#64A4DB;fill-opacity:0.137255}
    .fil107 {fill:#88C8E8;fill-opacity:0.137255}
    .fil42 {fill:#B8E7FF;fill-opacity:0.137255}
    .fil73 {fill:#64A4DB;fill-opacity:0.152941}
    .fil106 {fill:#88C8E8;fill-opacity:0.152941}
    .fil41 {fill:#B8E7FF;fill-opacity:0.152941}
    .fil72 {fill:#64A4DB;fill-opacity:0.164706}
    .fil105 {fill:#88C8E8;fill-opacity:0.164706}
    .fil40 {fill:#B8E7FF;fill-opacity:0.164706}
    .fil71 {fill:#64A4DB;fill-opacity:0.180392}
    .fil104 {fill:#88C8E8;fill-opacity:0.180392}
    .fil39 {fill:#B8E7FF;fill-opacity:0.180392}
    .fil70 {fill:#64A4DB;fill-opacity:0.196078}
    .fil103 {fill:#88C8E8;fill-opacity:0.196078}
    .fil38 {fill:#B8E7FF;fill-opacity:0.196078}
    .fil69 {fill:#64A4DB;fill-opacity:0.211765}
    .fil102 {fill:#88C8E8;fill-opacity:0.211765}
    .fil37 {fill:#B8E7FF;fill-opacity:0.211765}
    .fil68 {fill:#64A4DB;fill-opacity:0.227451}
    .fil101 {fill:#88C8E8;fill-opacity:0.227451}
    .fil36 {fill:#B8E7FF;fill-opacity:0.227451}
    .fil67 {fill:#64A4DB;fill-opacity:0.243137}
    .fil100 {fill:#88C8E8;fill-opacity:0.243137}
    .fil35 {fill:#B8E7FF;fill-opacity:0.243137}
    .fil66 {fill:#64A4DB;fill-opacity:0.258824}
    .fil99 {fill:#88C8E8;fill-opacity:0.258824}
    .fil34 {fill:#B8E7FF;fill-opacity:0.258824}
    .fil65 {fill:#64A4DB;fill-opacity:0.274510}
    .fil98 {fill:#88C8E8;fill-opacity:0.274510}
    .fil33 {fill:#B8E7FF;fill-opacity:0.274510}
    .fil64 {fill:#64A4DB;fill-opacity:0.286275}
    .fil97 {fill:#88C8E8;fill-opacity:0.286275}
    .fil32 {fill:#B8E7FF;fill-opacity:0.286275}
    .fil63 {fill:#64A4DB;fill-opacity:0.301961}
    .fil96 {fill:#88C8E8;fill-opacity:0.301961}
    .fil31 {fill:#B8E7FF;fill-opacity:0.301961}
    .fil62 {fill:#64A4DB;fill-opacity:0.317647}
    .fil95 {fill:#88C8E8;fill-opacity:0.317647}
    .fil30 {fill:#B8E7FF;fill-opacity:0.317647}
    .fil61 {fill:#64A4DB;fill-opacity:0.333333}
    .fil94 {fill:#88C8E8;fill-opacity:0.333333}
    .fil29 {fill:#B8E7FF;fill-opacity:0.333333}
    .fil60 {fill:#64A4DB;fill-opacity:0.349020}
    .fil93 {fill:#88C8E8;fill-opacity:0.349020}
    .fil28 {fill:#B8E7FF;fill-opacity:0.349020}
    .fil59 {fill:#64A4DB;fill-opacity:0.364706}
    .fil92 {fill:#88C8E8;fill-opacity:0.364706}
    .fil27 {fill:#B8E7FF;fill-opacity:0.364706}
    .fil58 {fill:#64A4DB;fill-opacity:0.380392}
    .fil91 {fill:#88C8E8;fill-opacity:0.380392}
    .fil26 {fill:#B8E7FF;fill-opacity:0.380392}
    .fil57 {fill:#64A4DB;fill-opacity:0.392157}
    .fil90 {fill:#88C8E8;fill-opacity:0.392157}
    .fil25 {fill:#B8E7FF;fill-opacity:0.392157}
    .fil56 {fill:#64A4DB;fill-opacity:0.407843}
    .fil89 {fill:#88C8E8;fill-opacity:0.407843}
    .fil24 {fill:#B8E7FF;fill-opacity:0.407843}
    .fil55 {fill:#64A4DB;fill-opacity:0.423529}
    .fil88 {fill:#88C8E8;fill-opacity:0.423529}
    .fil23 {fill:#B8E7FF;fill-opacity:0.423529}
    .fil54 {fill:#64A4DB;fill-opacity:0.439216}
    .fil87 {fill:#88C8E8;fill-opacity:0.439216}
    .fil22 {fill:#B8E7FF;fill-opacity:0.439216}
    .fil16 {fill:#5B98C8;fill-opacity:0.439216}
    .fil53 {fill:#64A4DB;fill-opacity:0.454902}
    .fil86 {fill:#88C8E8;fill-opacity:0.454902}
    .fil21 {fill:#B8E7FF;fill-opacity:0.454902}
    .fil52 {fill:#64A4DB;fill-opacity:0.470588}
    .fil85 {fill:#88C8E8;fill-opacity:0.470588}
    .fil20 {fill:#B8E7FF;fill-opacity:0.470588}
    .fil51 {fill:#64A4DB;fill-opacity:0.486275}
    .fil84 {fill:#88C8E8;fill-opacity:0.486275}
    .fil19 {fill:#B8E7FF;fill-opacity:0.486275}
    .fil14 {fill:url(#id0)}
    .fil17 {fill:url(#id1)}
    .fil18 {fill:url(#id2);fill-rule:nonzero;fill-opacity:0.439216}
   ]]></style><linearGradient
       id="id0"
       gradientUnits="userSpaceOnUse"
       x1="32.1358"
       y1="6.20677"
       x2="31.9953"
       y2="20.5514"><stop
         offset="0"
         style="stop-color:#5CA2DA"
         id="stop9" /><stop
         offset="1"
         style="stop-color:#8DC8F4"
         id="stop11" /></linearGradient><linearGradient
       id="id1"
       gradientUnits="userSpaceOnUse"
       xlink:href="#id0"
       x1="32.3626"
       y1="22.9574"
       x2="31.8795"
       y2="47.0096" /><linearGradient
       id="id2"
       gradientUnits="userSpaceOnUse"
       x1="22.3692"
       y1="24.2105"
       x2="21.9747"
       y2="60.6504"><stop
         offset="0"
         style="stop-color:#88C8E8"
         id="stop15" /><stop
         offset="1"
         style="stop-color:#CCEDFF"
         id="stop17" /></linearGradient></defs><g
     id="Слой_x0020_1"><metadata
       id="CorelCorpID_0Corel-Layer" /><g
       id="_84594792"><path
         id="_50973136"
         class="fil0"
         d="M30.6594 54.0101c23.0956,-0.959067 30.8472,1.65829 33.2603,4.69494l0 4.17407c-3.71697,1.90278 -17.2786,0.395674 -32.1346,0.967335 -2.32916,0.0897649 -4.60754,0.177168 -6.8115,0.255121l-20.6129 0c-2.03388,-0.204333 -3.50792,-0.52914 -4.28037,-1.01458l0 -3.1772c1.68073,-2.42956 7.8875,-4.95715 30.5791,-5.89968z" /><g
         id="g23"><path
           id="_52144448"
           class="fil1"
           d="M30.7291 54.4908c23.3908,-0.935445 31.0681,1.89451 33.1906,4.96187l0 3.25398c-3.22327,2.00436 -17.0317,0.519691 -32.1051,1.06301 -3.4087,0.122836 -6.71819,0.240948 -9.83634,0.331894l-16.0313 0c-3.0272,-0.196065 -5.10242,-0.582291 -5.86661,-1.24844l0 -2.14018c1.23781,-2.48625 6.86465,-5.27014 30.6488,-6.22212z" /><path
           id="_81211968"
           class="fil2"
           d="M30.7976 54.9715c23.7593,-0.913003 31.4035,2.16735 33.1221,5.24416l0 2.28546c-2.5583,2.14373 -16.6986,0.67678 -32.0791,1.19057 -5.11896,0.171262 -10.0277,0.334256 -14.3931,0.409848l-8.56782 0c-5.08707,-0.134647 -8.39774,-0.589377 -8.79932,-1.62285l0 -0.70867c0.448824,-2.5394 4.88746,-5.80637 30.7173,-6.79851z" /><path
           id="_51867560"
           class="fil3"
           d="M30.8649 55.4523c24.4775,-0.895287 32.0602,2.5583 33.0547,5.63629l0 1.10671c-1.43388,2.42011 -16.1211,0.928358 -32.052,1.42088 -16.8286,0.51851 -31.5417,0.938988 -31.5417,-1.32167 0,-2.43783 4.291,-5.88196 30.539,-6.84221z" /><path
           id="_82285832"
           class="fil4"
           d="M30.9335 55.9318c24.9735,-0.863396 32.7169,2.91972 32.8079,5.9044 0.090946,2.752 -15.2553,1.23545 -31.8476,1.70081 -16.5923,0.467722 -31.2819,0.838593 -31.2819,-1.20828 0,-2.28546 5.3481,-5.53235 30.3216,-6.39693z" /><path
           id="_87954664"
           class="fil5"
           d="M31.0008 56.4137c23.6979,-0.766545 32.3638,2.75791 32.4453,5.51227 0.0803159,2.46263 -15.1691,1.12206 -31.5252,1.53663 -16.3573,0.414572 -31.0232,0.737017 -31.0232,-1.09844 0,-2.13192 6.4052,-5.18038 30.1031,-5.95047z" /><path
           id="_81279376"
           class="fil6"
           d="M31.0693 56.8968c22.4223,-0.672056 32.0106,2.59491 32.0815,5.11896 0.070867,2.17207 -15.0817,1.00749 -31.2039,1.37128 -16.1211,0.363784 -30.7634,0.636622 -30.7634,-0.987414 0,-1.97955 7.4623,-4.83077 29.8858,-5.50282z" /><path
           id="_82537360"
           class="fil7"
           d="M31.1366 57.3751c21.1479,-0.575204 31.6575,2.43192 31.7177,4.72565 0.0614181,1.88388 -14.9943,0.896468 -30.8803,1.2071 -15.886,0.311815 -30.5035,0.535046 -30.5035,-0.875208 0,-1.82719 8.51822,-4.48116 29.6661,-5.05754z" /><path
           id="_85942208"
           class="fil8"
           d="M31.2051 57.8582c19.8723,-0.480715 31.3043,2.26893 31.3551,4.33234 0.0496069,1.59451 -14.9092,0.783081 -30.5602,1.04293 -15.6498,0.259846 -30.2437,0.43347 -30.2437,-0.765364 0,-1.67482 9.57531,-4.13037 29.4488,-4.6099z" /><path
           id="_82867280"
           class="fil9"
           d="M31.2724 58.3389c18.5967,-0.382682 30.9512,2.10829 30.9913,3.94139 0.040158,1.30395 -14.8207,0.669693 -30.2366,0.87757 -15.4148,0.207877 -29.985,0.333075 -29.985,-0.654339 0,-1.52128 10.6336,-3.77957 29.2303,-4.16462z" /><path
           id="_29393784"
           class="fil10"
           d="M31.3409 58.8196c17.3223,-0.288193 30.598,1.9453 30.6287,3.54689 0.0295279,1.01694 -14.7356,0.557487 -29.9165,0.713395 -15.1785,0.155907 -29.7252,0.231499 -29.7252,-0.543314 0,-1.36773 11.6895,-3.42878 29.013,-3.71697z" /><path
           id="_87053328"
           class="fil11"
           d="M31.4083 59.3003c16.0467,-0.191341 30.2449,1.78467 30.2649,3.15476 0.020079,0.726387 -14.647,0.4441 -29.5929,0.549219 -14.9435,0.102757 -29.4653,0.129923 -29.4653,-0.432289 0,-1.21537 12.7466,-3.07917 28.7933,-3.27169z" /><path
           id="_82849688"
           class="fil12"
           d="M31.4768 59.7811c14.7722,-0.0968516 29.8917,1.62167 29.9012,2.76145 0.0106301,0.437013 -14.562,0.331894 -29.2716,0.382682 -14.7073,0.0519691 -29.2055,0.0295279 -29.2055,-0.320083 0,-1.06182 13.8025,-2.72838 28.5759,-2.82405z" /></g><path
         id="_114089960"
         class="fil13"
         d="M31.5417 60.2641c13.4978,0 29.5397,1.45986 29.5397,2.36932 0,0.29646 -57.8972,0.284649 -57.8972,0.00826782 0,-0.90946 14.8608,-2.37759 28.3574,-2.37759z" /></g><path
       class="fil14"
       d="M61.5161 19.9006l0.0826782 0.505518 -59.2094 0 0 -11.158c0,-0.673237 0.266932,-1.29096 0.707489,-1.77168 0.563393,-0.686229 1.41734,-1.12442 2.36696,-1.12442l53.0936 0c1.68663,0 3.18429,1.38899 3.16539,3.06854l-0.122836 10.4801 -0.0838593 0z"
       id="path38" /><path
       class="fil15"
       d="M1.989 10.6785c0,-0.673237 0.266932,-1.29214 0.706308,-1.77286 0.563393,-0.683867 1.41734,-1.12324 2.36814,-1.12324l53.494 0c1.68782,0 3.16776,1.34175 3.14177,3.01893"
       id="path40" /><path
       class="fil16"
       d="M61.6082 11.5431l0.0814971 -2.29019c0.0236223,-0.673237 -0.347248,-1.27561 -0.787805,-1.75632 -0.355516,-0.432289 -1.09608,-0.595283 -1.63467,-0.781899l-0.0318902 0.309453 0.36969 0 -0.0118112 1.16812 -0.459454 -0.14764 -0.278744 2.79216 -0.450006 0.0897649c0.441738,0.829144 2.39767,1.90396 3.1335,0.714576 0.0212601,-0.0330713 0.0448824,-0.0649614 0.0696859,-0.0980327z"
       id="path42" /><path
       class="fil16"
       d="M2.03743 11.8879l-0.0814971 -2.29019c-0.0236223,-0.673237 0.348429,-1.27561 0.787805,-1.75632 0.355516,-0.432289 1.12324,-0.832687 1.66183,-1.0193l0.0177168 0.201971 -0.138191 0 0 1.02048 0.229137 0 0.276381 3.13705 0.450006 0.0897649c-0.441738,0.829144 -2.39767,1.90396 -3.1335,0.714576 -0.020079,-0.0330713 -0.0437013,-0.0649614 -0.0696859,-0.0980327z"
       id="path44" /><path
       class="fil17"
       d="M2.39885 17.9813l-0.00826782 -6.84693c0,-0.673237 0.265751,-1.29214 0.706308,-1.77286 0.563393,-0.683867 1.41734,-1.12324 2.36814,-1.12324l53.0924 0c1.68782,0 3.16657,1.34293 3.14177,3.02012 -0.0342524,2.32444 0.151183,4.66423 0.144096,6.92961l-0.151183 40.4698c-0.00472447,1.67955 -1.35356,3.0709 -3.00476,3.0709 -19.7884,0 -19.4908,0 -53.2412,0 -1.65002,0 -3.0024,-1.38191 -3.00358,-3.0709l-0.0519691 -40.4698c0,-0.0685048 0.00236223,-0.13701 0.00826782,-0.206695z"
       id="path46" /><path
       class="fil18"
       d="M2.39885 17.9813l-0.00826782 -7.85915c0,-0.355516 0.0755915,-0.694497 0.209058,-1.00749l1.83073 0c-0.0649614,0.0566936 -0.125198,0.119293 -0.17953,0.184254l-0.0519691 0.0637803c-0.105119,0.113387 -0.187798,0.240948 -0.237404,0.364965l0.00472447 0.00236223c-0.0484258,0.122836 -0.0755915,0.256302 -0.0755915,0.392131l-0.00590558 0 0.00826782 7.85915 -1.49411 0zm59.0783 -8.86664c0.14764,0.349611 0.227956,0.731111 0.22205,1.13151 -0.0342524,2.32444 0.151183,5.67645 0.144096,7.94183l-0.151183 40.4698c-0.00472447,1.67955 -1.35356,3.0709 -3.00476,3.0709 -19.7884,0 -19.4908,0 -53.2412,0 -1.65002,0 -3.0024,-1.38191 -3.00358,-3.0709l-0.0519691 -40.4698c0,-0.0685048 0.00236223,-0.13701 0.00826782,-0.206695l1.49411 0.0590558 -0.00826782 0.204333 0.0519691 40.4131 0.00590558 0c0,0.439375 0.173624,0.837412 0.450006,1.1197 0.271657,0.277562 0.646071,0.451187 1.05356,0.451187l53.2412 0c0.405123,0 0.775994,-0.171262 1.04411,-0.445281 0.28583,-0.292917 0.46536,-0.694497 0.466541,-1.1256l0.151183 -40.4698c0.00236223,-1.00277 -0.0366146,-2.07168 -0.0732292,-3.14059 -0.0448824,-1.24372 -0.0897649,-3.515 -0.070867,-4.80124l-0.00590558 0 0 -0.0413391 0.00590558 0c0,-0.387406 -0.17953,-0.747647 -0.458273,-1.01222l-0.0874027 -0.0779537 1.81774 0z"
       id="path48" /><g
       id="_82841736"><g
         id="g51"><path
           id="_83132184"
           class="fil19"
           d="M2.77208 30.2118c4.71502,-0.709851 9.52925,-0.0862215 14.0884,2.87956 2.68704,1.76223 5.11424,3.39571 7.2993,4.87093 11.7568,8.18632 15.3852,10.6856 24.6416,7.49419 3.32012,-1.0949 7.83907,-4.08076 12.6604,-6.62016l0 0.601189c-4.76935,2.52877 -9.24224,5.47802 -12.5328,6.56701 -9.45484,3.26343 -13.1198,0.74056 -25.0172,-7.54497 -2.1579,-1.45868 -4.55557,-3.0709 -7.28395,-4.86502 -4.41265,-2.86185 -9.16074,-3.4028 -13.8557,-2.65515l0 -0.727568z" /><path
           id="_82460272"
           class="fil20"
           d="M2.77208 31.0386l0.181892 -0.0283468c4.86148,-0.734655 9.81744,-0.201971 14.5407,2.72011 2.68468,1.69372 5.15439,3.27878 7.3997,4.73982 11.5749,7.97136 15.2966,10.4824 24.4373,7.54261 3.22917,-0.942531 7.54261,-3.5965 12.1301,-5.88078l0 0.579928c-4.54494,2.27956 -8.81704,4.91345 -12.0167,5.85243 -9.33082,3.01539 -13.0856,0.478352 -24.7928,-7.58868 -2.21814,-1.44332 -4.65596,-3.01067 -7.37962,-4.7351 -4.49533,-2.76027 -9.29421,-3.24925 -14.0577,-2.54058l-0.442919 0.0673237 0 -0.728749z" /><path
           id="_87424488"
           class="fil21"
           d="M2.77208 31.8594c0.257483,-0.0389769 0.513786,-0.0779537 0.771269,-0.113387 4.88038,-0.661425 9.83162,-0.167719 14.588,2.62562 2.68114,1.61931 5.19101,3.15949 7.50127,4.60517 11.3895,7.75758 15.2057,10.2816 24.2306,7.59458 3.13232,-0.797254 7.24143,-3.13468 11.5986,-5.16975l0 0.564574c-4.32171,2.03388 -8.39538,4.35832 -11.5029,5.15794 -9.20444,2.76263 -13.0525,0.216144 -24.5661,-7.63356 -2.27837,-1.42915 -4.75754,-2.95161 -7.47411,-4.60163 -4.53785,-2.63389 -9.33909,-3.08508 -14.1262,-2.45318 -0.340162,0.0460636 -0.680323,0.0968516 -1.02048,0.150002l0 -0.726387z" /><path
           id="_82898560"
           class="fil22"
           d="M2.77208 32.6662c0.452368,-0.0685048 0.907098,-0.129923 1.36183,-0.183073 4.89691,-0.589377 9.84225,-0.132285 14.6317,2.52641 2.68114,1.54963 5.23235,3.04256 7.60167,4.47289 11.2064,7.54497 15.1183,10.0832 24.0275,7.64655 3.03311,-0.659063 6.93788,-2.69177 11.0671,-4.48588l0 0.5504c-4.09966,1.79766 -7.97844,3.82682 -10.9879,4.48943 -9.07925,2.5146 -13.0183,-0.0437013 -24.3405,-7.67844 -2.33979,-1.41143 -4.85675,-2.88665 -7.56978,-4.46817 -4.57801,-2.50751 -9.38279,-2.92326 -14.1923,-2.36105 -0.533865,0.0637803 -1.06773,0.134647 -1.59923,0.213782l0 -0.722844z" /><path
           id="_111688960"
           class="fil23"
           d="M2.77208 33.4563c0.649614,-0.0897649 1.29923,-0.170081 1.95357,-0.237404 4.91345,-0.51851 9.85288,-0.0980327 14.6742,2.43074 2.67877,1.47876 5.27251,2.92799 7.70443,4.33942 11.0222,7.33237 15.0309,9.88359 23.8219,7.69734 2.92681,-0.526778 6.63197,-2.27483 10.5356,-3.83391l0 0.537408c-3.88233,1.56852 -7.56269,3.32248 -10.473,3.8528 -8.95405,2.26302 -12.9828,-0.308272 -24.1149,-7.72214 -2.40121,-1.39608 -4.95833,-2.82641 -7.66427,-4.33588 -4.62053,-2.38231 -9.42768,-2.75909 -14.2608,-2.27247 -0.728749,0.0755915 -1.45395,0.161813 -2.1768,0.261027l0 -0.716938z" /><path
           id="_82438856"
           class="fil24"
           d="M2.77208 34.2252c0.844499,-0.103938 1.69254,-0.196065 2.54413,-0.271657 4.92998,-0.445281 9.86705,-0.0637803 14.7179,2.33507 2.67877,1.40671 5.31384,2.80988 7.806,4.20596 10.8367,7.11977 14.9423,9.68398 23.6164,7.74813 2.82051,-0.40158 6.32252,-1.87679 10.0052,-3.21264l0 0.526778c-3.66619,1.35002 -7.15284,2.83704 -9.95682,3.24689 -8.83003,2.01262 -12.9509,-0.570479 -23.8893,-7.76821 -2.46145,-1.37954 -5.05754,-2.76854 -7.76112,-4.20241 -4.66187,-2.25711 -9.4702,-2.59728 -14.3305,-2.18152 -0.92009,0.0791348 -1.83664,0.172443 -2.752,0.279925l0 -0.706308z" /><path
           id="_82628656"
           class="fil25"
           d="M2.77208 34.9634c1.04056,-0.103938 2.08585,-0.196065 3.13587,-0.274019 4.9477,-0.370871 9.87886,-0.030709 14.764,2.2394 2.67287,1.33466 5.35046,2.69295 7.90758,4.07367 10.6501,6.90481 14.8502,9.48437 23.4109,7.79655 2.70712,-0.282287 6.00952,-1.50474 9.47138,-2.62562l0 0.51851c-3.4524,1.1386 -6.74536,2.37641 -9.44303,2.67051 -8.70365,1.76223 -12.9155,-0.832687 -23.6649,-7.81191 -2.51932,-1.36301 -5.15676,-2.70712 -7.85325,-4.07013 -4.70321,-2.12955 -9.5139,-2.4331 -14.399,-2.09058 -1.11261,0.0779537 -2.22168,0.171262 -3.32957,0.271657l0 -0.69804z" /><path
           id="_29627776"
           class="fil26"
           d="M2.77208 35.6733c1.23899,-0.0874027 2.47798,-0.172443 3.72642,-0.248035 4.96423,-0.300004 9.88949,0.00472447 14.8065,2.14255 2.67287,1.2638 5.39298,2.5772 8.01033,3.94139 10.4682,6.69221 14.7616,9.28476 23.2054,7.84852 2.59019,-0.174805 5.69653,-1.15749 8.94105,-2.0764l0 0.512605c-3.2398,0.936626 -6.3426,1.94294 -8.92688,2.12955 -8.57963,1.51065 -12.8824,-1.09371 -23.4404,-7.85797 -2.57956,-1.34765 -5.25715,-2.64334 -7.94655,-3.93548 -4.74691,-2.00436 -9.56114,-2.27365 -14.4687,-2.00081 -1.30513,0.0720481 -2.60554,0.148821 -3.90713,0.229137l0 -0.685048z" /><path
           id="_82570744"
           class="fil27"
           d="M2.77208 36.3477c1.43624,-0.0566936 2.8713,-0.120474 4.3158,-0.186616 4.98313,-0.226774 9.90367,0.0389769 14.8502,2.04688 2.67523,1.19293 5.43314,2.45909 8.11427,3.80674 10.2816,6.47961 14.6718,9.08515 23.0023,7.89931 2.46735,-0.070867 5.37644,-0.837412 8.40719,-1.56498l0 0.509061c-3.03429,0.75119 -5.94692,1.53781 -8.41073,1.62404 -8.4568,1.26143 -12.8506,-1.35474 -23.2149,-7.90167 -2.64334,-1.3323 -5.35755,-2.5831 -8.04459,-3.80202 -4.78707,-1.87916 -9.6013,-2.11066 -14.536,-1.91223 -1.49766,0.060237 -2.98823,0.113387 -4.48352,0.152364l0 -0.670874z" /><path
           id="_89159464"
           class="fil28"
           d="M2.77208 36.982c1.63585,-0.00472447 3.26579,-0.0354335 4.90872,-0.0826782 4.99849,-0.157089 9.91193,0.0720481 14.8951,1.94884 2.66814,1.12088 5.47093,2.33979 8.21349,3.67327 10.0974,6.26464 14.5833,8.88554 22.7944,7.94892 2.34334,0.0188979 5.0599,-0.544495 7.87805,-1.0949l0 0.50788c-2.82759,0.574023 -5.55243,1.1634 -7.89695,1.15868 -8.32806,1.01104 -12.8163,-1.61577 -22.9893,-7.94774 -2.70121,-1.31576 -5.45676,-2.5205 -8.13908,-3.66855 -4.82841,-1.75396 -9.64618,-1.94648 -14.601,-1.82246 -1.69136,0.0425202 -3.37091,0.0590558 -5.06345,0.0413391l0 -0.662607z" /><path
           id="_83614720"
           class="fil29"
           d="M2.77208 37.5761c1.839,0.0673237 3.66028,0.0862215 5.49692,0.0555125 5.01857,-0.0791348 9.92729,0.111025 14.9411,1.85553 2.66814,1.05001 5.51109,2.22522 8.31624,3.54099 9.91193,6.05086 14.4935,8.68475 22.5889,8.00089 2.21341,0.0992138 4.73628,-0.282287 7.34655,-0.669693l0 0.510242c-2.62562,0.409848 -5.16266,0.819695 -7.38198,0.733474 -8.20404,0.758277 -12.7809,-1.88034 -22.7625,-7.99262 -2.76263,-1.30041 -5.55715,-2.46145 -8.23475,-3.53626 -4.86974,-1.62876 -9.68988,-1.78349 -14.6718,-1.73388 -1.87916,0.0224412 -3.74768,-0.0153545 -5.63865,-0.112206l0 -0.651977z" /><path
           id="_87373688"
           class="fil30"
           d="M2.77208 38.1253c2.04451,0.164175 4.05714,0.245672 6.08866,0.242129 5.0351,-0.00826782 9.93792,0.144096 14.9836,1.75868 2.66932,0.979146 5.55125,2.10711 8.41782,3.40752 9.72886,5.83708 14.4049,8.48632 22.3857,8.05404 2.0764,0.171262 4.40911,-0.0531503 6.81386,-0.290555l0 0.512605c-2.42483,0.261027 -4.77644,0.511424 -6.86701,0.350792 -8.07884,0.511424 -12.7466,-2.14018 -22.5369,-8.03514 -2.82287,-1.28269 -5.65873,-2.40003 -8.32806,-3.40398 -4.91463,-1.49884 -9.73477,-1.62167 -14.7415,-1.64175 -2.06814,-0.00472447 -4.1221,-0.112206 -6.21622,-0.311815l0 -0.642528z" /><path
           id="_86594280"
           class="fil31"
           d="M2.77208 38.6284c2.25475,0.283468 4.45517,0.448824 6.67922,0.47599 5.05164,0.0637803 9.95091,0.177168 15.0274,1.66301 2.66578,0.907098 5.59259,1.98664 8.52176,3.27524 9.54342,5.62094 14.314,8.28435 22.179,8.10128 1.93821,0.23268 4.08076,0.148821 6.28236,0.0448824l0 0.519691c-2.22877,0.127561 -4.39494,0.236223 -6.35205,0.0141734 -7.95482,0.257483 -12.7124,-2.40357 -22.3113,-8.08356 -2.88429,-1.26734 -5.75913,-2.33625 -8.42491,-3.26815 -4.95479,-1.376 -9.77729,-1.45868 -14.8077,-1.55081 -2.25593,-0.0425202 -4.49415,-0.23268 -6.79378,-0.556306l0 -0.635441z" /><path
           id="_83857384"
           class="fil32"
           d="M2.77208 39.0867c2.4709,0.428745 4.85675,0.68741 7.27096,0.753553 5.06817,0.13701 9.96272,0.21142 15.0699,1.56616 2.6646,0.83505 5.63275,1.87207 8.62333,3.14177 9.35917,5.40952 14.2277,8.08475 21.9735,8.15325 1.7953,0.282287 3.74887,0.316539 5.75204,0.327169l0 0.531503c-2.03388,0.0106301 -4.01934,-0.00236223 -5.8359,-0.277562 -7.83081,0.0070867 -12.6805,-2.66696 -22.0869,-8.12727 -2.94452,-1.25317 -5.85834,-2.27601 -8.5194,-3.13705 -4.99612,-1.24844 -9.82217,-1.29569 -14.8762,-1.45986 -2.44137,-0.0803159 -4.8603,-0.370871 -7.37135,-0.843317l0 -0.628354z" /><path
           id="_110410824"
           class="fil33"
           d="M2.77208 39.4965c2.6894,0.597645 5.26069,0.972059 7.86033,1.08072 5.08707,0.205514 9.97571,0.244491 15.1171,1.46695 2.66224,0.766545 5.67054,1.75514 8.72373,3.00949 9.17373,5.19691 14.138,7.88632 21.7692,8.2064 1.64648,0.318902 3.41343,0.452368 5.21936,0.558668l0 0.542133c-1.84254,-0.0897649 -3.64729,-0.204333 -5.32211,-0.51851 -7.70443,-0.24331 -12.6462,-2.92681 -21.8613,-8.17333 -3.0024,-1.23545 -5.95873,-2.21459 -8.6127,-3.0024 -5.03864,-1.12324 -9.86823,-1.13505 -14.9459,-1.37128 -2.6209,-0.121655 -5.22054,-0.530321 -7.94774,-1.17757l0 -0.621267z" /><path
           id="_82144528"
           class="fil34"
           d="M2.77208 39.8568c2.915,0.793711 5.667,1.30041 8.45207,1.45514 5.10361,0.281106 9.98634,0.281106 15.1596,1.37364 2.66106,0.692135 5.71188,1.63821 8.82649,2.87366 8.99066,4.98668 14.0494,7.68671 21.5637,8.25719 1.49293,0.347248 3.07681,0.555125 4.68785,0.74056l0 0.555125c-1.65474,-0.170081 -3.27996,-0.364965 -4.80596,-0.70867 -7.57923,-0.494888 -12.6131,-3.1902 -21.6381,-8.21703 -3.06264,-1.22009 -6.05677,-2.15554 -8.70601,-2.87366 -5.08116,-0.995682 -9.91075,-0.968516 -15.0155,-1.28033 -2.80161,-0.1689 -5.57369,-0.713395 -8.52412,-1.55789l0 -0.617724z" /><path
           id="_110588912"
           class="fil35"
           d="M2.77208 40.1662c3.14768,1.0134 6.07567,1.67364 9.04381,1.88152 5.12014,0.353154 9.99697,0.315358 15.201,1.27561 2.66224,0.62363 5.7544,1.5201 8.93042,2.74373 8.80523,4.77053 13.9596,7.48592 21.3581,8.3068 1.33466,0.360241 2.73547,0.622449 4.15635,0.864578l0 0.574023c-1.46813,-0.236223 -2.915,-0.488982 -4.291,-0.850404 -7.45521,-0.742923 -12.5789,-3.45122 -21.4125,-8.26309 -3.12405,-1.20356 -6.15716,-2.09294 -8.80168,-2.73547 -5.12369,-0.872845 -9.95327,-0.807884 -15.0805,-1.19175 -2.97996,-0.22205 -5.92684,-0.921271 -9.10405,-1.98664l0 -0.618905z" /><path
           id="_52095120"
           class="fil36"
           d="M2.77208 40.4308c3.38744,1.25907 6.48906,2.09058 9.63201,2.35278 5.14022,0.426383 10.0111,0.348429 15.2482,1.17994 2.65869,0.551582 5.7922,1.40553 9.03082,2.60909 8.62215,4.55793 13.871,7.28749 21.1538,8.35758 1.17403,0.360241 2.39176,0.65552 3.62485,0.935445l0 0.594102c-1.28506,-0.277562 -2.55476,-0.570479 -3.77721,-0.937807 -7.33001,-0.995682 -12.5446,-3.71461 -21.1869,-8.30561 -3.18193,-1.1882 -6.25638,-2.0327 -8.89499,-2.60554 -5.16621,-0.745285 -10.0005,-0.64489 -15.1502,-1.10198 -3.15358,-0.278744 -6.26937,-1.14568 -9.68043,-2.45554l0 -0.622449z" /><path
           id="_84947552"
           class="fil37"
           d="M2.77208 40.6458c3.63193,1.52955 6.90481,2.55121 10.2237,2.87248 5.15558,0.499612 10.023,0.383863 15.2931,1.08545 2.65515,0.478352 5.83117,1.28624 9.13358,2.47444 8.43554,4.34415 13.7801,7.08788 20.9459,8.40955 1.00985,0.347248 2.04688,0.654339 3.09335,0.950799l0 0.610637 0 0.00236223c-1.10434,-0.298823 -2.19806,-0.610637 -3.26106,-0.970878 -7.20599,-1.2449 -12.5104,-3.97564 -20.9613,-8.3505 -3.24453,-1.17049 -6.35795,-1.9701 -8.99184,-2.47326 -5.20754,-0.617724 -10.043,-0.480715 -15.2187,-1.00867 -3.3213,-0.338981 -6.60599,-1.39608 -10.2568,-2.97523l0 -0.627173z" /><path
           id="_85791728"
           class="fil38"
           d="M2.77208 40.8123c3.88942,1.82601 7.32765,3.05673 10.8155,3.44177 5.17211,0.570479 10.0348,0.420478 15.3356,0.989776 2.65515,0.407485 5.87251,1.16812 9.23515,2.34215 8.2501,4.13155 13.6915,6.88709 20.7416,8.45798 0.842136,0.323626 1.69963,0.621267 2.56184,0.913003l0 0.0921271c0,0.17953 -0.0165356,0.356697 -0.0448824,0.52914 -0.911822,-0.298823 -1.81538,-0.604732 -2.70121,-0.936626 -7.07843,-1.49648 -12.4761,-4.23785 -20.7345,-8.39656 -3.30477,-1.15749 -6.46071,-1.90987 -9.08869,-2.33979 -5.2477,-0.492526 -10.0856,-0.316539 -15.286,-0.918909 -3.48784,-0.402761 -6.93434,-1.66656 -10.8344,-3.53626l0 -0.637803z" /><path
           id="_85684288"
           class="fil39"
           d="M2.77208 40.9363c4.15281,2.14255 7.75049,3.60004 11.406,4.05477 5.18983,0.642528 10.0478,0.453549 15.3805,0.891743 2.65161,0.336618 5.91031,1.05238 9.33555,2.21105 8.06585,3.9154 13.6029,6.68512 20.5384,8.50877 0.663788,0.278744 1.33466,0.545676 2.0079,0.809065 -0.0248035,0.209058 -0.0720481,0.413391 -0.138191,0.607094 -0.696859,-0.265751 -1.38781,-0.535046 -2.07168,-0.817333 -6.95442,-1.74687 -12.4442,-4.50006 -20.5089,-8.44144 -3.365,-1.14096 -6.55874,-1.84963 -9.18318,-2.20633 -5.2914,-0.366146 -10.1304,-0.154726 -15.3545,-0.829144 -3.65083,-0.471266 -7.25442,-1.95357 -11.412,-4.13509l0 -0.653158z" /><path
           id="_86505008"
           class="fil40"
           d="M2.77208 41.0166c4.42446,2.48271 8.1816,4.18352 11.9954,4.70911 5.20873,0.716938 10.0596,0.488982 15.4242,0.797254 2.65279,0.263389 5.95165,0.934263 9.43949,2.07522 7.88277,3.70516 13.5132,6.48906 20.3329,8.55955 0.46536,0.214963 0.935445,0.424021 1.40671,0.631898 -0.0519691,0.205514 -0.12638,0.403942 -0.218507,0.59174 -0.470085,-0.204333 -0.940169,-0.409848 -1.40789,-0.622449 -6.82922,-1.99609 -12.4076,-4.7599 -20.2821,-8.48278 -3.42642,-1.12442 -6.66032,-1.78939 -9.27767,-2.07404 -5.33274,-0.239767 -10.1741,0.0070867 -15.423,-0.74056 -3.81028,-0.53977 -7.56978,-2.2642 -11.9895,-4.77644l0 -0.668512z" /><path
           id="_51916544"
           class="fil41"
           d="M2.77208 41.0544c4.70439,2.84413 8.61389,4.80596 12.5872,5.40715 5.22526,0.788986 10.0714,0.523235 15.4679,0.701583 2.65043,0.193703 5.99181,0.816152 9.54106,1.94176 7.69852,3.49138 13.4258,6.28827 20.1262,8.61034l0.780718 0.382682c-0.0755915,0.203152 -0.170081,0.395674 -0.28583,0.576385l-0.728749 -0.353154c-6.70402,-2.24767 -12.3757,-5.02447 -20.0577,-8.53121 -3.48666,-1.10907 -6.75953,-1.72679 -9.37216,-1.93821 -5.37526,-0.114568 -10.219,0.167719 -15.4927,-0.650795 -3.96383,-0.615362 -7.87569,-2.59491 -12.5659,-5.45912l0 -0.68741z" /><path
           id="_85420712"
           class="fil42"
           d="M2.77208 41.0544c4.99258,3.22445 9.05326,5.46503 13.1789,6.14299 5.24062,0.862215 10.0844,0.558668 15.5116,0.604732 2.64688,0.122836 6.03196,0.699221 9.64146,1.81065 7.51427,3.27642 13.336,6.08748 19.9231,8.66113l0.141734 0.0755915c-0.0933082,0.199609 -0.209058,0.386225 -0.341343,0.557487l-0.0519691 -0.0271657c-6.57882,-2.49806 -12.3403,-5.28432 -19.8333,-8.57491 -3.54689,-1.09135 -6.85993,-1.66537 -9.46665,-1.80593 -5.4166,0.0118112 -10.2615,0.333075 -15.56,-0.561031 -4.11619,-0.692135 -8.17215,-2.93862 -13.1435,-6.17488l0 -0.70867z" /><path
           id="_111150872"
           class="fil43"
           d="M2.77208 41.0166c5.29258,3.62249 9.49736,6.15716 13.7695,6.91662 5.25951,0.934263 10.0938,0.594102 15.5553,0.506699 2.6457,0.050788 6.07212,0.584653 9.7454,1.67719 7.1304,2.9835 12.9238,5.73787 19.1931,8.48396 -0.119293,0.199609 -0.261027,0.385044 -0.419296,0.5504 -6.19141,-2.65515 -11.8879,-5.367 -18.9333,-8.33278 -3.60595,-1.076 -6.96032,-1.60278 -9.56114,-1.67246 -5.45794,0.135828 -10.3076,0.496069 -15.6297,-0.468903 -4.26383,-0.77245 -8.4627,-3.30595 -13.7199,-6.92843l0 -0.732292z" /><path
           id="_112018576"
           class="fil44"
           d="M2.77208 40.9446c5.59613,4.03824 9.94264,6.88237 14.3588,7.72687 5.27723,1.00395 10.108,0.624811 15.6002,0.408666 2.6457,-0.0212601 6.1111,0.46536 9.84815,1.5449 6.69457,2.66932 12.397,5.33274 18.3179,8.1875 -0.139372,0.194884 -0.302366,0.374414 -0.481896,0.530321 -5.81818,-2.75436 -11.4072,-5.36109 -17.9931,-8.00915 -3.66619,-1.0571 -7.05835,-1.54136 -9.65563,-1.539 -5.4981,0.263389 -10.3489,0.659063 -15.697,-0.379139 -4.40557,-0.855129 -8.74499,-3.68508 -14.2974,-7.71033l0 -0.760639z" /><path
           id="_86495888"
           class="fil45"
           d="M2.77208 40.8395c5.91267,4.46698 10.3938,7.6371 14.9506,8.56664 5.29377,1.07836 10.1174,0.660244 15.6451,0.314177 2.64334,-0.0933082 6.14889,0.348429 9.94737,1.41143 6.27173,2.37523 11.8525,4.92644 17.4593,7.84144 -0.157089,0.19016 -0.336618,0.362603 -0.532684,0.510242 -5.48865,-2.80279 -10.936,-5.29022 -17.0778,-7.63474 -3.7276,-1.04293 -7.15993,-1.47876 -9.7513,-1.40671 -5.54298,0.392131 -10.3938,0.822057 -15.7644,-0.288193 -4.54612,-0.938988 -9.02137,-4.0843 -14.8762,-8.52885l0 -0.785443z" /><path
           id="_81529552"
           class="fil46"
           d="M2.77208 40.7025c6.23512,4.91581 10.8497,8.42136 15.5423,9.43949 5.30912,1.15041 10.1304,0.695678 15.6864,0.218507 2.64334,-0.164175 6.19141,0.230318 10.0513,1.27679 5.8607,2.0953 11.295,4.5225 16.6183,7.45639 -0.171262,0.187798 -0.366146,0.354335 -0.577566,0.493707 -5.19101,-2.8087 -10.473,-5.16502 -16.1884,-7.22371 -3.78902,-1.02639 -7.26033,-1.4197 -9.84697,-1.27206 -5.58432,0.514967 -10.4363,0.98387 -15.8329,-0.199609 -4.68195,-1.02757 -9.28948,-4.49533 -15.4526,-9.37098l0 -0.818514z" /><path
           id="_115641256"
           class="fil47"
           d="M2.77208 40.5383c6.56583,5.37408 11.3092,9.23279 16.1305,10.3407 5.33038,1.22127 10.1458,0.727568 15.7337,0.120474 2.63862,-0.235042 6.23157,0.114568 10.1517,1.1445 5.46621,1.83191 10.7328,4.128 15.7963,7.03946 -0.183073,0.185435 -0.387406,0.346067 -0.614181,0.479533 -4.91935,-2.77799 -10.0182,-4.99258 -15.3262,-6.78434 -3.84572,-1.00985 -7.35954,-1.35828 -9.9391,-1.13742 -5.62684,0.640165 -10.4824,1.1445 -15.9026,-0.111025 -4.81423,-1.11616 -9.54815,-4.92171 -16.0301,-10.2415l0 -0.850404z" /><path
           id="_85946840"
           class="fil48"
           d="M2.77208 40.3446c6.90245,5.84771 11.7722,10.0678 16.7223,11.2679 5.34574,1.29805 10.1564,0.765364 15.7762,0.0271657 2.63862,-0.305909 6.27173,-0.00236223 10.2556,1.00985 5.08589,1.58506 10.1671,3.73942 14.9931,6.5989 -0.192522,0.183073 -0.408666,0.342524 -0.642528,0.467722 -4.6725,-2.71657 -9.57177,-4.77998 -14.4911,-6.32134 -3.90832,-0.995682 -7.46112,-1.29687 -10.036,-1.00749 -5.66818,0.766545 -10.5249,1.30986 -15.9711,-0.0188979 -4.94061,-1.20592 -9.79973,-5.36109 -16.6065,-11.1379l0 -0.885838z" /><path
           id="_114925264"
           class="fil49"
           d="M2.77208 40.1261c7.25088,6.32961 12.2399,10.9277 17.3152,12.2222 5.36109,1.36891 10.1671,0.799616 15.8187,-0.0696859 2.63625,-0.377957 6.31071,-0.119293 10.3572,0.879932 4.72329,1.35356 9.60366,3.35437 14.2065,6.1359 -0.20079,0.183073 -0.426383,0.338981 -0.668512,0.460636 -4.43982,-2.62444 -9.12531,-4.53549 -13.675,-5.84535 -3.96973,-0.980327 -7.56151,-1.23545 -10.1316,-0.874027 -5.70952,0.892924 -10.5698,1.47285 -16.0384,0.0696859 -5.06581,-1.29805 -10.0478,-5.81346 -17.1841,-12.058l0 -0.921271z" /><path
           id="_82858992"
           class="fil50"
           d="M2.77208 39.8875c7.60521,6.82213 12.71,11.8053 17.9034,13.199 5.37999,1.43978 10.1812,0.831506 15.8659,-0.167719 2.63507,-0.450006 6.34968,-0.237404 10.4588,0.745285 4.37722,1.13623 9.04263,2.98586 13.434,5.66109 -0.207877,0.183073 -0.438194,0.338981 -0.689772,0.458273 -4.22249,-2.51342 -8.68121,-4.26383 -12.8789,-5.35991 -4.02879,-0.96261 -7.65954,-1.17403 -10.2249,-0.739379 -5.75204,1.01812 -10.6135,1.63467 -16.1069,0.159451 -5.18865,-1.39254 -10.2875,-6.27764 -17.7616,-12.9982l0 -0.957886z" /></g><g
         id="g85"><path
           id="_51932880"
           class="fil51"
           d="M61.4015 57.6503c-0.895287,0.141734 -1.76813,0.277562 -2.61854,0.411029 -4.26383,0.788986 -7.89459,1.45632 -11.0753,1.96184l3.13587 -0.00472447c2.4083,-0.418115 5.054,-0.905917 8.00089,-1.45395l2.39649 -0.376776c0.0685048,-0.171262 0.122836,-0.351973 0.160632,-0.537408zm-58.6295 -13.2344l0 -0.70867c7.57096,4.31108 13.9325,10.6962 19.1506,13.4234 2.52523,1.32403 4.79179,2.28074 7.04772,2.92445l-1.93349 0.00354335c-1.77876,-0.622449 -3.60359,-1.43978 -5.58432,-2.48035 -5.11069,-2.67051 -11.3186,-8.86664 -18.6805,-13.1624z" /><path
           id="_29392856"
           class="fil52"
           d="M61.4358 57.4424c-1.31222,0.162994 -2.58428,0.314177 -3.81737,0.457092 -5.31857,0.93072 -9.64973,1.66419 -13.3513,2.13073l3.7654 -0.0070867c2.83232,-0.432289 6.0048,-0.980327 9.63201,-1.61577 1.17994,-0.13701 2.39649,-0.283468 3.65556,-0.439375 0.0519691,-0.170081 0.0933082,-0.344886 0.115749,-0.525597zm-58.6637 -12.8009l0 -0.705127c7.19418,4.11501 13.3147,9.99107 18.4018,12.6167 3.40398,1.77168 6.35087,2.89846 9.42413,3.49965l-2.49688 0.00354335c-2.36223,-0.667331 -4.73628,-1.66419 -7.38434,-3.04374 -4.97959,-2.57011 -10.9501,-8.27372 -17.9447,-12.371z" /><path
           id="_84692160"
           class="fil53"
           d="M61.45 57.322c-1.72325,0.155907 -3.39099,0.295279 -4.99612,0.419296 -7.53671,1.23309 -13.0761,2.06814 -17.6695,2.29845l5.8985 -0.0106301c3.35792,-0.416934 7.21426,-1.02403 11.8029,-1.77876 1.56262,-0.122836 3.18429,-0.259846 4.87211,-0.415753 0.0448824,-0.165356 0.0755915,-0.337799 0.0921271,-0.512605zm-58.6779 -12.4691l0 -0.705127c6.82567,3.91186 12.7065,9.30366 17.6553,11.8277 4.96542,2.56539 8.97767,3.8032 13.8155,4.07131l-4.55911 0.0070867c-3.16303,-0.63426 -6.19614,-1.79412 -9.70288,-3.60713 -4.83904,-2.4709 -10.5722,-7.70679 -17.2089,-11.5938z" /><path
           id="_84532304"
           class="fil54"
           d="M61.4523 57.2759c-2.12601,0.129923 -4.18115,0.227956 -6.16071,0.305909 -18.7514,2.84767 -25.0822,3.21382 -35.613,-2.18507 -4.80242,-2.41893 -10.4399,-7.35363 -16.9065,-11.0576l0 0.705127c6.28472,3.67564 11.7805,8.47097 16.4719,10.8344 4.88038,2.50397 8.86192,3.78666 13.5368,4.17052l7.00993 -0.0118112c4.17643,-0.278744 9.1324,-0.968516 15.514,-1.94648 1.94294,-0.0755915 3.96028,-0.174805 6.06622,-0.30709 0.0425202,-0.165356 0.0696859,-0.334256 0.0814971,-0.50788z" /><path
           id="_22881592"
           class="fil55"
           d="M61.4511 57.3042c-2.52287,0.0826782 -4.96896,0.114568 -7.32411,0.118112 -18.3262,2.55476 -24.7267,2.72129 -35.1949,-2.60436 -4.64769,-2.31145 -10.0442,-6.81623 -16.16,-10.3052l0 0.702765c5.94456,3.45831 11.1982,7.83553 15.736,10.095 10.6501,5.42369 17.0943,5.23353 35.6166,2.6268 2.32089,-0.00826782 4.72919,-0.0413391 7.24143,-0.132285 0.0425202,-0.162994 0.070867,-0.329532 0.0850404,-0.500794z" /><path
           id="_82863960"
           class="fil56"
           d="M61.4405 57.4023c-2.90673,0.0188979 -5.74023,-0.0437013 -8.47806,-0.141734 -17.8998,2.26656 -24.3723,2.23113 -34.778,-3.01893 -4.48588,-2.20515 -9.63791,-6.30716 -15.4124,-9.57768l0 0.702765c5.61031,3.23862 10.623,7.22489 14.999,9.37689 10.5769,5.34455 17.0872,5.35755 35.176,3.03547 2.69531,0.0921271 5.48983,0.146458 8.39538,0.113387 0.0460636,-0.15827 0.0791348,-0.323626 0.0980327,-0.490164z" /><path
           id="_82676664"
           class="fil57"
           d="M61.4181 57.5688c-3.27169,-0.0578747 -6.4926,-0.239767 -9.61783,-0.467722 -17.4782,1.97837 -24.0204,1.73624 -34.3646,-3.43587 -4.31934,-2.09884 -9.22334,-5.82054 -14.6636,-8.87373l0 0.701583c5.2855,3.02012 10.0537,6.6367 14.2632,8.68475 10.5049,5.26069 17.0778,5.47566 34.7296,3.44296 3.07799,0.218507 6.25165,0.389769 9.52807,0.428745 0.0531503,-0.154726 0.0956705,-0.315358 0.125198,-0.480715z" /><path
           id="_85968936"
           class="fil58"
           d="M61.3697 57.7968c-3.61067,-0.144096 -7.21426,-0.472447 -10.734,-0.852766 -17.0541,1.68663 -23.6649,1.23899 -33.9488,-3.85753 -4.14454,-1.989 -8.79932,-5.354 -13.9147,-8.19223l0 0.705127c4.96542,2.80043 9.49264,6.07094 13.5285,8.0127 10.4293,5.18038 17.0683,5.59495 34.2855,3.85044 3.45831,0.36969 7.00048,0.683867 10.6218,0.801978 0.0649614,-0.150002 0.120474,-0.30709 0.161813,-0.467722z" /><path
           id="_88330176"
           class="fil59"
           d="M61.2787 58.0897l-0.0661425 -0.00826782c-3.88824,-0.237404 -7.84734,-0.739379 -11.7403,-1.30041 -16.6289,1.4008 -23.3129,0.75119 -33.5319,-4.27328 -3.96383,-1.87916 -8.37058,-4.91463 -13.1683,-7.53671l0 0.706308c4.6536,2.58546 8.93633,5.53353 12.7915,7.36663 10.356,5.10242 17.0601,5.71661 33.8425,4.26147 3.83863,0.545676 7.7375,1.02757 11.6659,1.23072 0.0791348,-0.144096 0.150002,-0.292917 0.206695,-0.446462z" /><path
           id="_111857536"
           class="fil60"
           d="M61.0885 58.5054c-0.364965,-0.0625992 -0.733474,-0.122836 -1.10198,-0.177168 -3.81265,-0.35906 -7.75403,-1.00395 -11.6765,-1.70435 -16.2061,1.11025 -22.9597,0.255121 -33.1173,-4.6914 -3.77485,-1.77286 -7.93356,-4.50006 -12.4206,-6.90953l0 0.707489c4.35123,2.37286 8.38593,5.02093 12.0557,6.74654 10.2828,5.02211 17.0506,5.83944 33.3996,4.67132 3.86934,0.685048 7.75285,1.30868 11.6021,1.62876 0.323626,0.0555125 0.64489,0.112206 0.963791,0.173624 0.109844,-0.138191 0.209058,-0.288193 0.295279,-0.445281z" /><path
           id="_111087624"
           class="fil61"
           d="M60.7578 58.9932c-0.657882,-0.151183 -1.32285,-0.289374 -1.99491,-0.418115 -3.73587,-0.480715 -7.66545,-1.27088 -11.6186,-2.11302 -15.7809,0.819695 -22.6054,-0.236223 -32.7016,-5.10951 -3.57878,-1.66065 -7.48828,-4.10202 -11.6706,-6.3048l0 0.70867c4.05477,2.16499 7.84262,4.53667 11.3198,6.15244 10.206,4.94179 17.04,5.96228 32.9543,5.08353 3.89769,0.823238 7.76702,1.58624 11.5371,2.0268 0.587015,0.124017 1.16694,0.256302 1.74333,0.396855 0.15827,-0.12638 0.302366,-0.268114 0.431108,-0.42284z" /><path
           id="_84567760"
           class="fil62"
           d="M60.211 59.5047c-0.87757,-0.246853 -1.76931,-0.474809 -2.67405,-0.681504 -3.66028,-0.603551 -7.57332,-1.53663 -11.556,-2.5205 -15.3569,0.532684 -22.2511,-0.72993 -32.2846,-5.52763 -3.38036,-1.55081 -7.03828,-3.72997 -10.9242,-5.73196l0 0.713395c3.76186,1.9642 7.30521,4.07958 10.584,5.58668 10.134,4.8603 17.0317,6.08157 32.5114,5.49219 3.92485,0.961429 7.77884,1.86616 11.4675,2.4272 0.747647,0.187798 1.48348,0.39095 2.21341,0.604732 0.237404,-0.0921271 0.460636,-0.213782 0.662607,-0.362603z" /><path
           id="_82303624"
           class="fil63"
           d="M59.2779 59.957c-0.97324,-0.31772 -1.96184,-0.613 -2.96815,-0.8882 -3.58115,-0.721662 -7.48119,-1.80002 -11.4934,-2.92681 -14.9293,0.242129 -21.8991,-1.22127 -31.8654,-5.94338 -3.17602,-1.44096 -6.58355,-3.37918 -10.1789,-5.18747l0 0.716938c3.47485,1.77168 6.77134,3.65083 9.84697,5.04927 10.0596,4.77762 17.0234,6.20086 32.0685,5.89968 3.95202,1.1008 7.79301,2.14609 11.4025,2.82405 0.544495,0.164175 1.08663,0.330713 1.62285,0.505518l1.36301 -0.00236223c0.0696859,-0.0141734 0.135828,-0.0295279 0.201971,-0.0472447z" /><path
           id="_85903624"
           class="fil64"
           d="M57.1613 60.0078c-0.683867,-0.240948 -1.37482,-0.471266 -2.07522,-0.693316 -3.50674,-0.842136 -7.39261,-2.06577 -11.4332,-3.32839 -14.5053,-0.050788 -21.5436,-1.71971 -31.452,-6.3674 -2.96578,-1.32758 -6.12055,-3.04492 -9.42886,-4.66659l0 0.7193c3.1961,1.58624 6.24338,3.24925 9.11114,4.53667 9.98989,4.69848 17.014,6.32606 31.6244,6.31071 3.97918,1.24017 7.80482,2.42838 11.334,3.22563l0.763002 0.266932 1.55671 -0.00354335z" /><path
           id="_88520360"
           class="fil65"
           d="M55.0708 60.0114c-0.400399,-0.152364 -0.801978,-0.301185 -1.20828,-0.447643 -3.43233,-0.966154 -7.30403,-2.33152 -11.3718,-3.7406 -14.0836,-0.337799 -21.1928,-2.20751 -31.035,-6.77961 -2.75082,-1.21891 -5.65519,-2.73192 -8.68357,-4.17643l0 0.721662c2.91854,1.41143 5.72015,2.87366 8.37648,4.05359 9.91193,4.61817 17.0034,6.44535 31.1791,6.71937 4.00753,1.37836 7.81663,2.7083 11.2655,3.62367l0.0720481 0.0283468 1.40553 -0.00236223z" /><path
           id="_112624888"
           class="fil66"
           d="M53.1337 60.0149l-0.494888 -0.204333c-3.35673,-1.08545 -7.21426,-2.59728 -11.3127,-4.14808 -13.6596,-0.624811 -20.8373,-2.70003 -30.6193,-7.19773 -2.53231,-1.10907 -5.18392,-2.4331 -7.93474,-3.71225l0 0.728749c2.64688,1.24372 5.20164,2.52287 7.63946,3.59414 9.8387,4.53785 16.9951,6.56583 30.7362,7.1304 3.76894,1.41616 7.32883,2.79216 10.5285,3.81028l1.4575 -0.00118112z" /><path
           id="_87297632"
           class="fil67"
           d="M51.3054 60.0173c-3.2587,-1.20356 -7.06072,-2.84177 -11.1427,-4.51423 -13.2344,-0.914184 -20.4841,-3.19374 -30.2059,-7.61466 -2.30554,-1.00159 -4.70675,-2.15436 -7.18473,-3.27406l0 0.733474c2.37995,1.08545 4.68785,2.19806 6.90245,3.16185 9.76666,4.45635 16.9868,6.6863 30.2945,7.53671 3.55871,1.45041 6.90008,2.86775 9.88713,3.97328l1.44923 -0.00236223z" /><path
           id="_87711416"
           class="fil68"
           d="M49.5112 60.0208c-3.05909,-1.2945 -6.64496,-2.97169 -10.5131,-4.67486 -12.808,-1.20828 -20.131,-3.68863 -29.7889,-8.03514 -2.07758,-0.892924 -4.22958,-1.88742 -6.43709,-2.85948l0 0.738198c2.1142,0.94135 4.17407,1.89569 6.16425,2.75318 9.69343,4.37486 16.9821,6.80678 29.8527,7.94774 3.39571,1.48821 6.56583,2.95161 9.37807,4.13155l1.34411 -0.00118112z" /><path
           id="_82962720"
           class="fil69"
           d="M47.84 60.0232c-2.90082,-1.37482 -6.30835,-3.09689 -10.0064,-4.83904 -12.3828,-1.49529 -19.7766,-4.18115 -29.372,-8.45089 -1.8449,-0.785443 -3.7465,-1.63467 -5.68944,-2.46853l0 0.742923c1.85435,0.804341 3.66737,1.61577 5.42959,2.36696 9.61902,4.29572 16.9715,6.92843 29.4074,8.35758 3.26461,1.53191 6.29772,3.04019 8.97176,4.29336l1.25907 -0.00236223z" /><path
           id="_112393464"
           class="fil70"
           d="M46.2549 60.0267c-2.76618,-1.45159 -6.02724,-3.21736 -9.58476,-5.00203 -11.9588,-1.78467 -19.4235,-4.67368 -28.9574,-8.86901 -1.61104,-0.67678 -3.25988,-1.39372 -4.94061,-2.09648l0 0.748828c1.59569,0.673237 3.16421,1.3571 4.69612,2.00081 9.54342,4.21541 16.9597,7.04891 28.9622,8.76507 3.15476,1.57679 6.07094,3.13468 8.62806,4.45517l1.19647 -0.00236223z" /><path
           id="_84756208"
           class="fil71"
           d="M44.7348 60.0291c-2.64925,-1.52364 -5.78865,-3.33666 -9.22689,-5.16502 -11.5371,-2.07286 -19.0715,-5.16621 -28.5417,-9.28712 -1.37364,-0.570479 -2.77208,-1.16222 -4.19415,-1.74333l0 0.752371c1.34057,0.555125 2.66224,1.11497 3.95792,1.65474 9.47138,4.13391 16.9538,7.17292 28.5204,9.17728 3.06382,1.62404 5.88314,3.23035 8.33869,4.61226l1.14568 -0.00118112z" /><path
           id="_84871024"
           class="fil72"
           d="M43.269 60.0303c-2.55003,-1.5886 -5.5855,-3.45004 -8.92688,-5.32566 -11.1131,-2.36223 -18.716,-5.65873 -28.1259,-9.70524 -1.13269,-0.46536 -2.28074,-0.940169 -3.44414,-1.40789l0 0.759458c1.08663,0.441738 2.16263,0.885838 3.22327,1.32285 9.39578,4.05359 16.9431,7.2934 28.0751,9.58831 2.98704,1.6701 5.72369,3.32484 8.09301,4.77053l1.10553 -0.00236223z" /><path
           id="_85590616"
           class="fil73"
           d="M41.8434 60.0338c-2.46263,-1.65593 -5.40715,-3.56579 -8.66349,-5.48983 -10.6891,-2.65043 -18.3616,-6.15126 -27.7102,-10.1222 -0.889381,-0.362603 -1.78939,-0.727568 -2.69767,-1.08663l0 0.766545c0.83505,0.334256 1.66537,0.670874 2.48507,1.00513 9.32374,3.97328 16.9349,7.41387 27.6346,9.99461 2.9209,1.72089 5.58432,3.4276 7.87923,4.93353l1.07245 -0.00118112z" /><path
           id="_83877320"
           class="fil74"
           d="M40.4521 60.035c-2.38586,-1.71853 -5.25361,-3.68036 -8.43554,-5.64928 -10.2627,-2.94334 -18.0109,-6.64614 -27.2944,-10.5415 -0.646071,-0.259846 -1.29687,-0.520873 -1.95002,-0.777175l0 0.773632c0.588196,0.231499 1.17049,0.466541 1.75042,0.69804 9.24815,3.89414 16.9254,7.53671 27.1881,10.4068 2.86539,1.76813 5.46503,3.52563 7.69261,5.09179l1.04883 -0.00236223z" /><path
           id="_85182792"
           class="fil75"
           d="M39.0891 60.0397c-2.31853,-1.77994 -5.11778,-3.79493 -8.23829,-5.81346 -9.83752,-3.23154 -17.6542,-7.14103 -26.8763,-10.9584l-1.20238 -0.47599 0 0.781899 1.0134 0.399218c9.17728,3.81265 16.916,7.65482 26.7452,10.8155 2.81814,1.81892 5.36227,3.62839 7.52726,5.25125l1.03112 0z" /><path
           id="_85390080"
           class="fil76"
           d="M37.7461 60.0409c-2.25593,-1.84018 -4.99258,-3.90713 -8.05758,-5.97645 -9.41586,-3.51973 -17.3022,-7.6312 -26.4617,-11.3765l-0.45473 -0.17953 0 0.790167 0.277562 0.108663c9.10287,3.73115 16.9077,7.77529 26.3011,11.2242 2.77444,1.86735 5.27132,3.72879 7.38434,5.4107l1.01104 -0.00118112z" /><path
           id="_87400168"
           class="fil77"
           d="M36.4245 60.0421c-2.20042,-1.89924 -4.88274,-4.01698 -7.89931,-6.13708 -8.89381,-3.76894 -16.7778,-8.03159 -25.7531,-11.6753l0 0.797254c8.8383,3.60831 16.5923,7.77175 25.3987,11.445 2.73783,1.9205 5.19219,3.83272 7.2556,5.57251l0.998044 -0.00236223z" /><path
           id="_81812824"
           class="fil78"
           d="M35.117 60.0456c-2.14963,-1.95947 -4.78234,-4.13037 -7.75521,-6.30008 -8.23593,-3.93902 -15.9758,-8.27018 -24.5897,-11.7911l0 0.803159c8.47097,3.48193 16.075,7.71269 24.22,11.5596 2.70476,1.9701 5.11896,3.93548 7.13749,5.7296l0.987414 -0.00118112z" /><path
           id="_51921840"
           class="fil79"
           d="M33.826 60.0468c-2.10239,-2.01853 -4.69494,-4.23903 -7.62883,-6.46071 -7.59576,-4.09375 -15.1573,-8.48042 -23.4251,-11.908l0 0.810246c8.119,3.3839 15.5411,7.67135 23.0412,11.6683 2.67523,2.02325 5.054,4.0406 7.03119,5.89259l0.981508 -0.00236223z" /><path
           id="_84875040"
           class="fil80"
           d="M32.548 60.0492c-2.05987,-2.07522 -4.61344,-4.35005 -7.51663,-6.62252 -6.97804,-4.23076 -14.3269,-8.66467 -22.2593,-12.0202l0 0.818514c7.77884,3.30949 14.9836,7.64183 21.8625,11.7769 2.64688,2.07404 4.99494,4.141 6.93552,6.0485l0.977965 -0.00118112z" /><path
           id="_113515296"
           class="fil81"
           d="M31.2795 60.0515c-2.02207,-2.1331 -4.53785,-4.4599 -7.41033,-6.78434 -6.38276,-4.34769 -13.4895,-8.8194 -21.0971,-12.1253l0 0.82442c7.44694,3.25634 14.4061,7.62765 20.6825,11.8797 2.6268,2.12247 4.94534,4.24375 6.8493,6.20677l0.975603 -0.00118112z" /><path
           id="_51800760"
           class="fil82"
           d="M30.0181 60.0539c-1.98428,-2.19097 -4.46698,-4.57092 -7.31229,-6.94851 -5.80755,-4.44336 -12.6486,-8.9446 -19.9337,-12.2187l0 0.833869c7.12213,3.22209 13.8061,7.61939 19.5038,11.9647 2.60554,2.1768 4.89691,4.35123 6.77134,6.36976l0.970878 -0.00118112z" /></g><path
         id="_52221952"
         class="fil83"
         d="M17.5927 11.0116c-1.20592,-0.726387 -2.0516,46.0931 0.966154,47.0616 3.01657,0.967335 39.4611,-22.0196 41.2706,-23.9554 1.81065,-1.93467 -36.0819,-25.6468 -42.2367,-23.1062z" /><g
         id="g120"><path
           id="_112374248"
           class="fil84"
           d="M61.059 28.4248c-5.8985,0.268114 -10.5686,-0.801978 -16.5817,-3.63312 -6.70638,-3.14059 -15.2872,-11.4911 -25.4495,-15.5459l-1.8449 -0.00354335c10.747,3.79257 19.7979,12.782 26.8019,16.0644 6.21031,2.92563 10.9986,4.01107 17.0742,3.71107l0 -0.592921z" /><path
           id="_111572328"
           class="fil85"
           d="M61.059 27.872c-6.29653,0.32835 -11.1403,-0.74056 -17.4286,-3.67564 -6.71229,-3.10516 -15.2092,-11.0871 -25.1779,-14.9518l-1.88861 -0.00236223c10.571,3.59414 19.5605,12.2293 26.5881,15.4785 6.47725,3.02838 11.4368,4.11029 17.9069,3.74768l0 -0.596464z" /><path
           id="_51270160"
           class="fil86"
           d="M61.059 27.3287c-6.6993,0.38032 -11.7179,-0.693316 -18.2731,-3.72879 -6.70756,-3.06145 -15.1136,-10.6738 -24.8743,-14.3565l-1.94058 -0.00118112c10.3891,3.40398 19.3077,11.6765 26.3484,14.8939 6.743,3.12524 11.8655,4.20832 18.7396,3.79375l0 -0.601189z" /><path
           id="_111000720"
           class="fil87"
           d="M61.0578 26.7984c-7.1115,0.420478 -12.3002,-0.664969 -19.1176,-3.79611 -6.69457,-3.01657 -14.9966,-10.2545 -24.5436,-13.76l-1.99727 0c10.1966,3.21618 19.0372,11.1308 26.0861,14.3069 7.00166,3.21854 12.2895,4.3099 19.5735,3.8528l-0.00118112 -0.603551z" /><path
           id="_51661472"
           class="fil88"
           d="M61.0578 26.2787c-7.5308,0.446462 -12.8872,-0.651977 -19.9632,-3.87288 -6.67213,-2.96697 -14.8608,-9.83044 -24.1881,-13.1635l-2.04569 -0.00118112c9.99579,3.04138 18.7455,10.5852 25.792,13.7234 7.25442,3.30713 12.7041,4.40911 20.405,3.92485l0 -0.610637z" /><path
           id="_52178528"
           class="fil89"
           d="M61.0567 25.7802c-7.95364,0.455911 -13.4765,-0.663788 -20.8066,-3.97092 -6.6367,-2.91382 -14.699,-9.40169 -23.7948,-12.5671l-2.10357 -0.00236223c9.78201,2.87484 18.4337,10.0466 25.4696,13.1387 7.50127,3.39099 13.1139,4.51069 21.2365,4.01225l-0.00118112 -0.610637z" /><path
           id="_85844152"
           class="fil90"
           d="M61.0567 25.2972c-8.38002,0.452368 -14.0754,-0.695678 -21.6534,-4.08548 -6.58709,-2.85476 -14.5065,-8.96232 -23.3542,-11.9694l-2.17326 -0.00236223c9.56468,2.71184 18.1006,9.50799 25.1129,12.5529 7.74931,3.46894 13.5214,4.61817 22.0692,4.11855l-0.00118112 -0.614181z" /><path
           id="_82565360"
           class="fil91"
           d="M61.0567 24.8389c-8.80995,0.431108 -14.6754,-0.755915 -22.5003,-4.22367 -6.52095,-2.79216 -14.2797,-8.5194 -22.8688,-11.373l-2.23349 -0.00236223c9.32374,2.56539 17.7286,8.97649 24.7031,11.9671 7.98789,3.54808 13.923,4.72919 22.8995,4.24612l0 -0.614181z" /><path
           id="_113988128"
           class="fil92"
           d="M61.0567 24.3995c-9.24106,0.396855 -15.2754,-0.839774 -23.3448,-4.38194 -6.44063,-2.72011 -14.0222,-8.06939 -22.3432,-10.7753l-2.289 -0.00236223c9.07334,2.42601 17.327,8.45325 24.2448,11.3812 8.22412,3.62012 14.3246,4.84848 23.7322,4.39848l0 -0.620086z" /><path
           id="_82008512"
           class="fil93"
           d="M61.0567 23.9897c-9.6698,0.340162 -15.8837,-0.954342 -24.1916,-4.56738 -6.33787,-2.64688 -13.7222,-7.61702 -21.7562,-10.1812l-2.35042 -0.00236223c8.80405,2.29609 16.8876,7.93356 23.7334,10.7966 8.46034,3.68863 14.7285,4.9725 24.5649,4.57565l0 -0.621267z" /><path
           id="_51319272"
           class="fil94"
           d="M61.0567 23.6046c-10.0974,0.269295 -16.4872,-1.09844 -25.0373,-4.77998 -6.21386,-2.56066 -13.3797,-7.15284 -21.1101,-9.58358l-2.41184 -0.00236223c8.52058,2.17562 16.4104,7.42214 23.1617,10.2108 8.69302,3.75359 15.1325,5.10479 25.3976,4.77644l0 -0.621267z" /><path
           id="_85792368"
           class="fil95"
           d="M61.0555 23.2515c-10.5202,0.177168 -17.0943,-1.27915 -25.883,-5.02447 -6.06622,-2.4709 -12.9876,-6.68512 -20.3979,-8.98594l-2.46617 -0.00236223c8.21349,2.06577 15.886,6.9178 22.5192,9.62492 8.92452,3.81619 15.5423,5.25125 26.2291,5.01266l-0.00118112 -0.624811z" /><path
           id="_85782552"
           class="fil96"
           d="M61.0555 22.9302c-10.9348,0.0637803 -17.7038,-1.49293 -26.7275,-5.29849 -5.89377,-2.37168 -12.5482,-6.22094 -19.6195,-8.39065l-2.51578 -0.00236223c7.8875,1.96302 15.312,6.42409 21.8011,9.04027 9.1572,3.87288 15.9557,5.40715 27.0629,5.27605l-0.00118112 -0.624811z" /><path
           id="_87907312"
           class="fil97"
           d="M61.0555 22.6467c-11.3434,-0.0720481 -18.3085,-1.74569 -27.5744,-5.61267 -5.69062,-2.26302 -12.0486,-5.74731 -18.7585,-7.79301l-2.56302 -0.00236223c7.53789,1.86735 14.6884,5.93984 21.0014,8.45443 9.38988,3.93194 16.3797,5.57723 27.8944,5.57842l0 -0.624811z" /><path
           id="_87685208"
           class="fil98"
           d="M61.0555 22.3963c-11.7427,-0.224412 -18.9144,-2.03506 -28.4189,-5.95873 -5.4603,-2.14491 -11.4946,-5.27723 -17.8231,-7.19655l-2.60082 -0.00236223c7.16466,1.77758 14.008,5.46385 20.118,7.8686 9.6202,3.98745 16.8097,5.76503 28.7248,5.9174l0 -0.628354z" /><path
           id="_85670448"
           class="fil99"
           d="M61.0543 22.1896c-12.1301,-0.402761 -19.5156,-2.36814 -29.2634,-6.34968 -5.19455,-2.01617 -10.8804,-4.80715 -16.8049,-6.5989l-2.63035 -0.00236223c6.76898,1.69136 13.2734,5.00203 19.1424,7.28277 9.85642,4.03942 17.2526,5.96818 29.5575,6.29653l-0.00118112 -0.628354z" /><path
           id="_113256648"
           class="fil100"
           d="M61.0543 22.029c-12.4986,-0.607094 -20.1144,-2.75082 -30.1114,-6.78434 -4.89455,-1.87798 -10.1942,-4.3406 -15.6911,-6.00244l-2.65633 -0.00354335c6.34614,1.60159 12.4797,4.54848 18.0687,6.69811 10.0974,4.09021 17.7144,6.19378 30.3913,6.72056l-0.00118112 -0.628354z" /><path
           id="_51285488"
           class="fil101"
           d="M61.0543 21.9133c-12.8506,-0.833869 -20.7073,-3.17602 -30.9559,-7.26623 -4.55675,-1.72797 -9.44421,-3.87761 -14.4876,-5.40479l-2.67641 -0.00354335c5.89614,1.50947 11.621,4.10911 16.8971,6.11464 10.3407,4.141 18.1927,6.43827 31.224,7.18946l-0.00118112 -0.629535z" /><path
           id="_87907288"
           class="fil102"
           d="M61.0543 21.8507c-13.1813,-1.08781 -21.2944,-3.6591 -31.8016,-7.8001 -4.18233,-1.56734 -8.62452,-3.42051 -13.1872,-4.80833l-2.69649 -0.00236223c5.42251,1.41025 10.7092,3.67682 15.6309,5.52526 10.5911,4.19178 18.69,6.71347 32.0555,7.71624l-0.00118112 -0.630716z" /><path
           id="_86910056"
           class="fil103"
           d="M61.0543 22.0326l-0.537408 -0.242129c-13.173,-1.38781 -21.4786,-4.19533 -32.111,-8.33514 -3.77013,-1.39844 -7.7375,-2.97287 -11.7982,-4.21304l-2.7083 -0.00236223c4.92171,1.30513 9.73949,3.26106 14.2691,4.94179 10.6442,4.16107 18.8955,6.91308 32.1134,8.22294l0.773632 0.348429 -0.00118112 -0.720481z" /><path
           id="_88506936"
           class="fil104"
           d="M61.0555 22.5499c-0.596464,-0.291736 -1.20474,-0.585834 -1.81774,-0.879932 -12.7254,-1.72325 -21.1172,-4.75281 -31.6776,-8.81349 -3.32012,-1.21537 -6.78197,-2.52877 -10.3135,-3.61422l-2.71657 -0.00118112c4.39612,1.18702 8.70719,2.85004 12.8057,4.35242 10.5604,4.07722 18.8908,7.04772 31.6468,8.69302 0.701583,0.335437 1.3949,0.668512 2.07286,1.00041l0 -0.737017z" /><path
           id="_88687312"
           class="fil105"
           d="M61.0555 23.1558c-1.00277,-0.531503 -2.03743,-1.06773 -3.09925,-1.60396 -12.2742,-2.06105 -20.7534,-5.30912 -31.2429,-9.29303 -2.8335,-1.02639 -5.76267,-2.09176 -8.74027,-3.01539l-2.72484 -0.00118112c3.84454,1.05946 7.62765,2.45082 11.2549,3.7654 10.4741,3.99336 18.8872,7.18001 31.1803,9.16429 1.15986,0.583472 2.28664,1.16812 3.37327,1.74333l-0.00118112 -0.759458z" /><path
           id="_87982704"
           class="fil106"
           d="M61.0567 23.8538c-1.39136,-0.796073 -2.85712,-1.60986 -4.38194,-2.42247 -11.8218,-2.39767 -20.3873,-5.86543 -30.8059,-9.76784 -2.31263,-0.827963 -4.68431,-1.66656 -7.08906,-2.41893l-2.72484 -0.00236223c3.27169,0.922452 6.49732,2.06459 9.61547,3.18193 10.3903,3.90595 18.8837,7.30993 30.7138,9.62965 1.63348,0.869302 3.19492,1.73624 4.6725,2.57956l0 -0.779537z" /><path
           id="_85799520"
           class="fil107"
           d="M61.0567 24.6511c-1.75632,-1.08663 -3.65556,-2.21459 -5.66227,-3.3402 -11.3742,-2.73429 -20.0258,-6.42173 -30.3724,-10.2426 -1.76459,-0.624811 -3.56107,-1.24608 -5.37644,-1.82246l-2.71539 -0.00354335c2.67877,0.773632 5.32802,1.68073 7.90758,2.59491 10.3064,3.82328 18.8802,7.44576 30.2484,10.1021 2.12955,1.19057 4.13273,2.37995 5.97055,3.515l0 -0.803159z" /><path
           id="_51800736"
           class="fil108"
           d="M61.0567 25.5558c-2.08703,-1.4008 -4.42683,-2.88429 -6.94497,-4.36305 -10.9218,-3.07209 -19.6609,-6.97922 -29.933,-10.7222 -1.19765,-0.418115 -2.40594,-0.830325 -3.62367,-1.22364l-2.69058 -0.00354335c2.07286,0.615362 4.12682,1.30395 6.13945,2.00908 10.2249,3.73587 18.8778,7.57686 29.7842,10.5698 2.65751,1.55789 5.10479,3.11815 7.26977,4.56738l-0.00118112 -0.833869z" /><path
           id="_86644384"
           class="fil109"
           d="M61.0578 26.5834c-2.37641,-1.73506 -5.1603,-3.62839 -8.22648,-5.51227 -10.4718,-3.40752 -19.2983,-7.53316 -29.4996,-11.1994 -0.610637,-0.21142 -1.22718,-0.420478 -1.84372,-0.624811l-2.65397 -0.00236223c1.45986,0.445281 2.90791,0.927177 4.33942,1.42206 10.1375,3.65319 18.8719,7.70915 29.3165,11.0387 3.22445,1.97719 6.12763,3.95792 8.569,5.74377l-0.00118112 -0.865759z" /><path
           id="_84565928"
           class="fil110"
           d="M61.059 27.7492c-2.602,-2.09058 -5.84299,-4.45163 -9.50917,-6.79851 -10.0194,-3.74296 -18.9333,-8.08947 -29.0637,-11.6753l-0.0803159 -0.0271657 -2.59373 -0.00236223c0.846861,0.270476 1.689,0.549219 2.52877,0.83505 10.0537,3.56934 18.866,7.84262 28.8488,11.5076 3.85635,2.46263 7.22844,4.93471 9.86941,7.06898l0 -0.908279z" /><path
           id="_51568600"
           class="fil111"
           d="M61.059 29.0921c-2.73429,-2.45909 -6.45126,-5.3729 -10.7907,-8.26073 -9.05917,-3.86225 -17.6069,-8.16034 -27.0287,-11.5832l-2.47444 -0.00118112 0.742923 0.249216c9.96863,3.48311 18.8613,7.97608 28.3858,11.9777 4.5721,3.04019 8.43672,6.09338 11.1651,8.58081l0 -0.96261z" /><path
           id="_85528624"
           class="fil112"
           d="M61.0602 30.6677l-0.114568 -0.12638c-2.71893,-2.80043 -6.8989,-6.33433 -11.9576,-9.82807 -8.12372,-3.93666 -16.225,-8.16506 -24.9558,-11.4639l-2.38704 -0.00236223c9.50327,3.37091 18.1868,7.91348 26.9495,12.1088 4.96542,3.42878 9.05799,6.87764 11.7261,9.59303l0.739379 0.816152 0 -1.09726z" /><path
           id="_84696936"
           class="fil113"
           d="M61.0614 32.5386c-0.478352,-0.549219 -0.959067,-1.10553 -1.44687,-1.66892 -2.63862,-2.93744 -6.81032,-6.63079 -11.9092,-10.2769 -7.25088,-3.97918 -14.8573,-8.13199 -22.955,-11.3423l-2.302 -0.00236223c8.80523,3.26697 17.0164,7.73395 24.8483,11.9931 5.00085,3.5776 9.08515,7.18237 11.6706,10.03 0.706308,0.830325 1.40317,1.64175 2.0953,2.43901l-0.00118112 -1.17167z" /><path
           id="_85902312"
           class="fil114"
           d="M61.0626 34.576c-0.916547,-1.09371 -1.83546,-2.21814 -2.77562,-3.37799 -2.56302,-3.07327 -6.72764,-6.92489 -11.862,-10.7257 -6.44772,-3.99454 -13.538,-8.07175 -21.0463,-11.2206l-2.20042 -0.00354335c8.1627,3.20201 15.8553,7.58749 22.818,11.8761 5.04101,3.7276 9.11232,7.48828 11.6175,10.4718 1.16931,1.45277 2.30908,2.85358 3.45004,4.20596l-0.00118112 -1.226z" /><path
           id="_83099744"
           class="fil115"
           d="M61.0649 36.7599c-1.36065,-1.66537 -2.71421,-3.40752 -4.10792,-5.23235 -2.48507,-3.20909 -6.64024,-7.22135 -11.8124,-11.1757 -5.71424,-3.99218 -12.2836,-7.9938 -19.2487,-11.1001l-2.09176 -0.00236223c7.57096,3.15831 14.7309,7.46348 20.894,11.7568 5.07644,3.87879 9.13712,7.79537 11.562,10.9135 1.62994,2.14373 3.20555,4.17289 4.80596,6.10165l-0.00118112 -1.26143z" /></g><g
         id="g154"><path
           id="_85684000"
           class="fil83"
           d="M18.9947 14.6092c-1.07364,-0.64489 -1.82483,41.0367 0.859853,41.8978 2.68704,0.862215 35.1311,-19.6018 36.7434,-21.3251 1.61222,-1.72325 -32.124,-22.8334 -37.6032,-20.5727z" /><g
           id="g157"><path
             id="_85899744"
             class="fil116"
             d="M19.238 15.2151c-1.04293,-0.625992 -1.77404,39.8438 0.833869,40.68 2.60672,0.837412 34.1107,-19.0337 35.6756,-20.7062 1.5638,-1.67246 -31.1909,-22.1707 -36.5095,-19.9739z" /><path
             id="_49714224"
             class="fil117"
             d="M19.4766 15.8222c-1.01104,-0.608275 -1.71971,38.6509 0.811427,39.4623 2.52877,0.812608 33.089,-18.4656 34.6067,-20.0873 1.51892,-1.62167 -30.2579,-21.5058 -35.4182,-19.375z" /><path
             id="_86043864"
             class="fil118"
             d="M19.7176 16.4282c-0.981508,-0.590558 -1.66892,37.4603 0.783081,38.2469 2.452,0.785443 32.0709,-17.8951 33.5425,-19.4683 1.47049,-1.57325 -29.3236,-20.8444 -34.3256,-18.7786z" /><path
             id="_85131736"
             class="fil119"
             d="M19.9573 17.0352c-0.949618,-0.571661 -1.61577,36.2674 0.759458,37.0292 2.37404,0.760639 31.0492,-17.327 32.4736,-18.8483 1.42561,-1.52246 -28.3905,-20.1806 -33.2331,-18.1809z" /><path
             id="_112666632"
             class="fil120"
             d="M20.1983 17.64c-0.918909,-0.551582 -1.56262,35.078 0.733474,35.8138 2.29609,0.737017 30.0299,-16.7565 31.4071,-18.2294 1.37836,-1.47285 -27.4574,-19.5168 -32.1406,-17.5845z" /><path
             id="_111647904"
             class="fil121"
             d="M20.4369 18.2471c-0.885838,-0.533865 -1.50829,33.8851 0.711032,34.5961 2.21696,0.712213 29.0082,-16.1884 30.3393,-17.6105 1.33112,-1.42325 -26.5255,-18.853 -31.0504,-16.9856z" /><path
             id="_85914216"
             class="fil122"
             d="M20.6778 18.853c-0.855129,-0.514967 -1.45632,32.6945 0.682686,33.3807 2.14255,0.685048 27.9901,-15.6179 29.2752,-16.9915 1.28387,-1.37246 -25.5936,-18.1904 -29.9578,-16.3892z" /><path
             id="_85839544"
             class="fil123"
             d="M20.9176 19.4589c-0.82442,-0.496069 -1.40317,31.5027 0.659063,32.163 2.06341,0.661425 26.9684,-15.0486 28.2063,-16.3715 1.23781,-1.32285 -24.6605,-17.5278 -28.8653,-15.7915z" /></g><path
           id="_85839568"
           class="fil124"
           d="M21.155 20.066c-0.792529,-0.477171 -1.35002,30.311 0.635441,30.9488 1.98428,0.635441 25.9491,-14.4805 27.1397,-15.7537 1.19175,-1.27088 -23.7286,-16.8652 -27.7751,-15.1951z" /></g><polygon
         id="_85847040"
         class="fil125"
         points="49.014,34.7532 35.3213,42.6596 21.6274,50.5648 21.6274,34.7532 21.6274,18.9416 35.3213,26.8468 " /></g><path
       class="fil126"
       d="M2.54531 11.2619c-0.100395,-1.66537 0.98387,-3.21972 2.81814,-3.21972l53.0924 0 0.0472447 0 0.00590558 0.00236223c1.8827,0.0248035 2.88193,1.56852 2.87956,3.50201l0.00236223 0 0 0.0413391 -0.294098 -0.0248035 0 -0.0413391 0.00236223 0c0,-1.38663 -1.25553,-2.46027 -2.59609,-2.48035l0 0.00236223 -0.0472447 0 -53.0924 0c-0.377957,0 -0.787805,0.244491 -1.09253,0.244491 -0.549219,0.257483 -1.10789,0.816152 -1.33821,1.39136l0.00236223 0.00118112c-0.0933082,0.236223 -0.145277,0.492526 -0.145277,0.758277l-0.244491 -0.177168z"
       id="path169" /><path
       class="fil127"
       d="M62.011 11.8561c0.0850404,15.4443 0.0224412,31.1508 0.0224412,46.5986 0,0.959067 -0.387406,1.83664 -1.01104,2.47444 -0.62363,0.638984 -1.48821,1.03938 -2.43428,1.03938l-53.116 0c-0.947256,0 -1.81065,-0.398036 -2.43546,-1.03584l-0.00118112 -0.00236223c-0.621267,-0.635441 -1.00985,-1.51301 -1.00985,-2.47562l-0.0767726 -37.517 -0.00118112 0 0 -0.442919 0 -11.158c0,-0.383863 0.0767726,-0.758277 0.214963,-1.10316 0.138191,-0.349611 0.344886,-0.675599 0.600007,-0.956705 0.327169,-0.395674 0.74056,-0.718119 1.20592,-0.940169l0.00118112 0c0.455911,-0.216144 0.964973,-0.337799 1.49411,-0.337799l52.9672 0 0.0342524 0 0.00354335 0.00236223c0.944894,0.00944894 1.839,0.402761 2.48979,1.02521 0.659063,0.629535 1.0819,1.49884 1.0819,2.44964l0 0.0318902 -0.00236223 0.00354335 -0.0271657 2.34452zm-0.879932 -0.00118112l0 -0.00590558 0.0271657 -2.34097 -0.00236223 0 0 -0.0318902c0,-0.699221 -0.312996,-1.34411 -0.803159,-1.81183 -0.49725,-0.473628 -1.17521,-0.774813 -1.88742,-0.783081l0 0.00118112 -0.0342524 0 -52.9672 0c-0.399218,0 -0.779537,0.0897649 -1.11616,0.249216l0 0.00118112c-0.353154,0.167719 -0.667331,0.414572 -0.910641,0.711032l-0.0165356 0.0177168c-0.187798,0.205514 -0.338981,0.441738 -0.440557,0.69804 -0.0944894,0.238586 -0.14764,0.500794 -0.14764,0.777175l0 10.7163 0.00118112 0 0 0.441738 0.0767726 37.9599c0,0.726387 0.290555,1.38663 0.757096,1.86262 0.462998,0.472447 1.10198,0.767726 1.80475,0.767726l53.116 0c0.701583,0 1.34057,-0.29646 1.80238,-0.768907l0.00236223 -0.00118112c0.466541,-0.477171 0.757096,-1.13742 0.757096,-1.86026 0,-15.4502 0.0803159,-31.1543 -0.0188979,-46.5998zm-58.3743 -4.56974l0.00590558 -0.00826782"
       id="path171" /></g></svg>