<?xml version="1.0" encoding="UTF-8" standalone="no"?>
<!-- Creator: CorelDRAW -->

<svg
   xmlns:dc="http://purl.org/dc/elements/1.1/"
   xmlns:cc="http://creativecommons.org/ns#"
   xmlns:rdf="http://www.w3.org/1999/02/22-rdf-syntax-ns#"
   xmlns:svg="http://www.w3.org/2000/svg"
   xmlns="http://www.w3.org/2000/svg"
   xmlns:sodipodi="http://sodipodi.sourceforge.net/DTD/sodipodi-0.dtd"
   xmlns:inkscape="http://www.inkscape.org/namespaces/inkscape"
   xml:space="preserve"
   width="72px"
   height="72px"
   style="shape-rendering:geometricPrecision; text-rendering:geometricPrecision; image-rendering:optimizeQuality; fill-rule:evenodd; clip-rule:evenodd"
   viewBox="0 0 72 72"
   id="svg2"
   version="1.1"
   inkscape:version="0.91 r13725"
   sodipodi:docname="document-open-folder.svg"><metadata
     id="metadata89"><rdf:RDF><cc:Work
         rdf:about=""><dc:format>image/svg+xml</dc:format><dc:type
           rdf:resource="http://purl.org/dc/dcmitype/StillImage" /></cc:Work></rdf:RDF></metadata><sodipodi:namedview
     pagecolor="#ffffff"
     bordercolor="#666666"
     borderopacity="1"
     objecttolerance="10"
     gridtolerance="10"
     guidetolerance="10"
     inkscape:pageopacity="0"
     inkscape:pageshadow="2"
     inkscape:window-width="640"
     inkscape:window-height="480"
     id="namedview87"
     showgrid="false"
     inkscape:zoom="3.2777778"
     inkscape:cx="36"
     inkscape:cy="36"
     inkscape:window-x="0"
     inkscape:window-y="28"
     inkscape:window-maximized="0"
     inkscape:current-layer="svg2" /><defs
     id="defs4"><style
       type="text/css"
       id="style6"><![CDATA[
    .fil28 {fill:#B0E2FC;fill-rule:nonzero}
    .fil25 {fill:white;fill-rule:nonzero}
    .fil0 {fill:black;fill-opacity:0.000000}
    .fil11 {fill:#9E9E9E;fill-opacity:0.000000}
    .fil12 {fill:#9E9E9E;fill-opacity:0.007843}
    .fil1 {fill:black;fill-opacity:0.011765}
    .fil13 {fill:#9E9E9E;fill-opacity:0.019608}
    .fil2 {fill:black;fill-opacity:0.027451}
    .fil14 {fill:#9E9E9E;fill-opacity:0.027451}
    .fil15 {fill:#9E9E9E;fill-opacity:0.035294}
    .fil3 {fill:black;fill-opacity:0.039216}
    .fil16 {fill:#9E9E9E;fill-opacity:0.047059}
    .fil4 {fill:black;fill-opacity:0.054902}
    .fil17 {fill:#9E9E9E;fill-opacity:0.054902}
    .fil18 {fill:#9E9E9E;fill-opacity:0.062745}
    .fil5 {fill:black;fill-opacity:0.066667}
    .fil19 {fill:#9E9E9E;fill-opacity:0.074510}
    .fil6 {fill:black;fill-opacity:0.078431}
    .fil20 {fill:#9E9E9E;fill-opacity:0.082353}
    .fil21 {fill:#9E9E9E;fill-opacity:0.094118}
    .fil7 {fill:black;fill-opacity:0.094118}
    .fil22 {fill:#9E9E9E;fill-opacity:0.101961}
    .fil8 {fill:black;fill-opacity:0.105882}
    .fil23 {fill:#9E9E9E;fill-opacity:0.109804}
    .fil9 {fill:black;fill-opacity:0.121569}
    .fil24 {fill:#9E9E9E;fill-opacity:0.121569}
    .fil27 {fill:url(#id0)}
    .fil10 {fill:url(#id1)}
    .fil26 {fill:url(#id2);fill-rule:nonzero}
    .fil30 {fill:url(#id3);fill-rule:nonzero}
    .fil29 {fill:url(#id4);fill-rule:nonzero;fill-opacity:0.580392}
   ]]></style><linearGradient
       id="id0"
       gradientUnits="userSpaceOnUse"
       x1="36.0213"
       y1="33.6933"
       x2="36.0213"
       y2="69.7122"><stop
         offset="0"
         style="stop-color:#5589C4"
         id="stop9" /><stop
         offset="0.258824"
         style="stop-color:#5795C9"
         id="stop11" /><stop
         offset="0.419608"
         style="stop-color:#649FCF"
         id="stop13" /><stop
         offset="0.901961"
         style="stop-color:#9FCFF5"
         id="stop15" /><stop
         offset="1"
         style="stop-color:#649DCF"
         id="stop17" /></linearGradient><linearGradient
       id="id1"
       gradientUnits="userSpaceOnUse"
       x1="36.1063"
       y1="29.3067"
       x2="36.3862"
       y2="52.9358"><stop
         offset="0"
         style="stop-color:#E8E8E8"
         id="stop20" /><stop
         offset="1"
         style="stop-color:#D6D6D6"
         id="stop22" /></linearGradient><linearGradient
       id="id2"
       gradientUnits="userSpaceOnUse"
       x1="35.9492"
       y1="33.4701"
       x2="35.9492"
       y2="12.9638"><stop
         offset="0"
         style="stop-color:#A2A2A2"
         id="stop25" /><stop
         offset="1"
         style="stop-color:#B3B3B3"
         id="stop27" /></linearGradient><linearGradient
       id="id3"
       gradientUnits="userSpaceOnUse"
       x1="36.5799"
       y1="38.3705"
       x2="35.4626"
       y2="65.2264"><stop
         offset="0"
         style="stop-color:#4E87B4"
         id="stop30" /><stop
         offset="0.721569"
         style="stop-color:#4F82AB"
         id="stop32" /><stop
         offset="1"
         style="stop-color:#517EA3"
         id="stop34" /></linearGradient><linearGradient
       id="id4"
       gradientUnits="userSpaceOnUse"
       x1="15.6909"
       y1="68.6197"
       x2="15.665"
       y2="67.1811"><stop
         offset="0"
         style="stop-color:#A8D8FF"
         id="stop37" /><stop
         offset="1"
         style="stop-color:#71ACE1"
         id="stop39" /></linearGradient></defs><g
     id="Слой_x0020_1"><metadata
       id="CorelCorpID_0Corel-Layer" /><g
       id="_308725944"><path
         id="_308711664"
         class="fil0"
         d="M33.9791 61.7374c14.2134,0 31.4398,3.95551 37.0583,6.77835 1.29449,0.650787 0.772441,2.86181 0.772441,3.10866 0,0.011811 -0.0637795,0.0224409 -0.168898,0.034252l-71.1898 0c-0.243307,-0.0153543 -0.380315,-0.0318898 -0.380315,-0.0484252 0.0838583,0.177165 -0.58937,-1.3311 0.726378,-2.16732 5.01024,-3.1878 19.6524,-7.70551 33.1819,-7.70551z" /><g
         id="g45"><path
           id="_308696184"
           class="fil1"
           d="M34.1516 62.3457c13.9252,0 30.9047,3.58346 36.4665,6.22559 1.31811,0.616535 0.832677,2.68346 0.832677,2.9374 0,0.057874 -1.32283,0.108661 -3.59528,0.15l-63.1122 0c-2.54646,-0.0413386 -4.04409,-0.092126 -4.04409,-0.15 0,-0.302362 -0.733465,-1.29567 0.79252,-2.1 5.13898,-2.73189 19.3795,-7.06299 32.6598,-7.06299z" /><path
           id="_308706048"
           class="fil2"
           d="M34.3217 62.9528c13.6382,0 30.0319,3.22677 35.5346,5.68937 1.33937,0.583465 0.894094,2.5063 0.894094,2.76496 0,0.11811 -5.26181,0.200787 -12.8811,0.251575l-42.4594 0c-8.24291,-0.0519685 -14.0469,-0.135827 -14.0469,-0.251575 0,-0.304724 -0.721654,-1.27913 0.823228,-2.0315 5.12244,-2.53583 19.1055,-6.42283 32.1354,-6.42283z" /><path
           id="_308697840"
           class="fil3"
           d="M34.4917 63.5622c13.3524,0 29.1579,2.87008 34.6039,5.15079 1.36063,0.550394 0.954331,2.32913 0.954331,2.59252 0,0.429921 -68.0244,0.400394 -68.0244,0 0,-0.308268 -0.708661,-1.2626 0.853937,-1.96299 5.10709,-2.33976 18.8327,-5.78031 31.6122,-5.78031z" /><path
           id="_308721888"
           class="fil4"
           d="M34.663 64.1705c13.0654,0 28.2839,2.51339 33.672,4.61339 1.38189,0.517323 1.01575,2.15197 1.01575,2.42126 0,0.429921 -66.6602,0.400394 -66.6602,0 0,-0.311811 -0.69685,-1.24724 0.883465,-1.89567 5.09173,-2.1437 18.5587,-5.13898 31.089,-5.13898z" /><path
           id="_308725752"
           class="fil5"
           d="M34.8307 64.7776c12.7795,0 27.4122,2.15669 32.7413,4.07717 1.40433,0.48189 1.07717,1.97244 1.07717,2.24764 0,0.42874 -65.2972,0.400394 -65.2972,0 0,-0.315354 -0.683858,-1.23189 0.915354,-1.82835 5.07402,-1.94764 18.2835,-4.49646 30.5634,-4.49646z" /><path
           id="_308696904"
           class="fil6"
           d="M35.0008 65.3858c12.4925,0 26.5382,1.80118 31.8094,3.53976 1.42559,0.448819 1.13858,1.79528 1.13858,2.07638 0,0.42874 -63.9331,0.400394 -63.9331,0 0,-0.318898 -0.670866,-1.21535 0.944882,-1.75984 5.05984,-1.75276 18.0106,-3.8563 30.0402,-3.8563z" /><path
           id="_308725968"
           class="fil7"
           d="M35.1709 65.9941c12.2067,0 25.6642,1.44449 30.8776,3.00236 1.44803,0.415748 1.2,1.61811 1.2,1.90394 0,0.429921 -62.5689,0.400394 -62.5689,0 0,-0.322441 -0.659055,-1.2 0.974409,-1.69134 5.04449,-1.55669 17.7378,-3.21496 29.5169,-3.21496z" /><path
           id="_308708424"
           class="fil8"
           d="M35.3409 66.6012c11.9185,0 24.7913,1.08898 29.9469,2.46614 1.46929,0.382677 1.26024,1.43976 1.26024,1.7315 0,0.429921 -61.2059,0.400394 -61.2059,0 0,-0.324803 -0.646063,-1.18346 1.0063,-1.62402 5.02795,-1.35945 17.4638,-2.57362 28.9925,-2.57362z" /></g><path
         id="_308704080"
         class="fil9"
         d="M35.511 67.2106c11.6327,0 23.9173,0.732283 29.015,1.92756 1.49173,0.349606 1.32165,1.2626 1.32165,1.56024 0,0.429921 -59.8429,0.400394 -59.8429,0 0,-0.329528 -0.633071,-1.16811 1.03583,-1.55551 5.01378,-1.16457 17.1909,-1.93228 28.4705,-1.93228z" /></g><path
       class="fil10"
       d="M65.6728 18.4157c1.06299,0.264567 1.85433,1.23543 1.85433,2.37756l0.594094 23.7567 -4.54488 20.6055c0,1.34646 -1.10197,2.44961 -2.44724,2.44961l-0.943701 1.27323 -32.4378 0 -7.15394 0 -7.73858 0 -4.57205 0 -0.148819 0 0 -0.00472441c-1.27795,-0.0779528 -2.29961,-1.14803 -2.29961,-2.44488l-1.46457 -45.6343c0,-1.34764 1.10197,-2.45669 2.44843,-2.44961l3.1252 0.0200787c1.1315,-0.255118 2.1189,-0.946063 2.9622,-2.77323 0.500787,-1.08543 0.93189,-2.02913 1.96535,-2.22756l18.9614 0c1.03346,0.198425 1.46457,1.14213 1.96535,2.22756 1.02047,2.21102 2.21102,2.72126 3.62717,2.82047l0 0.00354331 0.0555118 0c0.61063,0.0389764 1.2626,0.00354331 1.96063,0l0.229134 0 24.0024 0z"
       id="path56" /><g
       id="_310688232"><polygon
         id="_310709520"
         class="fil11"
         points="4.99488,25.6087 67.1031,25.6087 67.1031,33.8728 4.99488,33.9343 " /><g
         id="g60"><path
           id="_310712544"
           class="fil12"
           d="M4.99488 26.165c20.7035,0 41.4047,0 62.1083,0l0 7.70787 -62.1083 0.0614173 0 -7.76929z" /><path
           id="_310707024"
           class="fil13"
           d="M4.99488 26.7213c20.7035,0 41.4047,0 62.1083,0l0 7.15157 -62.1083 0.0614173 0 -7.21299z" /><path
           id="_310706184"
           class="fil14"
           d="M4.99488 27.2787c20.7035,0 41.4047,0 62.1083,0l0 6.59409 -62.1083 0.0614173 0 -6.65551z" /><path
           id="_310695864"
           class="fil15"
           d="M4.99488 27.8362c20.7035,0 41.4047,0 62.1083,0l0 6.03661 -62.1083 0.0614173 0 -6.09803z" /><path
           id="_310715448"
           class="fil16"
           d="M4.99488 28.3925c20.7035,0 41.4047,0 62.1083,0l0 5.48031 -62.1083 0.0614173 0 -5.54173z" /><path
           id="_310703832"
           class="fil17"
           d="M4.99488 28.9488c20.7035,0 41.4047,0 62.1083,0l0 4.92402 -62.1083 0.0614173 0 -4.98543z" /><path
           id="_310711656"
           class="fil18"
           d="M4.99488 29.5063c20.7035,0 41.4047,0 62.1083,0l0 4.36654 -62.1083 0.0614173 0 -4.42795z" /><path
           id="_310712952"
           class="fil19"
           d="M4.99488 30.0626c20.7035,0 41.4047,0 62.1083,0l0 3.81024 -62.1083 0.0614173 0 -3.87165z" /><path
           id="_310708488"
           class="fil20"
           d="M4.99488 30.6189c20.7035,0 41.4047,0 62.1083,0l0 3.25394 -62.1083 0.0614173 0 -3.31535z" /><path
           id="_310694472"
           class="fil21"
           d="M4.99488 31.1764c20.7035,0 41.4047,0 62.1083,0l0 2.69646 -62.1083 0.0614173 0 -2.75787z" /><path
           id="_310712208"
           class="fil22"
           d="M4.99488 31.7327c20.7035,0 41.4047,0 62.1083,0l0 2.14016 -62.1083 0.0614173 0 -2.20157z" /><path
           id="_310710096"
           class="fil23"
           d="M4.99488 32.289c20.7035,0 41.4047,0 62.1083,0l0 1.58386 -62.1083 0.0614173 0 -1.64528z" /></g><polygon
         id="_310712184"
         class="fil24"
         points="4.99488,32.8465 67.1031,32.8465 67.1031,33.8728 4.99488,33.9343 " /></g><path
       class="fil25"
       d="M65.7354 18.9626c0.646063,0.16063 1.21181,0.538583 1.60984,1.04882 0.390945,0.501969 0.627165,1.13504 0.627165,1.81417l0 3.48189 -1.00157 0 0 -3.48189c0,-0.451181 -0.155906,-0.870472 -0.412205,-1.2 -0.250394,-0.32126 -0.601181,-0.564567 -0.999213,-0.677953l-23.9457 0 -0.229134 0 0 -0.0023622 -0.622441 0.00944882 -0.0023622 0c-0.465354,0.00826772 -0.914173,0.0165354 -1.33465,-0.00826772l0 0.0011811 -0.0566929 0 -0.500787 0 0 -0.0543307c-0.614173,-0.0885827 -1.19291,-0.277559 -1.74449,-0.659055 -0.673228,-0.464173 -1.26969,-1.11024 -1.82008,-2.30315l-0.00708661 -0.0165354 -0.0023622 -0.00354331c-0.429921,-0.929528 -0.805512,-1.74094 -1.54488,-1.91457l-18.8764 0c-0.742913,0.173622 -1.12205,0.993307 -1.55315,1.92992l-0.0023622 0.00472441c-0.451181,0.977953 -0.967323,1.56378 -1.51181,2.04213l0.0011811 0.0011811c-0.561024,0.493701 -1.16575,0.762992 -1.80945,0.909449l-0.112205 0.011811 -3.12283 -0.0200787 0 0.0023622 -0.0165354 0c-0.529134,0 -1.01102,0.218504 -1.35945,0.566929 -0.349606,0.350787 -0.569291,0.83622 -0.574016,1.36299l0.0023622 0 0 0.0177165 0 3.48189 -1.00157 0 0 -3.48189 0 -0.0177165 0.0023622 -0.0023622c0.00472441,-0.80315 0.337795,-1.53661 0.864567,-2.06457 0.531496,-0.532677 1.2626,-0.864567 2.06575,-0.864567l0.0165354 0 0.0023622 0.0023622 3.06378 0.0200787c0.466535,-0.113386 0.909449,-0.316535 1.31693,-0.675591l0.0165354 0.100394c0.441732,-0.387402 0.858661,-0.964961 1.24843,-1.81063l0.0023622 -0.00472441c0.553937,-1.20354 1.03819,-2.25591 2.32323,-2.50276l0.0933071 -0.0106299 18.9626 0 0.0933071 0.0106299c1.27795,0.244488 1.7622,1.28858 2.31614,2.4874l0.00708661 0.0165354 0.0023622 0.00354331c0.468898,1.01693 0.950787,1.53661 1.47992,1.90157 0.512598,0.354331 1.08543,0.486614 1.71142,0.530315l0.0165354 0.0011811 0.00708661 0 0.0295276 0.0023622c0.412205,0.0248031 0.843307,0.0165354 1.29094,0.00944882l0.0023622 0 0.630709 -0.00944882 0.00590551 -0.0023622 0.229134 0 24.0024 0 0.119291 0.0165354z"
       id="path75" /><path
       class="fil26"
       d="M65.7921 18.0319c0.646063,0.16063 1.21181,0.538583 1.60984,1.04882 0.390945,0.501969 0.627165,1.13504 0.627165,1.81417l0 12.5764 -1.00157 0 0 -12.5764c0,-0.451181 -0.155906,-0.870472 -0.412205,-1.2 -0.250394,-0.32126 -0.601181,-0.564567 -0.999213,-0.677953l-23.9457 0 -0.229134 0 0 -0.0023622 -0.622441 0.00944882 -0.0023622 0c-0.465354,0.00826772 -0.914173,0.0165354 -1.33465,-0.00826772l0 0.0011811 -0.0566929 0 -0.500787 0 0 -0.0543307c-0.614173,-0.0885827 -1.19291,-0.277559 -1.74449,-0.659055 -0.673228,-0.464173 -1.26969,-1.21063 -1.82008,-2.40354l-0.00708661 0.0838583 -0.0023622 -0.103937c-0.429921,-0.929528 -0.805512,-1.74094 -1.54488,-1.91457l-18.8764 0c-0.742913,0.173622 -1.12205,0.993307 -1.55315,1.92992l-0.0023622 0.105118c-0.451181,0.977953 -0.967323,1.56378 -1.51181,2.04213l0.0011811 0.0011811c-0.561024,0.493701 -1.16575,0.762992 -1.80945,0.909449l-0.112205 0.011811 -3.12283 -0.0200787 0 0.0023622 -0.0165354 0c-0.529134,0 -1.01102,0.218504 -1.35945,0.566929 -0.349606,0.350787 -0.569291,0.83622 -0.574016,1.36299l0.0023622 0 0 0.0177165 0 12.5764 -1.00157 0 0 -12.5764 0 -0.0177165 0.0023622 -0.0023622c0.00472441,-0.80315 0.337795,-1.53661 0.864567,-2.06457 0.531496,-0.532677 1.2626,-0.864567 2.06575,-0.864567l0.0165354 0 0.0023622 0.0023622 3.06378 0.0200787c0.466535,-0.113386 0.909449,-0.416929 1.31693,-0.775984l0.0165354 0.200787c0.441732,-0.387402 0.858661,-0.964961 1.24843,-1.81063l0.0023622 -0.105118c0.553937,-1.20354 1.03819,-2.25591 2.32323,-2.50276l0.0933071 -0.0106299 18.9626 0 0.0933071 0.0106299c1.27795,0.244488 1.7622,1.28858 2.31614,2.4874l0.00708661 0.116929 0.0023622 -0.0968504c0.468898,1.01693 0.950787,1.53661 1.47992,1.90157 0.512598,0.354331 1.08543,0.587008 1.71142,0.630709l0.0165354 0.0011811 0.00708661 0 0.0295276 0.0023622c0.412205,0.0248031 0.843307,0.0165354 1.29094,0.00944882l0.0023622 0 0.630709 -0.00944882 0.00590551 -0.0023622 0.229134 0 24.0024 0 0.119291 0.0165354z"
       id="path77" /><path
       class="fil27"
       d="M3.30945 33.3921c-1.17638,0.237402 -3.08031,1.12559 -2.74488,3.45472 1.60276,11.1154 4.37126,17.8913 4.54488,29.2807 0,0 -0.315354,3.95079 5.22047,3.6874 4.14685,-0.197244 14.0374,-0.170079 19.8685,-0.146457l0 0.0165354 1.88268 -0.00708661 0.0271654 0 1.29213 0.00708661 0 -0.011811c7.65709,-0.0248031 24.1665,-0.0649606 28.565,0.144094 5.53583,0.263386 5.22047,-3.68858 5.22047,-3.68858 0.81378,-9.4937 0.81378,-17.6906 4.29213,-29.2795 0.336614,-2.32913 -1.68071,-3.28583 -2.85591,-3.52323l-65.3126 0.0661417z"
       id="path79" /><path
       class="fil28"
       d="M3.3626 35.015c-0.598819,0.127559 -1.3937,0.441732 -1.88268,1.05945 -0.337795,0.425197 -0.53622,1.02047 -0.420472,1.82598l0.0956693 0.654331 -0.330709 0c-0.0885827,-0.558661 -0.175984,-1.12677 -0.259843,-1.70787 -0.0720472,-0.497244 -0.0413386,-0.928346 0.0625984,-1.30157l0.0708661 -0.092126c0.679134,-0.855118 1.73976,-1.26969 2.51339,-1.42559l0.0472441 -0.00826772 0.0507874 -0.0011811 65.3126 -0.0661417 0.0507874 0 0.0472441 0.00944882c0.77126,0.154724 1.87559,0.596457 2.58543,1.47165l0.106299 0.13937c0.103937,0.370866 0.135827,0.793701 0.0661417,1.27677 -0.173622,0.576378 -0.337795,1.14449 -0.493701,1.70551l-0.198425 0 0.200787 -0.680315c0.106299,-0.787795 -0.105118,-1.37835 -0.455906,-1.81299 -0.523228,-0.643701 -1.35472,-0.981496 -1.96063,-1.1126l-65.2075 0.0661417z"
       id="path81" /><path
       class="fil29"
       d="M66.8079 67.1067l0.295276 0c-0.676772,1.13268 -2.00669,2.14252 -4.61339,1.98661l-52.6488 -0.0023622c-2.60433,0.154724 -3.93425,-0.853937 -4.61102,-1.98425l0.295276 0c-0.111024,-0.138189 -0.209055,-0.282283 -0.295276,-0.427559l0.849213 0c0.650787,0.787795 1.77874,1.40906 3.72638,1.29331l52.7197 0.0011811c1.95236,0.11811 3.08031,-0.504331 3.7311,-1.29449l0.84685 0c-0.0862205,0.145276 -0.185433,0.288189 -0.295276,0.427559z"
       id="path83" /><path
       class="fil30"
       d="M3.3626 33.9827c-0.598819,0.127559 -1.3937,0.441732 -1.88268,1.05945 -0.337795,0.425197 -0.53622,1.02047 -0.420472,1.82598 0.591732,4.10669 1.30748,7.63228 2.0374,11.0138 1.2437,5.75551 2.40236,11.113 2.51102,18.3319l0.0011811 0.0259843 -0.00354331 0.0283465c0,0.00826772 -0.265748,3.37677 4.70079,3.14055 2.07047,-0.0980315 5.59252,-0.141732 9.32362,-0.155906 3.72047,-0.0153543 7.65709,-0.0011811 10.5709,0.00944882l0.498425 0.0011811 0 0.0129921 1.38189 -0.00472441 0 -0.0023622 0.0271654 0 0.0023622 0.0023622 0.788976 0.00472441 0 -0.00826772 0.500787 -0.0011811c3.82677,-0.0106299 9.87165,-0.0271654 15.5043,-0.0153543 5.64567,0.0129921 10.8874,0.0566929 13.0843,0.159449 4.96654,0.23622 4.70079,-3.13346 4.70079,-3.14173l-0.00590551 -0.0543307 0.00354331 -0.0354331 0.18189 -2.15433c0.722835,-8.62323 0.9,-16.4492 4.11732,-27.1831 0.106299,-0.787795 -0.105118,-1.37835 -0.455906,-1.81299 -0.523228,-0.643701 -1.35472,-0.981496 -1.96063,-1.1126l-65.2075 0.0661417zm-2.66457 0.438189c0.679134,-0.855118 1.73976,-1.26969 2.51339,-1.42559l0.0472441 -0.00826772 0.0507874 -0.0011811 65.3126 -0.0661417 0.0507874 0 0.0472441 0.00944882c0.77126,0.154724 1.87559,0.596457 2.58543,1.47165 0.516142,0.637795 0.827953,1.49409 0.667323,2.61142l-0.00472441 0.0318898 -0.011811 0.0401575c-3.19606,10.6488 -3.36969,18.4394 -4.09016,27.0236l-0.180709 2.14134c0.0153543,0.595276 -0.106299,4.42559 -5.7437,4.15866 -2.19803,-0.102756 -7.4185,-0.147638 -13.037,-0.159449 -5.39291,-0.011811 -11.1638,0.00354331 -15.0035,0.0141732l0 0.0153543 -0.50315 -0.0023622 -1.28976 -0.00708661 0 0.0023622 -0.0271654 0 0 -0.0023622 -1.88268 0.00708661 -0.500787 0.0011811 0 -0.0200787c-2.85354,-0.00944882 -6.55394,-0.0200787 -10.063,-0.00708661l-0.0023622 0c-3.70276,0.0129921 -7.20472,0.0566929 -9.27874,0.155906 -5.72126,0.271654 -5.76142,-3.67559 -5.74252,-4.1811 -0.10748,-7.09843 -1.25669,-12.4169 -2.49213,-18.1323 -0.733465,-3.39449 -1.45157,-6.93425 -2.04921,-11.0823 -0.16063,-1.1185 0.132283,-1.96417 0.628346,-2.58898z"
       id="path85" /></g></svg>