<?xml version="1.0" encoding="UTF-8" standalone="no"?>
<!-- Creator: CorelDRAW -->

<svg
   xmlns:dc="http://purl.org/dc/elements/1.1/"
   xmlns:cc="http://creativecommons.org/ns#"
   xmlns:rdf="http://www.w3.org/1999/02/22-rdf-syntax-ns#"
   xmlns:svg="http://www.w3.org/2000/svg"
   xmlns="http://www.w3.org/2000/svg"
   xmlns:xlink="http://www.w3.org/1999/xlink"
   xmlns:sodipodi="http://sodipodi.sourceforge.net/DTD/sodipodi-0.dtd"
   xmlns:inkscape="http://www.inkscape.org/namespaces/inkscape"
   xml:space="preserve"
   width="48px"
   height="48px"
   style="shape-rendering:geometricPrecision; text-rendering:geometricPrecision; image-rendering:optimizeQuality; fill-rule:evenodd; clip-rule:evenodd"
   viewBox="0 0 48 48"
   id="svg2"
   version="1.1"
   inkscape:version="0.91 r13725"
   sodipodi:docname="application-x-amarok.svg"><metadata
     id="metadata173"><rdf:RDF><cc:Work
         rdf:about=""><dc:format>image/svg+xml</dc:format><dc:type
           rdf:resource="http://purl.org/dc/dcmitype/StillImage" /></cc:Work></rdf:RDF></metadata><sodipodi:namedview
     pagecolor="#ffffff"
     bordercolor="#666666"
     borderopacity="1"
     objecttolerance="10"
     gridtolerance="10"
     guidetolerance="10"
     inkscape:pageopacity="0"
     inkscape:pageshadow="2"
     inkscape:window-width="640"
     inkscape:window-height="480"
     id="namedview171"
     showgrid="false"
     inkscape:zoom="4.9166667"
     inkscape:cx="24"
     inkscape:cy="24"
     inkscape:window-x="0"
     inkscape:window-y="28"
     inkscape:window-maximized="0"
     inkscape:current-layer="svg2" /><defs
     id="defs4"><style
       type="text/css"
       id="style6"><![CDATA[
    .fil124 {fill:white}
    .fil15 {fill:#5B98C8}
    .fil126 {fill:#4E87B4;fill-rule:nonzero}
    .fil125 {fill:#BCE6FF;fill-rule:nonzero}
    .fil0 {fill:black;fill-opacity:0.000000}
    .fil82 {fill:#A3EFF7;fill-opacity:0.000000}
    .fil1 {fill:black;fill-opacity:0.003922}
    .fil2 {fill:black;fill-opacity:0.007843}
    .fil115 {fill:#A3EFF7;fill-opacity:0.011765}
    .fil3 {fill:black;fill-opacity:0.015686}
    .fil81 {fill:#64A4DB;fill-opacity:0.015686}
    .fil114 {fill:#88C8E8;fill-opacity:0.015686}
    .fil49 {fill:#B8E7FF;fill-opacity:0.015686}
    .fil4 {fill:black;fill-opacity:0.019608}
    .fil5 {fill:black;fill-opacity:0.023529}
    .fil116 {fill:#A3EFF7;fill-opacity:0.027451}
    .fil6 {fill:black;fill-opacity:0.027451}
    .fil80 {fill:#64A4DB;fill-opacity:0.031373}
    .fil113 {fill:#88C8E8;fill-opacity:0.031373}
    .fil48 {fill:#B8E7FF;fill-opacity:0.031373}
    .fil7 {fill:black;fill-opacity:0.031373}
    .fil8 {fill:black;fill-opacity:0.035294}
    .fil117 {fill:#A3EFF7;fill-opacity:0.039216}
    .fil9 {fill:black;fill-opacity:0.043137}
    .fil79 {fill:#64A4DB;fill-opacity:0.047059}
    .fil112 {fill:#88C8E8;fill-opacity:0.047059}
    .fil47 {fill:#B8E7FF;fill-opacity:0.047059}
    .fil10 {fill:black;fill-opacity:0.047059}
    .fil11 {fill:black;fill-opacity:0.050980}
    .fil118 {fill:#A3EFF7;fill-opacity:0.054902}
    .fil12 {fill:black;fill-opacity:0.054902}
    .fil13 {fill:black;fill-opacity:0.058824}
    .fil78 {fill:#64A4DB;fill-opacity:0.058824}
    .fil111 {fill:#88C8E8;fill-opacity:0.058824}
    .fil46 {fill:#B8E7FF;fill-opacity:0.058824}
    .fil119 {fill:#A3EFF7;fill-opacity:0.066667}
    .fil77 {fill:#64A4DB;fill-opacity:0.074510}
    .fil110 {fill:#88C8E8;fill-opacity:0.074510}
    .fil45 {fill:#B8E7FF;fill-opacity:0.074510}
    .fil120 {fill:#A3EFF7;fill-opacity:0.078431}
    .fil76 {fill:#64A4DB;fill-opacity:0.090196}
    .fil109 {fill:#88C8E8;fill-opacity:0.090196}
    .fil44 {fill:#B8E7FF;fill-opacity:0.090196}
    .fil121 {fill:#A3EFF7;fill-opacity:0.094118}
    .fil75 {fill:#64A4DB;fill-opacity:0.105882}
    .fil108 {fill:#88C8E8;fill-opacity:0.105882}
    .fil43 {fill:#B8E7FF;fill-opacity:0.105882}
    .fil122 {fill:#A3EFF7;fill-opacity:0.105882}
    .fil123 {fill:#A3EFF7;fill-opacity:0.121569}
    .fil74 {fill:#64A4DB;fill-opacity:0.121569}
    .fil107 {fill:#88C8E8;fill-opacity:0.121569}
    .fil42 {fill:#B8E7FF;fill-opacity:0.121569}
    .fil73 {fill:#64A4DB;fill-opacity:0.137255}
    .fil106 {fill:#88C8E8;fill-opacity:0.137255}
    .fil41 {fill:#B8E7FF;fill-opacity:0.137255}
    .fil72 {fill:#64A4DB;fill-opacity:0.152941}
    .fil105 {fill:#88C8E8;fill-opacity:0.152941}
    .fil40 {fill:#B8E7FF;fill-opacity:0.152941}
    .fil71 {fill:#64A4DB;fill-opacity:0.164706}
    .fil104 {fill:#88C8E8;fill-opacity:0.164706}
    .fil39 {fill:#B8E7FF;fill-opacity:0.164706}
    .fil70 {fill:#64A4DB;fill-opacity:0.180392}
    .fil103 {fill:#88C8E8;fill-opacity:0.180392}
    .fil38 {fill:#B8E7FF;fill-opacity:0.180392}
    .fil69 {fill:#64A4DB;fill-opacity:0.196078}
    .fil102 {fill:#88C8E8;fill-opacity:0.196078}
    .fil37 {fill:#B8E7FF;fill-opacity:0.196078}
    .fil68 {fill:#64A4DB;fill-opacity:0.211765}
    .fil101 {fill:#88C8E8;fill-opacity:0.211765}
    .fil36 {fill:#B8E7FF;fill-opacity:0.211765}
    .fil67 {fill:#64A4DB;fill-opacity:0.227451}
    .fil100 {fill:#88C8E8;fill-opacity:0.227451}
    .fil35 {fill:#B8E7FF;fill-opacity:0.227451}
    .fil66 {fill:#64A4DB;fill-opacity:0.243137}
    .fil99 {fill:#88C8E8;fill-opacity:0.243137}
    .fil34 {fill:#B8E7FF;fill-opacity:0.243137}
    .fil65 {fill:#64A4DB;fill-opacity:0.258824}
    .fil98 {fill:#88C8E8;fill-opacity:0.258824}
    .fil33 {fill:#B8E7FF;fill-opacity:0.258824}
    .fil64 {fill:#64A4DB;fill-opacity:0.274510}
    .fil97 {fill:#88C8E8;fill-opacity:0.274510}
    .fil32 {fill:#B8E7FF;fill-opacity:0.274510}
    .fil63 {fill:#64A4DB;fill-opacity:0.286275}
    .fil96 {fill:#88C8E8;fill-opacity:0.286275}
    .fil31 {fill:#B8E7FF;fill-opacity:0.286275}
    .fil62 {fill:#64A4DB;fill-opacity:0.301961}
    .fil95 {fill:#88C8E8;fill-opacity:0.301961}
    .fil30 {fill:#B8E7FF;fill-opacity:0.301961}
    .fil61 {fill:#64A4DB;fill-opacity:0.317647}
    .fil94 {fill:#88C8E8;fill-opacity:0.317647}
    .fil29 {fill:#B8E7FF;fill-opacity:0.317647}
    .fil60 {fill:#64A4DB;fill-opacity:0.333333}
    .fil93 {fill:#88C8E8;fill-opacity:0.333333}
    .fil28 {fill:#B8E7FF;fill-opacity:0.333333}
    .fil59 {fill:#64A4DB;fill-opacity:0.349020}
    .fil92 {fill:#88C8E8;fill-opacity:0.349020}
    .fil27 {fill:#B8E7FF;fill-opacity:0.349020}
    .fil58 {fill:#64A4DB;fill-opacity:0.364706}
    .fil91 {fill:#88C8E8;fill-opacity:0.364706}
    .fil26 {fill:#B8E7FF;fill-opacity:0.364706}
    .fil57 {fill:#64A4DB;fill-opacity:0.380392}
    .fil90 {fill:#88C8E8;fill-opacity:0.380392}
    .fil25 {fill:#B8E7FF;fill-opacity:0.380392}
    .fil56 {fill:#64A4DB;fill-opacity:0.392157}
    .fil89 {fill:#88C8E8;fill-opacity:0.392157}
    .fil24 {fill:#B8E7FF;fill-opacity:0.392157}
    .fil55 {fill:#64A4DB;fill-opacity:0.407843}
    .fil88 {fill:#88C8E8;fill-opacity:0.407843}
    .fil23 {fill:#B8E7FF;fill-opacity:0.407843}
    .fil54 {fill:#64A4DB;fill-opacity:0.423529}
    .fil87 {fill:#88C8E8;fill-opacity:0.423529}
    .fil22 {fill:#B8E7FF;fill-opacity:0.423529}
    .fil53 {fill:#64A4DB;fill-opacity:0.439216}
    .fil86 {fill:#88C8E8;fill-opacity:0.439216}
    .fil21 {fill:#B8E7FF;fill-opacity:0.439216}
    .fil52 {fill:#64A4DB;fill-opacity:0.454902}
    .fil85 {fill:#88C8E8;fill-opacity:0.454902}
    .fil20 {fill:#B8E7FF;fill-opacity:0.454902}
    .fil51 {fill:#64A4DB;fill-opacity:0.470588}
    .fil84 {fill:#88C8E8;fill-opacity:0.470588}
    .fil19 {fill:#B8E7FF;fill-opacity:0.470588}
    .fil50 {fill:#64A4DB;fill-opacity:0.486275}
    .fil83 {fill:#88C8E8;fill-opacity:0.486275}
    .fil18 {fill:#B8E7FF;fill-opacity:0.486275}
    .fil14 {fill:url(#id0)}
    .fil16 {fill:url(#id1)}
    .fil17 {fill:url(#id2);fill-rule:nonzero;fill-opacity:0.439216}
   ]]></style><linearGradient
       id="id0"
       gradientUnits="userSpaceOnUse"
       x1="24.1004"
       y1="5.48268"
       x2="23.9953"
       y2="16.1268"><stop
         offset="0"
         style="stop-color:#5CA2DA"
         id="stop9" /><stop
         offset="1"
         style="stop-color:#8DC8F4"
         id="stop11" /></linearGradient><linearGradient
       id="id1"
       gradientUnits="userSpaceOnUse"
       xlink:href="#id0"
       x1="25.1303"
       y1="17.9055"
       x2="24.7618"
       y2="35.8028" /><linearGradient
       id="id2"
       gradientUnits="userSpaceOnUse"
       x1="16.6807"
       y1="18.0425"
       x2="16.376"
       y2="46.252"><stop
         offset="0"
         style="stop-color:#88C8E8"
         id="stop15" /><stop
         offset="1"
         style="stop-color:#CCEDFF"
         id="stop17" /></linearGradient></defs><g
     id="Слой_x0020_1"><metadata
       id="CorelCorpID_0Corel-Layer" /><g
       id="_112614520"><path
         id="_113583088"
         class="fil0"
         d="M22.9866 41.0161c15.9732,-0.640157 22.4398,0.858661 24.9531,2.80512l0 4.07008c-0.141732,0.0389764 -0.292913,0.0755906 -0.453543,0.108661l-47.5772 0 0 -3.15354c1.90512,-1.62402 7.38425,-3.20079 23.0776,-3.83031z" /><g
         id="g23"><path
           id="_85212296"
           class="fil1"
           d="M23.0409 41.3752c16.0335,-0.620079 22.5024,0.973228 24.8988,2.93858l0 3.48661c-0.256299,0.0767717 -0.548031,0.142913 -0.874016,0.199606l-46.8898 0 -0.266929 -0.0956693 0 -2.58543c1.7126,-1.65118 7.03465,-3.32244 23.1319,-3.9437z" /><path
           id="_85626800"
           class="fil2"
           d="M23.0941 41.7319c16.0547,-0.595276 22.5791,1.08898 24.8457,3.05551l0 2.9185c-0.368504,0.121654 -0.829134,0.219685 -1.37126,0.294094l-46.0217 0c-0.250394,-0.0673228 -0.462992,-0.140551 -0.637795,-0.222047l0 -1.99961c1.50236,-1.66535 6.69921,-3.43583 23.185,-4.04646z" /><path
           id="_86498712"
           class="fil3"
           d="M23.1461 42.0909c16.0417,-0.56811 22.6831,1.20236 24.7937,3.15354l0 2.36693c-0.470079,0.174803 -1.13268,0.301181 -1.95945,0.388583l-45.0213 0c-0.461811,-0.100394 -0.814961,-0.218504 -1.05,-0.357874l0 -1.41142c1.23661,-1.66299 6.35197,-3.54331 23.237,-4.13976z" /><path
           id="_85343360"
           class="fil4"
           d="M23.1992 42.4488c15.9957,-0.533858 22.8343,1.31457 24.7406,3.2315l0 1.83189c-0.558661,0.245669 -1.49646,0.398031 -2.74252,0.487795l-43.7492 0c-0.787795,-0.133465 -1.31693,-0.308268 -1.53898,-0.530315l0 -0.752362c0.79252,-1.64409 5.82402,-3.68386 23.2902,-4.2685z" /><path
           id="_86644440"
           class="fil5"
           d="M23.2512 42.8079c15.9579,-0.499606 23.0858,1.43504 24.6886,3.3l0 1.29449c-0.615354,0.344882 -1.99606,0.517323 -3.93307,0.597638l-12.2728 0c-1.19646,-0.00590551 -2.42362,-0.00708661 -3.67441,0l-26.0079 0c-1.30512,-0.165354 -2.04094,-0.409843 -2.04094,-0.758268 0,-1.58976 4.94409,-3.86102 23.2406,-4.43386z" /><path
           id="_112388080"
           class="fil6"
           d="M23.3031 43.1657c16.05,-0.464173 23.5819,1.59449 24.6366,3.39685l0 0.698031c-0.655512,0.615354 -3.72283,0.73937 -8.08228,0.73937 -4.32874,0 -9.92835,-0.120472 -15.7004,0l-21.2823 0c-1.67717,-0.145276 -2.64331,-0.379134 -2.64331,-0.732283 0,-1.47638 5.76024,-3.6 23.0717,-4.10197z" /><path
           id="_86537624"
           class="fil7"
           d="M23.3563 43.5248c16.3252,-0.429921 24.4394,1.81299 24.4854,3.52205 0.0472441,1.40433 -11.576,0.667323 -23.8406,0.9l-2.91378 0.0531496 -16.9087 0c-2.33504,-0.11811 -3.72638,-0.337795 -3.72638,-0.706299 0,-1.36181 6.57638,-3.34016 22.9039,-3.7689z" /><path
           id="_81456784"
           class="fil8"
           d="M23.4083 43.8827c15.3413,-0.357874 24.1677,1.69252 24.2055,3.23031 0.0389764,1.18819 -11.5087,0.583465 -23.5913,0.777165 -2.7378,0.0437008 -5.43307,0.0838583 -7.96535,0.109843l-9.03307 0c-3.87402,-0.0685039 -6.35079,-0.261024 -6.35079,-0.680315 0,-1.24843 7.39252,-3.07913 22.735,-3.43701z" /><path
           id="_51831192"
           class="fil9"
           d="M23.4602 44.2417c14.3575,-0.287008 23.8949,1.57087 23.9256,2.93622 0.0318898,0.973228 -11.4413,0.499606 -23.3433,0.654331 -11.8996,0.154724 -23.1484,0.248031 -23.1484,-0.486614 0,-1.13504 8.20866,-2.81811 22.5661,-3.10394z" /><path
           id="_85173408"
           class="fil10"
           d="M23.5134 44.5996c13.3713,-0.21378 23.622,1.45039 23.6445,2.64449 0.023622,0.757087 -11.3752,0.415748 -23.0941,0.531496 -11.7189,0.115748 -22.9488,0.172441 -22.9488,-0.405118 0,-1.01929 9.02362,-2.55591 22.3984,-2.77087z" /><path
           id="_88556864"
           class="fil11"
           d="M23.5654 44.9587c12.3874,-0.142913 23.3492,1.32992 23.3646,2.35157 0.0153543,0.540945 -11.3079,0.330709 -22.8461,0.408661 -11.537,0.0767717 -22.748,0.0968504 -22.748,-0.322441 0,-0.905906 9.83976,-2.29488 22.2295,-2.4378z" /><path
           id="_84635592"
           class="fil12"
           d="M23.6185 45.3154c11.4024,-0.0708661 23.0764,1.20945 23.0835,2.05866 0.00826772,0.325984 -11.2417,0.248031 -22.5969,0.285827 -11.3551,0.0389764 -22.5484,0.0224409 -22.5484,-0.238583 0,-0.791339 10.6559,-2.03386 22.0618,-2.10591z" /></g><path
         id="_51754672"
         class="fil13"
         d="M23.6681 45.6768c10.4197,0 22.8047,1.0878 22.8047,1.76575 0,0.220866 -44.6976,0.212598 -44.6976,0.00708661 0,-0.677953 11.472,-1.77283 21.8929,-1.77283z" /></g><path
       class="fil14"
       d="M45.9 15.6437l0.0614173 0.375591 -43.9323 0 0 -8.27953c0,-0.499606 0.197244,-0.957874 0.524409,-1.31457 0.41811,-0.509055 1.05118,-0.835039 1.7563,-0.835039l39.3945 0c1.25197,0 2.36339,1.0311 2.34921,2.27717l-0.0909449 7.77638 -0.0625984 0z"
       id="path38" /><path
       class="fil15"
       d="M45.9685 9.44173l0.0602362 -1.69843c0.0177165,-0.499606 -0.25748,-0.946063 -0.584646,-1.30276 -0.263386,-0.32126 -0.812598,-0.441732 -1.21299,-0.581102l-0.0224409 0.230315 0.274016 0 -0.00944882 0.865748 -0.340157 -0.108661 -0.207874 2.07165 -0.333071 0.0661417c0.327165,0.615354 1.77874,1.4126 2.32441,0.530315 0.0153543,-0.0248031 0.0330709,-0.0484252 0.0519685,-0.0732283z"
       id="path40" /><path
       class="fil15"
       d="M1.76811 9.69803l-0.0614173 -1.69843c-0.0165354,-0.499606 0.258661,-0.947244 0.584646,-1.30394 0.264567,-0.320079 0.833858,-0.617717 1.23307,-0.755906l0.0129921 0.15 -0.102756 0 0 0.757087 0.170079 0 0.205512 2.32677 0.334252 0.0673228c-0.328346,0.615354 -1.77874,1.4126 -2.32559,0.530315 -0.0153543,-0.0248031 -0.0318898,-0.0484252 -0.0507874,-0.0732283z"
       id="path42" /><path
       class="fil16"
       d="M1.50472 14.2205l-0.00590551 -5.0811c0,-0.499606 0.197244,-0.957874 0.524409,-1.31457 0.41811,-0.509055 1.05118,-0.833858 1.75748,-0.833858l40.3016 0.0377953c4.31102,0 1.82362,31.9807 2.28898,37.4114 -0.00354331,1.24488 -1.00512,2.27835 -2.22992,2.27835 -14.6823,0 -15.3331,-0.0377953 -40.3748,-0.0377953 -1.2248,0 -2.22874,-1.02638 -2.22874,-2.27835l-0.0389764 -30.0295c0,-0.0507874 0.0023622,-0.101575 0.00590551,-0.152362z"
       id="path44" /><path
       class="fil17"
       d="M1.50472 14.2205l-0.00590551 -5.0811 0.00826772 -0.177165 1.53425 0 -0.0129921 0.0295276 -0.00590551 0.00590551c-0.0141732,0.0366142 -0.023622,0.0862205 -0.023622,0.141732l-0.00590551 0 0.00590551 5.0811 -1.49409 0zm44.0811 -5.25827c2.13189,6.99567 0.389764,30.8551 0.785433,35.478 -0.00354331,1.24488 -1.00512,2.27835 -2.22992,2.27835 -14.6823,0 -15.3331,-0.0377953 -40.3748,-0.0377953 -1.2248,0 -2.22874,-1.02638 -2.22874,-2.27835l-0.0389764 -30.0295c0,-0.0507874 0.0023622,-0.101575 0.00590551,-0.152362l1.49409 0.0531496 -0.00590551 0.151181 0.0389764 29.9776 0.00590551 0c0,0.220866 0.0885827,0.422835 0.227953,0.565748 0.127559,0.129921 0.305906,0.212598 0.500787,0.212598 11.1673,0 19.0925,0.0153543 26.0563,0.0283465 2.59724,0.00472441 4.98425,0.00944882 14.3185,0.00944882 0.191339,0 0.370866,-0.0838583 0.501969,-0.216142 0.142913,-0.146457 0.233858,-0.349606 0.233858,-0.562205l-0.0153543 -35.478 0.724016 0z"
       id="path46" /><g
       id="_51345024"><g
         id="g49"><path
           id="_82115720"
           class="fil18"
           d="M1.87205 23.2429c3.56929,-0.537402 7.21299,-0.0661417 10.6642,2.17913 2.03268,1.33465 3.87047,2.57126 5.52402,3.6874 8.89961,6.19606 11.6445,8.08819 18.652,5.67283 2.51339,-0.829134 5.93386,-3.08858 9.58346,-5.01142l0 0.454724c-3.61181,1.91339 -6.99567,4.14685 -9.48661,4.97126 -7.1563,2.46969 -9.93189,0.559843 -18.9354,-5.71063 -1.63346,-1.10551 -3.44882,-2.32559 -5.51339,-3.68386 -3.34016,-2.16378 -6.93543,-2.57598 -10.4882,-2.00906l0 -0.550394z" /><path
           id="_82846312"
           class="fil19"
           d="M1.87205 23.8689l0.138189 -0.0212598c3.68031,-0.555118 7.4315,-0.152362 11.0067,2.05866 2.0315,1.2815 3.9,2.48268 5.60079,3.58701 8.75906,6.03425 11.5772,7.93465 18.4961,5.70945 2.4437,-0.713386 5.70945,-2.72362 9.18189,-4.45157l0 0.43937c-3.44055,1.72441 -6.67441,3.71811 -9.09567,4.43031 -7.06299,2.28189 -9.90472,0.361417 -18.7665,-5.74488 -1.67835,-1.09134 -3.52323,-2.27835 -5.58543,-3.58346 -3.40276,-2.08937 -7.03583,-2.45906 -10.6406,-1.92402l-0.335433 0.0531496 0 -0.552756z" /><path
           id="_112692848"
           class="fil20"
           d="M1.87205 24.4902c0.194882,-0.0295276 0.389764,-0.0590551 0.584646,-0.0862205 3.69331,-0.500787 7.44094,-0.126378 11.0409,1.98661 2.03031,1.22717 3.92953,2.39291 5.67756,3.48661 8.62087,5.87244 11.511,7.78346 18.3413,5.74843 2.37047,-0.603543 5.48031,-2.37283 8.77913,-3.91299l0 0.426378c-3.27165,1.54016 -6.35551,3.3 -8.70709,3.90472 -6.96732,2.09173 -9.87992,0.162992 -18.5941,-5.77795 -1.72441,-1.08071 -3.60118,-2.23346 -5.65748,-3.48307 -3.43346,-1.99252 -7.0689,-2.33504 -10.6925,-1.85551 -0.25748,0.034252 -0.514961,0.0720472 -0.772441,0.112205l0 -0.549213z" /><path
           id="_87959232"
           class="fil21"
           d="M1.87205 25.1008c0.34252,-0.0519685 0.687402,-0.0980315 1.03228,-0.13937 3.70512,-0.445276 7.44803,-0.100394 11.074,1.91339 2.02913,1.17283 3.96142,2.30315 5.75433,3.38504 8.48031,5.71063 11.4437,7.63346 18.1854,5.78858 2.29488,-0.498425 5.25118,-2.03858 8.37756,-3.39685l0 0.416929c-3.10394,1.36063 -6.03898,2.89724 -8.31732,3.39803 -6.87165,1.90512 -9.85394,-0.0330709 -18.424,-5.81102 -1.77047,-1.0689 -3.67559,-2.18504 -5.72953,-3.38268 -3.46417,-1.89803 -7.10197,-2.2122 -10.7421,-1.78583 -0.403937,0.046063 -0.807874,0.100394 -1.21063,0.16063l0 -0.54685z" /><path
           id="_113063376"
           class="fil22"
           d="M1.87205 25.6984c0.491339,-0.0673228 0.983858,-0.12874 1.47874,-0.180709 3.72047,-0.390945 7.45866,-0.0732283 11.1071,1.84134 2.02795,1.11969 3.99094,2.21575 5.83228,3.28465 8.34213,5.54882 11.3752,7.47992 18.0307,5.82638 2.21457,-0.399213 5.0185,-1.72205 7.9748,-2.90315l0 0.40748c-2.93858,1.18819 -5.72598,2.51457 -7.92638,2.91614 -6.77835,1.7126 -9.82795,-0.232677 -18.2539,-5.84528 -1.81654,-1.05591 -3.75236,-2.13898 -5.80157,-3.27992 -3.49724,-1.80591 -7.13504,-2.08937 -10.7941,-1.72205 -0.550394,0.0566929 -1.09961,0.122835 -1.64764,0.197244l0 -0.542126z" /><path
           id="_85644728"
           class="fil23"
           d="M1.87205 26.2795c0.640157,-0.0767717 1.2815,-0.147638 1.92638,-0.204331 3.73228,-0.336614 7.46811,-0.0496063 11.1402,1.76811 2.02677,1.06417 4.02047,2.12717 5.90906,3.18425 8.20276,5.38701 11.3079,7.32874 17.8748,5.86299 2.13425,-0.303543 4.78583,-1.42087 7.57323,-2.43189l0 0.399213c-2.77559,1.02165 -5.41417,2.14724 -7.53661,2.45669 -6.68386,1.52362 -9.80315,-0.431102 -18.0827,-5.87953 -1.8626,-1.04409 -3.82795,-2.09409 -5.87362,-3.18071 -3.52913,-1.70669 -7.16811,-1.96535 -10.8472,-1.65118 -0.69685,0.0602362 -1.39016,0.131102 -2.08346,0.211417l0 -0.535039z" /><path
           id="_83050480"
           class="fil24"
           d="M1.87205 26.8394c0.787795,-0.0779528 1.57795,-0.148819 2.37402,-0.206693 3.74528,-0.281102 7.47638,-0.0224409 11.1744,1.69488 2.02323,1.01102 4.05,2.0374 5.98465,3.08268 8.0622,5.22638 11.2417,7.17874 17.7213,5.90197 2.04803,-0.21378 4.54843,-1.13858 7.16929,-1.9878l0 0.392126c-2.61496,0.862205 -5.10591,1.8 -7.14685,2.02205 -6.58937,1.33346 -9.77717,-0.629528 -17.9126,-5.9126 -1.90866,-1.03228 -3.90354,-2.04921 -5.94449,-3.08031 -3.55984,-1.61339 -7.20118,-1.84252 -10.898,-1.58386 -0.842126,0.0590551 -1.68307,0.12874 -2.52165,0.205512l0 -0.527953z" /><path
           id="_81673832"
           class="fil25"
           d="M1.87205 27.3768c0.937795,-0.0673228 1.87559,-0.129921 2.82165,-0.186614 3.75709,-0.226772 7.48465,0.0023622 11.2063,1.61929 2.02441,0.957874 4.08189,1.95236 6.06378,2.98346 7.92165,5.06693 11.1732,7.02874 17.5642,5.94213 1.96063,-0.132283 4.31102,-0.876378 6.76772,-1.57205l0 0.387402c-2.45315,0.709843 -4.80236,1.47047 -6.75709,1.6122 -6.4937,1.14449 -9.75118,-0.827953 -17.7425,-5.94803 -1.95236,-1.01929 -3.97913,-2.00079 -6.01535,-2.97874 -3.59291,-1.51654 -7.23543,-1.72087 -10.9512,-1.51535 -0.988583,0.0555118 -1.97126,0.114567 -2.95748,0.174803l0 -0.518504z" /><path
           id="_85975792"
           class="fil26"
           d="M1.87205 27.8858c1.0878,-0.0413386 2.17441,-0.0897638 3.26693,-0.13937 3.77244,-0.172441 7.49646,0.0295276 11.2417,1.54843 2.02323,0.903543 4.11142,1.86142 6.14055,2.88189 7.78228,4.90394 11.1059,6.8752 17.4094,5.97992 1.8685,-0.0543307 4.07008,-0.635433 6.36496,-1.18583l0 0.385039c-2.29606,0.56811 -4.50118,1.16457 -6.36732,1.22953 -6.39921,0.955512 -9.72638,-1.0252 -17.5701,-5.9811 -2.00079,-1.00748 -4.05591,-1.95472 -6.08976,-2.87717 -3.62362,-1.42205 -7.26732,-1.59803 -11.002,-1.44685 -1.13386,0.046063 -2.26181,0.0850394 -3.39449,0.115748l0 -0.510236z" /><path
           id="_87239392"
           class="fil27"
           d="M1.87205 28.3677c1.24016,-0.00354331 2.47205,-0.0259843 3.71457,-0.0637795 3.78425,-0.11811 7.50354,0.0555118 11.276,1.4752 2.01969,0.849213 4.14094,1.77165 6.21614,2.7815 7.64173,4.74094 11.0386,6.7252 17.2535,6.01654 1.77402,0.0141732 3.82913,-0.412205 5.96339,-0.829134l0 0.383858c-2.14134,0.434646 -4.20236,0.881102 -5.97756,0.877559 -6.30472,0.765354 -9.70039,-1.22362 -17.4012,-6.01535 -2.04567,-0.995669 -4.12913,-1.90866 -6.16063,-2.77677 -3.65433,-1.32756 -7.30039,-1.47402 -11.0516,-1.37953 -1.28031,0.0318898 -2.55118,0.0437008 -3.83268,0.0307087l0 -0.500787z" /><path
           id="_51777008"
           class="fil28"
           d="M1.87205 28.8165c1.39252,0.0519685 2.77087,0.0649606 4.1622,0.0425197 3.79724,-0.0602362 7.51299,0.0838583 11.3067,1.40433 2.02205,0.794882 4.17283,1.68307 6.29646,2.67992 7.50236,4.5815 10.9701,6.57283 17.0976,6.05669 1.6748,0.0744094 3.58465,-0.214961 5.56063,-0.507874l0 0.38622c-1.9878,0.31063 -3.90827,0.62126 -5.5878,0.555118 -6.21024,0.574016 -9.67441,-1.42323 -17.2287,-6.04961 -2.09173,-0.983858 -4.20709,-1.86142 -6.23386,-2.67638 -3.68622,-1.23189 -7.33346,-1.35 -11.1047,-1.31102 -1.42323,0.0165354 -2.83701,-0.0129921 -4.2685,-0.0862205l0 -0.493701z" /><path
           id="_88181784"
           class="fil29"
           d="M1.87205 29.2323c1.54843,0.124016 3.07087,0.186614 4.60866,0.184252 3.81142,-0.00708661 7.52244,0.108661 11.3421,1.3311 2.0185,0.740551 4.20118,1.59449 6.37087,2.57835 7.36417,4.4185 10.9039,6.42402 16.9429,6.09685 1.57323,0.12874 3.3378,-0.0401575 5.15906,-0.220866l0 0.389764c-1.83543,0.197244 -3.61535,0.38622 -5.19803,0.264567 -6.11575,0.387402 -9.64961,-1.62047 -17.0598,-6.08268 -2.13661,-0.970866 -4.2815,-1.81654 -6.30354,-2.57717 -3.71811,-1.13386 -7.36772,-1.2248 -11.1567,-1.24016 -1.56614,-0.00590551 -3.12047,-0.0874016 -4.70551,-0.237402l0 -0.486614z" /><path
           id="_81634632"
           class="fil30"
           d="M1.87205 29.615c1.70669,0.21378 3.37323,0.337795 5.0563,0.359055 3.82323,0.0472441 7.53307,0.133465 11.374,1.25787 2.01732,0.68622 4.23189,1.50472 6.45,2.48031 7.22362,4.25433 10.8354,6.26929 16.787,6.1311 1.46811,0.175984 3.08976,0.113386 4.7563,0.0330709l0 0.393307c-1.6878,0.0980315 -3.32835,0.179528 -4.80827,0.011811 -6.02126,0.194882 -9.62362,-1.8189 -16.8874,-6.11693 -2.18268,-0.960236 -4.35945,-1.76929 -6.37677,-2.47559 -3.75118,-1.04055 -7.40079,-1.10315 -11.2087,-1.17283 -1.70669,-0.0330709 -3.40039,-0.177165 -5.14252,-0.421654l0 -0.479528z" /><path
           id="_82279984"
           class="fil31"
           d="M1.87205 29.961c1.86969,0.323622 3.67677,0.519685 5.50394,0.569291 3.83622,0.103937 7.54016,0.16063 11.4071,1.18583 2.01732,0.63189 4.2626,1.41732 6.52677,2.37756 7.08425,4.09488 10.7693,6.12047 16.6323,6.17126 1.35827,0.21378 2.83819,0.239764 4.35354,0.248031l0 0.401575c-1.54016,0.00826772 -3.04252,-0.0023622 -4.41732,-0.210236 -5.92795,0.00708661 -9.59882,-2.01732 -16.7185,-6.15 -2.22756,-0.948425 -4.43386,-1.72323 -6.44764,-2.3752 -3.78307,-0.944882 -7.43622,-0.981496 -11.2606,-1.10551 -1.84724,-0.0602362 -3.67795,-0.281102 -5.57953,-0.638976l0 -0.473622z" /><path
           id="_81130192"
           class="fil32"
           d="M1.87205 30.2705c2.03622,0.452362 3.98268,0.735827 5.95039,0.817323 3.85039,0.155906 7.55079,0.185433 11.4413,1.11142 2.01614,0.57874 4.29331,1.32874 6.60354,2.27717 6.94488,3.93425 10.7008,5.97047 16.4764,6.21142 1.24724,0.243307 2.58425,0.34252 3.95197,0.422835l0 0.411024c-1.39488,-0.0685039 -2.76142,-0.153543 -4.02874,-0.392126 -5.8311,-0.184252 -9.57165,-2.21693 -16.5472,-6.18661 -2.27244,-0.935433 -4.50945,-1.67598 -6.5185,-2.27244 -3.81496,-0.850394 -7.46929,-0.858661 -11.3114,-1.03819 -1.98543,-0.092126 -3.95433,-0.401575 -6.01772,-0.891732l0 -0.470079z" /><path
           id="_85026264"
           class="fil33"
           d="M1.87205 30.5433c2.20748,0.6 4.28858,0.985039 6.39803,1.10197 3.86339,0.212598 7.55906,0.212598 11.4744,1.03937 2.01378,0.523228 4.32283,1.24016 6.68031,2.17441 6.80433,3.77362 10.6346,5.81811 16.3217,6.24921 1.13031,0.263386 2.32795,0.421654 3.54921,0.562205l0 0.419291c-1.25315,-0.12874 -2.48268,-0.276378 -3.6378,-0.537402 -5.73661,-0.373228 -9.54685,-2.41299 -16.3772,-6.2185 -2.31969,-0.923622 -4.58622,-1.6311 -6.59173,-2.17441 -3.84449,-0.753543 -7.50118,-0.734646 -11.3634,-0.968504 -2.12126,-0.12874 -4.22126,-0.542126 -6.45354,-1.17992l0 -0.467717z" /><path
           id="_113254656"
           class="fil34"
           d="M1.87205 30.7772c2.38346,0.767717 4.59921,1.2685 6.84449,1.42441 3.87638,0.266929 7.5685,0.238583 11.5075,0.966142 2.01378,0.47126 4.35472,1.15039 6.75945,2.07638 6.66378,3.61063 10.5661,5.66457 16.1657,6.28701 1.00984,0.272835 2.07047,0.47126 3.14646,0.654331l0 0.433465c-1.11142,-0.175984 -2.20748,-0.369685 -3.24803,-0.643701 -5.64331,-0.561024 -9.52087,-2.61142 -16.2071,-6.25394 -2.36457,-0.909449 -4.66063,-1.58268 -6.6626,-2.06929 -3.87756,-0.661417 -7.53425,-0.611811 -11.4142,-0.902362 -2.25591,-0.167717 -4.48701,-0.69685 -6.89173,-1.50354l0 -0.468898z" /><path
           id="_83599848"
           class="fil35"
           d="M1.87205 30.978c2.56417,0.95315 4.91102,1.58268 7.29213,1.7811 3.88937,0.322441 7.57677,0.264567 11.5417,0.892913 2.01142,0.416929 4.38307,1.06417 6.83504,1.9748 6.52559,3.45 10.4976,5.51575 16.011,6.32598 0.888189,0.272835 1.81063,0.496063 2.7437,0.70748l0 0.448819c-0.973228,-0.210236 -1.93465,-0.431102 -2.85827,-0.708661 -5.54882,-0.753543 -9.49606,-2.8122 -16.037,-6.28701 -2.40945,-0.9 -4.73622,-1.5378 -6.73465,-1.97244 -3.90945,-0.563386 -7.56732,-0.487795 -11.4661,-0.833858 -2.38583,-0.209055 -4.74567,-0.866929 -7.32756,-1.85906l0 -0.470079z" /><path
           id="_51318152"
           class="fil36"
           d="M1.87205 31.1409c2.75079,1.15748 5.22756,1.9311 7.73858,2.17441 3.90236,0.377953 7.58622,0.290551 11.5748,0.820866 2.01142,0.362598 4.41496,0.973228 6.91299,1.87441 6.38504,3.28701 10.4315,5.36339 15.8551,6.36378 0.765354,0.263386 1.54961,0.494882 2.34213,0.719291l0 0.462992 0 0.0011811c-0.83622,-0.225591 -1.66417,-0.461811 -2.4685,-0.734646 -5.45315,-0.94252 -9.47008,-3.00945 -15.8657,-6.32126 -2.45669,-0.885827 -4.81299,-1.49055 -6.80669,-1.87087 -3.94134,-0.467717 -7.60157,-0.36378 -11.5181,-0.764173 -2.51457,-0.256299 -5.00079,-1.05591 -7.76457,-2.25118l0 -0.474803z" /><path
           id="_51946800"
           class="fil37"
           d="M1.87205 31.2661c2.94449,1.38307 5.54646,2.31378 8.1874,2.60669 3.91299,0.431102 7.59449,0.316535 11.6067,0.747638 2.01024,0.308268 4.44567,0.884646 6.99094,1.77283 6.24449,3.12756 10.363,5.21339 15.7004,6.40157 0.636614,0.244488 1.28504,0.47126 1.93819,0.690945l0 0.0708661c0,0.135827 -0.011811,0.269291 -0.0354331,0.399213 -0.688583,-0.225591 -1.37362,-0.455906 -2.04331,-0.708661 -5.35866,-1.13268 -9.44409,-3.20669 -15.6945,-6.35433 -2.50157,-0.875197 -4.88858,-1.44567 -6.87874,-1.77165 -3.97205,-0.372047 -7.63465,-0.239764 -11.5701,-0.695669 -2.64094,-0.304724 -5.24882,-1.26024 -8.20157,-2.6752l0 -0.484252z" /><path
           id="_85794000"
           class="fil38"
           d="M1.87205 31.3606c3.14409,1.62165 5.86772,2.72598 8.63386,3.0685 3.92835,0.486614 7.60394,0.34252 11.6421,0.675591 2.00669,0.253937 4.47283,0.794882 7.06535,1.67244 6.10512,2.96575 10.2969,5.06102 15.5457,6.44173 0.501969,0.210236 1.00984,0.412205 1.52008,0.611811 -0.0188976,0.158268 -0.0543307,0.312992 -0.105118,0.46063 -0.525591,-0.201969 -1.05118,-0.406299 -1.56732,-0.620079 -5.26417,-1.32165 -9.41929,-3.4063 -15.5244,-6.38858 -2.54764,-0.864567 -4.96417,-1.40079 -6.94961,-1.67008 -4.00512,-0.277559 -7.66772,-0.116929 -11.622,-0.628346 -2.76378,-0.356693 -5.49213,-1.47874 -8.63858,-3.12992l0 -0.493701z" /><path
           id="_116615888"
           class="fil39"
           d="M1.87205 31.4209c3.34961,1.87913 6.1937,3.16772 9.08031,3.56457 3.94252,0.543307 7.61339,0.369685 11.6752,0.603543 2.00669,0.199606 4.50354,0.70748 7.14331,1.57205 5.96693,2.80276 10.2283,4.90984 15.3909,6.47835 0.35315,0.161811 0.70748,0.320079 1.06417,0.477165 -0.0389764,0.157087 -0.0956693,0.307087 -0.164173,0.447638 -0.356693,-0.154724 -0.712205,-0.31063 -1.06535,-0.470079 -5.17087,-1.51181 -9.39213,-3.60472 -15.3543,-6.42165 -2.59252,-0.850394 -5.03976,-1.35354 -7.02047,-1.56969 -4.03701,-0.18189 -7.70079,0.00590551 -11.674,-0.559843 -2.88425,-0.408661 -5.73071,-1.71378 -9.07559,-3.61654l0 -0.505512z" /><path
           id="_88332840"
           class="fil40"
           d="M1.87205 31.4504c3.56102,2.15197 6.52087,3.6378 9.52795,4.09252 3.95433,0.596457 7.62283,0.39685 11.7071,0.530315 2.00551,0.146457 4.53661,0.617717 7.22244,1.47047 5.82638,2.64094 10.161,4.75866 15.2339,6.51732l0.590551 0.28937c-0.057874,0.153543 -0.129921,0.3 -0.216142,0.435827l-0.551575 -0.266929c-5.0752,-1.70197 -9.36732,-3.80197 -15.1819,-6.45827 -2.63976,-0.838583 -5.11654,-1.30512 -7.09488,-1.46575 -4.06772,-0.0862205 -7.73268,0.127559 -11.726,-0.493701 -3,-0.465354 -5.95984,-1.96299 -9.51142,-4.1315l0 -0.519685z" /><path
           id="_82880816"
           class="fil41"
           d="M1.87205 31.4504c3.77953,2.44016 6.85276,4.1374 9.97441,4.64882 3.9685,0.65315 7.63346,0.422835 11.7425,0.458268 2.00433,0.092126 4.56496,0.529134 7.29803,1.37008 5.68583,2.48031 10.0937,4.60748 15.0791,6.55512l0.10748 0.057874c-0.0708661,0.15 -0.158268,0.291732 -0.258661,0.421654l-0.0389764 -0.0200787c-4.97953,-1.89094 -9.34134,-4.00039 -15.0118,-6.49016 -2.68465,-0.826772 -5.19213,-1.26142 -7.16575,-1.36772 -4.09961,0.00944882 -7.76693,0.252756 -11.778,-0.422835 -3.11457,-0.525591 -6.18543,-2.2252 -9.94843,-4.6748l0 -0.53622z" /><path
           id="_113643128"
           class="fil42"
           d="M1.87205 31.422c4.00512,2.74134 7.18937,4.66063 10.4232,5.23465 3.97913,0.706299 7.64055,0.448819 11.7744,0.382677 2.00197,0.0389764 4.59449,0.442913 7.3748,1.27087 5.39764,2.25709 9.78307,4.34173 14.5276,6.42047 -0.0897638,0.151181 -0.197244,0.291732 -0.316535,0.41811 -4.68543,-2.01142 -8.99882,-4.06299 -14.3315,-6.30827 -2.72953,-0.814961 -5.26772,-1.21417 -7.23661,-1.26614 -4.1315,0.103937 -7.80118,0.375591 -11.8299,-0.354331 -3.22677,-0.584646 -6.40512,-2.50276 -10.3854,-5.24409l0 -0.553937z" /><path
           id="_52483232"
           class="fil43"
           d="M1.87205 31.3665c4.23661,3.05669 7.52717,5.20984 10.8685,5.84764 3.99449,0.76063 7.65118,0.473622 11.8087,0.31063 2.00197,-0.0153543 4.6252,0.35315 7.45276,1.16929 5.06811,2.01969 9.38504,4.03465 13.8661,6.19724 -0.106299,0.147638 -0.227953,0.282283 -0.364961,0.401575 -4.40433,-2.08583 -8.63386,-4.05945 -13.6193,-6.06142 -2.77441,-0.801969 -5.34213,-1.16811 -7.30866,-1.16575 -4.1622,0.198425 -7.83307,0.498425 -11.8807,-0.287008 -3.33425,-0.647244 -6.62008,-2.78976 -10.8224,-5.83701l0 -0.575197z" /><path
           id="_86568232"
           class="fil44"
           d="M1.87205 31.2874c4.47638,3.38031 7.86732,5.77913 11.3161,6.48307 4.00748,0.817323 7.65945,0.500787 11.8429,0.238583 1.99961,-0.069685 4.65472,0.263386 7.52835,1.0689 4.74803,1.79764 8.97165,3.72874 13.2154,5.93504 -0.119291,0.144094 -0.253937,0.274016 -0.402756,0.38622 -4.15512,-2.12244 -8.27835,-4.00512 -12.9272,-5.77913 -2.82047,-0.788976 -5.4189,-1.11969 -7.37953,-1.06535 -4.19528,0.296457 -7.8685,0.622441 -11.9327,-0.217323 -3.44173,-0.712205 -6.82795,-3.09213 -11.2606,-6.45472l0 -0.595276z" /><path
           id="_82696744"
           class="fil45"
           d="M1.87205 31.1835c4.71969,3.71929 8.2122,6.37441 11.7638,7.14449 4.02047,0.870472 7.6689,0.526772 11.8736,0.165354 2.00079,-0.122835 4.68661,0.174803 7.60866,0.966142 4.43504,1.58622 8.54882,3.42402 12.5776,5.64449 -0.12874,0.141732 -0.276378,0.26811 -0.437008,0.373228 -3.92835,-2.12598 -7.92638,-3.90827 -12.2528,-5.46732 -2.86772,-0.777165 -5.49567,-1.07362 -7.45276,-0.96378 -4.22717,0.390945 -7.89921,0.745276 -11.9846,-0.15 -3.54331,-0.778346 -7.02992,-3.40276 -11.6965,-7.0937l0 -0.618898z" /><path
           id="_85197696"
           class="fil46"
           d="M1.87205 31.0594c4.97008,4.06654 8.56063,6.9874 12.2102,7.82598 4.03465,0.924803 7.67835,0.552756 11.9079,0.092126 1.99843,-0.178346 4.71732,0.0862205 7.68543,0.865748 4.1374,1.3878 8.12244,3.1252 11.9563,5.32795 -0.138189,0.140551 -0.295276,0.262205 -0.465354,0.36378 -3.72283,-2.10236 -7.58268,-3.77953 -11.5996,-5.13543 -2.9126,-0.764173 -5.57126,-1.02756 -7.5248,-0.862205 -4.25906,0.485433 -7.93346,0.86811 -12.0366,-0.0826772 -3.6437,-0.844488 -7.22717,-3.72402 -12.1335,-7.75157l0 -0.643701z" /><path
           id="_85278416"
           class="fil47"
           d="M1.87205 30.913c5.22638,4.42559 8.91142,7.62047 12.6591,8.52874 4.04528,0.981496 7.68661,0.57874 11.9409,0.0188976 1.99724,-0.230315 4.74567,-0.0011811 7.7622,0.765354 3.84921,1.20118 7.69488,2.8311 11.3469,4.99488 -0.145276,0.138189 -0.308268,0.258661 -0.486614,0.354331 -3.53622,-2.0563 -7.2437,-3.61772 -10.9677,-4.78465 -2.95748,-0.753543 -5.64685,-0.982677 -7.59567,-0.762992 -4.29094,0.579921 -7.96772,0.992126 -12.0886,-0.0129921 -3.74055,-0.914173 -7.4185,-4.05945 -12.5705,-8.43189l0 -0.669685z" /><path
           id="_51316176"
           class="fil48"
           d="M1.87205 30.7476c5.48858,4.79055 9.26457,8.27126 13.1055,9.25039 4.05827,1.03583 7.69606,0.605906 11.974,-0.0531496 1.99606,-0.285827 4.77638,-0.0897638 7.84016,0.666142 3.57402,1.0252 7.26732,2.54055 10.7528,4.64528 -0.152362,0.138189 -0.322441,0.256299 -0.506693,0.348425 -3.36024,-1.98661 -6.90709,-3.43346 -10.35,-4.42441 -3.00472,-0.741732 -5.72362,-0.936614 -7.6689,-0.661417 -4.32047,0.675591 -8.00079,1.11378 -12.1394,0.0519685 -3.83504,-0.982677 -7.60512,-4.39961 -13.0075,-9.12638l0 -0.69685z" /><path
           id="_88182752"
           class="fil49"
           d="M1.87205 30.5657c5.75669,5.16496 9.62126,8.93622 13.552,9.98976 4.07244,1.09134 7.70551,0.630709 12.0083,-0.125197 1.99488,-0.341339 4.80709,-0.179528 7.91693,0.563386 3.31299,0.859843 6.84331,2.26063 10.1681,4.28622 -0.155906,0.138189 -0.333071,0.255118 -0.522047,0.344882 -3.19488,-1.90039 -6.57165,-3.22677 -9.74764,-4.05472 -3.04961,-0.729921 -5.79921,-0.88937 -7.74094,-0.559843 -4.35236,0.770079 -8.03268,1.23661 -12.1902,0.119291 -3.92717,-1.05354 -7.78701,-4.75157 -13.4445,-9.8374l0 -0.726378z" /></g><g
         id="g83"><path
           id="_82842680"
           class="fil50"
           d="M46.2496 44.0114c-0.677953,0.10748 -1.33819,0.210236 -1.98189,0.31063 -3.22795,0.598819 -5.9752,1.10315 -8.38346,1.48583l2.37402 -0.00472441c1.82244,-0.315354 3.82559,-0.685039 6.05433,-1.09961l1.81417 -0.285827c0.0531496,-0.12874 0.0944882,-0.265748 0.122835,-0.406299zm-44.3776 -10.0169l0 -0.53622c5.73071,3.26339 10.5461,8.09528 14.4957,10.1587 1.91102,1.00276 3.62717,1.72795 5.33504,2.21339l-1.46339 0.00354331c-1.34646,-0.47126 -2.72717,-1.08898 -4.22598,-1.87677 -3.86929,-2.02087 -8.5689,-6.71102 -14.1413,-9.9626z" /><path
           id="_82845480"
           class="fil51"
           d="M46.2756 43.8543c-0.993307,0.121654 -1.95591,0.237402 -2.88898,0.344882 -4.02756,0.703937 -7.30394,1.25906 -10.1067,1.6122l2.85 -0.00354331c2.1437,-0.328346 4.54606,-0.741732 7.29213,-1.22362 0.891732,-0.103937 1.81299,-0.214961 2.76496,-0.333071 0.0413386,-0.12874 0.0708661,-0.259843 0.0885827,-0.39685zm-44.4035 -9.68858l0 -0.535039c5.44606,3.11457 10.0783,7.5626 13.9287,9.54921 2.57717,1.34173 4.80709,2.19449 7.13386,2.64921l-1.89094 0.00354331c-1.78701,-0.506693 -3.58465,-1.25906 -5.58898,-2.30433 -3.7689,-1.94528 -8.2878,-6.2622 -13.5827,-9.3626z" /><path
           id="_114287232"
           class="fil52"
           d="M46.2862 43.7622c-1.30512,0.11811 -2.56535,0.224409 -3.78189,0.317717 -5.70354,0.933071 -9.89764,1.56614 -13.3736,1.73858l4.46457 -0.00708661c2.54173,-0.314173 5.45906,-0.774803 8.93386,-1.34646 1.18346,-0.092126 2.41063,-0.196063 3.6874,-0.312992 0.034252,-0.127559 0.0566929,-0.25748 0.069685,-0.389764zm-44.4142 -9.43701l0 -0.533858c5.16732,2.96102 9.61772,7.04291 13.3642,8.95157 3.75827,1.94291 6.79488,2.87835 10.4563,3.08268l-3.45 0.00472441c-2.39409,-0.479528 -4.69016,-1.35827 -7.34409,-2.72953 -3.6626,-1.86969 -8.00197,-5.83465 -13.0264,-8.77559z" /><path
           id="_85845656"
           class="fil53"
           d="M46.2886 43.728c-1.60984,0.0980315 -3.16654,0.172441 -4.66417,0.231496 -14.1933,2.15433 -18.9839,2.43307 -26.9539,-1.65354 -3.63661,-1.83071 -7.90276,-5.56654 -12.7984,-8.37047l0 0.535039c4.75748,2.7815 8.91614,6.41102 12.4677,8.20039 3.69449,1.89449 6.70748,2.86535 10.2461,3.15472l5.30669 -0.00708661c3.16063,-0.211417 6.91181,-0.734646 11.7425,-1.47283 1.47047,-0.057874 2.99764,-0.133465 4.59213,-0.233858 0.0307087,-0.125197 0.0519685,-0.252756 0.0614173,-0.383858z" /><path
           id="_84628464"
           class="fil54"
           d="M46.2874 43.7492c-1.90984,0.0625984 -3.76181,0.0862205 -5.54409,0.0885827 -13.8709,1.93465 -18.7157,2.06102 -26.6386,-1.9689 -3.51969,-1.75039 -7.60276,-5.16024 -12.2327,-7.80118l0 0.531496c4.5,2.61732 8.47677,5.93031 11.9114,7.64055 8.06102,4.10551 12.939,3.9626 26.9587,1.98898 1.7563,-0.00590551 3.57874,-0.0318898 5.4815,-0.100394 0.0307087,-0.122835 0.0531496,-0.249213 0.0637795,-0.379134z" /><path
           id="_86038680"
           class="fil55"
           d="M46.2803 43.8224c-2.20157,0.0153543 -4.34528,-0.0307087 -6.41693,-0.106299 -13.5496,1.71614 -18.4488,1.6878 -26.3256,-2.28543 -3.39567,-1.6689 -7.29449,-4.77283 -11.6657,-7.24843l0 0.531496c4.24724,2.45079 8.04094,5.46732 11.3539,7.09843 8.00551,4.04409 12.9331,4.05354 26.6244,2.29606 2.03976,0.069685 4.15512,0.111024 6.35433,0.0862205 0.0354331,-0.119291 0.0602362,-0.244488 0.0755906,-0.372047z" /><path
           id="_86646712"
           class="fil56"
           d="M46.2626 43.9488c-2.47677,-0.0425197 -4.91575,-0.180709 -7.28031,-0.35315 -13.2295,1.49764 -18.1807,1.31457 -26.0102,-2.60079 -3.26929,-1.58858 -6.9815,-4.40551 -11.1,-6.71693l0 0.532677c4.00157,2.28425 7.60984,5.02205 10.7976,6.57283 7.95,3.9815 12.9248,4.14449 26.2866,2.60551 2.32913,0.165354 4.7315,0.295276 7.21063,0.324803 0.0401575,-0.11811 0.0732283,-0.238583 0.0956693,-0.364961z" /><path
           id="_81359264"
           class="fil57"
           d="M46.2248 44.1213c-2.73189,-0.108661 -5.46024,-0.356693 -8.12362,-0.646063 -12.9083,1.27795 -17.9138,0.940157 -25.6961,-2.9185 -3.13701,-1.50591 -6.66024,-4.05354 -10.5331,-6.20079l0 0.533858c3.75945,2.12008 7.18465,4.59567 10.2402,6.06496 7.89449,3.92126 12.9189,4.23425 25.95,2.91496 2.6185,0.27874 5.29961,0.517323 8.04094,0.605906 0.0484252,-0.113386 0.0909449,-0.231496 0.121654,-0.354331z" /><path
           id="_81058584"
           class="fil58"
           d="M46.1563 44.3433l-0.0496063 -0.00590551c-2.94449,-0.179528 -5.93858,-0.558661 -8.88661,-0.983858 -12.5858,1.05945 -17.6457,0.56811 -25.3807,-3.23504 -3,-1.42205 -6.33543,-3.71929 -9.96732,-5.70472l0 0.535039c3.52323,1.95709 6.76417,4.18819 9.68268,5.57598 7.8378,3.86102 12.9118,4.32756 25.6157,3.22559 2.90551,0.413386 5.85591,0.777165 8.82992,0.930709 0.0602362,-0.10748 0.112205,-0.220866 0.155906,-0.337795z" /><path
           id="_112185048"
           class="fil59"
           d="M46.0122 44.6598c-0.276378,-0.0484252 -0.553937,-0.0944882 -0.833858,-0.135827 -2.88425,-0.271654 -5.8689,-0.759449 -8.83819,-1.28976 -12.2657,0.840945 -17.3787,0.193701 -25.0677,-3.55039 -2.85591,-1.34173 -6.00236,-3.4063 -9.40039,-5.22992l0 0.535039c3.29409,1.79528 6.34843,3.80197 9.1252,5.10709 7.78346,3.80079 12.9059,4.41969 25.2803,3.53622 2.92913,0.517323 5.8689,0.989764 8.78268,1.23307 0.244488,0.0413386 0.486614,0.0850394 0.72874,0.129921 0.0838583,-0.105118 0.158268,-0.217323 0.223228,-0.335433z" /><path
           id="_109733976"
           class="fil60"
           d="M45.7618 45.0272c-0.497244,-0.113386 -1.00039,-0.219685 -1.50945,-0.315354 -2.82874,-0.364961 -5.80157,-0.962598 -8.79331,-1.60039 -11.9445,0.62126 -17.1106,-0.177165 -24.7524,-3.86693 -2.70945,-1.25669 -5.66811,-3.10512 -8.83465,-4.77165l0 0.53622c3.0685,1.63819 5.93622,3.43346 8.5689,4.65709 7.72559,3.73937 12.8976,4.51181 24.9425,3.84685 2.95039,0.623622 5.87953,1.20118 8.73307,1.53425 0.444094,0.0944882 0.884646,0.193701 1.32047,0.3 0.11811,-0.0944882 0.227953,-0.201969 0.324803,-0.320079z" /><path
           id="_112563712"
           class="fil61"
           d="M45.3496 45.4146c-0.664961,-0.186614 -1.33937,-0.359055 -2.02559,-0.516142 -2.76969,-0.455906 -5.73189,-1.1622 -8.74606,-1.9063 -11.6244,0.401575 -16.8437,-0.553937 -24.437,-4.18346 -2.55827,-1.1752 -5.32795,-2.8252 -8.2689,-4.33937l0 0.538583c2.84764,1.48701 5.52992,3.08858 8.0126,4.22953 7.67008,3.67913 12.8906,4.60276 24.6071,4.1563 2.97047,0.72874 5.88898,1.41378 8.67992,1.8378 0.564567,0.141732 1.12323,0.295276 1.67598,0.458268 0.178346,-0.069685 0.348425,-0.162992 0.501969,-0.275197z" /><path
           id="_85062856"
           class="fil62"
           d="M44.6433 45.7559c-0.738189,-0.238583 -1.48465,-0.462992 -2.24646,-0.670866 -2.71299,-0.54685 -5.66339,-1.36299 -8.70118,-2.21457 -11.3008,0.18189 -16.5756,-0.924803 -24.1193,-4.49882 -2.40354,-1.09134 -4.98189,-2.55827 -7.70433,-3.92717l0 0.542126c2.63031,1.34173 5.12598,2.76378 7.45394,3.82205 7.61457,3.61654 12.8846,4.6937 24.2728,4.46575 2.99055,0.832677 5.89724,1.62402 8.63031,2.13898 0.413386,0.121654 0.822047,0.249213 1.22835,0.381496l1.03228 -0.0023622c0.0519685,-0.0106299 0.102756,-0.0224409 0.153543,-0.0366142z" /><path
           id="_51708200"
           class="fil63"
           d="M43.0406 45.7961c-0.518504,-0.183071 -1.04055,-0.356693 -1.57087,-0.524409 -2.65394,-0.637795 -5.59488,-1.56378 -8.65394,-2.52047 -10.9807,-0.0366142 -16.3063,-1.30039 -23.8075,-4.81772 -2.24409,-1.00748 -4.6311,-2.30551 -7.13622,-3.53386l0 0.545669c2.4189,1.2 4.72559,2.45906 6.89646,3.43346 7.56142,3.5563 12.8787,4.78701 23.9374,4.77638 3.01063,0.938976 5.90669,1.8378 8.57717,2.44134l0.579921 0.201969 1.17756 -0.0023622z" /><path
           id="_85143688"
           class="fil64"
           d="M41.4579 45.7984c-0.303543,-0.115748 -0.607087,-0.227953 -0.914173,-0.340157 -2.59724,-0.729921 -5.52874,-1.76339 -8.60906,-2.82992 -10.6583,-0.256299 -16.0394,-1.67126 -23.4898,-5.13189 -2.08228,-0.923622 -4.2815,-2.06693 -6.57283,-3.16181l0 0.54685c2.20984,1.0689 4.32992,2.17559 6.34016,3.0685 7.50354,3.49606 12.8705,4.87795 23.6008,5.08465 3.03189,1.04409 5.91614,2.05157 8.52638,2.74488l0.0555118 0.0200787 1.06299 -0.0011811z" /><path
           id="_85856552"
           class="fil65"
           d="M39.9921 45.8008l-0.375591 -0.153543c-2.54055,-0.822047 -5.46142,-1.96654 -8.56181,-3.14055 -10.3394,-0.472441 -15.7736,-2.04331 -23.1768,-5.44843 -1.91575,-0.839764 -3.92362,-1.84252 -6.00591,-2.80866l0 0.550394c2.00433,0.941339 3.93661,1.90866 5.78268,2.72126 7.44685,3.43465 12.8634,4.9689 23.2642,5.39528 2.85354,1.07362 5.54764,2.11535 7.9689,2.88543l1.10433 -0.0011811z" /><path
           id="_85911880"
           class="fil66"
           d="M38.6079 45.8031c-2.46732,-0.911811 -5.34449,-2.15079 -8.43425,-3.41575 -10.0169,-0.693307 -15.5043,-2.4189 -22.8626,-5.76614 -1.74567,-0.757087 -3.56339,-1.62992 -5.43898,-2.47677l0 0.555118c1.80118,0.822047 3.54803,1.66299 5.22638,2.39291 7.39134,3.37323 12.8575,5.06102 22.9287,5.70472 2.69409,1.09843 5.22402,2.17087 7.48346,3.00709l1.09724 -0.0011811z" /><path
           id="_86563520"
           class="fil67"
           d="M37.2496 45.8055c-2.31614,-0.980315 -5.03031,-2.24882 -7.95709,-3.53976 -9.69449,-0.911811 -15.2374,-2.79094 -22.5472,-6.0815 -1.57323,-0.674409 -3.20079,-1.42795 -4.87323,-2.16378l0 0.558661c1.60039,0.712205 3.15945,1.43622 4.66772,2.08465 7.33701,3.31063 12.8516,5.15079 22.5945,6.01535 2.57008,1.12677 4.9689,2.23346 7.09843,3.12874l1.01693 -0.0023622z" /><path
           id="_86240464"
           class="fil68"
           d="M35.9846 45.8079c-2.19567,-1.04173 -4.7752,-2.34449 -7.57441,-3.66378 -9.37323,-1.1315 -14.9681,-3.16417 -22.2307,-6.39685 -1.39724,-0.594094 -2.83583,-1.2378 -4.30748,-1.86732l0 0.563386c1.40433,0.607087 2.77677,1.22126 4.11142,1.79055 7.27913,3.25157 12.8433,5.24409 22.2579,6.32598 2.47087,1.15866 4.76575,2.30079 6.79016,3.24921l0.95315 -0.0011811z" /><path
           id="_82588168"
           class="fil69"
           d="M34.7846 45.8091c-2.09291,-1.09724 -4.5626,-2.43425 -7.25433,-3.78543 -9.05197,-1.35 -14.7024,-3.5374 -21.9177,-6.7122 -1.2189,-0.512598 -2.46732,-1.05472 -3.74055,-1.5874l0 0.566929c1.20827,0.510236 2.39528,1.02756 3.55512,1.51535 7.22362,3.18898 12.8362,5.33504 21.9213,6.63307 2.38819,1.19409 4.59449,2.37283 6.5315,3.37205l0.904724 -0.0023622z" /><path
           id="_83495944"
           class="fil70"
           d="M33.6343 45.8114c-2.00551,-1.15157 -4.38189,-2.5252 -6.98504,-3.90945 -8.73071,-1.56969 -14.4343,-3.91063 -21.6024,-7.02874 -1.03937,-0.432283 -2.09882,-0.879921 -3.1748,-1.32047l0 0.570472c1.01575,0.419291 2.01614,0.842126 2.99646,1.25197 7.16929,3.12874 12.8315,5.42953 21.587,6.94606 2.31969,1.22835 4.45276,2.44488 6.31181,3.49134l0.866929 -0.0011811z" /><path
           id="_110602352"
           class="fil71"
           d="M32.5252 45.8138c-1.92992,-1.20354 -4.22835,-2.61378 -6.75591,-4.03228 -8.41181,-1.78819 -14.1661,-4.28268 -21.2894,-7.34528 -0.856299,-0.35315 -1.72677,-0.713386 -2.60787,-1.06654l0 0.575197c0.824409,0.333071 1.63701,0.670866 2.43898,1.00276 7.1126,3.06732 12.8256,5.51811 21.2516,7.25551 2.26063,1.26496 4.33346,2.51693 6.1252,3.61181l0.837402 -0.0011811z" /><path
           id="_111652016"
           class="fil72"
           d="M31.4457 45.815c-1.86378,-1.25315 -4.09252,-2.7 -6.55866,-4.15394 -8.08819,-2.00669 -13.898,-4.65709 -20.9717,-7.66299 -0.674409,-0.274016 -1.35472,-0.549213 -2.04331,-0.822047l0 0.579921c0.633071,0.253937 1.26142,0.507874 1.88268,0.761811 7.05709,3.00709 12.8173,5.61142 20.915,7.56496 2.21102,1.30157 4.22717,2.5937 5.96457,3.73346l0.811417 -0.0011811z" /><path
           id="_112312920"
           class="fil73"
           d="M30.3933 45.8161c-1.80591,-1.30039 -3.97559,-2.78504 -6.38504,-4.27559 -7.76811,-2.22756 -13.6323,-5.03031 -20.6598,-7.97953 -0.488976,-0.196063 -0.980315,-0.393307 -1.47638,-0.588189l0 0.585827c0.445276,0.174803 0.887008,0.351969 1.32638,0.529134 6.99921,2.94685 12.8102,5.70354 20.5783,7.87677 2.16732,1.33819 4.13622,2.66811 5.82165,3.85394l0.794882 -0.0023622z" /><path
           id="_22880808"
           class="fil74"
           d="M29.361 45.8185c-1.75512,-1.34646 -3.87283,-2.87126 -6.23504,-4.39843 -7.44803,-2.44606 -13.363,-5.40472 -20.3421,-8.29606l-0.911811 -0.360236 0 0.592913 0.767717 0.303543c6.94606,2.88425 12.8031,5.79213 20.2441,8.18504 2.13189,1.37717 4.05709,2.74606 5.69646,3.97441l0.780709 -0.0011811z" /><path
           id="_85764296"
           class="fil75"
           d="M28.3441 45.8209c-1.70669,-1.39252 -3.77835,-2.9563 -6.09803,-4.52362 -7.12677,-2.66457 -13.0961,-5.77677 -20.0291,-8.61142l-0.344882 -0.134646 0 0.597638 0.211417 0.0814961c6.88937,2.82402 12.7972,5.88543 19.9075,8.49567 2.09882,1.41496 3.98858,2.82283 5.58898,4.09606l0.764173 -0.0011811z" /><path
           id="_85957896"
           class="fil76"
           d="M27.3449 45.822c-1.66654,-1.4374 -3.69685,-3.04134 -5.97992,-4.64528 -6.73228,-2.85354 -12.6992,-6.07913 -19.4929,-8.83701l0 0.602362c6.68976,2.73189 12.5587,5.88425 19.226,8.66339 2.07165,1.45394 3.92953,2.90197 5.48976,4.21772l0.757087 -0.0011811z" /><path
           id="_113917472"
           class="fil77"
           d="M26.3551 45.8232c-1.62756,-1.48346 -3.62008,-3.1252 -5.87126,-4.76693 -6.23268,-2.98346 -12.0909,-6.25984 -18.6118,-8.92559l0 0.608268c6.4122,2.63504 12.1677,5.83819 18.3343,8.74843 2.04449,1.49173 3.87283,2.97874 5.40118,4.33819l0.747638 -0.0023622z" /><path
           id="_81649456"
           class="fil78"
           d="M25.3772 45.8256c-1.59094,-1.52717 -3.55276,-3.21024 -5.77441,-4.89094 -5.74961,-3.09803 -11.472,-6.41811 -17.7307,-9.01181l0 0.611811c6.14528,2.56181 11.7626,5.80748 17.4402,8.83346 2.02441,1.53071 3.82559,3.05669 5.32205,4.45748l0.742913 0z" /><path
           id="_84322792"
           class="fil79"
           d="M24.411 45.8268c-1.56024,-1.57087 -3.49134,-3.29291 -5.68937,-5.0126 -5.28307,-3.20197 -10.8461,-6.55866 -16.8496,-9.09803l0 0.620079c5.88898,2.50394 11.3421,5.78504 16.5484,8.91378 2.00433,1.5685 3.78071,3.13465 5.25,4.57795l0.740551 -0.0011811z" /><path
           id="_85161408"
           class="fil80"
           d="M23.4496 45.8291c-1.52953,-1.61457 -3.43465,-3.37559 -5.60906,-5.13543 -4.83071,-3.29055 -10.2106,-6.67559 -15.9685,-9.17717l0 0.623622c5.63622,2.46496 10.9039,5.77323 15.6543,8.99055 1.98898,1.60748 3.74409,3.21378 5.18622,4.69843l0.737008 0z" /><path
           id="_85602968"
           class="fil81"
           d="M22.4965 45.8291c-1.50236,-1.65709 -3.38268,-3.45827 -5.53583,-5.25827 -4.39606,-3.3626 -9.57402,-6.77008 -15.0886,-9.24803l0 0.630709c5.39055,2.43898 10.4516,5.7685 14.7626,9.05669 1.97244,1.64764 3.70748,3.29291 5.1248,4.82008l0.737008 -0.0011811z" /></g><path
         id="_81658104"
         class="fil82"
         d="M13.0902 8.71063c-0.912992,-0.550394 -1.55315,34.8874 0.731102,35.6197 2.28425,0.733465 29.8689,-16.6654 31.2378,-18.1311 1.37126,-1.46457 -27.3094,-19.4114 -31.9689,-17.4886z" /><g
         id="g118"><path
           id="_81127928"
           class="fil83"
           d="M45.9898 21.8906c-4.46457,0.20315 -7.99843,-0.607087 -12.5504,-2.74961 -5.0752,-2.37874 -11.5713,-8.69764 -19.2614,-11.7673l-1.39843 -0.0011811c8.13543,2.8689 14.9858,9.67323 20.2866,12.1583 4.70079,2.21339 8.32441,3.03543 12.9236,2.80866l0 -0.448819z" /><path
           id="_50851824"
           class="fil84"
           d="M45.9898 21.4724c-4.76457,0.248031 -8.43307,-0.561024 -13.1917,-2.78386 -5.07992,-2.34921 -11.511,-8.38937 -19.0559,-11.3161l-1.43031 -0.0011811c8.00197,2.72126 14.8051,9.25512 20.1248,11.7165 4.90394,2.29134 8.6563,3.11102 13.5531,2.83583l0 -0.451181z" /><path
           id="_82573728"
           class="fil85"
           d="M45.9898 21.0614c-5.07047,0.287008 -8.8689,-0.525591 -13.8307,-2.82283 -5.07638,-2.31732 -11.439,-8.07874 -18.828,-10.8661l-1.46811 -0.0011811c7.86496,2.57598 14.6138,8.83819 19.9429,11.2736 5.10354,2.36457 8.9811,3.18425 14.1839,2.87126l0 -0.454724z" /><path
           id="_85787064"
           class="fil86"
           d="M45.9898 20.6598c-5.38346,0.316535 -9.31063,-0.504331 -14.472,-2.87362 -5.06575,-2.28307 -11.3492,-7.76102 -18.5752,-10.4138l-1.51181 -0.0023622c7.71732,2.43661 14.4094,8.42598 19.7457,10.8295 5.29843,2.43661 9.3,3.2622 14.8134,2.91614l0 -0.455906z" /><path
           id="_87957904"
           class="fil87"
           d="M45.9898 20.2665c-5.7,0.336614 -9.75472,-0.49252 -15.111,-2.93268 -5.05039,-2.24528 -11.2476,-7.43976 -18.3083,-9.96142l-1.54843 -0.0023622c7.56614,2.30197 14.1886,8.0126 19.5236,10.3866 5.48976,2.50276 9.61535,3.3378 15.4441,2.97047l0 -0.46063z" /><path
           id="_85856336"
           class="fil88"
           d="M45.9886 19.8886c-6.02008,0.344882 -10.2012,-0.501969 -15.75,-3.00591 -5.02205,-2.20512 -11.1248,-7.11614 -18.0094,-9.51142l-1.59213 -0.0023622c7.40551,2.17677 13.9524,7.60512 19.278,9.94488 5.67874,2.56654 9.92598,3.41575 16.0748,3.03661l-0.0011811 -0.461811z" /><path
           id="_84435752"
           class="fil89"
           d="M45.9886 19.5236c-6.3437,0.34252 -10.6535,-0.526772 -16.3902,-3.09213 -4.98661,-2.16142 -10.9807,-6.78543 -17.6776,-9.06024l-1.64291 -0.0023622c7.23898,2.05276 13.6996,7.19646 19.0075,9.50197 5.86417,2.62677 10.2343,3.49488 16.7043,3.11811l-0.0011811 -0.465354z" /><path
           id="_85485424"
           class="fil90"
           d="M45.9886 19.1752c-6.6685,0.327165 -11.1071,-0.571654 -17.0303,-3.19606 -4.93583,-2.11181 -10.8083,-6.44764 -17.3102,-8.60906l-1.68898 -0.0011811c7.05591,1.94173 13.4173,6.79606 18.6969,9.05906 6.04606,2.68346 10.5378,3.57874 17.3327,3.2126l0 -0.465354z" /><path
           id="_85129648"
           class="fil91"
           d="M45.9886 18.8433c-6.99567,0.301181 -11.563,-0.634252 -17.6705,-3.31772 -4.87441,-2.05748 -10.6134,-6.1063 -16.9098,-8.15551l-1.73268 -0.0011811c6.86575,1.83661 13.1138,6.39921 18.3496,8.61496 6.22559,2.74016 10.8437,3.66969 17.9634,3.32953l0 -0.470079z" /><path
           id="_84749336"
           class="fil92"
           d="M45.9886 18.5339c-7.31811,0.25748 -12.0213,-0.724016 -18.3106,-3.45709 -4.79764,-2.00433 -10.3866,-5.76496 -16.4681,-7.70669l-1.77992 -0.0011811c6.66496,1.7374 12.7843,6.00591 17.9657,8.17205 6.40276,2.79094 11.1472,3.76299 18.5929,3.46299l0 -0.470079z" /><path
           id="_51108296"
           class="fil93"
           d="M45.9886 18.2421c-7.64291,0.20315 -12.4807,-0.832677 -18.952,-3.61772 -4.70315,-1.93937 -10.1256,-5.41535 -15.978,-7.25433l-1.8248 -0.0011811c6.44882,1.64646 12.4205,5.61732 17.5323,7.72913 6.57874,2.84055 11.4531,3.8622 19.2224,3.61535l0 -0.47126z" /><path
           id="_52094840"
           class="fil94"
           d="M45.9874 17.9752c-7.96299,0.133465 -12.939,-0.968504 -19.5909,-3.80315 -4.59094,-1.86969 -9.83031,-5.05984 -15.4382,-6.80197l-1.86732 -0.0011811c6.21614,1.5626 12.0236,5.23701 17.0445,7.28504 6.75472,2.8878 11.7638,3.97441 19.8531,3.7937l-0.0011811 -0.472441z" /><path
           id="_81105000"
           class="fil95"
           d="M45.9874 17.7319c-8.27598,0.0484252 -13.3996,-1.12913 -20.2299,-4.01102 -4.46102,-1.79528 -9.49843,-4.70787 -14.8488,-6.35079l-1.90512 -0.0023622c5.96929,1.48583 11.589,4.8626 16.5012,6.84449 6.92953,2.9315 12.078,4.09016 20.4839,3.99331l-0.0011811 -0.473622z" /><path
           id="_82666696"
           class="fil96"
           d="M45.9874 17.5169c-8.58543,-0.0543307 -13.8579,-1.32165 -20.8724,-4.24843 -4.3063,-1.7126 -9.11811,-4.35118 -14.1969,-5.89843l-1.94055 -0.0023622c5.70709,1.41378 11.1177,4.49764 15.8965,6.40039 7.10787,2.9752 12.398,4.22126 21.1134,4.22126l0 -0.472441z" /><path
           id="_81687448"
           class="fil97"
           d="M45.9874 17.328c-8.8878,-0.170079 -14.315,-1.54134 -21.5091,-4.51063 -4.13268,-1.62402 -8.70236,-3.99449 -13.4929,-5.44724l-1.96772 -0.0011811c5.4248,1.34528 10.6028,4.13622 15.2268,5.95512 7.28386,3.01772 12.724,4.36417 21.7429,4.47874l0 -0.474803z" /><path
           id="_81383792"
           class="fil98"
           d="M45.9862 17.1709c-9.17953,-0.303543 -14.772,-1.79173 -22.1492,-4.80591 -3.93307,-1.52598 -8.23583,-3.63898 -12.7193,-4.99488l-1.99134 -0.0011811c5.12362,1.27913 10.0465,3.78543 14.4886,5.5122 7.46102,3.05787 13.0594,4.51654 22.3724,4.76693l-0.0011811 -0.477165z" /><path
           id="_52462688"
           class="fil99"
           d="M45.9862 17.048c-9.45945,-0.458268 -15.2232,-2.0811 -22.7906,-5.13425 -3.70394,-1.42087 -7.71614,-3.28465 -11.8772,-4.5437l-2.01024 -0.0011811c4.80354,1.21063 9.44528,3.44291 13.676,5.07047 7.64291,3.09567 13.4079,4.68661 23.0031,5.08583l-0.0011811 -0.477165z" /><path
           id="_81646328"
           class="fil100"
           d="M45.9862 16.9618c-9.72638,-0.630709 -15.6744,-2.40472 -23.4307,-5.49921 -3.44882,-1.30866 -7.14921,-2.93504 -10.9654,-4.09252l-2.02559 -0.0011811c4.4622,1.14213 8.79685,3.10984 12.789,4.62638 7.82835,3.13465 13.7705,4.87441 23.6339,5.4437l-0.0011811 -0.477165z" /><path
           id="_83823656"
           class="fil101"
           d="M45.9862 16.9146c-9.97677,-0.823228 -16.1173,-2.76969 -24.0709,-5.90433 -3.16535,-1.18583 -6.52677,-2.58898 -9.98031,-3.63898l-2.04094 -0.0023622c4.10433,1.06772 8.10472,2.78386 11.8299,4.18346 8.01732,3.17126 14.1484,5.0811 24.2634,5.83937l-0.0011811 -0.477165z" /><path
           id="_81175368"
           class="fil102"
           d="M45.9862 17.0516l-0.406299 -0.183071c-9.97087,-1.05 -16.2567,-3.1748 -24.3047,-6.30827 -2.85472,-1.05827 -5.85709,-2.25 -8.9315,-3.18898l-2.04921 -0.0023622c3.72638,0.988583 7.37244,2.4685 10.8012,3.74055 8.0563,3.15 14.302,5.23228 24.3059,6.22323l0.585827 0.264567 -0.0011811 -0.545669z" /><path
           id="_110130640"
           class="fil103"
           d="M45.9874 17.4437c-0.451181,-0.220866 -0.91063,-0.442913 -1.37598,-0.666142 -9.63189,-1.30394 -15.9839,-3.59764 -23.9764,-6.67087 -2.51339,-0.920079 -5.13307,-1.91457 -7.80709,-2.73425l-2.05512 -0.0023622c3.32598,0.898819 6.59055,2.15787 9.69094,3.29528 7.99488,3.08504 14.2996,5.33504 23.9551,6.57874 0.530315,0.253937 1.05472,0.506693 1.5685,0.757087l0 -0.55748z" /><path
           id="_112663712"
           class="fil104"
           d="M45.9874 17.902c-0.758268,-0.401575 -1.54252,-0.807874 -2.34567,-1.21417 -9.29173,-1.55906 -15.7075,-4.01811 -23.648,-7.03228 -2.14488,-0.777165 -4.36181,-1.58504 -6.61535,-2.28307l-2.06339 -0.0023622c2.91142,0.80315 5.77559,1.85669 8.51929,2.85236 7.92874,3.02126 14.2961,5.43307 23.6008,6.93543 0.877559,0.441732 1.73031,0.883465 2.55354,1.31811l-0.0011811 -0.574016z" /><path
           id="_116614496"
           class="fil105"
           d="M45.9886 18.4311c-1.05354,-0.603543 -2.1626,-1.2189 -3.31654,-1.83425 -8.94921,-1.81417 -15.4323,-4.43976 -23.3173,-7.39252 -1.75157,-0.627165 -3.54567,-1.26142 -5.36693,-1.83189l-2.06102 -0.0011811c2.47559,0.698031 4.91811,1.56142 7.27677,2.40827 7.86496,2.9563 14.2937,5.53346 23.2488,7.28858 1.23543,0.657874 2.4189,1.31575 3.53622,1.95236l0 -0.58937z" /><path
           id="_81730032"
           class="fil106"
           d="M45.9886 19.0346c-1.32992,-0.822047 -2.76614,-1.67717 -4.28622,-2.52874 -8.60787,-2.06929 -15.1571,-4.86024 -22.9878,-7.75394 -1.33701,-0.472441 -2.69646,-0.941339 -4.07008,-1.37835l-2.05512 -0.0011811c2.02677,0.584646 4.03228,1.27087 5.98583,1.96417 7.8,2.89252 14.289,5.63386 22.8945,7.64528 1.61102,0.901181 3.12756,1.80118 4.5189,2.66102l0 -0.608268z" /><path
           id="_86755672"
           class="fil107"
           d="M45.9886 19.7185c-1.58031,-1.05945 -3.34961,-2.18268 -5.25709,-3.30236 -8.26654,-2.32441 -14.8807,-5.28189 -22.6559,-8.11535 -0.905906,-0.317717 -1.82126,-0.627165 -2.7437,-0.925984l-2.03504 -0.0023622c1.5685,0.465354 3.12165,0.98622 4.64646,1.52126 7.73858,2.82638 14.2878,5.73425 22.5437,7.99961 2.01142,1.17874 3.86339,2.35866 5.50276,3.45709l-0.0011811 -0.63189z" /><path
           id="_81959128"
           class="fil108"
           d="M45.9898 20.4969c-1.79882,-1.31457 -3.90591,-2.74606 -6.22795,-4.17283 -7.9252,-2.57835 -14.6055,-5.70118 -22.3276,-8.47677 -0.462992,-0.159449 -0.928346,-0.316535 -1.39488,-0.47126l-2.00906 -0.00354331c1.10433,0.337795 2.20039,0.702756 3.28465,1.07717 7.67244,2.76496 14.2843,5.83583 22.1894,8.35512 2.44134,1.49646 4.63937,2.99528 6.48543,4.34764l0 -0.655512z" /><path
           id="_51376200"
           class="fil109"
           d="M45.9898 21.3791c-1.9689,-1.58268 -4.42205,-3.36969 -7.19764,-5.14606 -7.58268,-2.83346 -14.3315,-6.12283 -21.998,-8.83583l-0.0602362 -0.0212598 -1.96417 -0.0023622c0.641339,0.204331 1.27913,0.414567 1.91339,0.63189 7.61102,2.70236 14.2819,5.93622 21.8374,8.71063 2.9185,1.86378 5.47087,3.73465 7.46929,5.35039l0 -0.687402z" /><path
           id="_85694200"
           class="fil110"
           d="M45.9898 22.3949c-2.06811,-1.86024 -4.88268,-4.06654 -8.16732,-6.25276 -6.8563,-2.92205 -13.3264,-6.17598 -20.4579,-8.76614l-1.87323 -0.0011811 0.562205 0.188976c7.54606,2.63622 14.2772,6.03661 21.4854,9.06496 3.46181,2.30197 6.38622,4.6122 8.45197,6.49606l-0.0011811 -0.729921z" /><path
           id="_85587760"
           class="fil111"
           d="M45.9921 23.5878l-0.0885827 -0.0956693c-2.05748,-2.1189 -5.22047,-4.79409 -9.05079,-7.43976 -6.14764,-2.97874 -12.2799,-6.17953 -18.8894,-8.6752l-1.80472 -0.0011811c7.19173,2.55 13.7646,5.98819 20.3976,9.16417 3.75827,2.59488 6.85512,5.20394 8.8748,7.26024l0.561024 0.617717 0 -0.830315z" /><path
           id="_81049192"
           class="fil112"
           d="M45.9921 25.0039c-0.362598,-0.415748 -0.726378,-0.83622 -1.09488,-1.26378 -1.99724,-2.22165 -5.15551,-5.0185 -9.01417,-7.77756 -5.48858,-3.01063 -11.2453,-6.15591 -17.374,-8.58543l-1.74449 -0.0011811c6.66614,2.47205 12.8811,5.85472 18.8079,9.07677 3.78661,2.70827 6.87756,5.43543 8.83465,7.59331 0.535039,0.625984 1.06181,1.24134 1.58622,1.84488l-0.0011811 -0.887008z" /><path
           id="_86498936"
           class="fil113"
           d="M45.9933 26.5476c-0.694488,-0.829134 -1.39016,-1.68071 -2.10236,-2.55827 -1.93937,-2.32559 -5.09055,-5.24173 -8.97874,-8.11772 -4.87913,-3.02362 -10.2449,-6.10984 -15.9295,-8.49331l-1.66417 -0.0023622c6.17835,2.42362 12.0012,5.74252 17.2713,8.98819 3.81378,2.82047 6.89646,5.66811 8.79213,7.92638 0.884646,1.09961 1.74803,2.16024 2.61142,3.18425l0 -0.927165z" /><path
           id="_85063848"
           class="fil114"
           d="M45.9945 28.1988c-1.02992,-1.26024 -2.05276,-2.57835 -3.10866,-3.96024 -1.8815,-2.42835 -5.02677,-5.46496 -8.94213,-8.45906 -4.32402,-3.02126 -9.29646,-6.04961 -14.5689,-8.4l-1.58268 -0.0023622c5.73071,2.38937 11.1496,5.64803 15.815,8.89843 3.84213,2.93504 6.91535,5.89961 8.75079,8.25945 1.23425,1.62283 2.42598,3.15945 3.6378,4.61811l-0.0011811 -0.954331z" /></g><g
         id="g152"><path
           id="_85523200"
           class="fil82"
           d="M13.4433 10.6264c-0.855118,-0.51378 -1.45276,32.6469 0.683858,33.3319 2.13661,0.687402 27.9484,-15.5953 29.2323,-16.9654 1.2815,-1.37008 -25.5567,-18.1654 -29.9161,-16.3665z" /><g
           id="g155"><path
             id="_85062608"
             class="fil115"
             d="M13.6346 11.1083c-0.829134,-0.498425 -1.41024,31.6984 0.664961,32.3634 2.07402,0.667323 27.1382,-15.1429 28.3831,-16.4728 1.2437,-1.3311 -24.8138,-17.6386 -29.048,-15.8906z" /><path
             id="_83361648"
             class="fil116"
             d="M13.826 11.5913c-0.804331,-0.484252 -1.3689,30.75 0.646063,31.3949 2.01142,0.647244 26.3232,-14.6894 27.5315,-15.9815 1.20827,-1.28976 -24.072,-17.1094 -28.1776,-15.4134z" /><path
             id="_83247976"
             class="fil117"
             d="M14.0173 12.0732c-0.780709,-0.468898 -1.32638,29.8028 0.624803,30.4276 1.95,0.625984 25.513,-14.237 26.6835,-15.4878 1.17047,-1.25079 -23.3291,-16.5827 -27.3083,-14.9398z" /><path
             id="_82230664"
             class="fil118"
             d="M14.2087 12.5551c-0.755906,-0.453543 -1.28504,28.8543 0.603543,29.4602 1.88976,0.605906 24.7028,-13.7846 25.8354,-14.9965 1.13386,-1.21063 -22.5862,-16.0535 -26.439,-14.4638z" /><path
             id="_88328736"
             class="fil119"
             d="M14.3988 13.0382c-0.729921,-0.440551 -1.24134,27.9047 0.584646,28.4917 1.82598,0.587008 23.8913,-13.3311 24.9862,-14.5039 1.09724,-1.17047 -21.8445,-15.528 -25.5709,-13.9878z" /><path
             id="_81661736"
             class="fil120"
             d="M14.5913 13.5201c-0.706299,-0.425197 -1.20236,26.9587 0.563386,27.5232 1.76457,0.56811 23.0787,-12.8787 24.1382,-14.0091 1.05827,-1.13268 -21.1028,-15 -24.7016,-13.5142z" /><path
             id="_82767656"
             class="fil121"
             d="M14.7815 14.002c-0.680315,-0.409843 -1.15866,26.0114 0.544488,26.5559 1.70197,0.54685 22.2673,-12.4252 23.2902,-13.5165 1.02047,-1.0937 -20.3622,-14.4732 -23.8346,-13.0394z" /><path
             id="_84678624"
             class="fil122"
             d="M14.9728 14.4839c-0.655512,-0.394488 -1.11614,25.063 0.523228,25.5886 1.64291,0.525591 21.4559,-11.9717 22.4409,-13.0252 0.983858,-1.05236 -19.6193,-13.9441 -22.9642,-12.5634z" /></g><path
           id="_86564880"
           class="fil123"
           d="M15.1606 14.9681c-0.63189,-0.381496 -1.07244,24.1157 0.505512,24.6224 1.57795,0.505512 20.6457,-11.5217 21.5929,-12.5327 0.947244,-1.01339 -18.8776,-13.4197 -22.0984,-12.0898z" /></g><polygon
         id="_114705664"
         class="fil124"
         points="36.874,26.6799 26.5087,32.6646 16.1445,38.6492 16.1445,26.6799 16.1445,14.7118 26.5087,20.6965 " /></g><path
       class="fil125"
       d="M1.6122 9.38386c-0.0744094,-1.23425 0.731102,-2.38819 2.09173,-2.38819l40.0004 0 0.034252 0 0.00472441 0.0023622c1.39724,0.0177165 2.1378,1.16339 2.13661,2.59843l0.0011811 0 0 0.0307087 -0.0106299 -0.0011811c0.00708661,0.0909449 0.00944882,0.18189 0.00944882,0.275197l0.0011811 0 0 0.0307087 -0.217323 -0.0188976 0 -0.0307087 0.0011811 0c0,-1.02874 -0.93189,-1.8248 -1.92638,-1.84016l0 0.0023622 -0.034252 0 -40.0004 0c-0.281102,0 -0.584646,0.180709 -0.810236,0.180709 -0.408661,0.191339 -0.822047,0.605906 -0.993307,1.03228l0.0011811 0.0011811c-0.0685039,0.174803 -0.10748,0.364961 -0.10748,0.562205l-0.18189 -0.131102c-0.00590551,-0.102756 -0.00590551,-0.205512 0,-0.305906z"
       id="path167" /><path
       class="fil126"
       d="M0.998031 9.13937l0 -0.023622 0 -0.023622 0 -1.35236c0,-0.305906 0.0614173,-0.604724 0.17126,-0.881102l-0.0011811 -0.0011811c0.106299,-0.271654 0.269291,-0.524409 0.468898,-0.747638l-0.0011811 -0.0011811c0.25748,-0.315354 0.588189,-0.574016 0.962598,-0.75l0 0.0011811c0.362598,-0.172441 0.764173,-0.269291 1.1811,-0.269291l40.3028 0.0377953 0.0259843 0 0.00354331 0.0023622c0.746457,0.00826772 1.45157,0.317717 1.96417,0.807874l0.0023622 0.0023622c0.519685,0.498425 0.853937,1.18583 0.853937,1.94055l0 0.023622 -0.0023622 0.00590551c-0.0153543,1.37126 -0.0507874,2.75433 -0.0023622,4.12441l-0.0200787 32.2902c-0.0023622,0.758268 -0.309449,1.45394 -0.800787,1.95591l-0.0023622 0.0023622c-0.493701,0.504331 -1.17756,0.820866 -1.9252,0.820866l-40.3748 -0.0377953c-0.75,0 -1.43504,-0.316535 -1.9311,-0.823228 -0.491339,-0.50315 -0.798425,-1.19646 -0.798425,-1.95591l0.0023622 0 -0.0732283 -27.7677 -0.00590551 0 0 -0.500787 0 -1.64646 0 -0.0377953 0 -5.19567zm1.00157 -0.023622l0 0.023622 0 5.19567 0 0.0377953 0 1.14567 0 0.500787 0.0744094 28.2685 0.0023622 0c0,0.490157 0.197244,0.938976 0.512598,1.26142 0.31063,0.317717 0.742913,0.516142 1.21535,0.516142l40.3748 0.0377953c0.472441,0 0.902362,-0.199606 1.21181,-0.516142l0.0023622 -0.0023622c0.316535,-0.323622 0.516142,-0.772441 0.517323,-1.25906l0.0200787 -32.2547c-0.0484252,-1.38543 -0.0141732,-2.77913 0.0023622,-4.16575l-0.0023622 0 0 -0.023622c0,-0.470079 -0.212598,-0.902362 -0.542126,-1.22008 -0.337795,-0.322441 -0.798425,-0.527953 -1.28031,-0.533858l0 0.0023622 -0.0259843 0 -40.3028 -0.0377953c-0.272835,0 -0.530315,0.0602362 -0.753543,0.166535l-0.0023622 0.0023622c-0.235039,0.111024 -0.446457,0.277559 -0.612992,0.480709l-0.0200787 0.0200787c-0.121654,0.133465 -0.224409,0.292913 -0.291732,0.464173l-0.0023622 0.0011811c-0.0614173,0.154724 -0.0968504,0.329528 -0.0968504,0.512598l0 1.35236 0 0.023622z"
       id="path169" /></g></svg>