<?xml version="1.0" encoding="UTF-8" standalone="no"?>
<!-- Creator: CorelDRAW -->

<svg
   xmlns:dc="http://purl.org/dc/elements/1.1/"
   xmlns:cc="http://creativecommons.org/ns#"
   xmlns:rdf="http://www.w3.org/1999/02/22-rdf-syntax-ns#"
   xmlns:svg="http://www.w3.org/2000/svg"
   xmlns="http://www.w3.org/2000/svg"
   xmlns:sodipodi="http://sodipodi.sourceforge.net/DTD/sodipodi-0.dtd"
   xmlns:inkscape="http://www.inkscape.org/namespaces/inkscape"
   xml:space="preserve"
   width="16px"
   height="16px"
   style="shape-rendering:geometricPrecision; text-rendering:geometricPrecision; image-rendering:optimizeQuality; fill-rule:evenodd; clip-rule:evenodd"
   viewBox="0 0 16 16"
   id="svg2"
   version="1.1"
   inkscape:version="0.91 r13725"
   sodipodi:docname="application-x-amarok.svg"><metadata
     id="metadata150"><rdf:RDF><cc:Work
         rdf:about=""><dc:format>image/svg+xml</dc:format><dc:type
           rdf:resource="http://purl.org/dc/dcmitype/StillImage" /></cc:Work></rdf:RDF></metadata><sodipodi:namedview
     pagecolor="#ffffff"
     bordercolor="#666666"
     borderopacity="1"
     objecttolerance="10"
     gridtolerance="10"
     guidetolerance="10"
     inkscape:pageopacity="0"
     inkscape:pageshadow="2"
     inkscape:window-width="1680"
     inkscape:window-height="995"
     id="namedview148"
     showgrid="false"
     inkscape:zoom="14.75"
     inkscape:cx="8"
     inkscape:cy="8"
     inkscape:window-x="0"
     inkscape:window-y="28"
     inkscape:window-maximized="1"
     inkscape:current-layer="svg2" /><defs
     id="defs4"><style
       type="text/css"
       id="style6"><![CDATA[
    .fil113 {fill:none}
    .fil112 {fill:white}
    .fil115 {fill:#BCE6FF}
    .fil116 {fill:#4E87B4;fill-rule:nonzero}
    .fil0 {fill:black;fill-opacity:0.000000}
    .fil79 {fill:#A3EFF7;fill-opacity:0.000000}
    .fil1 {fill:black;fill-opacity:0.003922}
    .fil2 {fill:black;fill-opacity:0.007843}
    .fil3 {fill:black;fill-opacity:0.015686}
    .fil78 {fill:#64A4DB;fill-opacity:0.015686}
    .fil111 {fill:#88C8E8;fill-opacity:0.015686}
    .fil46 {fill:#C9EDFF;fill-opacity:0.015686}
    .fil4 {fill:black;fill-opacity:0.019608}
    .fil5 {fill:black;fill-opacity:0.023529}
    .fil6 {fill:black;fill-opacity:0.027451}
    .fil77 {fill:#64A4DB;fill-opacity:0.031373}
    .fil110 {fill:#88C8E8;fill-opacity:0.031373}
    .fil45 {fill:#C9EDFF;fill-opacity:0.031373}
    .fil7 {fill:black;fill-opacity:0.031373}
    .fil8 {fill:black;fill-opacity:0.035294}
    .fil9 {fill:black;fill-opacity:0.043137}
    .fil76 {fill:#64A4DB;fill-opacity:0.047059}
    .fil109 {fill:#88C8E8;fill-opacity:0.047059}
    .fil44 {fill:#C9EDFF;fill-opacity:0.047059}
    .fil10 {fill:black;fill-opacity:0.047059}
    .fil11 {fill:black;fill-opacity:0.050980}
    .fil12 {fill:black;fill-opacity:0.054902}
    .fil13 {fill:black;fill-opacity:0.058824}
    .fil75 {fill:#64A4DB;fill-opacity:0.058824}
    .fil108 {fill:#88C8E8;fill-opacity:0.058824}
    .fil43 {fill:#C9EDFF;fill-opacity:0.058824}
    .fil74 {fill:#64A4DB;fill-opacity:0.074510}
    .fil107 {fill:#88C8E8;fill-opacity:0.074510}
    .fil42 {fill:#C9EDFF;fill-opacity:0.074510}
    .fil73 {fill:#64A4DB;fill-opacity:0.090196}
    .fil106 {fill:#88C8E8;fill-opacity:0.090196}
    .fil41 {fill:#C9EDFF;fill-opacity:0.090196}
    .fil72 {fill:#64A4DB;fill-opacity:0.105882}
    .fil105 {fill:#88C8E8;fill-opacity:0.105882}
    .fil40 {fill:#C9EDFF;fill-opacity:0.105882}
    .fil71 {fill:#64A4DB;fill-opacity:0.121569}
    .fil104 {fill:#88C8E8;fill-opacity:0.121569}
    .fil39 {fill:#C9EDFF;fill-opacity:0.121569}
    .fil70 {fill:#64A4DB;fill-opacity:0.137255}
    .fil103 {fill:#88C8E8;fill-opacity:0.137255}
    .fil38 {fill:#C9EDFF;fill-opacity:0.137255}
    .fil69 {fill:#64A4DB;fill-opacity:0.152941}
    .fil102 {fill:#88C8E8;fill-opacity:0.152941}
    .fil37 {fill:#C9EDFF;fill-opacity:0.152941}
    .fil68 {fill:#64A4DB;fill-opacity:0.164706}
    .fil101 {fill:#88C8E8;fill-opacity:0.164706}
    .fil36 {fill:#C9EDFF;fill-opacity:0.164706}
    .fil67 {fill:#64A4DB;fill-opacity:0.180392}
    .fil100 {fill:#88C8E8;fill-opacity:0.180392}
    .fil35 {fill:#C9EDFF;fill-opacity:0.180392}
    .fil66 {fill:#64A4DB;fill-opacity:0.196078}
    .fil99 {fill:#88C8E8;fill-opacity:0.196078}
    .fil34 {fill:#C9EDFF;fill-opacity:0.196078}
    .fil65 {fill:#64A4DB;fill-opacity:0.211765}
    .fil98 {fill:#88C8E8;fill-opacity:0.211765}
    .fil33 {fill:#C9EDFF;fill-opacity:0.211765}
    .fil64 {fill:#64A4DB;fill-opacity:0.227451}
    .fil97 {fill:#88C8E8;fill-opacity:0.227451}
    .fil32 {fill:#C9EDFF;fill-opacity:0.227451}
    .fil63 {fill:#64A4DB;fill-opacity:0.243137}
    .fil96 {fill:#88C8E8;fill-opacity:0.243137}
    .fil31 {fill:#C9EDFF;fill-opacity:0.243137}
    .fil62 {fill:#64A4DB;fill-opacity:0.258824}
    .fil95 {fill:#88C8E8;fill-opacity:0.258824}
    .fil30 {fill:#C9EDFF;fill-opacity:0.258824}
    .fil61 {fill:#64A4DB;fill-opacity:0.274510}
    .fil94 {fill:#88C8E8;fill-opacity:0.274510}
    .fil29 {fill:#C9EDFF;fill-opacity:0.274510}
    .fil60 {fill:#64A4DB;fill-opacity:0.286275}
    .fil93 {fill:#88C8E8;fill-opacity:0.286275}
    .fil28 {fill:#C9EDFF;fill-opacity:0.286275}
    .fil59 {fill:#64A4DB;fill-opacity:0.301961}
    .fil92 {fill:#88C8E8;fill-opacity:0.301961}
    .fil27 {fill:#C9EDFF;fill-opacity:0.301961}
    .fil58 {fill:#64A4DB;fill-opacity:0.317647}
    .fil91 {fill:#88C8E8;fill-opacity:0.317647}
    .fil26 {fill:#C9EDFF;fill-opacity:0.317647}
    .fil57 {fill:#64A4DB;fill-opacity:0.333333}
    .fil90 {fill:#88C8E8;fill-opacity:0.333333}
    .fil25 {fill:#C9EDFF;fill-opacity:0.333333}
    .fil56 {fill:#64A4DB;fill-opacity:0.349020}
    .fil89 {fill:#88C8E8;fill-opacity:0.349020}
    .fil24 {fill:#C9EDFF;fill-opacity:0.349020}
    .fil55 {fill:#64A4DB;fill-opacity:0.364706}
    .fil88 {fill:#88C8E8;fill-opacity:0.364706}
    .fil23 {fill:#C9EDFF;fill-opacity:0.364706}
    .fil54 {fill:#64A4DB;fill-opacity:0.380392}
    .fil87 {fill:#88C8E8;fill-opacity:0.380392}
    .fil22 {fill:#C9EDFF;fill-opacity:0.380392}
    .fil53 {fill:#64A4DB;fill-opacity:0.392157}
    .fil86 {fill:#88C8E8;fill-opacity:0.392157}
    .fil21 {fill:#C9EDFF;fill-opacity:0.392157}
    .fil52 {fill:#64A4DB;fill-opacity:0.407843}
    .fil85 {fill:#88C8E8;fill-opacity:0.407843}
    .fil20 {fill:#C9EDFF;fill-opacity:0.407843}
    .fil51 {fill:#64A4DB;fill-opacity:0.423529}
    .fil84 {fill:#88C8E8;fill-opacity:0.423529}
    .fil19 {fill:#C9EDFF;fill-opacity:0.423529}
    .fil50 {fill:#64A4DB;fill-opacity:0.439216}
    .fil83 {fill:#88C8E8;fill-opacity:0.439216}
    .fil18 {fill:#C9EDFF;fill-opacity:0.439216}
    .fil114 {fill:#B0E5FF;fill-rule:nonzero;fill-opacity:0.439216}
    .fil49 {fill:#64A4DB;fill-opacity:0.454902}
    .fil82 {fill:#88C8E8;fill-opacity:0.454902}
    .fil17 {fill:#C9EDFF;fill-opacity:0.454902}
    .fil48 {fill:#64A4DB;fill-opacity:0.470588}
    .fil81 {fill:#88C8E8;fill-opacity:0.470588}
    .fil16 {fill:#C9EDFF;fill-opacity:0.470588}
    .fil47 {fill:#64A4DB;fill-opacity:0.486275}
    .fil80 {fill:#88C8E8;fill-opacity:0.486275}
    .fil15 {fill:#C9EDFF;fill-opacity:0.486275}
    .fil14 {fill:url(#id0)}
   ]]></style><linearGradient
       id="id0"
       gradientUnits="userSpaceOnUse"
       x1="8.08901"
       y1="5.70335"
       x2="7.96542"
       y2="11.2653"><stop
         offset="0"
         style="stop-color:#5CA2DA"
         id="stop9" /><stop
         offset="1"
         style="stop-color:#8DC8F4"
         id="stop11" /></linearGradient></defs><g
     id="Слой_x0020_1"><metadata
       id="CorelCorpID_0Corel-Layer" /><g
       id="_81456768"><path
         id="_82812648"
         class="fil0"
         d="M7.94132 13.8303c4.27099,-0.162426 6.71675,0.0649139 8.10432,0.46035l0 1.74984 -16.0658 0 0 -1.20899c1.08568,-0.438523 3.32932,-0.824888 7.96145,-1.0012z" /><g
         id="g17"><path
           id="_117078944"
           class="fil1"
           d="M7.9246 13.868c4.29707,-0.157608 6.74991,0.0915598 8.12104,0.504004l0 1.66849 -16.0658 0 0 -1.1676c1.07207,-0.441641 3.30919,-0.835093 7.94472,-1.00489z" /><path
           id="_111985272"
           class="fil2"
           d="M7.90787 13.9063c4.31351,-0.151655 6.78024,0.119906 8.13776,0.547091l0 1.58713 -16.0658 0 0 -1.12962c1.06442,-0.442208 3.30466,-0.841896 7.928,-1.00461z" /><path
           id="_51670720"
           class="fil3"
           d="M7.89058 13.9446c4.3189,-0.144852 6.80887,0.14882 8.15506,0.58791l0 1.50804 -16.0658 0 0 -1.0973c1.06272,-0.440507 3.31826,-0.844731 7.91071,-0.998654z" /><path
           id="_82831616"
           class="fil4"
           d="M7.87414 13.9826c4.30898,-0.136631 6.83438,0.178017 8.1715,0.625328l0 1.3887c-1.64524,0.111402 -4.68939,-0.0411027 -7.8954,0.0416696l-0.089292 0.00226773 -7.93537 0 -0.145702 -0.0164411 0 -1.05421c1.06612,-0.436539 3.35086,-0.843314 7.89427,-0.987315z" /><path
           id="_81669584"
           class="fil5"
           d="M7.85713 14.0208c4.28375,-0.127277 6.85961,0.206647 8.18851,0.65821l0 1.21522c-1.60386,0.115654 -4.68854,-0.0269293 -7.92403,0.0481894 -3.48863,0.0810715 -6.70938,0.147686 -8.14173,-0.0218269l0 -0.930622c1.07462,-0.429169 3.40585,-0.836227 7.87726,-0.969173z" /><path
           id="_112367464"
           class="fil6"
           d="M7.84069 14.0591c4.2401,-0.116505 6.88456,0.234427 8.20495,0.685423l0 1.04769c-1.5568,0.118206 -4.68514,-0.0130395 -7.95238,0.0541422 -3.47389,0.0717171 -6.70881,0.128977 -8.11339,-0.0286301l0 -0.813833c1.08681,-0.419247 3.48182,-0.824605 7.86082,-0.944795z" /><path
           id="_87770344"
           class="fil7"
           d="M7.82368 14.0971c4.17858,-0.104316 6.91347,0.261073 8.22195,0.706399l0 0.886684c-1.50209,0.119056 -4.67919,0.00113387 -7.98129,0.0603784 -3.45915,0.0620792 -6.70909,0.109418 -8.08447,-0.0345829l0 -0.705265c1.10184,-0.406491 3.58075,-0.80703 7.84381,-0.913613z" /><path
           id="_111259648"
           class="fil8"
           d="M7.80696 14.1354c4.0978,-0.0907094 6.94805,0.286018 8.23868,0.720006l0 0.734179c-1.43859,0.117639 -4.66927,0.0144568 -8.00992,0.0649139 -3.44441,0.0521579 -6.71136,0.089859 -8.05584,-0.0394019l0 -0.604351c1.11771,-0.391184 3.70066,-0.784069 7.82709,-0.875345z" /><path
           id="_83567312"
           class="fil9"
           d="M7.78995 14.1736c3.99773,-0.0759691 6.99256,0.308412 8.25569,0.725675l0 0.590745c-1.36433,0.11282 -4.65509,0.0269293 -8.03855,0.068599 -3.43108,0.0422366 -6.71618,0.0694494 -8.02721,-0.0436539l0 -0.51024c1.1333,-0.373042 3.84069,-0.756006 7.81008,-0.831125z" /><path
           id="_88324776"
           class="fil10"
           d="M7.77351 14.2116c3.87896,-0.0592446 7.05237,0.328821 8.27213,0.723691l0 0.456665c-1.2756,0.104032 -4.63412,0.0385515 -8.06661,0.0705832 -3.41748,0.0320317 -6.72355,0.0493232 -7.99915,-0.0459216l0 -0.423783c1.14691,-0.352633 4.00057,-0.723407 7.79364,-0.781234z" /><path
           id="_81752832"
           class="fil11"
           d="M7.75594 14.2499c3.74375,-0.0411027 7.13769,0.346113 8.2897,0.713202l0 0.33364c-1.16562,0.0904259 -4.60463,0.0479059 -8.0961,0.0700163 -3.40415,0.0215435 -6.73177,0.0280632 -7.96967,-0.047339l0 -0.344412c1.15796,-0.330239 4.17858,-0.685706 7.77606,-0.725108z" /><path
           id="_87276680"
           class="fil12"
           d="M7.73921 14.2881c3.59436,-0.02126 7.26015,0.361704 8.30643,0.694777l0 0.222521c-1.02445,0.0691659 -4.56041,0.0541422 -8.12473,0.0654808 -3.39196,0.0110552 -6.74424,0.0068032 -7.94104,-0.0470555l0 -0.271278c1.1642,-0.305861 4.37304,-0.644037 7.75934,-0.664446z" /></g><path
         id="_82271528"
         class="fil13"
         d="M7.72192 14.3264c3.43874,0 7.45092,0.375594 8.32372,0.668698l0 0.125009c-1.58713,0.0720006 -13.6625,0.0720006 -16.0658,0.00963787l0 -0.204946c1.16448,-0.279782 4.58281,-0.598398 7.74205,-0.598398z" /></g><path
       class="fil14"
       d="M1.24158 2.33038l13.5713 0c0.46035,0 0.837077,0.379562 0.837077,0.836794l0 10.6337c0,0.458082 -0.377578,0.837361 -0.837077,0.837361 -5.51371,0 -4.16696,0 -13.5713,0 -0.4595,0 -0.837077,-0.376727 -0.837077,-0.837361l0 -10.6337c0,-0.46035 0.376727,-0.836794 0.837077,-0.836794z"
       id="path32" /><g
       id="_81690344"><g
         id="g35"><path
           id="_116614416"
           class="fil15"
           d="M0.400539 7.24456c1.22514,-0.184253 2.47608,-0.0223939 3.66154,0.748352 0.697895,0.457799 1.32918,0.882432 1.89696,1.26568 3.05577,2.12799 3.9983,2.77741 6.4038,1.94798 0.86344,-0.284317 2.03784,-1.06045 3.29105,-1.72036l0 0.155907c-1.2396,0.657076 -2.4021,1.42442 -3.25703,1.70732 -2.45737,0.847282 -3.41067,0.19219 -6.50159,-1.96074 -0.561548,-0.379846 -1.18489,-0.799093 -1.89356,-1.2654 -1.14719,-0.74325 -2.3814,-0.884416 -3.60116,-0.689391l0 -0.189356z" /><path
           id="_112563752"
           class="fil16"
           d="M0.400539 7.45915l0.047339 -0.0068032c1.26341,-0.191057 2.55092,-0.0527248 3.7789,0.70725 0.698179,0.440224 1.3391,0.852101 1.92361,1.23138 3.00787,2.07186 3.97591,2.7244 6.35107,1.96074 0.839062,-0.245199 1.95989,-0.93544 3.15243,-1.52874l0 0.150804c-1.18121,0.592162 -2.29155,1.27702 -3.12295,1.52108 -2.42534,0.783502 -3.40103,0.124158 -6.44377,-1.97265 -0.576288,-0.374743 -1.21012,-0.781801 -1.91822,-1.23081 -1.16817,-0.717171 -2.4157,-0.843881 -3.65332,-0.660194l-0.115088 0.0175749 0 -0.189639z" /><path
           id="_82283544"
           class="fil17"
           d="M0.400539 7.67316c0.0666147,-0.0107717 0.133513,-0.0206931 0.200978,-0.0300475 1.26738,-0.171497 2.5546,-0.043087 3.7908,0.682588 0.697328,0.421232 1.34902,0.821203 1.9494,1.19708 2.96024,2.01573 3.95238,2.67167 6.29778,1.97378 0.813833,-0.206647 1.88165,-0.8144 3.01439,-1.34363l0 0.146269c-1.12281,0.529233 -2.18184,1.13358 -2.98944,1.34108 -2.39218,0.718021 -3.39196,0.0561264 -6.38481,-1.98398 -0.592446,-0.371058 -1.23648,-0.767061 -1.94231,-1.19538 -1.17951,-0.684856 -2.42818,-0.802495 -3.67146,-0.638367 -0.0887251,0.0124725 -0.17745,0.025512 -0.265325,0.0391184l0 -0.188505z" /><path
           id="_86568512"
           class="fil18"
           d="M0.400539 7.88236c0.118206,-0.0175749 0.236411,-0.0331656 0.35405,-0.047339 1.2722,-0.153639 2.55744,-0.0348664 3.80271,0.656793 0.696761,0.402239 1.36036,0.790589 1.97605,1.16221 2.91234,1.96131 3.92857,2.62093 6.24449,1.98795 0.787754,-0.172064 1.80313,-0.700163 2.87605,-1.16647l0 0.142867c-1.06612,0.46687 -2.07299,0.995252 -2.85593,1.16732 -2.35958,0.653391 -3.38318,-0.0113387 -6.32613,-1.99589 -0.608036,-0.366806 -1.26171,-0.750337 -1.96726,-1.16165 -1.18943,-0.651123 -2.4381,-0.758841 -3.68875,-0.612855 -0.138048,0.0161576 -0.276947,0.0342995 -0.415279,0.0555595l0 -0.188505z" /><path
           id="_87379696"
           class="fil19"
           d="M0.400539 8.08787c0.168379,-0.0235277 0.338176,-0.0442208 0.508256,-0.0617958 1.27702,-0.13408 2.56056,-0.025512 3.8132,0.632131 0.696194,0.384664 1.37,0.760825 2.00269,1.12763 2.86443,1.90518 3.90617,2.56821 6.19148,2.00043 0.760541,-0.137198 1.72319,-0.591028 2.73772,-0.996386l0 0.140033c-1.00857,0.407909 -1.96528,0.862873 -2.72128,1.00092 -2.32783,0.588194 -3.37496,-0.0802211 -6.26802,-2.00723 -0.623627,-0.362271 -1.28836,-0.734179 -1.9922,-1.1265 -1.20077,-0.619375 -2.45,-0.717454 -3.70633,-0.590461 -0.189072,0.0189923 -0.377578,0.0416696 -0.565516,0.0674651l0 -0.186238z" /><path
           id="_110285376"
           class="fil20"
           d="M0.400539 8.28772c0.219687,-0.0263624 0.440224,-0.0507406 0.661045,-0.0702998 1.28184,-0.115938 2.56424,-0.0164411 3.82538,0.606902 0.695911,0.365672 1.38105,0.73021 2.02877,1.09333 2.81624,1.84962 3.88293,2.51633 6.13819,2.01318 0.732478,-0.104599 1.64326,-0.487563 2.59996,-0.83481l0 0.137198c-0.953015,0.350365 -1.85898,0.73673 -2.58834,0.84303 -2.2941,0.52328 -3.36532,-0.147686 -6.20821,-2.01857 -0.639501,-0.358302 -1.31444,-0.719155 -2.01715,-1.0922 -1.21182,-0.585926 -2.46106,-0.675501 -3.72475,-0.56665 -0.239246,0.0206931 -0.476791,0.0450712 -0.714903,0.0720006l0 -0.18312z" /><path
           id="_50224600"
           class="fil21"
           d="M0.400539 8.47963c0.26986,-0.0269293 0.542555,-0.0507406 0.814967,-0.0714336 1.28637,-0.0960952 2.56679,-0.00708667 3.83672,0.582241 0.695344,0.34668 1.39126,0.700163 2.05542,1.05847 2.76805,1.79463 3.8594,2.46531 6.08461,2.02679 0.702998,-0.0731344 1.56247,-0.391184 2.46163,-0.682588l0 0.134363c-0.896889,0.296506 -1.75381,0.618525 -2.45341,0.694777 -2.26292,0.457515 -3.35738,-0.216285 -6.15066,-2.03047 -0.655942,-0.35405 -1.3408,-0.702998 -2.04124,-1.0579 -1.22316,-0.553611 -2.47353,-0.632414 -3.74233,-0.543689 -0.289703,0.0201261 -0.577989,0.0445043 -0.865708,0.0711502l0 -0.181702z" /><path
           id="_81253112"
           class="fil22"
           d="M0.400539 8.66416c0.322018,-0.0229608 0.644037,-0.0450712 0.968606,-0.06378 1.29062,-0.0785203 2.56991,0.000566934 3.84835,0.556162 0.694777,0.328255 1.40118,0.669549 2.08178,1.02417 2.7193,1.73964 3.83701,2.41344 6.03104,2.04039 0.673801,-0.0462051 1.4797,-0.300758 2.32358,-0.540004l0 0.132946c-0.842463,0.244065 -1.64864,0.504571 -2.31989,0.553611 -2.23032,0.393168 -3.34831,-0.284317 -6.09284,-2.04238 -0.670116,-0.349798 -1.36546,-0.687124 -2.06534,-1.02303 -1.23336,-0.520445 -2.4843,-0.590745 -3.76019,-0.519311 -0.339026,0.0184253 -0.676919,0.0391184 -1.01509,0.0598115l0 -0.178584z" /><path
           id="_112968952"
           class="fil23"
           d="M0.400539 8.83963c0.373042,-0.0147403 0.746368,-0.0311813 1.12168,-0.0484728 1.29516,-0.059528 2.57416,0.0102048 3.85997,0.5315 0.695061,0.31068 1.41166,0.639218 2.10843,0.989583 2.67224,1.68379 3.81348,2.36099 5.97803,2.05372 0.641769,-0.0189923 1.39749,-0.218269 2.18525,-0.407058l0 0.131812c-0.788888,0.195592 -1.54518,0.399972 -2.18638,0.422366 -2.19772,0.327971 -3.33952,-0.352349 -6.03246,-2.05315 -0.687124,-0.34668 -1.39267,-0.672383 -2.0917,-0.988449 -1.24414,-0.48813 -2.49507,-0.549075 -3.77748,-0.496917 -0.389483,0.0158741 -0.776416,0.0294805 -1.16533,0.0394019l0 -0.174332z" /><path
           id="_85640384"
           class="fil24"
           d="M0.400539 9.00404c0.425484,-0.000566934 0.848983,-0.00878747 1.27503,-0.02126 1.2997,-0.0408192 2.57671,0.0189923 3.87159,0.506272 0.69421,0.291404 1.42244,0.608887 2.13564,0.955 2.62377,1.62823 3.78967,2.3094 5.92361,2.06591 0.60917,0.00481894 1.31472,-0.140883 2.04748,-0.284601l0 0.131529c-0.735029,0.14967 -1.44228,0.302743 -2.0523,0.301609 -2.16455,0.263057 -3.33045,-0.420098 -5.97491,-2.06534 -0.702714,-0.342428 -1.41762,-0.655659 -2.11495,-0.953866 -1.25547,-0.454964 -2.50698,-0.505988 -3.79505,-0.47339 -0.43994,0.0104883 -0.875912,0.0147403 -1.31614,0.0104883l0 -0.172348z" /><path
           id="_85795936"
           class="fil25"
           d="M0.400539 9.15881c0.477642,0.0175749 0.951315,0.0218269 1.42952,0.0141733 1.30338,-0.0206931 2.5787,0.0283467 3.88123,0.482177 0.69421,0.273262 1.43321,0.577989 2.16228,0.920133 2.57586,1.57296 3.76727,2.25753 5.87116,2.08036 0.574871,0.0252285 1.23081,-0.0745518 1.90915,-0.174616l0 0.132379c-0.682305,0.106584 -1.34136,0.213451 -1.91879,0.19049 -2.13195,0.197293 -3.32166,-0.48813 -5.91567,-2.07668 -0.718021,-0.337892 -1.44455,-0.639501 -2.14017,-0.919566 -1.26625,-0.423216 -2.5186,-0.463752 -3.8132,-0.450145 -0.488697,0.00566934 -0.974275,-0.004252 -1.46552,-0.0291971l0 -0.169513z" /><path
           id="_83451920"
           class="fil26"
           d="M0.400539 9.3014c0.531217,0.04252 1.05421,0.06378 1.58203,0.0629296 1.30877,-0.00226773 2.58352,0.0374176 3.89483,0.457515 0.693643,0.25427 1.44228,0.547091 2.18751,0.885834 2.52881,1.51655 3.74431,2.20566 5.81787,2.09255 0.539721,0.0442208 1.14606,-0.0130395 1.7711,-0.0756856l0 0.133513c-0.63043,0.068032 -1.24158,0.133229 -1.78471,0.0915598 -2.09992,0.132662 -3.31259,-0.556445 -5.85727,-2.08943 -0.733896,-0.33279 -1.47034,-0.622777 -2.16455,-0.883849 -1.27787,-0.390334 -2.53051,-0.421799 -3.83134,-0.426334 -0.537453,-0.0017008 -1.07122,-0.0294805 -1.61548,-0.0816384l0 -0.166962z" /><path
           id="_114751664"
           class="fil27"
           d="M0.400539 9.43292c0.586209,0.072851 1.15825,0.115938 1.73595,0.123025 1.3133,0.0164411 2.58607,0.0462051 3.90589,0.432003 0.692509,0.235844 1.45305,0.517043 2.21416,0.850967 2.4809,1.46184 3.7205,2.15321 5.76401,2.10559 0.504287,0.0606619 1.06073,0.038835 1.63334,0.0119056l0 0.135781c-0.57969,0.0325987 -1.14209,0.0606619 -1.65063,0.00368507 -2.06817,0.0660478 -3.30437,-0.624761 -5.79888,-2.10134 -0.749203,-0.329388 -1.4967,-0.607186 -2.19006,-0.849267 -1.28751,-0.357735 -2.541,-0.379562 -3.84806,-0.40394 -0.586776,-0.00992134 -1.16845,-0.060095 -1.76571,-0.144001l0 -0.164411z" /><path
           id="_85856552"
           class="fil28"
           d="M0.400539 9.5517c0.641769,0.110552 1.26228,0.178584 1.88931,0.195592 1.31727,0.0357168 2.58947,0.0549926 3.91723,0.406775 0.692793,0.216852 1.46326,0.486146 2.24081,0.816668 2.433,1.40571 3.69811,2.10191 5.71101,2.11835 0.46687,0.0739848 0.974559,0.0836227 1.495,0.0858904l0 0.138332c-0.528666,0.00226773 -1.04543,-0.000566934 -1.51683,-0.072851 -2.03472,0.0025512 -3.29587,-0.692509 -5.74049,-2.11126 -0.765077,-0.325703 -1.52222,-0.592162 -2.21359,-0.816384 -1.29913,-0.324286 -2.5529,-0.336475 -3.86677,-0.379279 -0.634399,-0.0206931 -1.26313,-0.0958118 -1.91567,-0.218553l0 -0.163277z" /><path
           id="_86912728"
           class="fil29"
           d="M0.400539 9.65771c0.698462,0.155907 1.36688,0.252285 2.04295,0.280632 1.32181,0.0530083 2.5923,0.06378 3.92857,0.381546 0.691942,0.19871 1.47431,0.456382 2.26745,0.782085 2.38452,1.35072 3.67458,2.0506 5.65771,2.13337 0.427751,0.0830558 0.887535,0.117072 1.35667,0.145135l0 0.140883c-0.479342,-0.0238112 -0.94848,-0.0532918 -1.38275,-0.13493 -2.00269,-0.0632131 -3.28736,-0.760541 -5.68181,-2.1243 -0.780668,-0.321451 -1.54886,-0.575154 -2.23854,-0.780101 -1.31018,-0.292538 -2.56537,-0.295089 -3.88435,-0.356601 -0.682021,-0.0317483 -1.35724,-0.138048 -2.06591,-0.305861l0 -0.16186z" /><path
           id="_85597216"
           class="fil30"
           d="M0.400539 9.75154c0.756856,0.206364 1.47318,0.337892 2.19658,0.377578 1.32606,0.0737014 2.59599,0.0737014 3.93962,0.357452 0.691942,0.179718 1.48508,0.425484 2.29466,0.747218 2.33605,1.29601 3.65105,1.99787 5.60414,2.14613 0.388066,0.089292 0.799376,0.144285 1.21834,0.191624l0 0.144568c-0.430019,-0.0442208 -0.852101,-0.0943944 -1.24981,-0.18482 -1.96896,-0.12756 -3.27744,-0.828573 -5.62341,-2.13451 -0.795408,-0.317483 -1.57437,-0.560697 -2.26263,-0.746935 -1.3201,-0.258805 -2.57558,-0.252285 -3.9022,-0.332223 -0.727943,-0.0450712 -1.4488,-0.186805 -2.21529,-0.405924l0 -0.160159z" /><path
           id="_85204912"
           class="fil31"
           d="M0.400539 9.83261c0.818085,0.262774 1.57919,0.434838 2.35022,0.488413 1.33116,0.0918432 2.59882,0.0816384 3.95096,0.331656 0.691942,0.162143 1.49529,0.395436 2.32074,0.712636 2.28814,1.24045 3.62894,1.94487 5.55113,2.15888 0.346963,0.094111 0.710935,0.16186 1.08029,0.225073l0 0.14882c-0.381546,-0.0612288 -0.756856,-0.126993 -1.11516,-0.220821 -1.9375,-0.193324 -3.26951,-0.897172 -5.56474,-2.14811 -0.811849,-0.312097 -1.60045,-0.543122 -2.28758,-0.710368 -1.33201,-0.227057 -2.5872,-0.209765 -3.91978,-0.309546 -0.774148,-0.0581107 -1.54064,-0.239529 -2.3661,-0.516477l0 -0.160159z" /><path
           id="_81027192"
           class="fil32"
           d="M0.400539 9.90036c0.879881,0.327688 1.68606,0.543689 2.50386,0.611721 1.33541,0.111119 2.60109,0.0909928 3.96287,0.306711 0.690809,0.143151 1.50493,0.364538 2.34711,0.678336 2.23967,1.18432 3.60485,1.89356 5.49784,2.17192 0.304727,0.0938275 0.621643,0.170647 0.941677,0.242648l0 0.154773c-0.33364,-0.0720006 -0.664163,-0.148537 -0.981079,-0.243498 -1.90575,-0.258522 -3.26129,-0.965488 -5.50691,-2.15917 -0.827156,-0.308412 -1.62625,-0.528382 -2.31167,-0.676635 -1.3425,-0.193608 -2.59939,-0.167812 -3.9382,-0.286585 -0.818936,-0.0720006 -1.62908,-0.297924 -2.51548,-0.638084l0 -0.162143z" /><path
           id="_81361952"
           class="fil33"
           d="M0.400539 9.95649c0.944228,0.397137 1.7952,0.662745 2.65693,0.746935 1.3408,0.129544 2.60534,0.100064 3.97449,0.282049 0.691092,0.124158 1.51598,0.333924 2.37347,0.642903 2.1929,1.12933 3.58217,1.84197 5.44426,2.18553 0.262774,0.0909928 0.532634,0.170647 0.804195,0.2469l0 0.158174 0 0.00141733c-0.287152,-0.0773864 -0.571469,-0.158458 -0.847849,-0.252569 -1.8723,-0.323152 -3.25136,-1.03267 -5.44738,-2.16965 -0.843881,-0.304443 -1.65289,-0.512508 -2.33718,-0.642903 -1.35384,-0.160726 -2.61016,-0.125009 -3.95465,-0.26249 -0.864007,-0.0875912 -1.71724,-0.363121 -2.66629,-0.773014l0 -0.163277z" /><path
           id="_86643528"
           class="fil34"
           d="M0.400539 9.99957c1.01113,0.474807 1.90405,0.794557 2.81114,0.894621 1.34392,0.148537 2.60789,0.108851 3.98526,0.257104 0.690242,0.106017 1.5259,0.30416 2.4004,0.608887 2.14443,1.07377 3.55864,1.79009 5.39069,2.19829 0.21912,0.0839062 0.442208,0.160726 0.665864,0.236978l0 0.0235277c0,0.0479059 -0.00396854,0.093544 -0.0116221,0.137765 -0.236411,-0.077103 -0.472256,-0.156474 -0.70158,-0.243215 -1.84027,-0.38835 -3.24371,-1.10042 -5.38927,-2.18213 -0.858621,-0.300758 -1.67982,-0.495783 -2.36156,-0.608036 -1.36518,-0.12756 -2.62207,-0.0824888 -3.97364,-0.239246 -0.90681,-0.104599 -1.802,-0.43257 -2.81568,-0.918432l0 -0.166112z" /><path
           id="_88795728"
           class="fil35"
           d="M0.400539 10.0316c1.07887,0.557296 2.0146,0.936291 2.96421,1.05365 1.34902,0.167812 2.6113,0.117639 3.99717,0.232159 0.689391,0.0875912 1.53639,0.272979 2.42619,0.574587 2.0968,1.01821 3.53625,1.73793 5.33796,2.21246 0.172915,0.0714336 0.347247,0.141166 0.522429,0.210049 -0.00623627,0.0541422 -0.0187088,0.106867 -0.0365672,0.157608 -0.180852,-0.0691659 -0.360286,-0.139466 -0.538303,-0.212884 -1.8071,-0.45383 -3.23351,-1.16873 -5.33031,-2.19347 -0.873928,-0.297357 -1.7042,-0.481043 -2.38622,-0.57317 -1.3751,-0.0958118 -2.63256,-0.0411027 -3.99008,-0.216285 -0.949047,-0.121891 -1.88619,-0.507689 -2.96648,-1.07434l0 -0.170364z" /><path
           id="_112733352"
           class="fil36"
           d="M0.400539 10.0523c1.15002,0.645454 2.12628,1.08795 3.11785,1.22458 1.35327,0.185954 2.61356,0.126993 4.0085,0.207214 0.688824,0.068599 1.54688,0.242931 2.45397,0.539721 2.04833,0.962086 3.51074,1.68634 5.2841,2.22493 0.120757,0.0549926 0.243215,0.109135 0.365389,0.16356 -0.0136064,0.0532918 -0.0331656,0.105166 -0.0566934,0.153072 -0.122458,-0.0524414 -0.244632,-0.1063 -0.365672,-0.161293 -1.77535,-0.518744 -3.225,-1.23762 -5.27192,-2.20424 -0.890086,-0.293105 -1.73085,-0.465169 -2.41117,-0.539721 -1.38559,-0.0617958 -2.64446,0.0025512 -4.0085,-0.191907 -0.99015,-0.1406 -1.96726,-0.588477 -3.11587,-1.24215l0 -0.173765z" /><path
           id="_112629192"
           class="fil37"
           d="M0.400539 10.0631c1.22203,0.738714 2.2391,1.24895 3.27149,1.40514 1.35809,0.204946 2.61725,0.135781 4.01956,0.181986 0.689108,0.0501736 1.55765,0.212317 2.48033,0.504854 2.00071,0.907661 3.48948,1.63447 5.23081,2.23825l0.202679 0.0994968c-0.0192757,0.0521579 -0.0442208,0.102898 -0.0745518,0.149387l-0.188789 -0.0915598c-1.74219,-0.584225 -3.2165,-1.30593 -5.21352,-2.21784 -0.906527,-0.287719 -1.75664,-0.448444 -2.4364,-0.504004 -1.39636,-0.0283467 -2.65495,0.0442208 -4.02608,-0.168663 -1.02983,-0.160159 -2.04663,-0.674084 -3.26554,-1.41847l0 -0.178584z" /><path
           id="_84435472"
           class="fil38"
           d="M0.400539 10.0631c1.29771,0.837361 2.35306,1.41989 3.42513,1.5962 1.36206,0.224506 2.62065,0.145702 4.03203,0.157608 0.687974,0.0311813 1.56729,0.181419 2.50556,0.470271 1.95252,0.851818 3.46538,1.58231 5.1778,2.25044l0.0368507 0.0201261c-0.0243781,0.0521579 -0.0538587,0.100347 -0.0887251,0.144852l-0.0136064 -0.00651974c-1.70959,-0.649422 -3.20714,-1.37396 -5.15484,-2.22862 -0.921551,-0.284317 -1.78301,-0.433137 -2.46021,-0.469704 -1.40741,0.00283467 -2.66686,0.0870243 -4.04394,-0.145985 -1.06952,-0.180285 -2.1243,-0.763376 -3.41606,-1.60499l0 -0.183686z" /><path
           id="_81649376"
           class="fil39"
           d="M0.400539 10.0529c1.37566,0.941677 2.46758,1.60102 3.57877,1.79775 1.36631,0.242364 2.62377,0.154206 4.04337,0.131812 0.687124,0.012756 1.57749,0.151938 2.53193,0.435972 1.85387,0.775565 3.35908,1.49104 4.98873,2.20452 -0.0311813,0.0524414 -0.068599,0.100347 -0.109702,0.142867 -1.60867,-0.689675 -3.0895,-1.39466 -4.91985,-2.1654 -0.937708,-0.279215 -1.8088,-0.416413 -2.48544,-0.434838 -1.41875,0.0360003 -2.67876,0.128977 -4.06208,-0.12104 -1.10807,-0.200978 -2.1997,-0.859755 -3.56573,-1.80143l0 -0.190206z" /><path
           id="_86006816"
           class="fil40"
           d="M0.400539 10.0344c1.45475,1.04911 2.58465,1.78839 3.73127,2.0078 1.37226,0.261073 2.62717,0.162143 4.05499,0.106017 0.687974,-0.00453547 1.5877,0.121891 2.55885,0.401956 1.7402,0.693643 3.22273,1.38587 4.76168,2.12799 -0.0365672,0.0501736 -0.0785203,0.0972291 -0.125009,0.137765 -1.5123,-0.716037 -2.96506,-1.39352 -4.67692,-2.08121 -0.952732,-0.27553 -1.83431,-0.401389 -2.50982,-0.399972 -1.42896,0.0683155 -2.68925,0.171214 -4.07909,-0.0994968 -1.14521,-0.222238 -2.2734,-0.957267 -3.71597,-2.00383l0 -0.197009z" /><path
           id="_112302896"
           class="fil41"
           d="M0.400539 10.0067c1.53639,1.16136 2.70116,1.98512 3.88605,2.22635 1.3751,0.280632 2.62915,0.171781 4.06576,0.0822054 0.686557,-0.0243781 1.59847,0.0901424 2.58522,0.366806 1.6305,0.617674 3.08072,1.27985 4.53717,2.03756 -0.0405358,0.0504571 -0.0867408,0.0946779 -0.138615,0.133229 -1.42612,-0.728226 -2.84147,-1.37453 -4.43796,-1.98455 -0.968606,-0.271278 -1.86039,-0.384098 -2.53363,-0.365105 -1.44115,0.101481 -2.70229,0.213167 -4.09751,-0.0756856 -1.18121,-0.243498 -2.3454,-1.06158 -3.86649,-2.21614l0 -0.204663z" /><path
           id="_81596352"
           class="fil42"
           d="M0.400539 9.97094c1.6203,1.27815 2.81936,2.1895 4.03912,2.45426 1.38048,0.298207 2.63312,0.180568 4.07682,0.055843 0.687124,-0.0419531 1.60981,0.0598115 2.61271,0.332223 1.52335,0.544823 2.93558,1.17525 4.31918,1.93835 -0.0445043,0.0484728 -0.0952448,0.0915598 -0.150237,0.12756 -1.34902,-0.729927 -2.72185,-1.34136 -4.20665,-1.8774 -0.985331,-0.266742 -1.88789,-0.368223 -2.55942,-0.330239 -1.4522,0.133229 -2.71334,0.255687 -4.11594,-0.0521579 -1.21636,-0.267026 -2.41372,-1.16788 -4.01559,-2.43583l0 -0.2126z" /><path
           id="_81959128"
           class="fil43"
           d="M0.400539 9.92842c1.7059,1.39636 2.93927,2.39955 4.19219,2.68755 1.3853,0.317766 2.63681,0.188789 4.08873,0.0320317 0.68684,-0.0615123 1.61973,0.0294805 2.63908,0.296506 1.42045,0.476791 2.78931,1.07321 4.10573,1.83006 -0.0476224,0.0479059 -0.101481,0.089859 -0.159875,0.124158 -1.27815,-0.721423 -2.60393,-1.29714 -3.98356,-1.76288 -0.999504,-0.262207 -1.91227,-0.352916 -2.5838,-0.295939 -1.46127,0.166678 -2.72355,0.297924 -4.13238,-0.0283467 -1.25094,-0.290837 -2.48204,-1.27872 -4.16611,-2.66175l0 -0.221388z" /><path
           id="_82230664"
           class="fil44"
           d="M0.400539 9.87853c1.79463,1.51938 3.05917,2.6164 4.3464,2.92878 1.3887,0.336475 2.63908,0.19786 4.10035,0.00651974 0.685706,-0.0790872 1.62937,-0.000566934 2.66544,0.26249 1.32181,0.411594 2.64219,0.972008 3.89597,1.71554 -0.0496067,0.0470555 -0.105733,0.0884416 -0.166678,0.121607 -1.21437,-0.706116 -2.48742,-1.24272 -3.76614,-1.64326 -1.01623,-0.258238 -1.93863,-0.337609 -2.60818,-0.26249 -1.47346,0.198994 -2.73631,0.340727 -4.15137,-0.00481894 -1.28354,-0.313231 -2.54723,-1.39352 -4.31578,-2.89448l0 -0.229892z" /><path
           id="_84815792"
           class="fil45"
           d="M0.400539 9.82184c1.88449,1.64467 3.18106,2.83949 4.49947,3.17653 1.39324,0.355467 2.64276,0.207214 4.11225,-0.0184253 0.684856,-0.0980795 1.64014,-0.0308979 2.6918,0.228191 1.22798,0.352066 2.49564,0.871944 3.69159,1.59478 -0.0518744,0.0479059 -0.110269,0.0887251 -0.173198,0.12019 -1.15399,-0.682305 -2.37262,-1.17865 -3.55439,-1.51882 -1.03182,-0.255404 -1.96471,-0.321451 -2.63256,-0.227624 -1.48452,0.232443 -2.74736,0.382964 -4.16866,0.0184253 -1.31642,-0.337609 -2.6113,-1.51116 -4.4663,-3.13401l0 -0.239246z" /><path
           id="_111320648"
           class="fil46"
           d="M0.400539 9.75919c1.97661,1.77365 3.30324,3.06881 4.65311,3.42995 1.39806,0.37531 2.64616,0.216852 4.12359,-0.043087 0.684856,-0.116505 1.64978,-0.0615123 2.71788,0.193608 1.13784,0.295656 2.34994,0.776132 3.49174,1.47204 -0.0544256,0.047339 -0.113954,0.0875912 -0.178868,0.118206 -1.09758,-0.652257 -2.25696,-1.10779 -3.34718,-1.39211 -1.04741,-0.250585 -1.99107,-0.305577 -2.65807,-0.19219 -1.49472,0.264191 -2.75813,0.42435 -4.18624,0.0408192 -1.34845,-0.361704 -2.67366,-1.63078 -4.61597,-3.37779l0 -0.249451z" /></g><g
         id="g69"><path
           id="_86543856"
           class="fil47"
           d="M15.638 14.3763c-0.232159,0.0365672 -0.459216,0.072284 -0.68032,0.1063 -1.10836,0.20523 -2.05202,0.378995 -2.87889,0.510524l0.815534 -0.00226773c0.625611,-0.108001 1.31359,-0.234427 2.07866,-0.377011l0.62306 -0.0980795c0.0181419,-0.0447878 0.0325987,-0.0915598 0.0419531,-0.139466zm-15.2375 -3.44044l0 -0.183403c1.96783,1.11998 3.62129,2.77939 4.97711,3.48806 0.655659,0.344412 1.24555,0.593863 1.83233,0.760541l-0.50287 0.00113387c-0.462901,-0.16186 -0.936858,-0.374743 -1.45135,-0.644604 -1.32918,-0.693927 -2.94182,-2.30487 -4.85522,-3.42173z" /><path
           id="_52464016"
           class="fil48"
           d="M15.6477 14.3219c-0.341861,0.0419531 -0.6721,0.0816384 -0.992417,0.118489 -1.38275,0.242081 -2.50783,0.432854 -3.46992,0.554745l0.978527 -0.00198427c0.735596,-0.11282 1.56048,-0.254553 2.5033,-0.420098 0.305861,-0.0360003 0.622777,-0.0742683 0.949614,-0.114521 0.0141733,-0.0439374 0.0249451,-0.089292 0.0308979,-0.136631zm-15.2471 -3.32648l0 -0.183686c1.86975,1.0698 3.46056,2.59656 4.78237,3.27914 0.8847,0.46035 1.65063,0.752888 2.44944,0.909645l-0.649139 0.00113387c-0.613989,-0.174332 -1.23053,-0.432003 -1.91879,-0.791439 -1.29431,-0.667564 -2.84601,-2.14981 -4.66388,-3.2148z" /><path
           id="_81105600"
           class="fil49"
           d="M15.6511 14.2907c-0.447878,0.0408192 -0.881865,0.0773864 -1.29913,0.108568 -1.95819,0.320884 -3.39848,0.538303 -4.5916,0.597548l1.53242 -0.00226773c0.873645,-0.108284 1.87513,-0.266742 3.06768,-0.462618 0.406491,-0.0320317 0.827723,-0.0674651 1.26625,-0.108284 0.0119056,-0.0433704 0.0201261,-0.0875912 0.0243781,-0.132946zm-15.2505 -3.24031l0 -0.183686c1.77479,1.01708 3.30239,2.41826 4.58876,3.07391 1.29034,0.667281 2.33293,0.988165 3.59039,1.0579l-1.18489 0.0025512c-0.82177,-0.164978 -1.61009,-0.46687 -2.52144,-0.937425 -1.25746,-0.642336 -2.74793,-2.00326 -4.47282,-3.01325z" /><path
           id="_114949024"
           class="fil50"
           d="M15.6516 14.2788c-0.552477,0.0337325 -1.08738,0.0592446 -1.6013,0.0790872 -4.87364,0.739848 -6.51889,0.83566 -9.25604,-0.567784 -1.2481,-0.628162 -2.71306,-1.91113 -4.39374,-2.87379l0 0.183686c1.63334,0.955 3.06116,2.2014 4.28148,2.81539 1.26738,0.65084 2.30203,0.98448 3.51782,1.08426l1.82184 -0.0034016c1.08483,-0.072284 2.37318,-0.251719 4.03203,-0.505138 0.505421,-0.0201261 1.02983,-0.0462051 1.57664,-0.0805046 0.0113387,-0.04252 0.0181419,-0.0870243 0.02126,-0.131812z" /><path
           id="_115766720"
           class="fil51"
           d="M15.6511 14.2864c-0.655375,0.02126 -1.29176,0.0289136 -1.90348,0.0303309 -4.76309,0.664163 -6.42648,0.70725 -9.14662,-0.676919 -1.20842,-0.600383 -2.61158,-1.77195 -4.20041,-2.67876l0 0.182553c1.54461,0.89944 2.91035,2.03728 4.08986,2.62462 2.76805,1.4094 4.44278,1.35979 9.25661,0.682588 0.603501,-0.0017008 1.22968,-0.0113387 1.88222,-0.0342995 0.0104883,-0.04252 0.0184253,-0.085607 0.0218269,-0.130111z" /><path
           id="_82363584"
           class="fil52"
           d="M15.6485 14.3114c-0.755156,0.00538587 -1.49217,-0.0113387 -2.20282,-0.0365672 -4.65254,0.589044 -6.3352,0.579406 -9.03976,-0.78492 -1.1659,-0.57317 -2.50443,-1.63929 -4.00539,-2.48969l0 0.18312c1.45844,0.84218 2.76012,1.87768 3.89852,2.43781 2.74906,1.38814 4.44022,1.39239 9.1418,0.788321 0.700446,0.0240947 1.42669,0.038268 2.18241,0.0294805 0.0116221,-0.0413862 0.0206931,-0.0839062 0.0252285,-0.12756z" /><path
           id="_111581064"
           class="fil53"
           d="M15.6428 14.3545c-0.8504,-0.0147403 -1.68804,-0.0620792 -2.49989,-0.121324 -4.54312,0.514209 -6.24307,0.451279 -8.93147,-0.89292 -1.12196,-0.545107 -2.397,-1.51258 -3.81093,-2.30629l0 0.182553c1.3734,0.785487 2.61243,1.72433 3.70718,2.25696 2.72979,1.36744 4.43852,1.42357 9.02643,0.895188 0.799376,0.0561264 1.62398,0.101198 2.47552,0.111119 0.0147403,-0.0408192 0.0252285,-0.0822054 0.0331656,-0.125292z" /><path
           id="_85658736"
           class="fil54"
           d="M15.6298 14.4143c-0.937992,-0.0374176 -1.87513,-0.123025 -2.78931,-0.221671 -4.432,0.438523 -6.15066,0.322018 -8.82347,-1.00291 -1.07717,-0.517043 -2.28673,-1.39154 -3.61647,-2.1294l0 0.183403c1.29062,0.727943 2.46673,1.57778 3.51612,2.08263 2.71051,1.34675 4.43569,1.45418 8.91021,1.00149 0.89944,0.0952448 1.81957,0.176883 2.76153,0.207498 0.0164411,-0.038835 0.0306144,-0.0799376 0.0413862,-0.12104z" /><path
           id="_114949080"
           class="fil55"
           d="M15.606 14.4903l-0.0164411 -0.00226773c-1.01113,-0.0615123 -2.03983,-0.191907 -3.05152,-0.338176 -4.3223,0.364255 -6.05967,0.195592 -8.71547,-1.11034 -1.02983,-0.488413 -2.17504,-1.27702 -3.42201,-1.95876l0 0.18312c1.20955,0.672383 2.32244,1.43831 3.3245,1.9151 2.69123,1.32577 4.43399,1.48565 8.79569,1.1075 0.998087,0.141733 2.01091,0.267309 3.03224,0.319184 0.0206931,-0.0360003 0.038268,-0.0751187 0.0530083,-0.115371z" /><path
           id="_87350688"
           class="fil56"
           d="M15.5564 14.5985c-0.0943944,-0.0164411 -0.189639,-0.0317483 -0.286018,-0.0462051 -0.990433,-0.0938275 -2.01517,-0.261073 -3.03508,-0.443059 -4.21118,0.288286 -5.96726,0.0660478 -8.6069,-1.21919 -0.981079,-0.460917 -2.0608,-1.1693 -3.22784,-1.79576l0 0.183686c1.13103,0.616257 2.17986,1.30593 3.13373,1.75324 2.67224,1.30536 4.43087,1.51825 8.68004,1.21494 1.00546,0.17745 2.01545,0.33931 3.01552,0.423216 0.0836227,0.0141733 0.166962,0.0289136 0.250301,0.0450712 0.0289136,-0.0368507 0.0544256,-0.0751187 0.0762526,-0.115938z" /><path
           id="_84619992"
           class="fil57"
           d="M15.4708 14.725c-0.17093,-0.0391184 -0.343278,-0.0751187 -0.518177,-0.108851 -0.971441,-0.124442 -1.9922,-0.329672 -3.01977,-0.548225 -4.1012,0.212033 -5.87457,-0.0615123 -8.49919,-1.32861 -0.930055,-0.431153 -1.94572,-1.06612 -3.03309,-1.63872l0 0.18397c1.05365,0.562682 2.03813,1.17951 2.94153,1.59904 2.65353,1.28467 4.42945,1.55 8.56523,1.32152 1.01283,0.213734 2.01857,0.412444 2.99851,0.526965 0.152505,0.0320317 0.303026,0.0660478 0.45383,0.102898 0.0402523,-0.0325987 0.0773864,-0.0697328 0.111119,-0.109985z" /><path
           id="_85143032"
           class="fil58"
           d="M15.329 14.8579c-0.228191,-0.06378 -0.460067,-0.122741 -0.695061,-0.17745 -0.950748,-0.156474 -1.96839,-0.399405 -3.00361,-0.653958 -3.9915,0.137765 -5.78301,-0.19049 -8.3909,-1.43718 -0.87818,-0.40309 -1.82921,-0.96974 -2.83892,-1.4899l0 0.185104c0.977394,0.511091 1.89866,1.06073 2.75076,1.45248 2.63341,1.26228 4.4269,1.58033 8.44986,1.42726 1.01935,0.250018 2.02169,0.485579 2.98037,0.630997 0.194458,0.0484728 0.385798,0.101198 0.575438,0.157324 0.0615123,-0.0243781 0.118773,-0.0561264 0.172064,-0.0946779z" /><path
           id="_85962656"
           class="fil59"
           d="M15.0867 14.9756c-0.252852,-0.0822054 -0.509957,-0.159592 -0.77188,-0.231025 -0.930622,-0.187372 -1.94402,-0.467437 -2.98717,-0.759974 -3.88066,0.0626462 -5.69145,-0.31805 -8.28148,-1.54546 -0.825455,-0.374176 -1.71129,-0.87818 -2.6456,-1.34788l0 0.185954c0.903692,0.4612 1.75976,0.94933 2.55857,1.31273 2.61555,1.24158 4.42463,1.61151 8.33534,1.53356 1.02672,0.286018 2.02509,0.557012 2.96308,0.733896 0.141733,0.0419531 0.282616,0.085607 0.422082,0.131245l0.35405 -0.000566934c0.0181419,-0.0034016 0.0351499,-0.00793707 0.0530083,-0.0124725z" /><path
           id="_113189520"
           class="fil60"
           d="M14.5365 14.9886c-0.177734,-0.0620792 -0.357452,-0.122174 -0.539437,-0.180285 -0.911346,-0.217986 -1.92134,-0.536603 -2.97187,-0.864574 -3.76982,-0.0136064 -5.59904,-0.446744 -8.17462,-1.6546 -0.770463,-0.345829 -1.59082,-0.792006 -2.45,-1.21324l0 0.186805c0.830274,0.412444 1.62228,0.844448 2.3678,1.17894 2.59627,1.22146 4.42265,1.64467 8.21912,1.64099 1.03465,0.321451 2.02849,0.63043 2.94579,0.837928l0.198994 0.0691659 0.404224 -0.00113387z" /><path
           id="_85971728"
           class="fil61"
           d="M13.9928 14.9897c-0.104032,-0.0399688 -0.207781,-0.0779534 -0.314365,-0.116505 -0.891787,-0.250868 -1.89753,-0.605769 -2.95599,-0.972008 -3.65956,-0.0878747 -5.50691,-0.57402 -8.06576,-1.76175 -0.714336,-0.317199 -1.46892,-0.710651 -2.25611,-1.08596l0 0.187938c0.75799,0.366239 1.48622,0.746935 2.17646,1.05308 2.577,1.20077 4.41981,1.67529 8.10432,1.74672 1.04117,0.358019 2.03161,0.703848 2.92736,0.94196l0.0195592 0.00651974 0.364538 0z" /><path
           id="_85423808"
           class="fil62"
           d="M13.4893 14.9903l-0.128127 -0.0527248c-0.872794,-0.281766 -1.87513,-0.675501 -2.94125,-1.07774 -3.549,-0.162426 -5.41478,-0.702147 -7.9572,-1.87088 -0.65821,-0.288569 -1.34788,-0.632414 -2.06222,-0.964921l0 0.188789c0.68769,0.323436 1.35157,0.656226 1.9854,0.93459 2.55659,1.17922 4.4167,1.7059 7.98781,1.85387 0.980512,0.36794 1.90546,0.724825 2.73687,0.989583l0.378712 -0.000566934z" /><path
           id="_81066000"
           class="fil63"
           d="M13.0148 14.9909c-0.847566,-0.312664 -1.83545,-0.737864 -2.89675,-1.17299 -3.4393,-0.237545 -5.32379,-0.830274 -7.85033,-1.97917 -0.598965,-0.259939 -1.22316,-0.56013 -1.8672,-0.8504l0 0.190206c0.617958,0.282616 1.21806,0.570902 1.79406,0.822054 2.53816,1.15768 4.415,1.73822 7.87329,1.95847 0.925236,0.377011 1.79406,0.745234 2.56991,1.03239l0.377011 -0.000566934z" /><path
           id="_85212376"
           class="fil64"
           d="M12.5479 14.9928c-0.795408,-0.337042 -1.72716,-0.773297 -2.73234,-1.21636 -3.32903,-0.313231 -5.23195,-0.958685 -7.74148,-2.0883 -0.540288,-0.231309 -1.09985,-0.489831 -1.67359,-0.7424l0 0.191624c0.549642,0.244348 1.08568,0.492665 1.60187,0.71547 2.52002,1.13784 4.41329,1.7694 7.75934,2.06562 0.881582,0.387499 1.7059,0.766778 2.43696,1.07434l0.349231 0z" /><path
           id="_85700352"
           class="fil65"
           d="M12.1137 14.9931c-0.754022,-0.358019 -1.63929,-0.805329 -2.60081,-1.25803 -3.21877,-0.388916 -5.13954,-1.08681 -7.63319,-2.19658 -0.480476,-0.203813 -0.973992,-0.424917 -1.47913,-0.641769l0 0.193891c0.482177,0.208632 0.953015,0.419531 1.41166,0.614556 2.49933,1.11629 4.41046,1.80058 7.64226,2.17249 0.849267,0.397987 1.63702,0.790022 2.3318,1.11601l0.327404 -0.000566934z" /><path
           id="_85856432"
           class="fil66"
           d="M11.7018 14.9937c-0.719155,-0.376727 -1.56729,-0.836511 -2.49082,-1.30055 -3.1085,-0.463752 -5.04854,-1.21437 -7.52633,-2.30459 -0.418397,-0.175749 -0.847566,-0.361704 -1.2841,-0.545107l0 0.194458c0.414145,0.175466 0.822621,0.353483 1.22032,0.520729 2.48062,1.09503 4.40791,1.83205 7.52661,2.27737 0.821203,0.410176 1.57806,0.814967 2.24336,1.15853l0.310963 -0.0008504z" /><path
           id="_83485008"
           class="fil67"
           d="M11.3064 14.9945c-0.688541,-0.396003 -1.50379,-0.867408 -2.39756,-1.34278 -2.99908,-0.53887 -4.95727,-1.34278 -7.41804,-2.41344 -0.357452,-0.148253 -0.720856,-0.302459 -1.09021,-0.453263l0 0.195592c0.347814,0.143718 0.691376,0.289703 1.0287,0.430303 2.46134,1.07434 4.40621,1.86436 7.41237,2.38452 0.796542,0.422649 1.52874,0.839629 2.1671,1.19963l0.29764 -0.000566934z" /><path
           id="_84090632"
           class="fil68"
           d="M10.9259 14.9951c-0.662462,-0.413862 -1.4522,-0.897739 -2.31961,-1.38474 -2.88853,-0.613989 -4.86457,-1.47091 -7.31061,-2.522 -0.294239,-0.121324 -0.592729,-0.244915 -0.895188,-0.365956l0 0.197009c0.282616,0.115088 0.561831,0.231025 0.837361,0.343845 2.44235,1.05365 4.40366,1.89498 7.297,2.49196 0.775849,0.434271 1.48792,0.864007 2.10304,1.24045l0.288002 -0.000566934z" /><path
           id="_82142896"
           class="fil69"
           d="M10.5555 14.9957c-0.640635,-0.43087 -1.40543,-0.926653 -2.25158,-1.4264 -2.77797,-0.689958 -4.77245,-1.59932 -7.20204,-2.63114 -0.231592,-0.0946779 -0.464886,-0.189072 -0.701297,-0.283183l0 0.199277c0.217419,0.0870243 0.43257,0.175182 0.645737,0.261923 2.42364,1.0321 4.40167,1.92644 7.18191,2.59769 0.759974,0.446744 1.45192,0.890653 2.04833,1.2824l0.278931 -0.000566934z" /><path
           id="_82467344"
           class="fil70"
           d="M10.1937 14.9962c-0.620792,-0.446744 -1.36518,-0.9567 -2.19233,-1.46864 -2.66771,-0.765077 -4.68117,-1.72716 -7.09376,-2.73942 -0.167812,-0.068032 -0.337042,-0.135497 -0.507122,-0.202395l0 0.200978c0.152222,0.0603784 0.304443,0.121324 0.454964,0.181986 2.40351,1.01198 4.39912,1.95791 7.06654,2.70427 0.7441,0.459783 1.42017,0.916732 1.99901,1.32379l0.272695 -0.000566934z" /><path
           id="_87796544"
           class="fil71"
           d="M9.8397 14.9968c-0.60265,-0.462618 -1.33031,-0.986464 -2.14102,-1.51116 -2.55772,-0.839062 -4.58876,-1.85557 -6.98604,-2.84827l-0.312097 -0.123592 0 0.203246 0.263624 0.104032c2.38509,0.991283 4.396,1.98994 6.95117,2.81114 0.732195,0.47339 1.39352,0.943094 1.95535,1.36518l0.26901 -0.000566934z" /><path
           id="_85206672"
           class="fil72"
           d="M9.4899 14.9974c-0.586493,-0.478492 -1.29714,-1.01453 -2.09369,-1.55311 -2.44717,-0.915314 -4.4972,-1.98313 -6.87747,-2.95713l-0.118206 -0.0459216 0 0.20523 0.0720006 0.0274963c2.36553,0.96974 4.39487,2.02112 6.83552,2.91716 0.720856,0.486146 1.37028,0.96974 1.91879,1.40685l0.263057 -0.000566934z" /><path
           id="_82871512"
           class="fil73"
           d="M9.14662 14.9979c-0.572036,-0.494083 -1.26823,-1.04429 -2.05315,-1.59478 -2.3111,-0.979945 -4.36,-2.08802 -6.69293,-3.0348l0 0.206364c2.29636,0.938275 4.3121,2.02083 6.60137,2.9747 0.710935,0.500035 1.34902,0.996386 1.88505,1.44908l0.259656 -0.000566934z" /><path
           id="_81105648"
           class="fil74"
           d="M8.80731 14.9985c-0.558997,-0.50939 -1.24329,-1.07292 -2.0163,-1.6373 -2.13989,-1.02417 -4.15137,-2.14925 -6.39048,-3.06428l0 0.208632c2.20169,0.905393 4.17717,2.00439 6.29466,3.0039 0.703281,0.512225 1.33031,1.02275 1.85501,1.48905l0.257104 0z" /><path
           id="_81105544"
           class="fil75"
           d="M8.47169 14.9985c-0.546807,-0.52413 -1.22032,-1.10155 -1.98342,-1.67869 -1.97435,-1.06442 -3.93905,-2.20367 -6.08773,-3.09489l0 0.210332c2.10984,0.879881 4.03912,1.99447 5.98795,3.03281 0.695061,0.525831 1.31359,1.05024 1.82723,1.53157l0.255971 -0.00113387z" /><path
           id="_84729640"
           class="fil76"
           d="M8.13947 14.9996c-0.535469,-0.539437 -1.19906,-1.13103 -1.95365,-1.72121 -1.81362,-1.09928 -3.7239,-2.25158 -5.78527,-3.12437l0 0.2126c2.02169,0.859755 3.89427,1.98625 5.68209,3.06116 0.688257,0.53887 1.29799,1.07604 1.802,1.57182l0.254837 0z" /><path
           id="_87297592"
           class="fil77"
           d="M7.80923 14.9996c-0.525264,-0.553611 -1.17894,-1.15881 -1.92616,-1.7626 -1.65856,-1.1299 -3.50535,-2.2924 -5.48253,-3.15158l0 0.214584c1.93551,0.845581 3.74346,1.98257 5.3751,3.08724 0.682588,0.551059 1.28552,1.10297 1.78074,1.61321l0.252852 -0.0008504z" /><path
           id="_84085696"
           class="fil78"
           d="M7.48239 15.0011c-0.51591,-0.569768 -1.16165,-1.18858 -1.90093,-1.80597 -1.51003,-1.15541 -3.28821,-2.32499 -5.18092,-3.17568l0 0.216002c1.85019,0.837928 3.58812,1.98115 5.06782,3.1102 0.67862,0.565516 1.27362,1.13103 1.76118,1.65545l0.252852 0z" /></g><path
         id="_85142976"
         class="fil79"
         d="M4.25229 2.25469c-0.313231,-0.189072 -0.532918,11.9793 0.251152,12.2302 0.784069,0.252569 10.2558,-5.72149 10.7264,-6.22493 0.470271,-0.50287 -9.37765,-6.66601 -10.9775,-6.00524z" /><g
         id="g104"><path
           id="_87351456"
           class="fil80"
           d="M15.5493 6.78024c-1.53356,0.0697328 -2.74736,-0.208632 -4.30955,-0.944228 -1.65318,-0.774998 -3.74488,-2.76692 -6.20962,-3.86989l-0.433988 0c2.59627,1.06328 4.79427,3.19666 6.51577,4.00312 1.61321,0.760825 2.85791,1.04259 4.43739,0.964638l0 -0.153639z" /><path
           id="_85063848"
           class="fil81"
           d="M15.5493 6.63652c-1.63617,0.08504 -2.89533,-0.192474 -4.53008,-0.955283 -1.65006,-0.76366 -3.71653,-2.66119 -6.12855,-3.71512l-0.440224 0c2.54638,1.01368 4.72256,3.05407 6.44547,3.85146 1.68294,0.787187 2.97187,1.06839 4.65339,0.973708l0 -0.154773z" /><path
           id="_81688320"
           class="fil82"
           d="M15.5493 6.49593c-1.74162,0.0980795 -3.04557,-0.180852 -4.7492,-0.96974 -1.64496,-0.750904 -3.6828,-2.5546 -6.03954,-3.56006l-0.449578 0c2.49536,0.965204 4.64772,2.91376 6.3678,3.69953 1.75296,0.812132 3.08412,1.0939 4.87053,0.985898l0 -0.155623z" /><path
           id="_82465912"
           class="fil83"
           d="M15.5493 6.35759c-1.84849,0.108851 -3.19694,-0.172915 -4.96917,-0.986748 -1.63702,-0.737581 -3.64312,-2.44604 -5.94146,-3.40472l-0.458933 0c2.44122,0.91985 4.56665,2.77287 6.28276,3.54702 1.81901,0.836227 3.19354,1.11941 5.08681,1.0012l0 -0.156757z" /><path
           id="_87767808"
           class="fil84"
           d="M15.5493 6.22238c-1.95762,0.115938 -3.35001,-0.168946 -5.18886,-1.00687 -1.62597,-0.723407 -3.59946,-2.33662 -5.83686,-3.24938l-0.468004 0c2.38481,0.873645 4.48048,2.63341 6.19063,3.39451 1.88534,0.859471 3.30154,1.14606 5.3031,1.02076l0 -0.159025z" /><path
           id="_82314344"
           class="fil85"
           d="M15.5487 6.09284c-2.06704,0.119056 -3.50252,-0.172348 -5.4077,-1.03239 -1.61208,-0.707817 -3.54815,-2.22663 -5.72405,-3.09432l-0.477358 0c2.32556,0.831125 4.39005,2.49507 6.09057,3.24286 1.94883,0.881015 3.40755,1.17242 5.5191,1.04231l-0.000566934 -0.158458z" /><path
           id="_85453464"
           class="fil86"
           d="M15.5487 5.96698c-2.17816,0.117639 -3.65842,-0.180285 -5.62767,-1.0613 -1.59478,-0.691376 -3.48948,-2.11608 -5.60017,-2.93955l-0.488697 0c2.26547,0.787754 4.29254,2.35788 5.98087,3.09092 2.01403,0.901141 3.51442,1.19963 5.73623,1.07065l-0.000566934 -0.160726z" /><path
           id="_84434344"
           class="fil87"
           d="M15.5487 5.8482c-2.28984,0.111969 -3.81376,-0.196726 -5.84792,-1.09787 -1.57211,-0.672667 -3.42116,-2.00213 -5.46212,-2.78421l-0.501736 0c2.19999,0.747785 4.18794,2.22153 5.86039,2.93842 2.07554,0.921834 3.61845,1.2294 5.95139,1.10382l0 -0.160159z" /><path
           id="_82101672"
           class="fil88"
           d="M15.5487 5.73368c-2.4021,0.103465 -3.97052,-0.217419 -6.06761,-1.13812 -1.54603,-0.653674 -3.34491,-1.88931 -5.31444,-2.62944l-0.513642 0c2.13224,0.709234 4.07625,2.08688 5.72745,2.78591 2.13791,0.940826 3.72362,1.26001 6.16824,1.14351l0 -0.16186z" /><path
           id="_111629344"
           class="fil89"
           d="M15.5487 5.62795c-2.51322,0.0881582 -4.12756,-0.248317 -6.28758,-1.18716 -1.51456,-0.632981 -3.25958,-1.77592 -5.15428,-2.47467l-0.523563 0c2.06052,0.6721 3.95521,1.95394 5.58089,2.63397 2.19885,0.958685 3.82822,1.29176 6.38452,1.18914l0 -0.161293z" /><path
           id="_111081472"
           class="fil90"
           d="M15.5487 5.52732c-2.62434,0.0697328 -4.28545,-0.285168 -6.50726,-1.24158 -1.47828,-0.60917 -3.16292,-1.66055 -4.97768,-2.31961l-0.536036 0c1.98512,0.635533 3.82538,1.82269 5.42017,2.48232 2.25923,0.975126 3.93253,1.32521 6.60081,1.24102l0 -0.162143z" /><path
           id="_83869256"
           class="fil91"
           d="M15.5482 5.43576c-2.73432,0.0459216 -4.44278,-0.33279 -6.72723,-1.30593 -1.43491,-0.584509 -3.05407,-1.54489 -4.78549,-2.1637l-0.547091 0c1.90518,0.600666 3.6845,1.69258 5.24329,2.32981 2.32018,0.991 4.03969,1.36404 6.81709,1.30196l-0.000566934 -0.162143z" /><path
           id="_85613424"
           class="fil92"
           d="M15.5482 5.35185c-2.84232,0.017008 -4.60095,-0.387783 -6.94635,-1.3768 -1.3853,-0.557863 -2.9336,-1.42952 -4.57685,-2.00893l-0.55928 0c1.82014,0.566934 3.53341,1.56615 5.04911,2.17731 2.3797,1.00631 4.1474,1.40514 7.03395,1.3717l-0.000566934 -0.163277z" /><path
           id="_29349928"
           class="fil93"
           d="M15.5482 5.27872c-2.94805,-0.0184253 -4.75827,-0.454114 -7.16632,-1.45929 -1.33031,-0.528099 -2.79895,-1.31302 -4.34866,-1.85331l-0.570902 0c1.72943,0.533768 3.36929,1.44143 4.83623,2.0248 2.44008,1.02161 4.2571,1.45022 7.24966,1.45022l0 -0.162426z" /><path
           id="_84658984"
           class="fil94"
           d="M15.5482 5.21352c-3.05152,-0.0583942 -4.91531,-0.528666 -7.38544,-1.54886 -1.2654,-0.496917 -2.65041,-1.1985 -4.1012,-1.69853l-0.584509 0c1.63589,0.500602 3.1958,1.31812 4.60577,1.8723 2.50018,1.03664 4.36936,1.49869 7.46538,1.53781l0 -0.16271z" /><path
           id="_51868456"
           class="fil95"
           d="M15.5482 5.15966c-3.15215,-0.104599 -5.07264,-0.61569 -7.60541,-1.65034 -1.19368,-0.463468 -2.486,-1.08313 -3.8336,-1.54319l-0.59443 0c1.53469,0.467153 3.00758,1.19793 4.35122,1.72036 2.56226,1.05024 4.48473,1.55141 7.68223,1.63702l0 -0.163844z" /><path
           id="_87794640"
           class="fil96"
           d="M15.5482 5.11799c-3.24825,-0.157891 -5.22798,-0.715187 -7.82567,-1.7643 -1.11176,-0.426051 -2.3043,-0.968323 -3.54163,-1.38757l-0.605769 0c1.42839,0.433988 2.80462,1.08058 4.07455,1.56871 2.62434,1.063 4.60407,1.60952 7.89852,1.74672l0 -0.16356z" /><path
           id="_81869064"
           class="fil97"
           d="M15.5482 5.08766c-3.34009,-0.216852 -5.38162,-0.825455 -8.04564,-1.88789 -1.0219,-0.387216 -2.10729,-0.856353 -3.22727,-1.23365l-0.616824 0c1.31415,0.399121 2.5889,0.965771 3.77493,1.41677 2.68812,1.07604 4.72823,1.67359 8.1148,1.86833l0 -0.16356z" /><path
           id="_86757216"
           class="fil98"
           d="M15.5482 5.07122c-3.42513,-0.282333 -5.53469,-0.951031 -8.26561,-2.02679 -0.922401,-0.345263 -1.89271,-0.744667 -2.88966,-1.07831l-0.628162 0c1.19566,0.363121 2.35901,0.853519 3.45234,1.26426 2.75246,1.08908 4.85805,1.74502 8.33109,2.00496l0 -0.164127z" /><path
           id="_112351448"
           class="fil99"
           d="M15.5482 5.11913l-0.140033 -0.0634966c-3.42343,-0.360286 -5.58203,-1.09021 -8.34526,-2.16625 -0.813266,-0.300758 -1.66055,-0.634115 -2.52824,-0.923251l-0.63695 0c1.06839,0.325987 2.11211,0.7441 3.10311,1.11232 2.76692,1.08143 4.91135,1.79661 8.34668,2.13649l0.200694 0.0909928 0 -0.186805z" /><path
           id="_51686336"
           class="fil100"
           d="M15.5482 5.25321c-0.154773,-0.0756856 -0.312664,-0.152505 -0.471972,-0.228474 -3.30777,-0.447594 -5.48877,-1.23535 -8.23329,-2.2907 -0.693643,-0.25427 -1.41166,-0.524414 -2.14329,-0.767912l-0.646588 0c0.935724,0.286868 1.85274,0.637233 2.73149,0.959252 2.74453,1.0596 4.90964,1.83205 8.22479,2.25923 0.182553,0.0870243 0.362271,0.174332 0.53887,0.260789l0 -0.19219z" /><path
           id="_85946920"
           class="fil101"
           d="M15.5482 5.41053c-0.260506,-0.138048 -0.529516,-0.277231 -0.805613,-0.417263 -3.19014,-0.534902 -5.39324,-1.37935 -8.11934,-2.414 -0.56665,-0.20523 -1.14776,-0.417547 -1.73737,-0.613139l-0.653674 0c0.796542,0.245482 1.57976,0.533201 2.33605,0.807597 2.72185,1.03749 4.90908,1.8655 8.10375,2.3814 0.301042,0.151938 0.59443,0.303309 0.876763,0.452413l-0.000566934 -0.197009z" /><path
           id="_111572640"
           class="fil102"
           d="M15.5487 5.59252c-0.361704,-0.206931 -0.742683,-0.419247 -1.13869,-0.630147 -3.07306,-0.622777 -5.29884,-1.52392 -8.0068,-2.53873 -0.431436,-0.154206 -0.869676,-0.309546 -1.31415,-0.457515l-0.657643 0c0.65169,0.202962 1.29403,0.43087 1.91992,0.655659 2.70116,1.01453 4.90823,1.89979 7.98299,2.50273 0.42435,0.22564 0.830841,0.451279 1.21437,0.670116l0 -0.202112z" /><path
           id="_109590336"
           class="fil103"
           d="M15.5487 5.79916c-0.456665,-0.281766 -0.949614,-0.575438 -1.47176,-0.867975 -2.95542,-0.710368 -5.20445,-1.66877 -7.8937,-2.66175 -0.288853,-0.102898 -0.579973,-0.20438 -0.874495,-0.303309l-0.660478 0c0.502303,0.158458 0.999787,0.330522 1.48735,0.503154 2.67819,0.993268 4.90653,1.93466 7.86138,2.62519 0.553611,0.310113 1.07377,0.618525 1.5517,0.913897l0 -0.209198z" /><path
           id="_84096504"
           class="fil104"
           d="M15.5487 6.03444c-0.543122,-0.363971 -1.15031,-0.749203 -1.8054,-1.13415 -2.83835,-0.798809 -5.10921,-1.81362 -7.7789,-2.78676l-0.428602 -0.147403 -0.657926 0c0.350648,0.112536 0.698179,0.230459 1.04089,0.351215 2.65693,0.971157 4.90596,1.96896 7.74119,2.74679 0.690525,0.404791 1.32634,0.810148 1.88931,1.18716l-0.000566934 -0.216852z" /><path
           id="_82424368"
           class="fil105"
           d="M15.5493 6.30147c-0.617958,-0.450712 -1.34136,-0.942527 -2.13847,-1.43292 -2.71448,-0.882999 -5.00319,-1.95139 -7.64567,-2.90242l-0.649989 0c0.196726,0.0646304 0.392885,0.131245 0.587343,0.19871 2.63482,0.949614 4.90539,2.00383 7.61959,2.8684 0.837928,0.514776 1.59337,1.02898 2.2272,1.4933l0 -0.225073z" /><path
           id="_86104112"
           class="fil106"
           d="M15.5493 6.60478c-0.676068,-0.543689 -1.51853,-1.15711 -2.47126,-1.76713 -2.45426,-0.916448 -4.65311,-1.97236 -7.10141,-2.87152l-0.627029 0 0.136064 0.0462051c2.61413,0.92807 4.90426,2.03813 7.49855,2.99086 1.00262,0.640635 1.87853,1.2824 2.56509,1.838l0 -0.236411z" /><path
           id="_84788368"
           class="fil107"
           d="M15.5493 6.95344c-0.710368,-0.638934 -1.67699,-1.39664 -2.80434,-2.14698 -2.20679,-0.940826 -4.29764,-1.98143 -6.56679,-2.84034l-0.609737 0c2.47126,0.888952 4.69903,2.0078 7.07873,3.00702 1.18858,0.791156 2.19318,1.58486 2.90213,2.23145l0 -0.251152z" /><path
           id="_85316704"
           class="fil108"
           d="M15.5499 7.36362l-0.0306144 -0.0331656c-0.706116,-0.727943 -1.79236,-1.64638 -3.10708,-2.5546 -1.97491,-0.9567 -3.94444,-1.9803 -6.04776,-2.80972l-0.590461 0c2.28814,0.855219 4.40309,1.95564 6.53589,2.97668 1.29062,0.89122 2.35391,1.78726 3.04755,2.49337l0.192474 0.212317 0 -0.284884z" /><path
           id="_85794648"
           class="fil109"
           d="M15.5499 7.84976c-0.124442,-0.142867 -0.249451,-0.287719 -0.376444,-0.434271 -0.684856,-0.763376 -1.76968,-1.72319 -3.09461,-2.67111 -1.75919,-0.965488 -3.60003,-1.96953 -5.54886,-2.77826l-0.570902 0c2.12147,0.829991 4.10999,1.91255 6.01261,2.9472 1.29998,0.929488 2.36213,1.86691 3.03395,2.60676 0.18397,0.215718 0.364538,0.426051 0.545107,0.634115l-0.0008504 -0.304443z" /><path
           id="_88146816"
           class="fil110"
           d="M15.5507 8.37956c-0.238963,-0.284317 -0.478208,-0.577705 -0.722273,-0.879031 -0.665864,-0.798243 -1.74757,-1.79945 -3.08242,-2.78676 -1.56247,-0.968606 -3.27007,-1.95507 -5.07661,-2.74764l-0.545107 0c1.96613,0.813266 3.82057,1.8757 5.51003,2.91659 1.30962,0.969173 2.36808,1.946 3.01977,2.72128 0.303593,0.377578 0.599816,0.742116 0.896605,1.09305l0 -0.317483z" /><path
           id="_111647904"
           class="fil111"
           d="M15.5507 8.9465c-0.353483,-0.432854 -0.704982,-0.88555 -1.06754,-1.35951 -0.646304,-0.834526 -1.72603,-1.87683 -3.07023,-2.90468 -1.38275,-0.966905 -2.95911,-1.93523 -4.6327,-2.71618l-0.51761 0c1.82071,0.801361 3.5405,1.84452 5.03494,2.88654 1.31897,1.00744 2.3746,2.02565 3.00446,2.8358 0.423499,0.556729 0.832542,1.08454 1.24924,1.58571l-0.000566934 -0.327688z" /></g><polygon
         id="_51315232"
         class="fil112"
         points="12.661,8.26419 8.93629,10.4149 5.03607,12.7934 5.01056,3.68535 8.93629,6.11438 " /><path
         id="_85766000"
         class="fil113"
         d="M1.16562 13.8133l-0.0824888 0.089859m13.6489 -0.00992134l-0.0924102 -0.081355" /></g><path
       class="fil114"
       d="M1.24158 2.33038l0.697895 0 0 1.50011 -0.0348664 0 0 9.30763 12.2452 0 0 -9.30763 -0.089292 0 0 -1.50011 0.752321 0c0.46035,0 0.837077,0.379562 0.837077,0.836794l0 10.6337c0,0.458082 -0.377578,0.837361 -0.837077,0.837361 -5.51371,0 -4.16696,0 -13.5713,0 -0.4595,0 -0.837077,-0.376727 -0.837077,-0.837361l0 -10.6337c0,-0.46035 0.376727,-0.836794 0.837077,-0.836794z"
       id="path140" /><path
       class="fil113"
       d="M0.730777 13.6141l-0.089859 0.0980795m14.8962 -0.0104883l-0.100631 -0.0890086"
       id="path142" /><path
       class="fil115"
       d="M15.6434 3.06371l-15.2324 0c0.0513075,-0.629013 0.405074,-1.11969 0.830558,-1.11969l13.571 0c0.425484,0 0.77925,0.494366 0.830841,1.11969z"
       id="path144" /><path
       class="fil116"
       d="M1.35242 1.03692l13.2444 0c0.375594,0 0.717738,0.153639 0.964638,0.400539l0 0.00198427c0.2469,0.247467 0.400539,0.58791 0.400539,0.962653l0.051024 11.221c0,0.374743 -0.153639,0.715187 -0.400539,0.962653l0 0.00198427c-0.2469,0.2469 -0.589044,0.400539 -0.964638,0.400539l-13.2444 0c-0.375594,0 -0.717738,-0.153639 -0.964638,-0.400539l0 -0.00198427c-0.2469,-0.247467 -0.400539,-0.58791 -0.400539,-0.962653l-0.051024 -11.221c0,-0.374743 0.153639,-0.715187 0.400539,-0.962653l0 -0.00198427c0.2469,-0.2469 0.589044,-0.400539 0.964638,-0.400539zm13.2444 1.00007l-13.2444 0c-0.0997803,0 -0.191624,0.0413862 -0.257671,0.107434l-0.00113387 -0.0008504c-0.0654808,0.0663312 -0.1063,0.157891 -0.1063,0.258522l0.051024 11.221c0,0.100631 0.0408192,0.19219 0.1063,0.258522l0.00113387 -0.0008504c0.0660478,0.0660478 0.157891,0.107434 0.257671,0.107434l13.2444 0c0.0997803,0 0.191624,-0.0413862 0.257671,-0.107434l0.00113387 0.0008504c0.0654808,-0.0663312 0.1063,-0.157891 0.1063,-0.258522l-0.051024 -11.221c0,-0.100631 -0.0408192,-0.19219 -0.1063,-0.258522l-0.00113387 0.0008504c-0.0660478,-0.0660478 -0.157891,-0.107434 -0.257671,-0.107434z"
       id="path146" /></g></svg>