<?xml version="1.0" encoding="UTF-8" standalone="no"?>
<!-- Creator: CorelDRAW -->

<svg
   xmlns:dc="http://purl.org/dc/elements/1.1/"
   xmlns:cc="http://creativecommons.org/ns#"
   xmlns:rdf="http://www.w3.org/1999/02/22-rdf-syntax-ns#"
   xmlns:svg="http://www.w3.org/2000/svg"
   xmlns="http://www.w3.org/2000/svg"
   xmlns:sodipodi="http://sodipodi.sourceforge.net/DTD/sodipodi-0.dtd"
   xmlns:inkscape="http://www.inkscape.org/namespaces/inkscape"
   xml:space="preserve"
   width="24px"
   height="24px"
   style="shape-rendering:geometricPrecision; text-rendering:geometricPrecision; image-rendering:optimizeQuality; fill-rule:evenodd; clip-rule:evenodd"
   viewBox="0 0 24 24"
   id="svg2"
   version="1.1"
   inkscape:version="0.91 r13725"
   sodipodi:docname="application-x-amarok.svg"><metadata
     id="metadata175"><rdf:RDF><cc:Work
         rdf:about=""><dc:format>image/svg+xml</dc:format><dc:type
           rdf:resource="http://purl.org/dc/dcmitype/StillImage" /></cc:Work></rdf:RDF></metadata><sodipodi:namedview
     pagecolor="#ffffff"
     bordercolor="#666666"
     borderopacity="1"
     objecttolerance="10"
     gridtolerance="10"
     guidetolerance="10"
     inkscape:pageopacity="0"
     inkscape:pageshadow="2"
     inkscape:window-width="640"
     inkscape:window-height="480"
     id="namedview173"
     showgrid="false"
     inkscape:zoom="9.8333333"
     inkscape:cx="12"
     inkscape:cy="12"
     inkscape:window-x="0"
     inkscape:window-y="28"
     inkscape:window-maximized="0"
     inkscape:current-layer="svg2" /><defs
     id="defs4"><style
       type="text/css"
       id="style6"><![CDATA[
    .fil117 {fill:none}
    .fil116 {fill:white}
    .fil120 {fill:#BCE6FF}
    .fil14 {fill:#C9C9C9}
    .fil121 {fill:#4E87B4;fill-rule:nonzero}
    .fil0 {fill:black;fill-opacity:0.000000}
    .fil83 {fill:#A3EFF7;fill-opacity:0.000000}
    .fil1 {fill:black;fill-opacity:0.003922}
    .fil2 {fill:black;fill-opacity:0.007843}
    .fil3 {fill:black;fill-opacity:0.015686}
    .fil82 {fill:#64A4DB;fill-opacity:0.015686}
    .fil115 {fill:#88C8E8;fill-opacity:0.015686}
    .fil50 {fill:#C9EDFF;fill-opacity:0.015686}
    .fil4 {fill:black;fill-opacity:0.019608}
    .fil5 {fill:black;fill-opacity:0.023529}
    .fil6 {fill:black;fill-opacity:0.027451}
    .fil81 {fill:#64A4DB;fill-opacity:0.031373}
    .fil114 {fill:#88C8E8;fill-opacity:0.031373}
    .fil49 {fill:#C9EDFF;fill-opacity:0.031373}
    .fil7 {fill:black;fill-opacity:0.031373}
    .fil8 {fill:black;fill-opacity:0.035294}
    .fil9 {fill:black;fill-opacity:0.043137}
    .fil80 {fill:#64A4DB;fill-opacity:0.047059}
    .fil113 {fill:#88C8E8;fill-opacity:0.047059}
    .fil48 {fill:#C9EDFF;fill-opacity:0.047059}
    .fil10 {fill:black;fill-opacity:0.047059}
    .fil11 {fill:black;fill-opacity:0.050980}
    .fil12 {fill:black;fill-opacity:0.054902}
    .fil13 {fill:black;fill-opacity:0.058824}
    .fil79 {fill:#64A4DB;fill-opacity:0.058824}
    .fil112 {fill:#88C8E8;fill-opacity:0.058824}
    .fil47 {fill:#C9EDFF;fill-opacity:0.058824}
    .fil78 {fill:#64A4DB;fill-opacity:0.074510}
    .fil111 {fill:#88C8E8;fill-opacity:0.074510}
    .fil46 {fill:#C9EDFF;fill-opacity:0.074510}
    .fil77 {fill:#64A4DB;fill-opacity:0.090196}
    .fil110 {fill:#88C8E8;fill-opacity:0.090196}
    .fil45 {fill:#C9EDFF;fill-opacity:0.090196}
    .fil76 {fill:#64A4DB;fill-opacity:0.105882}
    .fil109 {fill:#88C8E8;fill-opacity:0.105882}
    .fil44 {fill:#C9EDFF;fill-opacity:0.105882}
    .fil119 {fill:#B2B2B2;fill-rule:nonzero;fill-opacity:0.121569}
    .fil75 {fill:#64A4DB;fill-opacity:0.121569}
    .fil108 {fill:#88C8E8;fill-opacity:0.121569}
    .fil43 {fill:#C9EDFF;fill-opacity:0.121569}
    .fil74 {fill:#64A4DB;fill-opacity:0.137255}
    .fil107 {fill:#88C8E8;fill-opacity:0.137255}
    .fil42 {fill:#C9EDFF;fill-opacity:0.137255}
    .fil73 {fill:#64A4DB;fill-opacity:0.152941}
    .fil106 {fill:#88C8E8;fill-opacity:0.152941}
    .fil41 {fill:#C9EDFF;fill-opacity:0.152941}
    .fil72 {fill:#64A4DB;fill-opacity:0.164706}
    .fil105 {fill:#88C8E8;fill-opacity:0.164706}
    .fil40 {fill:#C9EDFF;fill-opacity:0.164706}
    .fil71 {fill:#64A4DB;fill-opacity:0.180392}
    .fil104 {fill:#88C8E8;fill-opacity:0.180392}
    .fil39 {fill:#C9EDFF;fill-opacity:0.180392}
    .fil70 {fill:#64A4DB;fill-opacity:0.196078}
    .fil103 {fill:#88C8E8;fill-opacity:0.196078}
    .fil38 {fill:#C9EDFF;fill-opacity:0.196078}
    .fil69 {fill:#64A4DB;fill-opacity:0.211765}
    .fil102 {fill:#88C8E8;fill-opacity:0.211765}
    .fil37 {fill:#C9EDFF;fill-opacity:0.211765}
    .fil68 {fill:#64A4DB;fill-opacity:0.227451}
    .fil101 {fill:#88C8E8;fill-opacity:0.227451}
    .fil36 {fill:#C9EDFF;fill-opacity:0.227451}
    .fil67 {fill:#64A4DB;fill-opacity:0.243137}
    .fil100 {fill:#88C8E8;fill-opacity:0.243137}
    .fil35 {fill:#C9EDFF;fill-opacity:0.243137}
    .fil66 {fill:#64A4DB;fill-opacity:0.258824}
    .fil99 {fill:#88C8E8;fill-opacity:0.258824}
    .fil34 {fill:#C9EDFF;fill-opacity:0.258824}
    .fil65 {fill:#64A4DB;fill-opacity:0.274510}
    .fil98 {fill:#88C8E8;fill-opacity:0.274510}
    .fil33 {fill:#C9EDFF;fill-opacity:0.274510}
    .fil64 {fill:#64A4DB;fill-opacity:0.286275}
    .fil97 {fill:#88C8E8;fill-opacity:0.286275}
    .fil32 {fill:#C9EDFF;fill-opacity:0.286275}
    .fil63 {fill:#64A4DB;fill-opacity:0.301961}
    .fil96 {fill:#88C8E8;fill-opacity:0.301961}
    .fil31 {fill:#C9EDFF;fill-opacity:0.301961}
    .fil62 {fill:#64A4DB;fill-opacity:0.317647}
    .fil95 {fill:#88C8E8;fill-opacity:0.317647}
    .fil30 {fill:#C9EDFF;fill-opacity:0.317647}
    .fil61 {fill:#64A4DB;fill-opacity:0.333333}
    .fil94 {fill:#88C8E8;fill-opacity:0.333333}
    .fil29 {fill:#C9EDFF;fill-opacity:0.333333}
    .fil60 {fill:#64A4DB;fill-opacity:0.349020}
    .fil93 {fill:#88C8E8;fill-opacity:0.349020}
    .fil28 {fill:#C9EDFF;fill-opacity:0.349020}
    .fil59 {fill:#64A4DB;fill-opacity:0.364706}
    .fil92 {fill:#88C8E8;fill-opacity:0.364706}
    .fil27 {fill:#C9EDFF;fill-opacity:0.364706}
    .fil58 {fill:#64A4DB;fill-opacity:0.380392}
    .fil91 {fill:#88C8E8;fill-opacity:0.380392}
    .fil26 {fill:#C9EDFF;fill-opacity:0.380392}
    .fil57 {fill:#64A4DB;fill-opacity:0.392157}
    .fil90 {fill:#88C8E8;fill-opacity:0.392157}
    .fil25 {fill:#C9EDFF;fill-opacity:0.392157}
    .fil56 {fill:#64A4DB;fill-opacity:0.407843}
    .fil89 {fill:#88C8E8;fill-opacity:0.407843}
    .fil24 {fill:#C9EDFF;fill-opacity:0.407843}
    .fil55 {fill:#64A4DB;fill-opacity:0.423529}
    .fil88 {fill:#88C8E8;fill-opacity:0.423529}
    .fil23 {fill:#C9EDFF;fill-opacity:0.423529}
    .fil54 {fill:#64A4DB;fill-opacity:0.439216}
    .fil87 {fill:#88C8E8;fill-opacity:0.439216}
    .fil22 {fill:#C9EDFF;fill-opacity:0.439216}
    .fil15 {fill:#A4A5A7;fill-opacity:0.439216}
    .fil53 {fill:#64A4DB;fill-opacity:0.454902}
    .fil86 {fill:#88C8E8;fill-opacity:0.454902}
    .fil21 {fill:#C9EDFF;fill-opacity:0.454902}
    .fil52 {fill:#64A4DB;fill-opacity:0.470588}
    .fil85 {fill:#88C8E8;fill-opacity:0.470588}
    .fil20 {fill:#C9EDFF;fill-opacity:0.470588}
    .fil51 {fill:#64A4DB;fill-opacity:0.486275}
    .fil84 {fill:#88C8E8;fill-opacity:0.486275}
    .fil19 {fill:#C9EDFF;fill-opacity:0.486275}
    .fil18 {fill:url(#id0)}
    .fil16 {fill:url(#id1)}
    .fil17 {fill:url(#id2)}
    .fil118 {fill:url(#id3);fill-rule:nonzero;fill-opacity:0.439216}
   ]]></style><linearGradient
       id="id0"
       gradientUnits="userSpaceOnUse"
       x1="12.0703"
       y1="8.7458"
       x2="11.8841"
       y2="17.2558"><stop
         offset="0"
         style="stop-color:#5CA2DA"
         id="stop9" /><stop
         offset="1"
         style="stop-color:#8DC8F4"
         id="stop11" /></linearGradient><linearGradient
       id="id1"
       gradientUnits="userSpaceOnUse"
       x1="12.1046"
       y1="16.51"
       x2="12"
       y2="9.41478"><stop
         offset="0"
         style="stop-color:#B0B0B0"
         id="stop14" /><stop
         offset="1"
         style="stop-color:#BEBEBE"
         id="stop16" /></linearGradient><linearGradient
       id="id2"
       gradientUnits="userSpaceOnUse"
       x1="12.1049"
       y1="16.4623"
       x2="11.9997"
       y2="9.31359"><stop
         offset="0"
         style="stop-color:#B0B0B0"
         id="stop19" /><stop
         offset="1"
         style="stop-color:#CCCCCC"
         id="stop21" /></linearGradient><linearGradient
       id="id3"
       gradientUnits="userSpaceOnUse"
       x1="9.34703"
       y1="10.5501"
       x2="9.65318"
       y2="27.5002"><stop
         offset="0"
         style="stop-color:#B0E5FF"
         id="stop24" /><stop
         offset="1"
         style="stop-color:white"
         id="stop26" /></linearGradient></defs><g
     id="Слой_x0020_1"><metadata
       id="CorelCorpID_0Corel-Layer" /><g
       id="_115765976"><path
         id="_85577336"
         class="fil0"
         d="M11.3217 20.5017c7.72475,-0.293955 11.1796,0.324286 12.6815,1.18404l0 2.28191c-0.0697328,0.012756 -0.1423,0.0243781 -0.217986,0.0354333l-23.7123 0 0 -2.05117c1.46892,-0.633548 4.59698,-1.19736 11.2488,-1.45022z" /><g
         id="g32"><path
           id="_51601128"
           class="fil1"
           d="M11.3492 20.6786c7.73297,-0.283467 11.1935,0.371058 12.654,1.24073l0 2.00808c-0.153639,0.0294805 -0.323436,0.0544256 -0.509106,0.0756856l-23.4212 0 0 -1.85274c1.42555,-0.642619 4.53802,-1.22486 11.2763,-1.47176z" /><path
           id="_82661824"
           class="fil2"
           d="M11.3764 20.8558c7.71937,-0.271561 11.2074,0.417263 12.6267,1.28949l0 1.74219c-0.244915,0.0501736 -0.537737,0.0875912 -0.874212,0.115654l-23.0561 0 0 -1.66083c1.38785,-0.648005 4.4989,-1.24725 11.3035,-1.4865z" /><path
           id="_111064280"
           class="fil3"
           d="M11.4039 21.033c7.68138,-0.257388 11.2242,0.4612 12.5992,1.32804l0 1.48707c-0.351215,0.076536 -0.817802,0.125292 -1.3819,0.155056l-6.7244 0c-0.628729,-0.00368507 -1.27447,-0.00453547 -1.93211,0l-13.8343 0 -0.0575438 -0.0093544 0 -1.46864c1.35525,-0.648572 4.4853,-1.26256 11.331,-1.49217z" /><path
           id="_110477944"
           class="fil4"
           d="M11.4311 21.2101c7.61845,-0.241514 11.248,0.50287 12.572,1.35611l0 1.243c-0.508539,0.119056 -1.31047,0.172915 -2.32698,0.193891l-3.03933 0c-1.92786,-0.0192757 -4.16753,-0.0513075 -6.48005,0l-11.6876 0c-0.143718,-0.0167245 -0.276097,-0.0348664 -0.396287,-0.0549926l0 -1.25094c1.32549,-0.64347 4.50202,-1.26965 11.3582,-1.48707z" /><path
           id="_52144512"
           class="fil5"
           d="M11.4583 21.387c7.53143,-0.223655 11.2859,0.540855 12.5448,1.37198l0 1.01169c-1.58656,0.402806 -6.7278,0.0858904 -12.1749,0.212317l-0.871093 0.0201261 -10.0262 0c-0.335908,-0.0266459 -0.623343,-0.0598115 -0.858054,-0.0997803l0 -1.04599c1.29601,-0.632414 4.55248,-1.26738 11.3854,-1.47034z" /><path
           id="_88364152"
           class="fil6"
           d="M11.4852 21.5645c7.42428,-0.203813 11.3483,0.576288 12.5179,1.37708l0 0.790872c-1.42499,0.401672 -6.65325,0.109135 -12.1644,0.222521 -0.826306,0.017008 -1.64269,0.0334491 -2.43866,0.0481894l-7.75452 0c-0.66473,-0.0308979 -1.19963,-0.077103 -1.57267,-0.142017l0 -0.855786c1.26058,-0.61569 4.63837,-1.25462 11.4124,-1.44086z" /><path
           id="_51592608"
           class="fil7"
           d="M11.5133 21.7419c7.3004,-0.182553 11.4478,0.608887 12.4898,1.37085l0 0.582524c-1.22571,0.397704 -6.56141,0.131245 -12.1531,0.231592 -1.79633,0.0323152 -3.55241,0.0617958 -5.14861,0.0762526l-3.39763 0c-1.48395,-0.0198427 -2.62434,-0.0739848 -3.23095,-0.182553l0 -0.679753c1.21182,-0.592729 4.75742,-1.23223 11.4404,-1.39891z" /><path
           id="_82946136"
           class="fil8"
           d="M11.5402 21.9194c7.18928,-0.159308 11.6301,0.644887 12.4629,1.36121l0 0.375027c-0.945078,0.395153 -6.42874,0.156757 -12.1426,0.243215 -5.35667,0.081355 -10.4041,0.140033 -11.7877,-0.116788l0 -0.517894c1.13925,-0.563815 4.90766,-1.19991 11.4674,-1.34477z" /><path
           id="_87351456"
           class="fil9"
           d="M11.5674 22.0962c7.18843,-0.136348 12.0561,0.706683 12.4357,1.3717l0 0.130962c-0.413295,0.411877 -6.16909,0.198143 -12.1318,0.271561 -5.43349,0.0668982 -10.6051,0.110552 -11.7985,-0.124442l0 -0.369641c1.02558,-0.529799 5.08228,-1.15881 11.4946,-1.28014z" /><path
           id="_82227096"
           class="fil10"
           d="M11.5946 22.2734c6.9645,-0.1063 12.3022,0.716604 12.3144,1.3065 0.0119056,0.374176 -5.92389,0.20523 -12.0269,0.262207 -5.54659,0.0521579 -10.882,0.0802211 -11.8092,-0.129261l0 -0.230175c0.831408,-0.490964 5.26086,-1.11402 11.5218,-1.20927z" /><path
           id="_87125688"
           class="fil11"
           d="M11.6221 22.4506c6.4517,-0.0708667 12.1599,0.656793 12.1681,1.16193 0.00793707,0.267309 -5.88902,0.16356 -11.8974,0.201545 -5.77394,0.0368507 -11.39,0.047339 -11.82,-0.135781l0 -0.0805046c0.404224,-0.44646 5.36688,-1.07944 11.5493,-1.14719z" /><path
           id="_85895048"
           class="fil12"
           d="M11.6494 22.6277c5.93891,-0.0354333 12.0181,0.597265 12.0221,1.01708 0.00396854,0.161009 -5.85416,0.122174 -11.7678,0.140883 -5.91397,0.0192757 -11.7432,0.0110552 -11.7432,-0.117922 0,-0.391184 5.54943,-1.00461 11.4889,-1.04004z" /></g><path
         id="_82706848"
         class="fil13"
         d="M11.6763 22.8052c5.42669,0 11.8764,0.537453 11.8764,0.872511 0,0.109135 -23.2774,0.104883 -23.2774,0.00311813 0,-0.334774 5.97435,-0.875629 11.401,-0.875629z" /></g><path
       class="fil14"
       d="M1.66055 2.50613l20.6951 0.0374176c0.724825,0 1.21125,0.34016 1.20105,1.18149l-0.0201261 1.59507 -22.9625 0 0 -1.59507c0,-0.669549 0.384381,-1.25462 1.08653,-1.21891z"
       id="path47" /><path
       class="fil15"
       d="M0.593013 3.53455c0.164411,-0.179718 0.251719,-0.450429 0.51591,-0.485295l0.181419 0.397987 -0.777266 0.964638 0.0799376 -0.87733z"
       id="path49" /><path
       class="fil16"
       d="M1.72943 3.27433l20.646 0c0.631847,0 1.14889,0.519311 1.14889,1.14889l0 17.078c0,0.630147 -0.518177,1.14889 -1.14889,1.14889 -7.56573,0 -7.74176,0 -20.646,0 -0.630997,0 -1.14889,-0.51676 -1.14889,-1.14889l0 -17.078c0,-0.631847 0.517043,-1.14889 1.14889,-1.14889z"
       id="path51" /><path
       class="fil17"
       d="M1.72915 3.1255l20.6463 0c0.631564,0 1.14889,0.519595 1.14889,1.14832l0 17.2274c0,0.629863 -0.517894,1.14917 -1.14889,1.14917 -7.56545,0 -7.74176,0 -20.6463,0 -0.63043,0 -1.14861,-0.517043 -1.14861,-1.14917l0 -17.2274c0,-0.631564 0.517043,-1.14832 1.14861,-1.14832z"
       id="path53" /><path
       class="fil18"
       d="M1.65403 3.57707l20.646 0c0.631847,0 1.14889,0.519595 1.14889,1.14832l0 16.5502c0,0.62958 -0.517894,1.14917 -1.14889,1.14917 -7.56545,0 -7.74176,0 -20.646,0 -0.63043,0 -1.14861,-0.517043 -1.14861,-1.14917l0 -16.5502c0,-0.631847 0.51676,-1.14832 1.14861,-1.14832z"
       id="path55" /><g
       id="_51248056"><g
         id="g58"><path
           id="_84435376"
           class="fil19"
           d="M0.555595 11.1451c1.8346,-0.276097 3.70803,-0.0337325 5.4831,1.12026 1.04514,0.685706 1.99022,1.32124 2.84062,1.89554 4.576,3.18645 5.98739,4.15902 9.58997,2.91659 1.29289,-0.425484 3.05124,-1.58741 4.92835,-2.57586l0 0.233577c-1.85671,0.983913 -3.59748,2.13252 -4.8779,2.55659 -3.6794,1.2688 -5.10694,0.287435 -9.73595,-2.93643 -0.840763,-0.568918 -1.77422,-1.19623 -2.83552,-1.89441 -1.71753,-1.11346 -3.56601,-1.32492 -5.39267,-1.03267l0 -0.283183z" /><path
           id="_82642600"
           class="fil20"
           d="M0.555595 11.4662l0.0708667 -0.0107717c1.89186,-0.285735 3.82028,-0.0788038 5.65913,1.05932 1.04514,0.659344 2.00524,1.27617 2.88031,1.84423 4.50457,3.10254 5.95394,4.07937 9.51059,2.93615 1.25661,-0.36709 2.9353,-1.40089 4.72114,-2.28928l0 0.22564c-1.76912,0.886684 -3.43193,1.91227 -4.67692,2.27794 -3.63178,1.17327 -5.09276,0.185671 -9.64949,-2.95401 -0.862589,-0.560981 -1.8122,-1.17072 -2.87237,-1.84338 -1.74956,-1.07349 -3.6176,-1.26369 -5.47063,-0.988449l-0.172631 0.0266459 0 -0.284034z" /><path
           id="_85538768"
           class="fil21"
           d="M0.555595 11.7865c0.100064,-0.0158741 0.200128,-0.0308979 0.301042,-0.0450712 1.89809,-0.256821 3.82538,-0.0646304 5.67671,1.0219 1.04429,0.630997 2.02027,1.23025 2.91942,1.79293 4.43257,3.01864 5.9185,4.00085 9.43066,2.95571 1.21862,-0.309829 2.81766,-1.21947 4.51421,-2.01233l0 0.219403c-1.68153,0.792006 -3.26724,1.6974 -4.47707,2.00808 -3.58217,1.07491 -5.07944,0.0839062 -9.56077,-2.97073 -0.887535,-0.555878 -1.85217,-1.14861 -2.90865,-1.79038 -1.76628,-1.02558 -3.63631,-1.20162 -5.49812,-0.955567 -0.132662,0.0184253 -0.265608,0.0379846 -0.39742,0.0583942l0 -0.282333z" /><path
           id="_85647968"
           class="fil22"
           d="M0.555595 12.0998c0.176883,-0.0266459 0.35405,-0.0496067 0.530083,-0.0708667 1.90518,-0.229892 3.82992,-0.0521579 5.69456,0.983346 1.04344,0.602367 2.03699,1.18404 2.95911,1.74049 4.36114,2.937 5.88307,3.9246 9.35129,2.97697 1.17951,-0.257671 2.69974,-1.04854 4.30699,-1.74701l0 0.214301c-1.59649,0.699029 -3.10453,1.49018 -4.27695,1.74757 -3.5337,0.978811 -5.0664,-0.0167245 -9.47318,-2.98831 -0.910779,-0.549642 -1.88931,-1.12395 -2.94607,-1.73964 -1.78131,-0.975409 -3.65105,-1.13642 -5.52363,-0.917865 -0.207214,0.0240947 -0.414995,0.0513075 -0.62221,0.0833392l0 -0.282333z" /><path
           id="_82925936"
           class="fil23"
           d="M0.555595 12.4076c0.252285,-0.0354333 0.506272,-0.0663312 0.761108,-0.0926936 1.91227,-0.200978 3.83446,-0.038268 5.71044,0.946779 1.04259,0.576005 2.05117,1.13897 2.99908,1.68833 4.28914,2.85309 5.84934,3.84608 9.27135,2.99568 1.13897,-0.205513 2.5804,-0.884983 4.10006,-1.49217l0 0.209765c-1.51059,0.610587 -2.94352,1.29204 -4.07512,1.49897 -3.48579,0.880731 -5.05393,-0.12019 -9.38672,-3.00588 -0.933456,-0.542555 -1.92899,-1.09928 -2.98292,-1.68663 -1.79831,-0.927503 -3.66891,-1.07434 -5.55028,-0.884133 -0.283183,0.0283467 -0.565516,0.0617958 -0.846999,0.100914l0 -0.278931z" /><path
           id="_49713208"
           class="fil24"
           d="M0.555595 12.707c0.329105,-0.0399688 0.659344,-0.0762526 0.99015,-0.10545 1.91964,-0.173482 3.83984,-0.0246616 5.7283,0.908795 1.04231,0.547941 2.06817,1.0939 3.03791,1.63702 4.2177,2.77004 5.81504,3.76812 9.19198,3.01495 1.0973,-0.156474 2.46078,-0.729927 3.8937,-1.25037l0 0.205513c-1.42754,0.524697 -2.78421,1.10325 -3.87613,1.26256 -3.43533,0.783219 -5.03976,-0.221104 -9.29714,-3.02289 -0.957551,-0.536036 -1.96811,-1.07689 -3.02034,-1.63532 -1.81504,-0.877897 -3.68564,-1.01141 -5.57749,-0.8487 -0.358586,0.0311813 -0.714336,0.0674651 -1.07094,0.108001l0 -0.274112z" /><path
           id="_81404648"
           class="fil25"
           d="M0.555595 12.9944c0.404507,-0.0408192 0.812416,-0.0759691 1.22032,-0.10715 1.92644,-0.144001 3.84409,-0.0104883 5.74587,0.87166 1.04061,0.519595 2.0832,1.04883 3.07788,1.58486 4.14485,2.68755 5.77932,3.69216 9.11119,3.03536 1.05308,-0.109702 2.33973,-0.585642 3.68677,-1.0219l0 0.200694c-1.34335,0.444192 -2.6266,0.926653 -3.6743,1.04061 -3.38856,0.685139 -5.02728,-0.323719 -9.2104,-3.04046 -0.982212,-0.530083 -2.00808,-1.05308 -3.05662,-1.58401 -1.83176,-0.82914 -3.70434,-0.946779 -5.60414,-0.814117 -0.433704,0.0300475 -0.865708,0.0663312 -1.29658,0.106017l0 -0.271561z" /><path
           id="_84092008"
           class="fil26"
           d="M0.555595 13.2705c0.482177,-0.0345829 0.964638,-0.0671816 1.4505,-0.0955283 1.93268,-0.117639 3.84863,0.0008504 5.7626,0.832825 1.04061,0.491815 2.09822,1.00262 3.11757,1.53356 4.07257,2.60506 5.74587,3.61392 9.03182,3.05549 1.00857,-0.0688824 2.21586,-0.450429 3.47955,-0.808731l0 0.198994c-1.26199,0.365672 -2.469,0.755722 -3.47445,0.82914 -3.33952,0.588477 -5.01396,-0.425484 -9.12366,-3.05832 -1.00347,-0.523847 -2.04493,-1.02898 -3.09262,-1.53157 -1.84707,-0.779817 -3.7205,-0.884983 -5.63107,-0.777833 -0.507973,0.0272128 -1.01396,0.0583942 -1.52023,0.089292l0 -0.267309z" /><path
           id="_82141696"
           class="fil27"
           d="M0.555595 13.5333c0.55843,-0.0221104 1.11771,-0.046772 1.67954,-0.0725675 1.93976,-0.089292 3.85487,0.0150237 5.78045,0.795691 1.04061,0.465452 2.1141,0.957551 3.15754,1.48225 4.0017,2.52115 5.71044,3.53511 8.95188,3.07505 0.960952,-0.0283467 2.09284,-0.326554 3.27262,-0.609737l0 0.197293c-1.18149,0.293105 -2.31422,0.599249 -3.27433,0.632698 -3.29105,0.491248 -5.00092,-0.527248 -9.03352,-3.0742 -1.02898,-0.519311 -2.08575,-1.00687 -3.13259,-1.48055 -1.86266,-0.730777 -3.73609,-0.822054 -5.65658,-0.7441 -0.583091,0.0238112 -1.16278,0.0442208 -1.74502,0.0592446l0 -0.261073z" /><path
           id="_81829520"
           class="fil28"
           d="M0.555595 13.7793c0.637233,-0.0008504 1.27163,-0.0133229 1.90972,-0.0317483 1.946,-0.0612288 3.85827,0.0283467 5.79718,0.758274 1.03976,0.436255 2.12997,0.911629 3.19807,1.43009 3.92913,2.4381 5.67529,3.45829 8.87081,3.09376 0.912196,0.00708667 1.96896,-0.211466 3.06626,-0.426618l0 0.197293c-1.10099,0.223939 -2.1603,0.453263 -3.07335,0.451279 -3.24173,0.394019 -4.9876,-0.629013 -8.94763,-3.09262 -1.05223,-0.512508 -2.12288,-0.981362 -3.16717,-1.42839 -1.87967,-0.681454 -3.75395,-0.757423 -5.68323,-0.708667 -0.65821,0.0158741 -1.31132,0.0221104 -1.97066,0.0158741l0 -0.258522z" /><path
           id="_86501376"
           class="fil29"
           d="M0.555595 14.0112c0.715187,0.0266459 1.4247,0.0328821 2.14074,0.02126 1.95224,-0.0308979 3.86167,0.04252 5.8122,0.72199 1.03976,0.409043 2.14584,0.865424 3.23804,1.37793 3.85742,2.35561 5.64127,3.38034 8.79172,3.11502 0.861172,0.0379846 1.84338,-0.111686 2.85933,-0.261073l0 0.198143c-1.02218,0.159308 -2.00893,0.319467 -2.8735,0.284884 -3.19269,0.295656 -4.97428,-0.730777 -8.85919,-3.10963 -1.07519,-0.505988 -2.16257,-0.957267 -3.20431,-1.3768 -1.89639,-0.633548 -3.77153,-0.694777 -5.71044,-0.674368 -0.731911,0.00878747 -1.45929,-0.00623627 -2.1946,-0.0433704l0 -0.253986z" /><path
           id="_83460312"
           class="fil30"
           d="M0.555595 14.2244c0.795691,0.06378 1.57863,0.0958118 2.36893,0.0946779 1.96017,-0.0034016 3.86904,0.055843 5.83261,0.685139 1.03891,0.380412 2.1603,0.819503 3.27603,1.32634 3.78655,2.27085 5.60697,3.30267 8.71235,3.13373 0.80788,0.0663312 1.71582,-0.0195592 2.65212,-0.113387l0 0.200128c-0.944228,0.101765 -1.85926,0.198994 -2.67252,0.136914 -3.14506,0.198427 -4.96095,-0.833392 -8.7716,-3.12891 -1.099,-0.498335 -2.20169,-0.932889 -3.24144,-1.32379 -1.91312,-0.584225 -3.78938,-0.630997 -5.73708,-0.638084 -0.805329,-0.00283467 -1.60442,-0.0442208 -2.41939,-0.122174l0 -0.250585z" /><path
           id="_110523984"
           class="fil31"
           d="M0.555595 14.4219c0.877897,0.108851 1.73453,0.173198 2.59996,0.18397 1.96641,0.0246616 3.87244,0.0688824 5.84849,0.646871 1.03721,0.3532 2.17617,0.774431 3.31599,1.27418 3.71483,2.1895 5.57154,3.22472 8.63156,3.153 0.754872,0.0912763 1.58855,0.0583942 2.44604,0.0178584l0 0.203529c-0.868259,0.0484728 -1.71072,0.0909928 -2.47183,0.00538587 -3.09716,0.0989299 -4.94848,-0.93544 -8.68372,-3.14705 -1.12225,-0.492665 -2.24166,-0.908795 -3.27971,-1.27163 -1.92814,-0.535185 -3.80497,-0.568067 -5.7626,-0.604351 -0.878747,-0.0150237 -1.74956,-0.0901424 -2.64418,-0.216002l0 -0.245766z" /><path
           id="_85631800"
           class="fil32"
           d="M0.555595 14.5997c0.960952,0.165545 1.89016,0.267309 2.82928,0.292821 1.97236,0.0532918 3.87754,0.0824888 5.86606,0.608887 1.03721,0.324853 2.1912,0.728226 3.35568,1.22288 3.6434,2.10531 5.53781,3.1479 8.55191,3.17256 0.699313,0.110552 1.45929,0.124725 2.2391,0.12841l0 0.206931c-0.792006,0.00368507 -1.56559,-0.0008504 -2.2717,-0.108851 -3.04698,0.00368507 -4.93544,-1.03692 -8.59613,-3.16179 -1.14606,-0.487563 -2.27964,-0.886684 -3.31514,-1.22203 -1.94515,-0.485862 -3.82283,-0.504287 -5.79009,-0.568067 -0.950464,-0.0311813 -1.89186,-0.143434 -2.86897,-0.327404l0 -0.244348z" /><path
           id="_112146512"
           class="fil33"
           d="M0.555595 14.7581c1.04599,0.233577 2.04691,0.377861 3.05917,0.420381 1.97973,0.0796542 3.88236,0.0955283 5.88307,0.571469 1.03635,0.297357 2.20792,0.683155 3.39565,1.171 3.57055,2.02282 5.50237,3.07051 8.47226,3.19439 0.640635,0.124725 1.32918,0.175182 2.03189,0.217703l0 0.210616c-0.717738,-0.0354333 -1.42045,-0.0796542 -2.07072,-0.201828 -2.99908,-0.0946779 -4.92297,-1.13869 -8.50882,-3.18106 -1.16902,-0.48161 -2.31933,-0.861172 -3.35199,-1.16817 -1.96187,-0.43824 -3.84154,-0.441641 -5.81674,-0.533768 -1.02133,-0.0476224 -2.03274,-0.206931 -3.09376,-0.458366l0 -0.242364z" /><path
           id="_85207312"
           class="fil34"
           d="M0.555595 14.8987c1.13358,0.308979 2.20622,0.506272 3.28935,0.565516 1.98568,0.110552 3.88746,0.110552 5.89979,0.535469 1.03635,0.26901 2.2238,0.63695 3.43618,1.11856 3.49826,1.94061 5.46722,2.99199 8.39175,3.21395 0.58139,0.133513 1.19736,0.216002 1.82496,0.286868l0 0.216569c-0.64432,-0.0663312 -1.27617,-0.14145 -1.87173,-0.276947 -2.94862,-0.191057 -4.90794,-1.24045 -8.42095,-3.19637 -1.19113,-0.47509 -2.35759,-0.839629 -3.38856,-1.11856 -1.9769,-0.387499 -3.85657,-0.377861 -5.8431,-0.497201 -1.09021,-0.0671816 -2.16994,-0.279782 -3.3177,-0.608036l0 -0.239813z" /><path
           id="_84003360"
           class="fil35"
           d="M0.555595 15.0201c1.22486,0.393735 2.36468,0.651407 3.51952,0.731911 1.99362,0.137198 3.89172,0.121891 5.91652,0.49635 1.03635,0.242364 2.23882,0.591879 3.4753,1.06725 3.42626,1.85756 5.43434,2.91234 8.31295,3.23266 0.519311,0.1406 1.06442,0.242364 1.61775,0.337042l0 0.223088c-0.571753,-0.0921267 -1.13358,-0.190206 -1.6699,-0.331089 -2.90185,-0.289136 -4.89632,-1.34335 -8.33336,-3.2165 -1.21607,-0.467437 -2.39643,-0.813266 -3.4257,-1.06385 -1.99476,-0.339877 -3.87414,-0.314081 -5.86975,-0.463752 -1.15938,-0.0867408 -2.30714,-0.358302 -3.54333,-0.773297l0 -0.239813z" /><path
           id="_83451920"
           class="fil36"
           d="M0.555595 15.1218c1.31755,0.490114 2.52484,0.814117 3.74942,0.915881 2.00014,0.166395 3.89568,0.136348 5.93438,0.459216 1.03465,0.214301 2.25413,0.545957 3.51499,1.01595 3.35398,1.77337 5.39806,2.83523 8.23244,3.25221 0.456665,0.1406 0.931188,0.255687 1.41081,0.363688l0 0.231876c-0.500035,-0.108001 -0.994685,-0.223088 -1.46921,-0.364822 -2.85366,-0.387499 -4.88385,-1.44596 -8.24662,-3.23351 -1.23875,-0.461767 -2.43526,-0.791156 -3.4617,-1.01311 -2.01063,-0.29027 -3.89285,-0.251435 -5.89724,-0.429169 -1.22656,-0.108001 -2.4398,-0.446177 -3.76727,-0.95585l0 -0.242364z" /><path
           id="_88166368"
           class="fil37"
           d="M0.555595 15.2057c1.41422,0.594713 2.6884,0.992134 3.97874,1.11856 2.0078,0.193891 3.90164,0.14967 5.95195,0.422366 1.03465,0.185671 2.27,0.499752 3.55382,0.962653 3.28425,1.69116 5.36461,2.75842 8.15307,3.27234 0.393735,0.136348 0.797392,0.255971 1.20445,0.369924l0 0.237262 0 0.0017008c-0.430303,-0.115938 -0.855786,-0.236978 -1.26993,-0.377861 -2.80349,-0.483878 -4.86883,-1.54688 -8.15732,-3.24938 -1.26369,-0.455815 -2.47523,-0.767345 -3.49996,-0.962653 -2.02735,-0.240947 -3.90872,-0.186805 -5.9219,-0.393168 -1.29374,-0.130962 -2.57161,-0.543122 -3.99291,-1.15739l0 -0.244348z" /><path
           id="_82652712"
           class="fil38"
           d="M0.555595 15.2704c1.51428,0.710651 2.85139,1.18943 4.20977,1.33995 2.01233,0.221955 3.90504,0.16271 5.96783,0.384948 1.03352,0.158458 2.28503,0.454681 3.59464,0.911346 3.2114,1.60811 5.32918,2.68046 8.07228,3.2919 0.328538,0.125859 0.661895,0.240663 0.99752,0.3549l0 0.0354333c0,0.0717171 -0.00623627,0.139749 -0.0178584,0.20608 -0.35405,-0.115938 -0.706966,-0.234427 -1.05024,-0.364538 -2.75586,-0.58139 -4.85749,-1.64779 -8.07058,-3.26695 -1.28581,-0.450429 -2.5152,-0.742683 -3.53625,-0.910779 -2.04436,-0.191057 -3.92658,-0.123875 -5.95025,-0.358302 -1.35837,-0.156757 -2.69917,-0.647722 -4.21685,-1.3751l0 -0.248884z" /><path
           id="_86566072"
           class="fil39"
           d="M0.555595 15.3183c1.61604,0.834526 3.01665,1.40174 4.43881,1.57778 2.02027,0.251435 3.91071,0.176033 5.98568,0.347814 1.03267,0.130962 2.3009,0.408759 3.63348,0.860038 3.13996,1.52477 5.29544,2.60279 7.99376,3.31316 0.258238,0.10715 0.519311,0.21175 0.782368,0.314365 -0.00992134,0.081355 -0.0283467,0.160159 -0.0549926,0.236128 -0.270711,-0.103465 -0.539721,-0.208915 -0.80618,-0.318617 -2.70626,-0.67947 -4.84246,-1.75041 -7.98214,-3.28481 -1.30877,-0.445043 -2.55205,-0.720289 -3.57338,-0.858337 -2.0591,-0.143434 -3.94246,-0.0609454 -5.97491,-0.324003 -1.4213,-0.182269 -2.82475,-0.759974 -4.44249,-1.60867l0 -0.254837z" /><path
           id="_87989968"
           class="fil40"
           d="M0.555595 15.3492c1.72206,0.966338 3.1839,1.62908 4.66898,1.83375 2.0265,0.278648 3.91411,0.190206 6.00241,0.310396 1.03182,0.102615 2.31677,0.363688 3.67515,0.808164 3.06711,1.44058 5.25746,2.52541 7.91298,3.33159 0.180568,0.0822054 0.363971,0.163844 0.547091,0.245199 -0.0204096,0.0796542 -0.0496067,0.157608 -0.08504,0.229041 -0.18312,-0.0785203 -0.366239,-0.159025 -0.547658,-0.241514 -2.65835,-0.776982 -4.82914,-1.85302 -7.89455,-3.30069 -1.33286,-0.43909 -2.59202,-0.696478 -3.61052,-0.80788 -2.07526,-0.0929771 -3.96003,0.0034016 -6.00269,-0.287719 -1.4831,-0.210616 -2.94579,-0.881298 -4.66615,-1.86011l0 -0.260223z" /><path
           id="_85316704"
           class="fil41"
           d="M0.555595 15.365c1.83006,1.10637 3.35313,1.87088 4.89916,2.10446 2.03331,0.306995 3.91921,0.203529 6.01913,0.272695 1.03182,0.0751187 2.33265,0.317483 3.71398,0.755722 2.99653,1.35922 5.22571,2.44774 7.83361,3.35199l0.303593 0.148537c-0.0291971,0.0779534 -0.0663312,0.154206 -0.111686,0.223939l-0.283183 -0.137198c-2.60874,-0.875062 -4.81667,-1.95564 -7.80668,-3.3211 -1.35752,-0.43087 -2.63114,-0.671533 -3.64878,-0.754872 -2.09113,-0.0422366 -3.97591,0.0663312 -6.02906,-0.252002 -1.54234,-0.239813 -3.06456,-1.00971 -4.89009,-2.12487l0 -0.267309z" /><path
           id="_112631384"
           class="fil42"
           d="M0.555595 15.365c1.94345,1.25406 3.52378,2.12657 5.12905,2.39019 2.03983,0.336475 3.9246,0.218553 6.03784,0.236411 1.03012,0.046772 2.34682,0.271561 3.75225,0.704415 2.92368,1.27503 5.18914,2.36893 7.75367,3.36985l0.0549926 0.0300475c-0.0362838,0.0779534 -0.0805046,0.150521 -0.132662,0.216852l-0.0204096 -0.00992134c-2.56027,-0.972575 -4.80249,-2.0574 -7.71937,-3.33697 -1.37963,-0.425767 -2.66969,-0.648572 -3.68393,-0.703565 -2.10786,0.00453547 -3.99376,0.130111 -6.0557,-0.218553 -1.60159,-0.26986 -3.18135,-1.14322 -5.11573,-2.40351l0 -0.275246z" /><path
           id="_111561360"
           class="fil43"
           d="M0.555595 15.35c2.06024,1.40968 3.69556,2.39728 5.35922,2.69208 2.04606,0.362838 3.92913,0.231025 6.05457,0.197293 1.02927,0.0195592 2.36298,0.22734 3.79194,0.653108 2.77627,1.16108 5.03012,2.23258 7.47077,3.30069 -0.0470555,0.0788038 -0.102615,0.150521 -0.164694,0.214301 -2.40862,-1.03267 -4.62646,-2.08858 -7.36702,-3.24258 -1.40429,-0.418397 -2.70881,-0.623627 -3.72192,-0.651123 -2.12487,0.0538587 -4.01162,0.192757 -6.0832,-0.181419 -1.65913,-0.301042 -3.2936,-1.28751 -5.33966,-2.69719l0 -0.285168z" /><path
           id="_113991624"
           class="fil44"
           d="M0.555595 15.3228c2.17873,1.57069 3.87074,2.67763 5.58741,3.00588 2.05485,0.391184 3.93452,0.243498 6.07243,0.159308 1.03012,-0.00708667 2.378,0.182269 3.8319,0.6018 2.60619,1.03891 4.82631,2.07526 7.13061,3.18673 -0.0547091,0.0751187 -0.117639,0.145135 -0.187372,0.20608 -2.26462,-1.07264 -4.43994,-2.0866 -7.00361,-3.11672 -1.4264,-0.412444 -2.74679,-0.60095 -3.7582,-0.598965 -2.13961,0.102615 -4.02721,0.256537 -6.10871,-0.14882 -1.71497,-0.33279 -3.40444,-1.43349 -5.56445,-3.00078l0 -0.294522z" /><path
           id="_112734696"
           class="fil45"
           d="M0.555595 15.2811c2.3009,1.73879 4.04507,2.97243 5.81929,3.33357 2.05939,0.420381 3.93707,0.257388 6.0883,0.123025 1.02842,-0.0362838 2.39388,0.135214 3.87159,0.549359 2.4415,0.924952 4.61314,1.9168 6.7947,3.05124 -0.0612288,0.0754022 -0.130111,0.141733 -0.208065,0.199277 -2.13536,-1.09021 -4.25484,-2.05854 -6.64588,-2.97158 -1.45022,-0.406208 -2.78563,-0.575438 -3.79364,-0.547091 -2.15832,0.152222 -4.04677,0.319467 -6.13621,-0.113103 -1.76883,-0.364538 -3.51215,-1.5894 -5.79009,-3.31855l0 -0.306144z" /><path
           id="_81027192"
           class="fil46"
           d="M0.555595 15.227c2.42648,1.91425 4.22195,3.27886 6.04861,3.67515 2.06704,0.447027 3.94331,0.270994 6.10502,0.0841896 1.02927,-0.0629296 2.4106,0.089292 3.91241,0.497201 2.28134,0.816101 4.39629,1.76033 6.46786,2.9027 -0.0663312,0.0725675 -0.1423,0.137198 -0.224789,0.191057 -2.02027,-1.09276 -4.07597,-2.00865 -6.29977,-2.81142 -1.47516,-0.399121 -2.82645,-0.551343 -3.83275,-0.49465 -2.17419,0.200128 -4.06265,0.383247 -6.16342,-0.0779534 -1.82127,-0.399972 -3.6142,-1.74842 -6.01318,-3.64765l0 -0.318617z" /><path
           id="_87397080"
           class="fil47"
           d="M0.555595 15.1635c2.55489,2.09085 4.40167,3.59351 6.27766,4.02466 2.07441,0.475941 3.94869,0.283183 6.12288,0.0476224 1.02842,-0.0918432 2.42563,0.0442208 3.95209,0.444192 2.12742,0.714336 4.17688,1.60726 6.14868,2.74084 -0.0717171,0.0714336 -0.152222,0.134363 -0.239813,0.185671 -1.91425,-1.08058 -3.89909,-1.94231 -5.96556,-2.63964 -1.49642,-0.392885 -2.86358,-0.528382 -3.86875,-0.443342 -2.18836,0.249451 -4.0788,0.445893 -6.18836,-0.04252 -1.87343,-0.435405 -3.71682,-1.9151 -6.23882,-3.98583l0 -0.331656z" /><path
           id="_112362776"
           class="fil48"
           d="M0.555595 15.0889c2.68755,2.27539 4.58139,3.91779 6.50868,4.3858 2.07951,0.503437 3.95209,0.296506 6.14046,0.00963787 1.02672,-0.118489 2.4398,-0.0008504 3.99121,0.392885 1.97945,0.616824 3.95663,1.45589 5.83431,2.56906 -0.0742683,0.0708667 -0.158458,0.132662 -0.249451,0.182269 -1.81872,-1.05733 -3.72475,-1.86096 -5.63986,-2.46106 -1.52193,-0.386649 -2.90327,-0.505138 -3.90589,-0.392885 -2.20622,0.298207 -4.09723,0.510807 -6.21671,-0.00708667 -1.92219,-0.468854 -3.81405,-2.0866 -6.46276,-4.33421l0 -0.344412z" /><path
           id="_83470440"
           class="fil49"
           d="M0.555595 15.0042c2.8222,2.46276 4.76366,4.252 6.73801,4.75629 2.0866,0.532918 3.9572,0.31068 6.15803,-0.0272128 1.02587,-0.147119 2.45596,-0.0462051 4.0309,0.341577 1.83913,0.527248 3.73723,1.30593 5.52817,2.38821 -0.0776699,0.0717171 -0.165261,0.132946 -0.259089,0.179718 -1.7283,-1.02105 -3.55297,-1.76458 -5.32294,-2.27425 -1.54518,-0.382397 -2.94239,-0.481327 -3.94246,-0.340727 -2.22295,0.347814 -4.11395,0.573453 -6.24222,0.0274963 -1.9718,-0.505421 -3.91071,-2.26263 -6.6884,-4.69279l0 -0.358302z" /><path
           id="_88332840"
           class="fil50"
           d="M0.555595 14.9104c2.96024,2.65552 4.94678,4.59528 6.9679,5.13613 2.09397,0.561831 3.96287,0.324569 6.17504,-0.0646304 1.02587,-0.174332 2.47098,-0.0921267 4.07002,0.29027 1.7042,0.442492 3.51924,1.16193 5.22911,2.20424 -0.0816384,0.0708667 -0.17093,0.130962 -0.26816,0.177167 -1.64354,-0.97711 -3.37977,-1.65941 -5.01226,-2.0849 -1.56814,-0.37531 -2.9815,-0.457515 -3.98044,-0.287719 -2.23797,0.395436 -4.13011,0.635249 -6.26887,0.0609454 -2.01942,-0.541422 -4.0034,-2.44235 -6.91234,-5.05818l0 -0.373326z" /></g><g
         id="g92"><path
           id="_82721344"
           class="fil51"
           d="M23.3735 21.8241c-0.347814,0.0549926 -0.687407,0.108001 -1.0185,0.159308 -1.65998,0.307278 -3.07335,0.567217 -4.31125,0.764793l1.22117 -0.00368507c0.937141,-0.16186 1.96726,-0.351215 3.11303,-0.564666l0.932889 -0.146836c0.0272128,-0.0671816 0.0484728,-0.137198 0.0626462,-0.208915zm-22.8179 -5.15201l0 -0.274112c2.94692,1.67671 5.423,4.16158 7.45291,5.22259 0.982212,0.51591 1.8655,0.889519 2.74424,1.13897l-0.753171 0.0017008c-0.692793,-0.242364 -1.40259,-0.560981 -2.17334,-0.965204 -1.99022,-1.03891 -4.40507,-3.45121 -7.27064,-5.12395z" /><path
           id="_84057696"
           class="fil52"
           d="M23.3877 21.7428c-0.511374,0.0629296 -1.00602,0.122174 -1.48565,0.177167 -2.07072,0.362838 -3.75565,0.648572 -5.19651,0.830841l1.46552 -0.0025512c1.10184,-0.16923 2.33718,-0.381546 3.74856,-0.629296 0.458366,-0.0538587 0.932889,-0.111402 1.42215,-0.171781 0.02126,-0.0654808 0.0371342,-0.133513 0.0459216,-0.20438zm-22.8321 -4.98108l0 -0.275246c2.80009,1.60159 5.18206,3.88831 7.16179,4.9105 1.32464,0.689391 2.47155,1.12735 3.66806,1.36177l-0.972575 0.0017008c-0.919283,-0.261073 -1.84253,-0.646871 -2.87322,-1.18489 -1.93806,-0.999787 -4.26192,-3.21933 -6.98406,-4.81383z" /><path
           id="_112142784"
           class="fil53"
           d="M23.3931 21.696c-0.670682,0.0609454 -1.32039,0.115938 -1.94515,0.16271 -2.93246,0.480476 -5.08908,0.80618 -6.87577,0.894621l2.29466 -0.0034016c1.30792,-0.16186 2.80774,-0.399121 4.59358,-0.693076 0.608887,-0.0476224 1.23988,-0.100631 1.89639,-0.16186 0.0175749,-0.0646304 0.0300475,-0.130962 0.0362838,-0.198994zm-22.8375 -4.8521l0 -0.275246c2.6575,1.52307 4.94508,3.621 6.87152,4.6035 1.93268,0.998937 3.49373,1.47941 5.3768,1.58401l-1.77422 0.0034016c-1.23081,-0.2469 -2.41145,-0.699029 -3.77606,-1.40344 -1.88307,-0.961803 -4.1148,-2.99993 -6.69804,-4.51222z" /><path
           id="_85388576"
           class="fil54"
           d="M23.3939 21.6781c-0.82744,0.0504571 -1.62823,0.0887251 -2.39813,0.118773 -7.29814,1.10779 -9.76175,1.25122 -13.8607,-0.8504 -1.8689,-0.940826 -4.06265,-2.86188 -6.57955,-4.30359l0 0.275246c2.44604,1.43009 4.58394,3.29644 6.41145,4.21572 1.89809,0.974559 3.44752,1.47431 5.26795,1.62398l2.72837 -0.00538587c1.62455,-0.108001 3.55382,-0.377011 6.03784,-0.756573 0.756573,-0.0300475 1.54234,-0.0688824 2.36099,-0.12019 0.0167245,-0.06378 0.0274963,-0.130111 0.0317483,-0.197576z" /><path
           id="_85856552"
           class="fil55"
           d="M23.3931 21.6897c-0.981362,0.0317483 -1.93438,0.0433704 -2.85026,0.0450712 -7.13259,0.994685 -9.6237,1.05932 -13.6971,-1.01311 -1.80965,-0.899157 -3.91042,-2.6541 -6.29013,-4.01134l0 0.273262c2.31337,1.34703 4.3583,3.05039 6.12458,3.92998 4.14514,2.11069 6.65297,2.03614 13.8615,1.02218 0.903692,-0.00283467 1.84168,-0.017008 2.81879,-0.0513075 0.0158741,-0.06378 0.0272128,-0.12841 0.0325987,-0.194742z" /><path
           id="_113254656"
           class="fil56"
           d="M23.3897 21.7269c-1.13103,0.00793707 -2.23457,-0.0167245 -3.29927,-0.0547091 -6.96705,0.882149 -9.4865,0.867975 -13.5367,-1.17525 -1.74616,-0.858337 -3.75027,-2.45482 -5.99816,-3.72816l0 0.274112c2.18411,1.26114 4.13351,2.81142 5.838,3.65049 4.1165,2.07866 6.64928,2.0849 13.6897,1.18036 1.04883,0.0362838 2.13621,0.0575438 3.26809,0.0442208 0.0178584,-0.0617958 0.0311813,-0.125576 0.038268,-0.191057z" /><path
           id="_83808208"
           class="fil57"
           d="M23.3806 21.7915c-1.27333,-0.0221104 -2.52739,-0.0929771 -3.74318,-0.181419 -6.80349,0.769896 -9.3493,0.675218 -13.3748,-1.33711 -1.68067,-0.816668 -3.58926,-2.26547 -5.70704,-3.45376l0 0.273262c2.05655,1.1761 3.91241,2.58238 5.55113,3.37949 4.08844,2.04776 6.64673,2.13195 13.5174,1.3408 1.19736,0.0839062 2.43186,0.151371 3.7069,0.166395 0.0223939,-0.0612288 0.038268,-0.123025 0.0496067,-0.187655z" /><path
           id="_51272768"
           class="fil58"
           d="M23.3613 21.8808c-1.40458,-0.0555595 -2.80802,-0.18397 -4.17688,-0.331656 -6.63709,0.656509 -9.2104,0.482177 -13.213,-1.50181 -1.61321,-0.774431 -3.42485,-2.08405 -5.41592,-3.18843l0 0.274396c1.93268,1.09021 3.69386,2.3627 5.2654,3.11842 4.05924,2.01687 6.64219,2.17788 13.3431,1.49982 1.34675,0.142584 2.72468,0.264758 4.13521,0.31068 0.0249451,-0.0583942 0.0459216,-0.11934 0.0620792,-0.181419z" /><path
           id="_82181840"
           class="fil59"
           d="M23.3259 21.995l-0.0249451 -0.00368507c-1.514,-0.0918432 -3.05464,-0.287435 -4.56977,-0.505988 -6.4724,0.545107 -9.07406,0.292821 -13.0508,-1.66282 -1.54263,-0.731911 -3.2576,-1.91227 -5.1248,-2.9336l0 0.274396c1.81135,1.00716 3.47785,2.15378 4.97853,2.86812 4.03005,1.98483 6.63993,2.22465 13.1716,1.65828 1.49444,0.212317 3.01127,0.399972 4.54057,0.477925 0.0308979,-0.0541422 0.0575438,-0.112536 0.0796542,-0.172631z" /><path
           id="_85642896"
           class="fil60"
           d="M23.2516 22.1569c-0.141733,-0.0246616 -0.284317,-0.0476224 -0.428318,-0.0688824 -1.48338,-0.140883 -3.01779,-0.391184 -4.54511,-0.663879 -6.306,0.432003 -8.93601,0.0992134 -12.8892,-1.82553 -1.46892,-0.690242 -3.08554,-1.75126 -4.83339,-2.68925l0 0.275246c1.69371,0.922968 3.26469,1.95564 4.69279,2.62547 4.0017,1.95479 6.63539,2.2734 12.9978,1.81957 1.50634,0.265325 3.01864,0.507973 4.51591,0.633548 0.125576,0.02126 0.250585,0.0433704 0.37531,0.0671816 0.0433704,-0.0547091 0.081355,-0.112253 0.114237,-0.173482z" /><path
           id="_84628464"
           class="fil61"
           d="M23.1232 22.3463c-0.255687,-0.0583942 -0.514209,-0.112253 -0.776132,-0.16271 -1.45475,-0.186805 -2.9832,-0.493799 -4.52215,-0.821203 -6.14131,0.317766 -8.79711,-0.0921267 -12.7271,-1.98937 -1.39267,-0.646021 -2.91404,-1.59649 -4.54227,-2.45397l0 0.275246c1.57778,0.842463 3.05209,1.76628 4.40536,2.39473 3.97335,1.92389 6.63256,2.32103 12.826,1.9786 1.51683,0.320317 3.02289,0.617674 4.49011,0.789455 0.228474,0.0476224 0.454114,0.0989299 0.679753,0.153922 0.060095,-0.0487563 0.115938,-0.104316 0.166395,-0.164694z" /><path
           id="_84783848"
           class="fil62"
           d="M22.9109 22.5455c-0.341577,-0.0955283 -0.688541,-0.184253 -1.04089,-0.265608 -1.42385,-0.234427 -2.94749,-0.598115 -4.49805,-0.979661 -5.9769,0.206364 -8.65991,-0.284884 -12.5652,-2.15208 -1.315,-0.603501 -2.73886,-1.4522 -4.25115,-2.23088l0 0.276947c1.46382,0.765644 2.84346,1.58855 4.11934,2.17532 3.94331,1.89016 6.62915,2.3661 12.6537,2.13706 1.52647,0.374176 3.02743,0.727376 4.4629,0.945078 0.29112,0.0725675 0.577705,0.151371 0.861739,0.235277 0.0921267,-0.0362838 0.178017,-0.0839062 0.257671,-0.14145z" /><path
           id="_51900152"
           class="fil63"
           d="M22.5481 22.7216c-0.378712,-0.123025 -0.76366,-0.238963 -1.15569,-0.346113 -1.39381,-0.280349 -2.91149,-0.69988 -4.47339,-1.13784 -5.81135,0.0938275 -8.523,-0.476224 -12.4014,-2.31422 -1.23648,-0.56013 -2.56282,-1.315 -3.96202,-2.01857l0 0.278931c1.35299,0.690242 2.63539,1.42102 3.8319,1.96528 3.91666,1.85926 6.62547,2.41315 12.4819,2.29636 1.53724,0.428318 3.03253,0.834526 4.43711,1.09928 0.212317,0.0626462 0.422932,0.128127 0.631847,0.196442l0.530083 -0.0008504c0.0272128,-0.00538587 0.0530083,-0.0116221 0.0796542,-0.0187088z" /><path
           id="_113062592"
           class="fil64"
           d="M21.724 22.7411c-0.266175,-0.0929771 -0.535185,-0.183403 -0.80788,-0.270144 -1.36461,-0.32627 -2.8769,-0.803345 -4.45043,-1.29459 -5.64496,-0.0204096 -8.38466,-0.668982 -12.2412,-2.47778 -1.15399,-0.51761 -2.38225,-1.18574 -3.66891,-1.81674l0 0.279782c1.24329,0.617674 2.42931,1.26455 3.54589,1.76543 3.88746,1.82893 6.62292,2.46276 12.3078,2.45737 1.54943,0.481327 3.03791,0.944228 4.41131,1.25491l0.298207 0.103465 0.605202 -0.0017008z" /><path
           id="_86566016"
           class="fil65"
           d="M20.9099 22.7428c-0.155623,-0.060095 -0.31153,-0.116788 -0.470838,-0.174332 -1.33513,-0.37616 -2.84147,-0.907094 -4.42633,-1.4556 -5.48026,-0.132096 -8.24662,-0.859471 -12.0785,-2.63823 -1.0698,-0.47509 -2.19999,-1.06442 -3.37864,-1.62625l0 0.281199c1.13528,0.548792 2.2255,1.11856 3.2593,1.57693 3.85912,1.79831 6.61838,2.50896 12.1358,2.61583 1.55935,0.536319 3.04245,1.05393 4.3841,1.41081l0.0291971 0.00963787 0.545957 0z" /><path
           id="_85185328"
           class="fil66"
           d="M20.1559 22.7437l-0.191907 -0.0788038c-1.30707,-0.422082 -2.80802,-1.01141 -4.40422,-1.61406 -5.315,-0.243215 -8.10885,-1.05138 -11.9158,-2.80179 -0.985614,-0.43172 -2.01857,-0.946779 -3.08837,-1.44511l0 0.283183c1.03012,0.484161 2.02395,0.982496 2.97328,1.39919 3.82822,1.76628 6.61413,2.55489 11.9617,2.77599 1.46807,0.551343 2.85309,1.08596 4.09808,1.48225l0.567217 -0.0008504z" /><path
           id="_111334304"
           class="fil67"
           d="M19.4455 22.7445c-1.26908,-0.468004 -2.74878,-1.10524 -4.33818,-1.75664 -5.15031,-0.355751 -7.97222,-1.24329 -11.7554,-2.96365 -0.897172,-0.3892 -1.83176,-0.838778 -2.7964,-1.27333l0 0.284884c0.925803,0.423216 1.82383,0.854936 2.6867,1.2311 3.80072,1.7334 6.6113,2.60251 11.79,2.93246 1.38587,0.564666 2.6867,1.11601 3.84863,1.54603l0.564666 -0.0008504z" /><path
           id="_82406120"
           class="fil68"
           d="M18.7462 22.7471c-1.19113,-0.504287 -2.58663,-1.15739 -4.09184,-1.82099 -4.98476,-0.469138 -7.83446,-1.43548 -11.5927,-3.12749 -0.808731,-0.345829 -1.64694,-0.733612 -2.50613,-1.11147l0 0.286868c0.822904,0.366239 1.62568,0.737864 2.39898,1.0715 3.77351,1.70364 6.60874,2.64956 11.6193,3.09291 1.32039,0.58054 2.55489,1.14861 3.64935,1.60867l0.522996 0z" /><path
           id="_81834184"
           class="fil69"
           d="M18.096 22.7482c-1.12933,-0.536319 -2.45482,-1.20615 -3.89455,-1.8842 -4.82035,-0.582241 -7.69641,-1.62738 -11.4308,-3.28907 -0.719439,-0.305294 -1.45844,-0.636383 -2.21501,-0.961236l0 0.29027c0.722273,0.31238 1.42754,0.628446 2.1141,0.920417 3.74233,1.6716 6.60421,2.69634 11.4441,3.25306 1.27163,0.596414 2.45114,1.18319 3.49174,1.6716l0.490398 -0.0008504z" /><path
           id="_83244992"
           class="fil70"
           d="M17.4791 22.7491c-1.07689,-0.564666 -2.34682,-1.25321 -3.73014,-1.9477 -4.65452,-0.694777 -7.55978,-1.81872 -11.2704,-3.45121 -0.626462,-0.263057 -1.26908,-0.541705 -1.92304,-0.816101l0 0.29112c0.620225,0.263057 1.23195,0.529233 1.82751,0.779817 3.71483,1.63957 6.60052,2.74311 11.2712,3.41039 1.2294,0.614273 2.36298,1.22032 3.35937,1.73453l0.465452 -0.0008504z" /><path
           id="_112351448"
           class="fil71"
           d="M16.887 22.7499c-1.03097,-0.593013 -2.25214,-1.29913 -3.59011,-2.01063 -4.49096,-0.80703 -7.42371,-2.01063 -11.1085,-3.61392 -0.535469,-0.222238 -1.07973,-0.453263 -1.63277,-0.678903l0 0.293105c0.521295,0.214868 1.0355,0.433421 1.54064,0.644037 3.68592,1.60896 6.59826,2.79215 11.0997,3.57083 1.19283,0.632698 2.28928,1.25746 3.24513,1.79633l0.445893 -0.0008504z" /><path
           id="_112637128"
           class="fil72"
           d="M16.3172 22.7508c-0.992134,-0.619375 -2.17419,-1.3442 -3.47332,-2.07328 -4.3257,-0.919566 -7.28481,-2.20282 -10.9475,-3.77691 -0.440791,-0.181419 -0.887818,-0.366523 -1.3408,-0.547941l0 0.294805c0.422932,0.172631 0.841613,0.346113 1.25406,0.515059 3.65729,1.57778 6.59457,2.83779 10.9271,3.73156 1.16193,0.650556 2.22833,1.29403 3.1496,1.85756l0.43087 -0.0008504z" /><path
           id="_112302896"
           class="fil73"
           d="M15.7625 22.7516c-0.959535,-0.64517 -2.10446,-1.38757 -3.37184,-2.13621 -4.15988,-1.03267 -7.14648,-2.39473 -10.7845,-3.93962 -0.346963,-0.141733 -0.696478,-0.283183 -1.05053,-0.424066l0 0.298491c0.325703,0.129828 0.647722,0.261923 0.967189,0.391751 3.62923,1.54603 6.59117,2.88513 10.7547,3.8903 1.13784,0.668982 2.17419,1.33343 3.06711,1.9202l0.41783 -0.0008504z" /><path
           id="_85414800"
           class="fil74"
           d="M15.2207 22.7525c-0.929204,-0.668982 -2.04408,-1.43264 -3.28311,-2.19885 -3.99461,-1.14606 -7.00957,-2.58663 -10.6226,-4.10261 -0.251435,-0.101765 -0.504571,-0.202679 -0.759408,-0.302743l0 0.301042c0.228474,0.0901424 0.455815,0.181419 0.681454,0.272412 3.59889,1.51513 6.58748,2.9319 10.5821,4.04961 1.11402,0.688257 2.12628,1.37226 2.99369,1.982l0.407909 -0.0008504z" /><path
           id="_51982184"
           class="fil75"
           d="M14.6907 22.7533c-0.902558,-0.692793 -1.99192,-1.47686 -3.20601,-2.26263 -3.8302,-1.25661 -6.87152,-2.77883 -10.4619,-4.26532l-0.467153 -0.185104 0 0.304443 0.394586 0.155907c3.57168,1.48395 6.58323,2.97952 10.4095,4.20948 1.09645,0.70895 2.08688,1.41223 2.9285,2.04408l0.402523 -0.0008504z" /><path
           id="_82668872"
           class="fil76"
           d="M14.1668 22.7542c-0.877897,-0.716604 -1.9426,-1.51938 -3.13543,-2.32556 -3.66438,-1.37056 -6.73432,-2.9696 -10.2989,-4.42803l-0.176883 -0.0691659 0 0.307278 0.108001 0.0413862c3.54248,1.4522 6.58125,3.02658 10.236,4.36822 1.07973,0.728226 2.0523,1.45192 2.8735,2.10701l0.393735 -0.00113387z" /><path
           id="_82311760"
           class="fil77"
           d="M13.6526 22.7553c-0.856637,-0.739848 -1.89894,-1.56389 -3.0742,-2.38849 -3.46113,-1.46722 -6.52909,-3.12636 -10.0228,-4.54426l0 0.308979c3.43902,1.40514 6.45737,3.02629 9.88562,4.45468 1.0647,0.748636 2.02027,1.49189 2.82305,2.16994l0.38835 -0.0008504z" /><path
           id="_82767656"
           class="fil78"
           d="M13.1446 22.7561c-0.837077,-0.762809 -1.86181,-1.60697 -3.0192,-2.45227 -3.20459,-1.53356 -6.21671,-3.21848 -9.56984,-4.58819l0 0.31238c3.29729,1.35554 6.25555,3.00163 9.4264,4.49805 1.05308,0.767061 1.99192,1.53185 2.77769,2.23003l0.384948 0z" /><path
           id="_51260016"
           class="fil79"
           d="M12.6421 22.7561c-0.818652,-0.78492 -1.82751,-1.64949 -2.96988,-2.51407 -2.95656,-1.59393 -5.89894,-3.30012 -9.11658,-4.6344l0 0.314932c3.15924,1.31784 6.04861,2.98661 8.96719,4.54142 1.04061,0.787754 1.96698,1.57267 2.73602,2.29381l0.383247 -0.0017008z" /><path
           id="_82845480"
           class="fil80"
           d="M12.1449 22.7578c-0.801928,-0.80788 -1.79576,-1.69371 -2.92566,-2.57785 -2.7159,-1.64581 -5.57693,-3.37155 -8.6636,-4.67862l0 0.318617c3.02743,1.28751 5.83176,2.97413 8.50854,4.58394 1.03097,0.80703 1.9443,1.61151 2.69917,2.35391l0.381546 0z" /><path
           id="_86498936"
           class="fil81"
           d="M11.6499 22.7578c-0.78662,-0.82914 -1.76543,-1.73538 -2.88399,-2.63964 -2.48402,-1.69201 -5.24924,-3.43278 -8.21033,-4.71944l0 0.321168c2.89816,1.26653 5.60612,2.96903 8.04932,4.62306 1.02218,0.825455 1.92474,1.65204 2.66629,2.4157l0.378712 -0.0008504z" /><path
           id="_84435472"
           class="fil82"
           d="M11.1607 22.7595c-0.772447,-0.852952 -1.73964,-1.7796 -2.84686,-2.70427 -2.26093,-1.73 -4.92382,-3.48126 -7.7582,-4.75572l0 0.324003c2.77089,1.25491 5.3734,2.9662 7.58926,4.65736 1.01595,0.846999 1.90688,1.69371 2.63709,2.47863l0.378712 0z" /></g><path
         id="_82087920"
         class="fil83"
         d="M6.32358 3.6726c-0.468854,-0.283183 -0.798243,17.9383 0.37616,18.3145 1.1744,0.377861 15.3579,-8.56778 16.0624,-9.32181 0.704415,-0.753171 -14.0429,-9.982 -16.4385,-8.9927z" /><g
         id="g127"><path
           id="_81667600"
           class="fil84"
           d="M23.2409 10.4494c-2.29636,0.104316 -4.11395,-0.31238 -6.45369,-1.41422 -2.47523,-1.16023 -5.60782,-4.14315 -9.29913,-5.79434l-0.649422 0c3.88746,1.59195 7.17936,4.78634 9.75721,5.99447 2.41599,1.13869 4.2795,1.56105 6.64503,1.44398l0 -0.229892z" /><path
           id="_82255088"
           class="fil85"
           d="M23.2409 10.2343c-2.45029,0.12756 -4.33619,-0.288569 -6.78393,-1.43094 -2.4707,-1.14322 -5.5653,-3.98469 -9.17752,-5.56247l-0.659344 0c3.8132,1.5174 7.0725,4.57317 9.65204,5.76685 2.5203,1.17894 4.45015,1.60017 6.96875,1.45844l0 -0.231876z" /><path
           id="_112489680"
           class="fil86"
           d="M23.2409 10.0237c-2.60789,0.146836 -4.56098,-0.270711 -7.11218,-1.4522 -2.46276,-1.12451 -5.51485,-3.82538 -9.04401,-5.33059l-0.673517 0c3.73723,1.44483 6.95996,4.36255 9.53611,5.53951 2.62462,1.21579 4.61852,1.63815 7.2936,1.47601l0 -0.232726z" /><path
           id="_84979656"
           class="fil87"
           d="M23.2409 9.81674c-2.76805,0.16271 -4.78747,-0.259372 -7.44129,-1.478 -2.45142,-1.10439 -5.4556,-3.66267 -8.89717,-5.09787l-0.68769 0c3.65559,1.3768 6.83892,4.15194 9.40855,5.31132 2.72383,1.25207 4.78237,1.67586 7.6176,1.49897l0 -0.234427z" /><path
           id="_112737016"
           class="fil88"
           d="M23.2409 9.61406c-2.9319,0.173482 -5.0168,-0.253136 -7.77068,-1.50804 -2.43441,-1.08313 -5.39012,-3.49883 -8.74042,-4.86514l-0.70073 0c3.5714,1.30792 6.70938,3.94302 9.2705,5.08284 2.82276,1.28666 4.94394,1.71582 7.94132,1.52845l0 -0.238112z" /><path
           id="_116615888"
           class="fil89"
           d="M23.24 9.42017c-3.09546,0.178017 -5.24499,-0.258238 -8.09808,-1.54603 -2.414,-1.06017 -5.31302,-3.33442 -8.57147,-4.63326l-0.714903 0c3.48211,1.24414 6.57416,3.73609 9.11998,4.8555 2.91857,1.31954 5.10354,1.75579 8.26532,1.56105l-0.0008504 -0.237262z" /><path
           id="_112587776"
           class="fil90"
           d="M23.24 9.23166c-3.26185,0.176033 -5.47856,-0.26986 -8.42718,-1.5894 -2.38849,-1.03522 -5.22571,-3.16888 -8.38665,-4.40139l-0.731628 0c3.39281,1.17951 6.42789,3.53086 8.95642,4.62816 3.0158,1.3493 5.26256,1.79633 8.58989,1.60329l-0.0008504 -0.240663z" /><path
           id="_82167288"
           class="fil91"
           d="M23.24 9.05393c-3.4291,0.167245 -5.71129,-0.294805 -8.75742,-1.64439 -2.35391,-1.00687 -5.12281,-2.99794 -8.17943,-4.16866l-0.751187 0c3.29445,1.11941 6.27142,3.3262 8.77585,4.39969 3.10793,1.38048 5.41847,1.84083 8.9122,1.65318l0 -0.239813z" /><path
           id="_85182656"
           class="fil92"
           d="M23.24 8.88215c-3.59719,0.154773 -5.946,-0.325703 -9.08653,-1.70449 -2.31507,-0.978527 -5.00857,-2.829 -7.95833,-3.93679l-0.768762 0c3.19269,1.06187 6.10417,3.12465 8.57657,4.1715 3.20176,1.40883 5.57608,1.88647 9.23705,1.71214l0 -0.242364z" /><path
           id="_113643448"
           class="fil93"
           d="M23.24 8.72369c-3.76359,0.131812 -6.18128,-0.371625 -9.41563,-1.77762 -2.2683,-0.947913 -4.8813,-2.6592 -7.71852,-3.70519l-0.784069 0c3.08582,1.00602 5.92304,2.92538 8.35745,3.94387 3.29275,1.43548 5.73255,1.93466 9.56077,1.78074l0 -0.241797z" /><path
           id="_82842680"
           class="fil94"
           d="M23.24 8.57345c-3.92998,0.104316 -6.41769,-0.427468 -9.74502,-1.85926 -2.21303,-0.91248 -4.73616,-2.48685 -7.45376,-3.47332l-0.802495 0c2.97243,0.951315 5.72801,2.72893 8.1165,3.71653 3.38318,1.46014 5.88931,1.98483 9.88477,1.85841l0 -0.242364z" /><path
           id="_85838208"
           class="fil95"
           d="M23.2392 8.43626c-4.09468,0.0688824 -6.65297,-0.498335 -10.0741,-1.95564 -2.14868,-0.875345 -4.57345,-2.31337 -7.16632,-3.23974l-0.819219 0c2.85281,0.898873 5.5174,2.53419 7.85203,3.48834 3.47417,1.48395 6.04918,2.04238 10.2085,1.9494l-0.0008504 -0.242364z" /><path
           id="_82065392"
           class="fil96"
           d="M23.2392 8.3104c-4.25654,0.0257955 -6.89023,-0.58054 -10.4024,-2.06165 -2.07441,-0.835377 -4.39288,-2.14074 -6.85394,-3.00787l-0.837077 0c2.72553,0.848416 5.29091,2.34484 7.56091,3.25987 3.56346,1.50719 6.21047,2.10446 10.5333,2.054l-0.0008504 -0.244348z" /><path
           id="_112795184"
           class="fil97"
           d="M23.2392 8.20069c-4.415,-0.0272128 -7.1255,-0.67947 -10.7318,-2.18468 -1.99192,-0.791156 -4.19106,-1.96641 -6.51208,-2.77514l-0.854936 0c2.59032,0.799093 5.04599,2.15832 7.24229,3.03168 3.65389,1.52987 6.37517,2.17164 10.8565,2.17164l0 -0.243498z" /><path
           id="_112412032"
           class="fil98"
           d="M23.2392 8.10347c-4.56977,-0.0875912 -7.36107,-0.792006 -11.06,-2.31933 -1.89469,-0.744384 -3.96882,-1.79463 -6.14131,-2.54326l-0.875345 0c2.44972,0.749486 4.78577,1.97321 6.89731,2.8032 3.74403,1.55226 6.54326,2.24421 11.1794,2.3026l0 -0.243215z" /><path
           id="_114751664"
           class="fil99"
           d="M23.2392 8.02296c-4.72029,-0.156757 -7.59634,-0.922117 -11.3891,-2.47155 -1.78754,-0.693927 -3.72305,-1.62228 -5.74049,-2.31054l-0.890369 0c2.29807,0.699029 4.50344,1.79349 6.51577,2.57586 3.83701,1.57267 6.7159,2.32301 11.5042,2.45142l0 -0.245199z" /><path
           id="_81495520"
           class="fil100"
           d="M23.2392 7.96003c-4.86457,-0.236128 -7.82907,-1.07065 -11.7194,-2.64134 -1.66452,-0.638084 -3.45007,-1.4505 -5.30338,-2.07781l-0.90681 0c2.13876,0.649422 4.19984,1.61746 6.10162,2.34852 3.92998,1.59195 6.89448,2.4106 11.8279,2.61583l0 -0.245199z" /><path
           id="_81896912"
           class="fil101"
           d="M23.2392 7.91496c-5.00177,-0.324853 -8.05924,-1.2362 -12.0485,-2.8273 -1.52987,-0.57969 -3.15555,-1.2824 -4.83254,-1.84679l-0.923818 0c1.96811,0.597265 3.87669,1.44596 5.65289,2.12118 4.02551,1.61123 7.08043,2.50585 12.1519,2.7981l0 -0.245199z" /><path
           id="_82520600"
           class="fil102"
           d="M23.2392 7.8903c-5.12905,-0.423216 -8.28829,-1.42385 -12.3776,-3.03536 -1.38133,-0.51676 -2.83438,-1.11516 -4.3274,-1.61406l-0.940543 0c1.79009,0.543122 3.53256,1.27758 5.16958,1.89271 4.12217,1.63107 7.27518,2.61328 12.4759,3.00248l0 -0.245766z" /><path
           id="_85429032"
           class="fil103"
           d="M23.2392 7.96173l-0.209765 -0.0946779c-5.1265,-0.539721 -8.35915,-1.63249 -12.4969,-3.24399 -1.21777,-0.450429 -2.48685,-0.949614 -3.78598,-1.38218l-0.953866 0c1.59989,0.487563 3.16264,1.11402 4.64687,1.66537 4.14315,1.61945 7.35455,2.6901 12.4986,3.19892l0.301042 0.136348 0 -0.279782z" /><path
           id="_82752960"
           class="fil104"
           d="M23.2392 8.16271c-0.231876,-0.113387 -0.468287,-0.228191 -0.70725,-0.342428 -4.95273,-0.669832 -8.21912,-1.84962 -12.3288,-3.42995 -1.03891,-0.380696 -2.1141,-0.78492 -3.20969,-1.14946l-0.968039 0c1.40089,0.429169 2.77429,0.953866 4.09014,1.43604 4.1097,1.58685 7.35199,2.74339 12.3166,3.38318 0.273262,0.130111 0.542272,0.261073 0.80703,0.390334l0 -0.287719z" /><path
           id="_111182616"
           class="fil105"
           d="M23.2392 8.39799c-0.390334,-0.20608 -0.792857,-0.414995 -1.20615,-0.624761 -4.77783,-0.800794 -8.07682,-2.06534 -12.159,-3.61477 -0.8487,-0.306995 -1.71866,-0.624761 -2.60166,-0.917582l-0.978811 0c1.19283,0.36709 2.36553,0.797959 3.49826,1.2087 4.07597,1.55396 7.35114,2.79357 12.1349,3.5663 0.451279,0.22734 0.890369,0.45383 1.3133,0.677769l-0.0008504 -0.295656z" /><path
           id="_51912200"
           class="fil106"
           d="M23.24 8.67068c-0.541705,-0.309829 -1.11232,-0.627312 -1.70534,-0.943378 -4.60152,-0.932606 -7.93509,-2.28219 -11.9898,-3.80157 -0.646021,-0.231025 -1.30281,-0.463752 -1.96811,-0.684856l-0.985047 0c0.975976,0.303309 1.93806,0.644887 2.8752,0.981362 4.04507,1.51938 7.35029,2.84487 11.9546,3.74743 0.635249,0.338176 1.24414,0.676352 1.81844,1.00376l0 -0.302743z" /><path
           id="_88819160"
           class="fil107"
           d="M23.24 8.98051c-0.684005,-0.422366 -1.42215,-0.862023 -2.20452,-1.29998 -4.42548,-1.06385 -7.79335,-2.49904 -11.82,-3.98583 -0.43257,-0.153922 -0.868826,-0.306144 -1.30962,-0.45383l-0.989299 0c0.752037,0.236978 1.49727,0.49465 2.2272,0.752888 4.01077,1.48763 7.34774,2.89731 11.7724,3.93083 0.82914,0.464602 1.60782,0.926653 2.32386,1.36914l0 -0.313231z" /><path
           id="_52144984"
           class="fil108"
           d="M23.24 9.33258c-0.813266,-0.545107 -1.72291,-1.12196 -2.70342,-1.69825 -4.2503,-1.19623 -7.65134,-2.71561 -11.6494,-4.1732l-0.641485 -0.220254 -0.985047 0c0.524697,0.168096 1.04514,0.344979 1.5585,0.525547 3.97846,1.4539 7.34661,2.94862 11.5927,4.1131 1.03352,0.606335 1.98568,1.21324 2.829,1.7779l-0.0008504 -0.324853z" /><path
           id="_85642064"
           class="fil109"
           d="M23.2409 9.73255c-0.925519,-0.675218 -2.00865,-1.41138 -3.20261,-2.14584 -4.06435,-1.32209 -7.49174,-2.92198 -11.4492,-4.34583l-0.973425 0c0.294805,0.0963787 0.588477,0.196442 0.879597,0.297357 3.94586,1.42187 7.34576,3.00078 11.4104,4.29537 1.25491,0.770746 2.38566,1.54064 3.33527,2.23627l0 -0.337325z" /><path
           id="_112561176"
           class="fil110"
           d="M23.2409 10.1867c-1.01226,-0.814117 -2.27425,-1.73283 -3.70066,-2.64616 -3.67515,-1.37226 -6.96818,-2.95372 -10.6343,-4.29962l-0.939126 0 0.203529 0.0688824c3.91496,1.38927 7.34406,3.05209 11.229,4.47878 1.50181,0.959252 2.81341,1.9202 3.84154,2.7519l0 -0.353767z" /><path
           id="_84898008"
           class="fil111"
           d="M23.2409 10.7085c-1.06357,-0.956417 -2.51152,-2.09085 -4.19984,-3.2148 -3.30437,-1.40883 -6.43526,-2.96705 -9.83346,-4.25285l-0.91333 0c3.70094,1.33088 7.03706,3.00588 10.6008,4.5023 1.7796,1.18489 3.28396,2.37347 4.34583,3.34151l0 -0.37616z" /><path
           id="_114185728"
           class="fil112"
           d="M23.2417 11.3228l-0.0459216 -0.0496067c-1.05761,-1.09021 -2.68415,-2.46531 -4.65311,-3.82538 -2.95741,-1.43292 -5.90688,-2.96563 -9.0562,-4.20693l-0.884133 0c3.42655,1.28042 6.59372,2.92821 9.78726,4.45723 1.93268,1.33456 3.52463,2.67593 4.56353,3.73354l0.288569 0.317766 0 -0.426618z" /><path
           id="_82880576"
           class="fil113"
           d="M23.2417 12.051c-0.186805,-0.214017 -0.373326,-0.43087 -0.563532,-0.650273 -1.02587,-1.14351 -2.65041,-2.5804 -4.6344,-4 -2.63454,-1.44596 -5.39126,-2.94947 -8.30955,-4.15988l-0.854936 0c3.17681,1.24243 6.15463,2.86358 9.00432,4.41301 1.94685,1.39211 3.53682,2.79555 4.54312,3.90334 0.275246,0.323152 0.545957,0.638084 0.815817,0.949614l-0.0008504 -0.455815z" /><path
           id="_87009120"
           class="fil114"
           d="M23.2426 12.8439c-0.357452,-0.425484 -0.715754,-0.864574 -1.08143,-1.31585 -0.997236,-1.19538 -2.61668,-2.69464 -4.61569,-4.1732 -2.33973,-1.4505 -4.89717,-2.92736 -7.60258,-4.11395l-0.815817 0c2.94409,1.21749 5.72121,2.80859 8.25115,4.36709 1.96102,1.45107 3.54589,2.91404 4.52186,4.07512 0.454964,0.565233 0.898306,1.11147 1.3425,1.63702l0 -0.476224z" /><path
           id="_81649376"
           class="fil115"
           d="M23.2426 13.6934c-0.529233,-0.648572 -1.05563,-1.32634 -1.59819,-2.03614 -0.968039,-1.24952 -2.58493,-2.81057 -4.59811,-4.34951 -2.07072,-1.44766 -4.43087,-2.89816 -6.937,-4.0669l-0.774998 0c2.72638,1.19991 5.3014,2.76182 7.53965,4.32173 1.97491,1.50889 3.55552,3.03366 4.4989,4.2469 0.634399,0.833676 1.24697,1.62398 1.8706,2.37432l-0.0008504 -0.490398z" /></g><polygon
         id="_49721824"
         class="fil116"
         points="18.7647,12.6715 13.1872,15.8923 7.04358,19.5297 7.08157,5.58713 13.1872,9.45248 " /><path
         id="_87305952"
         class="fil117"
         d="M1.70137 20.9811l-0.123308 0.134647m20.4388 -0.0147403l-0.138048 -0.121891" /></g><path
       class="fil118"
       d="M1.65403 3.57707l0.535469 0 0 1.50011 -0.18397 0 0 15.8475 19.9433 0 0 -15.8475 -0.0246616 0 0 -1.50011 0.375877 0c0.631847,0 1.14889,0.519595 1.14889,1.14832l0 16.5502c0,0.62958 -0.517894,1.14917 -1.14889,1.14917 -7.56545,0 -7.74176,0 -20.646,0 -0.63043,0 -1.14861,-0.517043 -1.14861,-1.14917l0 -16.5502c0,-0.631847 0.51676,-1.14832 1.14861,-1.14832z"
       id="path163" /><path
       class="fil117"
       d="M2.24364 20.9961l-0.119906 0.130962m19.8761 -0.0141733l-0.13408 -0.118489"
       id="path165" /><path
       class="fil119"
       d="M0.315499 4.35377c0,-0.360286 0.14797,-0.688541 0.385515,-0.925803 0.237262,-0.237262 0.565516,-0.385515 0.925803,-0.385515l20.646 0c0.360286,0 0.688257,0.148253 0.925803,0.385798 0.237545,0.237829 0.385798,0.566934 0.385798,0.925519l-0.32542 0c0,-0.270427 -0.111402,-0.517327 -0.289987,-0.695911 -0.178584,-0.178584 -0.425484,-0.289703 -0.696194,-0.289703l-20.646 0c-0.271278,0 -0.518177,0.111119 -0.696194,0.28942 -0.178301,0.178301 -0.289703,0.4252 -0.289703,0.696194l-0.32542 0z"
       id="path167" /><rect
       class="fil120"
       x="0.833392"
       y="2.97867"
       width="22.6388"
       height="1.04429"
       id="rect169" /><path
       class="fil121"
       d="M23.987 5.85841l0 15.4555c0,0.452696 -0.185954,0.865708 -0.484728,1.16448 -0.298207,0.298207 -0.711218,0.484728 -1.1642,0.484728l-20.646 0c-0.453263,0 -0.865991,-0.185954 -1.16448,-0.484445 -0.298491,-0.298491 -0.484161,-0.711218 -0.484161,-1.16477l0 -16.5502c0,-0.643753 0.0615123,-1.71186 0.473956,-2.20452 0.265041,-0.316349 0.642619,-0.516193 1.12054,-0.516193l0.00963787 0.00198427 0.0606619 0.00141733 20.6854 0.0374176 0.00396854 0 0.0277797 0.000283467 0.00198427 0c1.81305,0.0218269 1.59507,1.89809 1.57863,3.25165l-0.0189923 0.522713zm-1.00007 15.4555l0 -15.9555c0,-0.440507 -0.0141733,-1.79293 -0.201828,-2.06392 -0.108851,-0.0986464 -0.138615,-0.21175 -0.369641,-0.214301l-0.0257955 -0.000283467 -20.6911 -0.0374176 -0.00963787 0 -0.051024 -0.00113387 0 0.0017008c-0.155056,0 -0.274396,0.0609454 -0.354617,0.156757 -0.253986,0.303876 -0.239813,1.13018 -0.239813,1.56389l0 16.5502c0,0.177734 0.0734179,0.34016 0.191057,0.457799 0.117639,0.117639 0.280065,0.19134 0.457515,0.19134l20.646 0c0.176883,0 0.339593,-0.0739848 0.457232,-0.191624 0.117922,-0.117922 0.191624,-0.280632 0.191624,-0.457515z"
       id="path171" /></g></svg>