<?xml version="1.0" encoding="UTF-8" standalone="no"?>
<!-- Creator: CorelDRAW -->

<svg
   xmlns:dc="http://purl.org/dc/elements/1.1/"
   xmlns:cc="http://creativecommons.org/ns#"
   xmlns:rdf="http://www.w3.org/1999/02/22-rdf-syntax-ns#"
   xmlns:svg="http://www.w3.org/2000/svg"
   xmlns="http://www.w3.org/2000/svg"
   xmlns:xlink="http://www.w3.org/1999/xlink"
   xmlns:sodipodi="http://sodipodi.sourceforge.net/DTD/sodipodi-0.dtd"
   xmlns:inkscape="http://www.inkscape.org/namespaces/inkscape"
   xml:space="preserve"
   width="16px"
   height="16px"
   style="shape-rendering:geometricPrecision; text-rendering:geometricPrecision; image-rendering:optimizeQuality; fill-rule:evenodd; clip-rule:evenodd"
   viewBox="0 0 16 16"
   id="svg2"
   version="1.1"
   inkscape:version="0.91 r13725"
   sodipodi:docname="document-open-remote.svg"><metadata
     id="metadata49"><rdf:RDF><cc:Work
         rdf:about=""><dc:format>image/svg+xml</dc:format><dc:type
           rdf:resource="http://purl.org/dc/dcmitype/StillImage" /><dc:title></dc:title></cc:Work></rdf:RDF></metadata><sodipodi:namedview
     pagecolor="#ffffff"
     bordercolor="#666666"
     borderopacity="1"
     objecttolerance="10"
     gridtolerance="10"
     guidetolerance="10"
     inkscape:pageopacity="0"
     inkscape:pageshadow="2"
     inkscape:window-width="1920"
     inkscape:window-height="999"
     id="namedview47"
     showgrid="false"
     inkscape:zoom="1.3037281"
     inkscape:cx="10.298952"
     inkscape:cy="53.220597"
     inkscape:window-x="-2"
     inkscape:window-y="-2"
     inkscape:window-maximized="1"
     inkscape:current-layer="svg2" /><defs
     id="defs4"><style
       type="text/css"
       id="style6"><![CDATA[
    .fil1 {fill:#E5E5E5}
    .fil3 {fill:white}
    .fil4 {fill:white;fill-rule:nonzero}
    .fil0 {fill:#0F172E;fill-opacity:0.219608}
    .fil2 {fill:#B2B2B2;fill-rule:nonzero;fill-opacity:0.780392}
    .fil7 {fill:#CCEDFF;fill-rule:nonzero;fill-opacity:0.780392}
    .fil6 {fill:url(#id0)}
    .fil8 {fill:url(#id1);fill-rule:nonzero}
    .fil5 {fill:url(#id2);fill-rule:nonzero}
   ]]></style><linearGradient
       id="id0"
       gradientUnits="userSpaceOnUse"
       x1="7.98214"
       y1="5.76345"
       x2="8.09071"
       y2="14.3097"><stop
         offset="0"
         style="stop-color:#5589C4"
         id="stop9" /><stop
         offset="0.0392157"
         style="stop-color:#649FCF"
         id="stop11" /><stop
         offset="0.909804"
         style="stop-color:#A6D5FC"
         id="stop13" /><stop
         offset="1"
         style="stop-color:#83B8E3"
         id="stop15" /></linearGradient><linearGradient
       id="id1"
       gradientUnits="userSpaceOnUse"
       x1="8.12076"
       y1="14.4679"
       x2="7.95181"
       y2="5.69343"><stop
         offset="0"
         style="stop-color:#567FA3"
         id="stop18" /><stop
         offset="1"
         style="stop-color:#6494BA"
         id="stop20" /></linearGradient><linearGradient
       id="id2"
       gradientUnits="userSpaceOnUse"
       x1="8.0085"
       y1="5.83035"
       x2="8.0085"
       y2="3.42995"><stop
         offset="0"
         style="stop-color:#949494"
         id="stop23" /><stop
         offset="1"
         style="stop-color:#ABABAB"
         id="stop25" /></linearGradient><linearGradient
       x1="8.2449274"
       y1="23.890966"
       x2="47.572372"
       y2="23.890966"
       id="linearGradient2722"
       xlink:href="#linearGradient2264"
       gradientUnits="userSpaceOnUse"
       gradientTransform="matrix(0,0.2754215,0.2672682,0.00178079,1.3818524,0.07236035)" /><linearGradient
       id="linearGradient2264"><stop
         id="stop2266"
         style="stop-color:#d7e866;stop-opacity:1"
         offset="0" /><stop
         id="stop2268"
         style="stop-color:#8cab2a;stop-opacity:1"
         offset="1" /></linearGradient><linearGradient
       x1="8.8109741"
       y1="-1.5673827e-09"
       x2="8.8109741"
       y2="13.278502"
       id="linearGradient3508"
       xlink:href="#linearGradient4236-0-1"
       gradientUnits="userSpaceOnUse" /><linearGradient
       id="linearGradient4236-0-1"><stop
         id="stop4238-4-4"
         style="stop-color:#eeeeee;stop-opacity:1"
         offset="0" /><stop
         id="stop4240-3-9"
         style="stop-color:#eeeeee;stop-opacity:0"
         offset="1" /></linearGradient><radialGradient
       cx="1120.375"
       cy="394.78125"
       r="20.625"
       fx="1120.375"
       fy="394.78125"
       id="radialGradient2794"
       xlink:href="#linearGradient5060"
       gradientUnits="userSpaceOnUse"
       gradientTransform="matrix(0.2909594,0,0,0.06438937,-318.09963,-10.747739)" /><linearGradient
       id="linearGradient5060"><stop
         id="stop5062"
         style="stop-color:#000000;stop-opacity:1"
         offset="0" /><stop
         id="stop5064"
         style="stop-color:#000000;stop-opacity:0"
         offset="1" /></linearGradient><linearGradient
       x1="0.61210024"
       y1="372.57819"
       x2="5.0856376"
       y2="372.57819"
       id="linearGradient2796"
       xlink:href="#linearGradient272-6"
       gradientUnits="userSpaceOnUse"
       gradientTransform="matrix(9.3885424,0,0,0.2235366,29.130395,-51.784906)" /><linearGradient
       id="linearGradient272-6"><stop
         id="stop273-1"
         style="stop-color:#474747;stop-opacity:0"
         offset="0" /><stop
         id="stop275-8"
         style="stop-color:#474747;stop-opacity:1"
         offset="0.1" /><stop
         id="stop276-3-3"
         style="stop-color:#474747;stop-opacity:1"
         offset="0.89999998" /><stop
         id="stop274-5-6"
         style="stop-color:#474747;stop-opacity:0"
         offset="1" /></linearGradient><linearGradient
       x1="0.61210024"
       y1="372.57819"
       x2="5.0856376"
       y2="372.57819"
       id="linearGradient2798"
       xlink:href="#linearGradient272-6"
       gradientUnits="userSpaceOnUse"
       gradientTransform="matrix(9.3885418,0,0,0.2235361,29.130383,-45.865211)" /><linearGradient
       x1="1.6422368"
       y1="117.8271"
       x2="15.343062"
       y2="117.8271"
       id="linearGradient2800"
       xlink:href="#linearGradient178-9"
       gradientUnits="userSpaceOnUse"
       gradientTransform="matrix(3.1119049,0,0,0.09123576,28.948795,19.750004)" /><linearGradient
       id="linearGradient178-9"><stop
         id="stop179-9"
         style="stop-color:#ffffff;stop-opacity:0"
         offset="0" /><stop
         id="stop180-2"
         style="stop-color:#d9d9d9;stop-opacity:1"
         offset="0.10827128" /><stop
         id="stop181-7"
         style="stop-color:#d9d9d9;stop-opacity:1"
         offset="0.92053902" /><stop
         id="stop182-0"
         style="stop-color:#ffffff;stop-opacity:0"
         offset="1" /></linearGradient><linearGradient
       x1="23.100046"
       y1="38.296745"
       x2="23.143667"
       y2="46.03775"
       id="linearGradient2786"
       xlink:href="#linearGradient9347"
       gradientUnits="userSpaceOnUse"
       gradientTransform="matrix(0.1687531,0,0,0.348495,4.0465234,-0.6889676)" /><linearGradient
       id="linearGradient9347"><stop
         id="stop9349"
         style="stop-color:#7a7a7a;stop-opacity:1"
         offset="0" /><stop
         id="stop9351"
         style="stop-color:#ebebeb;stop-opacity:1"
         offset="0.1980198" /><stop
         id="stop9353"
         style="stop-color:#b9b9b9;stop-opacity:1"
         offset="0.59900987" /><stop
         id="stop9355"
         style="stop-color:#878787;stop-opacity:1"
         offset="1" /></linearGradient></defs><polygon
     style="fill:#0f172e;fill-opacity:0.21960802"
     id="polygon29"
     points="15.5252,15.9408 0.410176,15.9408 0.410176,14.941 15.5252,14.941 "
     class="fil0" /><path
     style="fill:#e5e5e5"
     inkscape:connector-curvature="0"
     id="path31"
     d="m 1.35525,1.81079 0.61569,0 C 2.150658,1.7223484 2.285588,1.8045537 2.442912,1.46411 2.568204,1.192832 2.682725,0.751758 2.981499,0.751758 c 1.33995,0 2.72468,-0.213451 4.06491,-0.213451 0.298774,0 0.395153,0.441074 0.521012,0.712352 0.193891,0.420381 0.416129,0.292538 0.695061,0.34668 l 6.82163,0 c 0.363121,0 0.65821,0.29764 0.659911,0.659627 l 0.02494,5.61689 c 0.0017,0.361137 -0.298491,0.654241 -0.659627,0.659627 L 1.3804411,8.746934 c -0.361137,0.00539 -0.65821,-0.29679 -0.659627,-0.659627 L 0.6955856,2.470417 C 0.69416827,2.088587 0.9816036,1.81079 1.3552126,1.81079 Z"
     class="fil1" /><path
     style="fill:#b2b2b2;fill-opacity:0.78039198;fill-rule:nonzero"
     inkscape:connector-curvature="0"
     id="path33"
     d="M 14.8602,3.7959 1.0647,3.8418216 c -0.0776699,0.229041 -0.103182,0.520445 -0.103182,0.849833 l 0,0.271845 13.95,-0.045638 0,-0.385515 c 0,-0.295939 -0.0099,-0.541422 -0.05131,-0.736447 z"
     class="fil2" /><polygon
     style="fill:#ffffff"
     id="polygon35"
     points="15.0152,3.01127 7.63178,3.04103 7.63178,2.0574 15.0152,2.02764 "
     class="fil3" /><path
     style="fill:#ffffff;fill-rule:nonzero"
     inkscape:connector-curvature="0"
     id="path37"
     d="M 2.1141,1.01651 C 2.325283,0.9901476 7.99235,1.064699 8.00794,1.064699 L 7.992066,2.060801 c -0.015307,0 -5.56247,-0.076536 -5.75664,-0.052158 L 2.114102,1.016509 Z"
     class="fil4" /><path
     inkscape:connector-curvature="0"
     style="fill:url(#id2);fill-rule:nonzero"
     id="path39"
     d="M 1.19254,1.02303 C 1.957617,0.912194 1.839695,1.377363 2.113524,0.574586 2.221525,0.257954 2.478062,0.013605 2.91205,0.013605 l 4.13436,0.0246616 c 0.577138,0 0.763376,0.378145 0.9207,0.779534 l 0,0.001984 c 0.019276,0.0501736 0.039685,0.100631 0.063497,0.152505 0.017291,0.0379846 0.037701,0.0391184 0.060662,0.0396854 l 0.00198,0 c 0.067465,0.00227 0.138615,0.00482 0.215718,0.015874 l 6.50018,0 c 0.317766,0 0.606902,0.130678 0.816384,0.339877 l 0.002,0.00198 c 0.208065,0.208632 0.338176,0.497484 0.339593,0.815817 l 0.01502,5.68634 0.002,0.00198 0,0.00312 c 0,0.316065 -0.131245,0.604918 -0.340727,0.814684 l 8.5e-4,0.00113 C 15.436486,8.900558 15.147066,9.030102 14.829583,9.03152 l -0.002,0.00198 -0.0031,0 -13.6066998,0.213451 c -0.31861699,0 -0.60888699,-0.130678 -0.81836899,-0.34016 -0.208348,-0.208348 -0.337892,-0.498051 -0.33931,-0.817518 l -0.0252285,-5.90461 -0.0019843,-0.00198 0,-0.00283 c 0,-0.327971 0.127844,-0.61569 0.337609,-0.823755 l 0.001984,-0.00198 c 0.208065,-0.205513 0.4955,-0.328255 0.81723499,-0.329105 l 0.16271,-0.00198 -0.159875,0 z m 0.7784,1.28779 -0.7784,-0.287719 -0.00283,0 0,-0.00198 c -0.047339,0 -0.088442,0.015874 -0.116221,0.041953 l -0.00198,0.00198 C 1.047698,2.090283 1.032958,2.129968 1.032958,2.179858 l 0,0.00283 -0.00198,0 0.025229,5.90263 c 0,0.04252 0.019559,0.083906 0.050174,0.114521 0.02863,0.02863 0.068599,0.047056 0.111402,0.047056 l 13.6067,-0.213451 0.0031,0 0,0.00198 c 0.04025,-5.669e-4 0.08022,-0.020126 0.109702,-0.049607 l 0.002,0 c 0.02721,-0.027213 0.04479,-0.066331 0.04479,-0.108851 l 0,-0.00312 0.002,0 -0.01502,-5.68436 c 0,-0.043087 -0.01899,-0.08419 -0.04847,-0.114804 -0.02863,-0.02863 -0.06917,-0.046772 -0.113387,-0.046772 l -6.53674,0 L 8.17863,2.01827 C 8.142063,2.01118 8.099543,2.00948 8.060141,2.008065 l -0.00198,0 C 7.7018026,1.9958889 7.3976426,1.9836999 7.1240976,1.39012 7.0974517,1.3322928 7.0679712,1.257741 7.0379237,1.180922 l -5.669e-4,2.835e-4 c -0.039118,-0.100064 0.120757,-0.21231699 0.018992,-0.21231699 l -4.14428,0.0447878 c -0.306995,0.038552 -0.10715,1.24414 -0.681738,1.23478 l -0.00198,0 -0.038552,0.00964 -0.218836,0.052725 z"
     class="fil5" /><g
     id="g4187"
     transform="translate(-0.58125211,-2.0134745e-5)"><path
       d="M 3.5,5.5 8.5,0.49969673 13.662507,5.5 10.5,5.5 l 0,7.5 -4,0 0,-7.5 -3,0 z"
       id="path5656"
       style="display:inline;overflow:visible;visibility:visible;fill:url(#linearGradient2722);fill-opacity:1;fill-rule:nonzero;stroke:#548820;stroke-width:0.99939346;stroke-linecap:butt;stroke-linejoin:round;stroke-miterlimit:4;stroke-dasharray:none;stroke-dashoffset:0;stroke-opacity:1;marker:none;marker-start:none;marker-mid:none;marker-end:none"
       inkscape:connector-curvature="0" /><path
       d="m 8.5,1.9375 -2.53125,2.53125 0.53125,0 C 7.0693351,4.4692532 7.5307468,4.9306649 7.53125,5.5 l 0,6.46875 1.9375,0 0,-6.46875 C 9.4692532,4.9306649 9.9306649,4.4692532 10.5,4.46875 l 0.59375,0 L 8.5,1.9375 Z"
       id="path3506"
       style="display:inline;overflow:visible;visibility:visible;opacity:0.4;fill:none;fill-opacity:1;fill-rule:nonzero;stroke:url(#linearGradient3508);stroke-width:0.99900001;stroke-linecap:butt;stroke-linejoin:miter;stroke-miterlimit:4;stroke-dasharray:none;stroke-dashoffset:0;stroke-opacity:1;marker:none;marker-start:none;marker-mid:none;marker-end:none"
       inkscape:connector-curvature="0" /></g><g
     id="g4190"
     transform="matrix(1,0,0,0.80618304,0,2.9470093)"><path
       class="fil6"
       d="M 1.11629,5.50011 C 0.860886,5.561055 0.445608,5.78953 0.518742,6.386794 c 0.348948,2.84941 0.60832,4.26873 0.646304,7.18872 0,0 -0.068882,1.01311 1.13699,0.945929 l 11.4067,0 c 1.20558,0.06803 1.13755,-0.945362 1.13755,-0.945362 0.177167,-2.43441 -0.05017,-4.21827 0.707533,-7.18928 0.07342,-0.597265 -0.366239,-0.842747 -0.621926,-0.903125 l -13.8156,0.016441 z"
       id="path41"
       style="fill:url(#id0)"
       inkscape:connector-curvature="0" /><path
       class="fil7"
       d="M 15.2871,5.75891 1.063,5.7997292 c -0.0762526,0.20438 -0.121891,0.668698 -0.121891,0.961803 l 0,0.242364 14.3553,0 0,-0.343562 c 0,-0.263908 0.03118,-0.727659 -0.0094,-0.901424 z"
       id="path43"
       inkscape:connector-curvature="0"
       style="fill:#ccedff;fill-opacity:0.78039198;fill-rule:nonzero" /><path
       class="fil8"
       d="M 1.23138,5.91397 C 1.199632,5.926726 1.167883,5.945435 1.150309,5.971797 1.133017,5.997593 1.12423,6.046916 1.134435,6.130538 c 0.291971,2.38452 0.475941,5.11204 0.506839,7.51952 l -0.00227,0.06577 c 0,5.66e-4 -0.017292,0.318899 0.508823,0.289702 l 0.032882,-0.0023 11.6085,0 0.03288,0.0023 c 0.526398,0.02948 0.50939,-0.288569 0.50939,-0.289135 l -0.0023,-0.100914 c 0.172631,-2.367231 0.04422,-5.1491707 0.632131,-7.4744507 0.0043,-0.06378 -0.0054,-0.104316 -0.02154,-0.128127 -0.02438,-0.035433 -0.0635,-0.059528 -0.100631,-0.074552 L 1.2313716,5.9139686 Z M 0.13606,5.485368 C 0.367652,5.141806 0.721702,4.977395 0.977956,4.91645 l 0.138332,-0.01389 13.8156,-0.016441 0.136064,0.01389 c 0.25427,0.059812 0.619375,0.231876 0.85607,0.576005 0.171214,0.248884 0.27553,0.57317 0.225073,0.983346 l -0.01417,0.075119 c -0.576855,2.26263 -0.443059,4.85805 -0.610587,7.16547 l -0.0014,0 c -0.0094,0.361987 -0.157041,1.57409 -1.73368,1.50209 l 0,8.5e-4 -11.6084996,0 0,-8.5e-4 c -1.63277003,0.07342 -1.73312003,-1.22769 -1.73397003,-1.53781 l -5.6693e-4,0 c -0.0306144,-2.36638 -0.235844,-4.86032 -0.522713,-7.20488 -0.0501736,-0.410176 0.0479059,-0.729927 0.2126,-0.973992 z"
       id="path45"
       style="fill:url(#id1);fill-rule:nonzero"
       inkscape:connector-curvature="0" /></g><g
     id="g4209"><path
       d="M 13.885074,14.67197 C 13.885074,15.40542 11.198318,16 7.884036,16 4.569754,16 1.882998,15.40542 1.882998,14.67197 c 0,-0.733451 2.686756,-1.328031 6.001038,-1.328031 3.314282,0 6.001038,0.59458 6.001038,1.328031 z"
       id="path2706"
       style="display:inline;opacity:0.3;fill:url(#radialGradient2794);fill-opacity:1;fill-rule:evenodd;stroke:none;enable-background:new"
       inkscape:connector-curvature="0" /><g
       transform="matrix(0.3478862,0,0,1,-11.395387,-16)"
       id="g2708"
       style="display:inline;enable-background:new"><rect
         width="41.999989"
         height="1"
         x="34.877113"
         y="31"
         id="rect2710"
         style="display:block;overflow:visible;visibility:visible;opacity:0.65;fill:url(#linearGradient2796);fill-opacity:1;fill-rule:nonzero;stroke:none;stroke-width:1;marker:none" /><rect
         width="41.999989"
         height="1"
         x="34.877102"
         y="29"
         id="rect2712"
         style="display:block;overflow:visible;visibility:visible;opacity:0.65;fill:url(#linearGradient2798);fill-opacity:1;fill-rule:nonzero;stroke:none;stroke-width:1;marker:none" /><rect
         width="41.5"
         height="1"
         x="34.627102"
         y="30"
         id="rect2714"
         style="display:block;overflow:visible;visibility:visible;fill:url(#linearGradient2800);fill-opacity:1;fill-rule:nonzero;stroke:none;stroke-width:1;marker:none" /><g
         transform="matrix(0.544365,0,0,0.9411763,42.076688,-8.6470511)"
         id="g2716"
         style="fill:#ffffff;fill-opacity:0.72023806" /></g><path
       d="m 7.4874063,12.500034 -0.7461561,0 c -0.1343915,0 -0.2412165,0.213517 -0.2412165,0.482133 l 0,2.035518 c 0,0.268613 0.106825,0.482282 0.2412165,0.482282 l 2.5175012,0 c 0.1343897,0 0.2412156,-0.213669 0.2412156,-0.482282 l 0,-2.035518 c 0,-0.268616 -0.1068259,-0.482133 -0.2412156,-0.482133 l -0.6510271,0 -1.120318,0 z"
       id="path2718"
       style="display:block;overflow:visible;visibility:visible;fill:url(#linearGradient2786);fill-opacity:1;fill-rule:nonzero;stroke:#5a5c58;stroke-width:1.000067;stroke-linecap:butt;stroke-linejoin:miter;stroke-miterlimit:4;stroke-dasharray:none;stroke-dashoffset:0;stroke-opacity:1;marker:none;enable-background:new"
       inkscape:connector-curvature="0" /></g></svg>