<?xml version="1.0" encoding="UTF-8" standalone="no"?>
<!-- Creator: CorelDRAW -->

<svg
   xmlns:dc="http://purl.org/dc/elements/1.1/"
   xmlns:cc="http://creativecommons.org/ns#"
   xmlns:rdf="http://www.w3.org/1999/02/22-rdf-syntax-ns#"
   xmlns:svg="http://www.w3.org/2000/svg"
   xmlns="http://www.w3.org/2000/svg"
   xmlns:sodipodi="http://sodipodi.sourceforge.net/DTD/sodipodi-0.dtd"
   xmlns:inkscape="http://www.inkscape.org/namespaces/inkscape"
   xml:space="preserve"
   width="16px"
   height="16px"
   style="shape-rendering:geometricPrecision; text-rendering:geometricPrecision; image-rendering:optimizeQuality; fill-rule:evenodd; clip-rule:evenodd"
   viewBox="0 0 16 16"
   id="svg2"
   version="1.1"
   inkscape:version="0.91 r13725"
   sodipodi:docname="document-open-folder.svg"><metadata
     id="metadata49"><rdf:RDF><cc:Work
         rdf:about=""><dc:format>image/svg+xml</dc:format><dc:type
           rdf:resource="http://purl.org/dc/dcmitype/StillImage" /></cc:Work></rdf:RDF></metadata><sodipodi:namedview
     pagecolor="#ffffff"
     bordercolor="#666666"
     borderopacity="1"
     objecttolerance="10"
     gridtolerance="10"
     guidetolerance="10"
     inkscape:pageopacity="0"
     inkscape:pageshadow="2"
     inkscape:window-width="1680"
     inkscape:window-height="995"
     id="namedview47"
     showgrid="false"
     inkscape:zoom="14.75"
     inkscape:cx="8"
     inkscape:cy="8"
     inkscape:window-x="0"
     inkscape:window-y="28"
     inkscape:window-maximized="1"
     inkscape:current-layer="svg2" /><defs
     id="defs4"><style
       type="text/css"
       id="style6"><![CDATA[
    .fil1 {fill:#E5E5E5}
    .fil3 {fill:white}
    .fil4 {fill:white;fill-rule:nonzero}
    .fil0 {fill:#0F172E;fill-opacity:0.219608}
    .fil2 {fill:#B2B2B2;fill-rule:nonzero;fill-opacity:0.780392}
    .fil7 {fill:#CCEDFF;fill-rule:nonzero;fill-opacity:0.780392}
    .fil6 {fill:url(#id0)}
    .fil8 {fill:url(#id1);fill-rule:nonzero}
    .fil5 {fill:url(#id2);fill-rule:nonzero}
   ]]></style><linearGradient
       id="id0"
       gradientUnits="userSpaceOnUse"
       x1="7.98214"
       y1="5.76345"
       x2="8.09071"
       y2="14.3097"><stop
         offset="0"
         style="stop-color:#5589C4"
         id="stop9" /><stop
         offset="0.0392157"
         style="stop-color:#649FCF"
         id="stop11" /><stop
         offset="0.909804"
         style="stop-color:#A6D5FC"
         id="stop13" /><stop
         offset="1"
         style="stop-color:#83B8E3"
         id="stop15" /></linearGradient><linearGradient
       id="id1"
       gradientUnits="userSpaceOnUse"
       x1="8.12076"
       y1="14.4679"
       x2="7.95181"
       y2="5.69343"><stop
         offset="0"
         style="stop-color:#567FA3"
         id="stop18" /><stop
         offset="1"
         style="stop-color:#6494BA"
         id="stop20" /></linearGradient><linearGradient
       id="id2"
       gradientUnits="userSpaceOnUse"
       x1="8.0085"
       y1="5.83035"
       x2="8.0085"
       y2="3.42995"><stop
         offset="0"
         style="stop-color:#949494"
         id="stop23" /><stop
         offset="1"
         style="stop-color:#ABABAB"
         id="stop25" /></linearGradient></defs><g
     id="Слой_x0020_1"><metadata
       id="CorelCorpID_0Corel-Layer" /><polygon
       class="fil0"
       points="0.410176,14.941 15.5252,14.941 15.5252,15.9408 0.410176,15.9408 "
       id="polygon29" /><path
       class="fil1"
       d="M1.35525 1.81079l0.61569 0c0.179718,-0.0884416 0.314648,-0.00623627 0.471972,-0.34668 0.125292,-0.271278 0.239813,-0.712352 0.538587,-0.712352 1.33995,0 2.72468,-0.213451 4.06491,-0.213451 0.298774,0 0.395153,0.441074 0.521012,0.712352 0.193891,0.420381 0.416129,0.292538 0.695061,0.34668l6.82163 0c0.363121,0 0.65821,0.29764 0.659911,0.659627l0.0249451 5.61689c0.0017008,0.361137 -0.298491,0.654241 -0.659627,0.659627l-13.7289 0.213451c-0.361137,0.00538587 -0.65821,-0.29679 -0.659627,-0.659627l-0.0252285 -5.61689c-0.00141733,-0.38183 0.286018,-0.659627 0.659627,-0.659627z"
       id="path31" /><path
       class="fil2"
       d="M14.8602 3.7959l-13.7955 0.0459216c-0.0776699,0.229041 -0.103182,0.520445 -0.103182,0.849833l0 0.271845 13.95 -0.0456382 0 -0.385515c0,-0.295939 -0.00992134,-0.541422 -0.0513075,-0.736447z"
       id="path33" /><polygon
       class="fil3"
       points="7.63178,2.0574 15.0152,2.02764 15.0152,3.01127 7.63178,3.04103 "
       id="polygon35" /><path
       class="fil4"
       d="M2.1141 1.01651c0.211183,-0.0263624 5.87825,0.0481894 5.89384,0.0481894l-0.0158741 0.996102c-0.0153072,0 -5.56247,-0.076536 -5.75664,-0.0521579l-0.121324 -0.992134z"
       id="path37" /><path
       class="fil5"
       d="M1.19254 1.02303c0.765077,-0.110836 0.647155,0.354333 0.920984,-0.448444 0.108001,-0.316632 0.364538,-0.560981 0.798526,-0.560981l4.13436 0.0246616c0.577138,0 0.763376,0.378145 0.9207,0.779534l0 0.00198427c0.0192757,0.0501736 0.0396854,0.100631 0.0634966,0.152505 0.0172915,0.0379846 0.0377011,0.0391184 0.0606619,0.0396854l0.00198427 0c0.0674651,0.00226773 0.138615,0.00481894 0.215718,0.0158741l6.50018 0c0.317766,0 0.606902,0.130678 0.816384,0.339877l0.00198427 0.00198427c0.208065,0.208632 0.338176,0.497484 0.339593,0.815817l0.0150237 5.68634 0.00198427 0.00198427 0 0.00311813c0,0.316065 -0.131245,0.604918 -0.340727,0.814684l0.0008504 0.00113387c-0.207781,0.207781 -0.497201,0.337325 -0.814684,0.338743l-0.00198427 0.00198427 -0.00311813 0 -13.6067 0.213451c-0.318617,0 -0.608887,-0.130678 -0.818369,-0.34016 -0.208348,-0.208348 -0.337892,-0.498051 -0.33931,-0.817518l-0.0252285 -5.90461 -0.00198427 -0.00198427 0 -0.00283467c0,-0.327971 0.127844,-0.61569 0.337609,-0.823755l0.00198427 -0.00198427c0.208065,-0.205513 0.4955,-0.328255 0.817235,-0.329105l0.16271 -0.00198427 -0.159875 0zm0.7784 1.28779l-0.7784 -0.287719 -0.00283467 0 0 -0.00198427c-0.047339,0 -0.0884416,0.0158741 -0.116221,0.0419531l-0.00198427 0.00198427c-0.0238112,0.0252285 -0.0385515,0.0649139 -0.0385515,0.114804l0 0.00283467 -0.00198427 0 0.0252285 5.90263c0,0.04252 0.0195592,0.0839062 0.0501736,0.114521 0.0286301,0.0286301 0.068599,0.0470555 0.111402,0.0470555l13.6067 -0.213451 0.00311813 0 0 0.00198427c0.0402523,-0.000566934 0.0802211,-0.0201261 0.109702,-0.0496067l0.00198427 0c0.0272128,-0.0272128 0.0447878,-0.0663312 0.0447878,-0.108851l0 -0.00311813 0.00198427 0 -0.0150237 -5.68436c0,-0.043087 -0.0189923,-0.0841896 -0.0484728,-0.114804 -0.0286301,-0.0286301 -0.0691659,-0.046772 -0.113387,-0.046772l-6.53674 0 -0.0938275 -0.00963787c-0.0365672,-0.00708667 -0.0790872,-0.00878747 -0.118489,-0.0102048l-0.00198427 0c-0.356318,-0.0121891 -0.660478,-0.0243781 -0.934023,-0.617958 -0.0266459,-0.0578272 -0.0561264,-0.132379 -0.0861739,-0.209198l-0.000566934 0.000283467c-0.0391184,-0.100064 0.120757,-0.212317 0.0189923,-0.212317l-4.14428 0.0447878c-0.306995,0.0385515 -0.10715,1.24414 -0.681738,1.23478l-0.00198427 0 -0.0385515 0.00963787 -0.218836 0.0527248z"
       id="path39" /><path
       class="fil6"
       d="M1.11629 5.50011c-0.255404,0.0609454 -0.670682,0.28942 -0.597548,0.886684 0.348948,2.84941 0.60832,4.26873 0.646304,7.18872 0,0 -0.0688824,1.01311 1.13699,0.945929l11.4067 0c1.20558,0.068032 1.13755,-0.945362 1.13755,-0.945362 0.177167,-2.43441 -0.0501736,-4.21827 0.707533,-7.18928 0.0734179,-0.597265 -0.366239,-0.842747 -0.621926,-0.903125l-13.8156 0.0164411z"
       id="path41" /><path
       class="fil7"
       d="M15.2871 5.75891l-14.2241 0.0408192c-0.0762526,0.20438 -0.121891,0.668698 -0.121891,0.961803l0 0.242364 14.3553 0 0 -0.343562c0,-0.263908 0.0311813,-0.727659 -0.0093544,-0.901424z"
       id="path43" /><path
       class="fil8"
       d="M1.23138 5.91397c-0.0317483,0.012756 -0.0634966,0.0314648 -0.0810715,0.0578272 -0.0172915,0.0257955 -0.0260789,0.0751187 -0.0158741,0.158741 0.291971,2.38452 0.475941,5.11204 0.506839,7.51952l-0.00226773 0.0657643c0,0.000566934 -0.0172915,0.3189 0.508823,0.289703l0.0328821 -0.00226773 11.6085 0 0.0328821 0.00226773c0.526398,0.0294805 0.50939,-0.288569 0.50939,-0.289136l-0.00226773 -0.100914c0.172631,-2.36723 0.0442208,-5.14917 0.632131,-7.47445 0.004252,-0.06378 -0.00538587,-0.104316 -0.0215435,-0.128127 -0.0243781,-0.0354333 -0.0634966,-0.059528 -0.100631,-0.0745518l-13.6078 -0.0243781zm-1.09532 -0.428602c0.231592,-0.343562 0.585642,-0.507973 0.841896,-0.568918l0.138332 -0.0138899 13.8156 -0.0164411 0.136064 0.0138899c0.25427,0.0598115 0.619375,0.231876 0.85607,0.576005 0.171214,0.248884 0.27553,0.57317 0.225073,0.983346l-0.0141733 0.0751187c-0.576855,2.26263 -0.443059,4.85805 -0.610587,7.16547l-0.00141733 0c-0.0093544,0.361987 -0.157041,1.57409 -1.73368,1.50209l0 0.0008504 -11.6085 0 0 -0.0008504c-1.63277,0.0734179 -1.73312,-1.22769 -1.73397,-1.53781l-0.000566934 0c-0.0306144,-2.36638 -0.235844,-4.86032 -0.522713,-7.20488 -0.0501736,-0.410176 0.0479059,-0.729927 0.2126,-0.973992z"
       id="path45" /></g></svg>