<?xml version="1.0" encoding="UTF-8" standalone="no"?>
<!-- Creator: CorelDRAW -->

<svg
   xmlns:dc="http://purl.org/dc/elements/1.1/"
   xmlns:cc="http://creativecommons.org/ns#"
   xmlns:rdf="http://www.w3.org/1999/02/22-rdf-syntax-ns#"
   xmlns:svg="http://www.w3.org/2000/svg"
   xmlns="http://www.w3.org/2000/svg"
   xmlns:sodipodi="http://sodipodi.sourceforge.net/DTD/sodipodi-0.dtd"
   xmlns:inkscape="http://www.inkscape.org/namespaces/inkscape"
   xml:space="preserve"
   width="22px"
   height="22px"
   style="shape-rendering:geometricPrecision; text-rendering:geometricPrecision; image-rendering:optimizeQuality; fill-rule:evenodd; clip-rule:evenodd"
   viewBox="0 0 22 22"
   id="svg2"
   version="1.1"
   inkscape:version="0.91 r13725"
   sodipodi:docname="application-x-amarok.svg"><metadata
     id="metadata150"><rdf:RDF><cc:Work
         rdf:about=""><dc:format>image/svg+xml</dc:format><dc:type
           rdf:resource="http://purl.org/dc/dcmitype/StillImage" /></cc:Work></rdf:RDF></metadata><sodipodi:namedview
     pagecolor="#ffffff"
     bordercolor="#666666"
     borderopacity="1"
     objecttolerance="10"
     gridtolerance="10"
     guidetolerance="10"
     inkscape:pageopacity="0"
     inkscape:pageshadow="2"
     inkscape:window-width="1680"
     inkscape:window-height="995"
     id="namedview148"
     showgrid="false"
     inkscape:zoom="10.727273"
     inkscape:cx="-9.3686441"
     inkscape:cy="11"
     inkscape:window-x="0"
     inkscape:window-y="28"
     inkscape:window-maximized="1"
     inkscape:current-layer="svg2" /><defs
     id="defs4"><style
       type="text/css"
       id="style6"><![CDATA[
    .fil113 {fill:none}
    .fil112 {fill:white}
    .fil114 {fill:#BCE6FF}
    .fil116 {fill:#4E87B4;fill-rule:nonzero}
    .fil0 {fill:black;fill-opacity:0.000000}
    .fil79 {fill:#A3EFF7;fill-opacity:0.000000}
    .fil1 {fill:black;fill-opacity:0.003922}
    .fil2 {fill:black;fill-opacity:0.007843}
    .fil3 {fill:black;fill-opacity:0.015686}
    .fil78 {fill:#64A4DB;fill-opacity:0.015686}
    .fil111 {fill:#88C8E8;fill-opacity:0.015686}
    .fil46 {fill:#C9EDFF;fill-opacity:0.015686}
    .fil4 {fill:black;fill-opacity:0.019608}
    .fil5 {fill:black;fill-opacity:0.023529}
    .fil6 {fill:black;fill-opacity:0.027451}
    .fil77 {fill:#64A4DB;fill-opacity:0.031373}
    .fil110 {fill:#88C8E8;fill-opacity:0.031373}
    .fil45 {fill:#C9EDFF;fill-opacity:0.031373}
    .fil7 {fill:black;fill-opacity:0.031373}
    .fil8 {fill:black;fill-opacity:0.035294}
    .fil9 {fill:black;fill-opacity:0.043137}
    .fil76 {fill:#64A4DB;fill-opacity:0.047059}
    .fil109 {fill:#88C8E8;fill-opacity:0.047059}
    .fil44 {fill:#C9EDFF;fill-opacity:0.047059}
    .fil10 {fill:black;fill-opacity:0.047059}
    .fil11 {fill:black;fill-opacity:0.050980}
    .fil12 {fill:black;fill-opacity:0.054902}
    .fil13 {fill:black;fill-opacity:0.058824}
    .fil75 {fill:#64A4DB;fill-opacity:0.058824}
    .fil108 {fill:#88C8E8;fill-opacity:0.058824}
    .fil43 {fill:#C9EDFF;fill-opacity:0.058824}
    .fil74 {fill:#64A4DB;fill-opacity:0.074510}
    .fil107 {fill:#88C8E8;fill-opacity:0.074510}
    .fil42 {fill:#C9EDFF;fill-opacity:0.074510}
    .fil73 {fill:#64A4DB;fill-opacity:0.090196}
    .fil106 {fill:#88C8E8;fill-opacity:0.090196}
    .fil41 {fill:#C9EDFF;fill-opacity:0.090196}
    .fil72 {fill:#64A4DB;fill-opacity:0.105882}
    .fil105 {fill:#88C8E8;fill-opacity:0.105882}
    .fil40 {fill:#C9EDFF;fill-opacity:0.105882}
    .fil71 {fill:#64A4DB;fill-opacity:0.121569}
    .fil104 {fill:#88C8E8;fill-opacity:0.121569}
    .fil39 {fill:#C9EDFF;fill-opacity:0.121569}
    .fil70 {fill:#64A4DB;fill-opacity:0.137255}
    .fil103 {fill:#88C8E8;fill-opacity:0.137255}
    .fil38 {fill:#C9EDFF;fill-opacity:0.137255}
    .fil69 {fill:#64A4DB;fill-opacity:0.152941}
    .fil102 {fill:#88C8E8;fill-opacity:0.152941}
    .fil37 {fill:#C9EDFF;fill-opacity:0.152941}
    .fil68 {fill:#64A4DB;fill-opacity:0.164706}
    .fil101 {fill:#88C8E8;fill-opacity:0.164706}
    .fil36 {fill:#C9EDFF;fill-opacity:0.164706}
    .fil67 {fill:#64A4DB;fill-opacity:0.180392}
    .fil100 {fill:#88C8E8;fill-opacity:0.180392}
    .fil35 {fill:#C9EDFF;fill-opacity:0.180392}
    .fil66 {fill:#64A4DB;fill-opacity:0.196078}
    .fil99 {fill:#88C8E8;fill-opacity:0.196078}
    .fil34 {fill:#C9EDFF;fill-opacity:0.196078}
    .fil65 {fill:#64A4DB;fill-opacity:0.211765}
    .fil98 {fill:#88C8E8;fill-opacity:0.211765}
    .fil33 {fill:#C9EDFF;fill-opacity:0.211765}
    .fil64 {fill:#64A4DB;fill-opacity:0.227451}
    .fil97 {fill:#88C8E8;fill-opacity:0.227451}
    .fil32 {fill:#C9EDFF;fill-opacity:0.227451}
    .fil63 {fill:#64A4DB;fill-opacity:0.243137}
    .fil96 {fill:#88C8E8;fill-opacity:0.243137}
    .fil31 {fill:#C9EDFF;fill-opacity:0.243137}
    .fil62 {fill:#64A4DB;fill-opacity:0.258824}
    .fil95 {fill:#88C8E8;fill-opacity:0.258824}
    .fil30 {fill:#C9EDFF;fill-opacity:0.258824}
    .fil61 {fill:#64A4DB;fill-opacity:0.274510}
    .fil94 {fill:#88C8E8;fill-opacity:0.274510}
    .fil29 {fill:#C9EDFF;fill-opacity:0.274510}
    .fil60 {fill:#64A4DB;fill-opacity:0.286275}
    .fil93 {fill:#88C8E8;fill-opacity:0.286275}
    .fil28 {fill:#C9EDFF;fill-opacity:0.286275}
    .fil59 {fill:#64A4DB;fill-opacity:0.301961}
    .fil92 {fill:#88C8E8;fill-opacity:0.301961}
    .fil27 {fill:#C9EDFF;fill-opacity:0.301961}
    .fil58 {fill:#64A4DB;fill-opacity:0.317647}
    .fil91 {fill:#88C8E8;fill-opacity:0.317647}
    .fil26 {fill:#C9EDFF;fill-opacity:0.317647}
    .fil57 {fill:#64A4DB;fill-opacity:0.333333}
    .fil90 {fill:#88C8E8;fill-opacity:0.333333}
    .fil25 {fill:#C9EDFF;fill-opacity:0.333333}
    .fil56 {fill:#64A4DB;fill-opacity:0.349020}
    .fil89 {fill:#88C8E8;fill-opacity:0.349020}
    .fil24 {fill:#C9EDFF;fill-opacity:0.349020}
    .fil55 {fill:#64A4DB;fill-opacity:0.364706}
    .fil88 {fill:#88C8E8;fill-opacity:0.364706}
    .fil23 {fill:#C9EDFF;fill-opacity:0.364706}
    .fil54 {fill:#64A4DB;fill-opacity:0.380392}
    .fil87 {fill:#88C8E8;fill-opacity:0.380392}
    .fil22 {fill:#C9EDFF;fill-opacity:0.380392}
    .fil53 {fill:#64A4DB;fill-opacity:0.392157}
    .fil86 {fill:#88C8E8;fill-opacity:0.392157}
    .fil21 {fill:#C9EDFF;fill-opacity:0.392157}
    .fil52 {fill:#64A4DB;fill-opacity:0.407843}
    .fil85 {fill:#88C8E8;fill-opacity:0.407843}
    .fil20 {fill:#C9EDFF;fill-opacity:0.407843}
    .fil51 {fill:#64A4DB;fill-opacity:0.423529}
    .fil84 {fill:#88C8E8;fill-opacity:0.423529}
    .fil19 {fill:#C9EDFF;fill-opacity:0.423529}
    .fil50 {fill:#64A4DB;fill-opacity:0.439216}
    .fil83 {fill:#88C8E8;fill-opacity:0.439216}
    .fil18 {fill:#C9EDFF;fill-opacity:0.439216}
    .fil115 {fill:#B0E5FF;fill-rule:nonzero;fill-opacity:0.439216}
    .fil49 {fill:#64A4DB;fill-opacity:0.454902}
    .fil82 {fill:#88C8E8;fill-opacity:0.454902}
    .fil17 {fill:#C9EDFF;fill-opacity:0.454902}
    .fil48 {fill:#64A4DB;fill-opacity:0.470588}
    .fil81 {fill:#88C8E8;fill-opacity:0.470588}
    .fil16 {fill:#C9EDFF;fill-opacity:0.470588}
    .fil47 {fill:#64A4DB;fill-opacity:0.486275}
    .fil80 {fill:#88C8E8;fill-opacity:0.486275}
    .fil15 {fill:#C9EDFF;fill-opacity:0.486275}
    .fil14 {fill:url(#id0)}
   ]]></style><linearGradient
       id="id0"
       gradientUnits="userSpaceOnUse"
       x1="11.0967"
       y1="8.18516"
       x2="10.9269"
       y2="15.8173"><stop
         offset="0"
         style="stop-color:#5CA2DA"
         id="stop9" /><stop
         offset="1"
         style="stop-color:#8DC8F4"
         id="stop11" /></linearGradient></defs><g
     id="Слой_x0020_1"><metadata
       id="CorelCorpID_0Corel-Layer" /><g
       id="_83451920"><path
         id="_87321120"
         class="fil0"
         d="M10.5989 18.9334c6.67313,-0.253988 9.84742,0.239248 11.3243,0.959258l0 2.1983 -21.8464 0 0 -1.70563c1.20446,-0.6293 4.00881,-1.20417 10.5221,-1.45193z" /><g
         id="g17"><path
           id="_88166368"
           class="fil1"
           d="M10.6029 19.0514c6.7046,-0.245767 9.88285,0.283185 11.3203,1.01765l0 1.97663c-0.114238,0.0170081 -0.23698,0.0323154 -0.367092,0.045355l-21.4793 0 0 -1.57297c1.16534,-0.634119 3.95042,-1.22543 10.526,-1.46667z" /><path
           id="_86565048"
           class="fil2"
           d="M10.6065 19.1698c6.71849,-0.236413 9.91772,0.325705 11.3166,1.06953l0 1.72547c-0.449581,0.0728514 -1.04316,0.109702 -1.74928,0.126144l-2.59317 0c-1.88847,-0.022394 -4.1256,-0.0663317 -6.44579,0l-10.6896 0c-0.134081,-0.0187089 -0.25739,-0.0394021 -0.368509,-0.0623631l0 -1.38588c1.13217,-0.634686 3.91584,-1.24018 10.5297,-1.4729z" /><path
           id="_81105648"
           class="fil3"
           d="M10.6094 19.2881c6.71339,-0.225074 9.95599,0.368509 11.3138,1.11488l0 1.48084c-1.78812,0.312666 -6.21817,0.00935446 -10.947,0.142868 -0.801082,0.0226775 -1.58913,0.044788 -2.35364,0.0643474l-7.34694 0c-0.488983,-0.0340162 -0.893777,-0.081639 -1.19879,-0.145136l0 -1.18858c1.10468,-0.629867 3.91017,-1.24726 10.5326,-1.46922z" /><path
           id="_82652712"
           class="fil4"
           d="M10.6128 19.4065c6.68532,-0.212035 9.99851,0.409329 11.3104,1.15003l0 1.24641c-1.68721,0.319753 -6.1816,0.0317485 -10.9583,0.154774 -4.90429,0.126427 -9.3539,0.232161 -10.888,-0.0929777l0 -1.00291c1.07831,-0.620229 3.93426,-1.24584 10.536,-1.45533z" /><path
           id="_114418472"
           class="fil5"
           d="M10.6162 19.5248c6.63628,-0.197011 10.0535,0.448164 11.307,1.17611l0 1.02162c-1.56843,0.325139 -6.13681,0.054426 -10.97,0.16668 -4.92442,0.114521 -9.4293,0.207783 -10.8764,-0.104883l0 -0.83028c1.05053,-0.604922 3.99266,-1.23451 10.5394,-1.42925z" /><path
           id="_84426840"
           class="fil6"
           d="M10.6199 19.6432c6.5674,-0.18057 10.1278,0.484448 11.3033,1.19114l0 0.808453c-1.42613,0.328257 -6.08125,0.0765365 -10.9813,0.177735 -4.94993,0.102049 -9.51803,0.183121 -10.8651,-0.114521l0 -0.671821c1.01567,-0.583945 4.08393,-1.21353 10.543,-1.39098z" /><path
           id="_86566072"
           class="fil7"
           d="M10.6224 19.7614c6.4869,-0.161861 10.2403,0.520165 11.3008,1.19794l0 0.603221c-1.24443,0.330524 -6.00755,0.099781 -10.994,0.189074 -4.98083,0.0895761 -9.62064,0.157325 -10.8523,-0.122175l0 -0.527252c0.967478,-0.557583 4.20724,-1.18263 10.5456,-1.34081z" /><path
           id="_112505608"
           class="fil8"
           d="M10.6261 19.8799c6.40526,-0.142018 10.4155,0.555882 11.2971,1.19709l0 0.40451c-0.999794,0.331375 -5.9021,0.124159 -11.0054,0.201546 -5.02533,0.0762531 -9.75245,0.130679 -10.841,-0.128411l0 -0.393454c0.89321,-0.526968 4.35493,-1.14436 10.5493,-1.28128z" /><path
           id="_111574768"
           class="fil9"
           d="M10.6295 19.9981c6.38428,-0.121041 10.7596,0.606623 11.2937,1.20417l0 0.189074c-0.580827,0.341863 -5.70906,0.157609 -11.017,0.22309 -5.0894,0.0626466 -9.92622,0.102899 -10.8294,-0.13238l0 -0.270429c0.775854,-0.491818 4.51934,-1.09929 10.5527,-1.21353z" /><path
           id="_86203304"
           class="fil10"
           d="M10.6329 20.1166c6.34318,-0.0966628 11.2049,0.652545 11.216,1.18972 0.0110553,0.340729 -5.39554,0.187089 -10.9541,0.239248 -5.1957,0.0487566 -10.1873,0.0742688 -10.818,-0.134648l0 -0.150522c0.565236,-0.452983 4.67326,-1.05422 10.5561,-1.1438z" /><path
           id="_114355888"
           class="fil11"
           d="M10.6357 20.2348c5.8763,-0.0643474 11.0757,0.598402 11.0831,1.05819 0.00737018,0.243783 -5.36408,0.149104 -10.8364,0.183971 -5.47265,0.0348666 -10.7905,0.0436542 -10.7905,-0.144852 0,-0.407628 4.66788,-1.03296 10.5439,-1.09731z" /><path
           id="_85145096"
           class="fil12"
           d="M10.6394 20.3533c5.40915,-0.0323154 10.9461,0.543693 10.9498,0.926092 0.00368509,0.146837 -5.33204,0.111403 -10.7182,0.128695 -5.38647,0.0175751 -10.6956,0.0099214 -10.6956,-0.107435 0,-0.35632 5.05481,-0.91532 10.464,-0.947352z" /></g><path
         id="_87989968"
         class="fil13"
         d="M10.6425 20.4718c4.94256,0 10.8172,0.48955 10.8172,0.794563 0,0.0994975 -21.2012,0.0955289 -21.2012,0.00311815 0,-0.305012 5.44175,-0.797681 10.384,-0.797681z" /></g><path
       class="fil14"
       d="M1.70081 3.55696l18.6219 0c0.631852,0 1.1489,0.520732 1.1489,1.14833l0 14.591c0,0.629017 -0.517897,1.14918 -1.1489,1.14918 -7.56549,0 -5.71756,0 -18.6219,0 -0.630434,0 -1.14861,-0.517047 -1.14861,-1.14918l0 -14.591c0,-0.631852 0.516763,-1.14833 1.14861,-1.14833z"
       id="path32" /><g
       id="_85689680"><g
         id="g35"><path
           id="_83853992"
           class="fil15"
           d="M0.532921 10.2984c1.68324,-0.253421 3.40219,-0.0308981 5.03072,1.02786 0.958974,0.629017 1.8261,1.21211 2.60621,1.73908 4.19845,2.92341 5.49334,3.81577 8.79858,2.67594 1.18632,-0.390336 2.79954,-1.45646 4.52161,-2.36328l0 0.214302c-1.70336,0.902564 -3.30043,1.9565 -4.4754,2.34542 -3.37554,1.16421 -4.68545,0.263909 -8.93238,-2.69409 -0.771318,-0.521866 -1.62796,-1.09759 -2.60168,-1.73795 -1.5758,-1.02162 -3.27151,-1.2158 -4.94766,-0.947636l0 -0.259657z" /><path
           id="_117276168"
           class="fil16"
           d="M0.532921 10.5929l0.0651978 -0.0099214c1.73568,-0.261925 3.50509,-0.0722845 5.19201,0.972014 0.958974,0.604922 1.83971,1.17073 2.64278,1.69202 4.13269,2.84659 5.46244,3.74264 8.72573,2.6938 1.15287,-0.336761 2.69295,-1.28525 4.3314,-2.10022l0 0.206932c-1.62314,0.813555 -3.14849,1.75439 -4.29086,2.09001 -3.33217,1.07633 -4.67241,0.170365 -8.85329,-2.71024 -0.791444,-0.514779 -1.66254,-1.07406 -2.63541,-1.69117 -1.605,-0.985053 -3.31885,-1.15967 -5.0191,-0.9071l-0.158459 0.0246618 0 -0.260791z" /><path
           id="_112591496"
           class="fil17"
           d="M0.532921 10.8869c0.0918438,-0.0144569 0.183688,-0.0283469 0.276382,-0.0413864 1.74135,-0.235562 3.50963,-0.0592449 5.20817,0.937714 0.958124,0.578843 1.8536,1.12849 2.6785,1.64497 4.06692,2.76949 5.43012,3.67064 8.6526,2.71166 1.118,-0.284319 2.58495,-1.11885 4.14148,-1.84623l0 0.201263c-1.54264,0.726814 -2.9974,1.55738 -4.10746,1.84255 -3.28654,0.986187 -4.66022,0.07682 -8.77194,-2.72583 -0.814122,-0.50996 -1.69939,-1.05365 -2.66857,-1.64242 -1.62059,-0.941116 -3.33614,-1.10269 -5.04432,-0.876768 -0.121892,0.0167246 -0.243783,0.0348666 -0.364824,0.0535756l0 -0.25909z" /><path
           id="_112631384"
           class="fil18"
           d="M0.532921 11.1743c0.162428,-0.0243783 0.324855,-0.0456384 0.486432,-0.0651978 1.74787,-0.210901 3.51388,-0.0476227 5.22461,0.902281 0.957274,0.552764 1.86891,1.08625 2.71506,1.59678 4.00116,2.69465 5.39753,3.6009 8.57946,2.7315 1.08228,-0.236413 2.47695,-0.962093 3.95155,-1.60302l0 0.196727c-1.46468,0.641206 -2.84829,1.36717 -3.92377,1.6033 -3.24231,0.898029 -4.64832,-0.0153073 -8.69172,-2.74171 -0.835382,-0.504291 -1.73341,-1.03126 -2.70287,-1.59593 -1.6342,-0.89491 -3.34975,-1.04288 -5.06785,-0.842185 -0.189924,0.0221106 -0.380698,0.0470558 -0.570906,0.0765365l0 -0.25909z" /><path
           id="_51247984"
           class="fil19"
           d="M0.532921 11.4567c0.231594,-0.0325989 0.464605,-0.0609458 0.698467,-0.0850406 1.75439,-0.184255 3.51785,-0.0351501 5.23907,0.868831 0.956707,0.528386 1.88195,1.04487 2.75163,1.54887 3.93539,2.61755 5.36663,3.52862 8.50633,2.74851 1.04487,-0.188507 2.36753,-0.811854 3.76163,-1.36915l0 0.192475c-1.38588,0.560134 -2.70061,1.18547 -3.73867,1.37539 -3.19809,0.807886 -4.63698,-0.110269 -8.61206,-2.75787 -0.856642,-0.497771 -1.76998,-1.00858 -2.73689,-1.54746 -1.65007,-0.850973 -3.36619,-0.98562 -5.09223,-0.811287 -0.259941,0.0260791 -0.519031,0.0566937 -0.777271,0.0926942l0 -0.255972z" /><path
           id="_114949024"
           class="fil20"
           d="M0.532921 11.7313c0.302178,-0.0365675 0.604922,-0.0700168 0.908517,-0.0966628 1.76119,-0.159309 3.52295,-0.0226775 5.25551,0.833681 0.956423,0.502873 1.89754,1.00376 2.78735,1.5021 3.86963,2.5413 5.33516,3.45718 8.43348,2.76609 1.00688,-0.143719 2.25783,-0.669836 3.57227,-1.1472l0 0.188507c-1.30963,0.48133 -2.55434,1.01227 -3.55611,1.15825 -3.15189,0.718593 -4.62394,-0.20268 -8.52985,-2.77317 -0.878753,-0.491818 -1.80598,-0.988172 -2.77119,-1.5004 -1.66538,-0.805618 -3.3815,-0.928076 -5.11718,-0.778688 -0.329107,0.0286303 -0.655379,0.0617962 -0.982786,0.0989306l0 -0.251437z" /><path
           id="_111561360"
           class="fil21"
           d="M0.532921 11.995c0.371344,-0.0374179 0.745522,-0.0697333 1.1197,-0.0980801 1.76743,-0.13238 3.52692,-0.00963793 5.27167,0.799665 0.954722,0.476794 1.91143,0.962093 2.82391,1.45391 3.80302,2.46589 5.30256,3.38773 8.35949,2.78508 0.966061,-0.100631 2.14671,-0.537457 3.38235,-0.937714l0 0.184255c-1.23252,0.407344 -2.40977,0.850122 -3.37101,0.954722 -3.1088,0.62845 -4.61232,-0.297075 -8.4502,-2.78961 -0.90143,-0.486432 -1.84255,-0.966061 -2.80464,-1.45334 -1.6804,-0.760546 -3.39851,-0.868548 -5.14155,-0.74694 -0.39799,0.0274965 -0.794279,0.0609458 -1.18972,0.0972297l0 -0.249169z" /><path
           id="_85183912"
           class="fil22"
           d="M0.532921 12.2484c0.442495,-0.0317485 0.885273,-0.0615127 1.33089,-0.0875918 1.7731,-0.108002 3.53117,0.000850406 5.28697,0.763948 0.954722,0.451282 1.92532,0.919856 2.86048,1.40714 3.7364,2.38992 5.27167,3.31573 8.28635,2.80322 0.925525,-0.0632135 2.03304,-0.413297 3.19242,-0.741837l0 0.182554c-1.15769,0.335343 -2.2652,0.693364 -3.1876,0.760546 -3.06401,0.540008 -4.60013,-0.390336 -8.37083,-2.80577 -0.920706,-0.480763 -1.87628,-0.944234 -2.83752,-1.40515 -1.69458,-0.715475 -3.41325,-0.812138 -5.16622,-0.713774 -0.466022,0.0249452 -0.930344,0.0535756 -1.39495,0.0819224l0 -0.2452z" /><path
           id="_83485008"
           class="fil23"
           d="M0.532921 12.4893c0.512511,-0.0201263 1.02559,-0.0428038 1.54094,-0.0663317 1.7799,-0.0819224 3.53684,0.0136065 5.3037,0.729932 0.954722,0.426904 1.93949,0.878469 2.89677,1.3598 3.67149,2.3131 5.23935,3.24345 8.21322,2.82136 0.881587,-0.0260791 1.92022,-0.299626 3.0025,-0.559284l0 0.180853c-1.08398,0.269012 -2.12318,0.549929 -3.00392,0.580544 -3.01951,0.450715 -4.58822,-0.483597 -8.28806,-2.82051 -0.944234,-0.476511 -1.9137,-0.923824 -2.87409,-1.35838 -1.70903,-0.670403 -3.42799,-0.75431 -5.19003,-0.682592 -0.534905,0.0218271 -1.06669,0.040536 -1.60103,0.0541425l0 -0.239531z" /><path
           id="_113991624"
           class="fil24"
           d="M0.532921 12.7153c0.584796,-0.000850406 1.16676,-0.0121892 1.75212,-0.0291973 1.78557,-0.0561268 3.53996,0.0260791 5.31901,0.695632 0.953872,0.400258 1.95423,0.836516 2.93418,1.31218 3.60487,2.23685 5.20675,3.17286 8.13867,2.83837 0.836799,0.00651978 1.80655,-0.193893 2.81314,-0.391187l0 0.180853c-1.01,0.205515 -1.98201,0.415848 -2.81966,0.414148 -2.97415,0.361422 -4.57603,-0.577142 -8.20925,-2.83752 -0.965494,-0.470274 -1.94771,-0.900296 -2.90584,-1.31048 -1.72462,-0.625332 -3.44414,-0.695065 -5.21412,-0.650277 -0.604072,0.0147404 -1.20332,0.0204097 -1.80825,0.0147404l0 -0.237263z" /><path
           id="_86543856"
           class="fil25"
           d="M0.532921 12.9279c0.65623,0.0246618 1.30736,0.0303311 1.96415,0.0195593 1.79124,-0.0283469 3.54307,0.0391187 5.33261,0.662466 0.953872,0.375312 1.96869,0.793996 2.97075,1.26427 3.53911,2.16116 5.17585,3.10143 8.06638,2.85793 0.790027,0.0348666 1.69117,-0.102616 2.62322,-0.239531l0 0.181703c-0.937714,0.14627 -1.84311,0.293107 -2.63626,0.261358 -2.92936,0.271279 -4.56384,-0.670403 -8.12818,-2.85283 -0.986471,-0.464322 -1.984,-0.878469 -2.93985,-1.26342 -1.73993,-0.581111 -3.4603,-0.637237 -5.23935,-0.618529 -0.671254,0.00793712 -1.33882,-0.00566937 -2.01348,-0.0399691l0 -0.233011z" /><path
           id="_87379696"
           class="fil26"
           d="M0.532921 13.1235c0.730215,0.058678 1.44852,0.0878753 2.17364,0.0870249 1.79832,-0.00311815 3.54959,0.0510244 5.35132,0.62845 0.953022,0.349233 1.98201,0.752042 3.00562,1.21693 3.47419,2.08349 5.14439,3.03028 7.99325,2.87522 0.74127,0.0609458 1.57438,-0.0178585 2.43329,-0.104033l0 0.183688c-0.86628,0.0932612 -1.70563,0.182554 -2.452,0.125577 -2.88543,0.181987 -4.55137,-0.764798 -8.04767,-2.87069 -1.0083,-0.457235 -2.02,-0.856075 -2.97387,-1.21466 -1.75524,-0.536039 -3.47674,-0.578843 -5.26373,-0.585363 -0.739003,-0.00255122 -1.47205,-0.040536 -2.21984,-0.112254l0 -0.229893z" /><path
           id="_112734696"
           class="fil27"
           d="M0.532921 13.3049c0.805618,0.099781 1.59139,0.158742 2.38539,0.168664 1.80428,0.0226775 3.553,0.0632135 5.36606,0.593583 0.951604,0.324005 1.99647,0.710372 3.04219,1.16902 3.40843,2.00894 5.11179,2.95856 7.91926,2.8928 0.692797,0.0836232 1.4576,0.0535756 2.24422,0.0164412l0 0.186806c-0.796547,0.0442211 -1.56957,0.0833398 -2.26775,0.00481897 -2.84149,0.09071 -4.54003,-0.858343 -7.96717,-2.88741 -1.02956,-0.451849 -2.05656,-0.833681 -3.00902,-1.16676 -1.76913,-0.490968 -3.49092,-0.521015 -5.28697,-0.554465 -0.806468,-0.0136065 -1.60528,-0.0824894 -2.42621,-0.198145l0 -0.225358z" /><path
           id="_88011672"
           class="fil28"
           d="M0.532921 13.4679c0.881871,0.151939 1.73426,0.2452 2.59601,0.268728 1.80938,0.0487566 3.55753,0.0756861 5.38194,0.558717 0.951604,0.297926 2.01036,0.668136 3.07875,1.12197 3.34266,1.93156 5.08089,2.88798 7.84613,2.91066 0.641773,0.101482 1.33882,0.114521 2.0543,0.117923l0 0.189641c-0.72653,0.00340162 -1.43634,-0.000566937 -2.08406,-0.099781 -2.79557,0.00340162 -4.52813,-0.951321 -7.88695,-2.90102 -1.05139,-0.447313 -2.09143,-0.813271 -3.04162,-1.12112 -1.78443,-0.445613 -3.50736,-0.462621 -5.3122,-0.521015 -0.871949,-0.0286303 -1.73568,-0.131813 -2.63229,-0.300477l0 -0.224224z" /><path
           id="_82445320"
           class="fil29"
           d="M0.532921 13.6133c0.959825,0.214302 1.87798,0.346682 2.80691,0.385801 1.81618,0.0728514 3.56178,0.0875918 5.39753,0.524133 0.950754,0.27298 2.02567,0.626749 3.11532,1.07435 3.27605,1.85587 5.04858,2.81711 7.77328,2.93078 0.58763,0.114521 1.21948,0.160727 1.86409,0.199845l0 0.193326c-0.658498,-0.0325989 -1.30311,-0.0731349 -1.89981,-0.185388 -2.75163,-0.0867414 -4.51679,-1.04458 -7.80673,-2.91859 -1.07236,-0.441644 -2.12772,-0.790027 -3.07535,-1.07179 -1.80003,-0.401959 -3.52437,-0.405077 -5.33658,-0.48955 -0.937147,-0.0436542 -1.86522,-0.189924 -2.83865,-0.420667l0 -0.222239z" /><path
           id="_84090632"
           class="fil30"
           d="M0.532921 13.7423c1.04005,0.283469 2.02425,0.464605 3.01809,0.518748 1.82185,0.101482 3.5666,0.101482 5.41283,0.491251 0.950754,0.246901 2.04041,0.584512 3.15274,1.02644 3.20943,1.78047 5.01598,2.74511 7.69929,2.94864 0.533204,0.122458 1.09844,0.198145 1.67417,0.263342l0 0.198712c-0.591032,-0.0609458 -1.17073,-0.129829 -1.71725,-0.254271 -2.70514,-0.175184 -4.5029,-1.13813 -7.72594,-2.93248 -1.09277,-0.435975 -2.16315,-0.770468 -3.10908,-1.02644 -1.81363,-0.35547 -3.53826,-0.346682 -5.36096,-0.456101 -1.00008,-0.0615127 -1.9908,-0.256539 -3.04389,-0.557866l0 -0.219972z" /><path
           id="_82867256"
           class="fil31"
           d="M0.532921 13.8537c1.12395,0.361139 2.16967,0.597552 3.22927,0.671537 1.82894,0.12586 3.57057,0.111687 5.42814,0.455251 0.951037,0.222523 2.05401,0.543126 3.18874,0.979101 3.14338,1.7045 4.98565,2.67226 7.62672,2.96593 0.476511,0.128978 0.976549,0.222523 1.48424,0.309264l0 0.204664c-0.524417,-0.0844737 -1.04005,-0.174333 -1.53186,-0.303595 -2.66262,-0.265327 -4.49241,-1.23252 -7.64572,-2.95119 -1.11573,-0.428888 -2.19887,-0.746089 -3.1431,-0.975982 -1.83007,-0.311815 -3.55441,-0.288288 -5.38534,-0.425486 -1.06386,-0.0796547 -2.11694,-0.328824 -3.2511,-0.709522l0 -0.219972z" /><path
           id="_81027192"
           class="fil32"
           d="M0.532921 13.9469c1.20899,0.449581 2.31651,0.74694 3.44018,0.840201 1.83518,0.15279 3.57426,0.125293 5.44458,0.421518 0.949336,0.196444 2.06819,0.500889 3.22502,0.932045 3.07705,1.62711 4.95248,2.60139 7.55302,2.98379 0.418967,0.128978 0.854374,0.234712 1.29432,0.333643l0 0.212885c-0.458652,-0.099214 -0.912486,-0.204664 -1.34789,-0.334776 -2.61812,-0.35547 -4.48079,-1.32663 -7.56606,-2.96678 -1.13643,-0.423502 -2.2343,-0.72568 -3.17598,-0.929494 -1.84481,-0.266177 -3.5717,-0.230743 -5.41057,-0.393738 -1.12537,-0.0989306 -2.23855,-0.409329 -3.45662,-0.877052l0 -0.222239z" /><path
           id="_51326512"
           class="fil33"
           d="M0.532921 14.024c1.29772,0.545394 2.46674,0.910218 3.65051,1.02616 1.84226,0.178018 3.57964,0.137199 5.46074,0.387502 0.949336,0.170365 2.08264,0.458652 3.26074,0.883288 3.01299,1.55142 4.92187,2.53081 7.48017,3.00222 0.361139,0.12501 0.731633,0.234995 1.10496,0.339312l0 0.217704 0 0.00170081c-0.394588,-0.106301 -0.784925,-0.21742 -1.16506,-0.346682 -2.57219,-0.443912 -4.4669,-1.41933 -7.48414,-2.98124 -1.15939,-0.4184 -2.27087,-0.704136 -3.21113,-0.883288 -1.86012,-0.221106 -3.58616,-0.171499 -5.43324,-0.360572 -1.18688,-0.120191 -2.35931,-0.498338 -3.66355,-1.06216l0 -0.22394z" /><path
           id="_82763728"
           class="fil34"
           d="M0.532921 14.0833c1.38956,0.651978 2.61613,1.09107 3.86254,1.2294 1.84623,0.20353 3.58276,0.149104 5.4752,0.353202 0.948203,0.145136 2.09653,0.416982 3.29816,0.835949 2.94637,1.47545 4.88927,2.45937 7.40618,3.02036 0.301327,0.115372 0.60719,0.220822 0.915037,0.325705l0 0.0323154c0,0.0657647 -0.00566937,0.128411 -0.0161577,0.189074 -0.324855,-0.106301 -0.64886,-0.214869 -0.963793,-0.334493 -2.52826,-0.533204 -4.45669,-1.51174 -7.40448,-2.99711 -1.1798,-0.413297 -2.30772,-0.681459 -3.24458,-0.835666 -1.87543,-0.175467 -3.60232,-0.113671 -5.45904,-0.328824 -1.24641,-0.143719 -2.47638,-0.59415 -3.86906,-1.26172l0 -0.228192z" /><path
           id="_87397080"
           class="fil35"
           d="M0.532921 14.1272c1.48282,0.765649 2.76779,1.2861 4.07259,1.44739 1.8536,0.230743 3.58815,0.161577 5.49164,0.319186 0.947636,0.120191 2.11127,0.375029 3.33387,0.789177 2.88089,1.39892 4.85837,2.38794 7.3339,3.03963 0.23698,0.0983636 0.476511,0.194459 0.718026,0.288571 -0.009071,0.0745522 -0.0260791,0.146837 -0.0504574,0.21657 -0.248319,-0.094962 -0.49522,-0.191625 -0.739853,-0.292256 -2.4829,-0.623348 -4.4428,-1.60613 -7.32341,-3.01384 -1.20077,-0.408195 -2.34145,-0.660765 -3.27831,-0.787476 -1.88932,-0.131529 -3.61734,-0.0558433 -5.482,-0.297359 -1.30396,-0.167246 -2.59175,-0.697049 -4.076,-1.47574l0 -0.233862z" /><path
           id="_115109872"
           class="fil36"
           d="M0.532921 14.1556c1.58005,0.88669 2.92114,1.49473 4.28378,1.68239 1.85927,0.255689 3.59126,0.174617 5.50723,0.284886 0.946502,0.0941116 2.12545,0.333643 3.37186,0.74127 2.81399,1.32181 4.8235,2.31707 7.25991,3.05664 0.165546,0.0756861 0.333926,0.150522 0.502023,0.225074 -0.0187089,0.0731349 -0.0456384,0.144569 -0.0782373,0.21005 -0.167813,-0.072001 -0.33591,-0.145703 -0.502306,-0.221389 -2.43896,-0.712924 -4.43061,-1.70024 -7.24319,-3.0283 -1.22288,-0.403092 -2.37802,-0.639222 -3.31261,-0.74127 -1.90378,-0.0853241 -3.63322,0.00311815 -5.50723,-0.263909 -1.36065,-0.193326 -2.70259,-0.808736 -4.28123,-1.70676l0 -0.238681z" /><path
           id="_85834960"
           class="fil37"
           d="M0.532921 14.17c1.67927,1.0151 3.07648,1.71669 4.49496,1.93099 1.86551,0.281484 3.5958,0.186522 5.52254,0.250019 0.946502,0.0688829 2.14019,0.291406 3.40729,0.693364 2.74936,1.24698 4.79459,2.24592 7.18735,3.07535l0.27865 0.136348c-0.0269295,0.0714341 -0.0609458,0.141451 -0.102616,0.205515l-0.259941 -0.12586c-2.39333,-0.802783 -4.41899,-1.79436 -7.1624,-3.047 -1.24556,-0.395439 -2.41402,-0.616261 -3.34776,-0.692797 -1.91852,-0.0385517 -3.64767,0.0609458 -5.53132,-0.231027 -1.41508,-0.219972 -2.81173,-0.926375 -4.48674,-1.9497l0 -0.2452z" /><path
           id="_112362776"
           class="fil38"
           d="M0.532921 14.17c1.7833,1.1506 3.23324,1.95111 4.70586,2.19291 1.87146,0.308697 3.6009,0.200696 5.53954,0.217137 0.945084,0.0428038 2.15323,0.248885 3.44273,0.646025 2.68246,1.16988 4.76086,2.17364 7.11393,3.09179l0.0504574 0.0277799c-0.0334493,0.0714341 -0.0739853,0.138049 -0.121892,0.198995l-0.0187089 -0.00935446c-2.34882,-0.892076 -4.40624,-1.88762 -7.08218,-3.06146 -1.26597,-0.39062 -2.44945,-0.595001 -3.38008,-0.645458 -1.93382,0.00396856 -3.66412,0.11934 -5.55599,-0.200696 -1.4695,-0.247468 -2.91888,-1.04883 -4.69367,-2.2051l0 -0.252571z" /><path
           id="_88802936"
           class="fil39"
           d="M0.532921 14.1564c1.89045,1.29318 3.39057,2.19943 4.91705,2.46986 1.87713,0.332792 3.60487,0.212035 5.55485,0.180853 0.944517,0.018142 2.16825,0.208633 3.47929,0.599253 2.54697,1.06528 4.61487,2.04834 6.85427,3.0283 -0.0433707,0.0722845 -0.0943951,0.138333 -0.151089,0.196727 -2.20992,-0.947352 -4.24494,-1.91625 -6.75931,-2.975 -1.28836,-0.383817 -2.48517,-0.57204 -3.41466,-0.597268 -1.9497,0.0493235 -3.68056,0.176601 -5.58121,-0.16668 -1.52223,-0.276098 -3.02178,-1.18121 -4.89919,-2.4744l0 -0.261642z" /><path
           id="_111581064"
           class="fil40"
           d="M0.532921 14.1312c1.99902,1.44115 3.55129,2.45682 5.12653,2.75787 1.88507,0.359155 3.60969,0.223657 5.57129,0.14627 0.945084,-0.00651978 2.18186,0.167246 3.51558,0.552197 2.39134,0.953022 4.42806,1.90406 6.54217,2.9237 -0.0501739,0.0688829 -0.107718,0.13323 -0.171782,0.189074 -2.07783,-0.984203 -4.07373,-1.91426 -6.42567,-2.85963 -1.30877,-0.378147 -2.52004,-0.551346 -3.44811,-0.549362 -1.96302,0.0941116 -3.69501,0.235279 -5.60474,-0.136632 -1.57325,-0.305296 -3.12326,-1.31529 -5.10527,-2.75305l0 -0.270429z" /><path
           id="_83470440"
           class="fil41"
           d="M0.532921 14.0932c2.11127,1.59508 3.71145,2.72697 5.33913,3.05834 1.8896,0.385801 3.61224,0.236129 5.58603,0.112821 0.943384,-0.0331658 2.19631,0.124159 3.55215,0.504007 2.23997,0.848705 4.23247,1.75864 6.23376,2.79954 -0.0561268,0.0691663 -0.11934,0.130112 -0.190774,0.182837 -1.95905,-1.00008 -3.90365,-1.88875 -6.09741,-2.7264 -1.3306,-0.372761 -2.55575,-0.527819 -3.48071,-0.502023 -1.98003,0.13975 -3.71287,0.293107 -5.62969,-0.10375 -1.62286,-0.33421 -3.22247,-1.45816 -5.31249,-3.04445l0 -0.280917z" /><path
           id="_82892880"
           class="fil42"
           d="M0.532921 14.0433c2.22636,1.75637 3.8736,3.00845 5.54947,3.37186 1.89669,0.410179 3.61791,0.248885 5.60134,0.0773869 0.944234,-0.0578276 2.21162,0.0819224 3.58956,0.456101 2.09313,0.748924 4.03348,1.6152 5.93413,2.66319 -0.0609458,0.0666151 -0.130396,0.12586 -0.206082,0.175467 -1.8536,-1.00263 -3.7398,-1.84311 -5.77993,-2.57956 -1.35356,-0.366241 -2.59345,-0.505708 -3.51671,-0.453833 -1.99477,0.183688 -3.72733,0.351501 -5.65463,-0.0714341 -1.67105,-0.367092 -3.31602,-1.60415 -5.51715,-3.34663l0 -0.29254z" /><path
           id="_82467344"
           class="fil43"
           d="M0.532921 13.9852c2.34429,1.91823 4.03858,3.29702 5.7598,3.69246 1.90321,0.436825 3.62273,0.259941 5.6175,0.0436542 0.943667,-0.0841902 2.22551,0.040536 3.62613,0.407628 1.95168,0.655379 3.83221,1.4746 5.64131,2.51465 -0.0660482,0.0654813 -0.13975,0.123309 -0.220255,0.170365 -1.75609,-0.99129 -3.57709,-1.78188 -5.47321,-2.42167 -1.37284,-0.360572 -2.62719,-0.485015 -3.54959,-0.406777 -2.00752,0.228759 -3.74207,0.409045 -5.67759,-0.0391187 -1.71895,-0.399407 -3.41013,-1.75722 -5.72408,-3.65703l0 -0.304162z" /><path
           id="_88332840"
           class="fil44"
           d="M0.532921 13.9169c2.46589,2.08746 4.20356,3.59438 5.97183,4.02384 1.90774,0.46177 3.62585,0.271846 5.63366,0.00878753 0.941966,-0.108852 2.23855,-0.000850406 3.66185,0.360572 1.81618,0.565803 3.6301,1.3357 5.35274,2.35704 -0.0680325,0.0649143 -0.145419,0.121608 -0.228759,0.167246 -1.66878,-0.970313 -3.4175,-1.70762 -5.17444,-2.25811 -1.39637,-0.354619 -2.66375,-0.463471 -3.58361,-0.360572 -2.02425,0.273831 -3.75908,0.468857 -5.70367,-0.00623631 -1.76374,-0.430305 -3.49942,-1.91455 -5.9296,-3.97678l0 -0.315784z" /><path
           id="_85343360"
           class="fil45"
           d="M0.532921 13.8389c2.58949,2.25953 4.3708,3.9011 6.18217,4.364 1.91426,0.4887 3.63067,0.284886 5.64981,-0.0249452 0.941116,-0.135215 2.25329,-0.0425203 3.69813,0.313233 1.68749,0.483881 3.42884,1.19822 5.0721,2.19121 -0.0711506,0.0657647 -0.151656,0.121892 -0.23783,0.164979 -1.58544,-0.936864 -3.25961,-1.61917 -4.8836,-2.08661 -1.41763,-0.350934 -2.69947,-0.441644 -3.61706,-0.312666 -2.03956,0.319186 -3.77438,0.526118 -5.7272,0.0252287 -1.8091,-0.463755 -3.58786,-2.07612 -6.13653,-4.3056l0 -0.328824z" /><path
           id="_83391408"
           class="fil46"
           d="M0.532921 13.753c2.7162,2.43613 4.53862,4.21603 6.39307,4.7121 1.92107,0.515629 3.63577,0.297926 5.6654,-0.0592449 0.941116,-0.159876 2.26718,-0.0844737 3.73413,0.266461 1.56361,0.405927 3.22899,1.06584 4.79771,2.02227 -0.0748357,0.0649143 -0.156758,0.120191 -0.246051,0.162428 -1.50805,-0.896328 -3.10086,-1.52251 -4.59871,-1.91285 -1.4386,-0.344131 -2.73547,-0.419534 -3.65193,-0.263909 -2.05345,0.36284 -3.78941,0.582811 -5.75158,0.0558433 -1.85275,-0.496637 -3.67319,-2.24082 -6.34204,-4.64066l0 -0.34243z" /></g><g
         id="g69"><path
           id="_82721344"
           class="fil47"
           d="M21.4679 20.0962c-0.318902,0.0504574 -0.630434,0.0989306 -0.934313,0.145986 -1.52308,0.282051 -2.81966,0.520448 -3.95552,0.701868l1.12055 -0.00340162c0.85976,-0.148538 1.80484,-0.322304 2.85595,-0.518181l0.856075 -0.134648c0.0249452,-0.0615127 0.0445046,-0.12586 0.0572607,-0.191625zm-20.935 -4.72684l0 -0.25172c2.70372,1.53838 4.97572,3.81832 6.83811,4.79175 0.901147,0.473393 1.71158,0.816106 2.51777,1.04515l-0.691097 0.00141734c-0.635537,-0.222239 -1.28695,-0.514779 -1.99392,-0.885556 -1.8261,-0.953305 -4.0417,-3.16634 -6.67087,-4.70104z" /><path
           id="_86930536"
           class="fil48"
           d="M21.481 20.0217c-0.469141,0.0575441 -0.922974,0.11197 -1.36292,0.162428 -1.89981,0.332792 -3.44584,0.595001 -4.76766,0.762247l1.34449 -0.00226775c1.01085,-0.155341 2.14444,-0.350084 3.43932,-0.577426 0.420384,-0.0493235 0.855792,-0.102332 1.30481,-0.157609 0.0192759,-0.0600953 0.0340162,-0.122458 0.0419534,-0.187373zm-20.948 -4.57008l0 -0.252571c2.56908,1.46922 4.75462,3.56745 6.5708,4.50517 1.21551,0.632702 2.26775,1.03438 3.36534,1.24953l-0.892076 0.00141734c-0.843603,-0.239531 -1.69061,-0.5933 -2.63626,-1.0871 -1.7782,-0.917304 -3.91017,-2.95374 -6.40781,-4.41644z" /><path
           id="_83645512"
           class="fil49"
           d="M21.4861 19.9786c-0.61541,0.0558433 -1.21154,0.106301 -1.78472,0.149388 -2.6904,0.440794 -4.66901,0.73957 -6.30831,0.820642l2.10532 -0.00311815c1.19992,-0.148538 2.57588,-0.365958 4.21433,-0.63582 0.558717,-0.0436542 1.13756,-0.0924108 1.73993,-0.148538 0.0161577,-0.0592449 0.0277799,-0.120191 0.0334493,-0.182554zm-20.9532 -4.45159l0 -0.252571c2.4384,1.39722 4.5372,3.32225 6.30463,4.22368 1.7731,0.916454 3.20546,1.35725 4.9332,1.45334l-1.62796 0.00311815c-1.12934,-0.226775 -2.21247,-0.64149 -3.46455,-1.2878 -1.72746,-0.882438 -3.77524,-2.75248 -6.14532,-4.13978z" /><path
           id="_84057696"
           class="fil50"
           d="M21.4866 19.9621c-0.759129,0.0464889 -1.49388,0.081639 -2.2,0.109135 -6.6961,1.01624 -8.95619,1.14805 -12.717,-0.780389 -1.7147,-0.863162 -3.72733,-2.62577 -6.03675,-3.94843l0 0.252571c2.24422,1.31218 4.20582,3.02433 5.88254,3.86793 1.74135,0.89406 3.16294,1.35271 4.83314,1.48991l2.50331 -0.00481897c1.49048,-0.099214 3.26046,-0.346115 5.53954,-0.694215 0.694215,-0.0274965 1.41508,-0.0632135 2.16627,-0.110269 0.0153073,-0.058678 0.0252287,-0.11934 0.0289138,-0.18142z" /><path
           id="_115766720"
           class="fil51"
           d="M21.4861 19.9729c-0.90058,0.0291973 -1.7748,0.0396856 -2.615,0.0413864 -6.54416,0.912486 -8.82976,0.97173 -12.567,-0.929494 -1.66028,-0.824894 -3.58758,-2.43528 -5.77114,-3.68027l0 0.250586c2.12261,1.23592 3.99889,2.79869 5.6192,3.60572 3.8033,1.93637 6.10393,1.86806 12.7178,0.937714 0.829146,-0.00255122 1.68976,-0.0155908 2.58608,-0.0470558 0.0147404,-0.0583945 0.0249452,-0.117639 0.0300477,-0.178585z" /><path
           id="_81405944"
           class="fil52"
           d="M21.483 20.0069c-1.03778,0.00737018 -2.05033,-0.0153073 -3.02716,-0.0501739 -6.39193,0.809303 -8.70362,0.796263 -12.4196,-1.07831 -1.60216,-0.787476 -3.44074,-2.25216 -5.50326,-3.42033l0 0.251437c2.00412,1.15712 3.79253,2.57928 5.35642,3.34918 3.77665,1.90718 6.10053,1.91285 12.5599,1.08285 0.962376,0.0334493 1.9599,0.0530086 2.99853,0.0408195 0.0164412,-0.0566937 0.0286303,-0.115372 0.0351501,-0.175467z" /><path
           id="_112142784"
           class="fil53"
           d="M21.4744 20.0662c-1.16817,-0.0201263 -2.31877,-0.0853241 -3.43422,-0.166396 -6.24198,0.706404 -8.57776,0.619662 -12.2711,-1.22685 -1.54207,-0.749208 -3.29306,-2.07839 -5.23623,-3.16861l0 0.250586c1.88705,1.07917 3.58956,2.36951 5.09308,3.10058 3.75114,1.87883 6.09826,1.95622 12.402,1.23025 1.09844,0.0771035 2.23118,0.1389 3.40106,0.15279 0.0204097,-0.0561268 0.0351501,-0.112821 0.045355,-0.172349z" /><path
           id="_89000352"
           class="fil54"
           d="M21.4569 20.1481c-1.28865,-0.0507409 -2.57645,-0.168664 -3.83221,-0.304162 -6.08947,0.602371 -8.45048,0.442495 -12.1225,-1.37794 -1.48027,-0.710372 -3.14225,-1.912 -4.96921,-2.9254l0 0.25172c1.77338,1.00036 3.38915,2.16797 4.83087,2.86133 3.72449,1.8502 6.09429,1.99817 12.2422,1.37596 1.23564,0.130679 2.49991,0.242933 3.79394,0.285169 0.022961,-0.0535756 0.0422368,-0.109702 0.0569772,-0.16668z" /><path
           id="_87297592"
           class="fil55"
           d="M21.4243 20.253l-0.0226775 -0.00340162c-1.38928,-0.0841902 -2.80265,-0.263626 -4.19278,-0.464322 -5.93838,0.500322 -8.32519,0.268728 -11.974,-1.52534 -1.41508,-0.671537 -2.98861,-1.75467 -4.70189,-2.69153l0 0.25172c1.66198,0.923824 3.19101,1.97606 4.56781,2.63144 3.69756,1.821 6.09202,2.04097 12.0846,1.52138 1.37114,0.194743 2.76297,0.367092 4.16585,0.438526 0.0283469,-0.049607 0.0530086,-0.103183 0.0731349,-0.158459z" /><path
           id="_85388576"
           class="fil56"
           d="M21.3562 20.4015c-0.130112,-0.0226775 -0.260791,-0.0436542 -0.392888,-0.0632135 -1.36122,-0.129262 -2.76892,-0.358871 -4.17011,-0.609174 -5.78559,0.396573 -8.19876,0.0909934 -11.8257,-1.67473 -1.34761,-0.633269 -2.83072,-1.6067 -4.43458,-2.46731l0 0.252287c1.55398,0.847004 2.99541,1.79436 4.3056,2.40892 3.67149,1.79351 6.08777,2.08576 11.9252,1.66935 1.38219,0.2435 2.76949,0.466306 4.14318,0.581394 0.115372,0.0195593 0.229893,0.0396856 0.344414,0.0615127 0.0399691,-0.0501739 0.0745522,-0.102899 0.104883,-0.159026z" /><path
           id="_82542464"
           class="fil57"
           d="M21.2383 20.5753c-0.234429,-0.0535756 -0.471692,-0.102899 -0.712073,-0.149388 -1.33457,-0.171215 -2.73689,-0.452983 -4.14885,-0.75346 -5.63451,0.291689 -8.0712,-0.0844737 -11.6769,-1.82525 -1.27788,-0.592733 -2.67368,-1.46468 -4.16756,-2.25131l0 0.252571c1.44767,0.772735 2.80039,1.62031 4.04198,2.19717 3.64541,1.76488 6.08522,2.12942 11.7676,1.81533 1.39155,0.293673 2.77346,0.566654 4.11965,0.724262 0.209483,0.0436542 0.416415,0.09071 0.623631,0.141167 0.0549929,-0.044788 0.106301,-0.0958124 0.152506,-0.151089z" /><path
           id="_114188224"
           class="fil58"
           d="M21.0436 20.7581c-0.313233,-0.0875918 -0.631568,-0.169231 -0.955006,-0.243783 -1.30622,-0.215153 -2.70429,-0.548795 -4.12674,-0.898879 -5.4837,0.189357 -7.94534,-0.261358 -11.5284,-1.97436 -1.20644,-0.553614 -2.51295,-1.3323 -3.90053,-2.04693l0 0.254271c1.34307,0.702435 2.60905,1.45731 3.77949,1.99562 3.61791,1.73426 6.0821,2.17109 11.6095,1.96075 1.40062,0.343281 2.77771,0.667569 4.0947,0.867131 0.267027,0.0666151 0.530086,0.1389 0.790594,0.216003 0.0844737,-0.0334493 0.163278,-0.0771035 0.236413,-0.129829z" /><path
           id="_51378224"
           class="fil59"
           d="M20.7108 20.9197c-0.347533,-0.113104 -0.700734,-0.219405 -1.06046,-0.317768 -1.27873,-0.257106 -2.67112,-0.642056 -4.10406,-1.04373 -5.33204,0.085891 -7.81977,-0.437109 -11.3781,-2.12346 -1.13444,-0.513929 -2.35137,-1.20644 -3.6352,-1.8519l0 0.255972c1.24131,0.633269 2.41799,1.30367 3.51586,1.80314 3.59353,1.70563 6.0787,2.21389 11.4518,2.10674 1.41026,0.392888 2.78224,0.765649 4.07089,1.00858 0.194743,0.0575441 0.388069,0.117639 0.579693,0.180286l0.486432 -0.000850406c0.0249452,-0.00481897 0.0484731,-0.0104883 0.0731349,-0.0170081z" /><path
           id="_85856552"
           class="fil60"
           d="M19.9548 20.9376c-0.24435,-0.0853241 -0.491251,-0.16838 -0.74127,-0.247752 -1.25208,-0.299343 -2.63966,-0.737302 -4.08337,-1.18802 -5.17897,-0.0187089 -7.69277,-0.61371 -11.231,-2.27313 -1.05876,-0.475093 -2.18554,-1.08795 -3.36619,-1.6668l0 0.256539c1.14068,0.566654 2.22891,1.16024 3.25337,1.61974 3.5666,1.67813 6.07643,2.25953 11.2923,2.25471 1.4216,0.441644 2.78706,0.86628 4.04737,1.15145l0.273547 0.0946785 0.555315 -0.00141734z" /><path
           id="_87126336"
           class="fil61"
           d="M19.2078 20.939c-0.142868,-0.0549929 -0.28602,-0.107151 -0.432006,-0.159876 -1.22515,-0.344981 -2.60706,-0.832264 -4.06126,-1.33542 -5.02788,-0.121325 -7.56606,-0.78861 -11.0816,-2.42054 -0.981652,-0.435975 -2.01858,-0.976549 -3.10001,-1.49218l0 0.257956c1.04175,0.503724 2.04182,1.02644 2.99031,1.44682 3.54081,1.65007 6.07246,2.30205 11.1344,2.40013 1.43067,0.492102 2.7916,0.966911 4.02242,1.29432l0.0269295 0.00878753 0.500889 0z" /><path
           id="_84085696"
           class="fil62"
           d="M18.5159 20.9398l-0.176034 -0.0722845c-1.19907,-0.387218 -2.57616,-0.927793 -4.04085,-1.48084 -4.87623,-0.22309 -7.43963,-0.964644 -10.9325,-2.57049 -0.904265,-0.396289 -1.8519,-0.868831 -2.83355,-1.32607l0 0.259941c0.945084,0.444195 1.857,0.90143 2.7281,1.28383 3.51218,1.62031 6.06821,2.344 10.9745,2.54668 1.34704,0.505991 2.61783,0.996392 3.75993,1.36008l0.520448 -0.000850406z" /><path
           id="_113254656"
           class="fil63"
           d="M17.8642 20.9407c-1.16449,-0.429455 -2.52202,-1.01397 -3.98018,-1.6118 -4.72542,-0.326272 -7.31434,-1.14068 -10.7854,-2.71903 -0.823193,-0.35717 -1.6804,-0.769617 -2.56567,-1.16817l0 0.261358c0.849555,0.388352 1.67332,0.784358 2.46504,1.12934 3.48723,1.59054 6.06566,2.38794 10.8172,2.69068 1.27136,0.517897 2.46504,1.02389 3.53089,1.41848l0.518181 -0.000850406z" /><path
           id="_112670576"
           class="fil64"
           d="M17.2227 20.9429c-1.09306,-0.462621 -2.3732,-1.06187 -3.75426,-1.67076 -4.57348,-0.430305 -7.18791,-1.317 -10.636,-2.86927 -0.742121,-0.317485 -1.51117,-0.673238 -2.2995,-1.01992l0 0.263342c0.75516,0.33591 1.49161,0.676923 2.20113,0.983069 3.462,1.56305 6.06339,2.43103 10.6604,2.83752 1.21154,0.532638 2.344,1.05394 3.34833,1.47602l0.479912 0z" /><path
           id="_81297632"
           class="fil65"
           d="M16.626 20.9441c-1.03608,-0.492102 -2.25216,-1.10666 -3.57312,-1.72888 -4.42268,-0.534055 -7.06149,-1.49303 -10.4875,-3.01752 -0.660198,-0.280067 -1.33826,-0.583945 -2.03247,-0.881871l0 0.266177c0.66275,0.286587 1.30991,0.576575 1.93978,0.844453 3.43337,1.53385 6.05914,2.47383 10.4997,2.98464 1.16676,0.547378 2.24904,1.08568 3.20376,1.53385l0.449865 -0.000850406z" /><path
           id="_83808208"
           class="fil66"
           d="M16.0599 20.9449c-0.987888,-0.518181 -2.15294,-1.15003 -3.42232,-1.78699 -4.27045,-0.637521 -6.93591,-1.66878 -10.3401,-3.16663 -0.574874,-0.241232 -1.16449,-0.496921 -1.76459,-0.748641l0 0.267027c0.569205,0.241515 1.13047,0.485582 1.67672,0.715475 3.40843,1.50437 6.05602,2.51692 10.3412,3.12893 1.12792,0.563536 2.16797,1.1197 3.08215,1.59139l0.426904 -0.000566937z" /><path
           id="_87796544"
           class="fil67"
           d="M15.5168 20.9455c-0.945935,-0.543976 -2.06649,-1.1917 -3.29391,-1.84453 -4.1205,-0.74042 -6.81118,-1.84481 -10.1918,-3.31573 -0.491251,-0.204097 -0.990723,-0.415848 -1.49813,-0.623064l0 0.269012c0.478495,0.197011 0.950187,0.397706 1.41366,0.591032 3.38178,1.47602 6.05376,2.56171 10.1836,3.27605 1.09447,0.580544 2.1005,1.15372 2.97755,1.64809l0.409045 -0.000850406z" /><path
           id="_86568512"
           class="fil68"
           d="M14.9941 20.9463c-0.910218,-0.568355 -1.99477,-1.23337 -3.18675,-1.90207 -3.96884,-0.843886 -6.68362,-2.02113 -10.0441,-3.4654 -0.40451,-0.166396 -0.814405,-0.336194 -1.23025,-0.50259l0 0.270429c0.388069,0.158459 0.772169,0.317485 1.1506,0.472542 3.3557,1.44767 6.05035,2.60366 10.0254,3.42373 1.06613,0.596701 2.04438,1.18717 2.88968,1.70421l0.395439 -0.000850406z" /><path
           id="_51272768"
           class="fil69"
           d="M14.485 20.9472c-0.88017,-0.591882 -1.9307,-1.27306 -3.09349,-1.9599 -3.81662,-0.947636 -6.55691,-2.19717 -9.89447,-3.61451 -0.318335,-0.130112 -0.639222,-0.259941 -0.964077,-0.389202l0 0.273831c0.299059,0.119057 0.594434,0.240381 0.88754,0.359438 3.32962,1.41848 6.04724,2.64703 9.86726,3.56944 1.04401,0.61371 1.99477,1.22317 2.81399,1.76176l0.38325 -0.000850406z" /><path
           id="_114949080"
           class="fil70"
           d="M13.988 20.948c-0.852674,-0.613993 -1.87543,-1.31444 -3.01214,-2.01745 -3.66497,-1.05167 -6.43134,-2.3732 -9.74622,-3.76418 -0.230743,-0.0932612 -0.462904,-0.185955 -0.696766,-0.277799l0 0.276382c0.209767,0.0824894 0.4184,0.166396 0.625332,0.249736 3.30184,1.39013 6.04383,2.69012 9.7088,3.71542 1.02219,0.631568 1.95083,1.25917 2.74681,1.81845l0.374179 -0.000566937z" /><path
           id="_109854784"
           class="fil71"
           d="M13.5016 20.9486c-0.828012,-0.635537 -1.82752,-1.35498 -2.94127,-2.07584 -3.51416,-1.15287 -6.30463,-2.54952 -9.59881,-3.91328l-0.428605 -0.169798 0 0.279217 0.362273 0.143152c3.2769,1.3615 6.03987,2.73349 9.55034,3.86198 1.00603,0.65056 1.91455,1.29574 2.68672,1.87543l0.36936 -0.000850406z" /><path
           id="_82181840"
           class="fil72"
           d="M13.0211 20.9495c-0.805618,-0.657364 -1.78245,-1.3941 -2.87664,-2.13367 -3.36222,-1.25747 -6.17877,-2.72442 -9.44914,-4.06267l-0.162428 -0.063497 0 0.282051 0.099214 0.0379848c3.25025,1.3323 6.03817,2.77686 9.39132,4.00768 0.990723,0.668136 1.8828,1.33202 2.63626,1.93326l0.361422 -0.00113387z" /><path
           id="_81579008"
           class="fil73"
           d="M12.5492 20.9506c-0.785775,-0.678907 -1.7422,-1.43492 -2.82051,-2.1915 -3.17542,-1.34619 -5.99026,-2.86842 -9.19572,-4.16926l0 0.283469c3.15529,1.28922 5.92449,2.77658 9.06986,4.08705 0.976833,0.686844 1.8536,1.36887 2.59034,1.99108l0.356037 -0.000850406z" /><path
           id="_82972128"
           class="fil74"
           d="M12.0831 20.9514c-0.767917,-0.699884 -1.70818,-1.4746 -2.77006,-2.25017 -2.94014,-1.40685 -5.70367,-2.95289 -8.78016,-4.20951l0 0.286587c3.02518,1.24386 5.73939,2.7539 8.64863,4.12702 0.966061,0.703569 1.82752,1.40544 2.54838,2.04608l0.353202 0z" /><path
           id="_81237456"
           class="fil75"
           d="M11.6222 20.9514c-0.751192,-0.720294 -1.67672,-1.51344 -2.72498,-2.30687 -2.71251,-1.46241 -5.41198,-3.02773 -8.36431,-4.25175l0 0.288855c2.89875,1.20899 5.54947,2.74001 8.22739,4.16671 0.954722,0.722562 1.80456,1.44286 2.51011,2.10447l0.351785 -0.00141734z" /><path
           id="_85642896"
           class="fil76"
           d="M11.1658 20.9529c-0.735601,-0.74127 -1.64752,-1.55398 -2.68416,-2.36526 -2.49169,-1.50975 -5.11661,-3.09321 -7.94874,-4.29228l0 0.292256c2.77771,1.18121 5.35075,2.72867 7.80644,4.20554 0.945935,0.74042 1.78387,1.47857 2.47638,2.15975l0.350084 0z" /><path
           id="_82230664"
           class="fil77"
           d="M10.7117 20.9529c-0.721428,-0.76083 -1.61974,-1.59224 -2.6459,-2.42196 -2.27909,-1.55227 -4.81613,-3.14934 -7.5329,-4.32998l0 0.294807c2.65922,1.16194 5.14354,2.72413 7.38521,4.24154 0.937714,0.757428 1.76601,1.51571 2.44633,2.21644l0.347249 -0.000850406z" /><path
           id="_85661760"
           class="fil78"
           d="M10.263 20.9546c-0.708672,-0.782657 -1.59621,-1.63278 -2.61188,-2.4812 -2.07442,-1.58742 -4.51764,-3.19412 -7.11818,-4.36343l0 0.297359c2.54243,1.15145 4.93009,2.7213 6.96312,4.27301 0.932045,0.777271 1.74957,1.55398 2.4194,2.27427l0.347533 0z" /></g><path
         id="_84628464"
         class="fil79"
         d="M5.825 3.44244c-0.430022,-0.259657 -0.732199,16.4582 0.345265,16.8032 1.07746,0.346682 14.0904,-7.86058 14.7367,-8.55253 0.646308,-0.691097 -12.8839,-9.1583 -15.0819,-8.25064z" /><g
         id="g104"><path
           id="_85788824"
           class="fil80"
           d="M21.3463 9.66004c-2.10674,0.0958124 -3.77438,-0.286587 -5.92109,-1.29744 -2.27115,-1.06442 -5.14524,-3.80131 -8.53184,-5.31617l-0.595851 0c3.5666,1.46043 6.58696,4.39121 8.95222,5.49986 2.21644,1.04458 3.92632,1.43208 6.09656,1.32465l0 -0.210901z" /><path
           id="_86625720"
           class="fil81"
           d="M21.3463 9.46275c-2.24819,0.117073 -3.97848,-0.26476 -6.22412,-1.31303 -2.2669,-1.04883 -5.10612,-3.65589 -8.42015,-5.10329l-0.604922 0c3.49857,1.39211 6.48888,4.19562 8.85556,5.29094 2.31225,1.08172 4.0828,1.46808 6.39363,1.33797l0 -0.212601z" /><path
           id="_84783848"
           class="fil82"
           d="M21.3463 9.26942c-2.39276,0.134648 -4.18456,-0.248319 -6.52516,-1.3323 -2.25953,-1.03183 -5.05991,-3.50963 -8.29769,-4.89068l-0.617962 0c3.42884,1.3255 6.38541,4.00258 8.74898,5.08231 2.40807,1.11545 4.23757,1.50295 6.69184,1.35413l0 -0.213452z" /><path
           id="_82865880"
           class="fil83"
           d="M21.3463 9.0795c-2.5396,0.149388 -4.39235,-0.23783 -6.82734,-1.35583 -2.24904,-1.0134 -5.00521,-3.36052 -8.16276,-4.67723l-0.631001 0c3.354,1.26314 6.27458,3.80925 8.63219,4.87311 2.49906,1.14861 4.38753,1.53753 6.98892,1.37511l0 -0.215153z" /><path
           id="_85423808"
           class="fil84"
           d="M21.3463 8.89354c-2.68983,0.159309 -4.60268,-0.232161 -7.12952,-1.38361 -2.23345,-0.993558 -4.94511,-3.21 -8.01904,-4.4635l-0.642907 0c3.27661,1.19992 6.1558,3.61763 8.50548,4.66334 2.58977,1.18036 4.53606,1.57438 7.28599,1.40232l0 -0.218554z" /><path
           id="_51900152"
           class="fil85"
           d="M21.3455 8.71581c-2.84007,0.163278 -4.81216,-0.23698 -7.42971,-1.41848 -2.21474,-0.972581 -4.87453,-3.05919 -7.86427,-4.2509l-0.655946 0c3.19497,1.14153 6.03165,3.4277 8.36743,4.45471 2.67793,1.21069 4.68262,1.61095 7.58335,1.43237l-0.000850406 -0.217704z" /><path
           id="_51607832"
           class="fil86"
           d="M21.3455 8.54289c-2.99258,0.161294 -5.02647,-0.247752 -7.73161,-1.45845 -2.1915,-0.94962 -4.79459,-2.90725 -7.69476,-4.03801l-0.671254 0c3.11305,1.082 5.89756,3.23948 8.21747,4.24608 2.76694,1.23819 4.82832,1.64809 7.88099,1.4712l-0.000850406 -0.220822z" /><path
           id="_51624040"
           class="fil87"
           d="M21.3455 8.37962c-3.14593,0.15364 -5.23992,-0.270429 -8.03463,-1.50862 -2.15975,-0.923824 -4.70019,-2.7505 -7.50455,-3.82456l-0.689112 0c3.02263,1.02701 5.75385,3.05154 8.05164,4.03659 2.85141,1.26654 4.97119,1.68891 8.17665,1.51684l0 -0.220255z" /><path
           id="_84096544"
           class="fil88"
           d="M21.3455 8.22201c-3.30014,0.142018 -5.45535,-0.298776 -8.33653,-1.56361 -2.12403,-0.897745 -4.59531,-2.59572 -7.30158,-3.61196l-0.705553 0c2.92936,0.974282 5.60049,2.86672 7.86881,3.82711 2.93759,1.29262 5.11604,1.73086 8.47486,1.57098l0 -0.222523z" /><path
           id="_113062592"
           class="fil89"
           d="M21.3455 8.07687c-3.45293,0.120758 -5.67107,-0.341013 -8.63871,-1.63108 -2.08094,-0.869682 -4.47824,-2.43981 -7.08133,-3.39936l-0.719443 0c2.831,0.922974 5.43409,2.68388 7.66783,3.61848 3.02093,1.317 5.25948,1.7748 8.77165,1.63363l0 -0.221672z" /><path
           id="_83048144"
           class="fil90"
           d="M21.3455 7.93882c-3.60572,0.0958124 -5.88793,-0.392037 -8.94088,-1.70563 -2.0302,-0.837366 -4.34529,-2.28164 -6.83868,-3.18675l-0.736168 0c2.72725,0.8728 5.25522,2.50359 7.44672,3.40984 3.10398,1.33967 5.4032,1.821 9.06901,1.70506l0 -0.222523z" /><path
           id="_87350688"
           class="fil91"
           d="M21.3449 7.81296c-3.75681,0.0632135 -6.10421,-0.457235 -9.24306,-1.79407 -1.97124,-0.80335 -4.1959,-2.12261 -6.57477,-2.97245l-0.751759 0c2.61755,0.82461 5.06218,2.32501 7.20407,3.20036 3.1876,1.3615 5.55003,1.87401 9.36609,1.78869l-0.000566937 -0.222523z" /><path
           id="_29719104"
           class="fil92"
           d="M21.3449 7.69759c-3.90535,0.0235279 -6.32192,-0.532638 -9.54411,-1.89159 -1.90321,-0.766499 -4.03036,-1.96415 -6.28847,-2.75957l-0.767917 0c2.50076,0.778405 4.8544,2.15124 6.93704,2.99088 3.26924,1.38276 5.698,1.9307 9.66401,1.8845l-0.000566937 -0.224224z" /><path
           id="_86566016"
           class="fil93"
           d="M21.3449 7.59696c-4.05077,-0.0249452 -6.53764,-0.623348 -9.84628,-2.00441 -1.82752,-0.725963 -3.84525,-1.80428 -5.97467,-2.54612l-0.784358 0c2.37632,0.73305 4.62961,1.98003 6.6445,2.78139 3.3523,1.40374 5.84909,1.9925 9.9608,1.9925l0 -0.223373z" /><path
           id="_82209088"
           class="fil94"
           d="M21.3449 7.50767c-4.19278,-0.0802216 -6.75364,-0.72653 -10.1476,-2.128 -1.73823,-0.682876 -3.64115,-1.64639 -5.63451,-2.33323l-0.803067 0c2.24762,0.687695 4.39093,1.81023 6.32815,2.57191 3.43507,1.42415 6.0033,2.05883 10.257,2.11241l0 -0.22309z" /><path
           id="_84880712"
           class="fil95"
           d="M21.3449 7.43396c-4.33083,-0.144002 -6.96964,-0.846154 -10.4495,-2.26775 -1.63987,-0.636671 -3.4158,-1.48849 -5.26685,-2.11978l-0.816673 0c2.10844,0.641206 4.13184,1.64554 5.97807,2.36328 3.5204,1.44286 6.16176,2.1314 10.555,2.24904l0 -0.224791z" /><path
           id="_83050480"
           class="fil96"
           d="M21.3449 7.37614c-4.46321,-0.21657 -7.18309,-0.982219 -10.7525,-2.42337 -1.52705,-0.585363 -3.16521,-1.33089 -4.86574,-1.90633l-0.83198 0c1.96245,0.595851 3.85347,1.48396 5.59822,2.15465 3.60572,1.46071 6.3256,2.21162 10.852,2.40013l0 -0.225074z" /><path
           id="_85185328"
           class="fil97"
           d="M21.3449 7.33475c-4.58907,-0.297926 -7.39428,-1.13416 -11.0544,-2.59402 -1.40345,-0.531787 -2.89507,-1.17668 -4.43373,-1.69429l-0.847571 0c1.8057,0.547945 3.55668,1.32663 5.18634,1.94601 3.69331,1.47829 6.49625,2.29921 11.1494,2.56738l0 -0.225074z" /><path
           id="_52464016"
           class="fil98"
           d="M21.3449 7.31207c-4.70586,-0.388352 -7.60461,-1.30622 -11.3563,-2.7848 -1.26739,-0.474243 -2.60054,-1.02304 -3.97026,-1.48084l-0.862878 0c1.64242,0.498338 3.2409,1.17214 4.743,1.73653 3.78204,1.49643 6.67484,2.39758 11.4465,2.75475l0 -0.225641z" /><path
           id="_85532504"
           class="fil99"
           d="M21.3449 7.37755l-0.192475 -0.0867414c-4.70359,-0.49522 -7.66953,-1.49785 -11.4657,-2.97642 -1.11743,-0.413014 -2.28164,-0.871099 -3.47362,-1.26796l-0.875068 0c1.4678,0.447313 2.90158,1.0219 4.26337,1.5279 3.80131,1.48566 6.74769,2.46816 11.4672,2.93503l0.276382 0.12501 0 -0.256823z" /><path
           id="_111334304"
           class="fil100"
           d="M21.3449 7.56209c-0.212885,-0.104033 -0.429738,-0.209483 -0.649143,-0.314083 -4.544,-0.61456 -7.54083,-1.69713 -11.3112,-3.14707 -0.953305,-0.349233 -1.93978,-0.72001 -2.94496,-1.0545l-0.888107 0c1.28525,0.393738 2.54526,0.875068 3.75256,1.31756 3.7707,1.45589 6.74542,2.51692 11.3002,3.10398 0.25087,0.11934 0.497771,0.239531 0.740704,0.358021l0 -0.263909z" /><path
           id="_82661224"
           class="fil101"
           d="M21.3449 7.77781c-0.358304,-0.189074 -0.727664,-0.380698 -1.10666,-0.573174 -4.38356,-0.734751 -7.41044,-1.8947 -11.1556,-3.3163 -0.778688,-0.281768 -1.57694,-0.573174 -2.38709,-0.841902l-0.898029 0c1.09447,0.336761 2.17024,0.731916 3.20943,1.10893 3.7398,1.42556 6.74457,2.56312 11.1338,3.27208 0.413864,0.208349 0.816673,0.416415 1.20474,0.621647l-0.000566937 -0.271279z" /><path
           id="_87767808"
           class="fil102"
           d="M21.3455 8.02811c-0.496921,-0.284319 -1.02049,-0.575441 -1.56446,-0.86543 -4.22198,-0.855792 -7.28032,-2.09398 -11.0006,-3.48808 -0.592733,-0.211751 -1.1951,-0.425486 -1.8057,-0.628166l-0.903698 0c0.895477,0.278083 1.7782,0.591599 2.63796,0.900296 3.71117,1.3941 6.74372,2.61018 10.9683,3.43819 0.582811,0.310398 1.14124,0.620513 1.66821,0.92099l0 -0.277799z" /><path
           id="_82406120"
           class="fil103"
           d="M21.3455 8.31243c-0.6276,-0.387502 -1.30481,-0.790877 -2.02255,-1.19284 -4.0604,-0.975982 -7.15021,-2.29269 -10.8447,-3.65675 -0.396856,-0.141451 -0.797114,-0.280917 -1.20162,-0.416415l-0.907383 0c0.689963,0.21742 1.37369,0.453833 2.04324,0.690813 3.67971,1.3649 6.74145,2.65809 10.801,3.60629 0.760546,0.426337 1.47517,0.850122 2.13197,1.25633l0 -0.287437z" /><path
           id="_83427448"
           class="fil104"
           d="M21.3455 8.6353c-0.746089,-0.500039 -1.58062,-1.02927 -2.48035,-1.55794 -3.89939,-1.09759 -7.01982,-2.49169 -10.6879,-3.82881l-0.588481 -0.202113 -0.903981 0c0.481613,0.154207 0.958974,0.316351 1.4301,0.48218 3.64994,1.334 6.74032,2.70514 10.636,3.77353 0.948203,0.556449 1.82185,1.11318 2.59544,1.63136l-0.000850406 -0.298209z" /><path
           id="_85409728"
           class="fil105"
           d="M21.3463 9.0024c-0.849272,-0.619662 -1.84283,-1.29488 -2.93844,-1.96869 -3.72875,-1.21325 -6.87355,-2.68105 -10.5042,-3.98727l-0.89321 0c0.270429,0.0884422 0.540008,0.180286 0.807035,0.272697 3.62018,1.30452 6.73947,2.75333 10.4688,3.94106 1.15145,0.706971 2.18866,1.41337 3.06004,2.05175l0 -0.309548z" /><path
           id="_81834184"
           class="fil106"
           d="M21.3463 9.4191c-0.928643,-0.74694 -2.08661,-1.58998 -3.39539,-2.42791 -3.37186,-1.25888 -6.39307,-2.70996 -9.75671,-3.94475l-0.861461 0 0.186522 0.0632135c3.59211,1.27447 6.73805,2.8001 10.3024,4.10916 1.37794,0.88017 2.58127,1.76176 3.52465,2.52486l0 -0.324572z" /><path
           id="_81542760"
           class="fil107"
           d="M21.3463 9.89787c-0.975699,-0.877619 -2.30432,-1.91852 -3.85319,-2.94949 -3.0317,-1.29262 -5.90437,-2.72243 -9.02196,-3.90195l-0.838217 0c3.39567,1.2209 6.45656,2.75787 9.72609,4.1307 1.63278,1.0871 3.01299,2.17761 3.98727,3.06571l0 -0.344981z" /><path
           id="_81591592"
           class="fil108"
           d="M21.3472 10.4614l-0.0422368 -0.0456384c-0.970313,-1.00008 -2.46249,-2.2618 -4.26904,-3.50963 -2.71336,-1.31473 -5.41964,-2.72102 -8.30903,-3.85971l-0.811004 0c3.14367,1.17469 6.0495,2.68643 8.97944,4.08932 1.77338,1.22458 3.23381,2.45512 4.18712,3.42543l0.26476 0.291689 0 -0.39147z" /><path
           id="_82142896"
           class="fil109"
           d="M21.3472 11.1295c-0.171499,-0.196444 -0.342714,-0.395439 -0.517047,-0.596701 -0.941399,-1.04912 -2.43188,-2.36753 -4.25203,-3.66978 -2.41714,-1.32663 -4.94624,-2.70627 -7.62389,-3.81662l-0.784358 0c2.91462,1.13983 5.6467,2.62719 8.26141,4.04878 1.78614,1.27731 3.24487,2.56482 4.16812,3.58134 0.252571,0.296508 0.500889,0.585363 0.748641,0.871099l-0.000850406 -0.418116z" /><path
           id="_83244992"
           class="fil110"
           d="M21.348 11.8569c-0.327973,-0.390336 -0.656797,-0.793145 -0.992424,-1.20729 -0.914753,-1.09674 -2.4007,-2.47213 -4.23474,-3.82881 -2.14671,-1.33089 -4.49298,-2.68587 -6.97531,-3.77438l-0.748357 0c2.70117,1.11687 5.24899,2.57673 7.57031,4.00655 1.79918,1.33145 3.25337,2.67368 4.14856,3.73895 0.417549,0.518748 0.824327,1.01992 1.23195,1.5021l0 -0.437109z" /><path
           id="_85143032"
           class="fil111"
           d="M21.348 12.6365c-0.485582,-0.595001 -0.968612,-1.21693 -1.46638,-1.86806 -0.888107,-1.14663 -2.37178,-2.57871 -4.21886,-3.99067 -1.89981,-1.32833 -4.06522,-2.65894 -6.36444,-3.7313l-0.710939 0c2.50133,1.10071 4.86375,2.53393 6.91748,3.96516 1.81193,1.38418 3.26216,2.78309 4.12759,3.89628 0.581961,0.765082 1.14408,1.49019 1.71612,2.17846l-0.000566937 -0.449865z" /></g><polygon
         id="_83220760"
         class="fil112"
         points="17.378,11.6988 12.2606,14.6539 6.90189,17.9215 6.86703,5.40801 12.2606,8.74529 " /><path
         id="_112351448"
         class="fil113"
         d="M1.58431 19.3226l-0.113104 0.123592m18.752 -0.0136065l-0.12671 -0.111687" /></g><path
       class="fil113"
       d="M0.999794 19.0403l-0.123309 0.134648m20.4404 -0.0147404l-0.138049 -0.121892"
       id="path140" /><polygon
       class="fil114"
       points="0.801082,2.95856 21.5742,2.95856 21.5742,4.00286 0.801082,4.00286 "
       id="polygon142" /><path
       class="fil115"
       d="M1.70081 3.55696l0.351501 0 0 15.3884 17.9192 0 0 -15.3884 0.351218 0c0.631852,0 1.1489,0.520732 1.1489,1.14833l0 14.591c0,0.629017 -0.517897,1.14918 -1.1489,1.14918 -7.56549,0 -5.71756,0 -18.6219,0 -0.630434,0 -1.14861,-0.517047 -1.14861,-1.14918l0 -14.591c0,-0.631852 0.516763,-1.14833 1.14861,-1.14833z"
       id="path144" /><path
       class="fil116"
       d="M21.968 5.81054l0 13.4962c0,0.452699 -0.185955,0.865713 -0.484731,1.16449 -0.298209,0.298209 -0.711223,0.484731 -1.16421,0.484731l-18.6497 0.0277799c-0.453266,0 -0.865997,-0.185955 -1.16449,-0.484448 -0.298492,-0.298492 -0.484164,-0.711223 -0.484164,-1.16477l0 -14.591c0,-0.643757 0.0615127,-1.71187 0.47396,-2.20454 0.265043,-0.316351 0.642623,-0.516196 1.12055,-0.516196l0.00963793 0.00198428 0.0606623 0.00141734 18.6891 0.00963793 0.00396856 0 0.0277799 0.000283469 0.00198428 0c1.81307,0.0218271 1.59508,1.89811 1.57864,3.25167l-0.0189924 0.522716zm-1.00008 13.4962l0 -13.9963c0,-0.44051 -0.0141734,-1.79294 -0.20183,-2.06394 -0.108852,-0.0986471 -0.138616,-0.211751 -0.369643,-0.214302l-0.0257956 -0.000283469 -18.6948 -0.00963793 -0.00963793 0 -0.0510244 -0.00113387 0 0.00170081c-0.155057,0 -0.274398,0.0609458 -0.354619,0.156758 -0.253988,0.303878 -0.239814,1.13019 -0.239814,1.5639l0 14.591c0,0.177735 0.0734184,0.340162 0.191058,0.457802 0.117639,0.117639 0.280067,0.191341 0.457518,0.191341l18.6497 -0.0277799c0.176884,0 0.339595,-0.0739853 0.457235,-0.191625 0.117923,-0.117923 0.191625,-0.280634 0.191625,-0.457518z"
       id="path146" /></g></svg>