<?xml version="1.0" encoding="UTF-8" standalone="no"?>
<!-- Creator: CorelDRAW -->

<svg
   xmlns:dc="http://purl.org/dc/elements/1.1/"
   xmlns:cc="http://creativecommons.org/ns#"
   xmlns:rdf="http://www.w3.org/1999/02/22-rdf-syntax-ns#"
   xmlns:svg="http://www.w3.org/2000/svg"
   xmlns="http://www.w3.org/2000/svg"
   xmlns:xlink="http://www.w3.org/1999/xlink"
   xmlns:sodipodi="http://sodipodi.sourceforge.net/DTD/sodipodi-0.dtd"
   xmlns:inkscape="http://www.inkscape.org/namespaces/inkscape"
   xml:space="preserve"
   width="72px"
   height="72px"
   style="shape-rendering:geometricPrecision; text-rendering:geometricPrecision; image-rendering:optimizeQuality; fill-rule:evenodd; clip-rule:evenodd"
   viewBox="0 0 72 72"
   id="svg2"
   version="1.1"
   inkscape:version="0.91 r13725"
   sodipodi:docname="amarok.svg"><metadata
     id="metadata176"><rdf:RDF><cc:Work
         rdf:about=""><dc:format>image/svg+xml</dc:format><dc:type
           rdf:resource="http://purl.org/dc/dcmitype/StillImage" /></cc:Work></rdf:RDF></metadata><sodipodi:namedview
     pagecolor="#ffffff"
     bordercolor="#666666"
     borderopacity="1"
     objecttolerance="10"
     gridtolerance="10"
     guidetolerance="10"
     inkscape:pageopacity="0"
     inkscape:pageshadow="2"
     inkscape:window-width="640"
     inkscape:window-height="480"
     id="namedview174"
     showgrid="false"
     inkscape:zoom="3.2777778"
     inkscape:cx="36"
     inkscape:cy="36"
     inkscape:window-x="0"
     inkscape:window-y="28"
     inkscape:window-maximized="0"
     inkscape:current-layer="svg2" /><defs
     id="defs4"><style
       type="text/css"
       id="style6"><![CDATA[
    .fil125 {fill:none}
    .fil123 {fill:white}
    .fil128 {fill:#4E87B4;fill-rule:nonzero}
    .fil127 {fill:#94CBF7;fill-rule:nonzero}
    .fil126 {fill:#BCE6FF;fill-rule:nonzero}
    .fil0 {fill:black;fill-opacity:0.000000}
    .fil81 {fill:#A3EFF7;fill-opacity:0.000000}
    .fil1 {fill:black;fill-opacity:0.003922}
    .fil2 {fill:black;fill-opacity:0.007843}
    .fil114 {fill:#A3EFF7;fill-opacity:0.011765}
    .fil3 {fill:black;fill-opacity:0.015686}
    .fil80 {fill:#64A4DB;fill-opacity:0.015686}
    .fil113 {fill:#88C8E8;fill-opacity:0.015686}
    .fil48 {fill:#B8E7FF;fill-opacity:0.015686}
    .fil4 {fill:black;fill-opacity:0.019608}
    .fil5 {fill:black;fill-opacity:0.023529}
    .fil115 {fill:#A3EFF7;fill-opacity:0.027451}
    .fil6 {fill:black;fill-opacity:0.027451}
    .fil79 {fill:#64A4DB;fill-opacity:0.031373}
    .fil112 {fill:#88C8E8;fill-opacity:0.031373}
    .fil47 {fill:#B8E7FF;fill-opacity:0.031373}
    .fil7 {fill:black;fill-opacity:0.031373}
    .fil8 {fill:black;fill-opacity:0.035294}
    .fil116 {fill:#A3EFF7;fill-opacity:0.039216}
    .fil9 {fill:black;fill-opacity:0.043137}
    .fil78 {fill:#64A4DB;fill-opacity:0.047059}
    .fil111 {fill:#88C8E8;fill-opacity:0.047059}
    .fil46 {fill:#B8E7FF;fill-opacity:0.047059}
    .fil10 {fill:black;fill-opacity:0.047059}
    .fil11 {fill:black;fill-opacity:0.050980}
    .fil117 {fill:#A3EFF7;fill-opacity:0.054902}
    .fil12 {fill:black;fill-opacity:0.054902}
    .fil13 {fill:black;fill-opacity:0.058824}
    .fil77 {fill:#64A4DB;fill-opacity:0.058824}
    .fil110 {fill:#88C8E8;fill-opacity:0.058824}
    .fil45 {fill:#B8E7FF;fill-opacity:0.058824}
    .fil118 {fill:#A3EFF7;fill-opacity:0.066667}
    .fil76 {fill:#64A4DB;fill-opacity:0.074510}
    .fil109 {fill:#88C8E8;fill-opacity:0.074510}
    .fil44 {fill:#B8E7FF;fill-opacity:0.074510}
    .fil119 {fill:#A3EFF7;fill-opacity:0.078431}
    .fil75 {fill:#64A4DB;fill-opacity:0.090196}
    .fil108 {fill:#88C8E8;fill-opacity:0.090196}
    .fil43 {fill:#B8E7FF;fill-opacity:0.090196}
    .fil120 {fill:#A3EFF7;fill-opacity:0.094118}
    .fil74 {fill:#64A4DB;fill-opacity:0.105882}
    .fil107 {fill:#88C8E8;fill-opacity:0.105882}
    .fil42 {fill:#B8E7FF;fill-opacity:0.105882}
    .fil121 {fill:#A3EFF7;fill-opacity:0.105882}
    .fil122 {fill:#A3EFF7;fill-opacity:0.121569}
    .fil73 {fill:#64A4DB;fill-opacity:0.121569}
    .fil106 {fill:#88C8E8;fill-opacity:0.121569}
    .fil41 {fill:#B8E7FF;fill-opacity:0.121569}
    .fil72 {fill:#64A4DB;fill-opacity:0.137255}
    .fil105 {fill:#88C8E8;fill-opacity:0.137255}
    .fil40 {fill:#B8E7FF;fill-opacity:0.137255}
    .fil71 {fill:#64A4DB;fill-opacity:0.152941}
    .fil104 {fill:#88C8E8;fill-opacity:0.152941}
    .fil39 {fill:#B8E7FF;fill-opacity:0.152941}
    .fil70 {fill:#64A4DB;fill-opacity:0.164706}
    .fil103 {fill:#88C8E8;fill-opacity:0.164706}
    .fil38 {fill:#B8E7FF;fill-opacity:0.164706}
    .fil69 {fill:#64A4DB;fill-opacity:0.180392}
    .fil102 {fill:#88C8E8;fill-opacity:0.180392}
    .fil37 {fill:#B8E7FF;fill-opacity:0.180392}
    .fil68 {fill:#64A4DB;fill-opacity:0.196078}
    .fil101 {fill:#88C8E8;fill-opacity:0.196078}
    .fil36 {fill:#B8E7FF;fill-opacity:0.196078}
    .fil67 {fill:#64A4DB;fill-opacity:0.211765}
    .fil100 {fill:#88C8E8;fill-opacity:0.211765}
    .fil35 {fill:#B8E7FF;fill-opacity:0.211765}
    .fil66 {fill:#64A4DB;fill-opacity:0.227451}
    .fil99 {fill:#88C8E8;fill-opacity:0.227451}
    .fil34 {fill:#B8E7FF;fill-opacity:0.227451}
    .fil65 {fill:#64A4DB;fill-opacity:0.243137}
    .fil98 {fill:#88C8E8;fill-opacity:0.243137}
    .fil33 {fill:#B8E7FF;fill-opacity:0.243137}
    .fil64 {fill:#64A4DB;fill-opacity:0.258824}
    .fil97 {fill:#88C8E8;fill-opacity:0.258824}
    .fil32 {fill:#B8E7FF;fill-opacity:0.258824}
    .fil63 {fill:#64A4DB;fill-opacity:0.274510}
    .fil96 {fill:#88C8E8;fill-opacity:0.274510}
    .fil31 {fill:#B8E7FF;fill-opacity:0.274510}
    .fil62 {fill:#64A4DB;fill-opacity:0.286275}
    .fil95 {fill:#88C8E8;fill-opacity:0.286275}
    .fil30 {fill:#B8E7FF;fill-opacity:0.286275}
    .fil61 {fill:#64A4DB;fill-opacity:0.301961}
    .fil94 {fill:#88C8E8;fill-opacity:0.301961}
    .fil29 {fill:#B8E7FF;fill-opacity:0.301961}
    .fil60 {fill:#64A4DB;fill-opacity:0.317647}
    .fil93 {fill:#88C8E8;fill-opacity:0.317647}
    .fil28 {fill:#B8E7FF;fill-opacity:0.317647}
    .fil59 {fill:#64A4DB;fill-opacity:0.333333}
    .fil92 {fill:#88C8E8;fill-opacity:0.333333}
    .fil27 {fill:#B8E7FF;fill-opacity:0.333333}
    .fil58 {fill:#64A4DB;fill-opacity:0.349020}
    .fil91 {fill:#88C8E8;fill-opacity:0.349020}
    .fil26 {fill:#B8E7FF;fill-opacity:0.349020}
    .fil57 {fill:#64A4DB;fill-opacity:0.364706}
    .fil90 {fill:#88C8E8;fill-opacity:0.364706}
    .fil25 {fill:#B8E7FF;fill-opacity:0.364706}
    .fil56 {fill:#64A4DB;fill-opacity:0.380392}
    .fil89 {fill:#88C8E8;fill-opacity:0.380392}
    .fil24 {fill:#B8E7FF;fill-opacity:0.380392}
    .fil55 {fill:#64A4DB;fill-opacity:0.392157}
    .fil88 {fill:#88C8E8;fill-opacity:0.392157}
    .fil23 {fill:#B8E7FF;fill-opacity:0.392157}
    .fil54 {fill:#64A4DB;fill-opacity:0.407843}
    .fil87 {fill:#88C8E8;fill-opacity:0.407843}
    .fil22 {fill:#B8E7FF;fill-opacity:0.407843}
    .fil53 {fill:#64A4DB;fill-opacity:0.423529}
    .fil86 {fill:#88C8E8;fill-opacity:0.423529}
    .fil21 {fill:#B8E7FF;fill-opacity:0.423529}
    .fil52 {fill:#64A4DB;fill-opacity:0.439216}
    .fil85 {fill:#88C8E8;fill-opacity:0.439216}
    .fil20 {fill:#B8E7FF;fill-opacity:0.439216}
    .fil15 {fill:#5B98C8;fill-opacity:0.439216}
    .fil51 {fill:#64A4DB;fill-opacity:0.454902}
    .fil84 {fill:#88C8E8;fill-opacity:0.454902}
    .fil19 {fill:#B8E7FF;fill-opacity:0.454902}
    .fil50 {fill:#64A4DB;fill-opacity:0.470588}
    .fil83 {fill:#88C8E8;fill-opacity:0.470588}
    .fil18 {fill:#B8E7FF;fill-opacity:0.470588}
    .fil49 {fill:#64A4DB;fill-opacity:0.486275}
    .fil82 {fill:#88C8E8;fill-opacity:0.486275}
    .fil17 {fill:#B8E7FF;fill-opacity:0.486275}
    .fil14 {fill:url(#id0)}
    .fil16 {fill:url(#id1)}
    .fil124 {fill:url(#id2);fill-rule:nonzero}
   ]]></style><linearGradient
       id="id0"
       gradientUnits="userSpaceOnUse"
       x1="36.1299"
       y1="7.24252"
       x2="35.9693"
       y2="23.4957"><stop
         offset="0"
         style="stop-color:#5CA2DA"
         id="stop9" /><stop
         offset="1"
         style="stop-color:#8DC8F4"
         id="stop11" /></linearGradient><linearGradient
       id="id1"
       gradientUnits="userSpaceOnUse"
       xlink:href="#id0"
       x1="36.385"
       y1="25.7031"
       x2="35.837"
       y2="52.9524" /><linearGradient
       id="id2"
       gradientUnits="userSpaceOnUse"
       x1="36.2894"
       y1="24.4677"
       x2="35.9327"
       y2="56.4"><stop
         offset="0"
         style="stop-color:#88C8E8"
         id="stop15" /><stop
         offset="1"
         style="stop-color:#CCEDFF"
         id="stop17" /></linearGradient></defs><g
     id="Слой_x0020_1"><metadata
       id="CorelCorpID_0Corel-Layer" /><g
       id="_83268656"><path
         id="_81661736"
         class="fil0"
         d="M34.4563 60.8835c26.1638,-1.08543 34.9453,1.87913 37.6795,5.31969l0 4.72913c-0.780709,0.398031 -1.94291,0.666142 -3.42638,0.839764l-67.3701 0c-0.553937,-0.146457 -1.00866,-0.315354 -1.36181,-0.507874l0 -3.9189c2.13189,-2.68346 9.46535,-5.42362 34.4787,-6.46181z" /><g
         id="g23"><path
           id="_85383008"
           class="fil1"
           d="M34.5343 61.428c26.5004,-1.05945 35.1957,2.14843 37.6016,5.62205l0 3.6874c-0.872835,0.542126 -2.43071,0.858661 -4.52835,1.03465l-65.615 0c-0.904724,-0.197244 -1.58504,-0.441732 -2.01496,-0.740551l0 -2.84882c1.70669,-2.7378 8.55236,-5.71299 34.5567,-6.75472z" /><path
           id="_81662624"
           class="fil2"
           d="M34.6122 61.9724c26.9102,-1.03228 35.5736,2.45315 37.5236,5.9374l0 2.5937c-0.898819,0.752362 -3.05669,1.1126 -6.12638,1.2685l-14.5831 0c-3.92362,-0.0519685 -8.17795,-0.0862205 -12.5693,0l-36.0839 0c-1.4315,-0.249213 -2.39409,-0.585827 -2.79567,-1.03465l0 -1.64055c1.11024,-2.77559 7.29803,-6.07441 34.6346,-7.12441z" /><path
           id="_51867536"
           class="fil3"
           d="M34.689 62.5169c27.7299,-1.01339 36.3213,2.89961 37.4469,6.38622l0 1.25669c-0.722835,1.20945 -4.37362,1.55551 -9.78307,1.6122l-4.09724 0c-6.34016,-0.0484252 -14.2406,-0.258661 -22.4315,-0.00590551l-0.193701 0.00590551 -31.9193 0c-2.30787,-0.304724 -3.62126,-0.784252 -3.62126,-1.50236 0,-2.7626 4.86142,-6.66378 34.5992,-7.75276z" /><path
           id="_81675784"
           class="fil4"
           d="M34.7657 63.0614c28.2933,-0.979134 37.0665,3.30709 37.1693,6.68858 0.102756,3.11811 -17.2843,1.39961 -36.0815,1.92756l-3.40984 0.0944882 -27.4665 0c-2.88661,-0.26811 -4.56378,-0.72874 -4.56378,-1.46457 0,-2.58898 6.05906,-6.26693 34.3524,-7.24606z" /><path
           id="_114705664"
           class="fil5"
           d="M34.8425 63.6071c26.8476,-0.869291 36.6661,3.12402 36.7571,6.24449 0.0909449,2.78976 -17.1839,1.27087 -35.7154,1.74094 -2.51575,0.0637795 -4.99488,0.125197 -7.40315,0.179528l-21.6283 0c-3.82559,-0.218504 -6.11457,-0.651969 -6.11457,-1.42441 0,-2.41535 7.25669,-5.8689 34.1043,-6.74055z" /><path
           id="_51345024"
           class="fil6"
           d="M34.9205 64.1539c25.402,-0.761811 36.2646,2.93976 36.3449,5.79921 0.080315,2.46142 -17.0858,1.14213 -35.3516,1.55433 -4.7563,0.10748 -9.39685,0.206693 -13.663,0.264567l-11.6728 0c-5.82047,-0.126378 -9.51614,-0.516142 -9.51614,-1.38425 0,-2.24173 8.45433,-5.47205 33.8587,-6.23386z" /><path
           id="_82626520"
           class="fil7"
           d="M34.9961 64.6961c23.9598,-0.651969 35.8654,2.75551 35.9339,5.35394 0.0685039,2.13425 -16.9878,1.01575 -34.9843,1.36772 -17.9988,0.35315 -34.5591,0.605906 -34.5591,-0.992126 0,-2.07047 9.65079,-5.07638 33.6094,-5.72953z" /><path
           id="_86564880"
           class="fil8"
           d="M35.074 65.2429c22.513,-0.544488 35.465,2.57126 35.5217,4.90866 0.057874,1.80591 -16.8898,0.887008 -34.6205,1.1811 -17.7307,0.294094 -34.265,0.491339 -34.265,-0.866929 0,-1.89685 10.8484,-4.67953 33.3638,-5.22283z" /><path
           id="_82735040"
           class="fil9"
           d="M35.1508 65.7886c21.0685,-0.434646 35.0646,2.38819 35.1106,4.46457 0.0448819,1.47756 -16.7917,0.758268 -34.2555,0.994488 -17.465,0.235039 -33.972,0.376772 -33.972,-0.741732 0,-1.72323 12.0472,-4.2815 33.1169,-4.71732z" /><path
           id="_51187360"
           class="fil10"
           d="M35.2276 66.3331c19.624,-0.327165 34.6654,2.20394 34.6996,4.01811 0.034252,1.15157 -16.6937,0.63189 -33.8929,0.807874 -17.1957,0.175984 -33.6768,0.262205 -33.6768,-0.615354 0,-1.54961 13.2437,-3.88465 32.8701,-4.21063z" /><path
           id="_88186864"
           class="fil11"
           d="M35.3043 66.8776c18.1795,-0.217323 34.265,2.02087 34.2874,3.57402 0.0224409,0.823228 -16.5945,0.50315 -33.5268,0.62126 -16.9299,0.116929 -33.3827,0.147638 -33.3827,-0.488976 0,-1.37717 14.4413,-3.48898 32.622,-3.7063z" /><path
           id="_82874400"
           class="fil12"
           d="M35.3823 67.422c16.735,-0.109843 33.8634,1.83661 33.8752,3.12756 0.011811,0.496063 -16.4976,0.376772 -33.163,0.434646 -16.6618,0.0590551 -33.0874,0.0330709 -33.0874,-0.362598 0,-1.20354 15.6378,-3.09094 32.3752,-3.19961z" /></g><path
         id="_87960488"
         class="fil13"
         d="M35.4555 67.9689c15.2917,0 33.4665,1.65354 33.4665,2.68346 0,0.336614 -65.5937,0.322441 -65.5937,0.0106299 0,-1.02992 16.8354,-2.69409 32.1272,-2.69409z" /></g><path
       class="fil14"
       d="M69.4134 22.7575l0.0933071 0.572835 -67.0783 0 0 -12.6413c0,-0.762992 0.302362,-1.46339 0.800787,-2.00787 0.637795,-0.775984 1.60512,-1.27323 2.68228,-1.27323l60.15 0c1.91102,0 3.60827,1.57323 3.58701,3.47598l-0.13937 11.8736 -0.0956693 0z"
       id="path38" /><path
       class="fil15"
       d="M69.5185 12.7713l0.092126 -2.5937c0.0271654,-0.762992 -0.394488,-1.44449 -0.892913,-1.98898 -0.402756,-0.490157 -1.24134,-0.674409 -1.85197,-0.887008l-0.0354331 0.350787 0.41811 0 -0.0141732 1.32283 -0.519685 -0.166535 -0.315354 3.16299 -0.509055 0.101575c0.499606,0.938976 2.71535,2.15669 3.54921,0.810236 0.023622,-0.0377953 0.0496063,-0.0744094 0.0791339,-0.112205z"
       id="path40" /><path
       class="fil15"
       d="M2.02913 13.1622l-0.092126 -2.5937c-0.0271654,-0.762992 0.394488,-1.44449 0.892913,-1.98898 0.402756,-0.490157 1.27205,-0.943701 1.88268,-1.1563l0.0200787 0.229134 -0.157087 0 0 1.1563 0.258661 0 0.314173 3.55394 0.509055 0.101575c-0.499606,0.938976 -2.71535,2.15669 -3.54921,0.810236 -0.023622,-0.0377953 -0.0496063,-0.0744094 -0.0791339,-0.112205z"
       id="path42" /><path
       class="fil16"
       d="M2.4378 20.0669l-0.00826772 -7.75748c0,-0.762992 0.301181,-1.46339 0.799606,-2.00787 0.638976,-0.775984 1.6063,-1.27323 2.68346,-1.27323l60.1488 0c1.9122,0 3.58819,1.52126 3.55984,3.42047 -0.0389764,2.63386 0.17126,5.28543 0.162992,7.85197l-0.17126 45.848c-0.00590551,1.90276 -1.53425,3.47953 -3.40394,3.47953 -22.4185,0 -22.0819,0 -60.3177,0 -1.86969,0 -3.40276,-1.56614 -3.40394,-3.47953l-0.057874 -45.848c0,-0.0779528 0.0023622,-0.155906 0.00826772,-0.233858z"
       id="path44" /><g
       id="_87816520"><path
         id="_51975456"
         class="fil17"
         d="M2.60669 33.8811c5.38228,-0.810236 10.8791,-0.0992126 16.0843,3.28701 3.06614,2.0126 5.83701,3.87638 8.3315,5.56181 13.422,9.34488 17.5642,12.1984 28.1315,8.55472 3.79134,-1.24961 8.95039,-4.65827 14.4543,-7.55787l0 0.68622c-5.44606,2.88661 -10.5508,6.25512 -14.3079,7.49764 -10.7941,3.7252 -14.9787,0.844488 -28.5602,-8.61378 -2.46378,-1.66654 -5.20157,-3.50669 -8.31614,-5.55472 -5.03622,-3.26575 -10.4575,-3.88465 -15.8173,-3.03071l0 -0.830315z" /><path
         id="_84788368"
         class="fil18"
         d="M2.60669 34.8248l0.207874 -0.0318898c5.55,-0.838583 11.2075,-0.230315 16.6004,3.10512 3.06378,1.93346 5.88307,3.74409 8.44724,5.41063 13.213,9.10039 17.4626,11.9669 27.8976,8.61142 3.68622,-1.07717 8.61024,-4.10669 13.8484,-6.71339l0 0.661417c-5.18858,2.60197 -10.0665,5.60906 -13.7197,6.6815 -10.6512,3.44173 -14.9386,0.545669 -28.3028,-8.66457 -2.53228,-1.64646 -5.31614,-3.43701 -8.4248,-5.40472 -5.13189,-3.15118 -10.611,-3.70866 -16.0476,-2.90079l-0.506693 0.0779528 0 -0.832677z" /><path
         id="_83451920"
         class="fil19"
         d="M2.60669 35.7626c0.294094,-0.046063 0.587008,-0.0897638 0.881102,-0.129921 5.57126,-0.754724 11.224,-0.191339 16.6524,2.99646 3.0626,1.84961 5.92795,3.60709 8.56417,5.25709 13.0028,8.85709 17.3598,11.739 27.6626,8.67165 3.5752,-0.91063 8.26654,-3.57874 13.2413,-5.90315l0 0.644882c-4.93465,2.32323 -9.58465,4.97598 -13.1327,5.88898 -10.5071,3.15354 -14.9008,0.245669 -28.0441,-8.71417 -2.60197,-1.6311 -5.43189,-3.36969 -8.53346,-5.25354 -5.17913,-3.00709 -10.6606,-3.52205 -16.1256,-2.80039 -0.389764,0.0519685 -0.777165,0.109843 -1.16575,0.17126l0 -0.829134z" /><path
         id="_52464016"
         class="fil20"
         d="M2.60669 36.6827c0.517323,-0.0779528 1.03583,-0.147638 1.55551,-0.209055 5.59016,-0.673228 11.2346,-0.151181 16.7031,2.88425 3.06142,1.76929 5.97402,3.4748 8.67874,5.10709 12.7925,8.6126 17.2594,11.511 27.4287,8.72953 3.46181,-0.752362 7.92047,-3.07441 12.6354,-5.12244l0 0.628346c-4.68189,2.05276 -9.10866,4.37008 -12.5445,5.12598 -10.3642,2.87126 -14.8618,-0.0507874 -27.7878,-8.76614 -2.67047,-1.61102 -5.54409,-3.29528 -8.64094,-5.1 -5.22638,-2.86299 -10.7114,-3.3378 -16.2024,-2.69528 -0.609449,0.0708661 -1.2189,0.152362 -1.82598,0.243307l0 -0.825591z" /><path
         id="_81407104"
         class="fil21"
         d="M2.60669 37.585c0.741732,-0.102756 1.48346,-0.193701 2.2311,-0.271654 5.60906,-0.590551 11.2476,-0.112205 16.7516,2.77559 3.05787,1.68898 6.0189,3.34252 8.79567,4.95354 12.5823,8.37047 17.1579,11.2831 27.1949,8.7874 3.34134,-0.601181 7.57087,-2.59606 12.0283,-4.37717l0 0.614173c-4.43268,1.79173 -8.63504,3.79252 -11.9563,4.39843 -10.2224,2.58425 -14.8217,-0.350787 -27.5303,-8.81575 -2.74016,-1.59331 -5.65984,-3.22677 -8.74961,-4.94882 -5.2748,-2.72126 -10.7622,-3.15118 -16.2803,-2.59488 -0.830315,0.0850394 -1.65945,0.184252 -2.48504,0.296457l0 -0.817323z" /><path
         id="_82364496"
         class="fil22"
         d="M2.60669 38.4626c0.964961,-0.11811 1.93228,-0.223228 2.90433,-0.309449 5.62913,-0.509055 11.2642,-0.0744094 16.8024,2.66575 3.05787,1.6063 6.06614,3.20787 8.9126,4.80236 12.3709,8.12717 17.0563,11.0539 26.9598,8.84409 3.21969,-0.458268 7.21772,-2.14252 11.4224,-3.66732l0 0.601181c-4.18583,1.54134 -8.16614,3.23858 -11.3681,3.7063 -10.0795,2.29724 -14.785,-0.650787 -27.2717,-8.86772 -2.80984,-1.57441 -5.77441,-3.16063 -8.85945,-4.79764 -5.32205,-2.57598 -10.8118,-2.96575 -16.3606,-2.49094 -1.05,0.0897638 -2.09646,0.197244 -3.14173,0.318898l0 -0.805512z" /><path
         id="_112027480"
         class="fil23"
         d="M2.60669 39.3059c1.18819,-0.11811 2.3811,-0.224409 3.57992,-0.312992 5.64921,-0.422835 11.2772,-0.034252 16.8543,2.55709 3.05197,1.52362 6.10866,3.07323 9.02717,4.65 12.1594,7.88268 16.9535,10.8272 26.726,8.90079 3.09094,-0.322441 6.86102,-1.71732 10.8142,-2.99764l0 0.591732c-3.94252,1.30039 -7.70197,2.71417 -10.7799,3.04961 -9.93661,2.01142 -14.7461,-0.950787 -27.0165,-8.9185 -2.87717,-1.55669 -5.8878,-3.09094 -8.96575,-4.64646 -5.36811,-2.43189 -10.8614,-2.77795 -16.4374,-2.38819 -1.26969,0.0897638 -2.53701,0.196063 -3.80197,0.31063l0 -0.796063z" /><path
         id="_113583088"
         class="fil24"
         d="M2.60669 40.1161c1.41378,-0.100394 2.82874,-0.197244 4.25433,-0.282283 5.66811,-0.34252 11.2902,0.00472441 16.9028,2.4437 3.05315,1.44449 6.15709,2.94331 9.14528,4.5 11.9492,7.64055 16.852,10.6004 26.4921,8.96102 2.9563,-0.199606 6.50197,-1.32165 10.2071,-2.37047l0 0.584646c-3.70039,1.07008 -7.24252,2.21811 -10.1917,2.43189 -9.79488,1.72441 -14.7071,-1.24961 -26.7591,-8.97165 -2.94567,-1.5378 -6.00236,-3.01772 -9.07323,-4.49291 -5.4189,-2.2878 -10.9134,-2.59488 -16.5165,-2.28425 -1.49055,0.0826772 -2.9752,0.17126 -4.46102,0.262205l0 -0.78189z" /><path
         id="_87118056"
         class="fil25"
         d="M2.60669 40.885c1.63937,-0.0637795 3.27874,-0.137008 4.92756,-0.211417 5.68819,-0.259843 11.3055,0.0437008 16.9535,2.33622 3.05315,1.36181 6.20197,2.8063 9.2622,4.34646 11.7378,7.39724 16.7504,10.3701 26.2594,9.01772 2.81693,-0.0814961 6.13819,-0.956693 9.59882,-1.78701l0 0.579921c-3.46417,0.85748 -6.78898,1.75748 -9.60354,1.85551 -9.65315,1.43976 -14.6693,-1.54724 -26.5004,-9.02126 -3.01772,-1.52008 -6.11693,-2.94921 -9.18543,-4.34055 -5.46496,-2.14488 -10.9606,-2.40945 -16.5933,-2.18268 -1.71024,0.069685 -3.41102,0.12874 -5.1189,0.174803l0 -0.767717z" /><path
         id="_113643448"
         class="fil26"
         d="M2.60669 41.6091c1.8685,-0.00472441 3.72874,-0.0389764 5.60315,-0.0944882 5.70709,-0.178346 11.3173,0.0826772 17.0055,2.2252 3.04606,1.28031 6.24567,2.67165 9.37677,4.19409 11.5264,7.15276 16.6476,10.1433 26.022,9.07559 2.6752,0.0212598 5.77559,-0.622441 8.99409,-1.25079l0 0.579921c-3.22913,0.654331 -6.33898,1.32874 -9.01654,1.32283 -9.50787,1.15394 -14.6303,-1.84606 -26.2429,-9.07323 -3.08504,-1.50236 -6.23031,-2.87835 -9.29291,-4.18819 -5.5122,-2.00197 -11.0114,-2.22165 -16.6689,-2.07992 -1.92992,0.0472441 -3.84803,0.0661417 -5.78031,0.046063l0 -0.757087z" /><path
         id="_85643648"
         class="fil27"
         d="M2.60669 42.2882c2.1,0.0767717 4.17874,0.0980315 6.27638,0.0637795 5.72835,-0.0909449 11.3327,0.126378 17.0551,2.11772 3.04724,1.19882 6.29291,2.53937 9.49488,4.04173 11.315,6.90945 16.5461,9.91535 25.7882,9.13465 2.52638,0.114567 5.40591,-0.322441 8.38701,-0.764173l0 0.582283c-2.99764,0.467717 -5.89488,0.935433 -8.42835,0.837402 -9.36614,0.865748 -14.5902,-2.14606 -25.9854,-9.12402 -3.15354,-1.48465 -6.34488,-2.80984 -9.40039,-4.03819 -5.56063,-1.85787 -11.0622,-2.03622 -16.7504,-1.97835 -2.14488,0.0259843 -4.27795,-0.0177165 -6.43701,-0.12874l0 -0.744094z" /><path
         id="_114420336"
         class="fil28"
         d="M2.60669 42.9154c2.33504,0.186614 4.63228,0.279921 6.95079,0.276378 5.74843,-0.00944882 11.3457,0.164173 17.1059,2.00787 3.04606,1.11732 6.33661,2.40591 9.61063,3.89055 11.1059,6.66378 16.4445,9.6874 25.5543,9.1937 2.37165,0.194882 5.03386,-0.0602362 7.77992,-0.33189l0 0.585827c-2.76969,0.298819 -5.45433,0.583465 -7.84016,0.400394 -9.22323,0.583465 -14.5524,-2.44252 -25.7291,-9.17362 -3.22205,-1.46457 -6.45945,-2.73898 -9.50669,-3.88583 -5.61024,-1.71142 -11.1142,-1.85079 -16.8283,-1.87323 -2.3622,-0.00708661 -4.70669,-0.129921 -7.09724,-0.356693l0 -0.733465z" /><path
         id="_51183600"
         class="fil29"
         d="M2.60669 43.4906c2.5748,0.323622 5.08701,0.510236 7.6252,0.542126 5.76732,0.0720472 11.361,0.20315 17.1555,1.89803 3.04252,1.03583 6.38386,2.2689 9.72756,3.73937 10.8957,6.41811 16.3429,9.45709 25.3205,9.24803 2.21339,0.266929 4.65827,0.17126 7.17283,0.0519685l0 0.592913c-2.54528,0.146457 -5.0185,0.270472 -7.25315,0.0165354 -9.08031,0.294094 -14.5122,-2.7437 -25.4705,-9.22677 -3.29173,-1.44803 -6.57402,-2.66811 -9.61654,-3.73228 -5.65748,-1.57087 -11.1626,-1.66535 -16.9051,-1.77047 -2.57598,-0.0484252 -5.12953,-0.265748 -7.7563,-0.635433l0 -0.724016z" /><path
         id="_82065208"
         class="fil30"
         d="M2.60669 44.0138c2.82047,0.487795 5.54528,0.784252 8.30079,0.859843 5.78622,0.155906 11.3728,0.240945 17.2051,1.78701 3.04134,0.95315 6.42874,2.1378 9.84331,3.58701 10.6854,6.17598 16.2425,9.23031 25.0854,9.30709 2.04921,0.322441 4.28031,0.362598 6.56693,0.374409l0 0.605906c-2.32323,0.011811 -4.58976,-0.0023622 -6.6626,-0.316535 -8.93976,0.00944882 -14.4768,-3.0437 -25.2154,-9.27756 -3.36024,-1.43031 -6.6874,-2.59843 -9.7252,-3.5811 -5.70472,-1.42677 -11.2134,-1.47992 -16.9831,-1.66772 -2.78622,-0.0909449 -5.54764,-0.422835 -8.41535,-0.962598l0 -0.715748z" /><path
         id="_81033152"
         class="fil31"
         d="M2.60669 44.4803c3.07087,0.682677 6.00591,1.11024 8.97402,1.23307 5.80748,0.23622 11.3882,0.279921 17.2571,1.67598 3.04016,0.874016 6.4748,2.00433 9.95906,3.43583 10.474,5.93268 16.1398,9.00354 24.8516,9.3685 1.88031,0.364961 3.89764,0.516142 5.95984,0.637795l0 0.618898c-2.10472,-0.102756 -4.16457,-0.232677 -6.07677,-0.592913 -8.79567,-0.276378 -14.4366,-3.34134 -24.9567,-9.32953 -3.42756,-1.41142 -6.80197,-2.52874 -9.83268,-3.42756 -5.75197,-1.28268 -11.2642,-1.29567 -17.061,-1.56614 -2.99291,-0.138189 -5.96102,-0.605906 -9.07441,-1.34409l0 -0.709843z" /><path
         id="_84392224"
         class="fil32"
         d="M2.60669 44.8925c3.32835,0.904724 6.4689,1.48465 9.64961,1.66063 5.8252,0.32126 11.4,0.32126 17.3055,1.5685 3.0378,0.788976 6.52087,1.86969 10.0772,3.27992 10.2626,5.69291 16.0382,8.77559 24.6165,9.42638 1.70433,0.39685 3.5126,0.634252 5.35276,0.845669l0 0.634252c-1.88976,-0.194882 -3.74528,-0.416929 -5.4874,-0.810236 -8.65276,-0.564567 -14.3988,-3.64134 -24.7016,-9.38031 -3.49724,-1.39252 -6.91535,-2.46024 -9.94016,-3.27992 -5.80039,-1.13622 -11.3138,-1.10669 -17.1402,-1.46102 -3.19843,-0.193701 -6.36496,-0.816142 -9.73228,-1.77992l0 -0.703937z" /><path
         id="_29427184"
         class="fil33"
         d="M2.60669 45.2457c3.59409,1.1563 6.93661,1.91102 10.324,2.14724 5.84646,0.403937 11.4142,0.360236 17.3551,1.45748 3.0378,0.711024 6.56811,1.73504 10.1941,3.1311 10.0524,5.44606 15.9366,8.54528 24.3827,9.48307 1.52362,0.412205 3.12283,0.711024 4.74567,0.987402l0 0.654331c-1.67717,-0.26811 -3.32835,-0.55748 -4.89921,-0.970866 -8.51102,-0.848031 -14.3598,-3.93898 -24.4441,-9.43346 -3.56693,-1.37244 -7.02992,-2.38819 -10.0488,-3.12165 -5.84882,-0.99685 -11.3634,-0.922441 -17.2157,-1.36063 -3.40276,-0.253937 -6.76654,-1.05118 -10.3937,-2.26772l0 -0.706299z" /><path
         id="_112205344"
         class="fil34"
         d="M2.60669 45.5469c3.86693,1.4374 7.40787,2.38701 10.9972,2.68701 5.86654,0.485433 11.4283,0.398031 17.4071,1.34646 3.03425,0.629528 6.61181,1.60394 10.3098,2.97874 9.84213,5.20394 15.835,8.31969 24.1476,9.54094 1.34173,0.411024 2.73189,0.748819 4.13976,1.06772l0 0.677953c-1.46811,-0.316535 -2.91732,-0.650787 -4.3122,-1.07008 -8.36811,-1.13622 -14.322,-4.24016 -24.1866,-9.48189 -3.63307,-1.35709 -7.14331,-2.32087 -10.1563,-2.9752 -5.89724,-0.850394 -11.4154,-0.735827 -17.2949,-1.25669 -3.59882,-0.317717 -7.15748,-1.30866 -11.0516,-2.80512l0 -0.709843z" /><path
         id="_87363272"
         class="fil35"
         d="M2.60669 45.7925c4.14685,1.74567 7.88386,2.9126 11.6717,3.27992 5.88661,0.569291 11.4425,0.438189 17.4579,1.23898 3.03307,0.545669 6.65787,1.46811 10.4268,2.8252 9.63071,4.95945 15.7323,8.09173 23.9126,9.6 1.15394,0.39685 2.3374,0.747638 3.53268,1.08543l0 0.69685 0 0.0023622c-1.26142,-0.341339 -2.51102,-0.69685 -3.72402,-1.10787 -8.2252,-1.42087 -14.2819,-4.53898 -23.9291,-9.53386 -3.70394,-1.33583 -7.25787,-2.24882 -10.265,-2.82283 -5.94449,-0.705118 -11.465,-0.549213 -17.374,-1.15157 -3.79134,-0.38622 -7.54134,-1.59331 -11.7094,-3.39567l0 -0.716929z" /><path
         id="_29417352"
         class="fil36"
         d="M2.60669 45.9827c4.43976,2.08465 8.36575,3.48898 12.3472,3.92953 5.90433,0.651969 11.4567,0.479528 17.5075,1.12913 3.03071,0.465354 6.70276,1.33346 10.5425,2.67402 9.41929,4.71732 15.6307,7.8626 23.6799,9.65669 0.961417,0.368504 1.93937,0.708661 2.92441,1.04055l0 0.106299c0,0.204331 -0.0188976,0.40748 -0.0531496,0.603543 -1.03937,-0.340157 -2.07165,-0.688583 -3.08268,-1.0689 -8.0811,-1.70906 -14.2429,-4.8378 -23.6705,-9.58465 -3.77244,-1.32165 -7.3748,-2.18031 -10.3748,-2.67165 -5.99173,-0.562205 -11.5146,-0.361417 -17.452,-1.05 -3.9815,-0.459449 -7.91575,-1.90157 -12.3685,-4.03583l0 -0.72874z" /><path
         id="_51625616"
         class="fil37"
         d="M2.60669 46.1244c4.74094,2.44606 8.84882,4.11024 13.0217,4.62874 5.92559,0.733465 11.4697,0.517323 17.5583,1.01811 3.02717,0.383858 6.74764,1.20118 10.6571,2.52402 9.20906,4.47047 15.5303,7.63228 23.4472,9.71457 0.757087,0.317717 1.52244,0.622441 2.29252,0.922441 -0.0295276,0.239764 -0.0826772,0.472441 -0.158268,0.694488 -0.794882,-0.303543 -1.58504,-0.611811 -2.36457,-0.934252 -7.93937,-1.9937 -14.2063,-5.13661 -23.4142,-9.63661 -3.84094,-1.30276 -7.48701,-2.11063 -10.4823,-2.51811 -6.04134,-0.41811 -11.5654,-0.177165 -17.5299,-0.947244 -4.16693,-0.537402 -8.28189,-2.2311 -13.0276,-4.72087l0 -0.745276z" /><path
         id="_85483168"
         class="fil38"
         d="M2.60669 46.2154c5.05157,2.83465 9.34016,4.77756 13.6949,5.37638 5.94567,0.818504 11.4839,0.558661 17.6091,0.91063 3.02717,0.3 6.7937,1.06654 10.7752,2.36929 8.99882,4.22953 15.4264,7.40787 23.2122,9.77244 0.531496,0.244488 1.06772,0.483071 1.60512,0.720472 -0.0590551,0.235039 -0.142913,0.461811 -0.248031,0.675591 -0.537402,-0.233858 -1.07362,-0.468898 -1.60748,-0.711024 -7.79646,-2.27835 -14.165,-5.43425 -23.1555,-9.68386 -3.91063,-1.28386 -7.60276,-2.04213 -10.5909,-2.36811 -6.0874,-0.274016 -11.615,0.00826772 -17.6067,-0.844488 -4.35,-0.616535 -8.64213,-2.58543 -13.6878,-5.45433l0 -0.762992z" /><path
         id="_85026264"
         class="fil39"
         d="M2.60669 46.2602c5.37047,3.24685 9.83504,5.48622 14.3705,6.17244 5.96457,0.9 11.4969,0.597638 17.6575,0.799606 3.0248,0.220866 6.84094,0.93189 10.8921,2.21811 8.78858,3.98504 15.326,7.17874 22.9772,9.82913l0.890551 0.437008c-0.0862205,0.232677 -0.194882,0.452362 -0.325984,0.657874l-0.832677 -0.402756c-7.65236,-2.56654 -14.1272,-5.73543 -22.898,-9.74055 -3.98031,-1.26496 -7.71614,-1.97008 -10.6996,-2.2122 -6.13583,-0.129921 -11.6646,0.19252 -17.6858,-0.742913 -4.5248,-0.702756 -8.99055,-2.9622 -14.3457,-6.2315l0 -0.784252z" /><path
         id="_52462688"
         class="fil40"
         d="M2.60669 46.2591c5.7,3.6815 10.3358,6.23976 15.0449,7.01339 5.98346,0.983858 11.5122,0.637795 17.7083,0.689764 3.02244,0.13937 6.88583,0.798425 11.0079,2.06693 8.57717,3.74055 15.2232,6.94961 22.7433,9.88701l0.162992 0.0874016c-0.10748,0.226772 -0.238583,0.440551 -0.390945,0.636614l-0.0590551 -0.0307087c-7.50945,-2.85236 -14.0882,-6.03307 -22.6417,-9.78898 -4.04882,-1.24724 -7.83071,-1.90157 -10.8071,-2.0622 -6.18307,0.0129921 -11.7154,0.380315 -17.7638,-0.640157 -4.69843,-0.791339 -9.32953,-3.35551 -15.0047,-7.05l0 -0.809055z" /><path
         id="_84322792"
         class="fil41"
         d="M2.60669 46.2165c6.04134,4.13504 10.8425,7.02992 15.7193,7.89567 6.00354,1.06654 11.524,0.677953 17.7591,0.57874 3.02008,0.057874 6.93071,0.667323 11.1248,1.91457 8.14016,3.40512 14.7543,6.55039 21.9106,9.68504 -0.135827,0.227953 -0.297638,0.43937 -0.478346,0.629528 -7.06772,-3.03189 -13.5709,-6.12756 -21.6142,-9.51378 -4.11732,-1.22835 -7.94528,-1.83071 -10.9157,-1.90984 -6.23031,0.155906 -11.7661,0.566929 -17.8417,-0.535039 -4.86732,-0.882283 -9.66142,-3.7748 -15.6638,-7.90984l0 -0.835039z" /><path
         id="_51318152"
         class="fil42"
         d="M2.60669 46.1339c6.38976,4.60984 11.3516,7.85669 16.3925,8.82047 6.0248,1.14685 11.5394,0.713386 17.8098,0.467717 3.02008,-0.023622 6.97559,0.531496 11.2417,1.7622 7.64291,3.04843 14.1531,6.08858 20.9126,9.34724 -0.16063,0.223228 -0.344882,0.427559 -0.550394,0.605906 -6.64252,-3.14409 -13.0217,-6.12047 -20.5406,-9.14291 -4.18583,-1.20827 -8.05866,-1.75984 -11.0232,-1.75748 -6.27756,0.301181 -11.8146,0.752362 -17.9197,-0.433465 -5.03031,-0.975591 -9.98386,-4.20591 -16.3228,-8.80157l0 -0.86811z" /><path
         id="_111089008"
         class="fil43"
         d="M2.60669 46.0134c6.75,5.1 11.8665,8.7189 17.0681,9.77953 6.04252,1.23189 11.5512,0.753543 17.8606,0.360236 3.01654,-0.106299 7.02047,0.39685 11.3563,1.61102 7.15984,2.71063 13.5307,5.62323 19.9311,8.95157 -0.179528,0.217323 -0.383858,0.414567 -0.608268,0.582283 -6.26575,-3.19961 -12.4843,-6.03898 -19.4965,-8.71654 -4.25433,-1.19055 -8.17441,-1.6878 -11.1307,-1.60512 -6.32835,0.446457 -11.8665,0.937795 -17.9976,-0.329528 -5.18976,-1.07244 -10.2992,-4.66181 -16.9831,-9.73583l0 -0.897638z" /><path
         id="_83756848"
         class="fil44"
         d="M2.60669 45.8575c7.11732,5.61142 12.3862,9.61417 17.7425,10.7764 6.0626,1.31339 11.5665,0.793701 17.9091,0.249213 3.01654,-0.186614 7.06772,0.263386 11.4744,1.45748 6.69094,2.39173 12.8941,5.16378 18.9709,8.5122 -0.194882,0.214961 -0.416929,0.405118 -0.659055,0.563386 -5.92559,-3.20551 -11.9551,-5.89488 -18.4807,-8.24528 -4.3252,-1.17283 -8.28898,-1.62047 -11.2406,-1.45394 -6.37559,0.58937 -11.915,1.12441 -18.0756,-0.226772 -5.34449,-1.17402 -10.6039,-5.13307 -17.6409,-10.6996l0 -0.933071z" /><path
         id="_83586912"
         class="fil45"
         d="M2.60669 45.6697c7.49646,6.13465 12.9106,10.5402 18.4157,11.8051 6.08386,1.39488 11.5807,0.831496 17.961,0.138189 3.01299,-0.26811 7.11378,0.129921 11.5902,1.30512 6.23976,2.09291 12.2516,4.71378 18.0331,8.0374 -0.209055,0.211417 -0.444094,0.395669 -0.701575,0.54685 -5.61614,-3.17008 -11.4366,-5.69882 -17.4969,-7.74449 -4.39134,-1.15276 -8.40118,-1.54961 -11.348,-1.29921 -6.42165,0.731102 -11.9657,1.30748 -18.1535,-0.125197 -5.49567,-1.27559 -10.9004,-5.6185 -18.3,-11.6929l0 -0.970866z" /><path
         id="_113515504"
         class="fil46"
         d="M2.60669 45.4488c7.8815,6.67559 13.4398,11.4933 19.0913,12.8634 6.10276,1.4811 11.5937,0.874016 18.0106,0.0307087 3.01181,-0.348425 7.15866,-0.0023622 11.7071,1.15394 5.8063,1.80945 11.6067,4.2685 17.1154,7.53307 -0.219685,0.209055 -0.466535,0.389764 -0.733465,0.533858 -5.33386,-3.10157 -10.9276,-5.45669 -16.5425,-7.21654 -4.4622,-1.13622 -8.51693,-1.4811 -11.4579,-1.15039 -6.47008,0.875197 -12.0154,1.49528 -18.2315,-0.0212598 -5.64094,-1.37717 -11.1886,-6.12047 -18.9591,-12.7157l0 -1.01102z" /><path
         id="_84863944"
         class="fil47"
         d="M2.60669 45.1996c8.27717,7.22598 13.9736,12.4748 19.7669,13.9524 6.12047,1.5626 11.6067,0.912992 18.0591,-0.0791339 3.00945,-0.431102 7.20472,-0.135827 11.824,1.00394 5.39291,1.54488 10.963,3.83031 16.2177,7.00512 -0.229134,0.209055 -0.485433,0.387402 -0.762992,0.525591 -5.06811,-2.99528 -10.4173,-5.17677 -15.6106,-6.67323 -4.53189,-1.11732 -8.63268,-1.41024 -11.5665,-0.99685 -6.51732,1.01929 -12.0661,1.68071 -18.3094,0.080315 -5.78386,-1.48228 -11.4709,-6.6378 -19.6181,-13.7669l0 -1.05118z" /><path
         id="_85185328"
         class="fil48"
         d="M2.60669 44.9268c8.68228,7.78937 14.5098,13.4776 20.439,15.0673 6.14291,1.64528 11.6232,0.949606 18.1122,-0.190157 3.00827,-0.51378 7.24961,-0.271654 11.9398,0.850394 4.99724,1.29803 10.3228,3.40866 15.3366,6.46417 -0.23622,0.209055 -0.500787,0.385039 -0.786614,0.520866 -4.82008,-2.86772 -9.91181,-4.86732 -14.7024,-6.11693 -4.60039,-1.09961 -8.74606,-1.34173 -11.674,-0.844488 -6.56575,1.1622 -12.1169,1.86496 -18.3874,0.180709 -5.92323,-1.58858 -11.7437,-7.16575 -20.2772,-14.8382l0 -1.0937z" /></g><g
       id="_113515392"><path
         id="_115766008"
         class="fil49"
         d="M69.5386 65.2051c-1.02165,0.161811 -2.0185,0.317717 -2.98937,0.468898 -4.86732,0.902362 -9.01299,1.66299 -12.6437,2.24055l3.57992 -0.00590551c2.74961,-0.477165 5.77087,-1.03465 9.13346,-1.65945l2.73543 -0.429921c0.0791339,-0.196063 0.141732,-0.401575 0.184252,-0.614173zm-66.9319 -15.1087l0 -0.807874c8.64449,4.92165 15.9059,12.2102 21.8634,15.3224 2.88189,1.51181 5.47087,2.60551 8.04567,3.33898l-2.20748 0.00472441c-2.0315,-0.711024 -4.11378,-1.64409 -6.37441,-2.8311 -5.83583,-3.04843 -12.9224,-10.1232 -21.3272,-15.0272z" /><path
         id="_84813896"
         class="fil50"
         d="M69.5787 64.9689c-1.49882,0.184252 -2.95157,0.357874 -4.35827,0.519685 -6.07323,1.06299 -11.0173,1.90039 -15.2421,2.43307l4.29803 -0.00708661c3.23268,-0.494882 6.85512,-1.1185 10.9972,-1.84488 1.34646,-0.157087 2.73425,-0.323622 4.17165,-0.501969 0.0602362,-0.193701 0.106299,-0.392126 0.133465,-0.598819zm-66.972 -14.6138l0 -0.805512c8.21339,4.69724 15.2008,11.4047 21.0083,14.4024 3.88583,2.02323 7.24961,3.30945 10.7587,3.99567l-2.85118 0.00354331c-2.69646,-0.761811 -5.40709,-1.89803 -8.42953,-3.47362 -5.68465,-2.93386 -12.5008,-9.44646 -20.4862,-14.1224z" /><path
         id="_83133704"
         class="fil51"
         d="M69.5941 64.8295c-1.96772,0.178346 -3.87047,0.337795 -5.70354,0.479528 -8.60315,1.40787 -14.928,2.36102 -20.172,2.62323l6.73465 -0.011811c3.83268,-0.474803 8.23465,-1.16929 13.474,-2.03031 1.78465,-0.13937 3.63543,-0.296457 5.56181,-0.473622 0.0507874,-0.190157 0.0862205,-0.38622 0.105118,-0.587008zm-66.9874 -14.2335l0 -0.805512c7.79291,4.46575 14.5063,10.6217 20.1567,13.5024 5.66811,2.92913 10.2484,4.34173 15.7713,4.64764l-5.20512 0.00826772c-3.61063,-0.722835 -7.07362,-2.04803 -11.0764,-4.11732 -5.52402,-2.82047 -12.0697,-8.79921 -19.6465,-13.2354z" /><path
         id="_113643040"
         class="fil52"
         d="M69.5976 64.7776c-2.42835,0.148819 -4.7752,0.259843 -7.03465,0.349606 -21.4063,3.25039 -28.6335,3.6685 -40.6547,-2.49449 -5.48268,-2.76142 -11.9185,-8.39528 -19.3016,-12.6236l0 0.805512c7.1752,4.19528 13.448,9.66969 18.8043,12.3685 5.57244,2.85827 10.1161,4.32283 15.4535,4.75984l8.00315 -0.0129921c4.76811,-0.317717 10.4256,-1.10551 17.7106,-2.22047 2.21811,-0.0874016 4.52244,-0.200787 6.92598,-0.351969 0.0472441,-0.187795 0.0791339,-0.381496 0.0933071,-0.579921z" /><path
         id="_86568512"
         class="fil53"
         d="M69.5953 64.8106c-2.87953,0.0944882 -5.67283,0.129921 -8.36102,0.133465 -20.922,2.9185 -28.2283,3.10748 -40.1787,-2.97165 -5.30669,-2.63976 -11.4661,-7.78228 -18.4488,-11.7661l0 0.80315c6.78661,3.94724 12.7843,8.94567 17.9646,11.5252 12.1594,6.19134 19.5154,5.9752 40.6606,2.99882 2.64921,-0.00944882 5.39882,-0.0484252 8.26654,-0.152362 0.0484252,-0.185433 0.0814961,-0.375591 0.0968504,-0.570472z" /><path
         id="_22875776"
         class="fil54"
         d="M69.5835 64.9217c-3.31772,0.0212598 -6.55276,-0.0484252 -9.67795,-0.16063 -20.4354,2.5878 -27.8244,2.54528 -39.7039,-3.44646 -5.12126,-2.51811 -11.002,-7.2 -17.5949,-10.9346l0 0.801969c6.40512,3.69803 12.1276,8.24764 17.1236,10.7055 12.0744,6.10157 19.5059,6.11575 40.1563,3.46417 3.07795,0.105118 6.26811,0.167717 9.58465,0.129921 0.0531496,-0.180709 0.0897638,-0.368504 0.112205,-0.559843z" /><path
         id="_85973128"
         class="fil55"
         d="M69.5575 65.1118c-3.73465,-0.0661417 -7.4126,-0.274016 -10.9795,-0.533858 -19.9535,2.25945 -27.4217,1.98189 -39.2303,-3.92244 -4.9311,-2.39646 -10.5295,-6.6437 -16.7409,-10.1303l0 0.801969c6.03425,3.44764 11.478,7.57559 16.2839,9.91417 11.9917,6.00591 19.4953,6.25039 39.6472,3.93071 3.51378,0.249213 7.13622,0.445276 10.8768,0.488976 0.0614173,-0.177165 0.109843,-0.360236 0.142913,-0.549213z" /><path
         id="_112631984"
         class="fil56"
         d="M69.502 65.3717c-4.12087,-0.162992 -8.23583,-0.538583 -12.2528,-0.973228 -19.4693,1.92638 -27.0177,1.41614 -38.7567,-4.40315 -4.7315,-2.27126 -10.0453,-6.11339 -15.8858,-9.35315l0 0.805512c5.66929,3.19843 10.8366,6.93071 15.4441,9.14764 11.9067,5.91378 19.4858,6.3874 39.1406,4.39606 3.94843,0.421654 7.99252,0.780709 12.1264,0.915354 0.0744094,-0.17126 0.137008,-0.350787 0.184252,-0.535039z" /><path
         id="_82120688"
         class="fil57"
         d="M69.398 65.7059l-0.0755906 -0.00944882c-4.43858,-0.270472 -8.95748,-0.842126 -13.4031,-1.48346 -18.9827,1.59803 -26.6126,0.85748 -38.2795,-4.87913 -4.5248,-2.14488 -9.55512,-5.61024 -15.0331,-8.60315l0 0.806693c5.31378,2.95039 10.2024,6.31654 14.6031,8.40945 11.8228,5.82402 19.4752,6.52677 38.635,4.86496 4.38307,0.622441 8.83346,1.17283 13.3181,1.40433 0.0909449,-0.162992 0.170079,-0.334252 0.235039,-0.510236z" /><path
         id="_51698936"
         class="fil58"
         d="M69.1819 66.1819c-0.416929,-0.0720472 -0.837402,-0.13937 -1.25906,-0.20315 -4.35118,-0.409843 -8.85118,-1.14567 -13.3299,-1.94528 -18.4996,1.26732 -26.211,0.291732 -37.8071,-5.3563 -4.30866,-2.02323 -9.05551,-5.13661 -14.1791,-7.8874l0 0.807874c4.96772,2.70827 9.57402,5.73307 13.7634,7.70197 11.739,5.73307 19.4646,6.66614 38.1283,5.33386 4.41732,0.780709 8.85118,1.49173 13.2461,1.85906 0.368504,0.0625984 0.734646,0.127559 1.09961,0.197244 0.126378,-0.158268 0.238583,-0.328346 0.337795,-0.507874z" /><path
         id="_86646488"
         class="fil59"
         d="M68.8039 66.7382c-0.751181,-0.17126 -1.51063,-0.330709 -2.27835,-0.477165 -4.26496,-0.548031 -8.74961,-1.45039 -13.2626,-2.41181 -18.0154,0.935433 -25.8071,-0.269291 -37.3323,-5.83346 -4.08661,-1.89567 -8.54882,-4.68307 -13.324,-7.19764l0 0.809055c4.62874,2.47087 8.95276,5.17913 12.9224,7.02402 11.6528,5.64094 19.4539,6.80551 37.6217,5.80276 4.44921,0.940157 8.86654,1.81181 13.1705,2.31378 0.669685,0.141732 1.33346,0.292913 1.99134,0.453543 0.179528,-0.144094 0.343701,-0.305906 0.491339,-0.483071z" /><path
         id="_113984704"
         class="fil60"
         d="M68.1803 67.3228c-1.00276,-0.282283 -2.01969,-0.542126 -3.05315,-0.779528 -4.17874,-0.687402 -8.64567,-1.75276 -13.1929,-2.87598 -17.5311,0.607087 -25.402,-0.833858 -36.8563,-6.31063 -3.85984,-1.77047 -8.03504,-4.25906 -12.4713,-6.54449l0 0.81378c4.29449,2.24291 8.33976,4.65827 12.0839,6.37913 11.5677,5.54764 19.4433,6.94252 37.1138,6.26929 4.4811,1.09724 8.88189,2.13071 13.0925,2.77087 0.852756,0.214961 1.6937,0.446457 2.52756,0.690945 0.269291,-0.105118 0.524409,-0.244488 0.755906,-0.413386z" /><path
         id="_88178576"
         class="fil61"
         d="M67.115 67.8378c-1.11142,-0.361417 -2.23937,-0.699213 -3.38858,-1.01339 -4.08898,-0.824409 -8.54055,-2.05394 -13.1209,-3.34016 -17.0445,0.275197 -25.0004,-1.39488 -36.3791,-6.78543 -3.6248,-1.64528 -7.51535,-3.85748 -11.6197,-5.92205l0 0.817323c3.96732,2.02323 7.73031,4.16811 11.2417,5.76496 11.485,5.45433 19.4339,7.07953 36.6094,6.73465 4.51181,1.25669 8.89606,2.45079 13.0169,3.22559 0.622441,0.185433 1.24016,0.376772 1.85315,0.576378l1.55669 -0.0023622c0.0779528,-0.0165354 0.154724,-0.034252 0.230315,-0.0555118z" /><path
         id="_112387328"
         class="fil62"
         d="M64.6984 67.8969c-0.780709,-0.275197 -1.56969,-0.537402 -2.36929,-0.791339 -4.00276,-0.961417 -8.43898,-2.35748 -13.0524,-3.80079 -16.5602,-0.0566929 -24.5941,-1.96181 -35.9067,-7.26732 -3.38504,-1.51772 -6.98622,-3.47717 -10.7634,-5.32795l0 0.820866c3.64843,1.81063 7.12677,3.70866 10.402,5.17913 11.4035,5.36457 19.4232,7.22126 36.1028,7.20472 4.54134,1.41496 8.90906,2.77205 12.9378,3.6815l0.872835 0.304724 1.77638 -0.00354331z" /><path
         id="_85212296"
         class="fil63"
         d="M62.3114 67.9004c-0.457087,-0.173622 -0.916535,-0.343701 -1.37953,-0.511417 -3.91772,-1.10197 -8.33858,-2.66102 -12.9827,-4.26969 -16.0772,-0.385039 -24.1925,-2.52047 -35.4295,-7.73976 -3.14055,-1.39252 -6.45591,-3.11929 -9.91299,-4.76811l0 0.824409c3.33189,1.61102 6.53031,3.27992 9.5622,4.62756 11.3173,5.27244 19.4126,7.35709 35.5961,7.67008 4.57323,1.57441 8.92323,3.09213 12.8598,4.13858l0.0826772 0.0318898 1.60394 -0.00354331z" /><path
         id="_86648928"
         class="fil64"
         d="M60.0992 67.9051l-0.564567 -0.232677c-3.8315,-1.24016 -8.23583,-2.96575 -12.9142,-4.73622 -15.5929,-0.713386 -23.7886,-3.08268 -34.9559,-8.21693 -2.88898,-1.26732 -5.91732,-2.77913 -9.05787,-4.2378l0 0.831496c3.02126,1.41969 5.9374,2.87953 8.72126,4.10315 11.2323,5.18031 19.402,7.49528 35.0894,8.13898 4.30276,1.61811 8.36575,3.18898 12.0189,4.35118l1.66299 -0.0011811z" /><path
         id="_50967784"
         class="fil65"
         d="M58.0134 67.9075c-3.72047,-1.3748 -8.06102,-3.24449 -12.7217,-5.15315 -15.1075,-1.04409 -23.3835,-3.64606 -34.4823,-8.69409 -2.63268,-1.14331 -5.37402,-2.45906 -8.20276,-3.73701l0 0.837402c2.71654,1.24016 5.35157,2.50866 7.8815,3.60945 11.1484,5.08701 19.3913,7.63346 34.5827,8.60433 4.06299,1.65591 7.87795,3.27402 11.2878,4.53543l1.65472 -0.0023622z" /><path
         id="_85427592"
         class="fil66"
         d="M55.9654 67.911c-3.4937,-1.47756 -7.5874,-3.39213 -12.0024,-5.3374 -14.622,-1.37717 -22.9819,-4.21063 -34.0063,-9.17244 -2.37283,-1.01929 -4.82835,-2.15433 -7.35,-3.26339l0 0.842126c2.41417,1.07362 4.76575,2.16496 7.03819,3.14409 11.0657,4.9937 19.3854,7.76929 34.0795,9.07205 3.87638,1.69961 7.49528,3.3685 10.7067,4.71732l1.53425 -0.0023622z" /><path
         id="_115960800"
         class="fil67"
         d="M54.0567 67.9146c-3.31181,-1.57087 -7.20118,-3.53622 -11.4224,-5.52402 -14.1378,-1.70787 -22.5768,-4.77402 -33.5315,-9.64843 -2.10709,-0.896457 -4.27677,-1.86732 -6.49606,-2.81811l0 0.849213c2.11772,0.916535 4.18701,1.8437 6.19961,2.70118 10.9807,4.90394 19.3736,7.90984 33.5705,9.54094 3.72756,1.74921 7.18937,3.47126 10.2425,4.90157l1.4374 -0.0023622z" /><path
         id="_82388336"
         class="fil68"
         d="M52.2472 67.9181c-3.15709,-1.65709 -6.8811,-3.67323 -10.9429,-5.71063 -13.6512,-2.0374 -22.1728,-5.33504 -33.0567,-10.1244 -1.83898,-0.772441 -3.72165,-1.59094 -5.64094,-2.39409l0 0.855118c1.82244,0.770079 3.61299,1.54961 5.36102,2.28543 10.8945,4.81063 19.3618,8.04685 33.0638,10.0063 3.60118,1.8 6.92953,3.57756 9.85039,5.08465l1.36535 -0.0023622z" /><path
         id="_85430280"
         class="fil69"
         d="M50.5122 67.9205c-3.0248,-1.73858 -6.60827,-3.80787 -10.5343,-5.89606 -13.1705,-2.36693 -21.7724,-5.89843 -32.5831,-10.6016 -1.5685,-0.651969 -3.16535,-1.32756 -4.78819,-1.99134l0 0.859843c1.53071,0.633071 3.03898,1.27205 4.5189,1.88858 10.813,4.71969 19.3535,8.18858 32.5583,10.4764 3.49843,1.85433 6.71693,3.6874 9.52087,5.26535l1.30748 -0.0011811z" /><path
         id="_81641600"
         class="fil70"
         d="M48.8386 67.9228c-2.91142,-1.81417 -6.37677,-3.94016 -10.1906,-6.08031 -12.6862,-2.69764 -21.3661,-6.46063 -32.1083,-11.0799 -1.29331,-0.531496 -2.60433,-1.07362 -3.93307,-1.60748l0 0.86811c1.24134,0.50315 2.4685,1.01102 3.67913,1.51063 10.7268,4.62638 19.3429,8.32441 32.0516,10.9441 3.40984,1.90748 6.53504,3.79724 9.23976,5.44724l1.26142 -0.0023622z" /><path
         id="_112366952"
         class="fil71"
         d="M47.211 67.9264c-2.81102,-1.88976 -6.17244,-4.07126 -9.89055,-6.26693 -12.202,-3.02598 -20.9622,-7.02283 -31.6335,-11.5559 -1.01575,-0.414567 -2.04331,-0.830315 -3.08031,-1.24016l0 0.875197c0.954331,0.380315 1.90157,0.765354 2.83819,1.14803 10.6441,4.53543 19.3323,8.4626 31.5461,11.4094 3.33543,1.96417 6.37677,3.91181 8.99528,5.6315l1.2248 -0.0011811z" /><path
         id="_82656760"
         class="fil72"
         d="M45.6236 67.9276c-2.7248,-1.96181 -5.99764,-4.20118 -9.63071,-6.44882 -11.7165,-3.36024 -20.5606,-7.5874 -31.1598,-12.0343 -0.737008,-0.297638 -1.47992,-0.594094 -2.22638,-0.887008l0 0.882283c0.670866,0.264567 1.33701,0.532677 1.99961,0.798425 10.5567,4.44449 19.3217,8.60315 31.0382,11.8795 3.26929,2.0185 6.23858,4.0252 8.78031,5.8122l1.19882 -0.0023622z" /><path
         id="_82666752"
         class="fil73"
         d="M44.0669 67.9323c-2.64803,-2.0315 -5.84173,-4.3311 -9.40394,-6.63661 -11.2323,-3.68858 -20.1555,-8.15079 -30.6827,-12.5102l-1.37362 -0.543307 0 0.892913 1.15748 0.457087c10.4764,4.35118 19.3122,8.7378 30.5327,12.3461 3.21614,2.07638 6.12047,4.14213 8.59252,5.99528l1.17756 -0.0011811z" /><path
         id="_86499936"
         class="fil74"
         d="M42.5339 67.9346c-2.57598,-2.10118 -5.7,-4.45984 -9.19961,-6.82205 -10.748,-4.01929 -19.7516,-8.71181 -30.2079,-12.9886l-0.519685 -0.204331 0 0.901181 0.317717 0.124016c10.3913,4.25906 19.3016,8.87598 30.026,12.8138 3.16654,2.13307 6.01772,4.25669 8.42835,6.17717l1.15512 -0.0011811z" /><path
         id="_87900144"
         class="fil75"
         d="M41.0256 67.9358c-2.51339,-2.1685 -5.5748,-4.58504 -9.0189,-7.0063 -10.1539,-4.30276 -19.1528,-9.1689 -29.4,-13.3287l0 0.909449c10.0902,4.11969 18.9413,8.87362 28.9961,13.0665 3.1252,2.19213 5.92677,4.37598 8.28189,6.36142l1.14094 -0.0023622z" /><path
         id="_85606920"
         class="fil76"
         d="M39.5327 67.9394c-2.45433,-2.23701 -5.46024,-4.71496 -8.85472,-7.19173 -9.40157,-4.49764 -18.2362,-9.44173 -28.0713,-13.461l0 0.917717c9.67087,3.97441 18.352,8.80512 27.6508,13.1953 3.08622,2.24882 5.84291,4.49291 8.14724,6.54094l1.12795 -0.0011811z" /><path
         id="_83142328"
         class="fil77"
         d="M38.0587 67.9406c-2.4,-2.30315 -5.35984,-4.83898 -8.70945,-7.3748 -8.67165,-4.67362 -17.3031,-9.6815 -26.7425,-13.5945l0 0.924803c9.26811,3.86339 17.7413,8.75787 26.3043,13.3217 3.05315,2.30906 5.76969,4.6122 8.02677,6.7252l1.12087 -0.0023622z" /><path
         id="_52494264"
         class="fil78"
         d="M36.6 67.9441c-2.35157,-2.36929 -5.26654,-4.96654 -8.58071,-7.56024 -7.96654,-4.83071 -16.3571,-9.89173 -25.4126,-13.7232l0 0.934252c8.88071,3.77835 17.1059,8.7248 24.9579,13.4457 3.02362,2.36693 5.70354,4.72677 7.91811,6.90472l1.11732 -0.0011811z" /><path
         id="_51198000"
         class="fil79"
         d="M35.1508 67.9465c-2.30787,-2.43425 -5.17913,-5.09173 -8.45906,-7.74567 -7.28622,-4.96299 -15.4004,-10.0677 -24.085,-13.8425l0 0.941339c8.50157,3.71811 16.4457,8.70827 23.6114,13.5614 2.99882,2.4248 5.64685,4.84724 7.82008,7.08661l1.1126 -0.0011811z" /><path
         id="_86003680"
         class="fil80"
         d="M33.7122 67.9488c-2.26535,-2.50039 -5.10118,-5.21811 -8.34921,-7.9311 -6.62953,-5.07402 -14.439,-10.2118 -22.7563,-13.95l0 0.951969c8.13071,3.67913 15.7618,8.69882 22.265,13.6594 2.9752,2.48504 5.59134,4.96772 7.73031,7.27087l1.11024 -0.0011811z" /></g><path
       class="fil81"
       d="M19.5272 11.961c-1.37717,-0.827953 -2.34213,52.6217 1.10197,53.726 3.44409,1.10551 45.0484,-25.1374 47.1154,-27.3461 2.06693,-2.20984 -41.1921,-29.2795 -48.2173,-26.3799z"
       id="path112" /><g
       id="_82604928"><path
         id="_85142296"
         class="fil82"
         d="M69.1488 31.8402c-6.73465,0.307087 -12.0661,-0.914173 -18.9307,-4.14685 -7.65591,-3.58583 -17.452,-13.1173 -29.0528,-17.7472l-2.10709 -0.00354331c12.2693,4.32874 22.6016,14.5913 30.5976,18.3378 7.08898,3.34016 12.5551,4.58031 19.4929,4.2378l0 -0.677953z" /><path
         id="_82227000"
         class="fil83"
         d="M69.1476 31.2094c-7.18701,0.375591 -12.7181,-0.844488 -19.8969,-4.19646 -7.66181,-3.54449 -17.3622,-12.6555 -28.7421,-17.0681l-2.15669 -0.0023622c12.0685,4.10315 22.3311,13.9594 30.3531,17.6705 7.39488,3.45709 13.0571,4.69252 20.4437,4.27795l-0.0011811 -0.681496z" /><path
         id="_81961864"
         class="fil84"
         d="M69.1476 30.5906c-7.64882,0.433465 -13.3772,-0.79252 -20.8606,-4.25787 -7.65709,-3.49488 -17.2535,-12.1854 -28.3972,-16.389l-2.21457 -0.0011811c11.8606,3.88583 22.0417,13.3299 30.0791,17.0031 7.69724,3.56693 13.5461,4.80354 21.3933,4.32992l0 -0.685039z" /><path
         id="_113515448"
         class="fil85"
         d="M69.1465 29.9846c-8.1189,0.478346 -14.0421,-0.759449 -21.8256,-4.33346 -7.64173,-3.44409 -17.1189,-11.7071 -28.0181,-15.7087l-2.28071 -0.0011811c11.6409,3.67323 21.7335,12.7075 29.7815,16.3335 7.99252,3.67441 14.028,4.92047 22.3441,4.39843l-0.0011811 -0.688583z" /><path
         id="_85801104"
         class="fil86"
         d="M69.1465 29.3917c-8.59724,0.507874 -14.7118,-0.744094 -22.7906,-4.42323 -7.61693,-3.38622 -16.9654,-11.2217 -27.613,-15.026l-2.33504 -0.0023622c11.4106,3.47244 21.4004,12.085 29.4449,15.6661 8.28071,3.77598 14.5028,5.03386 23.2937,4.4811l0 -0.695669z" /><path
         id="_83344888"
         class="fil87"
         d="M69.1453 28.8213c-9.08031,0.520866 -15.3862,-0.757087 -23.7543,-4.53307 -7.57559,-3.32598 -16.7799,-10.7327 -27.163,-14.3457l-2.40236 -0.00354331c11.1685,3.28228 21.0449,11.4697 29.0776,14.9988 8.56417,3.87165 14.9705,5.15079 24.2433,4.5815l-0.0011811 -0.698031z" /><path
         id="_87159000"
         class="fil88"
         d="M69.1453 28.2697c-9.56811,0.517323 -16.0689,-0.793701 -24.7205,-4.66299 -7.52008,-3.25984 -16.5602,-10.2331 -26.661,-13.6642l-2.48031 -0.00354331c10.9193,3.09567 20.6634,10.8543 28.6689,14.3315 8.84528,3.96024 15.4358,5.27126 25.1941,4.70197l-0.0011811 -0.702756z" /><path
         id="_85643864"
         class="fil89"
         d="M69.1453 27.7465c-10.0583,0.493701 -16.7528,-0.862205 -25.6878,-4.82126 -7.44331,-3.18661 -16.3004,-9.7252 -26.1071,-12.9839l-2.54764 -0.0023622c10.6429,2.92913 20.2382,10.2484 28.2,13.663 9.11929,4.04882 15.8941,5.39764 26.1425,4.84724l0 -0.702756z" /><path
         id="_84365632"
         class="fil90"
         d="M69.1453 27.2457c-10.5508,0.453543 -17.439,-0.957874 -26.6516,-5.00315 -7.35236,-3.10512 -16.0075,-9.21142 -25.5059,-12.3012l-2.6126 -0.0023622c10.3571,2.76969 19.7799,9.65079 27.6768,12.9933 9.38976,4.13268 16.3535,5.53465 27.0933,5.02087l0 -0.70748z" /><path
         id="_86501152"
         class="fil91"
         d="M69.1453 26.778c-11.0386,0.388583 -18.1323,-1.09016 -27.6177,-5.21457 -7.23543,-3.02126 -15.665,-8.69528 -24.8374,-11.6232l-2.68346 -0.0023622c10.0512,2.62087 19.2803,9.05787 27.0945,12.326 9.65787,4.21063 16.8142,5.67638 28.0441,5.22283l0 -0.708661z" /><path
         id="_51725552"
         class="fil92"
         d="M69.1453 26.3386c-11.5276,0.307087 -18.8232,-1.25551 -28.5839,-5.45787 -7.0937,-2.92323 -15.274,-8.16614 -24.0992,-10.9406l-2.75197 -0.0023622c9.72638,2.48386 18.7335,8.47323 26.4413,11.6575 9.92362,4.28504 17.2748,5.82638 28.9937,5.45315l0 -0.709843z" /><path
         id="_85633536"
         class="fil93"
         d="M69.1441 25.9346c-12.0106,0.201969 -19.5154,-1.45984 -29.5488,-5.73543 -6.9248,-2.82047 -14.8276,-7.63228 -23.2854,-10.2591l-2.81693 -0.0023622c9.37795,2.35748 18.1358,7.89803 25.7091,10.989 10.1882,4.35472 17.7425,5.99409 29.9433,5.72126l-0.0011811 -0.713386z" /><path
         id="_83569720"
         class="fil94"
         d="M69.1441 25.5685c-12.4843,0.0732283 -20.211,-1.70433 -30.5114,-6.04843 -6.72992,-2.70945 -14.3268,-7.10197 -22.3984,-9.57992l-2.87244 -0.00354331c9.00354,2.24173 17.4803,7.33583 24.8882,10.3228 10.4528,4.42087 18.2161,6.17126 30.8953,6.02244l-0.0011811 -0.713386z" /><path
         id="_85231680"
         class="fil95"
         d="M69.1441 25.2449c-12.9496,-0.0826772 -20.9008,-1.9937 -31.4799,-6.40866 -6.49606,-2.58307 -13.7551,-6.56102 -21.4146,-8.89606l-2.92559 -0.00354331c8.60551,2.13307 16.7681,6.78307 23.9752,9.65315 10.7197,4.48819 18.6992,6.36732 31.8449,6.3685l0 -0.713386z" /><path
         id="_112611432"
         class="fil96"
         d="M69.1441 24.9591c-13.4055,-0.256299 -21.5929,-2.32323 -32.4425,-6.80315 -6.23386,-2.44843 -13.1244,-6.02362 -20.348,-8.21575l-2.96929 -0.0023622c8.18031,2.02913 15.9921,6.23858 22.9665,8.98346 10.9843,4.55079 19.1906,6.5811 32.7933,6.75472l0 -0.716929z" /><path
         id="_87840448"
         class="fil97"
         d="M69.1429 24.7228c-13.8472,-0.459449 -22.2803,-2.70354 -33.4075,-7.24843 -5.9315,-2.30197 -12.4217,-5.4874 -19.1846,-7.53425l-3.00354 -0.0023622c7.72795,1.92992 15.1535,5.71063 21.8528,8.31496 11.2524,4.61102 19.6972,6.8126 33.7441,7.18819l-0.0011811 -0.71811z" /><path
         id="_84089696"
         class="fil98"
         d="M69.1429 24.5386c-14.2689,-0.692126 -22.963,-3.13937 -34.3748,-7.74449 -5.5878,-2.1437 -11.6386,-4.95591 -17.9138,-6.85276l-3.03189 -0.00354331c7.2437,1.82717 14.2453,5.19331 20.6268,7.64764 11.5264,4.6689 20.2228,7.0689 34.6949,7.67126l-0.0011811 -0.71811z" /><path
         id="_86501376"
         class="fil99"
         d="M69.1429 24.4075c-14.6705,-0.951969 -23.6409,-3.62717 -35.3398,-8.29488 -5.20276,-1.97244 -10.7823,-4.42677 -16.539,-6.17126l-3.05551 -0.00354331c6.7311,1.72323 13.2673,4.69134 19.2898,6.98031 11.8051,4.72677 20.7685,7.35 35.6457,8.20866l-0.0011811 -0.719291z" /><path
         id="_115303400"
         class="fil100"
         d="M69.1429 24.3354c-15.0484,-1.24134 -24.3106,-4.17638 -36.3047,-8.90433 -4.7752,-1.78937 -9.84685,-3.90472 -15.0555,-5.48858l-3.07795 -0.00354331c6.19016,1.60984 12.2256,4.19882 17.8441,6.30827 12.0909,4.78583 21.3378,7.66417 36.5953,8.80866l-0.0011811 -0.720472z" /><path
         id="_112666552"
         class="fil101"
         d="M69.1429 24.5433l-0.614173 -0.276378c-15.0378,-1.58386 -24.5197,-4.78937 -36.6579,-9.51614 -4.30512,-1.59567 -8.83346,-3.39331 -13.4693,-4.80827l-3.09213 -0.00354331c5.61969,1.48937 11.1189,3.72283 16.2898,5.64213 12.1524,4.74921 21.5717,7.89094 36.6602,9.38622l0.884646 0.398031 -0.0011811 -0.822047z" /><path
         id="_81359264"
         class="fil102"
         d="M69.1441 25.1339c-0.681496,-0.333071 -1.3748,-0.668504 -2.07638,-1.00394 -14.5264,-1.96772 -24.1063,-5.42598 -36.1618,-10.0618 -3.79134,-1.3878 -7.74331,-2.88661 -11.7744,-4.12559l-3.10157 -0.0023622c5.0185,1.35591 9.94134,3.25394 14.6185,4.97008 12.0555,4.65354 21.5669,8.04567 36.1287,9.92362 0.800787,0.382677 1.59213,0.762992 2.36693,1.14213l0 -0.842126z" /><path
         id="_114740024"
         class="fil103"
         d="M69.1441 25.8248c-1.14449,-0.604724 -2.32677,-1.21772 -3.53858,-1.83071 -14.0126,-2.35276 -23.6917,-6.06024 -35.6669,-10.6075 -3.23504,-1.17165 -6.57874,-2.38937 -9.97795,-3.44291l-3.11102 -0.0023622c4.39016,1.21063 8.70827,2.79921 12.848,4.30039 11.9587,4.55787 21.5622,8.19567 35.5972,10.461 1.32283,0.666142 2.60906,1.33346 3.85039,1.98898l-0.0011811 -0.866929z" /><path
         id="_112563712"
         class="fil104"
         d="M69.1453 26.6232c-1.58858,-0.909449 -3.2622,-1.8378 -5.00315,-2.76614 -13.4965,-2.73661 -23.2748,-6.69567 -35.1673,-11.152 -2.64094,-0.944882 -5.34803,-1.90039 -8.09409,-2.76024l-3.10984 -0.0023622c3.73465,1.05236 7.41732,2.35512 10.976,3.63189 11.863,4.45984 21.5587,8.34567 35.0646,10.9937 1.86378,0.992126 3.64724,1.98189 5.33386,2.94449l0 -0.88937z" /><path
         id="_83461600"
         class="fil105"
         d="M69.1453 27.5327c-2.00551,-1.24016 -4.17283,-2.52756 -6.46535,-3.8126 -12.9827,-3.12165 -22.8602,-7.3311 -34.6713,-11.6941 -2.01496,-0.713386 -4.06654,-1.42205 -6.13937,-2.07992l-3.09921 -0.00354331c3.05787,0.883465 6.0815,1.91811 9.02835,2.9622 11.765,4.36417 21.5516,8.49921 34.5307,11.5323 2.43189,1.35945 4.71732,2.71772 6.81614,4.01339l0 -0.917717z" /><path
         id="_81270224"
         class="fil106"
         d="M69.1453 28.5661c-2.38346,-1.59921 -5.05276,-3.29291 -7.92874,-4.98189 -12.4677,-3.50669 -22.4445,-7.96772 -34.1717,-12.2398 -1.36654,-0.478346 -2.74606,-0.947244 -4.1374,-1.39724l-3.06969 -0.00354331c2.36575,0.701575 4.70906,1.48819 7.00748,2.2937 11.6728,4.26496 21.5504,8.64921 34.0016,12.0661 3.03425,1.77874 5.82874,3.55866 8.29961,5.21457l-0.0011811 -0.951969z" /><path
         id="_52484064"
         class="fil107"
         d="M69.1465 29.739c-2.71299,-1.98189 -5.89016,-4.14213 -9.39213,-6.29291 -11.9539,-3.89055 -22.0299,-8.60079 -33.6756,-12.7854 -0.698031,-0.240945 -1.40079,-0.479528 -2.10591,-0.712205l-3.02953 -0.00354331c1.66654,0.507874 3.32008,1.05827 4.95354,1.62402 11.5736,4.16929 21.5457,8.80039 33.4677,12.6012 3.68268,2.25709 6.99685,4.5189 9.78307,6.55748l-0.0011811 -0.988583z" /><path
         id="_112474904"
         class="fil108"
         d="M69.1476 31.0701c-2.97047,-2.38701 -6.67087,-5.08228 -10.8555,-7.76102 -11.439,-4.27441 -21.6154,-9.23622 -33.1795,-13.3287l-0.0909449 -0.0307087 -2.9622 -0.00354331c0.967323,0.308268 1.92874,0.625984 2.88661,0.95315 11.478,4.0748 21.5386,8.95394 32.935,13.1374 4.40197,2.81102 8.25118,5.63386 11.2677,8.07047l-0.0011811 -1.03701z" /><path
         id="_113647320"
         class="fil109"
         d="M69.1488 32.602c-3.12165,-2.8063 -7.36654,-6.13346 -12.3201,-9.42992 -10.3406,-4.40906 -20.1,-9.31535 -30.8551,-13.2224l-2.82638 -0.0023622 0.848031 0.284646c11.3811,3.97559 21.5339,9.10512 32.4059,13.6736 5.22047,3.47126 9.63189,6.95669 12.7476,9.79724l0 -1.10079z" /><path
         id="_109733976"
         class="fil110"
         d="M69.15 34.4008l-0.132283 -0.142913c-3.10394,-3.19724 -7.87559,-7.23189 -13.6512,-11.2217 -9.27283,-4.49291 -18.522,-9.32008 -28.4894,-13.0854l-2.72362 -0.0023622c10.8484,3.84685 20.7614,9.03307 30.7642,13.8224 5.66929,3.91417 10.3406,7.85079 13.3878,10.9512l0.844488 0.93189 0 -1.25315z" /><path
         id="_82194072"
         class="fil111"
         d="M69.1512 36.5374c-0.54685,-0.627165 -1.09606,-1.2626 -1.65236,-1.9063 -3.01299,-3.35197 -7.7752,-7.5685 -13.5957,-11.7319 -8.27717,-4.54134 -16.9606,-9.28228 -26.2051,-12.9472l-2.62913 -0.0023622c10.0535,3.72756 19.4268,8.82874 28.3665,13.6902 5.70945,4.08425 10.3724,8.19921 13.324,11.452 0.806693,0.946063 1.60157,1.87323 2.39291,2.78268l-0.0011811 -1.33701z" /><path
         id="_85772416"
         class="fil112"
         d="M69.1524 38.8642c-1.04646,-1.24961 -2.09646,-2.53346 -3.17008,-3.85748 -2.92441,-3.50787 -7.67835,-7.90512 -13.5413,-12.2445 -7.35945,-4.56024 -15.4547,-9.21496 -24.0272,-12.8091l-2.51102 -0.00354331c9.3189,3.65433 18.1016,8.66102 26.0504,13.5567 5.75315,4.25551 10.4008,8.54882 13.2614,11.9551 1.33465,1.65827 2.63622,3.25748 3.93898,4.80236l-0.0011811 -1.39961z" /><path
         id="_83462336"
         class="fil113"
         d="M69.1547 41.3563c-1.55433,-1.90157 -3.09803,-3.88937 -4.69016,-5.97402 -2.83583,-3.6626 -7.58031,-8.24291 -13.4858,-12.7571 -6.52205,-4.55787 -14.022,-9.12638 -21.9732,-12.672l-2.38819 -0.0023622c8.64331,3.60472 16.8165,8.51929 23.8535,13.4209 5.79449,4.42913 10.4303,8.89843 13.1988,12.4583 1.86024,2.44843 3.65906,4.76457 5.48622,6.96614l-0.0011811 -1.43976z" /></g><g
       id="_51607832"><path
         id="_85471392"
         class="fil81"
         d="M21.1276 16.0701c-1.22598,-0.737008 -2.08465,46.8472 0.981496,47.8311 3.06614,0.983858 40.1055,-22.3795 41.9457,-24.3461 1.84016,-1.96654 -36.672,-26.0669 -42.9272,-23.485z" /><g
         id="g149"><path
           id="_87233088"
           class="fil114"
           d="M21.4039 16.761c-1.19055,-0.715748 -2.02441,45.4854 0.95315,46.4409 2.97638,0.955512 38.9398,-21.7299 40.7268,-23.6386 1.78583,-1.90984 -35.6067,-25.3098 -41.6799,-22.8024z" /><path
           id="_85022992"
           class="fil115"
           d="M21.678 17.4531c-1.15512,-0.694488 -1.96417,44.1248 0.924803,45.052 2.8878,0.927165 37.7752,-21.0803 39.5079,-22.9323 1.73386,-1.85197 -34.5413,-24.5516 -40.4327,-22.1197z" /><path
           id="_85684856"
           class="fil116"
           d="M21.952 18.1453c-1.11969,-0.673228 -1.90394,42.7654 0.895276,43.663 2.79921,0.897638 36.6106,-20.4295 38.2913,-22.2248 1.67953,-1.79528 -33.4772,-23.7957 -39.1866,-21.4382z" /><path
           id="_51243104"
           class="fil117"
           d="M22.226 18.8374c-1.08425,-0.651969 -1.8437,41.4047 0.866929,42.274 2.71063,0.869291 35.4461,-19.7799 37.0724,-21.5185 1.62638,-1.7374 -32.4118,-23.0374 -37.9394,-20.7555z" /><path
           id="_86563520"
           class="fil118"
           d="M22.5 19.5295c-1.04764,-0.630709 -1.78228,40.0441 0.838583,40.885 2.62087,0.840945 34.2815,-19.1303 35.8547,-20.811 1.57323,-1.68189 -31.3465,-22.2815 -36.6933,-20.074z" /><path
           id="_86541976"
           class="fil119"
           d="M22.774 20.2217c-1.0122,-0.609449 -1.72205,38.6835 0.810236,39.4961 2.53228,0.812598 33.1169,-18.4807 34.6358,-20.1047 1.52008,-1.62402 -30.2811,-21.5232 -35.4461,-19.3913z" /><path
           id="_51873648"
           class="fil120"
           d="M23.048 20.9138c-0.976772,-0.588189 -1.66181,37.324 0.780709,38.1071 2.4437,0.783071 31.9524,-17.8299 33.4193,-19.3972 1.46575,-1.56732 -29.2169,-20.7673 -34.2,-18.7098z" /><path
           id="_85596392"
           class="fil121"
           d="M23.322 21.6059c-0.941339,-0.566929 -1.60157,35.9634 0.752362,36.7181 2.35512,0.754724 30.7878,-17.1803 32.2004,-18.6909 1.41378,-1.50945 -28.1516,-20.0091 -32.9528,-18.0272z" /></g><path
         id="_86541504"
         class="fil122"
         d="M23.5937 22.2992c-0.905906,-0.545669 -1.54134,34.6039 0.724016,35.3303 2.26535,0.726378 29.6244,-16.5307 30.9839,-17.9835 1.35945,-1.45276 -27.0886,-19.2543 -31.7079,-17.3469z" /></g><polygon
       class="fil123"
       points="55.3972,39.0661 39.7654,48.0909 24.1323,57.1169 24.1323,39.0661 24.1323,21.0142 39.7654,30.0402 "
       id="polygon160" /><path
       class="fil124"
       d="M2.4378 20.0669l-0.00826772 -8.2122c0,-0.210236 0.0224409,-0.415748 0.0661417,-0.614173l1.57677 0 -0.0425197 0.0980315 -0.00590551 0.00590551c-0.0602362,0.152362 -0.0944882,0.324803 -0.0944882,0.510236l-0.00590551 0 0.00826772 8.2122 -1.49409 0zm67.1031 -8.82638c0.0566929,0.242126 0.0838583,0.494882 0.080315,0.753543 -0.0389764,2.63386 0.17126,5.74016 0.162992,8.30669l-0.17126 45.848c-0.00590551,1.90276 -1.53425,3.47953 -3.40394,3.47953 -22.4185,0 -22.0819,0 -60.3177,0 -1.86969,0 -3.40276,-1.56614 -3.40394,-3.47953l-0.057874 -45.848c0,-0.0779528 0.0023622,-0.155906 0.00826772,-0.233858l1.49409 0.0531496 -0.00826772 0.231496 0.057874 45.7972 0.00590551 0c0,0.550394 0.218504,1.05118 0.56811,1.40787l0.00590551 0.00590551c0.340157,0.348425 0.81378,0.565748 1.32992,0.565748l60.3177 0c0.514961,0 0.985039,-0.217323 1.3252,-0.565748l0.00590551 -0.00590551c0.354331,-0.362598 0.577559,-0.864567 0.57874,-1.40787l0.17126 -45.848c0.0023622,-1.14094 -0.0401575,-2.35039 -0.0826772,-3.56693 -0.0507874,-1.40906 -0.101575,-3.28701 -0.080315,-4.73976l-0.00590551 0 0 -0.0472441c0,-0.249213 -0.0566929,-0.487795 -0.157087,-0.706299l1.57677 0z"
       id="path162" /><path
       class="fil125"
       d="M1.9748 12.3094c0,-0.762992 0.301181,-1.46339 0.799606,-2.00787 0.638976,-0.775984 1.6063,-1.27323 2.68346,-1.27323l60.6035 0c1.9122,0 3.58937,1.52008 3.55984,3.42047"
       id="path164" /><path
       class="fil126"
       d="M4.90039 9.12992c0.307087,-0.0767717 0.627165,-0.11811 0.954331,-0.11811l60.1488 0 0.0555118 0 0.00590551 0.0023622c0.10748,0.0011811 0.212598,0.00590551 0.314173,0.0141732l0 1.0122c-0.108661,-0.0177165 -0.216142,-0.0283465 -0.320079,-0.0295276l0 0.0023622 -0.0555118 0 -60.1488 0c-0.266929,0 -0.531496,0.0354331 -0.788976,0.101575 -0.142913,-0.329528 -0.179528,-0.673228 -0.165354,-0.985039z"
       id="path166" /><path
       class="fil127"
       d="M66.3791 9.02835c2.03858,0.168898 3.0685,1.71969 3.36969,3.85512l0.0023622 0 0 0.0496063 -0.405118 0 0 -0.0496063 0.0023622 0c-0.134646,-1.37835 -1.68307,-2.6374 -2.96929,-2.84291l0 -1.0122z"
       id="path168" /><path
       class="fil127"
       d="M2.18268 12.822c0.170079,-1.02165 0.829134,-2.48504 1.97717,-3.42756l0.0023622 0c0.235039,-0.111024 0.48189,-0.200787 0.738189,-0.264567 -0.0141732,0.311811 0.0224409,0.655512 0.165354,0.985039 -1.26496,0.327165 -2.31024,1.40551 -2.19331,2.67874l-0.689764 0.0283465z"
       id="path170" /><path
       class="fil128"
       d="M69.9744 13.6429c0.0968504,17.498 -0.00354331,35.0043 -0.00354331,52.5059 0,1.08543 -0.43937,2.07992 -1.14567,2.80276 -0.70748,0.724016 -1.68661,1.17756 -2.75787,1.17756l-60.176 0c-1.07362,0 -2.05157,-0.451181 -2.75906,-1.17402l-0.0023622 -0.0023622c-0.703937,-0.719291 -1.14331,-1.71378 -1.14331,-2.80394l-0.057874 -42.2173 -0.0011811 0 0 -0.500787 0 -12.6413c0,-0.434646 0.0874016,-0.858661 0.243307,-1.24961 0.157087,-0.39685 0.390945,-0.765354 0.680315,-1.08425 0.369685,-0.447638 0.838583,-0.81378 1.36535,-1.06535l0.0023622 0c0.516142,-0.244488 1.09252,-0.382677 1.69252,-0.382677l60.0071 0 0.0389764 0 0.00354331 0.0023622c1.07126,0.011811 2.08346,0.457087 2.82165,1.1622 0.746457,0.713386 1.2248,1.69843 1.2248,2.77559l0 0.0354331 -0.0023622 0.00354331 -0.0307087 2.6563zm-0.99685 -0.0011811l0 -0.00590551 0.0307087 -2.65276 -0.0023622 0 0 -0.0354331c0,-0.79252 -0.355512,-1.52362 -0.91063,-2.05276 -0.563386,-0.537402 -1.3311,-0.87874 -2.1378,-0.888189l0 0.0023622 -0.0389764 0 -60.0071 0c-0.452362,0 -0.883465,0.101575 -1.26496,0.282283l0 0.0011811c-0.400394,0.190157 -0.755906,0.468898 -1.03228,0.805512l-0.0177165 0.0200787c-0.212598,0.232677 -0.385039,0.500787 -0.499606,0.790157 -0.10748,0.270472 -0.167717,0.56811 -0.167717,0.881102l0 12.1406 0.0011811 0 0 0.500787 0.057874 42.7181c0,0.822047 0.329528,1.56969 0.85748,2.10945 0.525591,0.535039 1.24961,0.869291 2.04567,0.869291l60.176 0c0.794882,0 1.5189,-0.335433 2.04213,-0.870472l0.0023622 -0.0023622c0.527953,-0.539764 0.85748,-1.2874 0.85748,-2.10591 0,-17.5028 0.120472,-35.0079 0.00826772,-52.5071zm-66.1335 -5.17677l0.00708661 -0.00944882"
       id="path172" /></g></svg>