<?xml version="1.0" encoding="UTF-8" standalone="no"?>
<!-- Creator: CorelDRAW -->

<svg
   xmlns:dc="http://purl.org/dc/elements/1.1/"
   xmlns:cc="http://creativecommons.org/ns#"
   xmlns:rdf="http://www.w3.org/1999/02/22-rdf-syntax-ns#"
   xmlns:svg="http://www.w3.org/2000/svg"
   xmlns="http://www.w3.org/2000/svg"
   xmlns:xlink="http://www.w3.org/1999/xlink"
   xmlns:sodipodi="http://sodipodi.sourceforge.net/DTD/sodipodi-0.dtd"
   xmlns:inkscape="http://www.inkscape.org/namespaces/inkscape"
   xml:space="preserve"
   width="22px"
   height="22px"
   style="shape-rendering:geometricPrecision; text-rendering:geometricPrecision; image-rendering:optimizeQuality; fill-rule:evenodd; clip-rule:evenodd"
   viewBox="0 0 22 22"
   id="svg2"
   version="1.1"
   inkscape:version="0.91 r13725"
   sodipodi:docname="document-open-remote2.svg"><metadata
     id="metadata86"><rdf:RDF><cc:Work
         rdf:about=""><dc:format>image/svg+xml</dc:format><dc:type
           rdf:resource="http://purl.org/dc/dcmitype/StillImage" /><dc:title /></cc:Work></rdf:RDF></metadata><sodipodi:namedview
     pagecolor="#ffffff"
     bordercolor="#666666"
     borderopacity="1"
     objecttolerance="10"
     gridtolerance="10"
     guidetolerance="10"
     inkscape:pageopacity="0"
     inkscape:pageshadow="2"
     inkscape:window-width="1920"
     inkscape:window-height="999"
     id="namedview84"
     showgrid="false"
     inkscape:zoom="16"
     inkscape:cx="-0.77397235"
     inkscape:cy="12.445328"
     inkscape:window-x="-2"
     inkscape:window-y="-2"
     inkscape:window-maximized="1"
     inkscape:current-layer="svg2" /><defs
     id="defs4"><style
       type="text/css"
       id="style6"><![CDATA[
    .fil21 {fill:#6897BD;fill-rule:nonzero}
    .fil1 {fill:white;fill-rule:nonzero}
    .fil4 {fill:#949191;fill-opacity:0.000000}
    .fil5 {fill:#949191;fill-opacity:0.007843}
    .fil6 {fill:#949191;fill-opacity:0.019608}
    .fil7 {fill:#949191;fill-opacity:0.027451}
    .fil8 {fill:#949191;fill-opacity:0.035294}
    .fil9 {fill:#949191;fill-opacity:0.047059}
    .fil10 {fill:#949191;fill-opacity:0.054902}
    .fil11 {fill:#949191;fill-opacity:0.062745}
    .fil12 {fill:#949191;fill-opacity:0.074510}
    .fil13 {fill:#949191;fill-opacity:0.082353}
    .fil14 {fill:#949191;fill-opacity:0.094118}
    .fil15 {fill:#949191;fill-opacity:0.101961}
    .fil16 {fill:#949191;fill-opacity:0.109804}
    .fil17 {fill:#949191;fill-opacity:0.121569}
    .fil3 {fill:#0F172E;fill-opacity:0.219608}
    .fil19 {fill:#B0E2FC;fill-rule:nonzero;fill-opacity:0.780392}
    .fil18 {fill:url(#id0)}
    .fil0 {fill:url(#id1)}
    .fil20 {fill:url(#id2);fill-rule:nonzero}
    .fil2 {fill:url(#id3);fill-rule:nonzero}
   ]]></style><linearGradient
       id="id0"
       gradientUnits="userSpaceOnUse"
       x1="10.6632"
       y1="8.80312"
       x2="10.907"
       y2="20.6087"><stop
         offset="0"
         style="stop-color:#5589C4"
         id="stop9" /><stop
         offset="0.188235"
         style="stop-color:#649FCF"
         id="stop11" /><stop
         offset="0.909804"
         style="stop-color:#9FCFF5"
         id="stop13" /><stop
         offset="1"
         style="stop-color:#8BBEE8"
         id="stop15" /></linearGradient><linearGradient
       id="id1"
       gradientUnits="userSpaceOnUse"
       x1="10.7948"
       y1="1.74021"
       x2="10.9915"
       y2="10.9121"><stop
         offset="0"
         style="stop-color:#F0F0F0"
         id="stop18" /><stop
         offset="1"
         style="stop-color:#D6D6D6"
         id="stop20" /></linearGradient><linearGradient
       id="id2"
       gradientUnits="userSpaceOnUse"
       x1="11.0618"
       y1="19.6135"
       x2="10.8747"
       y2="9.56792"><stop
         offset="0"
         style="stop-color:#567FA3"
         id="stop23" /><stop
         offset="1"
         style="stop-color:#6494BA"
         id="stop25" /></linearGradient><linearGradient
       id="id3"
       gradientUnits="userSpaceOnUse"
       x1="10.8931"
       y1="8.06525"
       x2="10.8931"
       y2="4.72032"><stop
         offset="0"
         style="stop-color:#949494"
         id="stop28" /><stop
         offset="1"
         style="stop-color:#ABABAB"
         id="stop30" /></linearGradient><linearGradient
       x1="22.173235"
       y1="20.489962"
       x2="46.895916"
       y2="20.489962"
       id="linearGradient2503"
       xlink:href="#linearGradient2442"
       gradientUnits="userSpaceOnUse"
       gradientTransform="matrix(0,0.319447,-0.313352,0,48.0738,11.038643)" /><linearGradient
       id="linearGradient2442"><stop
         id="stop2444"
         style="stop-color:#d7e866;stop-opacity:1"
         offset="0" /><stop
         id="stop2446"
         style="stop-color:#8cab2b;stop-opacity:1"
         offset="1" /></linearGradient><linearGradient
       x1="15.53005"
       y1="16.50103"
       x2="15.53005"
       y2="24.047995"
       id="linearGradient2505"
       xlink:href="#linearGradient5432"
       gradientUnits="userSpaceOnUse"
       gradientTransform="translate(24.587519,2.1245131)" /><linearGradient
       id="linearGradient5432"><stop
         id="stop5434"
         style="stop-color:#548721;stop-opacity:1"
         offset="0" /><stop
         id="stop5436"
         style="stop-color:#548720;stop-opacity:1"
         offset="1" /></linearGradient><linearGradient
       x1="30.925467"
       y1="28.26301"
       x2="3.8764322"
       y2="28.26301"
       id="linearGradient2507"
       xlink:href="#linearGradient4222"
       gradientUnits="userSpaceOnUse"
       gradientTransform="matrix(0,-0.3704967,-0.3617496,0,50.095834,27.456567)" /><linearGradient
       id="linearGradient4222"><stop
         id="stop4224"
         style="stop-color:#ededed;stop-opacity:1"
         offset="0" /><stop
         id="stop4226"
         style="stop-color:#ededed;stop-opacity:1"
         offset="1" /></linearGradient><radialGradient
       cx="1120.375"
       cy="394.78125"
       r="20.625"
       fx="1120.375"
       fy="394.78125"
       id="radialGradient2462"
       xlink:href="#linearGradient10997"
       gradientUnits="userSpaceOnUse"
       gradientTransform="matrix(0.4,0,0,0.08888892,-437.15003,-14.925)" /><linearGradient
       id="linearGradient10997"><stop
         id="stop10999"
         style="stop-color:#000000;stop-opacity:1"
         offset="0" /><stop
         id="stop11001"
         style="stop-color:#000000;stop-opacity:0"
         offset="1" /></linearGradient><linearGradient
       x1="0.61210024"
       y1="372.57819"
       x2="5.0856376"
       y2="372.57819"
       id="linearGradient2466"
       xlink:href="#linearGradient272-6"
       gradientUnits="userSpaceOnUse"
       gradientTransform="matrix(9.3885424,0,0,0.2235366,29.130395,-51.784906)" /><linearGradient
       id="linearGradient272-6"><stop
         id="stop273-1"
         style="stop-color:#474747;stop-opacity:0"
         offset="0" /><stop
         id="stop275-8"
         style="stop-color:#474747;stop-opacity:1"
         offset="0.1" /><stop
         id="stop276-3"
         style="stop-color:#474747;stop-opacity:1"
         offset="0.89999998" /><stop
         id="stop274-5"
         style="stop-color:#474747;stop-opacity:0"
         offset="1" /></linearGradient><linearGradient
       x1="0.61210024"
       y1="372.57819"
       x2="5.0856376"
       y2="372.57819"
       id="linearGradient2468"
       xlink:href="#linearGradient272-6"
       gradientUnits="userSpaceOnUse"
       gradientTransform="matrix(9.3885418,0,0,0.2235361,29.130383,-45.865211)" /><linearGradient
       x1="1.6422368"
       y1="117.8271"
       x2="15.343062"
       y2="117.8271"
       id="linearGradient2470"
       xlink:href="#linearGradient178-9"
       gradientUnits="userSpaceOnUse"
       gradientTransform="matrix(3.1119049,0,0,0.09123576,28.948795,19.750004)" /><linearGradient
       id="linearGradient178-9"><stop
         id="stop179-9"
         style="stop-color:#ffffff;stop-opacity:0"
         offset="0" /><stop
         id="stop180-2"
         style="stop-color:#d9d9d9;stop-opacity:1"
         offset="0.10827128" /><stop
         id="stop181-7"
         style="stop-color:#d9d9d9;stop-opacity:1"
         offset="0.92053902" /><stop
         id="stop182-0"
         style="stop-color:#ffffff;stop-opacity:0"
         offset="1" /></linearGradient><linearGradient
       x1="23.100046"
       y1="38.296745"
       x2="23.143667"
       y2="46.03775"
       id="linearGradient2454"
       xlink:href="#linearGradient9347"
       gradientUnits="userSpaceOnUse"
       gradientTransform="matrix(0.2812579,0,0,0.4646625,4.4108128,-1.0853947)" /><linearGradient
       id="linearGradient9347"><stop
         id="stop9349"
         style="stop-color:#7a7a7a;stop-opacity:1"
         offset="0" /><stop
         id="stop9351"
         style="stop-color:#ebebeb;stop-opacity:1"
         offset="0.1980198" /><stop
         id="stop9353"
         style="stop-color:#b9b9b9;stop-opacity:1"
         offset="0.59900987" /><stop
         id="stop9355"
         style="stop-color:#878787;stop-opacity:1"
         offset="1" /></linearGradient><linearGradient
       inkscape:collect="always"
       xlink:href="#linearGradient4237"
       id="linearGradient2441"
       gradientUnits="userSpaceOnUse"
       gradientTransform="matrix(-0.319447,0,0,-0.313352,22.08587,22.811235)"
       x1="9.8556871"
       y1="11.76341"
       x2="47.224953"
       y2="12.162322" /><linearGradient
       id="linearGradient4237"><stop
         offset="0"
         style="stop-color:#d8e867;stop-opacity:1"
         id="stop4239" /><stop
         offset="1"
         style="stop-color:#8cab2b;stop-opacity:1"
         id="stop4243" /></linearGradient><linearGradient
       inkscape:collect="always"
       xlink:href="#linearGradient5432"
       id="linearGradient2444"
       gradientUnits="userSpaceOnUse"
       x1="15"
       y1="19"
       x2="9"
       y2="19"
       gradientTransform="translate(-2,-1.999853)" /><linearGradient
       inkscape:collect="always"
       xlink:href="#linearGradient4222"
       id="linearGradient2437"
       gradientUnits="userSpaceOnUse"
       gradientTransform="matrix(0.3704967,0,0,-0.3617496,5.667946,24.833269)"
       x1="22.488874"
       y1="27.182123"
       x2="3.5953195"
       y2="27.182123" /></defs><path
     inkscape:connector-curvature="0"
     style="fill:url(#id1)"
     id="path34"
     d="m 2.4744,2.33692 0.923824,0 C 3.668086,2.20454 3.832781,1.907465 4.068911,1.396371 4.256567,0.98931 4.428633,0.327411 4.876797,0.327411 c 2.01093,0 2.7315,0 4.74271,0 0.448164,0 0.593016,0.661899 0.781806,1.06896 0.290839,0.630718 0.662183,0.859477 1.08087,0.940549 l 7.82969,0 c 0.544543,0 0.989872,0.446747 0.989872,0.989872 l 0,8.00827 c 0,0.542275 -0.447597,0.989872 -0.989872,0.989872 l -16.8375,0 c -0.542275,0 -0.989872,-0.445329 -0.989872,-0.989872 l 0,-8.00827 c 0,-0.57289 0.429171,-0.989872 0.989872,-0.989872 z"
     class="fil0" /><path
     style="fill:#ffffff;fill-rule:nonzero"
     inkscape:connector-curvature="0"
     id="path36"
     d="M 3.08924,2.651 C 3.13828,2.592322 3.189871,2.521171 3.246282,2.398996 3.271511,2.344003 3.304393,2.263781 3.337842,2.181576 l 0.00198,0 c 0.216287,-0.529519 0.466306,-1.14266 1.16761,-1.14266 l 4.74271,0 c 0.696766,0 0.927793,0.587914 1.13387,1.11488 0.03232,0.082489 0.06406,0.163278 0.101198,0.243216 l 0,0.00198 c 0.110553,0.240381 0.228476,0.264193 0.351501,0.363123 0.09723,0.078237 0.206932,0.12501 0.324855,0.15279 l 7.78093,0 c 0.409896,0 0.78294,0.167813 1.05252,0.437392 0.269579,0.269579 0.437392,0.642623 0.437392,1.05252 l 0,8.00827 c 0,0.408762 -0.167813,0.780389 -0.437392,1.05053 l -0.002,0.002 c -0.270146,0.269579 -0.641773,0.437392 -1.05053,0.437392 l -15.8532993,0 0,-1.00008 15.8532993,0 c 0.134364,0 0.256823,-0.05471 0.345548,-0.142301 l 0.002,-0.002 c 0.08759,-0.08873 0.142301,-0.211184 0.142301,-0.345548 l 0,-8.00827 c 0,-0.134081 -0.05556,-0.256823 -0.144286,-0.345548 -0.08873,-0.088726 -0.211468,-0.144286 -0.345548,-0.144286 l -7.82969,0 -0.09383,-0.00964 C 10.736086,3.8506329 10.465374,3.7431983 10.211953,3.5393843 9.9727046,3.3469093 9.7589696,3.0739293 9.5795336,2.6850103 l -8.504e-4,2.835e-4 c -0.039402,-0.084757 -0.081639,-0.192192 -0.124443,-0.301611 -0.088159,-0.225924 -0.187373,-0.344698 -0.204097,-0.344698 l -4.74271,0 c -0.034016,0 -0.147404,0.144002 -0.245484,0.383817 l 0.0017,5.67e-4 c -0.034583,0.085324 -0.068883,0.168947 -0.110836,0.259941 -0.128695,0.278366 -0.240098,0.502023 -0.361706,0.682592 -0.152506,0.225641 -0.32117,0.387785 -0.543409,0.496354 l -0.158459,0.038268 0,-1.24953 z"
     class="fil1" /><path
     inkscape:connector-curvature="0"
     style="fill:url(#id3);fill-rule:nonzero"
     id="path38"
     d="M 3.24798,1.97039 C 3.274626,1.942893 3.302406,1.907176 3.33217,1.862955 3.418911,1.73426 3.508487,1.552557 3.615639,1.320963 3.640868,1.26597 3.67375,1.185748 3.707199,1.103543 l 0.00198,0 c 0.216287,-0.529519 0.466306,-1.14266 1.16761,-1.14266 l 4.74271,0 c 0.696766,0 0.927793,0.725963 1.13387,1.25293 0.03231,0.082489 0.06406,0.163278 0.101198,0.243216 l -0.01531,0.017292 c 0.110553,0.240381 0.228476,0.397706 0.351501,0.496637 0.09723,0.078237 0.206932,-0.0085 0.324855,0.019276 l 7.79624,-0.015307 c 0.409896,0 0.78294,0.167813 1.05252,0.437392 0.269579,0.269579 0.437392,0.642623 0.437392,1.05252 l 0,7.87022 c 0,0.408762 -0.167813,0.780389 -0.437392,1.05053 l -0.002,0.002 c -0.270146,0.269579 -0.641773,0.437392 -1.05053,0.437392 l -16.8374996,0 c -0.409896,0 -0.78294,-0.167813 -1.05252,-0.437392 -0.269579,-0.269579 -0.437392,-0.642623 -0.437392,-1.05252 l 0,-8.0082697 c 0,-0.816957 0.4184,-1.16137 0.936864,-1.2861 0.402809,-0.096946 0.850406,-0.050741 1.32663,-0.0703 z m 0.150238,0.866564 -0.923824,0 c -0.289421,0 -0.489834,0.199845 -0.489834,0.489834 l 0,8.00827 c 0,0.134081 0.05556,0.256823 0.144286,0.345548 0.088726,0.08873 0.211468,0.144286 0.345548,0.144286 l 16.8375,0 c 0.134364,0 0.256823,-0.05471 0.345548,-0.142301 l 0.002,-0.002 c 0.08759,-0.08873 0.142301,-0.211184 0.142301,-0.345548 l 0,-7.8702203 c 0,-0.134081 -0.05556,-0.256823 -0.144286,-0.345548 -0.08873,-0.088726 -0.211468,-0.144286 -0.345548,-0.144286 l -7.84499,0.015307 -0.09383,-0.00964 C 11.090173,2.9259647 10.834768,2.6651731 10.581347,2.4613591 10.342099,2.2688841 10.128364,2.1294171 9.9489282,1.7404981 l -8.504e-4,2.835e-4 C 9.9086757,1.6560245 9.8664388,1.5485896 9.8236348,1.4391706 9.7354761,1.2132466 9.6362618,0.96095856 9.6195378,0.96095856 l -4.74271,0 c -0.034016,0 -0.147404,0.27751604 -0.245484,0.51733004 l 0.0017,5.669e-4 c -0.034583,0.085324 -0.068883,0.168947 -0.110836,0.259941 -0.128695,0.278366 -0.240098,0.502023 -0.361706,0.682592 -0.152506,0.225641 -0.32117,0.254271 -0.543409,0.36284 l -0.218838,0.052725 z"
     class="fil2" /><polygon
     style="fill:#0f172e;fill-opacity:0.21960802"
     id="polygon40"
     points="21.7412,21.9858 -0.0274965,21.9858 -0.0274965,20.986 21.7412,20.986 "
     class="fil3" /><g
     id="_112602416"
     transform="matrix(1,0,0,1.7644416,0,-5.2295067)"><polygon
       style="fill:#949191;fill-opacity:0"
       points="1.43577,9.4018 1.43577,6.84095 20.1728,6.84095 20.1728,9.38309 "
       class="fil4"
       id="_112584584" /><g
       id="g44"><path
         style="fill:#949191;fill-opacity:0.00784302"
         inkscape:connector-curvature="0"
         d="m 1.43605,7.01216 c 6.24566,0 12.491,0 18.7367,0 l 0,2.37093 -18.7367,0.018709 0,-2.38964 z"
         class="fil5"
         id="_112576640" /><path
         style="fill:#949191;fill-opacity:0.01960802"
         inkscape:connector-curvature="0"
         d="m 1.43605,7.18338 c 6.24566,0 12.491,0 18.7367,0 l 0,2.19972 -18.7367,0.018709 0,-2.21843 z"
         class="fil6"
         id="_112586744" /><path
         style="fill:#949191;fill-opacity:0.02745098"
         inkscape:connector-curvature="0"
         d="m 1.43605,7.35459 c 6.24566,0 12.491,0 18.7367,0 l 0,2.0285 -18.7367,0.018709 0,-2.04721 z"
         class="fil7"
         id="_112599968" /><path
         style="fill:#949191;fill-opacity:0.035294"
         inkscape:connector-curvature="0"
         d="m 1.43605,7.52609 c 6.24566,0 12.491,0 18.7367,0 l 0,1.857 -18.7367,0.018709 0,-1.87571 z"
         class="fil8"
         id="_112577744" /><path
         style="fill:#949191;fill-opacity:0.047059"
         inkscape:connector-curvature="0"
         d="m 1.43605,7.69702 c 6.24566,0 12.491,0 18.7367,0 l 0,1.68607 -18.7367,0.018709 0,-1.70478 z"
         class="fil9"
         id="_112577696" /><path
         style="fill:#949191;fill-opacity:0.05490202"
         inkscape:connector-curvature="0"
         d="m 1.43605,7.86852 c 6.24566,0 12.491,0 18.7367,0 l 0,1.51457 -18.7367,0.018709 0,-1.53328 z"
         class="fil10"
         id="_112584200" /><path
         style="fill:#949191;fill-opacity:0.06274498"
         inkscape:connector-curvature="0"
         d="m 1.43605,8.03974 c 6.24566,0 12.491,0 18.7367,0 l 0,1.34336 -18.7367,0.018709 0,-1.36207 z"
         class="fil11"
         id="_112597736" /><path
         style="fill:#949191;fill-opacity:0.07450998"
         inkscape:connector-curvature="0"
         d="m 1.43605,8.21095 c 6.24566,0 12.491,0 18.7367,0 l 0,1.17214 -18.7367,0.018709 0,-1.19085 z"
         class="fil12"
         id="_112592888" /><path
         style="fill:#949191;fill-opacity:0.082353"
         inkscape:connector-curvature="0"
         d="m 1.43605,8.38217 c 6.24566,0 12.491,0 18.7367,0 l 0,1.00093 -18.7367,0.018709 0,-1.01964 z"
         class="fil13"
         id="_112592384" /><path
         style="fill:#949191;fill-opacity:0.09411801"
         inkscape:connector-curvature="0"
         d="m 1.43605,8.55338 c 6.24566,0 12.491,0 18.7367,0 l 0,0.829713 -18.7367,0.018709 0,-0.848422 z"
         class="fil14"
         id="_112597832" /><path
         style="fill:#949191;fill-opacity:0.10196102"
         inkscape:connector-curvature="0"
         d="m 1.43605,8.72488 c 6.24566,0 12.491,0 18.7367,0 l 0,0.658214 -18.7367,0.018709 0,-0.676923 z"
         class="fil15"
         id="_112581656" /><path
         style="fill:#949191;fill-opacity:0.10980398"
         inkscape:connector-curvature="0"
         d="m 1.43605,8.89581 c 6.24566,0 12.491,0 18.7367,0 l 0,0.487283 -18.7367,0.018709 0,-0.505991 z"
         class="fil16"
         id="_112594808" /></g><polygon
       style="fill:#949191;fill-opacity:0.12156899"
       points="1.43577,9.4018 1.43577,9.06731 20.1728,9.06731 20.1728,9.38309 "
       class="fil17"
       id="_112576808" /></g><g
     id="g4219"
     transform="matrix(0,-1,1,0,-4.3249533,21.999827)"><path
       d="m 7.499,18.500147 7.001,0 0,3.000853 7.000853,-6.191561 L 14.5,9.148907 l 0,3.35124 -7.001,0"
       id="path3288"
       style="display:inline;overflow:visible;visibility:visible;fill:url(#linearGradient2441);fill-opacity:1;fill-rule:nonzero;stroke:url(#linearGradient2444);stroke-width:0.99800003;stroke-linecap:butt;stroke-linejoin:round;stroke-miterlimit:4;stroke-dasharray:none;stroke-dashoffset:0;stroke-opacity:1;marker:none;marker-start:none;marker-mid:none;marker-end:none"
       inkscape:connector-curvature="0" /><path
       d="m 7.5,17.500147 8,0 0,1.75121 4.545115,-3.926403 L 15.5,11.288016 l 0,2.212131 -8,0"
       id="path3290"
       style="display:inline;overflow:visible;visibility:visible;opacity:0.35400008;fill:none;fill-opacity:1;fill-rule:nonzero;stroke:url(#linearGradient2437);stroke-width:0.99829447;stroke-linecap:butt;stroke-linejoin:miter;stroke-miterlimit:4;stroke-dasharray:none;stroke-dashoffset:0;stroke-opacity:1;marker:none;marker-start:none;marker-mid:none;marker-end:none"
       inkscape:connector-curvature="0" /></g><g
     id="g4263"
     transform="matrix(1,0,0,0.86782141,0,2.7862725)"><path
       class="fil18"
       d="m 0.815823,8.75181 c -0.368226,0.079088 -0.966345,0.374746 -0.861178,1.14833 0.502873,3.69048 0.994124,5.68695 1.04883,9.46842 0,0 -0.099214,1.31218 1.63788,1.22515 l 16.4338,0 c 1.73681,0.08787 1.63873,-1.2243 1.63873,-1.2243 0.254838,-3.15274 -0.189924,-5.62147 0.901714,-9.46927 0.105734,-0.773586 -0.527535,-1.09135 -0.896044,-1.16959 l -19.9037,0.02126 z"
       id="path59"
       style="fill:url(#id0)"
       inkscape:connector-curvature="0" /><path
       class="fil19"
       d="M 21.6085,10.445 C 21.76129,9.3253 20.928459,8.85871 19.7943,9.06366 l -2.06138,0 -15.69,0 C 0.90876,8.858712 0.07593,9.325302 0.22872,10.445 c 0,0.333359 -0.0184255,0.285169 -0.0184255,0.618529 0.242082,-0.831697 0.469141,-0.966911 1.88818,-0.999794 l 15.6343995,0 2.00582,0 c 1.41904,0.03288 1.646101,0.168097 1.88818,0.999794 0,-0.333359 -0.01843,-0.285169 -0.01843,-0.618529 z"
       id="path61"
       inkscape:connector-curvature="0"
       style="fill:#b0e2fc;fill-opacity:0.78039198;fill-rule:nonzero" /><path
       class="fil20"
       d="M 1.01085,9.5305 C 1.00376,9.573304 1.00348,9.624045 1.01198,9.68414 l 0.189357,1.29829 2.834e-4,0 c 0.46177,3.15075 0.628733,4.87935 0.680325,8.26254 l 0,0.05159 c 0,0.0014 -0.036001,0.760263 1.12282,0.705553 l 0.028063,-0.0023 16.0109006,0 0.02806,0.0023 c 1.15882,0.05528 1.10836,-0.703286 1.10836,-0.704703 l 0,-0.09383 c 0.301327,-3.52975 -0.3138,-6.08125 0.718593,-9.5571398 0.0085,-0.109135 -0.01814,-0.186522 -0.06123,-0.239814 -0.05641,-0.069733 -0.138049,-0.121892 -0.221956,-0.158742 l -0.122175,-1.24046 0.04082,0.0034 c 0.326556,0.065198 0.796547,0.255405 1.10921,0.641206 0.241799,0.298492 0.388069,0.692797 0.314934,1.20106 l -0.01871,0.086741 c -1.00433,3.3460598 -0.575725,5.8921798 -0.867414,9.3391598 -2.84e-4,0.350934 -0.127277,1.88903 -2.33351,1.79662 l 0,0.0014 -15.5687008,0 0,-0.0014 c -2.22919996,0.09865 -2.32642996,-1.70053 -2.33124996,-1.857 -0.0530086,-3.25677 -0.214869,-4.95191 -0.670687,-8.0627 l 0,-0.0023 -0.189641,-1.3005495 c -0.0731349,-0.506842 0.0651978,-0.896895 0.297926,-1.19057 0.238397,-0.300477 0.572607,-0.476227 0.86457896,-0.570055 l -0.15250596,1.43804 0.022394,0 z"
       id="path63"
       style="fill:url(#id2);fill-rule:nonzero"
       inkscape:connector-curvature="0" /><path
       class="fil21"
       d="M 1.52138,9.01884 C 1.402323,9.0494546 1.293471,9.170212 1.2141,9.270277 1.190005,9.300608 1.171863,9.340861 1.163359,9.392735 l -0.022394,0 0,-1.28525 C 1.218919,8.08254 1.293755,8.063547 1.362921,8.049374 l 0.119624,-0.011622 18.9346,-0.02126 0.07625,0.00595 0,1.08767 c -0.0513,-0.022675 -0.103463,-0.0394 -0.151369,-0.051305 L 1.5214262,9.0188375 Z"
       id="path65"
       inkscape:connector-curvature="0"
       style="fill:#6897bd;fill-rule:nonzero" /><g
       id="_310708944"><polygon
         id="_112574936"
         class="fil4"
         points="1.21069,8.50831 1.21069,5.94746 20.1583,5.94746 20.1583,8.4896 "
         style="fill:#949191;fill-opacity:0" /><g
         id="g69"><path
           id="_112571072"
           class="fil5"
           d="m 1.21098,6.11867 c 6.31596,0 12.6314,0 18.9473,0 l 0,2.37093 -18.9473,0.018709 0,-2.38964 z"
           inkscape:connector-curvature="0"
           style="fill:#949191;fill-opacity:0.00784302" /><path
           id="_112587920"
           class="fil6"
           d="m 1.21098,6.28989 c 6.31596,0 12.6314,0 18.9473,0 l 0,2.19972 -18.9473,0.018709 0,-2.21843 z"
           inkscape:connector-curvature="0"
           style="fill:#949191;fill-opacity:0.01960802" /><path
           id="_110323088"
           class="fil7"
           d="m 1.21098,6.4611 c 6.31596,0 12.6314,0 18.9473,0 l 0,2.0285 -18.9473,0.018709 0,-2.04721 z"
           inkscape:connector-curvature="0"
           style="fill:#949191;fill-opacity:0.02745098" /><path
           id="_112595168"
           class="fil8"
           d="m 1.21098,6.6326 c 6.31596,0 12.6314,0 18.9473,0 l 0,1.857 -18.9473,0.018709 0,-1.87571 z"
           inkscape:connector-curvature="0"
           style="fill:#949191;fill-opacity:0.035294" /><path
           id="_112582952"
           class="fil9"
           d="m 1.21098,6.80353 c 6.31596,0 12.6314,0 18.9473,0 l 0,1.68607 -18.9473,0.018709 0,-1.70478 z"
           inkscape:connector-curvature="0"
           style="fill:#949191;fill-opacity:0.047059" /><path
           id="_112580360"
           class="fil10"
           d="m 1.21098,6.97503 c 6.31596,0 12.6314,0 18.9473,0 l 0,1.51457 -18.9473,0.018709 0,-1.53328 z"
           inkscape:connector-curvature="0"
           style="fill:#949191;fill-opacity:0.05490202" /><path
           id="_112571336"
           class="fil11"
           d="m 1.21098,7.14624 c 6.31596,0 12.6314,0 18.9473,0 l 0,1.34336 -18.9473,0.018709 0,-1.36207 z"
           inkscape:connector-curvature="0"
           style="fill:#949191;fill-opacity:0.06274498" /><path
           id="_112601240"
           class="fil12"
           d="m 1.21098,7.31746 c 6.31596,0 12.6314,0 18.9473,0 l 0,1.17214 -18.9473,0.018709 0,-1.19085 z"
           inkscape:connector-curvature="0"
           style="fill:#949191;fill-opacity:0.07450998" /><path
           id="_112588784"
           class="fil13"
           d="m 1.21098,7.48867 c 6.31596,0 12.6314,0 18.9473,0 l 0,1.00093 -18.9473,0.018709 0,-1.01964 z"
           inkscape:connector-curvature="0"
           style="fill:#949191;fill-opacity:0.082353" /><path
           id="_112586120"
           class="fil14"
           d="m 1.21098,7.65989 c 6.31596,0 12.6314,0 18.9473,0 l 0,0.829713 -18.9473,0.018709 0,-0.848422 z"
           inkscape:connector-curvature="0"
           style="fill:#949191;fill-opacity:0.09411801" /><path
           id="_112585664"
           class="fil15"
           d="m 1.21098,7.83139 c 6.31596,0 12.6314,0 18.9473,0 l 0,0.658214 -18.9473,0.018709 0,-0.676923 z"
           inkscape:connector-curvature="0"
           style="fill:#949191;fill-opacity:0.10196102" /><path
           id="_112582688"
           class="fil16"
           d="m 1.21098,8.00232 c 6.31596,0 12.6314,0 18.9473,0 l 0,0.487283 -18.9473,0.018709 0,-0.505991 z"
           inkscape:connector-curvature="0"
           style="fill:#949191;fill-opacity:0.10980398" /></g><polygon
         id="_112591832"
         class="fil17"
         points="1.21069,8.50831 1.21069,8.17382 20.1583,8.17382 20.1583,8.4896 "
         style="fill:#949191;fill-opacity:0.12156899" /></g></g><g
     id="g4199"
     transform="translate(-0.15942843,1.0027078)"><path
       style="display:inline;opacity:0.3;fill:url(#radialGradient2462);fill-opacity:1;fill-rule:evenodd;stroke:none;enable-background:new"
       id="path6774"
       d="M 19.250001,20.166667 C 19.250001,21.179188 15.55635,22 11,22 6.4436509,22 2.7499999,21.179188 2.7499999,20.166667 c 0,-1.012522 3.693651,-1.833334 8.2500001,-1.833334 4.55635,0 8.250001,0.820812 8.250001,1.833334 z"
       inkscape:connector-curvature="0" /><g
       style="display:inline;enable-background:new"
       id="g7753"
       transform="matrix(0.4782609,0,0,1,-15.504622,-12)"><rect
         style="display:block;overflow:visible;visibility:visible;opacity:0.65;fill:url(#linearGradient2466);fill-opacity:1;fill-rule:nonzero;stroke:none;stroke-width:1;marker:none"
         id="rect8601"
         y="31"
         x="34.877113"
         height="1"
         width="41.999989" /><rect
         style="display:block;overflow:visible;visibility:visible;opacity:0.65;fill:url(#linearGradient2468);fill-opacity:1;fill-rule:nonzero;stroke:none;stroke-width:1;marker:none"
         id="rect8603"
         y="29"
         x="34.877102"
         height="1"
         width="41.999989" /><rect
         style="display:block;overflow:visible;visibility:visible;fill:url(#linearGradient2470);fill-opacity:1;fill-rule:nonzero;stroke:none;stroke-width:1;marker:none"
         id="rect8605"
         y="30"
         x="34.627102"
         height="1"
         width="41.5" /><g
         style="fill:#ffffff;fill-opacity:0.72023806"
         id="g8613"
         transform="matrix(0.544365,0,0,0.9411763,42.076688,-8.6470511)" /></g><path
       style="display:block;overflow:visible;visibility:visible;fill:url(#linearGradient2454);fill-opacity:1;fill-rule:nonzero;stroke:#5a5c58;stroke-width:1.00006688;stroke-linecap:butt;stroke-linejoin:miter;stroke-miterlimit:4;stroke-dasharray:none;stroke-dashoffset:0;stroke-opacity:1;marker:none;enable-background:new"
       id="path8607"
       d="m 10.145669,16.500033 -1.2436052,0 c -0.2239871,0 -0.4020304,0.284691 -0.4020304,0.642847 l 0,2.714038 c 0,0.358153 0.1780433,0.643049 0.4020304,0.643049 l 4.1958722,0 c 0.223985,0 0.402031,-0.284896 0.402031,-0.643049 l 0,-2.714038 c 0,-0.358156 -0.178046,-0.642847 -0.402031,-0.642847 l -1.085054,0 -1.867213,0 z"
       inkscape:connector-curvature="0" /><rect
       style="display:block;overflow:visible;visibility:visible;fill:#ffffff;fill-opacity:0.72023806;fill-rule:nonzero;stroke:none;stroke-width:1.13999999;marker:none;enable-background:new"
       id="rect8615"
       y="17.416664"
       x="11"
       ry="0.45833334"
       rx="0.45833331"
       height="0.91666669"
       width="1.8333334" /><path
       style="display:block;overflow:visible;visibility:visible;fill:#ffffff;fill-opacity:0.72023806;fill-rule:nonzero;stroke:none;stroke-width:1.13999999;marker:none;enable-background:new"
       id="path8617"
       d="m 10.083334,17.875 c 0,0.25313 -0.2052037,0.458333 -0.4583338,0.458333 -0.2531302,0 -0.4583334,-0.205203 -0.4583334,-0.458333 0,-0.25313 0.2052032,-0.458334 0.4583334,-0.458334 0.2531301,0 0.4583338,0.205204 0.4583338,0.458334 z"
       inkscape:connector-curvature="0" /></g></svg>