<?xml version="1.0" encoding="UTF-8" standalone="no"?>
<!-- Creator: CorelDRAW -->

<svg
   xmlns:dc="http://purl.org/dc/elements/1.1/"
   xmlns:cc="http://creativecommons.org/ns#"
   xmlns:rdf="http://www.w3.org/1999/02/22-rdf-syntax-ns#"
   xmlns:svg="http://www.w3.org/2000/svg"
   xmlns="http://www.w3.org/2000/svg"
   xmlns:sodipodi="http://sodipodi.sourceforge.net/DTD/sodipodi-0.dtd"
   xmlns:inkscape="http://www.inkscape.org/namespaces/inkscape"
   xml:space="preserve"
   width="22px"
   height="22px"
   style="shape-rendering:geometricPrecision; text-rendering:geometricPrecision; image-rendering:optimizeQuality; fill-rule:evenodd; clip-rule:evenodd"
   viewBox="0 0 22 22"
   id="svg2"
   version="1.1"
   inkscape:version="0.91 r13725"
   sodipodi:docname="document-open-folder.svg"><metadata
     id="metadata86"><rdf:RDF><cc:Work
         rdf:about=""><dc:format>image/svg+xml</dc:format><dc:type
           rdf:resource="http://purl.org/dc/dcmitype/StillImage" /></cc:Work></rdf:RDF></metadata><sodipodi:namedview
     pagecolor="#ffffff"
     bordercolor="#666666"
     borderopacity="1"
     objecttolerance="10"
     gridtolerance="10"
     guidetolerance="10"
     inkscape:pageopacity="0"
     inkscape:pageshadow="2"
     inkscape:window-width="1680"
     inkscape:window-height="995"
     id="namedview84"
     showgrid="false"
     inkscape:zoom="10.727273"
     inkscape:cx="-9.3686441"
     inkscape:cy="11"
     inkscape:window-x="0"
     inkscape:window-y="28"
     inkscape:window-maximized="1"
     inkscape:current-layer="svg2" /><defs
     id="defs4"><style
       type="text/css"
       id="style6"><![CDATA[
    .fil21 {fill:#6897BD;fill-rule:nonzero}
    .fil1 {fill:white;fill-rule:nonzero}
    .fil4 {fill:#949191;fill-opacity:0.000000}
    .fil5 {fill:#949191;fill-opacity:0.007843}
    .fil6 {fill:#949191;fill-opacity:0.019608}
    .fil7 {fill:#949191;fill-opacity:0.027451}
    .fil8 {fill:#949191;fill-opacity:0.035294}
    .fil9 {fill:#949191;fill-opacity:0.047059}
    .fil10 {fill:#949191;fill-opacity:0.054902}
    .fil11 {fill:#949191;fill-opacity:0.062745}
    .fil12 {fill:#949191;fill-opacity:0.074510}
    .fil13 {fill:#949191;fill-opacity:0.082353}
    .fil14 {fill:#949191;fill-opacity:0.094118}
    .fil15 {fill:#949191;fill-opacity:0.101961}
    .fil16 {fill:#949191;fill-opacity:0.109804}
    .fil17 {fill:#949191;fill-opacity:0.121569}
    .fil3 {fill:#0F172E;fill-opacity:0.219608}
    .fil19 {fill:#B0E2FC;fill-rule:nonzero;fill-opacity:0.780392}
    .fil18 {fill:url(#id0)}
    .fil0 {fill:url(#id1)}
    .fil20 {fill:url(#id2);fill-rule:nonzero}
    .fil2 {fill:url(#id3);fill-rule:nonzero}
   ]]></style><linearGradient
       id="id0"
       gradientUnits="userSpaceOnUse"
       x1="10.6632"
       y1="8.80312"
       x2="10.907"
       y2="20.6087"><stop
         offset="0"
         style="stop-color:#5589C4"
         id="stop9" /><stop
         offset="0.188235"
         style="stop-color:#649FCF"
         id="stop11" /><stop
         offset="0.909804"
         style="stop-color:#9FCFF5"
         id="stop13" /><stop
         offset="1"
         style="stop-color:#8BBEE8"
         id="stop15" /></linearGradient><linearGradient
       id="id1"
       gradientUnits="userSpaceOnUse"
       x1="10.7948"
       y1="1.74021"
       x2="10.9915"
       y2="10.9121"><stop
         offset="0"
         style="stop-color:#F0F0F0"
         id="stop18" /><stop
         offset="1"
         style="stop-color:#D6D6D6"
         id="stop20" /></linearGradient><linearGradient
       id="id2"
       gradientUnits="userSpaceOnUse"
       x1="11.0618"
       y1="19.6135"
       x2="10.8747"
       y2="9.56792"><stop
         offset="0"
         style="stop-color:#567FA3"
         id="stop23" /><stop
         offset="1"
         style="stop-color:#6494BA"
         id="stop25" /></linearGradient><linearGradient
       id="id3"
       gradientUnits="userSpaceOnUse"
       x1="10.8931"
       y1="8.06525"
       x2="10.8931"
       y2="4.72032"><stop
         offset="0"
         style="stop-color:#949494"
         id="stop28" /><stop
         offset="1"
         style="stop-color:#ABABAB"
         id="stop30" /></linearGradient></defs><g
     id="Слой_x0020_1"><metadata
       id="CorelCorpID_0Corel-Layer" /><path
       class="fil0"
       d="M2.4744 2.33692l0.923824 0c0.269862,-0.13238 0.434557,-0.429455 0.670687,-0.940549 0.187656,-0.407061 0.359722,-1.06896 0.807886,-1.06896 2.01093,0 2.7315,0 4.74271,0 0.448164,0 0.593016,0.661899 0.781806,1.06896 0.290839,0.630718 0.662183,0.859477 1.08087,0.940549l7.82969 0c0.544543,0 0.989872,0.446747 0.989872,0.989872l0 8.00827c0,0.542275 -0.447597,0.989872 -0.989872,0.989872l-16.8375 0c-0.542275,0 -0.989872,-0.445329 -0.989872,-0.989872l0 -8.00827c0,-0.57289 0.429171,-0.989872 0.989872,-0.989872z"
       id="path34" /><path
       class="fil1"
       d="M3.08924 2.651c0.0490401,-0.058678 0.100631,-0.129829 0.157042,-0.252004 0.0252287,-0.0549929 0.0581111,-0.135215 0.0915604,-0.21742l0.00198428 0c0.216287,-0.529519 0.466306,-1.14266 1.16761,-1.14266l4.74271 0c0.696766,0 0.927793,0.587914 1.13387,1.11488 0.0323154,0.0824894 0.0640639,0.163278 0.101198,0.243216l0 0.00198428c0.110553,0.240381 0.228476,0.264193 0.351501,0.363123 0.0972297,0.0782373 0.206932,0.12501 0.324855,0.15279l7.78093 0c0.409896,0 0.78294,0.167813 1.05252,0.437392 0.269579,0.269579 0.437392,0.642623 0.437392,1.05252l0 8.00827c0,0.408762 -0.167813,0.780389 -0.437392,1.05053l-0.00198428 0.00198428c-0.270146,0.269579 -0.641773,0.437392 -1.05053,0.437392l-15.8533 0 0 -1.00008 15.8533 0c0.134364,0 0.256823,-0.0547094 0.345548,-0.142301l0.00198428 -0.00198428c0.0875918,-0.0887257 0.142301,-0.211184 0.142301,-0.345548l0 -8.00827c0,-0.134081 -0.0555599,-0.256823 -0.144286,-0.345548 -0.0887257,-0.0887257 -0.211468,-0.144286 -0.345548,-0.144286l-7.82969 0 -0.0938281 -0.00963793c-0.282902,-0.0547094 -0.553614,-0.162144 -0.807035,-0.365958 -0.239248,-0.192475 -0.452983,-0.465455 -0.632419,-0.854374l-0.000850406 0.000283469c-0.0394021,-0.0847571 -0.081639,-0.192192 -0.124443,-0.301611 -0.0881587,-0.225924 -0.187373,-0.344698 -0.204097,-0.344698l-4.74271 0c-0.0340162,0 -0.147404,0.144002 -0.245484,0.383817l0.00170081 0.000566937c-0.0345832,0.0853241 -0.0688829,0.168947 -0.110836,0.259941 -0.128695,0.278366 -0.240098,0.502023 -0.361706,0.682592 -0.152506,0.225641 -0.32117,0.387785 -0.543409,0.496354l-0.158459 0.0382683 0 -1.24953z"
       id="path36" /><path
       class="fil2"
       d="M3.24798 1.97039c0.0266461,-0.0274965 0.054426,-0.0632135 0.0841902,-0.107435 0.0867414,-0.128695 0.176317,-0.310398 0.283469,-0.541992 0.0252287,-0.0549929 0.0581111,-0.135215 0.0915604,-0.21742l0.00198428 0c0.216287,-0.529519 0.466306,-1.14266 1.16761,-1.14266l4.74271 0c0.696766,0 0.927793,0.725963 1.13387,1.25293 0.0323154,0.0824894 0.0640639,0.163278 0.101198,0.243216l-0.0153073 0.0172916c0.110553,0.240381 0.228476,0.397706 0.351501,0.496637 0.0972297,0.0782373 0.206932,-0.00850406 0.324855,0.0192759l7.79624 -0.0153073c0.409896,0 0.78294,0.167813 1.05252,0.437392 0.269579,0.269579 0.437392,0.642623 0.437392,1.05252l0 7.87022c0,0.408762 -0.167813,0.780389 -0.437392,1.05053l-0.00198428 0.00198428c-0.270146,0.269579 -0.641773,0.437392 -1.05053,0.437392l-16.8375 0c-0.409896,0 -0.78294,-0.167813 -1.05252,-0.437392 -0.269579,-0.269579 -0.437392,-0.642623 -0.437392,-1.05252l0 -8.00827c0,-0.816957 0.4184,-1.16137 0.936864,-1.2861 0.402809,-0.0969463 0.850406,-0.0507409 1.32663,-0.0703002zm0.150238 0.866564l-0.923824 0c-0.289421,0 -0.489834,0.199845 -0.489834,0.489834l0 8.00827c0,0.134081 0.0555599,0.256823 0.144286,0.345548 0.0887257,0.0887257 0.211468,0.144286 0.345548,0.144286l16.8375 0c0.134364,0 0.256823,-0.0547094 0.345548,-0.142301l0.00198428 -0.00198428c0.0875918,-0.0887257 0.142301,-0.211184 0.142301,-0.345548l0 -7.87022c0,-0.134081 -0.0555599,-0.256823 -0.144286,-0.345548 -0.0887257,-0.0887257 -0.211468,-0.144286 -0.345548,-0.144286l-7.84499 0.0153073 -0.0938281 -0.00963793c-0.282902,-0.0547094 -0.538307,-0.315501 -0.791728,-0.519315 -0.239248,-0.192475 -0.452983,-0.331942 -0.632419,-0.720861l-0.000850406 0.000283469c-0.0394021,-0.0847571 -0.081639,-0.192192 -0.124443,-0.301611 -0.0881587,-0.225924 -0.187373,-0.478212 -0.204097,-0.478212l-4.74271 0c-0.0340162,0 -0.147404,0.277516 -0.245484,0.51733l0.00170081 0.000566937c-0.0345832,0.0853241 -0.0688829,0.168947 -0.110836,0.259941 -0.128695,0.278366 -0.240098,0.502023 -0.361706,0.682592 -0.152506,0.225641 -0.32117,0.254271 -0.543409,0.36284l-0.218838 0.0527252z"
       id="path38" /><polygon
       class="fil3"
       points="-0.0274965,20.986 21.7412,20.986 21.7412,21.9858 -0.0274965,21.9858 "
       id="polygon40" /><g
       id="_112602416"><polygon
         id="_112584584"
         class="fil4"
         points="1.43577,6.84095 20.1728,6.84095 20.1728,9.38309 1.43577,9.4018 " /><g
         id="g44"><path
           id="_112576640"
           class="fil5"
           d="M1.43605 7.01216c6.24566,0 12.491,0 18.7367,0l0 2.37093 -18.7367 0.0187089 0 -2.38964z" /><path
           id="_112586744"
           class="fil6"
           d="M1.43605 7.18338c6.24566,0 12.491,0 18.7367,0l0 2.19972 -18.7367 0.0187089 0 -2.21843z" /><path
           id="_112599968"
           class="fil7"
           d="M1.43605 7.35459c6.24566,0 12.491,0 18.7367,0l0 2.0285 -18.7367 0.0187089 0 -2.04721z" /><path
           id="_112577744"
           class="fil8"
           d="M1.43605 7.52609c6.24566,0 12.491,0 18.7367,0l0 1.857 -18.7367 0.0187089 0 -1.87571z" /><path
           id="_112577696"
           class="fil9"
           d="M1.43605 7.69702c6.24566,0 12.491,0 18.7367,0l0 1.68607 -18.7367 0.0187089 0 -1.70478z" /><path
           id="_112584200"
           class="fil10"
           d="M1.43605 7.86852c6.24566,0 12.491,0 18.7367,0l0 1.51457 -18.7367 0.0187089 0 -1.53328z" /><path
           id="_112597736"
           class="fil11"
           d="M1.43605 8.03974c6.24566,0 12.491,0 18.7367,0l0 1.34336 -18.7367 0.0187089 0 -1.36207z" /><path
           id="_112592888"
           class="fil12"
           d="M1.43605 8.21095c6.24566,0 12.491,0 18.7367,0l0 1.17214 -18.7367 0.0187089 0 -1.19085z" /><path
           id="_112592384"
           class="fil13"
           d="M1.43605 8.38217c6.24566,0 12.491,0 18.7367,0l0 1.00093 -18.7367 0.0187089 0 -1.01964z" /><path
           id="_112597832"
           class="fil14"
           d="M1.43605 8.55338c6.24566,0 12.491,0 18.7367,0l0 0.829713 -18.7367 0.0187089 0 -0.848422z" /><path
           id="_112581656"
           class="fil15"
           d="M1.43605 8.72488c6.24566,0 12.491,0 18.7367,0l0 0.658214 -18.7367 0.0187089 0 -0.676923z" /><path
           id="_112594808"
           class="fil16"
           d="M1.43605 8.89581c6.24566,0 12.491,0 18.7367,0l0 0.487283 -18.7367 0.0187089 0 -0.505991z" /></g><polygon
         id="_112576808"
         class="fil17"
         points="1.43577,9.06731 20.1728,9.06731 20.1728,9.38309 1.43577,9.4018 " /></g><path
       class="fil18"
       d="M0.815823 8.75181c-0.368226,0.0790877 -0.966345,0.374746 -0.861178,1.14833 0.502873,3.69048 0.994124,5.68695 1.04883,9.46842 0,0 -0.099214,1.31218 1.63788,1.22515l16.4338 0c1.73681,0.0878753 1.63873,-1.2243 1.63873,-1.2243 0.254838,-3.15274 -0.189924,-5.62147 0.901714,-9.46927 0.105734,-0.773586 -0.527535,-1.09135 -0.896044,-1.16959l-19.9037 0.0212601z"
       id="path59" /><path
       class="fil19"
       d="M21.6085 10.445c0.15279,-1.1197 -0.680041,-1.58629 -1.8142,-1.38134l-2.06138 0 -15.69 0c-1.13416,-0.204948 -1.96699,0.261642 -1.8142,1.38134 0,0.333359 -0.0184255,0.285169 -0.0184255,0.618529 0.242082,-0.831697 0.469141,-0.966911 1.88818,-0.999794l15.6344 0 2.00582 0c1.41904,0.0328824 1.6461,0.168097 1.88818,0.999794 0,-0.333359 -0.0184255,-0.285169 -0.0184255,-0.618529z"
       id="path61" /><path
       class="fil20"
       d="M1.01085 9.5305c-0.00708672,0.0428038 -0.00737018,0.0935446 0.00113387,0.15364l0.189357 1.29829 0.000283469 0c0.46177,3.15075 0.628733,4.87935 0.680325,8.26254l0 0.0515913c0,0.00141734 -0.0360005,0.760263 1.12282,0.705553l0.0280634 -0.00226775 16.0109 0 0.0280634 0.00226775c1.15882,0.0552764 1.10836,-0.703286 1.10836,-0.704703l0 -0.0938281c0.301327,-3.52975 -0.3138,-6.08125 0.718593,-9.55714 0.00850406,-0.109135 -0.018142,-0.186522 -0.0612292,-0.239814 -0.0564103,-0.0697333 -0.138049,-0.121892 -0.221956,-0.158742l-0.122175 -1.24046 0.0408195 0.00340162c0.326556,0.0651978 0.796547,0.255405 1.10921,0.641206 0.241799,0.298492 0.388069,0.692797 0.314934,1.20106l-0.0187089 0.0867414c-1.00433,3.34606 -0.575725,5.89218 -0.867414,9.33916 -0.000283469,0.350934 -0.127277,1.88903 -2.33351,1.79662l0 0.00141734 -15.5687 0 0 -0.00141734c-2.2292,0.0986471 -2.32643,-1.70053 -2.33125,-1.857 -0.0530086,-3.25677 -0.214869,-4.95191 -0.670687,-8.0627l0 -0.00226775 -0.189641 -1.30055c-0.0731349,-0.506842 0.0651978,-0.896895 0.297926,-1.19057 0.238397,-0.300477 0.572607,-0.476227 0.864579,-0.570055l-0.152506 1.43804 0.022394 0z"
       id="path63" /><path
       class="fil21"
       d="M1.52138 9.01884c-0.119057,0.0306146 -0.227909,0.151372 -0.30728,0.251437 -0.0240948,0.0303311 -0.0422368,0.0705837 -0.0507409,0.122458l-0.022394 0 0 -1.28525c0.0779539,-0.0249452 0.15279,-0.0439376 0.221956,-0.0581111l0.119624 -0.0116222 18.9346 -0.0212601 0.0762531 0.00595284 0 1.08767c-0.0513078,-0.0226775 -0.103466,-0.0394021 -0.151372,-0.0513078l-18.8206 -0.0399691z"
       id="path65" /><g
       id="_310708944"><polygon
         id="_112574936"
         class="fil4"
         points="1.21069,5.94746 20.1583,5.94746 20.1583,8.4896 1.21069,8.50831 " /><g
         id="g69"><path
           id="_112571072"
           class="fil5"
           d="M1.21098 6.11867c6.31596,0 12.6314,0 18.9473,0l0 2.37093 -18.9473 0.0187089 0 -2.38964z" /><path
           id="_112587920"
           class="fil6"
           d="M1.21098 6.28989c6.31596,0 12.6314,0 18.9473,0l0 2.19972 -18.9473 0.0187089 0 -2.21843z" /><path
           id="_110323088"
           class="fil7"
           d="M1.21098 6.4611c6.31596,0 12.6314,0 18.9473,0l0 2.0285 -18.9473 0.0187089 0 -2.04721z" /><path
           id="_112595168"
           class="fil8"
           d="M1.21098 6.6326c6.31596,0 12.6314,0 18.9473,0l0 1.857 -18.9473 0.0187089 0 -1.87571z" /><path
           id="_112582952"
           class="fil9"
           d="M1.21098 6.80353c6.31596,0 12.6314,0 18.9473,0l0 1.68607 -18.9473 0.0187089 0 -1.70478z" /><path
           id="_112580360"
           class="fil10"
           d="M1.21098 6.97503c6.31596,0 12.6314,0 18.9473,0l0 1.51457 -18.9473 0.0187089 0 -1.53328z" /><path
           id="_112571336"
           class="fil11"
           d="M1.21098 7.14624c6.31596,0 12.6314,0 18.9473,0l0 1.34336 -18.9473 0.0187089 0 -1.36207z" /><path
           id="_112601240"
           class="fil12"
           d="M1.21098 7.31746c6.31596,0 12.6314,0 18.9473,0l0 1.17214 -18.9473 0.0187089 0 -1.19085z" /><path
           id="_112588784"
           class="fil13"
           d="M1.21098 7.48867c6.31596,0 12.6314,0 18.9473,0l0 1.00093 -18.9473 0.0187089 0 -1.01964z" /><path
           id="_112586120"
           class="fil14"
           d="M1.21098 7.65989c6.31596,0 12.6314,0 18.9473,0l0 0.829713 -18.9473 0.0187089 0 -0.848422z" /><path
           id="_112585664"
           class="fil15"
           d="M1.21098 7.83139c6.31596,0 12.6314,0 18.9473,0l0 0.658214 -18.9473 0.0187089 0 -0.676923z" /><path
           id="_112582688"
           class="fil16"
           d="M1.21098 8.00232c6.31596,0 12.6314,0 18.9473,0l0 0.487283 -18.9473 0.0187089 0 -0.505991z" /></g><polygon
         id="_112591832"
         class="fil17"
         points="1.21069,8.17382 20.1583,8.17382 20.1583,8.4896 1.21069,8.50831 " /></g></g></svg>