<?xml version="1.0" encoding="UTF-8" standalone="no"?>
<!-- Creator: CorelDRAW -->

<svg
   xmlns:dc="http://purl.org/dc/elements/1.1/"
   xmlns:cc="http://creativecommons.org/ns#"
   xmlns:rdf="http://www.w3.org/1999/02/22-rdf-syntax-ns#"
   xmlns:svg="http://www.w3.org/2000/svg"
   xmlns="http://www.w3.org/2000/svg"
   xmlns:sodipodi="http://sodipodi.sourceforge.net/DTD/sodipodi-0.dtd"
   xmlns:inkscape="http://www.inkscape.org/namespaces/inkscape"
   xml:space="preserve"
   width="24px"
   height="24px"
   style="shape-rendering:geometricPrecision; text-rendering:geometricPrecision; image-rendering:optimizeQuality; fill-rule:evenodd; clip-rule:evenodd"
   viewBox="0 0 24 24"
   id="svg2"
   version="1.1"
   inkscape:version="0.91 r13725"
   sodipodi:docname="document-open-folder.svg"><metadata
     id="metadata71"><rdf:RDF><cc:Work
         rdf:about=""><dc:format>image/svg+xml</dc:format><dc:type
           rdf:resource="http://purl.org/dc/dcmitype/StillImage" /></cc:Work></rdf:RDF></metadata><sodipodi:namedview
     pagecolor="#ffffff"
     bordercolor="#666666"
     borderopacity="1"
     objecttolerance="10"
     gridtolerance="10"
     guidetolerance="10"
     inkscape:pageopacity="0"
     inkscape:pageshadow="2"
     inkscape:window-width="640"
     inkscape:window-height="480"
     id="namedview69"
     showgrid="false"
     inkscape:zoom="9.8333333"
     inkscape:cx="12"
     inkscape:cy="12"
     inkscape:window-x="0"
     inkscape:window-y="28"
     inkscape:window-maximized="0"
     inkscape:current-layer="svg2" /><defs
     id="defs4"><style
       type="text/css"
       id="style6"><![CDATA[
    .fil22 {fill:#6897BD;fill-rule:nonzero}
    .fil15 {fill:white;fill-rule:nonzero}
    .fil1 {fill:#949191;fill-opacity:0.000000}
    .fil2 {fill:#949191;fill-opacity:0.007843}
    .fil3 {fill:#949191;fill-opacity:0.019608}
    .fil4 {fill:#949191;fill-opacity:0.027451}
    .fil5 {fill:#949191;fill-opacity:0.035294}
    .fil6 {fill:#949191;fill-opacity:0.047059}
    .fil7 {fill:#949191;fill-opacity:0.054902}
    .fil8 {fill:#949191;fill-opacity:0.062745}
    .fil9 {fill:#949191;fill-opacity:0.074510}
    .fil10 {fill:#949191;fill-opacity:0.082353}
    .fil11 {fill:#949191;fill-opacity:0.094118}
    .fil12 {fill:#949191;fill-opacity:0.101961}
    .fil13 {fill:#949191;fill-opacity:0.109804}
    .fil18 {fill:#0F172E;fill-opacity:0.121569}
    .fil14 {fill:#949191;fill-opacity:0.121569}
    .fil17 {fill:#0F172E;fill-opacity:0.219608}
    .fil20 {fill:#B0E2FC;fill-rule:nonzero;fill-opacity:0.780392}
    .fil19 {fill:url(#id0)}
    .fil0 {fill:url(#id1)}
    .fil21 {fill:url(#id2);fill-rule:nonzero}
    .fil16 {fill:url(#id3);fill-rule:nonzero}
   ]]></style><linearGradient
       id="id0"
       gradientUnits="userSpaceOnUse"
       x1="11.8319"
       y1="10.6875"
       x2="12.1046"
       y2="22.5115"><stop
         offset="0"
         style="stop-color:#5589C4"
         id="stop9" /><stop
         offset="0.188235"
         style="stop-color:#649FCF"
         id="stop11" /><stop
         offset="0.909804"
         style="stop-color:#9FCFF5"
         id="stop13" /><stop
         offset="1"
         style="stop-color:#8BBEE8"
         id="stop15" /></linearGradient><linearGradient
       id="id1"
       gradientUnits="userSpaceOnUse"
       x1="11.8761"
       y1="3.84268"
       x2="12.0916"
       y2="12.8382"><stop
         offset="0"
         style="stop-color:#F0F0F0"
         id="stop18" /><stop
         offset="1"
         style="stop-color:#D6D6D6"
         id="stop20" /></linearGradient><linearGradient
       id="id2"
       gradientUnits="userSpaceOnUse"
       x1="12.0621"
       y1="21.6379"
       x2="11.8744"
       y2="11.5635"><stop
         offset="0"
         style="stop-color:#567FA3"
         id="stop23" /><stop
         offset="1"
         style="stop-color:#6494BA"
         id="stop25" /></linearGradient><linearGradient
       id="id3"
       gradientUnits="userSpaceOnUse"
       x1="11.9813"
       y1="10.0795"
       x2="11.9813"
       y2="6.7346"><stop
         offset="0"
         style="stop-color:#949494"
         id="stop28" /><stop
         offset="1"
         style="stop-color:#ABABAB"
         id="stop30" /></linearGradient></defs><g
     id="Слой_x0020_1"><metadata
       id="CorelCorpID_0Corel-Layer" /><path
       class="fil0"
       d="M2.44717 4.35122l0.923818 0c0.26986,-0.132379 0.434555,-0.429452 0.670682,-0.940543 0.187655,-0.407058 0.359719,-1.06895 0.80788,-1.06895 2.01091,0 3.89937,0 5.91057,0 0.448161,0 0.593013,0.661895 0.781801,1.06895 0.290837,0.630714 0.662178,0.859471 1.08086,0.940543l8.89802 0c0.54454,0 0.989866,0.445893 0.989866,0.989866l0 8.00822c0,0.543689 -0.446177,0.989866 -0.989866,0.989866l-19.0736 0c-0.543689,0 -0.989866,-0.445326 -0.989866,-0.989866l0 -8.00822c0,-0.572886 0.429169,-0.989866 0.989866,-0.989866z"
       id="path34" /><g
       id="_112603328"><polygon
         id="_112602968"
         class="fil1"
         points="1.85812,7.84098 22.7992,7.84098 22.7992,10.3831 1.85812,10.4018 " /><g
         id="g38"><path
           id="_112576376"
           class="fil2"
           d="M1.85841 8.01219c6.98037,0 13.9605,0 20.9408,0l0 2.37092 -20.9408 0.0187088 0 -2.38963z" /><path
           id="_112571744"
           class="fil3"
           d="M1.85841 8.1834c6.98037,0 13.9605,0 20.9408,0l0 2.1997 -20.9408 0.0187088 0 -2.21841z" /><path
           id="_112571840"
           class="fil4"
           d="M1.85841 8.35462c6.98037,0 13.9605,0 20.9408,0l0 2.02849 -20.9408 0.0187088 0 -2.0472z" /><path
           id="_112600856"
           class="fil5"
           d="M1.85841 8.52611c6.98037,0 13.9605,0 20.9408,0l0 1.85699 -20.9408 0.0187088 0 -1.8757z" /><path
           id="_112592312"
           class="fil6"
           d="M1.85841 8.69704c6.98037,0 13.9605,0 20.9408,0l0 1.68606 -20.9408 0.0187088 0 -1.70477z" /><path
           id="_112573736"
           class="fil7"
           d="M1.85841 8.86854c6.98037,0 13.9605,0 20.9408,0l0 1.51456 -20.9408 0.0187088 0 -1.53327z" /><path
           id="_112594256"
           class="fil8"
           d="M1.85841 9.03976c6.98037,0 13.9605,0 20.9408,0l0 1.34335 -20.9408 0.0187088 0 -1.36206z" /><path
           id="_112583312"
           class="fil9"
           d="M1.85841 9.21097c6.98037,0 13.9605,0 20.9408,0l0 1.17214 -20.9408 0.0187088 0 -1.19084z" /><path
           id="_112575776"
           class="fil10"
           d="M1.85841 9.38218c6.98037,0 13.9605,0 20.9408,0l0 1.00092 -20.9408 0.0187088 0 -1.01963z" /><path
           id="_112587128"
           class="fil11"
           d="M1.85841 9.5534c6.98037,0 13.9605,0 20.9408,0l0 0.829707 -20.9408 0.0187088 0 -0.848416z" /><path
           id="_112598576"
           class="fil12"
           d="M1.85841 9.7249c6.98037,0 13.9605,0 20.9408,0l0 0.65821 -20.9408 0.0187088 0 -0.676919z" /><path
           id="_112577960"
           class="fil13"
           d="M1.85841 9.89583c6.98037,0 13.9605,0 20.9408,0l0 0.487279 -20.9408 0.0187088 0 -0.505988z" /></g><polygon
         id="_112602632"
         class="fil14"
         points="1.85812,10.0673 22.7992,10.0673 22.7992,10.3831 1.85812,10.4018 " /></g><path
       class="fil15"
       d="M1.84395 4.77982c0.0490398,-0.0586776 1.31869,-0.244348 1.3751,-0.366523 0.0252285,-0.0549926 0.0581107,-0.135214 0.0915598,-0.217419l0.00198427 0c0.216285,-0.529516 0.466303,-1.14265 1.1676,-1.14265l5.91057 0c0.696761,0 0.927787,0.58791 1.13387,1.11487 0.0323152,0.0824888 0.0640635,0.34753 0.101198,0.427468l0 0.00198427c0.110552,0.24038 0.228474,0.264191 0.351499,0.363121 0.0972291,0.0782368 0.206931,0.125009 0.324853,0.152789l8.84927 0c0.409893,0 0.782935,0.167812 1.05251,0.437389 0.269577,0.269577 0.437389,0.642619 0.437389,1.05251l0 7.82397c0,0.408759 -0.167812,0.780384 -0.437389,1.05053l-0.00198427 0.00198427c-0.270144,0.269577 -0.641769,0.437389 -1.05053,0.437389l-18.0894 0 0 -1.00007 18.0894 0c0.134363,0 0.805896,-0.0547091 0.894621,-0.1423l-0.547091 -0.00198427c0.0875912,-0.0887251 0.691376,-0.211183 0.691376,-0.345546l0 -7.82397c0,-0.13408 -0.0555595,-0.256821 -0.144285,-0.345546 -0.0887251,-0.0887251 -0.211466,-0.144285 -0.345546,-0.144285l-9.4471 0 -0.0938275 -0.00963787c-0.2829,-0.0547091 -0.553611,-0.346396 -0.80703,-0.550209 -0.239246,-0.192474 -0.45298,-0.465452 -0.632414,-0.854369l-0.0008504 0.000283467c-0.0394019,-0.0847566 -0.0816384,-0.19219 -0.124442,-0.301609 -0.0881582,-0.225923 -0.187372,-0.344696 -0.204096,-0.344696l-5.91057 0c-0.034016,0 -0.147403,0.144001 -0.245482,0.383814l0.0017008 0.000566934c-0.0345829,0.0853235 -0.0688824,0.168946 -0.110836,0.259939 -0.128694,0.278364 -0.240096,0.50202 -0.361704,0.682588 -0.152505,0.22564 -1.53922,0.502303 -1.76146,0.610871l-0.158458 0.038268 0 -1.24952z"
       id="path53" /><path
       class="fil16"
       d="M3.22075 3.98469c0.0266459,-0.0274963 0.0544256,-0.0632131 0.0841896,-0.107434 0.0867408,-0.128694 0.176316,-0.310396 0.283467,-0.541989 0.0252285,-0.0549926 0.0581107,-0.135214 0.0915598,-0.217419l0.00198427 0c0.216285,-0.529516 0.466303,-1.14265 1.1676,-1.14265l5.91057 0c0.696761,0 0.927787,0.772164 1.13387,1.29913 0.0323152,0.0824888 0.0640635,0.163277 0.101198,0.243215l0 0.00198427c0.110552,0.24038 0.228474,0.397704 0.351499,0.496634 0.0972291,0.0782368 0.206931,-0.008504 0.324853,0.0192757l8.60378 0c1.14436,0 1.766,0.734462 1.766,1.85869l-0.0306144 7.45518c0,0.408759 -0.167812,0.780384 -0.437389,1.05053l-0.00198427 0.00198427c-0.270144,0.269577 -0.641769,0.437389 -1.05053,0.437389l-19.0736 0c-0.409893,0 -0.782935,-0.167812 -1.05251,-0.437389 -0.269577,-0.269577 -0.437389,-0.642619 -0.437389,-1.05251l0 -7.70094c-0.0357168,-1.25973 1.15343,-1.70874 2.26348,-1.66367zm0.150237 0.866558l-0.923818 0c-0.145135,0 -0.270144,0.0507406 -0.355467,0.135214l0.0008504 0.00113387c-0.0839062,0.0839062 -0.135214,0.514776 -0.135214,0.660761l0 7.70094c0,0.13408 0.0555595,0.256821 0.144285,0.345546 0.0887251,0.0887251 0.211466,0.144285 0.345546,0.144285l19.0736 0c0.134363,0 0.256821,-0.0547091 0.345546,-0.1423l0.00198427 -0.00198427c0.0875912,-0.0887251 0.1423,-0.211183 0.1423,-0.345546l0.0306144 -7.45518c0,-0.581107 -0.172631,-0.858621 -0.765927,-0.858621l-8.65254 0 -0.0938275 -0.00963787c-0.2829,-0.0547091 -0.553611,-0.162143 -0.80703,-0.365956 -0.239246,-0.192474 -0.45298,-0.516193 -0.632414,-0.905109l-0.0008504 0.000283467c-0.0394019,-0.0847566 -0.0816384,-0.19219 -0.124442,-0.301609 -0.0881582,-0.225923 -0.187372,-0.478208 -0.204096,-0.478208l-5.91057 0c-0.034016,0 -0.147403,0.277514 -0.245482,0.517327l0.0017008 0.000566934c-0.0345829,0.0853235 -0.0688824,0.168946 -0.110836,0.259939 -0.128694,0.278364 -0.240096,0.50202 -0.361704,0.682588 -0.152505,0.22564 -0.321168,0.25427 -0.543406,0.362838l-0.218836 0.0527248z"
       id="path55" /><polygon
       class="fil17"
       points="0.479342,23.0002 23.532,23.0002 23.532,23.89 0.479342,23.89 "
       id="polygon57" /><polygon
       class="fil18"
       points="0.479342,22.0004 23.532,22.0004 23.532,23.0002 0.479342,23.0002 "
       id="polygon59" /><path
       class="fil19"
       d="M1.41989 10.6453c-0.389767,0.0790872 -1.02275,0.374743 -0.911062,1.14832 0.532067,3.69045 1.05166,5.68691 1.10949,9.46836 0,0 -0.104883,1.31217 1.73312,1.22514l17.3881 0c1.83772,0.0878747 1.73397,-1.22429 1.73397,-1.22429 0.26986,-3.15272 -0.200978,-5.62143 0.954149,-9.46921 0.111686,-0.773581 -0.55843,-1.09135 -0.948196,-1.16958l-21.0596 0.02126z"
       id="path61" /><path
       class="fil20"
       d="M23.2984 12.3991c0.164127,-1.11969 -0.730494,-1.58628 -1.94855,-1.38133l-2.21388 0 -16.8521 0c-1.21806,-0.204946 -2.11268,0.26164 -1.94855,1.38133 0,0.333357 -0.0198427,0.285168 -0.0198427,0.618525 0.259939,-0.831692 0.504004,-0.966905 2.02792,-0.999787l16.7926 0 2.15435 0c1.52392,0.0328821 1.76798,0.168096 2.02792,0.999787 0,-0.333357 -0.0198427,-0.285168 -0.0198427,-0.618525z"
       id="path63" /><path
       class="fil21"
       d="M0.948196 11.5405c-0.00708667,0.0428035 -0.00737014,0.093544 0.00113387,0.153639l0.189356 1.29828 0.000283467 0c0.461767,3.15073 0.628729,4.87931 0.68032,8.26249l0 0.051591c0,0.00141733 -0.0360003,0.760258 1.12281,0.705549l0.0280632 -0.00226773 18.1359 0 0.0280632 0.00226773c1.15881,0.055276 1.10836,-0.703281 1.10836,-0.704698l0 -0.0938275c0.301325,-3.52973 -0.313798,-6.08121 0.718588,-9.55708 0.008504,-0.109135 -0.0181419,-0.186521 -0.0612288,-0.239813 -0.0564099,-0.0697328 -0.138048,-0.121891 -0.221955,-0.158741l-0.122174 -1.24045 0.0408192 0.0034016c0.326554,0.0651974 0.796542,0.255404 1.10921,0.641202 0.241797,0.298491 0.388066,0.692793 0.314932,1.20105l-0.0187088 0.0867408c-1.00432,3.34604 -0.575721,5.89214 -0.867408,9.3391 -0.000283467,0.350932 -0.127277,1.88902 -2.3335,1.79661l0 0.00141733 -17.6937 0 0 -0.00141733c-2.22918,0.0986464 -2.32641,-1.70052 -2.33123,-1.85699 -0.0530083,-3.25675 -0.214868,-4.95188 -0.670682,-8.06265l0 -0.00226773 -0.189639 -1.30055c-0.0731344,-0.506839 0.0651974,-0.896889 0.297924,-1.19056 0.238396,-0.300475 0.572603,-0.476224 0.864574,-0.570052l-0.152505 1.43803 0.0223939 0z"
       id="path65" /><path
       class="fil22"
       d="M1.45872 11.0288c-0.119056,0.0306144 -0.227907,0.151371 -0.307278,0.251435 -0.0240947,0.0303309 -0.0422366,0.0705832 -0.0507406,0.122458l-0.0223939 0 0 -1.28524c0.0779534,-0.0249451 0.152789,-0.0439374 0.221955,-0.0581107l0.119623 -0.0116221 21.0596 -0.02126 0.0762526 0.0059528 0 1.08766c-0.0513075,-0.0226773 -0.103465,-0.0394019 -0.151371,-0.0513075l-20.9456 -0.0399688z"
       id="path67" /></g></svg>