<?xml version="1.0" encoding="UTF-8" standalone="no"?>
<!-- Creator: CorelDRAW -->

<svg
   xmlns:dc="http://purl.org/dc/elements/1.1/"
   xmlns:cc="http://creativecommons.org/ns#"
   xmlns:rdf="http://www.w3.org/1999/02/22-rdf-syntax-ns#"
   xmlns:svg="http://www.w3.org/2000/svg"
   xmlns="http://www.w3.org/2000/svg"
   xmlns:xlink="http://www.w3.org/1999/xlink"
   xmlns:sodipodi="http://sodipodi.sourceforge.net/DTD/sodipodi-0.dtd"
   xmlns:inkscape="http://www.inkscape.org/namespaces/inkscape"
   xml:space="preserve"
   width="24px"
   height="24px"
   style="shape-rendering:geometricPrecision; text-rendering:geometricPrecision; image-rendering:optimizeQuality; fill-rule:evenodd; clip-rule:evenodd"
   viewBox="0 0 24 24"
   id="svg2"
   version="1.1"
   inkscape:version="0.91 r13725"
   sodipodi:docname="document-open24.svg"><metadata
     id="metadata71"><rdf:RDF><cc:Work
         rdf:about=""><dc:format>image/svg+xml</dc:format><dc:type
           rdf:resource="http://purl.org/dc/dcmitype/StillImage" /><dc:title></dc:title></cc:Work></rdf:RDF></metadata><sodipodi:namedview
     pagecolor="#ffffff"
     bordercolor="#666666"
     borderopacity="1"
     objecttolerance="10"
     gridtolerance="10"
     guidetolerance="10"
     inkscape:pageopacity="0"
     inkscape:pageshadow="2"
     inkscape:window-width="1920"
     inkscape:window-height="999"
     id="namedview69"
     showgrid="false"
     inkscape:zoom="27.812867"
     inkscape:cx="7.5237916"
     inkscape:cy="13.32283"
     inkscape:window-x="-2"
     inkscape:window-y="-2"
     inkscape:window-maximized="1"
     inkscape:current-layer="svg2" /><defs
     id="defs4"><style
       type="text/css"
       id="style6"><![CDATA[
    .fil22 {fill:#6897BD;fill-rule:nonzero}
    .fil15 {fill:white;fill-rule:nonzero}
    .fil1 {fill:#949191;fill-opacity:0.000000}
    .fil2 {fill:#949191;fill-opacity:0.007843}
    .fil3 {fill:#949191;fill-opacity:0.019608}
    .fil4 {fill:#949191;fill-opacity:0.027451}
    .fil5 {fill:#949191;fill-opacity:0.035294}
    .fil6 {fill:#949191;fill-opacity:0.047059}
    .fil7 {fill:#949191;fill-opacity:0.054902}
    .fil8 {fill:#949191;fill-opacity:0.062745}
    .fil9 {fill:#949191;fill-opacity:0.074510}
    .fil10 {fill:#949191;fill-opacity:0.082353}
    .fil11 {fill:#949191;fill-opacity:0.094118}
    .fil12 {fill:#949191;fill-opacity:0.101961}
    .fil13 {fill:#949191;fill-opacity:0.109804}
    .fil18 {fill:#0F172E;fill-opacity:0.121569}
    .fil14 {fill:#949191;fill-opacity:0.121569}
    .fil17 {fill:#0F172E;fill-opacity:0.219608}
    .fil20 {fill:#B0E2FC;fill-rule:nonzero;fill-opacity:0.780392}
    .fil19 {fill:url(#id0)}
    .fil0 {fill:url(#id1)}
    .fil21 {fill:url(#id2);fill-rule:nonzero}
    .fil16 {fill:url(#id3);fill-rule:nonzero}
   ]]></style><linearGradient
       id="id0"
       gradientUnits="userSpaceOnUse"
       x1="11.8319"
       y1="10.6875"
       x2="12.1046"
       y2="22.5115"><stop
         offset="0"
         style="stop-color:#5589C4"
         id="stop9" /><stop
         offset="0.188235"
         style="stop-color:#649FCF"
         id="stop11" /><stop
         offset="0.909804"
         style="stop-color:#9FCFF5"
         id="stop13" /><stop
         offset="1"
         style="stop-color:#8BBEE8"
         id="stop15" /></linearGradient><linearGradient
       id="id1"
       gradientUnits="userSpaceOnUse"
       x1="11.8761"
       y1="3.84268"
       x2="12.0916"
       y2="12.8382"><stop
         offset="0"
         style="stop-color:#F0F0F0"
         id="stop18" /><stop
         offset="1"
         style="stop-color:#D6D6D6"
         id="stop20" /></linearGradient><linearGradient
       id="id2"
       gradientUnits="userSpaceOnUse"
       x1="12.0621"
       y1="21.6379"
       x2="11.8744"
       y2="11.5635"><stop
         offset="0"
         style="stop-color:#567FA3"
         id="stop23" /><stop
         offset="1"
         style="stop-color:#6494BA"
         id="stop25" /></linearGradient><linearGradient
       id="id3"
       gradientUnits="userSpaceOnUse"
       x1="11.9813"
       y1="10.0795"
       x2="11.9813"
       y2="6.7346"><stop
         offset="0"
         style="stop-color:#949494"
         id="stop28" /><stop
         offset="1"
         style="stop-color:#ABABAB"
         id="stop30" /></linearGradient><linearGradient
       x1="8.2449274"
       y1="23.890966"
       x2="47.572372"
       y2="23.890966"
       id="linearGradient3662"
       xlink:href="#linearGradient2264"
       gradientUnits="userSpaceOnUse"
       gradientTransform="matrix(0,0.2754215,0.2672682,0.00178079,5.897544,0.1405069)" /><linearGradient
       id="linearGradient2264"><stop
         id="stop2266"
         style="stop-color:#d7e866;stop-opacity:1"
         offset="0" /><stop
         id="stop2268"
         style="stop-color:#8cab2a;stop-opacity:1"
         offset="1" /></linearGradient><linearGradient
       x1="39.754635"
       y1="25.925968"
       x2="-29.246557"
       y2="27.531633"
       id="linearGradient3659"
       xlink:href="#linearGradient4222"
       gradientUnits="userSpaceOnUse"
       gradientTransform="matrix(0,-0.3312326,0.3199431,0.00846287,3.988004,14.551459)" /><linearGradient
       id="linearGradient4222"><stop
         id="stop4224"
         style="stop-color:#ffffff;stop-opacity:1"
         offset="0" /><stop
         id="stop4226"
         style="stop-color:#ffffff;stop-opacity:0"
         offset="1" /></linearGradient></defs><g
     id="g4225"><path
       class="fil0"
       d="m 2.44717,4.35122 0.923818,0 C 3.640848,4.218841 3.805543,3.921768 4.04167,3.410677 4.229325,3.003619 4.401389,2.341727 4.84955,2.341727 c 2.01091,0 3.89937,0 5.91057,0 0.448161,0 0.593013,0.661895 0.781801,1.06895 0.290837,0.630714 0.662178,0.859471 1.08086,0.940543 l 8.89802,0 c 0.54454,0 0.989866,0.445893 0.989866,0.989866 l 0,8.00822 c 0,0.543689 -0.446177,0.989866 -0.989866,0.989866 l -19.0736,0 c -0.543689,0 -0.989866,-0.445326 -0.989866,-0.989866 l 0,-8.00822 c 0,-0.572886 0.429169,-0.989866 0.989866,-0.989866 z"
       id="path34"
       style="fill:url(#id1)"
       inkscape:connector-curvature="0" /><g
       id="_112603328"><polygon
         id="_112602968"
         class="fil1"
         points="22.7992,10.3831 1.85812,10.4018 1.85812,7.84098 22.7992,7.84098 "
         style="fill:#949191;fill-opacity:0" /><g
         id="g38"><path
           id="_112576376"
           class="fil2"
           d="m 1.85841,8.01219 c 6.98037,0 13.9605,0 20.9408,0 l 0,2.37092 -20.9408,0.01871 0,-2.3896302 z"
           inkscape:connector-curvature="0"
           style="fill:#949191;fill-opacity:0.00784302" /><path
           id="_112571744"
           class="fil3"
           d="m 1.85841,8.1834 c 6.98037,0 13.9605,0 20.9408,0 l 0,2.1997 -20.9408,0.01871 0,-2.2184102 z"
           inkscape:connector-curvature="0"
           style="fill:#949191;fill-opacity:0.01960802" /><path
           id="_112571840"
           class="fil4"
           d="m 1.85841,8.35462 c 6.98037,0 13.9605,0 20.9408,0 l 0,2.02849 -20.9408,0.01871 0,-2.0472002 z"
           inkscape:connector-curvature="0"
           style="fill:#949191;fill-opacity:0.02745098" /><path
           id="_112600856"
           class="fil5"
           d="m 1.85841,8.52611 c 6.98037,0 13.9605,0 20.9408,0 l 0,1.85699 -20.9408,0.01871 0,-1.8757002 z"
           inkscape:connector-curvature="0"
           style="fill:#949191;fill-opacity:0.035294" /><path
           id="_112592312"
           class="fil6"
           d="m 1.85841,8.69704 c 6.98037,0 13.9605,0 20.9408,0 l 0,1.68606 -20.9408,0.01871 0,-1.7047702 z"
           inkscape:connector-curvature="0"
           style="fill:#949191;fill-opacity:0.047059" /><path
           id="_112573736"
           class="fil7"
           d="m 1.85841,8.86854 c 6.98037,0 13.9605,0 20.9408,0 l 0,1.51456 -20.9408,0.01871 0,-1.5332702 z"
           inkscape:connector-curvature="0"
           style="fill:#949191;fill-opacity:0.05490202" /><path
           id="_112594256"
           class="fil8"
           d="m 1.85841,9.03976 c 6.98037,0 13.9605,0 20.9408,0 l 0,1.34335 -20.9408,0.01871 0,-1.3620602 z"
           inkscape:connector-curvature="0"
           style="fill:#949191;fill-opacity:0.06274498" /><path
           id="_112583312"
           class="fil9"
           d="m 1.85841,9.21097 c 6.98037,0 13.9605,0 20.9408,0 l 0,1.17214 -20.9408,0.01871 0,-1.1908402 z"
           inkscape:connector-curvature="0"
           style="fill:#949191;fill-opacity:0.07450998" /><path
           id="_112575776"
           class="fil10"
           d="m 1.85841,9.38218 c 6.98037,0 13.9605,0 20.9408,0 l 0,1.00092 -20.9408,0.01871 0,-1.0196302 z"
           inkscape:connector-curvature="0"
           style="fill:#949191;fill-opacity:0.082353" /><path
           id="_112587128"
           class="fil11"
           d="m 1.85841,9.5534 c 6.98037,0 13.9605,0 20.9408,0 l 0,0.829707 -20.9408,0.01871 0,-0.8484162 z"
           inkscape:connector-curvature="0"
           style="fill:#949191;fill-opacity:0.09411801" /><path
           id="_112598576"
           class="fil12"
           d="m 1.85841,9.7249 c 6.98037,0 13.9605,0 20.9408,0 l 0,0.65821 -20.9408,0.01871 0,-0.6769192 z"
           inkscape:connector-curvature="0"
           style="fill:#949191;fill-opacity:0.10196102" /><path
           id="_112577960"
           class="fil13"
           d="m 1.85841,9.89583 c 6.98037,0 13.9605,0 20.9408,0 l 0,0.487279 -20.9408,0.01871 0,-0.5059882 z"
           inkscape:connector-curvature="0"
           style="fill:#949191;fill-opacity:0.10980398" /></g><polygon
         id="_112602632"
         class="fil14"
         points="22.7992,10.3831 1.85812,10.4018 1.85812,10.0673 22.7992,10.0673 "
         style="fill:#949191;fill-opacity:0.12156899" /></g><path
       class="fil15"
       d="M 1.84395,4.77982 C 1.89299,4.721142 3.16264,4.535472 3.21905,4.413297 3.244278,4.358304 3.277161,4.278083 3.31061,4.195878 l 0.00198,0 c 0.216285,-0.529516 0.466303,-1.14265 1.1676,-1.14265 l 5.91057,0 c 0.696761,0 0.927787,0.58791 1.13387,1.11487 0.03231,0.082489 0.06406,0.34753 0.101198,0.427468 l 0,0.00198 c 0.110552,0.24038 0.228474,0.264191 0.351499,0.363121 0.09723,0.078237 0.206931,0.125009 0.324853,0.152789 l 8.84927,0 c 0.409893,0 0.782935,0.167812 1.05251,0.437389 0.269577,0.269577 0.437389,0.642619 0.437389,1.05251 l 0,7.82397 c 0,0.408759 -0.167812,0.780384 -0.437389,1.05053 l -0.002,0.002 c -0.270144,0.269577 -0.641769,0.437389 -1.05053,0.437389 l -18.0894003,0 0,-1.00007 18.0894003,0 c 0.134363,0 0.805896,-0.05471 0.894621,-0.1423 l -0.547091,-0.002 c 0.08759,-0.08873 0.691376,-0.211183 0.691376,-0.345546 l 0,-7.82397 c 0,-0.13408 -0.05556,-0.256821 -0.144285,-0.345546 -0.08873,-0.088725 -0.211466,-0.144285 -0.345546,-0.144285 l -9.4471,0 -0.09383,-0.00964 C 11.876675,6.049178 11.605964,5.757491 11.352545,5.553678 11.113299,5.361204 10.899565,5.088226 10.720131,4.699309 l -8.5e-4,2.835e-4 c -0.0394,-0.084757 -0.08164,-0.19219 -0.124442,-0.301609 -0.08816,-0.225923 -0.187372,-0.344696 -0.204096,-0.344696 l -5.9105702,0 c -0.034016,0 -0.147403,0.144001 -0.245482,0.383814 l 0.0017,5.669e-4 c -0.034583,0.085324 -0.068882,0.168946 -0.110836,0.259939 -0.128694,0.278364 -0.240096,0.50202 -0.361704,0.682588 -0.152505,0.22564 -1.53922,0.502303 -1.76146,0.610871 l -0.158458,0.038268 0,-1.24952 z"
       id="path53"
       inkscape:connector-curvature="0"
       style="fill:#ffffff;fill-rule:nonzero" /><path
       class="fil16"
       d="M 3.22075,3.98469 C 3.247396,3.957194 3.275176,3.921477 3.30494,3.877256 3.391681,3.748562 3.481256,3.56686 3.588407,3.335267 3.613636,3.280274 3.646518,3.200053 3.679967,3.117848 l 0.00198,0 c 0.216285,-0.529516 0.466303,-1.14265 1.1676,-1.14265 l 5.91057,0 c 0.696761,0 0.927787,0.772164 1.13387,1.29913 0.03232,0.082489 0.06406,0.163277 0.101198,0.243215 l 0,0.00198 c 0.110552,0.24038 0.228474,0.397704 0.351499,0.496634 0.09723,0.078237 0.206931,-0.0085 0.324853,0.019276 l 8.60378,0 c 1.14436,0 1.766,0.734462 1.766,1.85869 l -0.03062,7.45518 c 0,0.408759 -0.167812,0.780384 -0.437389,1.05053 l -0.002,0.002 c -0.270144,0.269577 -0.641769,0.437389 -1.05053,0.437389 l -19.0735997,0 c -0.409893,0 -0.782935,-0.167812 -1.05251,-0.437389 -0.269577,-0.269577 -0.437389,-0.642619 -0.437389,-1.05251 l 0,-7.7009398 c -0.0357168,-1.25973 1.15343,-1.70874 2.26348,-1.66367 z m 0.150237,0.866558 -0.923818,0 c -0.145135,0 -0.270144,0.050741 -0.355467,0.135214 l 8.504e-4,0.00113 c -0.083906,0.083906 -0.135214,0.514776 -0.135214,0.660761 l 0,7.70094 c 0,0.13408 0.055559,0.256821 0.144285,0.345546 0.088725,0.08873 0.211466,0.144285 0.345546,0.144285 l 19.0735996,0 c 0.134363,0 0.256821,-0.05471 0.345546,-0.1423 l 0.002,-0.002 c 0.08759,-0.08873 0.1423,-0.211183 0.1423,-0.345546 l 0.03061,-7.4551803 c 0,-0.581107 -0.172631,-0.858621 -0.765927,-0.858621 l -8.65254,0 -0.09383,-0.00964 c -0.2829,-0.054709 -0.553611,-0.162143 -0.80703,-0.365956 -0.239246,-0.192474 -0.45298,-0.516193 -0.632414,-0.905109 l -8.51e-4,2.835e-4 c -0.0394,-0.084757 -0.08164,-0.19219 -0.124442,-0.301609 -0.08816,-0.225923 -0.187372,-0.478208 -0.204096,-0.478208 l -5.9105698,0 c -0.034016,0 -0.147403,0.277514 -0.245482,0.517327 l 0.0017,5.669e-4 c -0.034583,0.085323 -0.068882,0.168946 -0.110836,0.259939 -0.128694,0.278364 -0.240096,0.50202 -0.361704,0.682588 -0.152505,0.22564 -0.321168,0.25427 -0.543406,0.362838 l -0.218836,0.052725 z"
       id="path55"
       style="fill:url(#id3);fill-rule:nonzero"
       inkscape:connector-curvature="0" /><g
       id="g4201"
       transform="translate(-0.59664117,-0.06817)"><path
         inkscape:connector-curvature="0"
         style="display:inline;overflow:visible;visibility:visible;fill:url(#linearGradient3662);fill-opacity:1;fill-rule:nonzero;stroke:#548820;stroke-width:0.99939346;stroke-linecap:butt;stroke-linejoin:round;stroke-miterlimit:4;stroke-dasharray:none;stroke-dashoffset:0;stroke-opacity:1;marker:none;marker-start:none;marker-mid:none;marker-end:none"
         id="path5656"
         d="m 7.015085,6.5681465 5.492607,-6.00030316 5.670506,6.00030316 -2.673677,0 0,11.9272485 -5.993657,-0.03636 0,-11.8908905 -2.495779,0 z" /><path
         inkscape:connector-curvature="0"
         style="display:inline;overflow:visible;visibility:visible;opacity:0.4;fill:none;fill-opacity:1;fill-rule:nonzero;stroke:url(#linearGradient3659);stroke-width:0.99939346;stroke-linecap:butt;stroke-linejoin:miter;stroke-miterlimit:4;stroke-dasharray:none;stroke-dashoffset:0;stroke-opacity:1;marker:none;marker-start:none;marker-mid:none;marker-end:none"
         id="path4360"
         d="m 9.256494,5.5681467 3.251198,-3.4296851 3.394764,3.4296851 -1.396878,0 0,12.6997363 -3.995772,-0.126761 0,-12.5729753 -1.253312,0 z" /></g><polygon
       class="fil17"
       points="23.532,23.89 0.479342,23.89 0.479342,23.0002 23.532,23.0002 "
       id="polygon57"
       style="fill:#0f172e;fill-opacity:0.21960802" /><polygon
       class="fil18"
       points="23.532,23.0002 0.479342,23.0002 0.479342,22.0004 23.532,22.0004 "
       id="polygon59"
       style="fill:#0f172e;fill-opacity:0.12156899" /><path
       class="fil19"
       d="m 1.41989,10.6453 c -0.389767,0.07909 -1.02275,0.374743 -0.911062,1.14832 0.532067,3.69045 1.05166,5.68691 1.10949,9.46836 0,0 -0.104883,1.31217 1.73312,1.22514 l 17.3881,0 c 1.83772,0.08788 1.73397,-1.22429 1.73397,-1.22429 0.26986,-3.15272 -0.200978,-5.62143 0.954149,-9.46921 0.111686,-0.773581 -0.55843,-1.09135 -0.948196,-1.16958 l -21.0596,0.02126 z"
       id="path61"
       style="fill:url(#id0)"
       inkscape:connector-curvature="0" /><path
       class="fil20"
       d="m 23.2984,12.3991 c 0.164127,-1.11969 -0.730494,-1.58628 -1.94855,-1.38133 l -2.21388,0 -16.8521,0 c -1.21806,-0.204946 -2.11268,0.26164 -1.94855,1.38133 0,0.333357 -0.0198427,0.285168 -0.0198427,0.618525 0.259939,-0.831692 0.504004,-0.966905 2.02792,-0.999787 l 16.7925997,0 2.15435,0 c 1.52392,0.03288 1.76798,0.168096 2.02792,0.999787 0,-0.333357 -0.01984,-0.285168 -0.01984,-0.618525 z"
       id="path63"
       inkscape:connector-curvature="0"
       style="fill:#b0e2fc;fill-opacity:0.78039198;fill-rule:nonzero" /><path
       class="fil21"
       d="m 0.948196,11.5405 c -0.007087,0.0428 -0.00737,0.09354 0.001134,0.153639 l 0.189356,1.29828 2.834e-4,0 c 0.461767,3.15073 0.628729,4.87931 0.68032,8.26249 l 0,0.05159 c 0,0.0014 -0.036,0.760258 1.12281,0.705549 l 0.028063,-0.0023 18.1359006,0 0.02806,0.0023 c 1.15881,0.05528 1.10836,-0.703281 1.10836,-0.704698 l 0,-0.09383 c 0.301325,-3.52973 -0.313798,-6.08121 0.718588,-9.55708 0.0085,-0.109135 -0.01814,-0.186521 -0.06123,-0.239813 -0.05641,-0.06973 -0.138048,-0.121891 -0.221955,-0.158741 l -0.122174,-1.24045 0.04082,0.0034 c 0.326554,0.0652 0.796542,0.255404 1.10921,0.641202 0.241797,0.298491 0.388066,0.692793 0.314932,1.20105 l -0.01871,0.08674 c -1.00432,3.34604 -0.575721,5.89214 -0.867408,9.3391 -2.83e-4,0.350932 -0.127277,1.88902 -2.3335,1.79661 l 0,0.0014 -17.6936998,0 0,-0.0014 c -2.22917993,0.09865 -2.32640993,-1.70052 -2.33122993,-1.85699 -0.0530083,-3.25675 -0.214868,-4.95188 -0.670682,-8.06265 l 0,-0.0023 -0.189639,-1.30055 c -0.0731344,-0.506839 0.0651974,-0.896889 0.297924,-1.19056 0.238396,-0.300475 0.572603,-0.476224 0.86457393,-0.570052 l -0.15250493,1.43803 0.0223939,0 z"
       id="path65"
       style="fill:url(#id2);fill-rule:nonzero"
       inkscape:connector-curvature="0" /><path
       class="fil22"
       d="m 1.45872,11.0288 c -0.119056,0.03061 -0.227907,0.151371 -0.307278,0.251435 -0.024095,0.03033 -0.042237,0.07058 -0.050741,0.122458 l -0.022394,0 0,-1.28524 c 0.077953,-0.02494 0.152789,-0.04394 0.221955,-0.05811 l 0.119623,-0.01162 21.0596,-0.02126 0.07625,0.006 0,1.08766 c -0.05131,-0.02268 -0.103465,-0.0394 -0.151371,-0.05131 L 1.4587671,11.028797 Z"
       id="path67"
       inkscape:connector-curvature="0"
       style="fill:#6897bd;fill-rule:nonzero" /></g></svg>